<svg fill="none" height="16" viewBox="0 0 16 16" width="16" xmlns="http://www.w3.org/2000/svg"><g fill="#00a008"><path d="m12.75 1c-.4142 0-.75.33577-.75.74999v.75001h-.75c-.4142 0-.75.33579-.75.75s.3358.75.75.75h.75v.75c0 .41421.3358.75.75.75s.75-.33579.75-.75v-.75h.75c.4142 0 .75-.33579.75-.75s-.3358-.75-.75-.75h-.75v-.75001c0-.41422-.3358-.74999-.75-.74999z"/><path clip-rule="evenodd" d="m8.25 1.5c.41421 0 .75.33579.75.75s-.33579.75-.75.75h-3c-1.24264 0-2.25 1.00736-2.25 2.25v4.8876l1.02477-1.37019c.74959-1.00224 2.24658-1.01858 3.01786-.03293l.26001.33228 1.54939-2.17842c.8043-1.13083 2.47297-1.16186 3.31877-.0617l.8292 1.07861v-.15525c0-.41421.3358-.75.75-.75s.75.33579.75.75v3c0 2.0711-1.6789 3.75-3.75 3.75h-5.5c-2.07107 0-3.75-1.6789-3.75-3.75v-5.5c0-2.07107 1.67893-3.75 3.75-3.75zm2.7316 6.24087 2.0184 2.62543v.3837c0 1.2426-1.0074 2.25-2.25 2.25h-5.5c-.74945 0-1.41332-.3664-1.82223-.9299l1.79821-2.4043c.1578-.211.47296-.21444.63533-.00693l.53443.68293-.64846.9118c-.24008.3375-.16106.8058.17648 1.0458.33754.2401.8058.1611 1.04588-.1764l3.10476-4.36526c.2198-.30912.676-.3176.9072-.01687z" fill-rule="evenodd"/><path d="m4.66742 5.5c0 .69036.55964 1.25 1.25 1.25.69035 0 1.25-.55964 1.25-1.25s-.55965-1.25-1.25-1.25c-.69036 0-1.25.55964-1.25 1.25z"/></g></svg>