<svg fill="none" height="20" viewBox="0 0 20 20" width="20" xmlns="http://www.w3.org/2000/svg"><g fill="#00a008"><path d="m15.5 1.75c0-.41421.3358-.75.75-.75s.75.33579.75.75v1.25h1.25c.4142 0 .75.33579.75.75s-.3358.75-.75.75h-1.25v1.25c0 .41421-.3358.75-.75.75s-.75-.33579-.75-.75v-1.25h-1.25c-.4142 0-.75-.33579-.75-.75s.3358-.75.75-.75h1.25z"/><path clip-rule="evenodd" d="m11.25 2c.4142 0 .75.33579.75.75s-.3358.75-.75.75h-4.75c-1.65685 0-3 1.34315-3 3v6.1057l1.28649-1.7202c.86794-1.16046 2.6013-1.17937 3.49436-.0381l.80393 1.0274 2.01342-2.83084c.9359-1.31588 2.8765-1.35525 3.865-.07842l1.5368 1.98506v-2.2006c0-.41421.3358-.75.75-.75s.75.33579.75.75v4.75c0 2.4853-2.0147 4.5-4.5 4.5h-7c-2.48528 0-4.5-2.0147-4.5-4.5v-7c0-2.48528 2.01472-4.5 4.5-4.5zm-4.75 14.5c-1.21161 0-2.25547-.7183-2.729-1.7522l2.21669-2.9639c.27617-.3692.82769-.3752 1.11185-.0121l1.0182 1.3012c.02.0256.04133.0495.06381.0717l-1.00263 1.4097c-.24008.3375-.16106.8058.17648 1.0459.33754.24.8058.161 1.04588-.1765l3.91932-5.51045c.3527-.49589 1.084-.51073 1.4565-.02955l2.7229 3.5171v.0991c0 1.6569-1.3431 3-3 3z" fill-rule="evenodd"/><path d="m5.31007 6.47999c0 .7732.6268 1.4 1.4 1.4s1.4-.6268 1.4-1.4-.6268-1.4-1.4-1.4-1.4.6268-1.4 1.4z"/></g></svg>