<svg fill="none" height="24" viewBox="0 0 24 24" width="24" xmlns="http://www.w3.org/2000/svg"><g fill="#00a008"><path d="m19.2497 1c-.4142 0-.75.33579-.75.75v2.24998l-2.2597.00002c-.4142 0-.74.33579-.74.75s.3258.75.74.75l2.2597-.00002.0003 2.25002c0 .41421.3358.75.75.75s.75-.33579.75-.75l-.0003-2.25002 2.2503.00002c.4142 0 .75-.33579.75-.75s-.3358-.75-.75-.75l-2.2503-.00002v-2.24998c0-.41421-.3357-.75-.75-.75z"/><path clip-rule="evenodd" d="m13.25 2.5c.4142 0 .75.33579.75.75s-.3358.75-.75.75h-5.5c-2.07107 0-3.75 1.67893-3.75 3.75v7.645l1.76108-2.3547c.9863-1.3188 2.95606-1.3403 3.9709-.0433l.76812.9816 2.7166-3.8196c1.0692-1.50325 3.2862-1.54824 4.4155-.0895l2.3678 3.0584v-2.3779c0-.4142.3358-.75.75-.75s.75.3358.75.75v5.5c0 2.8995-2.3505 5.25-5.25 5.25h-8.5c-2.8995 0-5.25-2.3505-5.25-5.25v-8.5c0-2.8995 2.35051-5.25 5.25-5.25zm-5.5 17.5c-1.60396 0-2.97273-1.007-3.50855-2.4233l2.72085-3.638c.39452-.5275 1.18242-.5361 1.58836-.0174l1.04251 1.3324-1.10663 1.5559c-.24008.3375-.16107.8058.17648 1.0458.33754.2401.8058.1611 1.04587-.1764l4.73021-6.6506c.486-.6833 1.4937-.7037 2.007-.0407l3.4616 4.4712c.0282.0365.0592.0697.0923.0994v.6917c0 2.0711-1.6789 3.75-3.75 3.75z" fill-rule="evenodd"/><path d="m6.09961 8.0001c0 1.04934.85066 1.9 1.9 1.9s1.9-.85066 1.9-1.9-.85066-1.9-1.9-1.9-1.9.85066-1.9 1.9z"/></g></svg>