<svg fill="none" height="16" viewBox="0 0 16 16" width="16" xmlns="http://www.w3.org/2000/svg" xmlns:xlink="http://www.w3.org/1999/xlink"><clipPath id="a"><path d="m0 0h16v16h-16z"/></clipPath><g clip-path="url(#a)"><path clip-rule="evenodd" d="m7.17798.830487c.243-.087625.51316-.073012.74707.043945l6.55275 3.276368c.3645.18243.5377.5406.5224.8916v7.2217c.2742.22.4502.5578.4502.9365l-.0068.1221c-.0614.6051-.5721 1.078-1.1934 1.0781l-.123-.0068c-.5647-.0575-1.014-.5065-1.0713-1.0713l-.0059-.1221c0-.3791.1757-.7175.4502-.9375v-5.9248l-1 .5v4.4248l-.0136.208c-.063.4787-.3419.906-.7764 1.1338-1.0349.5423-2.87477 1.3954-4.20996 1.3955-1.16828 0-2.72335-.6531-3.7871-1.1797l-.42286-.2158c-.43447-.2278-.71339-.6551-.77636-1.1338l-.01368-.208v-4.4248l-1.977534-.98828c-.700198-.3501-.700195-1.34912 0-1.69922l6.552734-3.276368zm.74707 8.295893c-.26735.13368-.58223.13357-.84961 0l-3.0752-1.53808v3.6748c.00003.0087.00077.0165.00196.0215.48439.2532 1.13501.5673 1.80273.8154.70439.2618 1.29768.4004 1.69531.4004.3977 0 .99092-.1386 1.69532-.4004.66749-.2481 1.31744-.5622 1.80174-.8154.0013-.005.0029-.0127.0029-.0215v-3.6748zm-5.74707-4.12597 5.32226 2.66113 5.32226-2.66113-5.32226-2.66113z" fill="#00a008" fill-rule="evenodd"/></g></svg>