<svg fill="none" height="20" viewBox="0 0 20 20" width="20" xmlns="http://www.w3.org/2000/svg"><path clip-rule="evenodd" d="m9.01165 1.07273c.31482-.121679.66424-.120099.97852.00293l.15433.07129 7.6474 4.16797c.4691.25569.704.72009.7041 1.18457l.0039 8.70211c.448.2594.7499.743.75 1.2979 0 .8284-.6715 1.5-1.5 1.5-.8284 0-1.5-.6716-1.5-1.5.0002-.5548.3021-1.0385.75-1.2979v-7.08492l-1.5.81738v5.28024l-.0039.1328c-.0436.6581-.4105 1.2541-1.0039 1.5547l-.5097.251c-1.2744.609-3.1029 1.3467-4.48247 1.3467-1.57667 0-3.74013-.964-4.99219-1.5977-.59334-.3006-.9603-.8967-1.0039-1.5547l-.00391-.1328v-5.24606l-2.37597-1.28028c-.945492-.50993-.945449-1.866 0-2.37597l7.73437-4.16797zm1.13285 10.78027c-.40065.2183-.8845.2193-1.28617.0029l-3.8584-2.08004v4.43844c.00003.188.09465.3035.18555.3496.59447.3009 1.38773.6704 2.20215.962.84177.3012 1.5833.4736 2.1123.4736.52897 0 1.27047-.1723 2.11227-.4736.8145-.2916 1.6077-.6611 2.2022-.962.0909-.0461.1855-.1615.1855-.3496v-4.46286zm-8.06351-5.35351 7.41601 3.99711 7.3359-3.99711-7.3359-3.99707z" fill="#00a008" fill-rule="evenodd"/></svg>