<svg fill="none" height="24" viewBox="0 0 24 24" width="24" xmlns="http://www.w3.org/2000/svg"><path clip-rule="evenodd" d="m10.2283 2.19004c.486-.23849 1.0558-.23833 1.542 0l8.8876 4.46317c.5593.27453.8398.81067.8399 1.34668l.0022.00015-.0003 9.11406c1.0144.3185 1.75 1.2663 1.75 2.3858 0 1.3807-1.1192 2.5-2.5 2.5-1.3806-.0001-2.5-1.1194-2.5-2.5.0001-1.1193.7359-2.0672 1.75-2.3858v-7.44526l-2 .98046v5.7275c0 1.0921-.5914 2.1012-1.5839 2.5567-1.4905.684-3.738 1.5664-5.4161 1.5664-1.46829-.0001-3.37263-.6757-4.82417-1.3027l-.5918-.2637c-.99238-.4556-1.58399-1.4647-1.58399-2.5567v-5.7265l-2.6582-1.30373c-1.118511-.5492-1.118597-2.14424 0-2.69336zm10.5214 16.30986c-.5521.0001-.9999.4479-1 1 0 .5522.4479.9999 1 1 .5523 0 1-.4477 1-1 0-.5522-.4477-1-1-1zm-8.9794-4.6899c-.4862.2384-1.0559.2385-1.542 0l-4.72856-2.4234v4.9902c0 .5602.2975 1.0042.70899 1.1934.71264.3271 1.58811.6932 2.46875.9746.90105.2879 1.71102.455 2.32222.4551.6113 0 1.4212-.1672 2.3223-.4551.8807-.2814 1.7561-.6475 2.4688-.9746.4116-.1891.7089-.6331.7089-1.1934v-4.9912zm-.6602-10.27c-.0694-.03388-.1514-.03401-.2207 0l-8.88673 4.45989 8.88673 4.46011c.0694.034.1513.0339.2207 0l8.8867-4.46011z" fill="#00a008" fill-rule="evenodd"/></svg>