<svg fill="none" height="24" viewBox="0 0 24 24" width="24" xmlns="http://www.w3.org/2000/svg"><path d="m2 8.4c0-2.24021 0-3.36032.43597-4.21596.3835-.75265.99542-1.36457 1.74807-1.74807.85564-.43597 1.97575-.43597 4.21596-.43597h7.2c2.2402 0 3.3603 0 4.216.43597.7526.3835 1.3645.99542 1.748 1.74807.436.85564.436 1.97575.436 4.21596v7.2c0 2.2402 0 3.3603-.436 4.216-.3835.7526-.9954 1.3645-1.748 1.748-.8557.436-1.9758.436-4.216.436h-7.2c-2.24021 0-3.36032 0-4.21596-.436-.75265-.3835-1.36457-.9954-1.74807-1.748-.43597-.8557-.43597-1.9758-.43597-4.216z" fill="#00a008"/></svg>