<svg fill="none" height="16" viewBox="0 0 16 16" width="16" xmlns="http://www.w3.org/2000/svg"><g clip-rule="evenodd" fill="#00a008" fill-rule="evenodd"><path d="m4.10352 5c.32646 1.15425 1.3877 2 2.64648 2s2.32002-.84575 2.64648-2h4.35352c.4142 0 .75-.33579.75-.75s-.3358-.75-.75-.75h-4.35352c-.32646-1.15425-1.3877-2-2.64648-2s-2.32002.84575-2.64648 2h-1.85352c-.41421 0-.75.33579-.75.75s.33579.75.75.75zm3.89648-.75c0 .69036-.55964 1.25-1.25 1.25s-1.25-.55964-1.25-1.25.55964-1.25 1.25-1.25 1.25.55964 1.25 1.25z"/><path d="m11.8965 11c-.3265-1.15425-1.3877-2-2.6465-2-1.25878 0-2.32002.84575-2.64648 2h-4.35352c-.41421 0-.75.3358-.75.75s.33579.75.75.75h4.35352c.32646 1.1543 1.3877 2 2.64648 2 1.2588 0 2.32-.8457 2.6465-2h1.8535c.4142 0 .75-.3358.75-.75s-.3358-.75-.75-.75zm-1.3965.75c0 .6904-.55964 1.25-1.25 1.25s-1.25-.5596-1.25-1.25.55964-1.25 1.25-1.25 1.25.5596 1.25 1.25z"/></g></svg>