<svg fill="none" height="20" viewBox="0 0 20 20" width="20" xmlns="http://www.w3.org/2000/svg"><g clip-rule="evenodd" fill="#00a008" fill-rule="evenodd"><path d="m4.58697 6.5c.33858 1.43335 1.62624 2.5 3.16303 2.5s2.8245-1.06665 3.163-2.5h6.337c.4142 0 .75-.33579.75-.75s-.3358-.75-.75-.75h-6.337c-.3385-1.43335-1.62621-2.5-3.163-2.5s-2.82445 1.06665-3.16303 2.5h-1.83697c-.41421 0-.75.33579-.75.75s.33579.75.75.75zm4.91303-.75c0 .9665-.7835 1.75-1.75 1.75s-1.75-.7835-1.75-1.75.7835-1.75 1.75-1.75 1.75.7835 1.75 1.75z"/><path d="m15.413 13.5c-.3385-1.4334-1.6262-2.5-3.163-2.5s-2.82445 1.0666-3.16303 2.5h-6.33697c-.41421 0-.75.3358-.75.75s.33579.75.75.75h6.33697c.33858 1.4334 1.62623 2.5 3.16303 2.5s2.8245-1.0666 3.163-2.5h1.837c.4142 0 .75-.3358.75-.75s-.3358-.75-.75-.75zm-1.413.75c0 .9665-.7835 1.75-1.75 1.75s-1.75-.7835-1.75-1.75.7835-1.75 1.75-1.75 1.75.7835 1.75 1.75z"/></g></svg>