<svg fill="none" height="24" viewBox="0 0 24 24" width="24" xmlns="http://www.w3.org/2000/svg"><g clip-rule="evenodd" fill="#00a008" fill-rule="evenodd"><path d="m9.75 3.5c1.8142 0 3.3275 1.28832 3.675 3h6.825c.4142 0 .75.33579.75.75s-.3358.75-.75.75h-6.825c-.3475 1.71168-1.8608 3-3.675 3-1.81422 0-3.32753-1.28832-3.67499-3h-2.32501c-.41421 0-.75-.33579-.75-.75s.33579-.75.75-.75h2.32501c.34746-1.71168 1.86077-3 3.67499-3zm2.25 3.75c0 1.24264-1.0074 2.25-2.25 2.25-1.24264 0-2.25-1.00736-2.25-2.25s1.00736-2.25 2.25-2.25c1.2426 0 2.25 1.00736 2.25 2.25z"/><path d="m14.25 20.5c-1.8142 0-3.3275-1.2883-3.675-3h-6.825c-.41421 0-.75-.3358-.75-.75s.33579-.75.75-.75h6.825c.3475-1.7117 1.8608-3 3.675-3s3.3275 1.2883 3.675 3h2.325c.4142 0 .75.3358.75.75s-.3358.75-.75.75h-2.325c-.3475 1.7117-1.8608 3-3.675 3zm2.25-3.75c0 1.2426-1.0074 2.25-2.25 2.25s-2.25-1.0074-2.25-2.25 1.0074-2.25 2.25-2.25 2.25 1.0074 2.25 2.25z"/></g></svg>