<svg fill="none" height="16" viewBox="0 0 16 16" width="16" xmlns="http://www.w3.org/2000/svg"><g fill="#00a008"><path d="m11.5967 10.4961c.2781-.3068.7527-.3297 1.0595-.0518.3069.2782.33.7527.0518 1.0596-1.3431 1.4813-3.09618 2.738-4.35644 3.4082-.22007.1168-.48409.117-.7041 0-1.26031-.6703-3.01339-1.9269-4.35644-3.4082-.27799-.3068-.25486-.7814.05175-1.0596.30681-.2781.78134-.2549 1.05957.0518 1.09194 1.2044 2.50533 2.2574 3.59668 2.8926 1.09143-.6351 2.50538-1.6879 3.59768-2.8926z"/><path d="m6.03711 5.50097c.26337.01305.5009.1638.625.39648l1.40918 2.64258.80469-1.20605.05664-.07422c.14143-.16373.34799-.25977.56738-.25977h5.5c.4142 0 .75.33579.75.75s-.3358.75-.75.75h-5.09863l-1.27735 1.91601c-.14634.2195-.39762.3459-.66113.333-.26337-.013-.5009-.1638-.625-.3965l-1.41016-2.64352-.30371.45703c-.1391.20864-.37326.33398-.62402.33398h-4c-.414211 0-.749995-.33579-.75-.75 0-.41421.335786-.75.75-.75h3.59863l.77735-1.16601.05957-.07813c.14967-.17101.37104-.26619.60156-.25488z"/><path d="m7.99902 2.72558c1.01306-1.04869 2.33388-1.40677 3.58008-1.1416 1.4949.31835 2.783 1.51245 3.2412 3.22168.1072.40009-.1302.81171-.5303.91894-.3999.10694-.8117-.13036-.9189-.53027-.3203-1.19471-1.1906-1.94898-2.1045-2.14356-.8813-.18746-1.90183.12344-2.63183 1.28809-.13711.21854-.37678.35142-.63477.35156-.2581-.00012-.49865-.13286-.63574-.35156-.73009-1.16467-1.75055-1.47569-2.63184-1.28809-.91369.19476-1.78434.94903-2.10449 2.14356-.10732.39996-.51893.63748-.91895.53027-.39978-.10741-.63739-.51904-.53027-.91894.45811-1.7091 1.7465-2.90315 3.24121-3.22168 1.246-.26525 2.56606.09339 3.5791 1.1416z"/></g></svg>