<svg fill="none" height="20" viewBox="0 0 20 20" width="20" xmlns="http://www.w3.org/2000/svg"><g fill="#00a008"><path d="m15.0166 12.4973c.2779-.3071.7525-.3306 1.0596-.0527.307.2779.3306.7515.0527 1.0586-1.7315 1.9128-4.1121 3.5785-5.7949 4.4179-.2106.1048-.45841.1051-.66896 0-1.68294-.8395-4.06343-2.505-5.79492-4.4179-.27754-.307-.25374-.7807.05273-1.0586.30708-.278.7816-.2543 1.05957.0527 1.48102 1.6361 3.50738 3.0953 5.0166 3.9072 1.50918-.8117 3.53618-2.2708 5.01758-3.9072z"/><path d="m7.02051 5.50023c.27648.00768.52669.16765.65039.41504l2.4746 4.95023 1.2686-1.58402c.1423-.17791.3581-.28125.5859-.28125h7c.4142 0 .75.33579.75.75-.0001.41407-.3359.74997-.75.74997h-6.6387l-1.7754 2.2188c-.1597.1996-.4107.3043-.665.2773-.25424-.0269-.47739-.1825-.5918-.4111l-2.37305-4.7461-1.30468 2.2832c-.13356.2336-.38231.3779-.65137.3779h-4c-.414122 0-.749851-.3359-.75-.74997 0-.41421.335786-.75.75-.75h3.56445l1.78418-3.12207c.13718-.24006.3955-.38548.67188-.37793z"/><path d="m9.99902 3.57836c1.40508-1.48838 3.30988-1.87263 4.99118-1.36719 1.9251.57895 3.5183 2.31139 3.7344 4.72168.0368.41239-.2673.77739-.6797.81445-.4121.03668-.7772-.26761-.8144-.67968-.16-1.78606-1.3199-3.0133-2.6719-3.41993-1.3312-.4002-2.8879-.01895-3.9356 1.54883-.1391.20791-.3728.33385-.623.33399-.25032-.00015-.48494-.12585-.62402-.33399-1.04778-1.56785-2.60435-1.94918-3.93555-1.54883-1.35167.40682-2.51191 1.63415-2.67188 3.41993-.03734.41217-.40214.71662-.81445.67968-.41202-.03737-.71644-.4023-.67969-.81445.21608-2.4101 1.80951-4.14258 3.73438-4.72168 1.68125-.50559 3.58508-.12082 4.99023 1.36719z"/></g></svg>