<svg fill="none" height="24" viewBox="0 0 24 24" width="24" xmlns="http://www.w3.org/2000/svg"><g fill="#00a008"><path d="m4.86328 14.4227c.31845-.2644.79093-.2205 1.05567.0977 1.69482 2.0387 4.23545 3.8952 6.08105 4.8828 1.8456-.9875 4.3862-2.8442 6.0811-4.8828.2648-.3181.7382-.3622 1.0566-.0977.3181.2647.3609.7373.0967 1.0557-1.9542 2.3506-4.8828 4.4335-6.8985 5.4414-.2111.1056-.4597.1056-.6709 0-2.01563-1.0078-4.94501-3.0905-6.89938-5.4414-.26421-.3185-.22064-.791.09766-1.0557z"/><path d="m9.02051 7.49989c.27649.00767.52669.16764.65039.41504l2.4746 4.95017 1.2686-1.584c.1423-.1779.3581-.2812.5859-.2812h9c.4142 0 .75.3358.75.75s-.3358.75-.75.75h-8.6387l-1.7754 2.2187c-.1597.1998-.4107.3043-.665.2774-.2543-.027-.4774-.1824-.5918-.4111l-2.37305-4.74614-1.30468 2.28324c-.13354.2336-.38223.3779-.65137.3779h-6c-.414213 0-.749999-.3358-.75-.75 0-.4142.335786-.75.75-.75h5.56445l1.78418-3.12208c.13718-.24006.3955-.38549.67188-.37793z"/><path d="m12 5.03407c1.5885-1.73883 3.775-2.16356 5.6787-1.54492 2.1482.69832 3.8939 2.7091 4.0244 5.47461.0195.41356-.3004.76538-.7138.78515-.4137.01947-.7655-.30029-.7852-.71386-.1005-2.13083-1.4224-3.60996-2.9883-4.11914-1.5467-.50279-3.3745-.07557-4.5918 1.75-.1391.20834-.3735.33392-.624.33398-.2506-.00006-.4849-.12554-.624-.33398-1.2172-1.82553-3.04422-2.25257-4.59084-1.75-1.56601.50907-2.88879 1.98815-2.98926 4.11914-.01967.41347-.37068.73317-.78418.71386-.41376-.01947-.73334-.3714-.71387-.78515.13049-2.76549 1.87528-4.7763 4.02344-5.47461 1.90367-.61867 4.09021-.19393 5.67871 1.54492z"/></g></svg>