<svg fill="none" height="16" viewBox="0 0 16 16" width="16" xmlns="http://www.w3.org/2000/svg"><path d="m1 5c0-1.65685 1.34315-3 3-3h8c1.6569 0 3 1.34315 3 3v6c0 1.6569-1.3431 3-3 3h-8c-1.65685 0-3-1.3431-3-3z" fill="#00afcc"/><path d="m10.5 6.5c0 1.38071-1.11929 2.5-2.5 2.5s-2.5-1.11929-2.5-2.5 1.11929-2.5 2.5-2.5 2.5 1.11929 2.5 2.5z" fill="#ffc600"/><path d="m5.5 9.5-1-2.5v3.5l3.5 1.5 3.5-1.5v-3.5l-1 2.5-2.5 1z" fill="#ffc600"/><path clip-rule="evenodd" d="m12 3h-8c-1.10457 0-2 .89543-2 2v6c0 1.1046.89543 2 2 2h8c1.1046 0 2-.8954 2-2v-6c0-1.10457-.8954-2-2-2zm-8-1c-1.65685 0-3 1.34315-3 3v6c0 1.6569 1.34315 3 3 3h8c1.6569 0 3-1.3431 3-3v-6c0-1.65685-1.3431-3-3-3z" fill="#1d1f26" fill-opacity=".2" fill-rule="evenodd"/></svg>