<svg fill="none" height="20" viewBox="0 0 20 20" width="20" xmlns="http://www.w3.org/2000/svg"><path d="m1 6c0-1.65685 1.34315-3 3-3h12c1.6569 0 3 1.34315 3 3v8c0 1.6569-1.3431 3-3 3h-12c-1.65685 0-3-1.3431-3-3z" fill="#00afcc"/><path d="m13 8.5c0 1.6569-1.3431 3-3 3-1.65685 0-3-1.3431-3-3 0-1.65685 1.34315-3 3-3 1.6569 0 3 1.34315 3 3z" fill="#ffc600"/><path d="m7 12-1-3v4l4 1.5 4-1.5v-4l-1 3-3 1z" fill="#ffc600"/><path clip-rule="evenodd" d="m16 4h-12c-1.10457 0-2 .89543-2 2v8c0 1.1046.89543 2 2 2h12c1.1046 0 2-.8954 2-2v-8c0-1.10457-.8954-2-2-2zm-12-1c-1.65685 0-3 1.34315-3 3v8c0 1.6569 1.34315 3 3 3h12c1.6569 0 3-1.3431 3-3v-8c0-1.65685-1.3431-3-3-3z" fill="#1d1f26" fill-opacity=".2" fill-rule="evenodd"/></svg>