<svg fill="none" height="24" viewBox="0 0 24 24" width="24" xmlns="http://www.w3.org/2000/svg"><path d="m2 7c0-1.65685 1.34315-3 3-3h14c1.6569 0 3 1.34315 3 3v10c0 1.6569-1.3431 3-3 3h-14c-1.65685 0-3-1.3431-3-3z" fill="#00afcc"/><path d="m15 10.5c0 1.6569-1.3431 3-3 3s-3-1.3431-3-3c0-1.65685 1.3431-3 3-3s3 1.34315 3 3z" fill="#ffc600"/><path d="m9 14-1-3v4l4 1.5 4-1.5v-4l-1 3-3 1z" fill="#ffc600"/><path clip-rule="evenodd" d="m19 5h-14c-1.10457 0-2 .89543-2 2v10c0 1.1046.89543 2 2 2h14c1.1046 0 2-.8954 2-2v-10c0-1.10457-.8954-2-2-2zm-14-1c-1.65685 0-3 1.34315-3 3v10c0 1.6569 1.34315 3 3 3h14c1.6569 0 3-1.3431 3-3v-10c0-1.65685-1.3431-3-3-3z" fill="#1d1f26" fill-opacity=".2" fill-rule="evenodd"/></svg>