<svg fill="none" height="16" viewBox="0 0 16 16" width="16" xmlns="http://www.w3.org/2000/svg"><path clip-rule="evenodd" d="m6.04985 2.00684c.27701.03361.52925.1829.69336.41308l2.26075 3.17188 2.69624-3.23242c.19-.2277.472-.35938.7686-.35938h.9971l.0752.01074c.1619.04976.2355.25707.1172.39942l-3.73052 4.47558 4.50882 6.32426c.2357.3309-.0009.7899-.4073.79h-3.9589c-.28281-.0001-.55021-.1199-.73832-.3262l-.07519-.0937-2.2627-3.1739-2.69434 3.2344-.07519.0801c-.15882.1527-.36401.2492-.58301.2734l-.11035.0059h-.99707c-.21196 0-.32807-.2473-.19238-.4102l3.72949-4.4775-4.50781-6.32226c-.22112-.31032-.0271-.73358.333-.78516l.07422-.00488h3.95899zm4.27835 10.49316h1.7607l-6.41698-9h-1.76074z" fill="#00a008" fill-rule="evenodd"/></svg>