<svg fill="none" height="24" viewBox="0 0 24 24" width="24" xmlns="http://www.w3.org/2000/svg"><path clip-rule="evenodd" d="m9.56846 3.00879c.2976.03878.56464.20978.72364.46973l3.2266 5.28027 4.1816-5.37305c.1895-.24331.4807-.38574.7891-.38574h1c.2076.00037.3245.23924.1972.40332l-5.2871 6.79588 6.1358 10.0401c.2035.3331-.0364.7606-.4268.7607h-5.5479c-.3047-.0001-.59-.1392-.7783-.373l-.0742-.1055-3.2285-5.2822-4.1797 5.375-.07519.0859c-.16012.1632-.37152.2667-.59864.293l-.11523.0068h-1l-.07324-.0107c-.15977-.0482-.23543-.249-.12403-.3926l5.28614-6.7979-6.13477-10.03806c-.1909-.3124.00804-.70776.35547-.75586l.07129-.00488h5.54785zm5.27244 16.49121h3.4844l-9.16602-15h-3.48438z" fill="#00a008" fill-rule="evenodd"/></svg>