<svg fill="none" height="16" viewBox="0 0 16 16" width="16" xmlns="http://www.w3.org/2000/svg"><path d="m7.84829 7.68684-5.79385 6.15326c.17969.6698.78957 1.1598 1.5138 1.1598.28861 0 .56087-.0762.79502-.2178l.01634-.0109 6.5235-3.7627-3.05481-3.3271z" fill="#ea4335"/><path d="m13.7184 6.64149h-.0055l-2.8152-1.63905-3.17465 2.82614 3.18555 3.18552 2.8043-1.61726c.4901-.26683.8223-.78413.8223-1.37768 0-.59354-.3267-1.11085-.8168-1.37222z" fill="#fbbc04"/><path d="m2.05445 2.16528c-.03268.13069-.05446.26138-.05446.40296v10.87436c0 .1416.01634.2723.05446.403l5.99532-5.99537z" fill="#4285f4"/><path d="m7.89185 8.00272 3.00035-3.00039-6.51805-3.77907c-.23415-.14158-.51186-.22326-.81135-.22326-.71879 0-1.33411.49553-1.50836 1.15986l5.84285 5.83741z" fill="#34a853"/></svg>