<svg fill="none" height="20" viewBox="0 0 20 20" width="20" xmlns="http://www.w3.org/2000/svg"><path d="m10.1015 9.61989-7.03538 7.47181c.2182.8133.95877 1.4084 1.83819 1.4084.35045 0 .68106-.0926.96538-.2645l.01984-.0132 7.92147-4.5691-3.7095-4.04002z" fill="#ea4335"/><path d="m17.2295 8.35038h-.0066l-3.4186-1.99027-3.85487 3.43173 3.86817 3.86816 3.4053-1.9638c.5951-.324.9984-.9522.9984-1.6729 0-.72076-.3967-1.34892-.9918-1.66631z" fill="#fbbc04"/><path d="m3.06612 2.91504c-.03967.15869-.06612.31739-.06612.4893v13.20456c0 .1719.01984.3306.06612.4893l7.28008-7.28002z" fill="#4285f4"/><path d="m10.1544 10.0033 3.6433-3.64333-7.91478-4.58887c-.28433-.17192-.62155-.2711-.98522-.2711-.87281 0-1.61999.60171-1.83158 1.4084l7.09488 7.08829z" fill="#34a853"/></svg>