<svg fill="none" height="24" viewBox="0 0 24 24" width="24" xmlns="http://www.w3.org/2000/svg"><path d="m12.3547 11.5512-8.27691 8.7904c.25671.9568 1.12796 1.6569 2.16258 1.6569.41229 0 .80124-.1089 1.13574-.3111l.02334-.0156 9.31935-5.3753-4.3641-4.753z" fill="#ea4335"/><path d="m20.7406 10.0578h-.0078l-4.0218-2.34149-4.5352 4.03729 4.5508 4.5508 4.0062-2.3104c.7001-.3812 1.1746-1.1202 1.1746-1.9681s-.4667-1.5869-1.1668-1.9603z" fill="#fbbc04"/><path d="m4.07779 3.66333c-.04667.1867-.07779.3734-.07779.57565v15.53482c0 .2022.02334.3889.07779.5756l8.56471-8.5647z" fill="#4285f4"/><path d="m12.417 12.0024 4.2862-4.28625-9.31153-5.39867c-.3345-.20226-.73123-.31894-1.15908-.31894-1.02684 0-1.90587.70789-2.1548 1.65694l8.34691 8.33912z" fill="#34a853"/></svg>