<svg fill="none" height="16" viewBox="0 0 16 16" width="16" xmlns="http://www.w3.org/2000/svg"><g fill="#00a008"><path clip-rule="evenodd" d="m8 13c2.7614 0 5-2.2386 5-5 0-2.76142-2.2386-5-5-5-2.76142 0-5 2.23858-5 5 0 2.7614 2.23858 5 5 5zm0 2c3.866 0 7-3.134 7-7 0-3.86599-3.134-7-7-7-3.86599 0-7 3.13401-7 7 0 3.866 3.13401 7 7 7z" fill-rule="evenodd" opacity=".2"/><path d="m15 8c0 .91925-.1811 1.8295-.5328 2.6788-.3518.8493-.8674 1.6209-1.5175 2.2709-.65.6501-1.4216 1.1657-2.2709 1.5175-.8493.3517-1.75955.5328-2.6788.5328v-2.0002c.65658 0 1.30674-.1293 1.91334-.3806.60656-.2513 1.15776-.6195 1.62206-1.0838s.8325-1.0155 1.0838-1.62206c.2513-.6066.3806-1.25676.3806-1.91334z"/></g></svg>