<svg fill="none" height="20" viewBox="0 0 20 20" width="20" xmlns="http://www.w3.org/2000/svg"><g fill="#00a008"><path clip-rule="evenodd" d="m10 15.5c3.0376 0 5.5-2.4624 5.5-5.5 0-3.03757-2.4624-5.5-5.5-5.5-3.03757 0-5.5 2.46243-5.5 5.5 0 3.0376 2.46243 5.5 5.5 5.5zm0 2.5c4.4183 0 8-3.5817 8-8 0-4.41828-3.5817-8-8-8-4.41828 0-8 3.58172-8 8 0 4.4183 3.58172 8 8 8z" fill-rule="evenodd" opacity=".2"/><path d="m16.7462 10c.6924 0 1.2638.5647 1.1557 1.2487-.0981.6208-.2692 1.2294-.5109 1.8128-.402.9706-.9913 1.8525-1.7341 2.5954-.7429.7428-1.6248 1.3321-2.5954 1.7341-.5834.2417-1.192.4128-1.8128.5109-.684.1081-1.2487-.4633-1.2487-1.1557 0-.6925.5685-1.2396 1.243-1.3963.2926-.068.5799-.1601.8588-.2756.6664-.276 1.2719-.6806 1.7819-1.1906s.9146-1.1155 1.1906-1.7819c.1155-.2789.2076-.5662.2756-.8588.1567-.6745.7038-1.243 1.3963-1.243z"/></g></svg>