<svg fill="none" height="24" viewBox="0 0 24 24" width="24" xmlns="http://www.w3.org/2000/svg"><g clip-rule="evenodd" fill="#00a008" fill-rule="evenodd"><path d="m12 19c3.866 0 7-3.134 7-7 0-3.86599-3.134-7-7-7-3.86599 0-7 3.13401-7 7 0 3.866 3.13401 7 7 7zm0 3c5.5228 0 10-4.4772 10-10 0-5.52285-4.4772-10-10-10-5.52285 0-10 4.47715-10 10 0 5.5228 4.47715 10 10 10z" opacity=".2"/><path d="m21.8877 13.4944c.1238-.8191-.5593-1.4944-1.3877-1.4944s-1.4839.6791-1.6601 1.4886c-.0884.406-.2129.8044-.3727 1.1902-.3518.8493-.8674 1.6209-1.5175 2.2709-.65.6501-1.4216 1.1657-2.2709 1.5175-.3858.1598-.7842.2843-1.1902.3727-.8095.1762-1.4886.8317-1.4886 1.6601s.6753 1.5115 1.4944 1.3877c.7991-.1208 1.5824-.3382 2.3324-.6489 1.2133-.5026 2.3157-1.2391 3.2443-2.1677s1.6651-2.031 2.1677-3.2443c.3107-.75.5281-1.5333.6489-2.3324z"/></g></svg>