<svg fill="none" height="16" viewBox="0 0 16 16" width="16" xmlns="http://www.w3.org/2000/svg"><path clip-rule="evenodd" d="m4.5 3c0-1.38071 1.11929-2.5 2.5-2.5h2c1.3807 0 2.5 1.11929 2.5 2.5v.00762c1.2607.0937 2.3072 1.04199 2.5098 2.3078l.8676 5.42098c.316 1.9747-1.2094 3.7636-3.2092 3.7636h-7.3364c-1.99972 0-3.52506-1.7887-3.2092-3.7633l.86715-5.42107c.20252-1.26605 1.24932-2.21451 2.51025-2.30804zm5.5 2.75v-1.25h-4v1.25c0 .41421-.33579.75-.75.75s-.75-.33579-.75-.75v-1.23316c-.52224.08656-.94309.49816-1.02908 1.03572l-.86715 5.42104c-.17008 1.0632.65126 2.0264 1.72803 2.0264h7.3364c1.0768 0 1.8982-.9633 1.728-2.0265l-.0758-.4735h-7.3204c-.41421 0-.75-.3358-.75-.75 0-.41421.33579-.75.75-.75h7.0804l-.5518-3.44754c-.086-.53737-.5066-.94885-1.0286-1.03555v1.23309c0 .41421-.3358.75-.75.75s-.75-.33579-.75-.75zm-1-3.75c.55228 0 1 .44772 1 1h-4c0-.55228.44772-1 1-1z" fill="#00a008" fill-rule="evenodd"/></svg>