<svg fill="none" height="20" viewBox="0 0 20 20" width="20" xmlns="http://www.w3.org/2000/svg"><path clip-rule="evenodd" d="m6 4.25c0-1.79493 1.45507-3.25 3.25-3.25h1.5c1.7949 0 3.25 1.45507 3.25 3.25v.75491c1.6707.08881 3.0493 1.3716 3.2422 3.05156l.7578 6.60003c.2351 2.0478-1.3662 3.8435-3.4275 3.8435h-9.14453c-2.06129 0-3.6626-1.7957-3.42748-3.8435l.75778-6.60002c.19287-1.67981 1.5712-2.96252 3.24173-3.05154zm6.5 3.5v-1.25h-5v1.25c0 .41421-.33579.75-.75.75s-.75-.33579-.75-.75v-1.24123c-.90755.08608-1.64563.79656-1.75152 1.7188l-.75778 6.60003c-.13289 1.1574.7722 2.1724 1.93727 2.1724h9.14453c1.1651 0 2.0702-1.015 1.9373-2.1724l-.0376-.3276h-9.4722c-.41421 0-.75-.3358-.75-.75s.33579-.75.75-.75h9.2999l-.5479-4.77243c-.1059-.9224-.8442-1.63297-1.752-1.71885v1.24128c0 .41421-.3358.75-.75.75s-.75-.33579-.75-.75zm0-3.5v.75h-5v-.75c0-.9665.7835-1.75 1.75-1.75h1.5c.9665 0 1.75.7835 1.75 1.75z" fill="#00a008" fill-rule="evenodd"/></svg>