<svg fill="none" height="24" viewBox="0 0 24 24" width="24" xmlns="http://www.w3.org/2000/svg"><path clip-rule="evenodd" d="m7 4.75c0-2.07107 1.67893-3.75 3.75-3.75h2.5c2.0711 0 3.75 1.67893 3.75 3.75v1.31114c1.5971.29187 2.8586 1.59837 3.0488 3.26316l.9141 8c.2542 2.2252-1.4861 4.1757-3.7258 4.1757h-10.47491c-2.23975 0-3.98007-1.9505-3.72575-4.1758l.91429-8c.19027-1.66491 1.45195-2.97145 3.04927-3.26314zm8.5 4v-1.25h-7v1.25c0 .41421-.33579.75-.75.75s-.75-.33579-.75-.75v-1.14631c-.82749.26077-1.45579.98797-1.55898 1.89083l-.91428 7.99998c-.15259 1.3352.8916 2.5055 2.23545 2.5055h10.47491c1.3438 0 2.388-1.1703 2.2355-2.5054l-.1137-.9946h-11.3589c-.41421 0-.75-.3358-.75-.75s.33579-.75.75-.75h11.1875l-.629-5.50542c-.1031-.90271-.7312-1.62984-1.5585-1.89074v1.14616c0 .41421-.3358.75-.75.75s-.75-.33579-.75-.75zm0-4v1.25h-7v-1.25c0-1.24264 1.00736-2.25 2.25-2.25h2.5c1.2426 0 2.25 1.00736 2.25 2.25z" fill="#00a008" fill-rule="evenodd"/></svg>