<svg fill="none" height="20" viewBox="0 0 20 20" width="20" xmlns="http://www.w3.org/2000/svg"><g fill="#00a008"><path d="m6.75 11c1.24264 0 2.25 1.0074 2.25 2.25v2.5c0 1.2426-1.00736 2.25-2.25 2.25h-2.5c-1.24264 0-2.25-1.0074-2.25-2.25v-2.5c0-1.2426 1.00736-2.25 2.25-2.25z"/><path d="m15.75 11c1.2426 0 2.25 1.0074 2.25 2.25v2.5c0 1.2426-1.0074 2.25-2.25 2.25h-2.5c-1.2426 0-2.25-1.0074-2.25-2.25v-2.5c0-1.2426 1.0074-2.25 2.25-2.25z"/><path d="m6.75 2c1.24264 0 2.25 1.00736 2.25 2.25v2.5c0 1.24264-1.00736 2.25-2.25 2.25h-2.5c-1.24264 0-2.25-1.00736-2.25-2.25v-2.5c0-1.24264 1.00736-2.25 2.25-2.25z"/><path d="m15.75 2c1.2426 0 2.25 1.00736 2.25 2.25v2.5c0 1.24264-1.0074 2.25-2.25 2.25h-2.5c-1.2426 0-2.25-1.00736-2.25-2.25v-2.5c0-1.24264 1.0074-2.25 2.25-2.25z"/></g></svg>