<svg fill="none" height="24" viewBox="0 0 24 24" width="24" xmlns="http://www.w3.org/2000/svg"><g fill="#00a008"><path d="m8.5 13c1.38071 0 2.5 1.1193 2.5 2.5v3c0 1.3807-1.11929 2.5-2.5 2.5h-3c-1.38071 0-2.5-1.1193-2.5-2.5v-3c0-1.3807 1.11929-2.5 2.5-2.5z"/><path d="m18.5 13c1.3807 0 2.5 1.1193 2.5 2.5v3c0 1.3807-1.1193 2.5-2.5 2.5h-3c-1.3807 0-2.5-1.1193-2.5-2.5v-3c0-1.3807 1.1193-2.5 2.5-2.5z"/><path d="m8.5 3c1.38071 0 2.5 1.11929 2.5 2.5v3c0 1.38071-1.11929 2.5-2.5 2.5h-3c-1.38071 0-2.5-1.11929-2.5-2.5v-3c0-1.38071 1.11929-2.5 2.5-2.5z"/><path d="m18.5 3c1.3807 0 2.5 1.11929 2.5 2.5v3c0 1.38071-1.1193 2.5-2.5 2.5h-3c-1.3807 0-2.5-1.11929-2.5-2.5v-3c0-1.38071 1.1193-2.5 2.5-2.5z"/></g></svg>