<svg fill="none" height="16" viewBox="0 0 16 16" width="16" xmlns="http://www.w3.org/2000/svg"><g fill="#00a008"><path d="m7.25 1.75c0-.41421.33579-.75.75-.75s.75.33579.75.75v.5c0 .41421-.33579.75-.75.75s-.75-.33579-.75-.75z"/><path clip-rule="evenodd" d="m8 12c2.2091 0 4-1.7909 4-4 0-2.20914-1.7909-4-4-4-2.20914 0-4 1.79086-4 4 0 2.2091 1.79086 4 4 4zm0-1.5c1.38071 0 2.5-1.11929 2.5-2.5s-1.11929-2.5-2.5-2.5-2.5 1.11929-2.5 2.5 1.11929 2.5 2.5 2.5z" fill-rule="evenodd"/><path d="m8 13c-.41421 0-.75.3358-.75.75v.5c0 .4142.33579.75.75.75s.75-.3358.75-.75v-.5c0-.4142-.33579-.75-.75-.75z"/><path d="m14.25 7.25c.4142 0 .75.33579.75.75s-.3358.75-.75.75h-.5c-.4142 0-.75-.33579-.75-.75s.3358-.75.75-.75z"/><path d="m3 8c0-.41421-.33579-.75-.75-.75h-.5c-.41421 0-.75.33579-.75.75s.33579.75.75.75h.5c.41421 0 .75-.33579.75-.75z"/><path d="m12.9497 11.8891c.2928.2929.2928.7678 0 1.0607-.2929.2929-.7678.2929-1.0607 0l-.3536-.3536c-.2929-.2929-.2929-.7678 0-1.0606.2929-.2929.7678-.2929 1.0607 0z"/><path d="m4.4643 4.46447c.29289-.29289.29289-.76776 0-1.06066l-.35355-.35355c-.2929-.29289-.76777-.29289-1.06066 0-.2929.29289-.2929.76777 0 1.06066l.35355.35355c.29289.2929.76777.2929 1.06066 0z"/><path d="m4.11041 12.9499c-.29289.2929-.76777.2929-1.06066 0s-.29289-.7678 0-1.0607l.35355-.3535c.2929-.2929.76777-.2929 1.06066 0 .2929.2929.2929.7677 0 1.0606z"/><path d="m11.5351 4.46454c.2929.2929.7678.2929 1.0607 0l.3535-.35355c.2929-.29289.2929-.76777 0-1.06066s-.7678-.29289-1.0606 0l-.3536.35355c-.2929.2929-.2929.76777 0 1.06066z"/></g></svg>