<svg fill="none" height="20" viewBox="0 0 20 20" width="20" xmlns="http://www.w3.org/2000/svg"><g fill="#00a008"><path d="m9.25 1.75c0-.41421.33579-.75.75-.75.4142 0 .75.33579.75.75v1.5c0 .41421-.3358.75-.75.75-.41421 0-.75-.33579-.75-.75z"/><path clip-rule="evenodd" d="m10 15c2.7614 0 5-2.2386 5-5 0-2.76142-2.2386-5-5-5-2.76142 0-5 2.23858-5 5 0 2.7614 2.23858 5 5 5zm0-1.5c1.933 0 3.5-1.567 3.5-3.5s-1.567-3.5-3.5-3.5-3.5 1.567-3.5 3.5 1.567 3.5 3.5 3.5z" fill-rule="evenodd"/><path d="m10 16c-.41421 0-.75.3358-.75.75v1.5c0 .4142.33579.75.75.75.4142 0 .75-.3358.75-.75v-1.5c0-.4142-.3358-.75-.75-.75z"/><path d="m18.25 9.25c.4142 0 .75.33579.75.75 0 .4142-.3358.75-.75.75h-1.5c-.4142 0-.75-.3358-.75-.75 0-.41421.3358-.75.75-.75z"/><path d="m4 10c0-.41421-.33579-.75-.75-.75h-1.5c-.41421 0-.75.33579-.75.75 0 .4142.33579.75.75.75h1.5c.41421 0 .75-.3358.75-.75z"/><path d="m16.3642 15.3033c.2929.2929.2929.7678 0 1.0606-.2929.2929-.7678.2929-1.0607 0l-1.0606-1.0606c-.2929-.2929-.2929-.7678 0-1.0607s.7677-.2929 1.0606 0z"/><path d="m5.75727 5.75738c.29289-.29289.29289-.76777 0-1.06066l-1.06066-1.06066c-.2929-.29289-.76777-.29289-1.06066 0-.2929.29289-.2929.76777 0 1.06066l1.06066 1.06066c.29289.29289.76776.29289 1.06066 0z"/><path d="m4.69683 16.3642c-.29289.2929-.76776.2929-1.06066 0-.29289-.2929-.29289-.7678 0-1.0607l1.06066-1.0606c.2929-.2929.76777-.2929 1.06066 0 .2929.2929.2929.7677 0 1.0606z"/><path d="m14.2426 5.75727c.2929.29289.7678.29289 1.0607 0l1.0606-1.06066c.2929-.2929.2929-.76777 0-1.06066-.2929-.2929-.7677-.2929-1.0606 0l-1.0607 1.06066c-.2929.29289-.2929.76776 0 1.06066z"/></g></svg>