<svg fill="none" height="24" viewBox="0 0 24 24" width="24" xmlns="http://www.w3.org/2000/svg"><g fill="#00a008"><path d="m11.25 1.75c0-.41421.3358-.75.75-.75s.75.33579.75.75v1.5c0 .41421-.3358.75-.75.75s-.75-.33579-.75-.75z"/><path clip-rule="evenodd" d="m12 18.5c3.5899 0 6.5-2.9101 6.5-6.5 0-3.58985-2.9101-6.5-6.5-6.5-3.58985 0-6.5 2.91015-6.5 6.5 0 3.5899 2.91015 6.5 6.5 6.5zm0-1.5c2.7614 0 5-2.2386 5-5 0-2.76142-2.2386-5-5-5-2.76142 0-5 2.23858-5 5 0 2.7614 2.23858 5 5 5z" fill-rule="evenodd"/><path d="m12 20c-.4142 0-.75.3358-.75.75v1.5c0 .4142.3358.75.75.75s.75-.3358.75-.75v-1.5c0-.4142-.3358-.75-.75-.75z"/><path d="m22.25 11.25c.4142 0 .75.3358.75.75s-.3358.75-.75.75h-1.5c-.4142 0-.75-.3358-.75-.75s.3358-.75.75-.75z"/><path d="m4 12c0-.4142-.33579-.75-.75-.75h-1.5c-.41421 0-.75.3358-.75.75s.33579.75.75.75h1.5c.41421 0 .75-.3358.75-.75z"/><path d="m19.7783 18.7175c.2929.2929.2929.7678 0 1.0607s-.7678.2929-1.0607 0l-1.0607-1.0607c-.2929-.2929-.2929-.7677 0-1.0606s.7678-.2929 1.0607 0z"/><path d="m6.3432 6.34314c.2929-.2929.2929-.76777 0-1.06067l-1.06065-1.06066c-.2929-.29289-.76777-.29289-1.06067 0-.29289.2929-.29289.76777 0 1.06066l1.06067 1.06066c.29289.2929.76776.2929 1.06065.00001z"/><path d="m5.28228 19.7783c-.29289.2929-.76776.2929-1.06066 0-.29289-.2929-.29289-.7678 0-1.0607l1.06066-1.0607c.2929-.2929.76777-.2929 1.06066 0 .2929.2929.2929.7678 0 1.0607z"/><path d="m17.6567 6.3432c.2929.2929.7677.2929 1.0606 0l1.0607-1.06065c.2929-.2929.2929-.76777 0-1.06067-.2929-.29289-.7678-.29289-1.0607 0l-1.0606 1.06066c-.2929.2929-.2929.76777 0 1.06066z"/></g></svg>