<svg fill="none" height="16" viewBox="0 0 16 16" width="16" xmlns="http://www.w3.org/2000/svg"><path clip-rule="evenodd" d="m1.5 3.27344c0-1.51879 1.23122-2.750002 2.75-2.750002h7.5c1.5188 0 2.75 1.231212 2.75 2.750002v10.47776c0 .9197-.9597 1.5245-1.7893 1.1277l-4.60284-2.2013c-.06821-.0327-.14751-.0327-.21572 0l-4.60282 2.2013c-.82967.3968-1.78932-.208-1.78932-1.1277zm2.75-1.25c-.69036 0-1.25.55964-1.25 1.25v10.08116l4.24495-2.0302c.47747-.2284 1.03263-.2284 1.5101 0l4.24495 2.0302v-10.08116c0-.69036-.5596-1.25-1.25-1.25z" fill="#00a008" fill-rule="evenodd"/></svg>