<svg fill="none" height="20" viewBox="0 0 20 20" width="20" xmlns="http://www.w3.org/2000/svg"><path clip-rule="evenodd" d="m2 4.75c0-2.07107 1.67893-3.75 3.75-3.75h8.5c2.0711 0 3.75 1.67893 3.75 3.75v11.6069c0 1.3114-1.3892 2.1569-2.554 1.5544l-5.3311-2.7575c-.0721-.0373-.15772-.0373-.22976 0l-5.33115 2.7575c-1.16482.6025-2.55399-.243-2.55399-1.5544zm3.75-2.25c-1.24264 0-2.25 1.00736-2.25 2.25v11.6069c0 .1874.19845.3081.36486.2221l5.33115-2.7575c.50426-.2609 1.10369-.2609 1.60799 0l5.3311 2.7575c.1664.086.3649-.0347.3649-.2221v-11.6069c0-1.24264-1.0074-2.25-2.25-2.25z" fill="#00a008" fill-rule="evenodd"/></svg>