<svg fill="none" height="24" viewBox="0 0 24 24" width="24" xmlns="http://www.w3.org/2000/svg"><path clip-rule="evenodd" d="m3 6.25c0-2.34721 1.90279-4.25 4.25-4.25h9.5c2.3472 0 4.25 1.90279 4.25 4.25v13.11c0 1.3101-1.3867 2.1557-2.5514 1.5557l-6.3341-3.2631c-.0719-.037-.1571-.037-.229 0l-6.33408 3.2631c-1.16468.6-2.55142-.2456-2.55142-1.5557zm4.25-2.75c-1.51878 0-2.75 1.23122-2.75 2.75v13.11c0 .1871.19811.3079.36449.2222l6.33411-3.263c.5029-.2591 1.0999-.2591 1.6028 0l6.3341 3.263c.1664.0857.3645-.0351.3645-.2222v-13.11c0-1.51878-1.2312-2.75-2.75-2.75z" fill="#00a008" fill-rule="evenodd"/></svg>