<svg fill="none" height="16" viewBox="0 0 16 16" width="16" xmlns="http://www.w3.org/2000/svg"><path d="m9.91458 2c-.1104 0-.20064.09757-.20074.21797v1.35586c0 .08531.04609.16367.11719.19922l.62397.31172c.0709.03557.116.11282.1161.19804v4.60078c0 .21001-.2453.29949-.3603.13125l-4.61596-6.76992c-.10469-.15338-.27061-.2437-.44706-.24375l-2.94818-.00117c-.11024.0002-.19956.09769-.19966.21797v1.34766c.00001.08968.05044.16993.12695.20273l.74655.31992c.07625.0328.12675.11334.12695.20274v7.41798c-.0002.0894-.0507.1699-.12695.2027l-.74655.3199c-.07651.0328-.12694.1131-.12695.2028v1.3476c.0001.1203.08942.2178.19966.218h3.8857c.11039 0 .20064-.0976.20074-.218v-1.3558c0-.0853-.0461-.1637-.11719-.1992l-.62393-.3118c-.07087-.0356-.11608-.1129-.1161-.198v-4.60197c.00044-.20958.24531-.29815.36025-.13007l4.61593 6.76644c.1045.1531.2699.2445.446.2449l1.9488.0035c.1104 0 .2007-.0976.2008-.218v-9.49098c.0002-.08949.0505-.17.1269-.20274l.7455-.31992c.0765-.0328.1269-.11304.1269-.20273v-1.34766c-.0001-.12035-.0893-.21789-.1996-.21797z" fill="#00a008"/></svg>