<svg fill="none" height="20" viewBox="0 0 20 20" width="20" xmlns="http://www.w3.org/2000/svg"><path clip-rule="evenodd" d="m13.0857 5.66334c0-.09953-.0547-.18993-.14-.2314l-.7486-.36388c-.0853-.04147-.14-.13187-.14-.2314v-1.58211c0-.14059.1075-.25455.24-.25455h4.6629c.1325 0 .24.11396.24.25455v1.57197c0 .10465-.0604.19865-.1523.23691l-.8955.37314c-.0918.03826-.1522.13226-.1522.23691v11.07202c0 .1405-.1075.2545-.24.2545l-2.4155-.0046c-.1626-.0003-.315-.0797-.4084-.2128l-5.58929-7.96613c-.13796-.19663-.43254-.09314-.43254.15196v5.36827c0 .0995.0547.1899.14001.2314l.74856.3638c.08531.0415.14.1319.14.2314v1.5822c0 .1405-.10745.2545-.23999.2545h-4.66286c-.13255 0-.24-.114-.24-.2545v-1.572c0-.1047.0604-.1987.15224-.2369l.89551-.3732c.09185-.0382.15225-.1322.15225-.2369v-8.65302c0-.10465-.0604-.19865-.15225-.23691l-.89551-.37314c-.09184-.03826-.15224-.13226-.15224-.23691v-1.57197c0-.14059.10745-.25455.24-.25455l3.61434.00103c.16294.00004.31564.07948.40921.21289l5.58956 7.96938c.138.1967.4326.0932.4326-.1519z" fill="#00a008" fill-rule="evenodd"/></svg>