<svg fill="none" height="24" viewBox="0 0 24 24" width="24" xmlns="http://www.w3.org/2000/svg"><path d="m14.6797 4c-.1545.00018-.28.13074-.28.29129v1.80804c.0001.11363.0646.21716.164.26451l.8728.41518c.0995.04735.1629.15087.163.26451v6.13507c0 .28-.3432.3986-.5042.1741l-6.52751-9.11721c-.10533-.14711-.27319-.2342-.45172-.23437l-4.23609-.00112c-.15464 0-.28.13063-.28.29129v1.79576c0 .11948.07023.22738.17718.27121l1.04563.42634c.10695.04383.17719.15173.17719.2712v9.8884c0 .1195-.07024.2274-.17719.2712l-1.04563.4263c-.10695.0439-.17718.1518-.17718.2712v1.7958c0 .1607.12536.2913.28.2913h5.44031c.15449-.0002.28-.1307.28-.2913v-1.808c-.00011-.1137-.06462-.2172-.16406-.2645l-.87282-.4152c-.09944-.0474-.16286-.1509-.16297-.2645v-6.1351c0-.2801.34326-.3988.50422-.1741l6.52754 9.1127c.1052.1469.2723.234.4506.2344l2.8372.0056c.1546 0 .28-.1306.28-.2913v-12.6529c0-.11947.0702-.22737.1772-.2712l1.0456-.42634c.1069-.04383.1772-.15173.1772-.27121v-1.79576c0-.16066-.1254-.29129-.28-.29129z" fill="#00a008"/></svg>