<svg fill="none" height="16" viewBox="0 0 16 16" width="16" xmlns="http://www.w3.org/2000/svg"><rect fill="#00afcc" height="14" rx="7" width="14" x="1" y="1"/><path d="m10.5 6.5c0 1.38071-1.11929 2.5-2.5 2.5s-2.5-1.11929-2.5-2.5 1.11929-2.5 2.5-2.5 2.5 1.11929 2.5 2.5z" fill="#ffc600"/><path d="m5.5 9.5-1-2.5v3.5l3.5 1.5 3.5-1.5v-3.5l-1 2.5-2.5 1z" fill="#ffc600"/><path clip-rule="evenodd" d="m2 8c0 3.3137 2.68629 6 6 6 3.3137 0 6-2.6863 6-6 0-3.31371-2.6863-6-6-6-3.31371 0-6 2.68629-6 6zm6-7c-3.86599 0-7 3.13401-7 7 0 3.866 3.13401 7 7 7 3.866 0 7-3.134 7-7 0-3.86599-3.134-7-7-7z" fill="#1d1f26" fill-opacity=".2" fill-rule="evenodd"/></svg>