<svg fill="none" height="20" viewBox="0 0 20 20" width="20" xmlns="http://www.w3.org/2000/svg"><circle cx="10" cy="10" fill="#00afcc" r="9"/><path d="m13 8.5c0 1.6569-1.3431 3-3 3-1.65685 0-3-1.3431-3-3 0-1.65685 1.34315-3 3-3 1.6569 0 3 1.34315 3 3z" fill="#ffc600"/><path d="m7 12-1-3v4l4 1.5 4-1.5v-4l-1 3-3 1z" fill="#ffc600"/><path clip-rule="evenodd" d="m10 18c4.4183 0 8-3.5817 8-8 0-4.41828-3.5817-8-8-8-4.41828 0-8 3.58172-8 8 0 4.4183 3.58172 8 8 8zm0 1c4.9706 0 9-4.0294 9-9 0-4.97056-4.0294-9-9-9-4.97056 0-9 4.02944-9 9 0 4.9706 4.02944 9 9 9z" fill="#1d1f26" fill-opacity=".2" fill-rule="evenodd"/></svg>