<svg fill="none" height="24" viewBox="0 0 24 24" width="24" xmlns="http://www.w3.org/2000/svg"><circle cx="12" cy="12" fill="#00afcc" r="10"/><path d="m15 10.5c0 1.6569-1.3431 3-3 3s-3-1.3431-3-3c0-1.65685 1.3431-3 3-3s3 1.34315 3 3z" fill="#ffc600"/><path d="m9 14-1-3v4l4 1.5 4-1.5v-4l-1 3-3 1z" fill="#ffc600"/><path clip-rule="evenodd" d="m12 21c4.9706 0 9-4.0294 9-9 0-4.97056-4.0294-9-9-9-4.97056 0-9 4.02944-9 9 0 4.9706 4.02944 9 9 9zm0 1c5.5228 0 10-4.4772 10-10 0-5.52285-4.4772-10-10-10-5.52285 0-10 4.47715-10 10 0 5.5228 4.47715 10 10 10z" fill="#1d1f26" fill-opacity=".2" fill-rule="evenodd"/></svg>