<svg fill="none" height="16" viewBox="0 0 16 16" width="16" xmlns="http://www.w3.org/2000/svg"><g fill="#00a008"><path d="m6 10.25c0-.41421.33579-.75.75-.75h2.5c.41421 0 .75.33579.75.75 0 .4142-.33579.75-.75.75h-2.5c-.41421 0-.75-.3358-.75-.75z"/><path clip-rule="evenodd" d="m2 4.5c0-1.933 1.567-3.5 3.5-3.5h4.5858c.4641 0 .9092.18437 1.2374.51256l2.1642 2.16422c.3282.32818.5126.7733.5126 1.23743v6.58579c0 1.933-1.567 3.5-3.5 3.5h-5c-1.933 0-3.5-1.567-3.5-3.5zm3.5-2c-1.10457 0-2 .89543-2 2v7c0 1.1046.89543 2 2 2h5c1.1046 0 2-.8954 2-2v-4.5h-2.25c-.9665 0-1.75-.7835-1.75-1.75v-2.75zm4.5 0v2.75c0 .13807.1119.25.25.25h2.25v-.58579c0-.0663-.0263-.12989-.0732-.17677l-2.1642-2.16422c-.0469-.04688-.1105-.07322-.1768-.07322z" fill-rule="evenodd"/></g></svg>