<svg fill="none" height="20" viewBox="0 0 20 20" width="20" xmlns="http://www.w3.org/2000/svg"><g fill="#00a008"><path d="m7 10.75c0-.4142.33579-.75.75-.75h4.5c.4142 0 .75.3358.75.75s-.3358.75-.75.75h-4.5c-.41421 0-.75-.3358-.75-.75z"/><path d="m7 14.25c0-.4142.33579-.75.75-.75h4.5c.4142 0 .75.3358.75.75s-.3358.75-.75.75h-4.5c-.41421 0-.75-.3358-.75-.75z"/><path clip-rule="evenodd" d="m17 14.5v-7.58579c0-.46413-.1844-.90925-.5126-1.23743l-3.1642-3.16422c-.3282-.32819-.7733-.51256-1.2374-.51256h-5.5858c-1.933 0-3.5 1.567-3.5 3.5v9c0 1.933 1.567 3.5 3.5 3.5h7c1.933 0 3.5-1.567 3.5-3.5zm-10.5-11c-1.10457 0-2 .89543-2 2v9c0 1.1046.89543 2 2 2h7c1.1046 0 2-.8954 2-2v-6h-2.25c-1.2426 0-2.25-1.00736-2.25-2.25v-2.75zm6.75 3.5h2.25v-.08579c0-.0663-.0263-.12989-.0732-.17677l-2.9268-2.92678v2.43934c0 .41421.3358.75.75.75z" fill-rule="evenodd"/></g></svg>