<svg fill="none" height="24" viewBox="0 0 24 24" width="24" xmlns="http://www.w3.org/2000/svg"><g fill="#00a008"><path d="m8.75 12c-.41421 0-.75.3358-.75.75s.33579.75.75.75h6.5c.4142 0 .75-.3358.75-.75s-.3358-.75-.75-.75z"/><path d="m8.75 16c-.41421 0-.75.3358-.75.75s.33579.75.75.75h6.5c.4142 0 .75-.3358.75-.75s-.3358-.75-.75-.75z"/><path clip-rule="evenodd" d="m20 7.91421c0-.46413-.1844-.90924-.5126-1.23743l-4.1642-4.16422c-.3282-.32819-.7733-.51256-1.2374-.51256h-5.8358c-2.34721 0-4.25 1.90279-4.25 4.25v11.5c0 2.3472 1.90279 4.25 4.25 4.25h7.5c2.3472 0 4.25-1.9028 4.25-4.25zm-11.75-4.41421c-1.51878 0-2.75 1.23122-2.75 2.75v11.5c0 1.5188 1.23122 2.75 2.75 2.75h7.5c1.5188 0 2.75-1.2312 2.75-2.75v-8.25h-2.75c-1.5188 0-2.75-1.23122-2.75-2.75v-3.25zm6.25.31066v2.93934c0 .69036.5596 1.25 1.25 1.25h2.75v-.08579c0-.0663-.0263-.12989-.0732-.17677z" fill-rule="evenodd"/></g></svg>