<svg fill="none" height="16" viewBox="0 0 16 16" width="16" xmlns="http://www.w3.org/2000/svg" xmlns:xlink="http://www.w3.org/1999/xlink"><clipPath id="a"><path d="m0 0h16v16h-16z"/></clipPath><g clip-path="url(#a)" fill="#00a008"><path clip-rule="evenodd" d="m.927792.927678c-.292893.292892-.292893.767762 0 1.060662l4.362878 4.36288c.01649.02036.03421.04006.05315.05901.01894.01894.03864.03665.05901.05315l4.1541 4.15412c.01009.0114.02059.0225.03148.0334.0109.0109.02205.0214.03344.0315l4.38595 4.3859c.2928.2929.7677.2929 1.0606 0s.2929-.7678 0-1.0607l-3.888-3.888 3.1813-3.18128c1.078-1.07808 1.0814-2.82264.0075-3.89658l-1.4142-1.41422c-1.074-1.073939-2.8185-1.070585-3.89663.0075l-3.18129 3.18129-3.88863-3.888632c-.29289-.292893-.76776-.292893-1.060658 0zm6.009948 4.949292 3.18196 3.18198 1.2293-1.22927-3.182-3.18198zm5.47596.88797.8873-.88728c.49-.49004.4916-1.28302.0034-1.77117l-1.4142-1.41422c-.4882-.48815-1.2811-.48663-1.7712.00341l-.88725.88727z" fill-rule="evenodd"/><path d="m6.64923 12.4423-1.24747.0877-1.93503-1.9351.08761-1.24744c.00424-.0604.03021-.1173.07309-.16019l.65573-.65572c.29289-.2929.29289-.76777 0-1.06066-.29289-.2929-.76777-.2929-1.06066 0l-.65573.65573c-.30019.30018-.48193.69851-.51163 1.12129l-.21365 3.04209c-.0745 1.0608.80439 1.9397 1.86521 1.8652l3.04208-.2137c.42278-.0296.8211-.2114 1.12129-.5116l.65768-.6577c.2929-.2929.2929-.7677 0-1.0606-.29289-.2929-.76776-.2929-1.06066 0l-.65768.6577c-.04288.0428-.09978.0688-.16018.073z"/></g></svg>