<svg fill="none" height="20" viewBox="0 0 20 20" width="20" xmlns="http://www.w3.org/2000/svg"><g fill="#00a008"><path clip-rule="evenodd" d="m17.8097 8.93649c1.2679-1.26789 1.2668-3.3246-.0024-4.59381l-1.7678-1.76776c-1.2692-1.26921-3.3259-1.27027-4.5938-.00239l-3.90627 3.90627-4.25802-4.25802c-.29289-.29289-.76776-.29289-1.06066 0-.29289.29289-.29289.76777 0 1.06066l4.75735 4.75734c.00967.01086.0197.0215.03011.0319.01041.01041.02105.02045.0319.03012l9.67659 9.6766c.2929.2929.7678.2929 1.0607 0s.2929-.7678 0-1.0607l-3.874-3.8739zm-4.967 2.84561 2.317-2.31692-4.2427-4.24264-2.3169 2.31692zm3.9063-3.90627-.5298.52979-4.2426-4.24264.5298-.52979c.6827-.68271 1.7901-.68213 2.4736.00128l1.7677 1.76777c.6834.68342.684 1.79088.0013 2.47359z" fill-rule="evenodd"/><path d="m2.42151 15.4512c-.1792 1.4532 1.0563 2.6887 2.50946 2.5095l3.62958-.4476c.49714-.0613.95941-.2869 1.31346-.641l1.37959-1.3795c.2929-.2929.2929-.7678 0-1.0607s-.7678-.2929-1.0607 0l-1.37955 1.3796c-.11802.118-.27211.1932-.43782.2136l-.30915.0382-3.74744-3.7475.03812-.3091c.02044-.1657.09563-.3198.21365-.4379l1.37684-1.3768c.2929-.29289.2929-.76776 0-1.06066-.29289-.29289-.76776-.29289-1.06066 0l-1.37684 1.37686c-.35406.354-.57963.8163-.64094 1.3135z"/></g></svg>