<svg fill="none" height="24" viewBox="0 0 24 24" width="24" xmlns="http://www.w3.org/2000/svg"><g fill="#00a008"><path clip-rule="evenodd" d="m16.1293 15.0687 4.8399-4.8399c1.4651-1.46507 1.4656-3.83997.0012-5.30443l-1.7678-1.76777c-1.4645-1.46447-3.8394-1.46394-5.3045.00118l-4.83982 4.83985-5.18702-5.18702c-.2929-.2929-.76777-.2929-1.06066 0-.2929.29289-.2929.76776 0 1.06066l17.3229 17.32293c.2929.2929.7678.2929 1.0607 0s.2929-.7678 0-1.0606zm1.1264-3.2477-4.9497-4.94976-2.1871 2.18705 4.9498 4.94971zm1.0612-1.0611 1.5916-1.59172c.8791-.87907.8794-2.304.0007-3.18268l-1.7677-1.76777c-.8787-.87868-2.3036-.87836-3.1827.00071l-1.5917 1.59167z" fill-rule="evenodd"/><path d="m5.35497 14.0686 4.70333 4.7034c.2164-.0555.4147-.1682.5735-.3271l1.7941-1.794c.2929-.2929.7677-.2929 1.0606 0s.2929.7677 0 1.0606l-1.794 1.794c-.4028.4029-.9208.6708-1.4822.7668l-3.83812.6561c-1.86954.3196-3.49318-1.3041-3.17359-3.1736l.65611-3.8381c.09598-.5615.36389-1.0794.76673-1.4822l1.78714-1.7855c.2925-.2923.76642-.2924 1.05908-.0003.29316.2926.2934.7675.00053 1.0604l-1.78609 1.786c-.15887.1589-.27157.3571-.32712.5735z"/></g></svg>