<svg fill="none" height="16" viewBox="0 0 16 16" width="16" xmlns="http://www.w3.org/2000/svg"><g fill="#00a008"><path d="m4.75 7.5c-.41421 0-.75.33579-.75.75s.33579.75.75.75h2.5c.41421 0 .75-.33579.75-.75s-.33579-.75-.75-.75z"/><path d="m4.75 10c-.41421 0-.75.3358-.75.75s.33579.75.75.75h4.5c.41421 0 .75-.3358.75-.75s-.33579-.75-.75-.75z"/><path clip-rule="evenodd" d="m5.25 1.5c-2.07107 0-3.75 1.67893-3.75 3.75v8c0 .6904.55964 1.25 1.25 1.25h8c2.0711 0 3.75-1.6789 3.75-3.75v-5.5c0-2.07107-1.6789-3.75-3.75-3.75zm-2.25 3.75c0-1.24264 1.00736-2.25 2.25-2.25h5.5c1.2426 0 2.25 1.00736 2.25 2.25v5.5c0 1.2426-1.0074 2.25-2.25 2.25h-7.75z" fill-rule="evenodd"/></g></svg>