<svg fill="none" height="16" viewBox="0 0 16 16" width="16" xmlns="http://www.w3.org/2000/svg"><path d="m10.1397 1.55673c1.0606-.18761 2.133.09883 2.9931.73047 1.7567 1.29016 2.5623 3.92551 1.126 6.98047-.5846 1.24343-1.6269 2.41653-2.708 3.37893-1.0883.9687-2.27078 1.7724-3.19825 2.2656-.22016.1171-.48492.1171-.70508 0-.92734-.4932-2.10912-1.2971-3.19726-2.2656-1.0812-.9624-2.12437-2.1355-2.70899-3.37893-1.436163-3.05474-.63135-5.6902 1.125-6.98047.86004-.63167 1.93261-.91793 2.99317-.73047.78144.13823 1.5205.52805 2.13965 1.16894.61923-.64134 1.35894-1.03058 2.14066-1.16894zm2.1054 1.93945c-.5576-.40951-1.2194-.57235-1.8437-.46191-.61362.10855-1.25668.49277-1.76565 1.30469-.13714.2188-.37751.35154-.63574.35156-.25825 0-.49859-.13275-.63574-.35156-.50896-.81192-1.15205-1.19612-1.76563-1.30469-.6243-.11044-1.28614.05241-1.84375.46191-1.07889.79241-1.8432 2.60783-.65625 5.13281.46166.98194 1.33733 1.99631 2.34864 2.89651.86551.7704 1.79094 1.4219 2.55273 1.8652.7618-.4433 1.68722-1.0948 2.55269-1.8652 1.0113-.9002 1.887-1.91455 2.3487-2.89651 1.1869-2.52498.4226-4.3404-.6563-5.13281z" fill="#00a008"/></svg>