<svg fill="none" height="20" viewBox="0 0 20 20" width="20" xmlns="http://www.w3.org/2000/svg"><path d="m10.0001 3.57914c1.844-1.95627 4.5252-1.98731 6.4277-.67676 2.1646 1.49121 3.2087 4.58951 1.3857 8.22652-.7344 1.4653-2.0483 2.8782-3.4209 4.0479-1.3804 1.1763-2.8816 2.1575-4.0576 2.7441-.2108.1052-.45911.1052-.6699 0-1.17598-.5866-2.67718-1.5678-4.05762-2.7441-1.3726-1.1697-2.68643-2.5826-3.42089-4.0479-1.822969-3.637-.77883-6.7353 1.38574-8.22652 1.90246-1.31054 4.5837-1.27955 6.42777.67676zm5.5771.55859c-1.4997-1.03318-3.6435-.90272-4.9541 1.05859-.1392.20821-.3726.33397-.623.33399-.25052 0-.4849-.12573-.62406-.33399-1.31063-1.96099-3.45352-2.0917-4.95313-1.05859-1.46486 1.00929-2.42948 3.25585-.89453 6.31837.60478 1.2066 1.74597 2.4664 3.05176 3.5791 1.16451.9923 2.41306 1.8254 3.41996 2.3672 1.0068-.5418 2.2554-1.3749 3.4199-2.3672 1.3057-1.1127 2.447-2.3725 3.0517-3.5791 1.535-3.0625.5704-5.30907-.8945-6.31837z" fill="#00a008"/></svg>