<svg fill="none" height="24" viewBox="0 0 24 24" width="24" xmlns="http://www.w3.org/2000/svg"><path d="m11.9997 5.0346c2.0351-2.23065 5.0298-2.27994 7.1494-.8164 2.3821 1.64488 3.5452 5.07007 1.5215 9.1172-.8147 1.6291-2.2752 3.2058-3.8086 4.5156-1.5412 1.3165-3.2163 2.4143-4.5264 3.0693-.2111.1056-.4597.1056-.6709 0-1.31-.655-2.98509-1.7528-4.52635-3.0693-1.53342-1.3098-2.99394-2.8865-3.80859-4.5156-2.02375-4.04714-.86057-7.47231 1.52148-9.1172 2.11945-1.46333 5.11342-1.41388 7.14846.8164zm6.2969.41797c-1.7169-1.18534-4.1745-1.03376-5.6729 1.21387-.1391.20836-.3734.33398-.624.33398-.2506-.0001-.485-.12554-.624-.33398-1.49853-2.24774-3.95608-2.3994-5.67289-1.21387-1.68302 1.16233-2.76935 3.73775-1.03223 7.21193.6853 1.3705 1.97502 2.7933 3.44141 4.0459 1.32487 1.1316 2.74651 2.0816 3.88771 2.6924 1.1412-.6108 2.5636-1.5606 3.8887-2.6924 1.4663-1.2526 2.7551-2.6755 3.4404-4.0459 1.7374-3.47445.651-6.04963-1.0322-7.21193z" fill="#00a008"/></svg>