<svg fill="none" height="16" viewBox="0 0 16 16" width="16" xmlns="http://www.w3.org/2000/svg"><g fill="#00a008"><path d="m10.5 2.5h-5c-1.10457 0-2 .89543-2 2v7c0 1.1046.89543 2 2 2h.75c.41421 0 .75.3358.75.75s-.33579.75-.75.75h-.75c-1.933 0-3.5-1.567-3.5-3.5v-7c0-1.933 1.567-3.5 3.5-3.5h5c1.933 0 3.5 1.567 3.5 3.5v2.75c0 .41421-.3358.75-.75.75s-.75-.33579-.75-.75v-2.75c0-1.10457-.8954-2-2-2z"/><path d="m5.75 4c-.41421 0-.75.33579-.75.75s.33579.75.75.75h3.5c.41421 0 .75-.33579.75-.75s-.33579-.75-.75-.75z"/><path d="m5 7.75c0-.41421.33579-.75.75-.75h1.5c.41421 0 .75.33579.75.75s-.33579.75-.75.75h-1.5c-.41421 0-.75-.33579-.75-.75z"/><path d="m14.0303 11.0303c.2929-.2929.2929-.7677 0-1.06063-.2929-.29289-.7677-.29289-1.0606 0l-2.4697 2.46963-.96967-.9696c-.29289-.2929-.76777-.2929-1.06066 0s-.29289.7677 0 1.0606l1.35858 1.3586c.37095.371.97255.371 1.34355 0z"/></g></svg>