<svg fill="none" height="20" viewBox="0 0 20 20" width="20" xmlns="http://www.w3.org/2000/svg"><g fill="#00a008"><path d="m6.5 3.5h7c1.1046 0 2 .89543 2 2v3.75c0 .41421.3358.75.75.75s.75-.33579.75-.75v-3.75c0-1.933-1.567-3.5-3.5-3.5h-7c-1.933 0-3.5 1.567-3.5 3.5v9c0 1.933 1.567 3.5 3.5 3.5h1.75c.41421 0 .75-.3358.75-.75s-.33579-.75-.75-.75h-1.75c-1.10457 0-2-.8954-2-2v-9c0-1.10457.89543-2 2-2z"/><path d="m6.75 5c-.41421 0-.75.33579-.75.75s.33579.75.75.75h5.5c.4142 0 .75-.33579.75-.75s-.3358-.75-.75-.75z"/><path d="m6.75 8c-.41421 0-.75.33579-.75.75s.33579.75.75.75h2.5c.41421 0 .75-.33579.75-.75s-.33579-.75-.75-.75z"/><path d="m17.0303 13.0303c.2929-.2929.2929-.7677 0-1.0606s-.7677-.2929-1.0606 0l-2.9697 2.9696-.9697-.9696c-.2929-.2929-.7677-.2929-1.0606 0s-.2929.7677 0 1.0606l1.3585 1.3586c.371.371.9726.371 1.3436 0z"/></g></svg>