<svg fill="none" height="24" viewBox="0 0 24 24" width="24" xmlns="http://www.w3.org/2000/svg"><g fill="#00a008"><path d="m8.25 3.5h7.5c1.5188 0 2.75 1.23122 2.75 2.75v5c0 .4142.3358.75.75.75s.75-.3358.75-.75v-5c0-2.34721-1.9028-4.25-4.25-4.25h-7.5c-2.34721 0-4.25 1.90279-4.25 4.25v11.5c0 2.3472 1.90279 4.25 4.25 4.25h4c.4142 0 .75-.3358.75-.75s-.3358-.75-.75-.75h-4c-1.51878 0-2.75-1.2312-2.75-2.75v-11.5c0-1.51878 1.23122-2.75 2.75-2.75z"/><path d="m7.75 6c-.41421 0-.75.33579-.75.75s.33579.75.75.75h7.5c.4142 0 .75-.33579.75-.75s-.3358-.75-.75-.75z"/><path d="m7 9.75c0-.41421.33579-.75.75-.75h4.5c.4142 0 .75.33579.75.75 0 .4142-.3358.75-.75.75h-4.5c-.41421 0-.75-.3358-.75-.75z"/><path d="m21.0303 15.0303c.2929-.2929.2929-.7677 0-1.0606s-.7677-.2929-1.0606 0l-3.9697 3.9696-1.9697-1.9696c-.2929-.2929-.7677-.2929-1.0606 0s-.2929.7677 0 1.0606l2.3585 2.3586c.371.371.9726.371 1.3436 0z"/></g></svg>