<svg fill="none" height="16" viewBox="0 0 16 16" width="16" xmlns="http://www.w3.org/2000/svg"><g fill="#00a008"><path d="m10.0297 10.8203c.1685-.4269.7718-.4268.9404 0l.4034 1.0205c.0513.1302.1549.2337.2851.2852l1.0205.4033c.4272.1684.4272.7729 0 .9414l-1.0205.4023c-.1302.0515-.2337.155-.2851.2852l-.4034 1.0215c-.158.4-.6984.4252-.9043.0752l-.0361-.0752-.40332-1.0215c-.04502-.1139-.12966-.2077-.2373-.2637l-.04785-.0215-1.02149-.4023c-.42652-.1687-.42651-.7728 0-.9414l1.02149-.4033c.11403-.045.20768-.1296.26367-.2373l.02148-.0479z"/><path d="m3.98087 4.3535c.18596-.47113.852-.471 1.03809 0l.7959 2.0166c.05672.14367.17083.25765.31445.31446l2.01758.7959c.47077.18609.4707.85192 0 1.03808l-2.01758.7959c-.14362.05674-.25767.17086-.31445.31445l-.7959 2.01761c-.1744.4415-.77077.4692-.99805.083l-.04004-.083-.79589-2.01761c-.04974-.12567-.14387-.22834-.2627-.29004l-.05176-.02441-2.017575-.7959c-.470496-.18627-.470691-.85201 0-1.03808l2.017575-.7959c.12567-.04965.22827-.143.29004-.26172l.02442-.05274z"/><path d="m11.435 1.38378c.2023-.512069.9275-.511993 1.1299 0l.4834 1.22558c.0616.15628.1855.28003.3418.3418l1.2255.48437c.5122.20232.5123.92672 0 1.12891l-1.2255.4834c-.1562.06168-.2801.18566-.3418.3418l-.4834 1.22558c-.1895.48037-.8388.51085-1.086.09082l-.0439-.09082-.4834-1.22558c-.0541-.13657-.1561-.24932-.2852-.31641l-.0566-.02539-1.22561-.4834c-.5121-.20233-.51219-.92666 0-1.12891l1.22561-.48437c.1367-.05402.2492-.15497.3164-.28418l.0254-.05762z"/></g></svg>