<svg fill="none" height="20" viewBox="0 0 20 20" width="20" xmlns="http://www.w3.org/2000/svg"><g fill="#00a008"><path d="m12.4355 12.884c.2024-.5119.9265-.5118 1.1289 0l.4834 1.2256c.0616.1561.1858.2799.3418.3418l1.2256.4834c.5126.2021.5126.9277 0 1.1298l-1.2256.4834c-.1561.0618-.2801.1857-.3418.3418l-.4834 1.2256c-.1895.4804-.8388.511-1.0859.0908l-.043-.0908-.4844-1.2256c-.054-.1365-.1551-.2493-.2841-.3164l-.0577-.0254-1.2255-.4834c-.51194-.2024-.51216-.9276 0-1.1298l1.2255-.4834c.1368-.054.2492-.155.3164-.2842l.0254-.0576z"/><path d="m4.91598 5.89764c.20928-.52987.95863-.52982 1.16797 0l.89551 2.26954c.06385.16146.19205.28965.35351.35351l2.26953.89551c.5298.20936.5299.9587 0 1.168l-2.26953.8955c-.16161.0638-.28966.1919-.35351.3535l-.89551 2.2695c-.19626.4969-.86755.5277-1.12305.0928l-.04492-.0928-.89551-2.2695c-.05594-.1414-.16121-.2577-.29492-.3272l-.05859-.0263-2.26954-.8955c-.52985-.2094-.52994-.95876 0-1.168l2.26954-.89551c.14142-.0559.25671-.16125.32617-.29492l.02734-.05859z"/><path d="m13.8408 1.94843c.2359-.59766 1.0813-.5975 1.3174 0l.5644 1.42968c.072.18225.2172.3264.3994.39844l1.4297.56445c.5975.236.5975 1.08136 0 1.31739l-1.4297.56445c-.1822.07196-.3273.21626-.3994.39844l-.5644 1.42968c-.2211.56063-.9785.59603-1.2666.10547l-.0508-.10547-.5645-1.42968c-.0631-.15923-.1814-.28993-.332-.36817l-.0664-.03027-1.4297-.56445c-.5975-.23607-.5977-1.08149 0-1.31739l1.4297-.56445c.1596-.06301.2908-.18125.3691-.33203l.0293-.06641z"/></g></svg>