<svg fill="none" height="24" viewBox="0 0 24 24" width="24" xmlns="http://www.w3.org/2000/svg"><g fill="#00a008"><path d="m14.8408 14.9483c.2359-.5977 1.0813-.5974 1.3174 0l.5645 1.4296c.0719.1824.2171.3274.3994.3995l1.4297.5634c.5977.2359.5976 1.0814 0 1.3174l-1.4297.5645c-.1824.072-.3274.2171-.3994.3994l-.5645 1.4297c-.2213.5602-.9785.5949-1.2666.1045l-.0508-.1045-.5635-1.4297c-.063-.1595-.1823-.2908-.333-.3692l-.0664-.0302-1.4297-.5645c-.5974-.2361-.5976-1.0815 0-1.3174l1.4297-.5634c.1597-.063.2908-.1822.3692-.333l.0302-.0665z"/><path d="m6.28613 6.50588c.25592-.64715 1.17171-.64705 1.42774 0l1.09375 2.77441c.07799.19739.23528.35354.43261.43164l2.77347 1.09477c.6482.2556.6482 1.1721 0 1.4277l-2.77347 1.0937c-.19754.0781-.35456.2351-.43261.4327l-1.09375 2.7734c-.23966.6077-1.0607.646-1.37305.1143l-.05469-.1143-1.09472-2.7734c-.06839-.1728-.19696-.3146-.36036-.3995l-.07128-.0332-2.77442-1.0937c-.64709-.256-.64718-1.1718 0-1.4277l2.77442-1.09477c.17283-.06835.31356-.19697.39843-.36035l.03321-.07129z"/><path d="m16.1523 2.57619c.3033-.76839 1.3908-.76812 1.6944 0l.7256 1.83789c.0925.23443.2783.42102.5127.51367l1.8388.72461c.7685.30332.7684 1.39092 0 1.69434l-1.8388.72558c-.2344.0926-.4202.27837-.5127.5127l-.7256 1.83792c-.2843.7208-1.2584.7664-1.6289.1357l-.0655-.1357-.7246-1.83792c-.081-.205-.2339-.37392-.4277-.47461l-.0859-.03809-1.8379-.72558c-.7682-.30355-.7684-1.39106 0-1.69434l1.8379-.72461c.2052-.08099.3738-.23379.4746-.42773l.039-.08594z"/></g></svg>