<svg fill="none" height="16" viewBox="0 0 16 16" width="16" xmlns="http://www.w3.org/2000/svg"><path clip-rule="evenodd" d="m12.2975 12.3081-3.83681-9.01022c-.17236-.40477-.74823-.40477-.92059 0l-3.8368 9.01022c-.17165.4031.22484.8149.63628.6608l2.60498-.9758c.68063-.2549 1.43104-.2549 2.11166 0l2.60498.9758c.4114.1541.8079-.2577.6363-.6608zm-2.45592-9.59378c-.68946-1.6191-2.99292-1.61909-3.68237 0l-3.8368 9.01028c-.68662 1.6124.89934 3.2594 2.54508 2.643l2.60499-.9758c.34031-.1274.71551-.1274 1.05583 0l2.60499.9758c1.6457.6164 3.2317-1.0306 2.5451-2.643z" fill="#00a008" fill-rule="evenodd"/></svg>