<svg fill="none" height="20" viewBox="0 0 20 20" width="20" xmlns="http://www.w3.org/2000/svg"><path clip-rule="evenodd" d="m7.90387 3.43378c.74549-1.90845 3.44603-1.90846 4.19153 0l4.4922 11.50002c.6798 1.7403-.935 3.5031-2.7281 2.978l-3.6491-1.0687c-.1376-.0403-.2839-.0403-.42153 0l-3.64904 1.0687c-1.79311.5251-3.40797-1.2377-2.72815-2.978zm2.79433.54577c-.2484-.63614-1.14864-.63615-1.39714.00001l-4.49219 11.50004c-.22661.5801.31168 1.1677.90938.9926l3.64904-1.0686c.4129-.1209.85181-.1209 1.26471 0l3.6491 1.0686c.5977.1751 1.1359-.4125.9093-.9926z" fill="#00a008" fill-rule="evenodd"/></svg>