<svg fill="none" height="24" viewBox="0 0 24 24" width="24" xmlns="http://www.w3.org/2000/svg"><path clip-rule="evenodd" d="m9.42504 3.7824c.89256-2.37654 4.25676-2.37653 5.14936.00001l5.1826 13.79949c.806 2.1462-1.2172 4.2769-3.4044 3.5853l-3.9757-1.2572c-.2455-.0777-.5089-.0777-.7543-.0001l-3.97586 1.2573c-2.18719.6916-4.21043-1.4391-3.40439-3.5853zm3.74496.52663c-.4057-1.08024-1.9349-1.08025-2.3406 0l-5.18268 13.79947c-.36639.9755.55327 1.9441 1.54745 1.6297l3.97583-1.2572c.54-.1708 1.1195-.1708 1.6594 0l3.9758 1.2572c.9941.3144 1.9138-.6542 1.5474-1.6297z" fill="#00a008" fill-rule="evenodd"/></svg>