<svg fill="none" height="16" viewBox="0 0 16 16" width="16" xmlns="http://www.w3.org/2000/svg"><g fill="#00a008"><path clip-rule="evenodd" d="m4.5 3c0-1.38071 1.11929-2.5 2.5-2.5h2c1.3807 0 2.5 1.11929 2.5 2.5v.00762c1.2607.0937 2.3072 1.04199 2.5098 2.3078.0575.35919-.22.68458-.5837.68458h-.3726c-.2611 0-.4836-.18968-.5249-.44754-.086-.53737-.5066-.94885-1.0286-1.03555v1.23309c0 .41421-.3358.75-.75.75s-.75-.33579-.75-.75v-1.25h-4v1.25c0 .41421-.33579.75-.75.75s-.75-.33579-.75-.75v-1.23316c-.52224.08656-.94309.49816-1.02908 1.03572l-.86715 5.42104c-.17008 1.0632.65126 2.0264 1.72803 2.0264h.9182c.41421 0 .75.3358.75.75s-.33579.75-.75.75h-.9182c-1.99972 0-3.52506-1.7887-3.2092-3.7633l.86715-5.42107c.20252-1.26605 1.24932-2.21451 2.51025-2.30804zm4.5-1c.55228 0 1 .44772 1 1h-4c0-.55228.44772-1 1-1z" fill-rule="evenodd"/><path d="m14.5303 9.53033c.2929-.29289.2929-.76777 0-1.06066s-.7677-.29289-1.0606 0l-3.4697 3.46963-1.46967-1.4696c-.29289-.2929-.76777-.2929-1.06066 0s-.29289.7677 0 1.0606l1.85858 1.8586c.371.371.97255.371 1.34355 0z"/></g></svg>