<svg fill="none" height="20" viewBox="0 0 20 20" width="20" xmlns="http://www.w3.org/2000/svg"><g fill="#00a008"><path clip-rule="evenodd" d="m6 4.25c0-1.79493 1.45507-3.25 3.25-3.25h1.5c1.7949 0 3.25 1.45507 3.25 3.25v.75491c1.6707.08881 3.0493 1.3716 3.2422 3.05156l.1272 1.10798c.0511.44518-.297.83555-.7451.83555-.3811 0-.7016-.28582-.7451-.66445l-.1272-1.10798c-.1059-.9224-.8442-1.63297-1.752-1.71885v1.24128c0 .41421-.3358.75-.75.75s-.75-.33579-.75-.75v-1.25h-5v1.25c0 .41421-.33579.75-.75.75s-.75-.33579-.75-.75v-1.24123c-.90755.08608-1.64563.79656-1.75152 1.7188l-.75778 6.60003c-.13289 1.1574.7722 2.1724 1.93727 2.1724h2.62184c.41421 0 .74999.3358.74999.75s-.33578.75-.75.75h-2.62183c-2.06129 0-3.6626-1.7957-3.42748-3.8435l.75778-6.60002c.19287-1.67981 1.5712-2.96252 3.24173-3.05154zm6.5 0v.75h-5v-.75c0-.9665.7835-1.75 1.75-1.75h1.5c.9665 0 1.75.7835 1.75 1.75z" fill-rule="evenodd"/><path d="m17.8301 13.0303c.2929-.2929.2929-.7677 0-1.0606s-.7677-.2929-1.0606 0l-3.4697 3.4696-1.4697-1.4696c-.2929-.2929-.7677-.2929-1.0606 0s-.2929.7677 0 1.0606l1.8586 1.8586c.371.371.9725.371 1.3435 0z"/></g></svg>