<svg fill="none" height="24" viewBox="0 0 24 24" width="24" xmlns="http://www.w3.org/2000/svg"><g fill="#00a008"><path clip-rule="evenodd" d="m7.40039 4.75c0-2.07107 1.67893-3.75 3.75001-3.75h2.5c2.0711 0 3.75 1.67893 3.75 3.75v1.31114c1.5971.29187 2.8586 1.59837 3.0488 3.26316l.2103 1.8406c.0509.445-.2972.8351-.7451.8351-.3813 0-.7019-.2861-.7452-.6649l-.2103-1.84052c-.1031-.90271-.7312-1.62984-1.5585-1.89074v1.14616c0 .41421-.3358.75-.75.75s-.75-.33579-.75-.75v-1.25h-7.00001v1.25c0 .41421-.33579.75-.75.75s-.75-.33579-.75-.75v-1.14631c-.82749.26077-1.45579.98797-1.55898 1.89083l-.91428 7.99998c-.15259 1.3352.8916 2.5055 2.23545 2.5055h4.08742c.4142 0 .75.3358.75.75s-.3358.75-.75.75h-4.08742c-2.23975 0-3.98007-1.9505-3.72575-4.1758l.91429-8c.19027-1.66491 1.45195-2.97145 3.04927-3.26314zm8.50001 0v1.25h-7.00001v-1.25c0-1.24264 1.00736-2.25 2.25001-2.25h2.5c1.2426 0 2.25 1.00736 2.25 2.25z" fill-rule="evenodd"/><path d="m22.0303 15.0303c.2929-.2929.2929-.7677 0-1.0606s-.7677-.2929-1.0606 0l-4.4697 4.4696-1.9697-1.9696c-.2929-.2929-.7677-.2929-1.0606 0s-.2929.7677 0 1.0606l2.3585 2.3586c.371.371.9726.371 1.3436 0z"/></g></svg>