<svg fill="none" height="16" viewBox="0 0 16 16" width="16" xmlns="http://www.w3.org/2000/svg"><g fill="#00a008"><path d="m8 12c.41421 0 .75-.3358.75-.75v-3.5c0-.41421-.33579-.75-.75-.75s-.75.33579-.75.75v3.5c0 .4142.33579.75.75.75z"/><path d="m8 6c.55229 0 1-.44772 1-1s-.44771-1-1-1c-.55228 0-1 .44772-1 1s.44772 1 1 1z"/><path clip-rule="evenodd" d="m8 15c3.866 0 7-3.134 7-7 0-3.86599-3.134-7-7-7-3.86599 0-7 3.13401-7 7 0 3.866 3.13401 7 7 7zm0-1.5c3.0376 0 5.5-2.4624 5.5-5.5 0-3.03757-2.4624-5.5-5.5-5.5-3.03757 0-5.5 2.46243-5.5 5.5 0 3.0376 2.46243 5.5 5.5 5.5z" fill-rule="evenodd"/></g></svg>