<svg fill="none" height="24" viewBox="0 0 24 24" width="24" xmlns="http://www.w3.org/2000/svg"><g fill="#00a008"><path d="m12.75 16.25c0 .4142-.3358.75-.75.75s-.75-.3358-.75-.75v-5.5c0-.4142.3358-.75.75-.75s.75.3358.75.75z"/><path d="m11 8c0-.55229.4477-1 1-1s1 .44771 1 1-.4477 1-1 1-1-.44771-1-1z"/><path clip-rule="evenodd" d="m12 22c5.5228 0 10-4.4772 10-10 0-5.52285-4.4772-10-10-10-5.52285 0-10 4.47715-10 10 0 5.5228 4.47715 10 10 10zm8.5-10c0 4.6944-3.8056 8.5-8.5 8.5-4.69442 0-8.5-3.8056-8.5-8.5 0-4.69442 3.80558-8.5 8.5-8.5 4.6944 0 8.5 3.80558 8.5 8.5z" fill-rule="evenodd"/></g></svg>