<svg fill="none" height="16" viewBox="0 0 16 16" width="16" xmlns="http://www.w3.org/2000/svg"><g fill="#00a008"><path d="m12.4004 1.74999c0-.41422.3358-.74999.75-.74999s.75.33577.75.74999v.75001h.75c.4142 0 .75.33579.75.75s-.3358.75-.75.75h-.75v.75c0 .41421-.3358.75-.75.75s-.75-.33579-.75-.75v-.75h-.75c-.4142 0-.75-.33579-.75-.75s.3358-.75.75-.75h.75z"/><path d="m8.65097 1.5c.41421 0 .75.33579.75.75s-.33579.75-.75.75h-3.39999c-1.24264 0-2.25 1.00736-2.25 2.25v5.5c0 1.2426 1.00736 2.25 2.25 2.25h5.50002c1.2426 0 2.25-1.0074 2.25-2.25v-3c0-.41421.3358-.75.75-.75s.75.33579.75.75v3c0 2.0711-1.679 3.75-3.75 3.75h-5.50002c-2.07107 0-3.75-1.6789-3.75-3.75v-5.5c0-2.07107 1.67893-3.75 3.75-3.75z"/><path d="m7.7812 5.46956c-.29296-.29283-.76783-.29273-1.06066.00022-.29284.29295-.29274.76783.00022 1.06066l1.46934 1.46873-1.46934 1.46873c-.29296.29283-.29306.7677-.00022 1.0607.29283.2929.7677.293 1.06066.0002l2-1.99919c.14072-.14066.2198-.33148.2198-.53044 0-.19897-.07908-.38978-.2198-.53044z"/></g></svg>