<svg fill="none" height="20" viewBox="0 0 20 20" width="20" xmlns="http://www.w3.org/2000/svg"><g fill="#00a008"><path d="m16.25 1c-.4142 0-.75.33579-.75.75v1.25h-1.25c-.4142 0-.75.33579-.75.75s.3358.75.75.75h1.25v1.25c0 .41421.3358.75.75.75s.75-.33579.75-.75v-1.25h1.25c.4142 0 .75-.33579.75-.75s-.3358-.75-.75-.75h-1.25v-1.25c0-.41421-.3358-.75-.75-.75z"/><path d="m6.5 2c-2.48528 0-4.5 2.01472-4.5 4.5v7c0 2.4853 2.01472 4.5 4.5 4.5h7c2.4853 0 4.5-2.0147 4.5-4.5v-4.5h-1.5v4.5c0 1.6569-1.3431 3-3 3h-7c-1.65685 0-3-1.3431-3-3v-7c0-1.65685 1.34315-3 3-3h4.5v-1.5z"/><path d="m9.53021 6.46955c-.29296-.29283-.76783-.29272-1.06066.00024s-.29272.76783.00024 1.06066l2.46951 2.46845-2.46975 2.4709c-.29283.2929-.29272.7678.00024 1.0606.29296.2929.76783.2928 1.06066-.0002l2.99995-3.0013c.1407-.1407.2196-.3315.2196-.5304 0-.19892-.0791-.38966-.2198-.53029z"/></g></svg>