<svg fill="none" height="24" viewBox="0 0 24 24" width="24" xmlns="http://www.w3.org/2000/svg"><g fill="#00a008"><path d="m18.4997 1.75c0-.41421.3358-.75.75-.75.4143 0 .75.33579.75.75v2.24998l2.2503.00002c.4142 0 .75.33579.75.75s-.3358.75-.75.75l-2.2503-.00002.0003 2.25002c0 .41421-.3358.75-.75.75s-.75-.33579-.75-.75l-.0003-2.25002-2.2597.00002c-.4142 0-.74-.33579-.74-.75s.3258-.75.74-.75l2.2597-.00002z"/><path d="m12.25 2.5c.4142 0 .75.33579.75.75s-.3358.75-.75.75h-4.5c-2.07107 0-3.75 1.67893-3.75 3.75v8.5c0 2.0711 1.67893 3.75 3.75 3.75h8.5c2.0711 0 3.75-1.6789 3.75-3.75v-4.5c0-.4142.3358-.75.75-.75s.75.3358.75.75v4.5c0 2.8995-2.3505 5.25-5.25 5.25h-8.5c-2.8995 0-5.25-2.3505-5.25-5.25v-8.5c0-2.8995 2.35051-5.25 5.25-5.25z"/><path d="m11.5302 8.46955c-.2929-.29283-.7678-.29272-1.0606.00024-.2929.29296-.2928.76783.0002 1.06066l2.4695 2.46845-2.4697 2.4709c-.2929.2929-.2928.7678.0002 1.0606.2929.2929.7678.2928 1.0606-.0002l3-3.0013c.1407-.1407.2196-.3315.2196-.5304s-.0791-.3897-.2198-.5303z"/></g></svg>