<svg fill="none" height="16" viewBox="0 0 16 16" width="16" xmlns="http://www.w3.org/2000/svg"><g fill="#00a008"><path d="m2.25 10c.41421 0 .75.3358.75.75v1.25c0 .5523.44772 1 1 1h1.25c.41421 0 .75.3358.75.75s-.33579.75-.75.75h-1.25c-1.38071 0-2.5-1.1193-2.5-2.5v-1.25c0-.4142.33579-.75.75-.75z"/><path d="m13.75 10c.4142 0 .75.3358.75.75v1.25c0 1.3807-1.1193 2.5-2.5 2.5h-1.25c-.4142 0-.75-.3358-.75-.75s.3358-.75.75-.75h1.25c.5523 0 1-.4477 1-1v-1.25c0-.4142.3358-.75.75-.75z"/><path clip-rule="evenodd" d="m8 6c1.10457 0 2 .89543 2 2s-.89543 2-2 2-2-.89543-2-2 .89543-2 2-2zm0 1.24707c-.41601 0-.75293.33692-.75293.75293s.33692.75293.75293.75293.75293-.33692.75293-.75293-.33692-.75293-.75293-.75293z" fill-rule="evenodd"/><path clip-rule="evenodd" d="m8.24805 4.00488c2.52635.10184 3.85815 1.74935 4.48245 2.89649.3744.68815.3744 1.50911 0 2.19726l-.1299.22754c-.6944 1.16433-2.0805 2.67373-4.6006 2.67383l-.24805-.0049c-2.36366-.0952-3.68127-1.5433-4.35254-2.66893l-.12988-.22754c-.35099-.64502-.37336-1.40676-.06641-2.0664l.06641-.13086c.64441-1.18412 2.04253-2.90129 4.73047-2.90137zm-.24805 1.24219c-2.03924.00008-3.09917 1.26406-3.63574 2.25-.17228.31663-.17228.68923 0 1.00586.53657.98594 1.59649 2.24987 3.63574 2.24997 2.039-.0001 3.0981-1.26408 3.6348-2.24997.1723-.31667.1723-.68919 0-1.00586-.5367-.98589-1.5958-2.24992-3.6348-2.25z" fill-rule="evenodd"/><path d="m5.25 1.5c.41421 0 .75.33579.75.75s-.33579.75-.75.75h-1.25c-.55228 0-1 .44772-1 1v1.25c0 .41421-.33579.75-.75.75s-.75-.33579-.75-.75v-1.25c0-1.38071 1.11929-2.5 2.5-2.5z"/><path d="m12 1.5c1.3807 0 2.5 1.11929 2.5 2.5v1.25c0 .41421-.3358.75-.75.75s-.75-.33579-.75-.75v-1.25c0-.55228-.4477-1-1-1h-1.25c-.4142 0-.75-.33579-.75-.75s.3358-.75.75-.75z"/></g></svg>