<svg fill="none" height="20" viewBox="0 0 20 20" width="20" xmlns="http://www.w3.org/2000/svg"><g fill="#00a008"><path d="m2.75 13c.41421 0 .75.3358.75.75v1.25c0 .8284.67157 1.5 1.5 1.5h1.25c.41421 0 .75.3358.75.75s-.33579.75-.75.75h-1.25c-1.65685 0-3-1.3431-3-3v-1.25c0-.4142.33579-.75.75-.75z"/><path d="m17.25 13c.4142 0 .75.3358.75.75v1.25c0 1.6569-1.3431 3-3 3h-1.25c-.4142 0-.75-.3358-.75-.75s.3358-.75.75-.75h1.25c.8284 0 1.5-.6716 1.5-1.5v-1.25c0-.4142.3358-.75.75-.75z"/><path clip-rule="evenodd" d="m10 7.5c1.3807 0 2.5 1.11929 2.5 2.5 0 1.3807-1.1193 2.5-2.5 2.5-1.38071 0-2.5-1.1193-2.5-2.5 0-1.38071 1.11929-2.5 2.5-2.5zm0 1.5c-.55228 0-1 .44772-1 1 0 .5523.44772 1 1 1 .5523 0 1-.4477 1-1 0-.55228-.4477-1-1-1z" fill-rule="evenodd"/><path clip-rule="evenodd" d="m10.3164 5.00684c3.221.1434 4.8208 2.46314 5.5039 3.88964.3361.70172.3361 1.50532 0 2.20702-.7052 1.4725-2.387 3.8965-5.8203 3.8965l-.31641-.0068c-3.0134-.1342-4.60791-2.1732-5.36035-3.6036l-.14355-.2861c-.31502-.6578-.33517-1.40518-.05957-2.0742l.05957-.13282c.70517-1.47246 2.38701-3.89648 5.82031-3.89648zm-.3164 1.49316c-2.56639 0-3.85615 1.76691-4.46777 3.04395-.13987.29207-.13987.62005 0 .91215.61162 1.277 1.90138 3.0439 4.46777 3.0439 2.5664 0 3.8561-1.7669 4.4678-3.0439.1398-.2921.1398-.62008 0-.91215-.6117-1.27704-1.9014-3.04395-4.4678-3.04395z" fill-rule="evenodd"/><path d="m6.25 2c.41421 0 .75.33579.75.75s-.33579.75-.75.75h-1.25c-.82843 0-1.5.67157-1.5 1.5v1.25c0 .41421-.33579.75-.75.75s-.75-.33579-.75-.75v-1.25c0-1.65685 1.34315-3 3-3z"/><path d="m15 2c1.6569 0 3 1.34315 3 3v1.25c0 .41421-.3358.75-.75.75s-.75-.33579-.75-.75v-1.25c0-.82843-.6716-1.5-1.5-1.5h-1.25c-.4142 0-.75-.33579-.75-.75s.3358-.75.75-.75z"/></g></svg>