<svg fill="none" height="24" viewBox="0 0 24 24" width="24" xmlns="http://www.w3.org/2000/svg"><g fill="#00a008"><path d="m3.25 16c.41421 0 .75.3358.75.75v1.5c0 .9665.7835 1.75 1.75 1.75h1.5c.41421 0 .75.3358.75.75s-.33579.75-.75.75h-1.5c-1.79493 0-3.25-1.4551-3.25-3.25v-1.5c0-.4142.33579-.75.75-.75z"/><path d="m20.75 16c.4142 0 .75.3358.75.75v1.5c0 1.7949-1.4551 3.25-3.25 3.25h-1.5c-.4142 0-.75-.3358-.75-.75s.3358-.75.75-.75h1.5c.9665 0 1.75-.7835 1.75-1.75v-1.5c0-.4142.3358-.75.75-.75z"/><path clip-rule="evenodd" d="m12 9c1.6569 0 3 1.3431 3 3s-1.3431 3-3 3-3-1.3431-3-3 1.3431-3 3-3zm0 1.5c-.8284 0-1.5.6716-1.5 1.5s.6716 1.5 1.5 1.5 1.5-.6716 1.5-1.5-.6716-1.5-1.5-1.5z" fill-rule="evenodd"/><path clip-rule="evenodd" d="m12.3525 6.00781c3.5852.15844 5.4425 2.71922 6.2911 4.44139.4839.9824.4839 2.1192 0 3.1016l-.1768.3428c-.95 1.7583-2.8885 4.1064-6.4668 4.1064l-.3525-.0078c-3.35402-.1482-5.19596-2.3989-6.1143-4.0986l-.17675-.3428c-.45366-.9209-.48275-1.9773-.08594-2.9151l.08594-.1865c.8759-1.77776 2.82683-4.4492 6.64355-4.4492zm-.3525 1.49219c-2.9624 0-4.51972 2.03085-5.29883 3.6123-.27798.5644-.27798 1.211 0 1.7754.77911 1.5814 2.33643 3.6123 5.29883 3.6123s4.5197-2.0309 5.2988-3.6123c.278-.5644.278-1.211 0-1.7754-.7791-1.58145-2.3364-3.6123-5.2988-3.6123z" fill-rule="evenodd"/><path d="m7.25 2.5c.41421 0 .75.33579.75.75s-.33579.75-.75.75h-1.5c-.9665 0-1.75.7835-1.75 1.75v1.5c0 .41421-.33579.75-.75.75s-.75-.33579-.75-.75v-1.5c0-1.79493 1.45507-3.25 3.25-3.25z"/><path d="m18.25 2.5c1.7949 0 3.25 1.45507 3.25 3.25v1.5c0 .41421-.3358.75-.75.75s-.75-.33579-.75-.75v-1.5c0-.9665-.7835-1.75-1.75-1.75h-1.5c-.4142 0-.75-.33579-.75-.75s.3358-.75.75-.75z"/></g></svg>