<svg fill="none" height="16" viewBox="0 0 16 16" width="16" xmlns="http://www.w3.org/2000/svg"><path d="m15 8c0 3.866-3.134 7-7 7-3.86599 0-7-3.134-7-7 0-3.86599 3.13401-7 7-7 3.866 0 7 3.13401 7 7z" fill="#86daf1"/><g fill="#03aa6f"><path d="m8 1c-3.86599 0-7 3.13401-7 7 0 .33952.02417.6734.07089 1h.92913l1-1 .00006-2h3l.99994-1v-1c.03035-.02838 1.00006-1 1.00006-1z"/><path d="m10.0104 1.293.0054 1.66963.9906 1.03737h2.7389c-.8933-1.28074-2.204-2.24878-3.7349-2.707z"/><path d="m14.7101 6h-.7101s-1.6526.02549-1.7518-.03183c-.0376-.02171-.2134-.24807-.3908-.50299l-.3225-.46357-2.53467-.00161-1 1v2c.03285.02801 1.00948 1 1.00948 1h1.99049l1 1v1l1.4245 1.4245c.9847-1.2059 1.5753-2.74624 1.5753-4.4245 0-.69497-.1013-1.36629-.2899-2z"/><path d="m9.08342 14.9167.91668-.9167v-2l-1.00002-1h-1v-1h-5l-1 1s-.00283.3228-.00367.6016c.3081.5125.67996.9823 1.10461 1.3984h1.89906l-.00002 1.3264c.90924.4319 1.92637.6736 2.99994.6736.36848 0 .73032-.0285 1.08342-.0833z"/></g><path clip-rule="evenodd" d="m8 14c3.3137 0 6-2.6863 6-6 0-3.31371-2.6863-6-6-6-3.31371 0-6 2.68629-6 6 0 3.3137 2.68629 6 6 6zm0 1c3.866 0 7-3.134 7-7 0-3.86599-3.134-7-7-7-3.86599 0-7 3.13401-7 7 0 3.866 3.13401 7 7 7z" fill="#1d1f26" fill-opacity=".2" fill-rule="evenodd"/></svg>