<svg fill="none" height="20" viewBox="0 0 20 20" width="20" xmlns="http://www.w3.org/2000/svg"><circle cx="10" cy="10" fill="#86daf1" r="8.5"/><g fill="#03aa6f"><path d="m1.5 10.0001h1.49959l1-.99997.00007-2h3l.99993-1v-1c.03035-.02838 1.00006-1 1.00006-1v-2.44178c-4.223.49508-7.49965 4.08577-7.49965 8.44175z"/><path d="m8.99965 18.4419c-.72238-.0847-1.41707-.26-2.0724-.5142l-.92759-.9276v-3h-2.00017l.00008-2 1-1h4.00008v1h1l1.00005 1v2l-2.00005 1z"/><path d="m18.0064 7.1401c.3193.89374.4932 1.85659.4932 2.86 0 1.791-.5539 3.4526-1.4998 4.8229v-.8229l-2-2v-1l-1-1h-1.9905s-.9766-.97196-1.0095-.99997v-2l1-1 2.5347.0016.3225.46357c.1773.25493.3532.48128.3907.503.0993.05731 1.8185.32482 2.0905.32525.0697.00012.336-.06347.6682-.15345z"/><path d="m12.9997 5.00013h3.8745c-1.1675-1.60237-2.8815-2.781-4.8681-3.26177l.003 2.2244z"/></g><circle cx="10" cy="10" r="8" stroke="#1d1f26" stroke-opacity=".2"/></svg>