<svg fill="none" height="24" viewBox="0 0 24 24" width="24" xmlns="http://www.w3.org/2000/svg"><path d="m22 12c0 5.5228-4.4772 10-10 10-5.52285 0-10-4.4772-10-10 0-5.52285 4.47715-10 10-10 5.5228 0 10 4.47715 10 10z" fill="#86daf1"/><g fill="#03aa6f"><path d="m10.0001 2.20007c-4.56454.92651-8.0001 4.96203-8.0001 9.79993h2.00002l1-1 .00006-1.99995h3l.99994-1v-1c.03035-.02838 1.00008-1 1.00008-1z"/><path d="m11 21.9507c-1.05709-.105-2.06576-.3746-3-.7827v-1.168l-1-1 .00008-3h-2l-1-1c-.00877-.0009 0-1 0-1l1-1h5.00002v1h1l1 1 .0001 3-1 1z"/><path d="m22 12c0 3.2712-1.5707 6.1756-3.999 8l-.0008-4-2-2v-1l-1-1h-1.9905s-.9766-.9719-1.0095-1v-1.99995l1-1 2.5347.0016.3225.46358c.1774.25492.3532.48127.3908.50299.0992.05731 1.7518.03183 1.7518.03183h3.5422c.2974.94704.4578 1.95475.4578 2.99995z"/><path d="m13.0014 2.04956c2.8588.28424 5.3634 1.77251 6.9993 3.95049h-1.0006l-1 1h-4l-.9905-1.03737z"/></g><path clip-rule="evenodd" d="m12 21c4.9706 0 9-4.0294 9-9 0-4.97056-4.0294-9-9-9-4.97056 0-9 4.02944-9 9 0 4.9706 4.02944 9 9 9zm0 1c5.5228 0 10-4.4772 10-10 0-5.52285-4.4772-10-10-10-5.52285 0-10 4.47715-10 10 0 5.5228 4.47715 10 10 10z" fill="#1d1f26" fill-opacity=".2" fill-rule="evenodd"/></svg>