<svg fill="none" height="16" viewBox="0 0 16 16" width="16" xmlns="http://www.w3.org/2000/svg"><g clip-rule="evenodd" fill="#00a008" fill-rule="evenodd"><path d="m5.50024 6.6764c.00021-1.24341 1.35653-2.01162 2.42285-1.37207l2.20601 1.32422c1.0352.62152 1.0353 2.12166 0 2.74316l-2.20601 1.32329c-1.06632.6397-2.42255-.1277-2.42285-1.37114zm1.65137-.08594c-.06656-.03983-.15116.00842-.15137.08594v2.64746c.0003.07749.08483.12488.15137.08496l2.20507-1.32324c.06474-.03884.06474-.13206 0-.1709z"/><path d="m3.27661 2.24378c3.09613-.99266 6.35113-.99271 9.44729 0 .9654.30969 1.7024 1.26338 1.8984 2.45606l.0869.53222c.3878 2.36229.3876 3.1715 0 5.53324l-.0869.5332c-.1958 1.1929-.933 2.1462-1.8984 2.456-3.0963.9928-6.35102.9928-9.44729 0-.9656-.3097-1.70262-1.263-1.89844-2.456l-.08692-.5332c-.387613-2.36182-.387754-3.17088 0-5.53324l.08692-.53222c.19602-1.19275.93296-2.14643 1.89844-2.45606zm8.98929 1.42871c-2.79831-.8972-5.73297-.89718-8.53129 0-.31517.10109-.75001.50427-.87597 1.27051l-.08692.53125c-.19099 1.16357-.27146 1.85962-.27148 2.52539.00003.49918.04542 1.01452.14844 1.73145l.12304.79201.08692.5332.02636.1396c.15269.676.55415 1.036.84961 1.1309 2.79837.8972 5.73293.8973 8.53129 0 .3152-.1013.7501-.5045.8759-1.2705l.087-.5322c.1909-1.16323.2714-1.85876.2714-2.52446 0-.66579-.0805-1.36089-.2714-2.52441l-.087-.53223c-.1259-.76585-.5607-1.16922-.8759-1.27051z"/></g></svg>