<svg fill="none" height="20" viewBox="0 0 20 20" width="20" xmlns="http://www.w3.org/2000/svg"><g clip-rule="evenodd" fill="#00a008" fill-rule="evenodd"><path d="m7.00012 8.22132c.00025-1.49211 1.64183-2.40219 2.90722-1.61132l2.84476 1.77832c1.1906.74417 1.1906 2.47848 0 3.22268l-2.84476 1.7783c-1.26549.7909-2.90722-.119-2.90722-1.6113zm2.1123-.33886c-.26632-.16645-.61205.0249-.6123.33886v3.55668c0 .3141.34588.5063.6123.3398l2.84468-1.7783c.2507-.1567.2507-.52206 0-.67872z"/><path d="m3.92687 2.91566c3.98086-1.22185 8.16563-1.22186 12.14653 0 1.2413.3811 2.1884 1.55442 2.4404 3.02246l.1123.65528c.4986 2.90767.4984 3.9034 0 6.8105l-.1123.6563c-.2518 1.4683-1.199 2.6412-2.4404 3.0225-3.981 1.2219-8.16552 1.2219-12.14653 0-1.24152-.3812-2.18865-1.5541-2.44043-3.0225l-.1123-.6563c-.498439-2.9071-.498576-3.90282 0-6.8105l.1123-.65528c.25199-1.46807 1.19906-2.64138 2.44043-3.02246zm11.70603 1.43457c-3.6939-1.13379-7.57162-1.13377-11.2656 0-.57104.1753-1.15194.75179-1.36523 1.65625l-.03711.18555-.1123.65527c-.24617 1.43563-.35252 2.30923-.35254 3.15235.00004.84305.10645 1.71605.35254 3.15135l.1123.6563.03711.1855c.21323.9046.79419 1.4809 1.36523 1.6563 3.69403 1.1338 7.5716 1.1338 11.2656 0 .6092-.1871 1.2289-.8306 1.4024-1.8418l.1123-.6563.1592-.9795c.1336-.8904.1933-1.5396.1933-2.17185 0-.63235-.0596-1.2822-.1933-2.17286l-.1592-.97949-.1123-.65527c-.1735-1.0111-.7932-1.65478-1.4024-1.8418z"/></g></svg>