<svg fill="none" height="24" viewBox="0 0 24 24" width="24" xmlns="http://www.w3.org/2000/svg"><g clip-rule="evenodd" fill="#00a008" fill-rule="evenodd"><path d="m8.99958 9.91537c.00012-1.50639 1.66962-2.41311 2.93362-1.59375l3.2148 2.08398c1.1555.7492 1.1549 2.4399-.001 3.1885l-3.2138 2.082c-1.2641.8185-2.93337-.0889-2.93362-1.5947zm2.11812-.33594c-.266-.17239-.618.01891-.6181.33594v4.16603c.0002.3168.3521.5072.6181.3349l3.2139-2.081c.2434-.1576.2433-.5132 0-.6709z"/><path d="m5.25154 4.03158c4.42294-1.37454 9.07216-1.37438 13.49516 0 1.3794.42871 2.432 1.74761 2.7119 3.39941l.125.73828c.554 3.27133.554 4.39063 0 7.66213l-.125.7373c-.2799 1.6518-1.3325 2.9717-2.7119 3.4004-4.4229 1.3743-9.07234 1.3745-13.49516 0-1.37915-.429-2.43215-1.7488-2.71192-3.4004l-.125-.7373c-.55399-3.2713-.55395-4.391 0-7.66213l.125-.73828c.2798-1.6515 1.33287-2.97039 2.71192-3.39941zm13.05076 1.43164c-4.1331-1.28439-8.47233-1.2835-12.60545.00097-.74192.23086-1.47389 1.01418-1.67774 2.2168l-.125.73828c-.27396 1.61773-.39452 2.61423-.39453 3.58103.00003.9667.12063 1.9627.39453 3.5801l.125.7373.04395.2207c.25099 1.0785.93841 1.7816 1.63379 1.9981 4.13306 1.2844 8.47235 1.2843 12.60545 0 .7418-.2307 1.474-1.0154 1.6778-2.2188l.125-.7373.1777-1.1055c.1495-1.0079.2168-1.7495.2168-2.4746 0-.9668-.1206-1.9633-.3945-3.58103l-.125-.73828c-.204-1.20276-.9358-1.98707-1.6778-2.21777z"/></g></svg>