<svg fill="none" height="16" viewBox="0 0 16 16" width="16" xmlns="http://www.w3.org/2000/svg"><path d="m12 3.99994c-.3124-.31242-.819-.31242-1.1314 0l-2.86889 2.86876-2.86834-2.8687c-.31242-.31242-.81895-.31242-1.13137 0s-.31242.81895 0 1.13137l2.86834 2.8687-2.86834 2.86853c-.31242.3124-.31242.819 0 1.1314s.81895.3124 1.13137 0l2.86834-2.86856 2.86889 2.86856c.3124.3124.819.3124 1.1314 0s.3124-.819 0-1.1314l-2.86892-2.86853 2.86892-2.86876c.3124-.31242.3124-.81895 0-1.13137z" fill="#00a008"/></svg>