<svg fill="none" height="16" viewBox="0 0 16 16" width="16" xmlns="http://www.w3.org/2000/svg"><g fill="#00a008"><path d="m13.75 1.5c.4142 0 .75.33579.75.75v3.3c0 .52467-.4253.95-.95.95h-3.3c-.41421 0-.75-.33579-.75-.75s.33579-.75.75-.75h1.7502c-.9122-1.21445-2.36451-2-4.00033-2-2.1997 0-4.06763 1.42047-4.73655 3.39417-.11725.34596-.42596.60583-.79125.60583-.4709 0-.83375-.42211-.69826-.8731.80418-2.67675 3.28738-4.6269 6.22606-4.6269 2.01053 0 3.80783.9128 5.00013 2.34658v-1.59658c0-.41421.3358-.75.75-.75z"/><path d="m2.25 14.5c-.41421 0-.75-.3358-.75-.75v-3.3c0-.52467.42533-.95.95-.95h3.3c.41421 0 .75.33579.75.75 0 .4142-.33579.75-.75.75h-1.7505c.91221 1.2144 2.36455 2 4.00037 2 2.19973 0 4.06763-1.4205 4.73653-3.39417.1173-.34596.426-.60583.7913-.60583.4709 0 .8337.42211.6982.8731-.8041 2.6768-3.2873 4.6269-6.22603 4.6269-2.01037 0-3.80756-.9127-4.99987-2.3463v1.5963c0 .4142-.33579.75-.75.75z"/></g></svg>