<svg fill="none" height="20" viewBox="0 0 20 20" width="20" xmlns="http://www.w3.org/2000/svg"><g fill="#00a008"><path d="m9.99987 3c-3.29875 0-6.06456 2.28179-6.80518 5.35313-.08861.36748-.40469.64687-.7827.64687-.45461 0-.81008-.39803-.71201-.84194.84149-3.80887 4.23796-6.65806 8.29989-6.65806 2.60753 0 4.94093 1.17417 6.50013 3.02264v-1.77264c0-.41421.3358-.75.75-.75s.75.33579.75.75v3.3c0 .52467-.4253.95-.95.95h-3.3c-.4142 0-.75-.33579-.75-.75s.3358-.75.75-.75h1.612c-1.2841-1.52847-3.2097-2.5-5.36213-2.5z"/><path d="m17.5877 11c-.378 0-.694.2794-.7827.6469-.7406 3.0713-3.5064 5.3531-6.80513 5.3531-2.15248 0-4.07805-.9715-5.36212-2.5h1.61225c.41421 0 .75-.3358.75-.75s-.33579-.75-.75-.75h-3.3c-.52467 0-.95.4253-.95.95v3.3c0 .4142.33579.75.75.75s.75-.3358.75-.75v-1.7723c1.55922 1.8483 3.89244 3.0223 6.49987 3.0223 4.06193 0 7.45843-2.8492 8.29993-6.6581.098-.4439-.2574-.8419-.7121-.8419z"/></g></svg>