<svg fill="none" height="24" viewBox="0 0 24 24" width="24" xmlns="http://www.w3.org/2000/svg"><g fill="#00a008"><path d="m3.5 12c0-4.69442 3.80558-8.5 8.5-8.5 2.3525 0 4.4818.95569 6.0208 2.5h-2.2708c-.4142 0-.75.33579-.75.75s.3358.75.75.75h3.8c.5247 0 .95-.42533.95-.95v-3.8c0-.41421-.3358-.75-.75-.75s-.75.33579-.75.75v2.10857c-1.8038-1.76825-4.2745-2.85857-7-2.85857-5.52285 0-10 4.47715-10 10 0 .1099.00177.2193.00529.3283.01232.382.3352.6717.71732.6717.44485 0 .78754-.3886.77899-.8333-.00106-.0555-.0016-.111-.0016-.1667z"/><path d="m20.4984 11.8333c-.0086-.4447.3341-.8333.779-.8333.3821 0 .705.2897.7173.6717.0035.109.0053.2184.0053.3283 0 5.5228-4.4772 10-10 10-2.72551 0-5.19635-1.0904-7.00011-2.8587l-.00002 2.1131c0 .4142-.33579.75-.75.75s-.75-.3358-.75-.75l.00003-3.8044c0-.5247.42533-.95.95-.95h3.80352c.41421 0 .75.3358.75.75s-.33579.75-.75.75h-2.27424c1.53901 1.5443 3.66831 2.5 6.02082 2.5 4.6944 0 8.5-3.8056 8.5-8.5 0-.0557-.0005-.1112-.0016-.1667z"/></g></svg>