<svg fill="none" height="16" viewBox="0 0 16 16" width="16" xmlns="http://www.w3.org/2000/svg"><g fill="#00a008"><path d="m8.018 1.00002h-.01211c.4115.00317.74411.33773.74411.74998v4.5c0 .41421-.33579.75-.75.75s-.75-.33579-.75-.75v-4.5c0-.41225.33261-.74681.74411-.74998h-.01211l.018-.00002z"/><path d="m4.64321 3.64283c.21618-.16679.35679-.418.35679-.69104 0-.59345-.61728-.97521-1.09813-.6274-1.75804 1.27163-2.90187 3.34004-2.90187 5.67561 0 3.866 3.13401 7 7 7 3.866 0 7-3.134 7-7 0-2.33557-1.1438-4.40398-2.9019-5.67561-.4808-.34781-1.0981.03395-1.0981.6274 0 .27304.1406.52425.3568.69104 1.3035 1.00574 2.1432 2.5834 2.1432 4.35717 0 3.0376-2.4624 5.5-5.5 5.5-3.03757 0-5.5-2.4624-5.5-5.5 0-1.77377.83967-3.35143 2.14321-4.35717z"/></g></svg>