<svg fill="none" height="20" viewBox="0 0 20 20" width="20" xmlns="http://www.w3.org/2000/svg"><g fill="#00a008"><path d="m10 1c-.41421 0-.75.33579-.75.75v6.5c0 .41421.33579.75.75.75.4142 0 .75-.33579.75-.75v-6.5c0-.41421-.3358-.75-.75-.75z"/><path d="m5.96921 2.51466c.48227-.26024 1.03079.11553 1.03079.66353 0 .30262-.17619.57487-.43964.72379-2.12555 1.20151-3.56036 3.48222-3.56036 6.09802 0 3.866 3.13401 7 7 7 3.866 0 7-3.134 7-7 0-2.6158-1.4348-4.89651-3.5604-6.09802-.2634-.14891-.4396-.42117-.4396-.7238 0-.54799.5485-.92376 1.0308-.66352 2.661 1.43596 4.4692 4.2495 4.4692 7.48534 0 4.6944-3.8056 8.5-8.5 8.5-4.69442 0-8.5-3.8056-8.5-8.5 0-3.23584 1.80816-6.04938 4.46921-7.48534z"/></g></svg>