<svg fill="none" height="24" viewBox="0 0 24 24" width="24" xmlns="http://www.w3.org/2000/svg"><g fill="#00a008"><path d="m12 1c-.4142 0-.75.33579-.75.75v8.5c0 .4142.3358.75.75.75s.75-.3358.75-.75v-8.5c0-.41421-.3358-.75-.75-.75z"/><path d="m8.01427 2.82585c.47839-.20812.98573.16272.98573.68442 0 .32149-.20069.60633-.4937.73861-2.9519 1.33261-5.0063 4.30194-5.0063 7.75112 0 4.6944 3.80558 8.5 8.5 8.5 4.6944 0 8.5-3.8056 8.5-8.5 0-3.44918-2.0544-6.41851-5.0063-7.75112-.293-.13228-.4937-.41712-.4937-.73861 0-.5217.5073-.89254.9857-.68442 3.5395 1.53985 6.0143 5.06798 6.0143 9.17415 0 5.5228-4.4772 10-10 10-5.52285 0-10-4.4772-10-10 0-4.10617 2.47484-7.6343 6.01427-9.17415z"/></g></svg>