<svg fill="none" height="16" viewBox="0 0 16 16" width="16" xmlns="http://www.w3.org/2000/svg"><g fill="#00a008"><g clip-rule="evenodd" fill-rule="evenodd"><path d="m2.5 1c-.82843 0-1.5.67157-1.5 1.5v3c0 .82843.67157 1.5 1.5 1.5h3c.82843 0 1.5-.67157 1.5-1.5v-3c0-.82843-.67157-1.5-1.5-1.5zm3 1.5h-3v3h3z"/><path d="m2.5 9c-.82843 0-1.5.67157-1.5 1.5v3c0 .8284.67157 1.5 1.5 1.5h3c.82843 0 1.5-.6716 1.5-1.5v-3c0-.82843-.67157-1.5-1.5-1.5zm3 1.5h-3v3h3z"/><path d="m9 2.5c0-.82843.67157-1.5 1.5-1.5h3c.8284 0 1.5.67157 1.5 1.5v3c0 .82843-.6716 1.5-1.5 1.5h-3c-.82843 0-1.5-.67157-1.5-1.5zm1.5 0h3v3h-3z"/></g><path d="m10.5 9h1.2c.1657 0 .3.13431.3.3v.9c0 .1657-.1343.3-.3.3h-.95c-.1381 0-.25.1119-.25.25s-.1119.25-.25.25h-.95c-.16569 0-.3-.1343-.3-.3v-.2c0-.82843.67157-1.5 1.5-1.5z"/><path d="m9.3 12c-.16569 0-.3.1343-.3.3v1.2c0 .8284.67157 1.5 1.5 1.5h.2c.1657 0 .3-.1343.3-.3v-.95c0-.1381-.1119-.25-.25-.25s-.25-.1119-.25-.25v-.95c0-.1657-.1343-.3-.3-.3z"/><path d="m12 14.7c0 .1657.1343.3.3.3h1.2c.8284 0 1.5-.6716 1.5-1.5v-.2c0-.1657-.1343-.3-.3-.3h-.95c-.1381 0-.25.1119-.25.25s-.1119.25-.25.25h-.95c-.1657 0-.3.1343-.3.3z"/><path d="m14.7 12c.1657 0 .3-.1343.3-.3v-1.2c0-.82843-.6716-1.5-1.5-1.5h-.2c-.1657 0-.3.13431-.3.3v.95c0 .1381.1119.25.25.25s.25.1119.25.25v.95c0 .1657.1343.3.3.3z"/><path d="m11.6 11c-.3314 0-.6.2686-.6.6v.8c0 .3314.2686.6.6.6h.8c.3314 0 .6-.2686.6-.6v-.8c0-.3314-.2686-.6-.6-.6z"/></g></svg>