<svg fill="none" height="20" viewBox="0 0 20 20" width="20" xmlns="http://www.w3.org/2000/svg"><g fill="#00a008"><g clip-rule="evenodd" fill-rule="evenodd"><path d="m4 2c-1.10457 0-2 .89543-2 2v3c0 1.10457.89543 2 2 2h3c1.10457 0 2-.89543 2-2v-3c0-1.10457-.89543-2-2-2zm3 1.5h-3c-.27614 0-.5.22386-.5.5v3c0 .27614.22386.5.5.5h3c.27614 0 .5-.22386.5-.5v-3c0-.27614-.22386-.5-.5-.5z"/><path d="m4 11c-1.10457 0-2 .8954-2 2v3c0 1.1046.89543 2 2 2h3c1.10457 0 2-.8954 2-2v-3c0-1.1046-.89543-2-2-2zm3 1.5h-3c-.27614 0-.5.2239-.5.5v3c0 .2761.22386.5.5.5h3c.27614 0 .5-.2239.5-.5v-3c0-.2761-.22386-.5-.5-.5z"/><path d="m11 4c0-1.10457.8954-2 2-2h3c1.1046 0 2 .89543 2 2v3c0 1.10457-.8954 2-2 2h-3c-1.1046 0-2-.89543-2-2zm2-.5h3c.2761 0 .5.22386.5.5v3c0 .27614-.2239.5-.5.5h-3c-.2761 0-.5-.22386-.5-.5v-3c0-.27614.2239-.5.5-.5z"/></g><path d="m16 12.5h-.7c-.1657 0-.3-.1343-.3-.3v-.9c0-.1657.1343-.3.3-.3h.7c1.1046 0 2 .8954 2 2v.7c0 .1657-.1343.3-.3.3h-.9c-.1657 0-.3-.1343-.3-.3v-.7c0-.2761-.2239-.5-.5-.5z"/><path d="m16.8 15c-.1657 0-.3.1343-.3.3v.7c0 .2761-.2239.5-.5.5h-.7c-.1657 0-.3.1343-.3.3v.9c0 .1657.1343.3.3.3h.7c1.1046 0 2-.8954 2-2v-.7c0-.1657-.1343-.3-.3-.3z"/><path d="m13.7 16.5c.1657 0 .3.1343.3.3v.9c0 .1657-.1343.3-.3.3h-.7c-1.1046 0-2-.8954-2-2v-.7c0-.1657.1343-.3.3-.3h.9c.1657 0 .3.1343.3.3v.7c0 .2761.2239.5.5.5z"/><path d="m12.5 13v.7c0 .1657-.1343.3-.3.3h-.9c-.1657 0-.3-.1343-.3-.3v-.7c0-1.1046.8954-2 2-2h.7c.1657 0 .3.1343.3.3v.9c0 .1657-.1343.3-.3.3h-.7c-.2761 0-.5.2239-.5.5z"/><path d="m13.9 13.5c-.2209 0-.4.1791-.4.4v1.2c0 .2209.1791.4.4.4h1.2c.2209 0 .4-.1791.4-.4v-1.2c0-.2209-.1791-.4-.4-.4z"/></g></svg>