<svg fill="none" height="24" viewBox="0 0 24 24" width="24" xmlns="http://www.w3.org/2000/svg"><g fill="#00a008"><g clip-rule="evenodd" fill-rule="evenodd"><path d="m5.5 3c-1.38071 0-2.5 1.11929-2.5 2.5v3c0 1.38071 1.11929 2.5 2.5 2.5h3c1.38071 0 2.5-1.11929 2.5-2.5v-3c0-1.38071-1.11929-2.5-2.5-2.5zm3 1.5h-3c-.55228 0-1 .44772-1 1v3c0 .55228.44772 1 1 1h3c.55228 0 1-.44772 1-1v-3c0-.55228-.44772-1-1-1z"/><path d="m5.5 13c-1.38071 0-2.5 1.1193-2.5 2.5v3c0 1.3807 1.11929 2.5 2.5 2.5h3c1.38071 0 2.5-1.1193 2.5-2.5v-3c0-1.3807-1.11929-2.5-2.5-2.5zm3 1.5h-3c-.55228 0-1 .4477-1 1v3c0 .5523.44772 1 1 1h3c.55228 0 1-.4477 1-1v-3c0-.5523-.44772-1-1-1z"/><path d="m13 5.5c0-1.38071 1.1193-2.5 2.5-2.5h3c1.3807 0 2.5 1.11929 2.5 2.5v3c0 1.38071-1.1193 2.5-2.5 2.5h-3c-1.3807 0-2.5-1.11929-2.5-2.5zm2.5-1h3c.5523 0 1 .44772 1 1v3c0 .55228-.4477 1-1 1h-3c-.5523 0-1-.44772-1-1v-3c0-.55228.4477-1 1-1z"/></g><path d="m19 14.5h-.7c-.1657 0-.3-.1343-.3-.3v-.9c0-.1657.1343-.3.3-.3h.7c1.1046 0 2 .8954 2 2v1.7c0 .1657-.1343.3-.3.3h-.9c-.1657 0-.3-.1343-.3-.3v-1.7c0-.2761-.2239-.5-.5-.5z"/><path d="m19.5 18.3c0-.1657.1343-.3.3-.3h.9c.1657 0 .3.1343.3.3v.7c0 1.1046-.8954 2-2 2h-1.7c-.1657 0-.3-.1343-.3-.3v-.9c0-.1657.1343-.3.3-.3h1.7c.2761 0 .5-.2239.5-.5z"/><path d="m15.7 19.5c.1657 0 .3.1343.3.3v.9c0 .1657-.1343.3-.3.3h-.7c-1.1046 0-2-.8954-2-2v-1.7c0-.1657.1343-.3.3-.3h.9c.1657 0 .3.1343.3.3v1.7c0 .2761.2239.5.5.5z"/><path d="m13 15.7c0 .1657.1343.3.3.3h.9c.1657 0 .3-.1343.3-.3v-.7c0-.2761.2239-.5.5-.5h1.7c.1657 0 .3-.1343.3-.3v-.9c0-.1657-.1343-.3-.3-.3h-1.7c-1.1046 0-2 .8954-2 2z"/><path d="m16.6 16c-.3314 0-.6.2686-.6.6v.8c0 .3314.2686.6.6.6h.8c.3314 0 .6-.2686.6-.6v-.8c0-.3314-.2686-.6-.6-.6z"/></g></svg>