<svg fill="none" height="16" viewBox="0 0 16 16" width="16" xmlns="http://www.w3.org/2000/svg"><g fill="#00a008"><path clip-rule="evenodd" d="m4.5 3c0-1.38071 1.11929-2.5 2.5-2.5h2c1.3807 0 2.5 1.11929 2.5 2.5h.4997c.6641 0 1.1095.33916 1.3641.64753.1241.15035.2079.29764.2611.40691.027.05549.0473.10358.0618.14067.01.02566.0195.05155.0278.07779.1254.39477-.0929.81647-.4877.94189-.3903.12403-.8071-.0881-.9376-.47457-.0016-.00409-.0058-.01448-.0129-.02904-.0153-.03135-.0386-.07156-.0693-.10871-.055-.06663-.1096-.10247-.2073-.10247h-5.9997v1.25c0 .41421-.33579.75-.75.75s-.75-.33579-.75-.75v-1.23316c-.52224.08656-.94309.49816-1.02908 1.03572l-.86715 5.42104c-.17008 1.0632.65126 2.0264 1.72803 2.0264h.36844c.41421 0 .75.3358.75.75s-.33579.75-.75.75h-.36844c-1.99971 0-3.52506-1.7887-3.2092-3.7633l.86715-5.42107c.20252-1.26605 1.24932-2.21452 2.51025-2.30804zm4.5-1c.55228 0 1 .44772 1 1h-4c0-.55228.44772-1 1-1z" fill-rule="evenodd"/><path d="m11.5254 9.26271c0-.42123-.3415-.76271-.7627-.76271s-.7627.34148-.7627.76271v.96609c0 .0361-.01758.0587-.03559.0691l-.65595.3971c-.36037.2181-.47569.687-.25757 1.0474s.68707.4757 1.04741.2576l.6391-.3868c.5031-.2955.788-.8298.788-1.3844z"/><path clip-rule="evenodd" d="m5.5 10.5c0-2.76142 2.23858-5 5-5 2.7614 0 5 2.23858 5 5 0 2.7614-2.2386 5-5 5-2.76142 0-5-2.2386-5-5zm5-3.47458c-1.91896 0-3.47458 1.55563-3.47458 3.47458 0 1.919 1.55562 3.4746 3.47458 3.4746 1.919 0 3.4746-1.5556 3.4746-3.4746 0-1.91895-1.5556-3.47458-3.4746-3.47458z" fill-rule="evenodd"/><path d="m11.5254 9.26271c0-.42123-.3415-.76271-.7627-.76271s-.7627.34148-.7627.76271v.96609c0 .0361-.01758.0587-.03559.0691l-.65595.3971c-.36037.2181-.47569.687-.25757 1.0474s.68707.4757 1.04741.2576l.6391-.3868c.5031-.2955.788-.8298.788-1.3844z"/></g></svg>