<svg fill="none" height="20" viewBox="0 0 20 20" width="20" xmlns="http://www.w3.org/2000/svg"><g fill="#00a008"><path clip-rule="evenodd" d="m6 4.25c0-1.79492 1.45507-3.25 3.25-3.25h1.5c1.7949 0 3.25 1.45507 3.25 3.25v.75868c1.6655.11699 3.0324 1.40424 3.2286 3.08563l.0372.31876c.048.41142-.2466.78386-.658.83188-.4114.04801-.7839-.24659-.8319-.65802l-.0372-.31876c-.1079-.9248-.8356-1.64094-1.7387-1.75291v1.23474c0 .41421-.3358.75-.75.75s-.75-.33579-.75-.75v-1.25h-5v1.25c0 .41421-.33579.75-.75.75s-.75-.33579-.75-.75v-1.23474c-.90313.11199-1.63083.82819-1.7387 1.75304l-.75812 6.5c-.1386 1.1883.79014 2.2317 1.98653 2.2317h2.51023c.41421 0 .75.3358.75.75s-.33579.75-.75.75h-2.51023c-2.09367 0-3.71898-1.8259-3.47643-3.9055l.75812-6.49997c.19612-1.68148 1.563-2.96884 3.2286-3.08585zm6.5 0v.75h-5v-.75c0-.9665.7835-1.75 1.75-1.75h1.5c.9665 0 1.75.7835 1.75 1.75z" fill-rule="evenodd"/><path d="m15 12.7627c0-.4212-.3415-.7627-.7627-.7627s-.7627.3415-.7627.7627v.9661c0 .0361-.0176.0587-.0356.0691l-.656.3971c-.3603.2181-.4756.687-.2575 1.0474s.687.4757 1.0474.2576l.6391-.3868c.5031-.2955.788-.8298.788-1.3844z"/><path clip-rule="evenodd" d="m9 14c0-2.7614 2.2386-5 5-5s5 2.2386 5 5-2.2386 5-5 5-5-2.2386-5-5zm5-3.4746c-1.919 0-3.4746 1.5556-3.4746 3.4746s1.5556 3.4746 3.4746 3.4746 3.4746-1.5556 3.4746-3.4746-1.5556-3.4746-3.4746-3.4746z" fill-rule="evenodd"/><path d="m15 12.7627c0-.4212-.3415-.7627-.7627-.7627s-.7627.3415-.7627.7627v.9661c0 .0361-.0176.0587-.0356.0691l-.656.3971c-.3603.2181-.4756.687-.2575 1.0474s.687.4757 1.0474.2576l.6391-.3868c.5031-.2955.788-.8298.788-1.3844z"/><path clip-rule="evenodd" d="m9 14c0-2.7614 2.2386-5 5-5s5 2.2386 5 5-2.2386 5-5 5-5-2.2386-5-5zm5-3.4746c-1.919 0-3.4746 1.5556-3.4746 3.4746s1.5556 3.4746 3.4746 3.4746 3.4746-1.5556 3.4746-3.4746-1.5556-3.4746-3.4746-3.4746z" fill-rule="evenodd"/></g></svg>