<svg fill="none" height="24" viewBox="0 0 24 24" width="24" xmlns="http://www.w3.org/2000/svg"><g fill="#00a008"><path clip-rule="evenodd" d="m7 4.75c0-2.07107 1.67893-3.75 3.75-3.75h2.5c2.0711 0 3.75 1.67893 3.75 3.75v1.30871c1.6049.28722 2.8735 1.59836 3.0627 3.26952l.1797 1.58737c.0466.4116-.2493.7831-.6609.8296-.4116.0466-.783-.2493-.8296-.6608l-.1797-1.58746c-.1028-.9086-.7375-1.63982-1.5722-1.89729v1.15035c0 .41421-.3358.75-.75.75s-.75-.33579-.75-.75v-1.25h-7v1.25c0 .41421-.33579.75-.75.75s-.75-.33579-.75-.75v-1.15012c-.83437.25769-1.46872.98882-1.57148 1.8972l-.90501 8.00002c-.15095 1.3343.89292 2.5029 2.23574 2.5029h4.24145c.4142 0 .75.3358.75.75s-.3358.75-.75.75h-4.24145c-2.23803 0-3.97781-1.9477-3.72623-4.1715l.90501-8.00003c.18903-1.671 1.45736-2.98211 3.06197-3.26962zm8.5 0v1.25h-7v-1.25c0-1.24264 1.00736-2.25 2.25-2.25h2.5c1.2426 0 2.25 1.00736 2.25 2.25z" fill-rule="evenodd"/><path d="m18 15.7627c0-.4212-.3415-.7627-.7627-.7627s-.7627.3415-.7627.7627v.9661c0 .0361-.0176.0587-.0356.0691l-.656.3971c-.3603.2181-.4756.687-.2575 1.0474s.687.4757 1.0474.2576l.6391-.3868c.5031-.2955.788-.8298.788-1.3844z"/><path clip-rule="evenodd" d="m12 17c0-2.7614 2.2386-5 5-5s5 2.2386 5 5-2.2386 5-5 5-5-2.2386-5-5zm5-3.4746c-1.919 0-3.4746 1.5556-3.4746 3.4746s1.5556 3.4746 3.4746 3.4746 3.4746-1.5556 3.4746-3.4746-1.5556-3.4746-3.4746-3.4746z" fill-rule="evenodd"/></g></svg>