<svg fill="none" height="16" viewBox="0 0 16 16" width="16" xmlns="http://www.w3.org/2000/svg"><g fill="#00a008"><path clip-rule="evenodd" d="m5.5 4.5c1.38071 0 2.5 1.11929 2.5 2.5s-1.11929 2.5-2.5 2.5-2.5-1.11929-2.5-2.5 1.11929-2.5 2.5-2.5zm0 1.5c-.55228 0-1 .44772-1 1s.44772 1 1 1 1-.44772 1-1-.44772-1-1-1z" fill-rule="evenodd"/><path d="m12.7002 8c.1655.00011.2997.13427.2998.2998v.9004c-.0001.16553-.1343.29969-.2998.2998h-.9004c-.1655-.00011-.2997-.13427-.2998-.2998v-.9004c.0001-.16553.1343-.29969.2998-.2998z"/><path d="m11.2002 6c.1655.00011.2997.13427.2998.2998v.9004c-.0001.16553-.1343.29969-.2998.2998h-.9004c-.1655-.00011-.2997-.13427-.2998-.2998v-.9004c.0001-.16553.1343-.29969.2998-.2998z"/><path clip-rule="evenodd" d="m11.1055 2c1.6326.00013 3.131 1.71231 3.7509 3.79883.4757 1.60101.6034 2.62664.6436 4.88087-.0397 2.1896-.9147 3.3094-2.5039 3.3203-.8606-.0055-1.489-.3671-2.0537-1.0312l-.2383-.3038c-.5253-.7158-1.34052-1.665-2.7041-1.665s-2.17887.9492-2.7041 1.665c-.62855.8565-1.30861 1.3287-2.29981 1.335l-.28906-.0146c-1.39908-.1404-2.169801-1.2553-2.20703-3.3321.03519-1.94943.137062-2.97825.480469-4.27732l.162111-.57715c.61999-2.08664 2.1192-3.79883 3.75195-3.79883 1.05531.00001 2.08039.75 3.10547.75 1.02507 0 2.0501-.75 3.1055-.75zm-.1768 1.51562c-.1938.03196-.4506.11544-.875.26954-.45588.16555-1.22771.46484-2.0537.46484s-1.59781-.29929-2.05371-.46484c-.42435-.1541-.68119-.23757-.875-.26954l-.17676-.01562c-.27427 0-.69076.14849-1.16992.65137-.47038.49368-.89134 1.22566-1.14356 2.07422-.42244 1.42185-.54171 2.30164-.58105 4.41991.0193.9387.21582 1.4039.36719 1.6045.09725.1289.23832.2442.62793.249.36163-.0039.64409-.1107 1.09179-.7207.54542-.7434 1.75602-2.2783 3.91309-2.2783 2.1571 0 3.3677 1.5351 3.9131 2.2783.449.6118.7316.7167 1.083.7207.3973-.0046.5423-.1221.6396-.25.1501-.1972.344-.6548.3633-1.5771-.0393-2.14506-.1577-3.02465-.5801-4.44631-.2522-.84869-.6742-1.58053-1.1445-2.07422-.4788-.50256-.8948-.6513-1.1689-.65137z" fill-rule="evenodd"/></g></svg>