<svg fill="none" height="20" viewBox="0 0 20 20" width="20" xmlns="http://www.w3.org/2000/svg"><g fill="#00a008"><path clip-rule="evenodd" d="m6.75 6c1.51878 0 2.75 1.23122 2.75 2.75 0 1.5188-1.23122 2.75-2.75 2.75s-2.75-1.2312-2.75-2.75c0-1.51878 1.23122-2.75 2.75-2.75zm0 1.5c-.69036 0-1.25.55964-1.25 1.25s.55964 1.25 1.25 1.25 1.25-.55964 1.25-1.25-.55964-1.25-1.25-1.25z" fill-rule="evenodd"/><path d="m14.125 10c.2071 0 .375.1679.375.375v.75c0 .2071-.1679.375-.375.375h-.75c-.2071 0-.375-.1679-.375-.375v-.75c0-.2071.1679-.375.375-.375z"/><path d="m12.125 8c.2071 0 .375.16789.375.375v.75c0 .20711-.1679.375-.375.375h-.75c-.2071 0-.375-.16789-.375-.375v-.75c0-.20711.1679-.375.375-.375z"/><path d="m16.125 8c.2071 0 .375.16789.375.375v.75c0 .20711-.1679.375-.375.375h-.75c-.2071 0-.375-.16789-.375-.375v-.75c0-.20711.1679-.375.375-.375z"/><path d="m14.125 6c.2071 0 .375.16789.375.375v.75c0 .20711-.1679.375-.375.375h-.75c-.2071 0-.375-.16789-.375-.375v-.75c0-.20711.1679-.375.375-.375z"/><path clip-rule="evenodd" d="m13.9336 3.09082c2.068.00016 3.9666 1.99741 4.7519 4.43164.6026 1.86777.7636 3.06464.8145 5.69434-.0503 2.5544-1.1582 3.8612-3.1709 3.874l-.2295-.0078c-1.0493-.0654-1.8194-.5422-2.5244-1.3672l-.1504-.1816c-.6653-.8352-1.6975-1.9434-3.4248-1.9434-1.72727 0-2.75951 1.1082-3.4248 1.9434l-.1504.1816c-.75536.8839-1.58642 1.3683-2.76367 1.375-2.00319-.0127-3.110825-1.3196-3.16113-3.9043.044578-2.2748.17324-3.47522.6084-4.99119l.20605-.67285c.7854-2.43422 2.68391-4.43164 4.75196-4.43164 1.33673.00001 2.63515.875 3.93359.875 1.2984 0 2.5969-.875 3.9336-.875zm-.1416 1.56055c-.3384.0267-.734.14661-1.3467.35156-.5976.19989-1.4962.51758-2.4453.51758-.94909 0-1.8477-.31769-2.44531-.51758-.61274-.20495-1.00828-.32486-1.34668-.35156l-.1416-.00586c-.51876 0-1.14282.25383-1.77637.86621-.62888.60792-1.17334 1.48784-1.49609 2.48828-.53855 1.66953-.68845 2.7026-.73829 5.1787.02443 1.0936.26963 1.6642.49512 1.9395.18069.2205.47619.4108 1.10938.417.65773-.0056 1.11158-.2323 1.69922-.9698.7105-.8919 2.14798-2.5293 4.64062-2.5293 2.4927 0 3.9302 1.6376 4.6406 2.5293.5892.7395 1.0431.9641 1.6885.9698.6415-.0061.9417-.1985 1.123-.418.2245-.2718.467-.8339.4913-1.9092-.0499-2.5062-.199-3.53904-.7373-5.208-.3228-1.0005-.8674-1.88036-1.4961-2.48828-.6334-.6124-1.2577-.86613-1.7764-.86621z" fill-rule="evenodd"/></g></svg>