<svg fill="none" height="24" viewBox="0 0 24 24" width="24" xmlns="http://www.w3.org/2000/svg"><g fill="#00a008"><path d="m17.5 12c.2761 0 .5.2239.5.5v1c0 .2761-.2239.5-.5.5h-1c-.2761 0-.5-.2239-.5-.5v-1c0-.2761.2239-.5.5-.5z"/><path clip-rule="evenodd" d="m7.5 7.5c1.65685 0 3 1.34315 3 3 0 1.6569-1.34315 3-3 3s-3-1.3431-3-3c0-1.65685 1.34315-3 3-3zm0 1.5c-.82843 0-1.5.67157-1.5 1.5 0 .8284.67157 1.5 1.5 1.5s1.5-.6716 1.5-1.5c0-.82843-.67157-1.5-1.5-1.5z" fill-rule="evenodd"/><path d="m15.5 10c.2761 0 .5.2239.5.5v1c0 .2761-.2239.5-.5.5h-1c-.2761 0-.5-.2239-.5-.5v-1c0-.2761.2239-.5.5-.5z"/><path d="m19.5 10c.2761 0 .5.2239.5.5v1c0 .2761-.2239.5-.5.5h-1c-.2761 0-.5-.2239-.5-.5v-1c0-.2761.2239-.5.5-.5z"/><path d="m17.5 8c.2761 0 .5.22386.5.5v1c0 .27614-.2239.5-.5.5h-1c-.2761 0-.5-.22386-.5-.5v-1c0-.27614.2239-.5.5-.5z"/><path clip-rule="evenodd" d="m16.5547 4c2.3946.00018 4.5927 2.28336 5.5019 5.06543.6976 2.13447.8844 3.50237.9434 6.50777l-.0088.2696c-.1305 2.7416-1.4053 4.1431-3.6631 4.1572l-.2656-.0088c-1.2149-.0748-2.1066-.6197-2.9229-1.5625l-.1738-.208c-.7704-.9544-1.9658-2.2207-3.9658-2.2207s-3.19548 1.2662-3.96582 2.2207l-.17383.208c-.87462 1.0102-1.83709 1.5636-3.20019 1.5713-2.31942-.0146-3.60191-1.5081-3.66016-4.4619.05161-2.5997.20031-3.9717.7041-5.70412l.23828-.76855c.90932-2.78218 3.10823-5.06543 5.50293-5.06543 1.54779.00001 3.05119 1 4.55469 1 1.5034 0 3.0069-1 4.5547-1zm0 1.5c-.4914 0-1.0233.1604-1.8242.4248-.7037.23233-1.6932.5752-2.7305.5752s-2.02676-.34287-2.73047-.5752c-.7008-.23135-1.19584-.38275-1.63769-.41699l-.18653-.00781c-.70688 0-1.50263.33984-2.27246 1.07422-.76595.73081-1.41913 1.77735-1.80469 2.95703-.63436 1.94105-.80929 3.14885-.86718 5.99905.02837 1.2819.31978 2.0021.63574 2.3828.27519.3315.71204.5793 1.52539.5859.88364-.0074 1.48803-.3324 2.20508-1.2207l.34277-.4101c.88845-1.0166 2.40118-2.3682 4.79004-2.3682 2.7299 0 4.3153 1.7655 5.1328 2.7783l.2656.3086c.6086.6577 1.1662.9054 1.9268.9121.8225-.0064 1.2648-.2559 1.541-.5859.3152-.3767.6036-1.0874.6318-2.3486-.0579-2.885-.2329-4.0925-.8671-6.03325-.3856-1.17973-1.038-2.22625-1.8038-2.95703-.7696-.7345-1.5655-1.07413-2.2724-1.07422z" fill-rule="evenodd"/></g></svg>