<svg fill="none" height="16" viewBox="0 0 16 16" width="16" xmlns="http://www.w3.org/2000/svg"><g fill="#00a008"><path d="m9.46968 4.28038c.29289.29289.76772.29288 1.06062-.00001.2929-.2929.2929-.76777 0-1.06066l-1.92927-1.92925c-.33194-.331941-.87012-.33194-1.20206 0l-1.92929 1.92924c-.2929.29289-.29291.76777-.00002 1.06066.29289.2929.76777.29291 1.06066.00002l.71968-.71966v4.68932c0 .41421.33579.75.75.75s.75-.33579.75-.75v-4.68932z"/><path d="m2.30378 5.92984c.44086-.55904 1.19622-.14057 1.19622.57139 0 .21642-.08063.42263-.19042.60914-.19674.33424-.30958.72379-.30958 1.13969v2.50004c0 1.2426 1.00736 2.25 2.25 2.25h5.5c1.2426 0 2.25-1.0074 2.25-2.25v-2.50004c0-.4159-.1128-.80545-.3096-1.13969-.1098-.18651-.1904-.39272-.1904-.60914 0-.71196.7554-1.13043 1.1962-.57139.5034.63832.8038 1.44419.8038 2.32022v2.50004c0 2.071-1.6789 3.75-3.75 3.75h-5.5c-2.07107 0-3.75-1.679-3.75-3.75v-2.50004c0-.87603.30039-1.6819.80378-2.32022z"/></g></svg>