<svg fill="none" height="20" viewBox="0 0 20 20" width="20" xmlns="http://www.w3.org/2000/svg"><g fill="#00a008"><path d="m6.46967 4.21971c-.29289.29289-.2929.76776 0 1.06066.29289.29289.76776.2929 1.06066.00001l1.71967-1.71966v7.68928c0 .4143.33579.75.75.75.4142 0 .75-.3357.75-.75v-7.68927l1.7197 1.71964c.2929.2929.7677.29289 1.0606 0 .2929-.2929.2929-.76777 0-1.06066l-2.9293-2.92925c-.3319-.331943-.87009-.331939-1.20204 0z"/><path d="m3.96109 6.78417c.47064-.32218 1.03891.07022 1.03891.64057 0 .295-.16317.56086-.392.74704-.67609.55007-1.108 1.38874-1.108 2.32832v3c0 1.6569 1.34315 3 3 3h7c1.6569 0 3-1.3431 3-3v-3c0-.93958-.4319-1.77825-1.108-2.32832-.2288-.18618-.392-.45204-.392-.74704 0-.57035.5683-.96275 1.0389-.64057 1.1841.81063 1.9611 2.17252 1.9611 3.71593v3c0 2.4853-2.0147 4.5-4.5 4.5h-7c-2.48528 0-4.5-2.0147-4.5-4.5v-3c0-1.54341.77697-2.9053 1.96109-3.71593z"/></g></svg>