<svg fill="none" height="24" viewBox="0 0 24 24" width="24" xmlns="http://www.w3.org/2000/svg"><g fill="#00a008"><path d="m7.96967 5.71971c-.29289.29289-.2929.76776 0 1.06065.29289.2929.76776.2929 1.06066.00001l2.21967-2.21964v8.68927c0 .4143.3358.75.75.75s.75-.3357.75-.75v-8.68927l2.2197 2.21964c.2929.29289.7677.29289 1.0606-.00001.2929-.29289.2929-.76776 0-1.06065l-3.4293-3.42925c-.3319-.33194-.8701-.33194-1.202 0z"/><path d="m4.96103 7.78411c.47064-.32218 1.03891.07022 1.03891.64056 0 .29501-.16317.56086-.392.74704-.6761.55008-1.108 1.38879-1.108 2.32829v5c0 1.6569 1.34314 3 3 3h8.99996c1.6569 0 3-1.3431 3-3v-5c0-.9395-.4319-1.77821-1.108-2.32829-.2288-.18618-.392-.45203-.392-.74704 0-.57034.5683-.96274 1.0389-.64056 1.1842.81062 1.9611 2.17252 1.9611 3.71589v5c0 2.4853-2.0147 4.5-4.5 4.5h-8.99996c-2.48528 0-4.5-2.0147-4.5-4.5v-5c0-1.54337.77697-2.90527 1.96109-3.71589z"/></g></svg>