<svg fill="none" height="16" viewBox="0 0 16 16" width="16" xmlns="http://www.w3.org/2000/svg"><g fill="#00a008"><path clip-rule="evenodd" d="m14.0447 7.97433c1.3684-.21559 1.9917-1.99107.9575-3.02535l-3.961-3.960985c-1.0364-1.0363763-2.8084-.40846-3.01705.965785l-.96089-.960891c-.29166-.291665-.76455-.291665-1.05621 0-.29167.291661-.29167.764551 0 1.056211l7.93855 7.93851c.2916.29169.7645.29169 1.0562 0 .2916-.29167.2916-.76455 0-1.05621zm-4.5522-4.5522c.00756-.05554.01141-.11182.01141-.1685v-1.0282c0-.22272.31911-.33427.4766-.17677l3.96099 3.96098c.1575.15749.0459.48633-.1768.48633h-1.0397c-.0503 0-.1002.00303-.1497.00899z" fill-rule="evenodd"/><path d="m4.71389 4.49626c-1.73783 0-2.6076 2.10159-1.37803 3.32969l1.9827 1.98031-3.33059 3.33054c-.23787.2379-.23787.6236 0 .8615.23788.2378.62354.2378.86141 0l3.33111-3.3312 1.98537 1.983c1.22877 1.2273 3.32804.357 3.32804-1.3797v-1.72579l-1.4939-1.54467s-.00611.90378-.00611 1.21699v2.05347c0 .4008-.48445.6016-.76801.3184l-4.83-4.82415c-.28374-.28341-.08303-.76839.31801-.76839h2.05758c.31363 0 .72853.00368 1.22853.00368l-1.55446-1.50368z"/></g></svg>