<svg fill="none" height="20" viewBox="0 0 20 20" width="20" xmlns="http://www.w3.org/2000/svg"><g fill="#00a008"><path clip-rule="evenodd" d="m7.05588.98317c-.29136-.291362-.76376-.291362-1.05512 0-.29136.29136-.29136.76375 0 1.05511l11.95864 11.95862c.2914.2914.7638.2914 1.0551 0 .2914-.2913.2914-.7637 0-1.0551l-2.9418-2.94182h.9782c1.7373 0 2.6073-2.21461 1.3789-3.44305l-4.9831-4.98311c-1.2284-1.228435-3.4467-.35841-3.4467 1.37885v.97462zm4.13922 4.13922 3.6782 3.67824c.2875-.19455.6287-.30065.9808-.30065h1.1968c.401 0 .6017-.59891.3182-.88239l-4.9831-4.98311c-.2835-.28349-.886-.08272-.886.31819v1.1827c0 .35463-.1076.69821-.3049.98702z" fill-rule="evenodd"/><path d="m5.88709 5.99712c-2.00519 0-3.00878 2.42491-1.59004 3.84194l2.40051 2.39764-4.70643 4.7064c-.29286.2929-.29286.7677 0 1.0605.29286.2929.76769.2929 1.06055 0l4.70706-4.707 2.40776 2.4048c1.4178 1.4161 3.84.4119 3.84-1.5919v-1.9491l-1.5065-1.1605s.0065.5103.0065.8367v2.2729c0 .6679-.8074 1.0026-1.28.5306l-5.86943-5.86234c-.47291-.47234-.13838-1.28064.53002-1.28064l2.26218-.00001c.33077 0 .85073.00283.85073.00283l-1.15674-1.50283z"/></g></svg>