<svg fill="none" height="24" viewBox="0 0 24 24" width="24" xmlns="http://www.w3.org/2000/svg"><g fill="#00a008"><path clip-rule="evenodd" d="m7.06789 4.00899c-.29367-.29367-.29367-.76979 0-1.06345.29366-.29366.76978-.29366 1.06344 0l3.18017 3.18012.1243-.13811c.0413-.04591.0642-.10549.0642-.16727v-1.44966c0-1.91482 2.3145-2.87436 3.6694-1.52121l5.9867 5.97948c1.3557 1.35401.3968 3.67111-1.5193 3.67121h-1.4589c-.062 0-.1218.0231-.1677.0646l-.1363.1234 3.179 3.179c.2936.2936.2936.7698 0 1.0634-.2937.2937-.7698.2937-1.0635 0zm5.30571 3.17879.177-.19659c.2893-.32137.4494-.73848.4494-1.17091v-1.44966c0-.5789.6997-.86899 1.1093-.4599l5.9868 5.97947c.4099.40941.12 1.10991-.4593 1.10991h-1.4589c-.4339 0-.8524.1612-1.1741.4524l-.1919.1736z" fill-rule="evenodd"/><path d="m6.73381 8.00547c-2.22799 0-3.34308 2.69433-1.7667 4.26883l2.84797 2.8445-4.81479 4.8148c-.29335.2934-.29335.769 0 1.0624.29335.2933.76896.2933 1.06231 0l4.81544-4.8155 2.86296 2.8595c1.5753 1.5735 4.2667.4577 4.2667-1.7688v-2.2052l-1.5077-1.5659s.0077.7245.0077.9874v2.7837c0 .8906-1.0766 1.3369-1.7067.7075l-6.77387-6.7657c-.63055-.6298-.18452-1.70753.70668-1.70753h2.77393c.26755 0 .49226-.00535.99226-.00535l-1.55288-1.49465z"/></g></svg>