<svg fill="none" height="16" viewBox="0 0 16 16" width="16" xmlns="http://www.w3.org/2000/svg"><g clip-rule="evenodd" fill="#00a008" fill-rule="evenodd"><path d="m3.45 1.5c-1.07696 0-1.95.87304-1.95 1.95v1.6c0 1.07696.87304 1.95 1.95 1.95h9.1c1.077 0 1.95-.87304 1.95-1.95v-1.6c0-1.07696-.873-1.95-1.95-1.95zm-.45 1.95c0-.24853.20147-.45.45-.45h9.1c.2485 0 .45.20147.45.45v1.6c0 .24853-.2015.45-.45.45h-9.1c-.24853 0-.45-.20147-.45-.45z"/><path d="m3.45 9c-1.07696 0-1.95.87304-1.95 1.95v1.6c0 1.077.87304 1.95 1.95 1.95h9.1c1.077 0 1.95-.873 1.95-1.95v-1.6c0-1.07696-.873-1.95-1.95-1.95zm-.45 1.95c0-.2485.20147-.45.45-.45h9.1c.2485 0 .45.2015.45.45v1.6c0 .2485-.2015.45-.45.45h-9.1c-.24853 0-.45-.2015-.45-.45z"/></g></svg>