<svg fill="none" height="24" viewBox="0 0 24 24" width="24" xmlns="http://www.w3.org/2000/svg"><g clip-rule="evenodd" fill="#00a008" fill-rule="evenodd"><path d="m5.25 2.5c-1.51878 0-2.75 1.23122-2.75 2.75v3c0 1.51878 1.23122 2.75 2.75 2.75h13.5c1.5188 0 2.75-1.23122 2.75-2.75v-3c0-1.51878-1.2312-2.75-2.75-2.75zm-1.25 2.75c0-.69036.55964-1.25 1.25-1.25h13.5c.6904 0 1.25.55964 1.25 1.25v3c0 .69036-.5596 1.25-1.25 1.25h-13.5c-.69036 0-1.25-.55964-1.25-1.25z"/><path d="m5.25 13c-1.51878 0-2.75 1.2312-2.75 2.75v3c0 1.5188 1.23122 2.75 2.75 2.75h13.5c1.5188 0 2.75-1.2312 2.75-2.75v-3c0-1.5188-1.2312-2.75-2.75-2.75zm-1.25 2.75c0-.6904.55964-1.25 1.25-1.25h13.5c.6904 0 1.25.5596 1.25 1.25v3c0 .6904-.5596 1.25-1.25 1.25h-13.5c-.69036 0-1.25-.5596-1.25-1.25z"/></g></svg>