<svg fill="none" height="16" viewBox="0 0 16 16" width="16" xmlns="http://www.w3.org/2000/svg"><g fill="#00a008"><path clip-rule="evenodd" d="m2.00017 4.5c0-1.933 1.567-3.5 3.5-3.5h4.58583c.4641 0 .9092.18437 1.2374.51256l2.1642 2.16422c.3282.32818.5126.7733.5126 1.23743v6.58579c0 1.933-1.567 3.5-3.5 3.5h-2.75003c-.41422 0-.75-.3358-.75-.75s.33578-.75.75-.75h2.75003c1.1045 0 2-.8954 2-2v-4.5h-2.25c-.96653 0-1.75003-.7835-1.75003-1.75v-2.75h-3c-1.10457 0-2 .89543-2 2v1.75c0 .41421-.33579.75-.75.75-.41422 0-.75-.33579-.75-.75zm8.00003-2v2.75c0 .13807.1119.25.25.25h2.25v-.58579c0-.0663-.0264-.12989-.0733-.17677l-2.1642-2.16422c-.0469-.04688-.1104-.07322-.1767-.07322z" fill-rule="evenodd"/><path d="m4.50017 8c-.41422 0-.75.33579-.75.75v1h-1c-.41422 0-.75.3358-.75.75s.33578.75.75.75h1v1c0 .4142.33578.75.75.75.41421 0 .75-.3358.75-.75v-1h1c.41421 0 .75-.3358.75-.75s-.33579-.75-.75-.75h-1v-1c0-.41421-.33579-.75-.75-.75z"/></g></svg>