<svg fill="none" height="20" viewBox="0 0 20 20" width="20" xmlns="http://www.w3.org/2000/svg"><g fill="#00a008"><path clip-rule="evenodd" d="m17 6.91421v7.58579c0 1.933-1.567 3.5-3.5 3.5h-3.75c-.41421 0-.75-.3358-.75-.75s.33579-.75.75-.75h3.75c1.1046 0 2-.8954 2-2v-6h-2.25c-1.2426 0-2.25-1.00736-2.25-2.25v-2.75h-4.5c-1.10457 0-2 .89543-2 2v3.75c0 .41421-.33579.75-.75.75s-.75-.33579-.75-.75v-3.75c0-1.933 1.567-3.5 3.5-3.5h5.5858c.4641 0 .9092.18437 1.2374.51256l3.1642 3.16422c.3282.32818.5126.7733.5126 1.23743zm-1.5.08579h-2.25c-.4142 0-.75-.33579-.75-.75v-2.43934l2.9268 2.92678c.0469.04688.0732.11047.0732.17677z" fill-rule="evenodd"/><path d="m6.5 11c.41421 0 .75.3358.75.75v1h1c.41421 0 .75.3358.75.75s-.33579.75-.75.75h-1v1c0 .4142-.33579.75-.75.75s-.75-.3358-.75-.75v-1h-1c-.41421 0-.75-.3358-.75-.75s.33579-.75.75-.75h1v-1c0-.4142.33579-.75.75-.75z"/></g></svg>