<svg fill="none" height="16" viewBox="0 0 16 16" width="16" xmlns="http://www.w3.org/2000/svg"><path clip-rule="evenodd" d="m4.75 2c-2.07107 0-3.75 1.67893-3.75 3.75v4.5c0 2.0711 1.67893 3.75 3.75 3.75h6.5c2.0711 0 3.75-1.6789 3.75-3.75v-4.5c0-2.07107-1.6789-3.75-3.75-3.75zm-1.08748 1.77978c.32233-.17829.69305-.27978 1.08748-.27978h6.5c.3944 0 .7652.10149 1.0875.27978l-3.26008 1.77822c-.67158.36632-1.48326.36632-2.15484 0zm-1.01111 1.15712c-.09778.25219-.15141.52638-.15141.8131v4.5c0 1.2426 1.00736 2.25 2.25 2.25h6.5c1.2426 0 2.25-1.0074 2.25-2.25v-4.5c0-.28672-.0536-.56091-.1514-.8131l-3.5529 1.93795c-1.11929.61052-2.4721.61052-3.5914 0z" fill="#00a008" fill-rule="evenodd"/></svg>