<svg fill="none" height="20" viewBox="0 0 20 20" width="20" xmlns="http://www.w3.org/2000/svg"><path clip-rule="evenodd" d="m5.75 3c-2.34721 0-4.25 1.90279-4.25 4.25v5.5c0 2.3472 1.90279 4.25 4.25 4.25h8.5c2.3472 0 4.25-1.9028 4.25-4.25v-5.5c0-2.34721-1.9028-4.25-4.25-4.25zm-1.42143 1.89537c.4148-.25094.90125-.39537 1.42143-.39537h8.5c.5202 0 1.0066.14443 1.4214.39537l-4.5551 2.60292c-.6917.39527-1.54089.39527-2.23261 0zm-1.04248 1.13193c-.18312.3683-.28609.78347-.28609 1.2227v5.5c0 1.5188 1.23122 2.75 2.75 2.75h8.5c1.5188 0 2.75-1.2312 2.75-2.75v-5.5c0-.43923-.103-.8544-.2861-1.2227l-4.8534 2.77336c-1.1529.65878-2.56815.65878-3.72102 0z" fill="#00a008" fill-rule="evenodd"/></svg>