<svg fill="none" height="24" viewBox="0 0 24 24" width="24" xmlns="http://www.w3.org/2000/svg"><path clip-rule="evenodd" d="m6.5 3.5c-2.76142 0-5 2.23858-5 5v7c0 2.7614 2.23858 5 5 5h11c2.7614 0 5-2.2386 5-5v-7c0-2.76142-2.2386-5-5-5zm-2.26253 2.32952c.61012-.51743 1.39988-.82952 2.26253-.82952h11c.8626 0 1.6524.31209 2.2625.82952l-6.6698 3.70546c-.6796.37753-1.5058.37753-2.1854 0zm-.91741 1.20626c-.20545.44547-.32006.94146-.32006 1.46422v7c0 1.933 1.567 3.5 3.5 3.5h11c1.933 0 3.5-1.567 3.5-3.5v-7c0-.52276-.1146-1.01875-.3201-1.46422l-6.8587 3.81042c-1.1326.6292-2.5098.6292-3.6424 0z" fill="#00a008" fill-rule="evenodd"/></svg>