<svg fill="none" height="24" viewBox="0 0 24 24" width="24" xmlns="http://www.w3.org/2000/svg"><rect fill="#fff" height="16" rx="3" width="20" x="2" y="4"/><path d="m2 15h20v2c0 1.6569-1.3431 3-3 3h-14c-1.65685 0-3-1.3431-3-3z" fill="#72abe1"/><path d="m22 9h-20v-2c0-1.65686 1.34315-3 3-3h14c1.6569 0 3 1.34315 3 3z" fill="#72abe1"/><path clip-rule="evenodd" d="m19 5h-14c-1.10457 0-2 .89543-2 2v10c0 1.1046.89543 2 2 2h14c1.1046 0 2-.8954 2-2v-10c0-1.10457-.8954-2-2-2zm-14-1c-1.65685 0-3 1.34315-3 3v10c0 1.6569 1.34315 3 3 3h14c1.6569 0 3-1.3431 3-3v-10c0-1.65685-1.3431-3-3-3z" fill="#1d1f26" fill-opacity=".2" fill-rule="evenodd"/><circle cx="12" cy="12" fill="#f8b500" r="2"/></svg>