<svg fill="none" height="16" viewBox="0 0 16 16" width="16" xmlns="http://www.w3.org/2000/svg"><path d="m6.03301 3.09671c.32958-.29427.35821-.79999.06394-1.12956-.29426-.32958-.79999-.35821-1.12956-.06394l-2.71646 2.42541c-.40078.35783-.40078.98484 0 1.34268l2.71646 2.42541c.32957.29426.8353.26564 1.12956-.06394.29427-.32957.26564-.8353-.06394-1.12956l-1.23569-1.1033h5.45268c1.7673 0 3.2 1.43269 3.2 3.2 0 1.76729-1.4327 3.19999-3.2 3.19999h-5.24999v1.6h5.24999c2.651 0 4.8-2.149 4.8-4.79999 0-2.65097-2.149-4.8-4.8-4.8h-5.45257z" fill="#00a008"/></svg>