<svg fill="none" height="20" viewBox="0 0 20 20" width="20" xmlns="http://www.w3.org/2000/svg"><path d="m7.54261 3.58783c.32467-.29966.34495-.80579.04528-1.13046-.29966-.32468-.80578-.34495-1.13046-.04529l-3.17077 2.92652c-.38612.35637-.38612.96634 0 1.32271l3.17077 2.92652c.32468.29966.8308.27939 1.13046-.04529.29967-.32467.27939-.8308-.04528-1.13046l-1.74673-1.61217h6.45372c2.3196 0 4.2 1.8804 4.2 4.19999 0 2.3196-1.8804 4.2-4.2 4.2h-5.44997c-.44183 0-.8.3582-.8.8s.35817.8.8.8h5.44997c3.2033 0 5.8-2.5967 5.8-5.8 0-3.20325-2.5967-5.79999-5.8-5.79999h-6.45362z" fill="#00a008"/></svg>