<svg fill="none" height="24" viewBox="0 0 24 24" width="24" xmlns="http://www.w3.org/2000/svg"><path d="m6.95768 2.91152c.32498-.29933.83109-.27853 1.13041.04645.29933.32499.27853.83109-.04645 1.13042l-2.2925 2.11152h9.50056c3.7555 0 6.8 3.04446 6.8 6.79999 0 3.7555-3.0445 6.8-6.8 6.8h-9.25004v-1.6h9.25004c2.8718 0 5.2-2.3281 5.2-5.2s-2.3282-5.19999-5.2-5.19999h-9.50067l2.29261 2.11161c.32498.29928.34578.80548.04645 1.13038-.29932.325-.80543.3458-1.13041.0465l-3.72014-3.42645c-.38703-.35648-.38703-.96751 0-1.32399z" fill="#00a008"/></svg>