<svg fill="none" height="16" viewBox="0 0 16 16" width="16" xmlns="http://www.w3.org/2000/svg" xmlns:xlink="http://www.w3.org/1999/xlink"><clipPath id="a"><path d="m0 0h16v16h-16z"/></clipPath><g clip-path="url(#a)" fill="#00a008"><path clip-rule="evenodd" d="m1.99029.928898c-.29289-.292893-.76777-.292893-1.060659 0-.292894.292892-.292893.767772 0 1.060662l13.081469 13.08144c.2929.2929.7678.2929 1.0607 0s.2929-.7677 0-1.0606l-1.2903-1.2903c.1413-.3799.2185-.791.2185-1.2202v-6.5878c0-.46413-.1844-.90925-.5126-1.23744l-2.1621-2.16215c-.3282-.32819-.7733-.512562-1.2374-.512562h-4.5879c-.9509 0-1.81323.379202-2.44401.994642zm2.1265 2.126492 8.38321 8.38321v-4.43865h-2.25c-.9665 0-1.75-.7835-1.75-1.75v-2.75h-3c-.53668 0-1.02399.21139-1.38321.55544zm5.88321-.55544v2.75c0 .13807.1119.25.25.25h2.25v-.58785c0-.06631-.0263-.1299-.0732-.17678l-2.1622-2.16215c-.0469-.04688-.1104-.07322-.1767-.07322z" fill-rule="evenodd"/><path d="m11.1706 14.2305c.2575.2575.1577.6904-.2033.7385-.1529.0204-.3089.0309-.4673.0309h-5c-1.933 0-3.5-1.567-3.5-3.5v-5.23287c0-.44545.53857-.66853.85355-.35355l.5.5c.09377.09377.14645.22095.14645.35355v4.73287c0 1.1046.89543 2 2 2h4.7329c.1326 0 .2598.0527.3536.1465z"/><path d="m6.57829 9.63821c-.05542-.05541-.13942-.07538-.20702-.03575-.22212.1302-.37127.37143-.37127.64744 0 .4143.33579.75.75.75h.70718c.17818 0 .26741-.2154.14142-.3414z"/></g></svg>