<svg fill="none" height="20" viewBox="0 0 20 20" width="20" xmlns="http://www.w3.org/2000/svg"><g fill="#00a008"><path clip-rule="evenodd" d="m16.7811 15.7207c.1415-.3801.2188-.7914.2188-1.2207v-7.58372c0-.46413-.1844-.90925-.5126-1.23744l-3.1663-3.16628c-.3281-.32819-.7733-.51256-1.2374-.51256h-5.58371c-.95109 0-1.81358.37936-2.4444.99502l-.77321-.77321c-.29289-.2929-.76776-.2929-1.06066 0-.29289.29289-.29289.76776 0 1.06066l14.49568 14.49573c.2929.2928.7678.2928 1.0607 0 .2929-.2929.2929-.7678 0-1.0607zm-4.2812-11.90797v2.43727c0 .41421.3358.75.75.75h2.25v-.08372c0-.0663-.0264-.12989-.0732-.17678zm3 4.68727h-2.25c-1.2427 0-2.25-1.00736-2.25-2.25v-2.75h-4.50001c-.53688 0-1.02434.21154-1.3836.55581l5.94421 5.94419h1.1894c.4142 0 .75.3358.75.75 0 .3216-.2025.596-.4869.7025l2.9869 2.9869z" fill-rule="evenodd"/><path d="m4.35344 7.41428c.09377.09377.14645.22095.14645.35356v6.73216c0 1.1046.89543 2 2 2h6.73221c.1326 0 .2597.0527.3535.1464l.5843.5843c.2575.2575.1576.6904-.2034.7385-.1527.0203-.3084.0308-.4666.0308h-7.00001c-1.933 0-3.5-1.567-3.5-3.5v-7.23216c0-.44546.53857-.66854.85355-.35356z"/><path d="m7.33977 10.4006c-.08127-.0813-.21709-.0777-.26673.0259-.04689.098-.07315.2077-.07315.3235 0 .4142.33578.75.75.75h.20642c.17818 0 .26742-.2154.14142-.3414z"/><path d="m10.527 13.5879c-.0562-.0563-.1325-.0879-.2121-.0879h-2.56501c-.41422 0-.75.3358-.75.75s.33578.75.75.75h3.46501c.2673 0 .4011-.3231.2121-.5121z"/></g></svg>