<svg fill="none" height="24" viewBox="0 0 24 24" width="24" xmlns="http://www.w3.org/2000/svg"><g fill="#00a008"><path clip-rule="evenodd" d="m20 7.91421c0-.46413-.1844-.90924-.5126-1.23743l-4.1642-4.16422c-.3282-.32819-.7733-.51256-1.2374-.51256h-5.8358c-1.41328 0-2.66544.68983-3.43814 1.75115l-.94352-.94353c-.2929-.29289-.76777-.29289-1.06066 0-.2929.29289-.2929.76777-.00001 1.06066l17.32413 17.32412c.2929.2929.7678.2929 1.0607 0 .2928-.2929.2928-.7678 0-1.0607l-1.3249-1.3249c.0864-.3378.1324-.692.1324-1.0568zm-1.5 9.52509v-7.9393h-2.75c-1.5188 0-2.75-1.23122-2.75-2.75v-3.25h-4.75c-1.00019 0-1.87566.53396-2.35692 1.33237l7.16762 7.16763h2.1893c.4142 0 .75.3358.75.75s-.3358.75-.75.75h-.6893zm-4-13.62864v2.93934c0 .69036.5596 1.25 1.25 1.25h2.75v-.08579c0-.0663-.0263-.12989-.0732-.17677z" fill-rule="evenodd"/><path d="m4.68284 7.74345c-.25198-.25198-.68284-.07352-.68284.28284v9.72371c0 2.3472 1.90279 4.25 4.25 4.25h7.5c.7318 0 1.4205-.185 2.0217-.5107.2189-.1187.2446-.4124.0686-.5884l-.5354-.5354c-.1266-.1266-.3208-.1507-.4858-.0811-.3286.1388-.6899.2156-1.0691.2156h-7.5c-1.51878 0-2.75-1.2312-2.75-2.75v-9.02371c0-.10608-.04214-.20782-.11716-.28284z"/><path d="m13.1151 16.1757c-.1125-.1125-.2651-.1757-.4242-.1757h-3.9409c-.41421 0-.75.3358-.75.75s.33579.75.75.75h4.7237c.3564 0 .5348-.4309.2828-.6828z"/><path d="m9.00969 12.0703c-.04501-.045-.10606-.0703-.16971-.0703h-.08998c-.41421 0-.75.3358-.75.75s.33579.75.75.75h1.10998c.21382 0 .32092-.2585.16972-.4097z"/></g></svg>