<svg fill="none" height="16" viewBox="0 0 16 16" width="16" xmlns="http://www.w3.org/2000/svg"><g fill="#00a008"><path d="m5 1c.41421 0 .75.33579.75.75s-.33579.75-.75.75h-.5c-1.10457 0-2 .89543-2 2v5c0 .7956.46437 1.4859 1.14355 1.8086l.57129.2705c.1743.0828.28516.2592.28516.4521v1.4688l3.2334-1.9297c.07734-.0461.16582-.0703.25586-.0703h3.26074c.5711 0 1.0912-.212 1.4883-.5625.3105-.2739.7845-.2441 1.0586.0664.2739.3106.244.7846-.0664 1.0586-.6606.583-1.5301.9375-2.4805.9375h-3l-3.00586 1.8027c-.99995.5712-2.24414-.151-2.24414-1.3027v-.8369c-1.18245-.5618-2-1.7669-2-3.1631v-5c0-1.933 1.567-3.5 3.5-3.5z"/><path d="m11.2373 3c.4212.00001.7627.34147.7627.7627v.96582c0 .55455-.285 1.08928-.7881 1.38476l-.6387.38672c-.3603.21812-.82969.10255-1.04781-.25781-.21796-.36033-.10247-.82879.25781-1.04688l.6563-.39746c.0178-.01055.0351-.03347.0351-.06933v-.96582c0-.42123.3415-.7627.7627-.7627z"/><path clip-rule="evenodd" d="m11 0c2.7614 0 5 2.23858 5 5 0 2.76143-2.2386 5-5 5-2.76142 0-5-2.23857-5-5 0-2.76142 2.23858-5 5-5zm0 1.52539c-1.91895 0-3.47461 1.55566-3.47461 3.47461 0 1.91896 1.55566 3.47461 3.47461 3.47461 1.919 0 3.4746-1.55565 3.4746-3.47461 0-1.91895-1.5556-3.47461-3.4746-3.47461z" fill-rule="evenodd"/></g></svg>