<svg fill="none" height="20" viewBox="0 0 20 20" width="20" xmlns="http://www.w3.org/2000/svg"><g fill="#00a008"><path d="m14.2373 4c.4212 0 .7627.34148.7627.76271v.96611c0 .55455-.2849 1.08886-.788 1.38434l-.6391.3868c-.3604.21811-.8293.1028-1.0474-.25757-.2181-.36036-.1028-.82932.2575-1.04743l.656-.39703c.018-.01045.0356-.03299.0356-.06911v-.96611c0-.42123.3415-.76271.7627-.76271z"/><path clip-rule="evenodd" d="m14 1c-2.7614 0-5 2.23858-5 5 0 2.76143 2.2386 5 5 5s5-2.23857 5-5c0-2.76142-2.2386-5-5-5zm-3.4746 5c0-1.91895 1.5556-3.47458 3.4746-3.47458s3.4746 1.55563 3.4746 3.47458c0 1.91896-1.5556 3.47458-3.4746 3.47458s-3.4746-1.55562-3.4746-3.47458z" fill-rule="evenodd"/><path d="m7.25 2c.41421 0 .75.33579.75.75s-.33579.75-.75.75h-1.25c-1.38071 0-2.5 1.11929-2.5 2.5v6c0 1.1628.7953 2.1437 1.87389 2.4213l.75074.1933c.22094.0568.37537.256.37537.4842v2.4012l3.3417-2.7699c.1794-.1487.4051-.2301.6382-.2301h3.5201c1.1235 0 2.0738-.7411 2.389-1.761.1223-.3958.4468-.739.861-.739s.7573.3389.6806.7459c-.3495 1.8527-1.9764 3.2541-3.9306 3.2541h-3.4l-3.22814 2.7206c-.99281.7091-2.37186-.0005-2.37186-1.2206v-1.626c-1.72523-.4441-3-2.0102-3-3.874v-6c0-2.20914 1.79086-4 4-4z"/></g></svg>