<svg fill="none" height="24" viewBox="0 0 24 24" width="24" xmlns="http://www.w3.org/2000/svg"><g fill="#00a008"><path d="m11 2.5c.4142 0 .75.33579.75.75s-.3358.75-.75.75h-4c-1.65685 0-3 1.34315-3 3v7c0 1.6569 1.34315 3 3 3h.5c.55228 0 1 .4477 1 1v2.5l4.0586-3.3135c.1696-.1211.3727-.1865.581-.1865h3.8604c1.6569 0 3-1.3431 3-3v-1c0-.4142.3358-.75.75-.75s.75.3358.75.75v1c0 2.4853-2.0147 4.5-4.5 4.5h-3.7002l-3.92773 3.2207c-.9928.7091-2.37207-.0006-2.37207-1.2207v-2c-2.48528 0-4.5-2.0147-4.5-4.5v-7c0-2.48528 2.01472-4.5 4.5-4.5z"/><path d="m18.2373 4c.4212.00001.7627.34147.7627.7627v.96582c0 .55455-.285 1.08928-.7881 1.38476l-.6387.38672c-.3603.21812-.8297.10255-1.0478-.25781-.218-.36033-.1025-.82879.2578-1.04688l.6563-.39746c.0178-.01055.0351-.03347.0351-.06933v-.96582c0-.42123.3415-.7627.7627-.7627z"/><path clip-rule="evenodd" d="m18 1c2.7614 0 5 2.23858 5 5 0 2.76143-2.2386 5-5 5s-5-2.23857-5-5c0-2.76142 2.2386-5 5-5zm0 1.52539c-1.919 0-3.4746 1.55566-3.4746 3.47461 0 1.91896 1.5556 3.47461 3.4746 3.47461s3.4746-1.55565 3.4746-3.47461c0-1.91895-1.5556-3.47461-3.4746-3.47461z" fill-rule="evenodd"/></g></svg>