<svg fill="none" height="16" viewBox="0 0 16 16" width="16" xmlns="http://www.w3.org/2000/svg"><g fill="#00a008"><path d="m7.27344 9.57102v.12074h1.34588v-.12074c.00237-.232.03196-.42732.08878-.58594.05918-.15861.14796-.29829.26633-.41903.12074-.12074.27462-.23674.46165-.34801.22254-.13258.41548-.28054.57882-.44389.1634-.16572.29-.35512.38-.56818.0923-.21544.1385-.46165.1385-.73864 0-.4143-.103-.76823-.309-1.06179-.2059-.29356-.49002-.51728-.85224-.67116-.36222-.15626-.77888-.23438-1.25-.23438-.4285 0-.82031.07694-1.17543.23082-.35511.15152-.64039.38234-.85582.69248-.21544.30776-.32907.69839-.34091 1.17187h1.44886c.00711-.19413.05445-.3563.14205-.48651.08759-.13257.20005-.232.33736-.29829.13731-.06866.2829-.10298.43679-.10298.15861 0 .30303.03314.43324.09943.13257.06629.23792.16098.31605.28409.07812.12311.11718.26633.11718.42969 0 .15388-.03432.29356-.10298.41903-.06865.12311-.16098.23556-.27699.33736-.116.1018-.24739.20005-.39417.29474-.1965.12311-.36459.26042-.50427.41193-.13967.15152-.24621.35038-.3196.5966-.07102.24621-.10772.57646-.11008.99076z"/><path d="m7.36932 11.7159c.16809.1657.3705.2486.60724.2486.15152 0 .2912-.0379.41904-.1136.12784-.0782.23082-.1812.30895-.309.08049-.1302.12192-.2734.12429-.4297-.00237-.232-.08878-.4309-.25924-.5966-.17045-.1657-.36813-.2486-.59304-.2486-.23674 0-.43915.0829-.60724.2486-.16572.1657-.2474.3646-.24503.5966-.00237.2344.07931.4356.24503.6037z"/><path clip-rule="evenodd" d="m8 1c-3.86599 0-7 3.13401-7 7 0 3.866 3.13401 7 7 7 3.866 0 7-3.134 7-7 0-3.86599-3.134-7-7-7zm-5.5 7c0-3.03757 2.46243-5.5 5.5-5.5 3.0376 0 5.5 2.46243 5.5 5.5 0 3.0376-2.4624 5.5-5.5 5.5-3.03757 0-5.5-2.4624-5.5-5.5z" fill-rule="evenodd"/></g></svg>