<svg fill="none" height="20" viewBox="0 0 20 20" width="20" xmlns="http://www.w3.org/2000/svg"><g fill="#00a008"><path d="m9.7793 12.9746c.276.0001.5152.0987.7168.2959.2047.1972.3065.4347.3066.7119 0 .188-.0483.3596-.1445.5137-.0931.154-.217.2777-.3721.3701-.1519.0892-.32087.1337-.5068.1338-.27924 0-.52-.0987-.72168-.2959-.20171-.1973-.30274-.4381-.30274-.7217.0001-.2772.10113-.5147.30274-.7119.20165-.1971.44251-.2959.72168-.2959z"/><path d="m9.99805 5.2998c.59245.00005 1.11365.10319 1.56345.30958.4531.20651.8053.50158 1.0567.88378.2543.37907.3818.82882.3818 1.34961 0 .35136-.0571.66597-.1719.94336-.1116.27725-.2717.52359-.4795.73926-.2078.2157-.4548.40863-.7402.57811-.2514.1541-.4578.315-.6191.4815-.1582.1664-.276.3619-.3536.5869-.0744.2219-.114.4965-.1171.8232v.0049h-1.5186v-.0049c.0031-.5579.02455-1.0022.12695-1.332.1055-.3298.25489-.5946.44727-.79494.1924-.20343.42698-.39004.70308-.55957.1892-.11706.358-.24518.5069-.38379.152-.14177.2715-.29907.3584-.47168.0868-.17563.1308-.37123.1308-.58691 0-.2435-.058-.45501-.1728-.63379-.1148-.17858-.2696-.31743-.4649-.41601-.1924-.09864-.4085-.14746-.64742-.14746-.22013.00001-.42948.04718-.62793.14257-.1955.09247-.35892.23468-.48926.42578-.12717.18802-.19835.47303-.21386.7627h-1.65723c.01552-.58564.15873-1.12207.42871-1.5166.27301-.3943.63247-.69049 1.0791-.8877.44996-.19726.94718-.2959 1.49024-.2959z"/><path clip-rule="evenodd" d="m10 1.5c4.6944 0 8.5 3.80558 8.5 8.5 0 4.6944-3.8056 8.5-8.5 8.5-4.69442 0-8.5-3.8056-8.5-8.5 0-4.69442 3.80558-8.5 8.5-8.5zm0 1.5c-3.86599 0-7 3.13401-7 7 0 3.866 3.13401 7 7 7 3.866 0 7-3.134 7-7 0-3.86599-3.134-7-7-7z" fill-rule="evenodd"/></g></svg>