<svg fill="none" height="24" viewBox="0 0 24 24" width="24" xmlns="http://www.w3.org/2000/svg"><g fill="#00a008"><path d="m10.7532 14.4631v.1385h1.7738v-.1385c.0035-.3765.0479-.6925.1332-.9482.0887-.2592.2237-.4847.4048-.6765.1846-.1917.4208-.3764.7084-.554.3267-.1953.6091-.4172.847-.6658s.4208-.5327.5486-.8523c.1314-.3196.1971-.6818.1971-1.08661 0-.60014-.1456-1.11861-.4368-1.5554-.2876-.44034-.6907-.77947-1.2091-1.0174-.5149-.23793-1.1115-.35689-1.7898-.35689-.6215 0-1.1896.11364-1.7045.34091-.51141.22727-.92334.56818-1.23584 1.02273-.30895.45454-.4723 1.21164-.49006 1.88636h1.8963c.0178-.33381.0994-.80149.245-1.01811.1492-.22017.3356-.38352.5593-.49006.2273-.11008.467-.16513.7191-.16513.2735 0 .5203.05682.7405.17046.2237.11364.4012.27344.5326.4794.1314.20597.1971.44922.1971.72976 0 .24858-.0497.47408-.1491.67648-.0995.1989-.2362.38-.4102.5433-.1704.1598-.364.3072-.5806.4422-.3161.1953-.5842.4101-.8043.6445-.2202.2308-.3907.5362-.5114.9162-.1172.3799-.1776.8913-.1811 1.5341z"/><path d="m10.8544 17.5845c.2308.2273.506.3409.8256.3409.2131 0 .4066-.0515.5807-.1544.1775-.1066.3196-.2486.4261-.4262.1101-.1775.1651-.3746.1651-.5912 0-.3197-.1172-.5931-.3515-.8204-.2309-.2272-.5043-.3409-.8204-.3409-.3196 0-.5948.1137-.8256.3409-.2308.2273-.3462.5007-.3462.8204 0 .3267.1154.6036.3462.8309z"/><path clip-rule="evenodd" d="m12 2c-5.52285 0-10 4.47715-10 10 0 5.5228 4.47715 10 10 10 5.5228 0 10-4.4772 10-10 0-5.52285-4.4772-10-10-10zm-8.5 10c0-4.69442 3.80558-8.5 8.5-8.5 4.6944 0 8.5 3.80558 8.5 8.5 0 4.6944-3.8056 8.5-8.5 8.5-4.69442 0-8.5-3.8056-8.5-8.5z" fill-rule="evenodd"/></g></svg>