<svg fill="none" height="16" viewBox="0 0 16 16" width="16" xmlns="http://www.w3.org/2000/svg"><path clip-rule="evenodd" d="m13.833 1c.6443 0 1.167.52266 1.167 1.16699v.11719c-.0001 2.68028-1.1529 5.23118-3.1641 7.00293l-.7246.63769v2.5752c0 1.3806-1.11943 2.4998-2.49997 2.5h-1.22266c-1.38059-.0001-2.49995-1.1194-2.5-2.5v-2.5752l-.72461-.63769c-2.01115-1.77175-3.16393-4.32267-3.16406-7.00293v-.11719c0-.6443.5227-1.16695 1.16699-1.16699zm-10.23339 5c.42316.76669.97785 1.46404 1.64941 2.05566l.72364.6377c.35383.31147.55664.76005.55664 1.23144v2.5752c.00004.4745.38484.8593.85937.8594h1.22266c.44492-.0002.81039-.3385.85449-.7715l.00488-.0879v-2.5752c0-.47138.20283-.91998.5566-1.23144l.7237-.6377c.6715-.59161 1.2262-1.28898 1.6494-2.05566zm-.9502-3.35938c.02952.63593.13858 1.26019.31934 1.86036.01037-.00043.02078-.00098.03125-.00098h10c.0101 0 .0202.00058.0303.00098.1808-.60026.2908-1.22432.3203-1.86036z" fill="#00a008" fill-rule="evenodd"/></svg>