<svg fill="none" height="20" viewBox="0 0 20 20" width="20" xmlns="http://www.w3.org/2000/svg"><path clip-rule="evenodd" d="m16.8145 2c.6546 0 1.1855.53095 1.1855 1.18555-.0001 2.44765-.9466 4.80066-2.6416 6.5664l-1.8027 1.87695v3.8711c0 1.3806-1.1194 2.4999-2.5 2.5h-2.11136c-1.38067-.0001-2.5-1.1193-2.5-2.5v-3.8711l-1.80274-1.87695c-1.69508-1.76575-2.64153-4.11872-2.6416-6.5664 0-.65457.53099-1.18549 1.18555-1.18555zm-12.34184 5c.33647.61887.7549 1.19611 1.25097 1.71289l1.80274 1.87691c.26826.2794.41797.6518.41797 1.0391v3.8711c0 .5522.44776.9999 1 1h2.11136c.5523-.0001 1-.448 1-1v-3.8711c0-.3873.1497-.7597.4179-1.0391l1.8028-1.87691.2597-.28418c.3845-.44121.7161-.92087.9922-1.42871zm-.96485-3.5c.02694.68321.14347 1.35452.33887 2h12.30952c.1953-.64525.3091-1.31707.336-2z" fill="#00a008" fill-rule="evenodd"/></svg>