<svg fill="none" height="24" viewBox="0 0 24 24" width="24" xmlns="http://www.w3.org/2000/svg"><path clip-rule="evenodd" d="m19.6865 3c.7254 0 1.3135.58814 1.3135 1.31348 0 2.68827-1.031 5.27402-2.8799 7.22562l-2.1201 2.2382v4.2227c0 1.6568-1.3432 2.9999-3 3h-2c-1.6568-.0001-3-1.3432-3-3v-4.2227l-2.12109-2.2382c-1.84864-1.95156-2.87888-4.53751-2.87891-7.22562 0-.7253.58819-1.31341 1.31348-1.31348zm-14.1533 5.5c.38031.72561.8607 1.40189 1.4336 2.0068l2.12207 2.2383c.26404.2787.41113.6484.41113 1.0322v4.2227c0 .8284.6716 1.4999 1.5 1.5h2c.7767-.0001 1.4154-.5904 1.4922-1.3467l.0078-.1533v-4.2227c0-.3837.1473-.7526.4111-1.0312l2.1201-2.2383c.5735-.60528 1.0549-1.28174 1.4356-2.0078zm-1.02832-4c.01775.85673.15757 1.69947.40918 2.50488.0282-.00321.05688-.00488.08594-.00488h14c.0284 0 .0564.00181.084.00488.2519-.8056.3934-1.64799.4111-2.50488z" fill="#00a008" fill-rule="evenodd"/></svg>