<svg fill="none" height="16" viewBox="0 0 16 16" width="16" xmlns="http://www.w3.org/2000/svg"><g fill="#00a008"><path d="m9.78027 11.5303c-.29289.2929-.76765.2929-1.06054 0l-3-3.00003c-.2929-.29289-.2929-.76765 0-1.06054l3-3c.29289-.2929.76765-.2929 1.06054 0 .29293.29289.29293.76765 0 1.06054l-2.46972 2.46973 2.46972 2.4697c.29293.2929.29293.7677 0 1.0606z"/><path clip-rule="evenodd" d="m8 15c-3.86599 0-7-3.134-7-7 0-3.86599 3.13401-7 7-7 3.866 0 7 3.13401 7 7 0 3.866-3.134 7-7 7zm0-1.5c3.0376 0 5.5-2.4624 5.5-5.5 0-3.03757-2.4624-5.5-5.5-5.5-3.03757 0-5.5 2.46243-5.5 5.5 0 3.0376 2.46243 5.5 5.5 5.5z" fill-rule="evenodd"/></g></svg>