<svg fill="none" height="20" viewBox="0 0 20 20" width="20" xmlns="http://www.w3.org/2000/svg"><g fill="#00a008"><path d="m11.7803 14.0303c-.2929.2929-.7677.2929-1.0606 0l-3.49997-3.5c-.2929-.2929-.2929-.76768 0-1.06057l3.49997-3.5c.2929-.2929.7677-.2929 1.0606 0 .2929.29289.2929.76765 0 1.06054l-2.96975 2.96973 2.96975 2.9697c.2929.2929.2929.7677 0 1.0606z"/><path clip-rule="evenodd" d="m10 18.5c-4.69442 0-8.5-3.8056-8.5-8.5 0-4.69442 3.80558-8.5 8.5-8.5 4.6944 0 8.5 3.80558 8.5 8.5 0 4.6944-3.8056 8.5-8.5 8.5zm0-1.5c3.866 0 7-3.134 7-7 0-3.86599-3.134-7-7-7-3.86599 0-7 3.13401-7 7 0 3.866 3.13401 7 7 7z" fill-rule="evenodd"/></g></svg>