<svg fill="none" height="16" viewBox="0 0 16 16" width="16" xmlns="http://www.w3.org/2000/svg"><g fill="#00a008"><path clip-rule="evenodd" d="m4.00003 4c-1.38071 0-2.5 1.11929-2.5 2.5v3c0 .36091.07648.704.21411 1.0138.15609.3514.39084.6602.68191.9039.00457.0038.00915.0076.01375.0114.26383.2178.57308.3824.91141.4776.21586.0608.44354.0933.67882.0933h7.99997c1.3807 0 2.5-1.1193 2.5-2.5v-3c0-.34969-.0718-.68262-.2014-.98483-.2463-.57409-.7014-1.03737-1.2697-1.29433-.1024-.0463-.2085-.08591-.3177-.11825-.2254-.06676-.4641-.10259-.7112-.10259zm1.31371 1.5h-1.31371c-.55228 0-1 .44772-1 1v1.31371zm1.41421 0-3.72792 3.72792v.27208c0 .35646.18651.6694.46727.8464l4.84644-4.8464zm3 0-5 5h1.58579l4.99996-5zm2.83005.16999-4.83005 4.83001h1.58579l3.68626-3.68629v-.31371c0-.34569-.1754-.65041-.442-.83001zm.442 2.55793-2.272 2.27208h1.272c.5523 0 1-.4477 1-1z" fill-rule="evenodd"/><path d="m11.75 13.5c-.4142 0-.75.3358-.75.75s.3358.75.75.75h.5c.4142 0 .75-.3358.75-.75s-.3358-.75-.75-.75z"/><path d="m9.00003 1.75c0-.41421.33579-.75.75-.75h2.49997c.4142 0 .75.33579.75.75s-.3358.75-.75.75h-2.49997c-.41421 0-.75-.33579-.75-.75z"/><path d="m3.75003 13.5c-.41421 0-.75.3358-.75.75s.33579.75.75.75h5.5c.41421 0 .74997-.3358.74997-.75s-.33575-.75-.74997-.75z"/><path d="m3.75003 1c-.41421 0-.75.33579-.75.75s.33579.75.75.75h2.5c.41421 0 .75-.33579.75-.75s-.33579-.75-.75-.75z"/></g></svg>