<svg fill="none" height="20" viewBox="0 0 20 20" width="20" xmlns="http://www.w3.org/2000/svg"><path d="m19 12c0 1.6569-1.3431 3-3 3h-12c-1.65685 0-3.000001-1.3431-3-3v-4c0-1.65685 1.34315-3 3-3h12c1.6569 0 3 1.34315 3 3zm-15-5.5c-.82843 0-1.5.67157-1.5 1.5v.79297l2.29297-2.29297zm2.20703 0-3.70703 3.707v1.793c0 .2315.05279.4507.14648.6465l6.14649-6.1465zm3.99997 0-6.85348 6.8535c.1958.0937.41493.1465.64648.1465h1.79297l7.00003-7zm-1.207-4.25c0 .41421-.33579.75-.75.75h-2.5c-.41421 0-.75-.33579-.75-.75s.33579-.75.75-.75h2.5c.41421 0 .75.33579.75.75zm3 15.5c0 .4142-.3358.75-.75.75h-5.5c-.41421 0-.75-.3358-.75-.75s.33579-.75.75-.75h5.5c.4142 0 .75.3358.75.75zm4.6465-11.10352c-.1958-.09369-.415-.14648-.6465-.14648h-1.793l-6.99997 7h2.58594zm-1.6465-4.39648c0 .41421-.3358.75-.75.75h-2.5c-.4142 0-.75-.33579-.75-.75s.3358-.75.75-.75h2.5c.4142 0 .75.33579.75.75zm2.5 5.75c0-.23155-.0528-.45068-.1465-.64648l-6.1465 6.14648h2.586l3.707-3.70703zm-2.5 9.75c0 .4142-.3358.75-.75.75h-.5c-.4142 0-.75-.3358-.75-.75s.3358-.75.75-.75h.5c.4142 0 .75.3358.75.75zm.207-4.25h.793c.8284 0 1.5-.6716 1.5-1.5v-.793z" fill="#00a008"/></svg>