<svg fill="none" height="24" viewBox="0 0 24 24" width="24" xmlns="http://www.w3.org/2000/svg"><g fill="#00a008"><path clip-rule="evenodd" d="m4.50021 6c-1.93299 0-3.5 1.567-3.5 3.5v5c0 .4759.09498.9296.26702 1.3432.00266.0064.00533.0128.00803.0192.13273.3138.30992.6042.52367.8633.42993.5212 1.00777.9158 1.66926 1.1197.02451.0075.04912.0148.07386.0218.30451.0865.62593.1328.95816.1328h14.99999c1.933 0 3.5-1.567 3.5-3.5v-5c0-.51949-.1132-1.01254-.3162-1.45585-.0095-.02063-.0191-.04114-.0289-.06154-.1396-.28963-.3178-.55709-.5281-.79568-.4141-.46987-.9522-.82776-1.5633-1.02242-.0075-.00241-.0151-.0048-.0227-.00716-.3288-.10226-.6784-.15735-1.0408-.15735zm1.31371 1.5h-1.31371c-1.10456 0-2 .89543-2 2v1.3137zm1.41422 0-4.72793 4.7279v2.2721c0 .036.00096.0718.00284.1074l7.10738-7.1074zm3.79646 0-8.15637 8.1564c.36239.5105.95829.8436 1.63198.8436h.31335l9.00004-9zm4.2032 0-9.00003 9h2.58627l8.99996-9zm4.0005 0-9 9h2.5856l8.2487-8.24868c-.3665-.45799-.9302-.75132-1.5624-.75132zm2.2557 1.74414-7.2559 7.25586h2.5858l4.6863-4.6863v-2.3137c0-.08669-.0055-.17208-.0162-.25586zm.0162 3.98376-3.2721 3.2721h1.2721c1.1046 0 2-.8954 2-2z" fill-rule="evenodd"/><path d="m16.7502 20.5c-.4142 0-.75.3358-.75.75s.3358.75.75.75h1.5c.4142 0 .75-.3358.75-.75s-.3358-.75-.75-.75z"/><path d="m13.0002 2.75c0-.41421.3358-.75.75-.75h4.5c.4142 0 .75.33579.75.75s-.3358.75-.75.75h-4.5c-.4142 0-.75-.33579-.75-.75z"/><path d="m5.75021 20.5c-.41421 0-.75.3358-.75.75s.33579.75.75.75h7.49999c.4142 0 .75-.3358.75-.75s-.3358-.75-.75-.75z"/><path d="m5.75021 2c-.41421 0-.75.33579-.75.75s.33579.75.75.75h4.49999c.4142 0 .75-.33579.75-.75s-.3358-.75-.75-.75z"/></g></svg>