<svg fill="none" height="16" viewBox="0 0 16 16" width="16" xmlns="http://www.w3.org/2000/svg"><g fill="#00a008"><path d="m12.6715 11.2313c.1483-.3862.5812-.5795.9678-.4316.3865.1481.5804.5821.4326.9687-.1717.4482-.5028.8444-.9785 1.0938l-3.19829 1.6758c-1.18639.6213-2.6026.6212-3.78906 0l-3.19922-1.6758c-.47577-.2494-.80588-.6456-.97754-1.0938-.14798-.3867.04513-.8205.43165-.9687.38656-.1477.82057.0453.96875.4316.04583.1198.13286.228.27343.3018l3.19825 1.6758c.75059.393 1.64687.393 2.39746 0l3.19917-1.6758c.1403-.0738.2277-.1822.2735-.3018z"/><path d="m12.6715 8.23131c.1483-.38621.5812-.57947.9678-.43164.3865.14815.5804.5821.4326.96875-.1717.44817-.5028.8444-.9785 1.09375l-3.19829 1.67583c-1.18639.6213-2.6026.6212-3.78906 0l-3.19922-1.67583c-.47577-.24933-.80588-.6456-.97754-1.09375-.14798-.38668.04513-.82051.43165-.96875.38656-.14765.82057.04529.96875.43164.04583.11975.13286.22803.27343.30176l3.19825 1.67583c.75059.393 1.64687.393 2.39746 0l3.19917-1.67583c.1403-.07372.2277-.18218.2735-.30176z"/><path clip-rule="evenodd" d="m6.10508 1.49498c1.18636-.621322 2.60263-.621154 3.78906 0l3.19826 1.67579c1.4888.77988 1.4889 2.91054 0 3.69043l-3.19826 1.67578c-1.18657.62143-2.60251.62148-3.78906 0l-3.19825-1.67578c-1.48834-.78007-1.48857-2.91058 0-3.69043zm3.09277 1.32911c-.75047-.39277-1.64607-.39294-2.39648 0l-3.19922 1.67578c-.41611.21849-.41605.81465 0 1.0332l3.19922 1.67481c.75059.39309 1.64586.39304 2.39648 0l3.19925-1.67481c.4165-.21836.4164-.81468 0-1.0332z" fill-rule="evenodd"/></g></svg>