<svg fill="none" height="20" viewBox="0 0 20 20" width="20" xmlns="http://www.w3.org/2000/svg"><g fill="#00a008"><path d="m16.8242 12.5833c.4141 0 .7499.3359.75.75 0 .8378-.4325 1.6888-1.2949 2.1406l-3.9981 2.0938c-1.4287.7483-3.13467.7484-4.56343 0l-3.99804-2.0938c-.8621-.4519-1.29486-1.303-1.29493-2.1406.00013-.4139.33608-.7497.75-.75.41411 0 .74985.3359.75.75.00005.3262.16327.6394.49122.8115l3.99804 2.0947c.99283.5201 2.17804.52 3.17094 0l3.998-2.0947c.3283-.172.4912-.4851.4912-.8115.0002-.4139.3362-.7497.75-.75z"/><path d="m16.8242 9.25029c.4142.00003.75.33581.75.75001-.0001.8377-.4325 1.6888-1.2949 2.1406l-3.9981 2.0938c-1.4287.7482-3.13474.7483-4.56343 0l-3.99804-2.0938c-.86215-.4518-1.29477-1.303-1.29493-2.1406 0-.41406.33601-.74975.75-.75001.41419 0 .74997.3358.75.75001.00014.3262.16322.6395.49122.8115l3.99804 2.0947c.99277.5201 2.17804.5199 3.17094 0l3.998-2.0947c.3282-.172.4911-.4852.4912-.8115.0001-.41403.3361-.74972.75-.75001z"/><path clip-rule="evenodd" d="m7.71875 2.43193c1.42883-.74843 3.13365-.74843 4.56245 0l3.9981 2.09375c1.7271.90465 1.727 3.37654 0 4.28125l-3.9981 2.09477c-1.4287.7483-3.13367.7483-4.56245 0l-3.99805-2.09477c-1.72701-.9047-1.72706-3.3766 0-4.28125zm3.86625 1.32812c-.9927-.51978-2.17729-.51978-3.16996 0l-3.99805 2.09473c-.6551.34315-.65509 1.28087 0 1.62402l3.99805 2.09375c.99282.51995 2.17706.51995 3.16996 0l3.998-2.09375c.6551-.34316.6551-1.28088 0-1.62402z" fill-rule="evenodd"/></g></svg>