<svg fill="none" height="24" viewBox="0 0 24 24" width="24" xmlns="http://www.w3.org/2000/svg"><g fill="#00a008"><path d="m20.1901 15.2498c.414.0003.7499.336.75.75-.0001.9543-.4929 1.9214-1.4746 2.4356l-4.7978 2.5136c-1.671.8751-3.6651.8753-5.33598 0l-4.79786-2.5136c-.98135-.5143-1.47355-1.4814-1.47363-2.4356.00007-.4141.33587-.7499.75-.75.41414 0 .7499.3359.75.75.00006.4429.22249.873.66992 1.1074l4.79785 2.5127c1.2351.647 2.7093.647 3.9443 0l4.7969-2.5127c.4475-.2344.6709-.6645.6709-1.1074.0001-.4141.3359-.75.75-.75z"/><path d="m20.1901 11.2498c.414.0003.7499.336.75.75-.0001.9543-.4929 1.9214-1.4746 2.4356l-4.7978 2.5136c-1.671.8751-3.6651.8753-5.33598 0l-4.79786-2.5136c-.98135-.5143-1.47355-1.4814-1.47363-2.4356.00007-.4141.33587-.7499.75-.75.41414 0 .7499.3359.75.75.00006.4429.22249.873.66992 1.1074l4.79785 2.5127c1.2351.647 2.7093.647 3.9443 0l4.7969-2.5127c.4475-.2344.6709-.6645.6709-1.1074.0001-.4141.3359-.75.75-.75z"/><path clip-rule="evenodd" d="m9.33172 3.05061c1.67088-.87516 3.66508-.87503 5.33598 0l4.7978 2.51269c1.9653 1.02945 1.9653 3.8436 0 4.8731l-4.7978 2.5126c-1.671.8752-3.6651.8752-5.33598 0l-4.79786-2.5126c-1.9649-1.02963-1.96506-3.84366 0-4.8731zm4.63968 1.3291c-1.235-.64664-2.7085-.64677-3.9434 0l-4.79785 2.5127c-.89308.46791-.89291 1.74677 0 2.21484l4.79785 2.51265c1.235.6469 2.7084.6468 3.9434 0l4.7978-2.51265c.8933-.46793.8933-1.74691 0-2.21484z" fill-rule="evenodd"/></g></svg>