<svg fill="none" height="16" viewBox="0 0 16 16" width="16" xmlns="http://www.w3.org/2000/svg"><path clip-rule="evenodd" d="m1 5.42734c0-1.47638.99513-2.76726 2.4229-3.14299l6.38174-1.679408c1.10966-.292013 2.19536.544958 2.19536 1.692378v.7028h.25c1.5188 0 2.75 1.23122 2.75 2.75v5.49998c0 1.5188-1.2312 2.75-2.75 2.75h-8.5c-1.51878 0-2.75-1.2312-2.75-2.75zm9.1864-3.37179c.1585-.04171.3136.07785.3136.24177v.7028h-3.90298zm-7.6864 3.69457v5.49998c0 .6904.55964 1.25 1.25 1.25h8.5c.6904 0 1.25-.5596 1.25-1.25v-.25h-2c-1.3807 0-2.5-1.11927-2.5-2.49998s1.1193-2.5 2.5-2.5h2v-.25c0-.69035-.5596-1.25-1.25-1.25h-8.5c-.69036 0-1.25.55965-1.25 1.25zm9 1.75h2v2h-2c-.5523 0-1-.44771-1-1 0-.55228.4477-1 1-1z" fill="#00a008" fill-rule="evenodd"/></svg>