<svg fill="none" height="20" viewBox="0 0 20 20" width="20" xmlns="http://www.w3.org/2000/svg"><path clip-rule="evenodd" d="m1.5 7.72338c0-1.80023 1.13421-3.40516 2.83115-4.00616l7.66765-2.71564c1.4644-.518614 3.0012.56747 3.0012 2.12091v1.88565c1.9545.12865 3.5 1.75474 3.5 3.7418v5.49996c0 2.0711-1.6789 3.75-3.75 3.75h-9.5c-2.07107 0-3.75-1.6789-3.75-3.75zm10.9996-5.30786c.4881-.17287 1.0004.18916 1.0004.70697v1.87745h-8.25c-.01617 0-.03232.0001-.04844.00031zm-9.4996 6.33442v5.49996c0 1.2427 1.00736 2.25 2.25 2.25h9.5c1.2426 0 2.25-1.0073 2.25-2.25v-.25h-2.5c-1.3807 0-2.5-1.1192-2.5-2.5 0-1.3807 1.1193-2.49996 2.5-2.49996h2.5v-.25c0-1.24264-1.0074-2.25-2.25-2.25h-9.5c-1.24264 0-2.25 1.00736-2.25 2.25zm11.5 1.74996h2.5v2h-2.5c-.5523 0-1-.4477-1-1 0-.5522.4477-1 1-1z" fill="#00a008" fill-rule="evenodd"/></svg>