<svg fill="none" height="24" viewBox="0 0 24 24" width="24" xmlns="http://www.w3.org/2000/svg"><path clip-rule="evenodd" d="m22.5 17.2499c0 2.3472-1.9028 4.25-4.25 4.25h-12.5c-2.34721 0-4.25-1.9028-4.25-4.25v-8.46481c0-1.83667 1.17984-3.46555 2.92498-4.03817l10.96762-3.59876c1.7784-.583511 3.6074.74133 3.6074 2.61293v1.73884c0 .02206-.001.0439-.0028.06548 1.9909.35309 3.5028 2.09224 3.5028 4.18453zm-5-13.48881c0-.85073-.8314-1.45293-1.6397-1.18769l-8.919 2.92654 10.5587-.00001zm-14.5 5.98885c0-1.51878 1.23122-2.75 2.75-2.75h12.5c1.5188 0 2.75 1.23122 2.75 2.75v.74996h-4c-1.6569 0-3 1.3432-3 3 0 1.6569 1.3431 3 3 3h4v.75c0 1.5188-1.2312 2.75-2.75 2.75h-12.5c-1.51878 0-2.75-1.2312-2.75-2.75zm18 5.24996v-3h-4c-.8284 0-1.5.6716-1.5 1.5 0 .8285.6716 1.5 1.5 1.5z" fill="#00a008" fill-rule="evenodd"/></svg>