<svg fill="none" height="16" viewBox="0 0 16 16" width="16" xmlns="http://www.w3.org/2000/svg"><g fill="#00a008"><path d="m9.74985 1c-.41422 0-.75.33579-.75.75s.33578.75.75.75h2.49995c.4143 0 .75-.33579.75-.75s-.3357-.75-.75-.75z"/><path d="m2.99985 14.25c0-.4142.33578-.75.75-.75h5.5c.41421 0 .75.3358.75.75s-.33579.75-.75.75h-5.5c-.41422 0-.75-.3358-.75-.75z"/><path d="m2.99985 1.75c0-.41421.33578-.75.75-.75h2.5c.41421 0 .75.33579.75.75s-.33579.75-.75.75h-2.5c-.41422 0-.75-.33579-.75-.75z"/><path d="m10.9998 14.25c0-.4142.3358-.75.75-.75h.5c.4143 0 .75.3358.75.75s-.3357.75-.75.75h-.5c-.4142 0-.75-.3358-.75-.75z"/><path clip-rule="evenodd" d="m4.80706 11.9029c-.34295-.0987-.65561-.2689-.9209-.4933-.29779-.2519-.53587-.5722-.68998-.9367-.09481-.2242-.15784-.4652-.18343-.71723-.00853-.08402-.0129-.16934-.0129-.25561v-3c0-1.38071 1.11929-2.5 2.5-2.5h4.99995c1.3808 0 2.5 1.11935 2.5 2.50006v2.99994c0 1.38074-1.1192 2.50004-2.5 2.50004h-4.99995c-.24034 0-.47281-.0339-.69279-.0972zm3.36199-6.40284h1.62662l-4.83946 4.83944c-.27467-.1782-.45636-.48761-.45636-.83944v-.33079zm-1.41421 0-2.25499 2.255v-1.255c0-.55228.44771-1 1-1zm4.74496 1v.33562l-3.66433 3.66442h-1.62558l4.83711-4.83718c.2727.1786.4528.48683.4528.83714zm-1 4.00004h-1.25012l2.25012-2.2502v1.25016c0 .55224-.4477 1.00004-1 1.00004z" fill-rule="evenodd"/></g></svg>