<svg fill="none" height="20" viewBox="0 0 20 20" width="20" xmlns="http://www.w3.org/2000/svg"><path d="m9 2.25c0 .41421-.33579.75-.75.75h-3.5c-.41421 0-.75-.33579-.75-.75s.33579-.75.75-.75h3.5c.41421 0 .75.33579.75.75zm7 10.75c0 1.6569-1.3431 3-3 3h-6c-1.65686 0-3-1.3431-3-3v-6c0-1.65685 1.34315-3 3-3h6c1.6569 0 3 1.34315 3 3zm-4 4.75c0 .4142-.3358.75-.75.75h-6.5c-.41421 0-.75-.3358-.75-.75s.33579-.75.75-.75h6.5c.4142 0 .75.3358.75.75zm-5-12.25c-.82843 0-1.5.67157-1.5 1.5v.79297l2.29297-2.29297zm2.20703 0-3.70703 3.70703v2.58597l6.293-6.293zm5.28027 1.30566c-.0871-.6728-.6202-1.20578-1.293-1.29296l-7.68161 7.6816c.08719.6728.62017 1.2059 1.29297 1.293zm-6.28027 7.69434h2.58597l3.707-3.707v-2.58597zm7.79297-12.25c0 .41421-.3358.75-.75.75h-2.5c-.4142 0-.75-.33579-.75-.75s.3358-.75.75-.75h2.5c.4142 0 .75.33579.75.75zm-3.793 12.25h.793c.8284 0 1.5-.6716 1.5-1.5v-.793zm3.793 3.25c0 .4142-.3358.75-.75.75h-.5c-.4142 0-.75-.3358-.75-.75s.3358-.75.75-.75h.5c.4142 0 .75.3358.75.75z" fill="#00a008"/></svg>