<svg fill="none" height="24" viewBox="0 0 24 24" width="24" xmlns="http://www.w3.org/2000/svg"><g fill="#00a008"><path d="m13 2.75c0-.41421.3358-.75.75-.75h4.5c.4142 0 .75.33579.75.75s-.3358.75-.75.75h-4.5c-.4142 0-.75-.33579-.75-.75z"/><path d="m5.75 20.5c-.41421 0-.75.3358-.75.75s.33579.75.75.75h7.5c.4142 0 .75-.3358.75-.75s-.3358-.75-.75-.75z"/><path d="m5.75 2c-.41421 0-.75.33579-.75.75s.33579.75.75.75h4.5c.4142 0 .75-.33579.75-.75s-.3358-.75-.75-.75z"/><path d="m16.75 20.5c-.4142 0-.75.3358-.75.75s.3358.75.75.75h1.5c.4142 0 .75-.3358.75-.75s-.3358-.75-.75-.75z"/><path clip-rule="evenodd" d="m19 8.5c0-1.933-1.567-3.5-3.5-3.5h-7c-1.933 0-3.5 1.567-3.5 3.5v7c0 .2526.02675.4989.07757.7363.01486.0693.03176.138.05065.2058.3278 1.1756 1.25402 2.1019 2.4297 2.4297.07902.022.15925.0414.24042.0579.22667.0461.46136.0703.70166.0703h7c1.933 0 3.5-1.567 3.5-3.5zm-8.1862-2h-2.3138c-1.10457 0-2 .89543-2 2v2.3138zm1.4142 0-5.728 5.728v2.5858l8.3138-8.3138zm3.8996.10045-9.52715 9.52715c.20152.6103.68894 1.0905 1.30366 1.2821l9.50559-9.50559c-.1916-.61473-.6718-1.10214-1.2821-1.30366zm1.3724 2.6276-8.27195 8.27195h2.58575l5.6862-5.6862zm0 3.99995-4.272 4.272h2.272c1.1046 0 2-.8954 2-2z" fill-rule="evenodd"/></g></svg>