<svg fill="none" height="16" viewBox="0 0 16 16" width="16" xmlns="http://www.w3.org/2000/svg"><path clip-rule="evenodd" d="m8 1c3.3137 0 6 2.68629 6 6 .5523 0 1 .44772 1 1v2c0 .5523-.4477 1-1 1h-.0254c-.0994.4897-.4849.8752-.9746.9746v.7754c0 .9665-.7835 1.75-1.75 1.75h-2.25195c-.2281.3031-.58954.5-.99805.5s-.76995-.1969-.99805-.5h-.00195v-.0029c-.15609-.2086-.25-.4665-.25-.7471 0-.2809.09363-.5393.25-.748v-.002h.00195c.2281-.3031.58954-.5.99805-.5s.76995.1969.99805.5h2.25195c.1381 0 .25-.1119.25-.25v-.75h-.75c-.6904 0-1.25-.5596-1.25-1.25v-3.5c0-.69036.5596-1.25 1.25-1.25h1.6367c-.4549-2.0038-2.2452-3.5-4.3867-3.5-2.14145 0-3.93185 1.4962-4.38672 3.5h1.63672c.69036 0 1.25.55964 1.25 1.25v3.4902c-.00013.6903-.55972 1.25-1.25 1.25h-2c-.60119 0-1.10299-.4246-1.22266-.9902h-.02734c-.55228 0-1-.4477-1-1v-2c0-.55228.44772-1 1-1 0-3.31371 2.68629-6 6-6zm3 9.5h1.5v-3h-1.5zm-7.5-.0098h1.5v-2.9902h-1.5z" fill="#00a008" fill-rule="evenodd"/></svg>