<svg fill="none" height="20" viewBox="0 0 20 20" width="20" xmlns="http://www.w3.org/2000/svg"><path clip-rule="evenodd" d="m10 2c3.866 0 7 3.13401 7 7v1.25c.5523 0 1 .4477 1 1v1c0 .5523-.4477 1-1 1v.5c0 .6904-.5596 1.25-1.25 1.25h-.25v.75c0 1.2426-1.0074 2.25-2.25 2.25h-2.252c-.2281.3031-.5895.5-.998.5-.69036 0-1.25-.5596-1.25-1.25s.55964-1.25 1.25-1.25c.4085 0 .7699.1969.998.5h2.252c.4142 0 .75-.3358.75-.75v-.75h-.75c-.6904 0-1.25-.5596-1.25-1.25v-4c0-.69036.5596-1.25 1.25-1.25h2.2266c-.2527-2.80321-2.6076-5-5.4766-5-2.86899 0-5.22391 2.19679-5.47656 5h2.22656c.69036 0 1.25.55964 1.25 1.25v4c0 .6904-.55964 1.25-1.25 1.25h-2.5c-.69036 0-1.25-.5596-1.25-1.25v-.5c-.55228 0-1-.4477-1-1v-1c0-.5523.44772-1 1-1v-1.25c0-3.86599 3.13401-7 7-7zm-5.5 11.5h2v-3.5h-2zm9 0h2v-3.5h-2z" fill="#00a008" fill-rule="evenodd"/></svg>