<svg fill="none" height="24" viewBox="0 0 24 24" width="24" xmlns="http://www.w3.org/2000/svg"><path clip-rule="evenodd" d="m12 2c4.4183 0 8 3.58172 8 8v2c.5523 0 1 .4477 1 1v2c0 .5523-.4477 1-1 1v.25c0 .9665-.7835 1.75-1.75 1.75h.2139c.0233.1633.0361.3302.0361.5 0 1.933-1.567 3.5-3.5 3.5h-1.7021c-.2595.448-.743.75-1.2979.75-.8284 0-1.5-.6716-1.5-1.5s.6716-1.5 1.5-1.5c.5549 0 1.0384.302 1.2979.75h1.7021c1.1046 0 2-.8954 2-2v-.5h-.75c-.9665 0-1.75-.7835-1.75-1.75v-4.5c0-.9665.7835-1.75 1.75-1.75h2.25c0-3.58985-2.9101-6.5-6.5-6.5-3.58985 0-6.5 2.91015-6.5 6.5h2.25c.9665 0 1.75.7835 1.75 1.75v4.5c0 .9665-.7835 1.75-1.75 1.75h-2c-.9665 0-1.75-.7835-1.75-1.75v-.25c-.55228 0-1-.4477-1-1v-2c0-.5523.44772-1 1-1v-2c0-4.41828 3.58172-8 8-8zm-6.5 14.25c0 .1381.11193.25.25.25h2c.13807 0 .25-.1119.25-.25v-4.5c0-.1381-.11193-.25-.25-.25h-2.25zm10.75-4.75c-.1381 0-.25.1119-.25.25v4.5c0 .1381.1119.25.25.25h2c.1381 0 .25-.1119.25-.25v-4.75z" fill="#00a008" fill-rule="evenodd"/></svg>