<svg fill="none" height="20" viewBox="0 0 20 20" width="20" xmlns="http://www.w3.org/2000/svg"><g fill="#00a008"><path d="m8.75 3c-.41421 0-.75.33579-.75.75s.33579.75.75.75h8.5c.4142 0 .75-.33579.75-.75s-.3358-.75-.75-.75z"/><path d="m8.75 11c-.41421 0-.75.3358-.75.75s.33579.75.75.75h8.5c.4142 0 .75-.3358.75-.75s-.3358-.75-.75-.75z"/><path d="m2 7.75c0-.41421.33579-.75.75-.75h14.5c.4142 0 .75.33579.75.75s-.3358.75-.75.75h-14.5c-.41421 0-.75-.33579-.75-.75z"/><path d="m2.75 15c-.41421 0-.75.3358-.75.75s.33579.75.75.75h14.5c.4142 0 .75-.3358.75-.75s-.3358-.75-.75-.75z"/></g></svg>