<svg fill="none" height="16" viewBox="0 0 16 16" width="16" xmlns="http://www.w3.org/2000/svg"><g fill="#00a008"><path clip-rule="evenodd" d="m2.5 5.75012c0-.69035.55964-1.25 1.25-1.25h8.5c.6904 0 1.25.55965 1.25 1.25v1.5c0 .41422.3358.75.75.75s.75-.33578.75-.75v-1.5c0-1.51878-1.2312-2.75-2.75-2.75h-.25v-.7028c0-1.14742-1.0857-1.984391-2.19536-1.692378l-6.38174 1.679408c-1.42777.37573-2.4229 1.66661-2.4229 3.14299v5.82276c0 1.5188 1.23122 2.75 2.75 2.75h2.5c.41421 0 .75-.3358.75-.75s-.33579-.75-.75-.75h-2.5c-.69036 0-1.25-.5596-1.25-1.25zm8-3.4528c0-.16392-.1551-.28348-.3136-.24177l-3.58938.94457h3.90298z" fill-rule="evenodd"/><path d="m11.7197 9.21979c-.2929.29289-.2929.76777 0 1.06071l.7196.7196h-3.1893c-.41421 0-.75.3358-.75.75s.33579.75.75.75h3.1893l-.7196.7197c-.2929.2929-.2929.7678 0 1.0607.2929.2928.7677.2928 1.0606 0l2-2c.1407-.1407.2197-.3315.2197-.5304s-.079-.3897-.2197-.5303l-2-2.00001c-.2929-.29289-.7677-.29289-1.0606 0z"/></g></svg>