<svg fill="none" height="20" viewBox="0 0 20 20" width="20" xmlns="http://www.w3.org/2000/svg"><g fill="#00a008"><path clip-rule="evenodd" d="m3 8.74994v5.49996c0 1.2427 1.00736 2.25 2.25 2.25h4c.41421 0 .75.3358.75.75 0 .4143-.33579.75-.75.75h-4c-2.07107 0-3.75-1.6789-3.75-3.75v-6.52652c0-1.80023 1.13421-3.40516 2.83115-4.00616l7.66765-2.71564c1.4644-.518614 3.0012.56747 3.0012 2.12091v1.88565c1.9545.12865 3.5 1.75474 3.5 3.7418v.5c0 .41421-.3358.75-.75.75s-.75-.33579-.75-.75v-.5c0-1.24264-1.0074-2.25-2.25-2.25h-9.5c-1.24264 0-2.25 1.00736-2.25 2.25zm9.4996-6.33442c.4881-.17287 1.0004.18916 1.0004.70697v1.87745h-8.25c-.01617 0-.03232.0001-.04844.00031z" fill-rule="evenodd"/><path d="m16.4393 13.9999-.7196-.7196c-.2929-.2929-.2929-.7678 0-1.0607s.7677-.2929 1.0606 0l2 2c.1407.1407.2197.3314.2197.5303 0 .199-.079.3897-.2197.5304l-2 2c-.2929.2929-.7677.2929-1.0606 0s-.2929-.7678 0-1.0607l.7196-.7197h-4.1893c-.4142 0-.75-.3357-.75-.75 0-.4142.3358-.75.75-.75z"/></g></svg>