<svg fill="none" height="24" viewBox="0 0 24 24" width="24" xmlns="http://www.w3.org/2000/svg"><g fill="#00a008"><path clip-rule="evenodd" d="m3 9.74994v7.49996c0 1.5188 1.23122 2.75 2.75 2.75h6.5c.4142 0 .75.3358.75.75 0 .4143-.3358.75-.75.75h-6.5c-2.34721 0-4.25-1.9028-4.25-4.25v-8.46481c0-1.83667 1.17984-3.46555 2.92498-4.03817l10.96762-3.59876c1.7784-.583511 3.6074.74133 3.6074 2.61293v1.73884c0 .02206-.001.0439-.0028.06548 1.9909.35309 3.5028 2.09224 3.5028 4.18453v3.49996c0 .4143-.3358.75-.75.75s-.75-.3357-.75-.75v-3.49996c0-1.51878-1.2312-2.75-2.75-2.75h-12.5c-1.51878 0-2.75 1.23122-2.75 2.75zm12.8603-7.17654c.8083-.26524 1.6397.33696 1.6397 1.18769v1.73884l-10.5587.00001z" fill-rule="evenodd"/><path d="m19.7197 17.2803c-.2929-.2929-.2929-.7678 0-1.0607s.7677-.2929 1.0606 0l2 2c.1407.1407.2197.3314.2197.5303 0 .199-.079.3897-.2197.5304l-2 2c-.2929.2929-.7677.2929-1.0606 0s-.2929-.7678 0-1.0607l.7196-.7197h-5.1893c-.4142 0-.75-.3357-.75-.75 0-.4142.3358-.75.75-.75h5.1893z"/></g></svg>