<svg fill="none" height="16" viewBox="0 0 16 16" width="16" xmlns="http://www.w3.org/2000/svg"><path clip-rule="evenodd" d="m2.32715 1.65332c.37799.0386.67285.35889.67285.74707v1.25c.00026.46909.38051.85038.84961.85059h2.15527c.05119-.83736.74454-1.50078 1.59473-1.50098h4.80079l.1631.00781c.8067.08185 1.4363.76349 1.4365 1.5918v1.30078l-.0078.16309c-.0764.75315-.6756 1.3523-1.4287 1.42871l-.1631.00781h-4.80079c-.82831-.0002-1.50995-.62976-1.5918-1.43652l-.00293-.0625h-2.15527c-.30001-.00005-.58583-.05954-.84961-.16211v3.81152c.00026.46911.38051.85041.84961.85061h2.15527c.05119-.83738.74454-1.5008 1.59473-1.501h4.80079l.1631.00781c.8067.08185 1.4363.7635 1.4365 1.59179v1.3008l-.0078.1631c-.0764.7531-.6756 1.3523-1.4287 1.4287l-.1631.0078h-4.80079c-.82831-.0002-1.50995-.6298-1.5918-1.4365l-.00293-.0625h-2.15527c-1.29753-.0002-2.34935-1.0531-2.34961-2.35061v-7.25c0-.41421.33579-.75098.75-.75098zm5.27246 8.84668c-.05492.0002-.0994.0447-.09961.0996v1.3008c.00021.0549.04469.0994.09961.0996h4.80079c.0549-.0002.0994-.0447.0996-.0996v-1.3008c-.0002-.0549-.0447-.0994-.0996-.0996zm0-6c-.05492.00021-.0994.04469-.09961.09961v1.30078c.00021.05492.04469.0994.09961.09961h4.80079c.0549-.00021.0994-.04469.0996-.09961v-1.30078c-.0002-.05492-.0447-.0994-.0996-.09961z" fill="#00a008" fill-rule="evenodd"/></svg>