<svg fill="none" height="20" viewBox="0 0 20 20" width="20" xmlns="http://www.w3.org/2000/svg"><path clip-rule="evenodd" d="m2.75 2.25c.41421 0 .75.33579.75.75v2.25c0 .69036.55964 1.25 1.25 1.25h2.25c0-1.10457.89543-2 2-2h7l.2041.01074c1.0087.10226 1.7959.95361 1.7959 1.98926v1.5l-.0107.2041c-.0955.94155-.8436 1.6897-1.7852 1.78516l-.2041.01074h-7c-1.03565 0-1.887-.78722-1.98926-1.7959l-.01074-.2041h-2.25c-.45074 0-.87458-.1115-1.25-.30371v5.05371c0 .6904.55964 1.25 1.25 1.25h2.25c0-1.1046.89543-2 2-2h7l.2041.0107c1.0087.1023 1.7959.9536 1.7959 1.9893v1.5l-.0107.2041c-.0955.9416-.8436 1.6897-1.7852 1.7852l-.2041.0107h-7c-1.03565 0-1.887-.7872-1.98926-1.7959l-.01074-.2041h-2.25c-1.51878 0-2.75-1.2312-2.75-2.75v-9.75c0-.41421.33579-.75.75-.75zm6.25 11.25c-.27614 0-.5.2239-.5.5v1.5c0 .2761.22386.5.5.5h7c.2761 0 .5-.2239.5-.5v-1.5c0-.2761-.2239-.5-.5-.5zm0-7.5c-.27614 0-.5.22386-.5.5v1.5c0 .27614.22386.5.5.5h7c.2761 0 .5-.22386.5-.5v-1.5c0-.27614-.2239-.5-.5-.5z" fill="#00a008" fill-rule="evenodd"/></svg>