<svg fill="none" height="24" viewBox="0 0 24 24" width="24" xmlns="http://www.w3.org/2000/svg"><path clip-rule="evenodd" d="m3.32715 2.85352c.37799.03859.67285.35888.67285.74707v2.75c.00032.911.73932 1.65039 1.65039 1.65039h2.34961v-.10059c0-1.24252.94425-2.26463 2.1543-2.38769l.2461-.0127h8.1992c1.3255 0 2.4004 1.07491 2.4004 2.40039v1.69922c0 1.32549-1.0749 2.40039-2.4004 2.40039h-8.1992l-.2461-.0127c-1.21005-.1231-2.1543-1.1452-2.1543-2.38769v-.09863h-2.34961c-.60599 0-1.16996-.17506-1.65039-.47168v6.3213c.00032.911.73932 1.6504 1.65039 1.6504h2.34961v-.1006c0-1.2425.94425-2.2646 2.1543-2.3877l.2461-.0127h8.1992c1.3255 0 2.4004 1.0749 2.4004 2.4004v1.6992c0 1.3255-1.0749 2.4004-2.4004 2.4004h-8.1992l-.2461-.0127c-1.21005-.1231-2.1543-1.1452-2.1543-2.3877v-.0986h-2.34961c-1.7395 0-3.15007-1.411-3.15039-3.1504v-11.75001c0-.41422.33579-.75098.75-.75098zm7.07325 13.14648c-.49707 0-.9004.4033-.9004.9004v1.6992c0 .4971.40333.9004.9004.9004h8.1992c.4971 0 .9004-.4033.9004-.9004v-1.6992c0-.4971-.4033-.9004-.9004-.9004zm0-9c-.49707 0-.9004.40333-.9004.90039v1.69922c0 .49709.40333.90039.9004.90039h8.1992c.4971 0 .9004-.4033.9004-.90039v-1.69922c0-.49706-.4033-.90039-.9004-.90039z" fill="#00a008" fill-rule="evenodd"/></svg>