<svg fill="none" height="20" viewBox="0 0 20 20" width="20" xmlns="http://www.w3.org/2000/svg"><g fill="#00a008"><path d="m4.24715 2.49609c-1.51721 0-2.74715 1.22994-2.74715 2.74715v4.00676c0 .41421.33579.75.75.75s.75-.33579.75-.75v-4.00676c0-.68878.55837-1.24715 1.24715-1.24715h3.63609c.40057 0 .76679.2262.94613.58437.43358.86593 1.31893 1.41278 2.28743 1.41278h4.1332c.9665 0 1.75.7835 1.75 1.75v.2556h-10.25c-.41421 0-.75.33579-.75.75s.33579.75.75.75h10.25v4.74996c0 .9665-.7835 1.75-1.75 1.75h-5.61676c-.41421 0-.75.3358-.75.75 0 .4143.33579.75.75.75h5.61676c1.7949 0 3.25-1.455 3.25-3.25v-6.50556c0-1.79492-1.4551-3.25-3.25-3.25h-4.1332c-.4006 0-.7668-.22619-.9462-.58437-.43355-.86592-1.31894-1.41278-2.28736-1.41278z"/><path d="m5.53932 12.75h-2.78932c-.41421 0-.75.3358-.75.75s.33579.75.75.75h2.78932l-.21967.2197c-.2929.2929-.2929.7677 0 1.0606.29289.2929.76776.2929 1.06066 0l1.42929-1.4293c.33194-.3319.33194-.8701 0-1.202l-1.42929-1.4293c-.2929-.2929-.76777-.2929-1.06066 0-.2929.2929-.2929.7677 0 1.0606z"/></g></svg>