<svg fill="none" height="16" viewBox="0 0 16 16" width="16" xmlns="http://www.w3.org/2000/svg"><path d="m1 10h14v1c0 1.6569-1.3431 3-3 3h-8c-1.65685 0-3-1.3431-3-3z" fill="#d7280f"/><path d="m1 6v4h14v-4z" fill="#0043db"/><path d="m15 6h-14v-1c0-1.65685 1.34315-3 3-3h8c1.6569 0 3 1.34315 3 3z" fill="#fff"/><path d="m2 6h-1v5c0 1.6569 1.34315 3 3 3h8c1.6569 0 3-1.3431 3-3v-5h-1v5c0 1.1046-.8954 2-2 2h-8c-1.10457 0-2-.8954-2-2z" fill="#1d1f26" fill-opacity=".2"/><path d="m4 3h8c1.1046 0 2 .89543 2 2v1h1v-1c0-1.65685-1.3431-3-3-3h-8c-1.65685 0-3 1.34315-3 3v1h1v-1c0-1.10457.89543-2 2-2z" fill="#063cb7" fill-opacity=".4"/></svg>