<svg fill="none" height="20" viewBox="0 0 20 20" width="20" xmlns="http://www.w3.org/2000/svg"><path d="m1 13h18v1c0 1.6569-1.3431 3-3 3h-12c-1.65685 0-3-1.3431-3-3z" fill="#d7280f"/><path d="m1 13v-6h18v6z" fill="#0043db"/><path d="m19 7h-18v-1c0-1.65685 1.34315-3 3-3h12c1.6569 0 3 1.34315 3 3z" fill="#fff"/><path d="m4 4h12c1.1046 0 2 .89543 2 2v1h1v-1c0-1.65685-1.3431-3-3-3h-12c-1.65685 0-3 1.34315-3 3v1h1v-1c0-1.10457.89543-2 2-2z" fill="#063cb7" fill-opacity=".4"/><path d="m1 7v7c0 1.6569 1.34315 3 3 3h12c1.6569 0 3-1.3431 3-3v-7h-1v7c0 1.1046-.8954 2-2 2h-12c-1.10457 0-2-.8954-2-2v-7z" fill="#1d1f26" fill-opacity=".2"/></svg>