<svg fill="none" height="24" viewBox="0 0 24 24" width="24" xmlns="http://www.w3.org/2000/svg"><path d="m2 15h20v2c0 1.6569-1.3431 3-3 3h-14c-1.65685 0-3-1.3431-3-3z" fill="#d7280f"/><path d="m2 9v6h20v-6z" fill="#0043db"/><path d="m22 9.00001-20-.00001v-2c0-1.65685 1.34315-3 3-3h14c1.6569 0 3 1.34315 3 3z" fill="#fff"/><path d="m2 9v8c0 1.6569 1.34315 3 3 3h14c1.6569 0 3-1.3431 3-3v-8h-1v8c0 1.1046-.8954 2-2 2h-14c-1.10457 0-2-.8954-2-2v-8z" fill="#1d1f26" fill-opacity=".2"/><path d="m5 5h14c1.1046 0 2 .89543 2 2v2h1v-2c0-1.65685-1.3431-3-3-3h-14c-1.65685 0-3 1.34315-3 3v2h1v-2c0-1.10457.89543-2 2-2z" fill="#063cb7" fill-opacity=".4"/></svg>