<svg fill="none" height="16" viewBox="0 0 16 16" width="16" xmlns="http://www.w3.org/2000/svg"><path d="m11 3c0-1.10457.8954-2 2-2s2 .89543 2 2-.8954 2-2 2-2-.89543-2-2z" fill="#d900ff"/><g clip-rule="evenodd" fill="#00a008" fill-rule="evenodd"><path d="m10.7639 5c-.3697-.41308-.6267-.92921-.7224-1.5h-.64502c-.32646-1.15425-1.3877-2-2.64648-2s-2.32002.84575-2.64648 2h-1.85352c-.41421 0-.75.33579-.75.75s.33579.75.75.75h1.85352c.32646 1.15425 1.3877 2 2.64648 2s2.32002-.84575 2.64648-2zm-4.0139.5c.69036 0 1.25-.55964 1.25-1.25s-.55964-1.25-1.25-1.25-1.25.55964-1.25 1.25.55964 1.25 1.25 1.25z"/><path d="m9.25 9c1.2588 0 2.32.84575 2.6465 2h1.8535c.4142 0 .75.3358.75.75s-.3358.75-.75.75h-1.8535c-.3265 1.1543-1.3877 2-2.6465 2-1.25878 0-2.32002-.8457-2.64648-2h-4.35352c-.41421 0-.75-.3358-.75-.75s.33579-.75.75-.75h4.35352c.32646-1.15425 1.3877-2 2.64648-2zm0 4c.69036 0 1.25-.5596 1.25-1.25s-.55964-1.25-1.25-1.25-1.25.5596-1.25 1.25.55964 1.25 1.25 1.25z"/></g></svg>