<svg fill="none" height="20" viewBox="0 0 20 20" width="20" xmlns="http://www.w3.org/2000/svg"><path d="m13 4c0-1.65685 1.3431-3 3-3s3 1.34315 3 3-1.3431 3-3 3-3-1.34315-3-3z" fill="#d900ff"/><g clip-rule="evenodd" fill="#00a008" fill-rule="evenodd"><path d="m12.6463 6.5h-1.7333c-.3385 1.43335-1.62621 2.5-3.163 2.5s-2.82445-1.06665-3.16303-2.5h-1.83697c-.41421 0-.75-.33579-.75-.75s.33579-.75.75-.75h1.83697c.33858-1.43335 1.62624-2.5 3.16303-2.5s2.8245 1.06665 3.163 2.5h1.087c.1234.54403.3455 1.05061.6463 1.5zm-4.8963 1c.9665 0 1.75-.7835 1.75-1.75s-.7835-1.75-1.75-1.75-1.75.7835-1.75 1.75.7835 1.75 1.75 1.75z"/><path d="m12.25 11c1.5368 0 2.8245 1.0666 3.163 2.5h1.837c.4142 0 .75.3358.75.75s-.3358.75-.75.75h-1.837c-.3385 1.4334-1.6262 2.5-3.163 2.5s-2.82445-1.0666-3.16303-2.5h-6.33697c-.41421 0-.75-.3358-.75-.75s.33579-.75.75-.75h6.33697c.33858-1.4334 1.62623-2.5 3.16303-2.5zm0 5c.9665 0 1.75-.7835 1.75-1.75s-.7835-1.75-1.75-1.75-1.75.7835-1.75 1.75.7835 1.75 1.75 1.75z"/></g></svg>