<svg fill="none" height="24" viewBox="0 0 24 24" width="24" xmlns="http://www.w3.org/2000/svg"><path d="m16 6c0-1.65685 1.3431-3 3-3s3 1.34315 3 3-1.3431 3-3 3-3-1.34315-3-3z" fill="#d900ff"/><g clip-rule="evenodd" fill="#00a008" fill-rule="evenodd"><path d="m15.5351 8h-2.1101c-.3475 1.71168-1.8608 3-3.675 3-1.81422 0-3.32753-1.28832-3.67499-3h-2.32501c-.41421 0-.75-.33579-.75-.75s.33579-.75.75-.75h2.32501c.34746-1.71168 1.86077-3 3.67499-3 1.8142 0 3.3275 1.28832 3.675 3h1.6059c.0675.54097.243 1.04839.5042 1.5zm-5.7851 1.5c1.2426 0 2.25-1.00736 2.25-2.25s-1.0074-2.25-2.25-2.25c-1.24264 0-2.25 1.00736-2.25 2.25s1.00736 2.25 2.25 2.25z"/><path d="m10.575 17.5c.3475 1.7117 1.8608 3 3.675 3s3.3275-1.2883 3.675-3h2.325c.4142 0 .75-.3358.75-.75s-.3358-.75-.75-.75h-2.325c-.3475-1.7117-1.8608-3-3.675-3s-3.3275 1.2883-3.675 3h-6.825c-.41421 0-.75.3358-.75.75s.33579.75.75.75zm3.675 1.5c1.2426 0 2.25-1.0074 2.25-2.25s-1.0074-2.25-2.25-2.25-2.25 1.0074-2.25 2.25 1.0074 2.25 2.25 2.25z"/></g></svg>