<svg fill="none" height="16" viewBox="0 0 16 16" width="16" xmlns="http://www.w3.org/2000/svg"><g clip-rule="evenodd" fill="#00a008" fill-rule="evenodd"><path d="m8.2041 4.67676c1.00851.10225 1.79566.95383 1.7959 1.98926l-.01074.2041c-.10227 1.00866-.95362 1.79589-1.98926 1.7959l-.2041-.01075c-.94152-.09547-1.6897-.84363-1.78516-1.78515l-.01074-.2041c.00026-1.10434.8956-1.99902 2-1.99903zm-.2041 1.48926c-.27597 0-.49974.22408-.5.5 0 .27613.22387.49999.5.5.27613-.00001.5-.22387.5-.5-.00026-.27592-.22403-.5-.5-.5z"/><path d="m7.99902 1c3.09258 0 5.60038 2.50699 5.60058 5.59961l-.0137.39355c-.2676 4.06494-4.56967 8.00684-5.58688 8.00684l-.1084-.0117c-1.22238-.2517-5.49023-4.3207-5.49023-8.38869.00021-3.09233 2.50642-5.59915 5.59863-5.59961zm0 1.45801c-2.28681.00046-4.14041 1.85469-4.14062 4.1416 0 1.61508.90296 3.3942 2.08398 4.86039.57382.7123 1.16642 1.2924 1.65039 1.6796.15741.126.29504.2217.40625.294.11134-.0723.24948-.1678.40723-.294.48403-.3872 1.07743-.9672 1.65135-1.6796 1.181-1.46617 2.083-3.24535 2.083-4.86039-.0002-2.2872-1.8544-4.1416-4.14158-4.1416z"/></g></svg>