<svg fill="none" height="20" viewBox="0 0 20 20" width="20" xmlns="http://www.w3.org/2000/svg"><g clip-rule="evenodd" fill="#00a008" fill-rule="evenodd"><path d="m10 5.33301c.1554 0 .308.0114.457.03418.0496.00757.0988.0164.1475.02636.1954.03998.3839.09886.5635.17481.5381.22761.9958.60838 1.3193 1.08691.0541.07998.1041.16284.1504.24805.2309.42503.3623.91199.3623 1.42969 0 1.65685-1.3431 2.99999-3 2.99999-.20706 0-.40924-.0206-.60449-.0605-.39065-.08-.754-.2355-1.07324-.4512-.79795-.5391-1.32227-1.4528-1.32227-2.48829.00004-.5177.1314-1.00466.3623-1.42969.04629-.08521.09634-.16807.1504-.24805.32345-.47853.78117-.8593 1.31933-1.08691.17953-.07595.3681-.13483.56348-.17481.04872-.00996.0979-.01879.14746-.02636.149-.02278.30167-.03418.45703-.03418zm0 1.5c-.35591 0-.68226.12494-.93945.33203-.07946.064-.15284.13519-.21778.21387-.0306.03706-.05993.0753-.08691.11523-.05387.07973-.09976.16524-.1377.25488-.03795.08967-.06788.18368-.08789.28125-.02004.09777-.03025.19906-.03027.30274 0 .1036.01027.20504.03027.30273.05.24401.15969.46624.3125.65137.15279.18515.34903.33284.57325.42773.13466.05698.27929.09499.43066.11036.05042.00512.10155.00781.15332.00781.0518 0 .1029-.00269.1533-.00781.1514-.01537.296-.05338.4307-.11036.2242-.09489.4204-.24258.5732-.42773.1528-.18513.2625-.40736.3125-.65137.02-.09769.0303-.19913.0303-.30273 0-.10368-.0102-.20497-.0303-.30274-.02-.09757-.0499-.19158-.0879-.28125-.0379-.08964-.0838-.17515-.1377-.25488-.0269-.03993-.0563-.07817-.0869-.11523-.0649-.07868-.1383-.14987-.2177-.21387-.2572-.20709-.5836-.33203-.9395-.33203z"/><path d="m10 1.25c3.866.00001 7 3.13401 7 7 0 5.25-5.6875 10.5-7 10.5s-7-5.25-7-10.5c0-3.86599 3.13401-7 7-7zm0 1.5c-3.03757 0-5.5 2.46243-5.5 5.5 0 2.1261 1.18015 4.4206 2.67578 6.2773.73087.9073 1.48919 1.6494 2.11426 2.1495.29006.232.53138.3939.70996.4961.1786-.1022.4199-.2641.71-.4961.625-.5001 1.3834-1.2422 2.1142-2.1495 1.4956-1.8567 2.6758-4.1512 2.6758-6.2773 0-3.03756-2.4624-5.49999-5.5-5.5z"/></g></svg>