<svg fill="none" height="24" viewBox="0 0 24 24" width="24" xmlns="http://www.w3.org/2000/svg"><path d="m12 2c4.4183 0 8 3.58172 8 8 0 6-6.5 12-8 12s-8-6-8-12c0-4.41828 3.58172-8 8-8zm0 1.5c-3.58985 0-6.5 2.91015-6.5 6.5 0 2.5011 1.38327 5.1706 3.10547 7.3086.84415 1.0479 1.72163 1.9072 2.44923 2.4893.3651.292.6683.4945.8906.6162.0189.0103.0384.0169.0547.0254.0163-.0085.0358-.0151.0547-.0254.2223-.1217.5255-.3242.8906-.6162.7276-.5821 1.6051-1.4414 2.4492-2.4893 1.7222-2.138 3.1055-4.8075 3.1055-7.3086 0-3.58985-2.9101-6.5-6.5-6.5zm0 3.5c1.6569 0 3 1.34315 3 3 0 1.6569-1.3431 3-3 3s-3-1.3431-3-3c0-1.65685 1.3431-3 3-3zm0 1.5c-.8284 0-1.5.67157-1.5 1.5 0 .8284.6716 1.5 1.5 1.5s1.5-.6716 1.5-1.5c0-.82843-.6716-1.5-1.5-1.5z" fill="#00a008"/></svg>