<svg fill="none" height="16" viewBox="0 0 16 16" width="16" xmlns="http://www.w3.org/2000/svg"><g fill="#00a008"><path d="m8 5c.55228 0 1 .44772 1 1v2c0 .55228-.44772 1-1 1s-1-.44772-1-1v-2c0-.55228.44772-1 1-1z"/><path clip-rule="evenodd" d="m8 0c3.3137 0 6 2.68629 6 6v4c0 3.3137-2.6863 6-6 6-3.31371 0-6-2.6863-6-6v-4c0-3.31371 2.68629-6 6-6zm0 1.5c-2.48528 0-4.5 2.01472-4.5 4.5v4c0 2.4853 2.01472 4.5 4.5 4.5 2.4853 0 4.5-2.0147 4.5-4.5v-4c0-2.48528-2.0147-4.5-4.5-4.5z" fill-rule="evenodd"/></g></svg>