<svg fill="none" height="20" viewBox="0 0 20 20" width="20" xmlns="http://www.w3.org/2000/svg"><g fill="#00a008"><path d="m10 6c.5523 0 1 .44772 1 1v3c0 .5523-.4477 1-1 1-.55228 0-1-.4477-1-1v-3c0-.55228.44772-1 1-1z"/><path clip-rule="evenodd" d="m10 .5c3.866 0 7 3.13401 7 7v5l-.0088.3604c-.1875 3.6985-3.2461 6.6396-6.9912 6.6396-3.86599 0-7-3.134-7-7v-5c0-3.86599 3.13401-7 7-7zm0 1.5c-3.03757 0-5.5 2.46243-5.5 5.5h2.25c.41421 0 .75.33579.75.75s-.33579.75-.75.75h-2.25v3.5c0 3.0376 2.46243 5.5 5.5 5.5 3.0376 0 5.5-2.4624 5.5-5.5v-3.5h-2.25c-.4142 0-.75-.33579-.75-.75s.3358-.75.75-.75h2.25c0-3.03757-2.4624-5.5-5.5-5.5z" fill-rule="evenodd"/></g></svg>