<svg fill="none" height="24" viewBox="0 0 24 24" width="24" xmlns="http://www.w3.org/2000/svg"><g clip-rule="evenodd" fill="#00a008" fill-rule="evenodd"><path d="m12 6c1.3807 0 2.5 1.11929 2.5 2.5v3c0 1.3807-1.1193 2.5-2.5 2.5s-2.5-1.1193-2.5-2.5v-3c0-1.38071 1.1193-2.5 2.5-2.5zm0 1.5c-.5523 0-1 .44772-1 1v3c0 .5523.4477 1 1 1s1-.4477 1-1v-3c0-.55228-.4477-1-1-1z"/><path d="m12 1c4.4183 0 8 3.58172 8 8v6l-.0107.4121c-.2145 4.2268-3.7092 7.5879-7.9893 7.5879-4.28006 0-7.77477-3.3611-7.98926-7.5879l-.01074-.4121v-6c0-4.41828 3.58172-8 8-8zm0 1.5c-3.58985 0-6.5 2.91015-6.5 6.5h1.75c.41421 0 .75.33579.75.75 0 .4142-.33579.75-.75.75h-1.75v4.5c0 3.5899 2.91015 6.5 6.5 6.5 3.5899 0 6.5-2.9101 6.5-6.5v-4.5h-1.75c-.4142 0-.75-.3358-.75-.75 0-.41421.3358-.75.75-.75h1.75c0-3.58985-2.9101-6.5-6.5-6.5z"/></g></svg>