<svg fill="none" height="16" viewBox="0 0 16 16" width="16" xmlns="http://www.w3.org/2000/svg"><g fill="#00a008"><path d="m7.25 2.75c0-.41421.33579-.75.75-.75s.75.33579.75.75v6.08389l1.19055-1.3334c.27585-.30898.74995-.33582 1.05895-.05994.309.27587.3358.74999.06 1.05896l-2.42545 2.71649c-.33796.3785-.93014.3785-1.2681 0l-2.4254-2.71649c-.27588-.30897-.24904-.78309.05994-1.05896.30897-.27588.78309-.24904 1.05896.05994l1.19055 1.3334z"/><path d="m3 13.75c0-.4142.33579-.75.75-.75h8.5c.4142 0 .75.3358.75.75s-.3358.75-.75.75h-8.5c-.41421 0-.75-.3358-.75-.75z"/></g></svg>