<svg fill="none" height="20" viewBox="0 0 20 20" width="20" xmlns="http://www.w3.org/2000/svg"><g fill="#00a008"><path d="m9.25 3.75c0-.41421.33579-.75.75-.75.4142 0 .75.33579.75.75v8.6287l2.1983-2.38681c.2807-.30467.7551-.32417 1.0598-.04355.3047.28066.3242.75506.0436 1.05976l-3.4265 3.7201c-.3367.3656-.91374.3656-1.25041 0l-3.42645-3.7201c-.28062-.3047-.26112-.7791.04355-1.05976.30467-.28062.77915-.26112 1.05977.04355l2.19834 2.38681z"/><path d="m4 17.25c0-.4142.33579-.75.75-.75h10.5c.4142 0 .75.3358.75.75s-.3358.75-.75.75h-10.5c-.41421 0-.75-.3358-.75-.75z"/></g></svg>