<svg fill="none" height="24" viewBox="0 0 24 24" width="24" xmlns="http://www.w3.org/2000/svg"><g fill="#00a008"><path d="m11.25 3.75c0-.41421.3358-.75.75-.75s.75.33579.75.75v11.6426l2.7009-2.9034c.2821-.3033.7566-.3205 1.0599-.0383.3033.2821.3205.7566.0383 1.0599l-3.9267 4.2213c-.3362.3614-.9086.3614-1.2448 0l-3.92674-4.2213c-.28212-.3033-.26497-.7778.03831-1.0599.30328-.2822.77785-.265 1.05997.0383l2.70086 2.9034z"/><path d="m5 20.25c0-.4142.33579-.75.75-.75h12.5c.4142 0 .75.3358.75.75s-.3358.75-.75.75h-12.5c-.41421 0-.75-.3358-.75-.75z"/></g></svg>