<svg fill="none" height="16" viewBox="0 0 16 16" width="16" xmlns="http://www.w3.org/2000/svg"><path d="m6.75904 2.20569c.43298-.90251 2.04895-.90251 2.48194 0 .48497 1.01088 1.09542 2.04675 1.80102 2.75238.7056.70562 1.7415 1.31603 2.7524 1.801.9025.43298.9025 2.04896 0 2.48194-1.0109.48497-2.0468 1.09539-2.7524 1.80099s-1.31605 1.7415-1.80102 2.7524c-.43298.9025-2.04896.9025-2.48194 0-.48497-1.0109-1.09538-2.0468-1.801-2.7524-.70563-.7056-1.7415-1.31602-2.75238-1.80099-.90251-.43298-.90251-2.04896 0-2.48194 1.01088-.48497 2.04675-1.09538 2.75238-1.801.70562-.70563 1.31603-1.7415 1.801-2.75238z" fill="#00a008"/></svg>