<svg fill="none" height="20" viewBox="0 0 20 20" width="20" xmlns="http://www.w3.org/2000/svg"><path d="m8.4416 3.00427c.54607-1.12581 2.5707-1.12581 3.1168 0 .5859 1.20791 1.3172 2.43533 2.1596 3.27769.8423.84235 2.0697 1.57368 3.2776 2.15958 1.1258.54607 1.1258 2.57066 0 3.11676-1.2079.5859-2.4353 1.3172-3.2776 2.1596-.8424.8423-1.5737 2.0698-2.1596 3.2777-.5461 1.1258-2.57073 1.1258-3.1168 0-.5859-1.2079-1.31723-2.4354-2.15958-3.2777-.84236-.8424-2.06978-1.5737-3.27769-2.1596-1.12581-.5461-1.12581-2.57069 0-3.11676 1.20791-.5859 2.43533-1.31723 3.27769-2.15958.84235-.84236 1.57368-2.06978 2.15958-3.27769z" fill="#00a008"/></svg>