<svg fill="none" height="24" viewBox="0 0 24 24" width="24" xmlns="http://www.w3.org/2000/svg"><path d="m10.1241 3.80252c.6594-1.349 3.0924-1.349 3.7518 0 .6866 1.40478 1.5388 2.8243 2.5181 3.80353.9792.97922 2.3987 1.83148 3.8035 2.51805 1.349.6594 1.349 3.0924 0 3.7518-1.4048.6866-2.8243 1.5388-3.8035 2.5181-.9793.9792-1.8315 2.3987-2.5181 3.8035-.6594 1.349-3.0924 1.349-3.7518 0-.68657-1.4048-1.53883-2.8243-2.51805-3.8035-.97923-.9793-2.39875-1.8315-3.80353-2.5181-1.349-.6594-1.349-3.0924 0-3.7518 1.40478-.68657 2.8243-1.53883 3.80353-2.51805.97922-.97923 1.83148-2.39875 2.51805-3.80353z" fill="#00a008"/></svg>