<svg fill="none" height="16" viewBox="0 0 16 16" width="16" xmlns="http://www.w3.org/2000/svg"><path clip-rule="evenodd" d="m11.8535 3.36119c.6108-.4272 1.4091-.47988 2.0703-.13574.62.32287 1.0233.94497 1.0713 1.63574l.0049.13868v7.00003c-.0001.5521-.4478 1-1 1h-3v-4.15921l-3 2.10061-3-2.10061v4.15921h-3c-.5522 0-.99986-.4479-1-1v-7.00003l.00488-.13868c.04805-.69077.45127-1.31287 1.07129-1.63574.6612-.34414 1.45952-.29146 2.07031.13574l3.85352 2.69727zm-9.3535 8.13871h1v-3.59867l-1-.66699zm10-3.59867v3.59867h1v-4.26566zm-4.5-.01172-3-2.0996v1.21972l3 2.10059 3-2.10059v-1.21972zm-4.71387-3.29882c-.15335-.10711-.35312-.11979-.51758-.03418-.15029.07849-.25102.22873-.2666.39746l-.00195.07031v.40723l1 .66699v-1.3584zm9.94527-.03418c-.1645-.08564-.3651-.07404-.5185.0332l.001.00098-.2139.14941v1.3584l1-.66699v-.40723l-.0029-.07031c-.0156-.1687-.1154-.31899-.2657-.39746z" fill="#00a008" fill-rule="evenodd"/></svg>