<svg fill="none" height="20" viewBox="0 0 20 20" width="20" xmlns="http://www.w3.org/2000/svg"><path clip-rule="evenodd" d="m14.7998 4.40038c.606-.45452 1.4172-.52823 2.0947-.18945.6776.33879 1.1055 1.03153 1.1055 1.78906v9.00001l-.0049.1025c-.0479.4704-.4221.8447-.8926.8926l-.1025.0049h-3v-6.00098l-4 3.00098-4-3.00098v6.00098h-3l-.10254-.0049c-.47041-.0479-.84466-.4222-.89258-.8926l-.00488-.1025v-9.00001c0-.71024.37607-1.36366.98145-1.72168l.12402-.06738c.67757-.33878 1.48869-.26507 2.09473.18945l4.7998 3.59961zm-11.2998 10.09962h1v-5.59864l-1-.73535zm12-5.59864v5.59864h1v-6.33399zm-5.5.97363-4-3v1.24805l4 3.00096 4-3.00096v-1.24805zm-5.7002-4.27441c-.15222-.11408-.35492-.13211-.52343-.04785-.16911.08456-.27637.25758-.27637.44726v.30371l1 .73536v-1.28907zm11.9238-.04785c-.1685-.08426-.3712-.06623-.5234.04785l-.2002.14941v1.28907l1-.73536v-.30371c0-.18968-.1073-.3627-.2764-.44726z" fill="#00a008" fill-rule="evenodd"/></svg>