<svg fill="none" height="24" viewBox="0 0 24 24" width="24" xmlns="http://www.w3.org/2000/svg"><path clip-rule="evenodd" d="m18.0215 5.48438c.7596-.557 1.7681-.64047 2.6084-.21485.8403.42582 1.37 1.28844 1.3701 2.23047v9.5c0 1.0357-.7872 1.887-1.7959 1.9893-.0671.0068-.1352.0107-.2041.0107h-3v-6.5674l-5 3.668-5-3.668v6.5674h-3c-1.10457 0-2-.8954-2-2v-9.5c.00005-.94203.5298-1.80465 1.37012-2.23047.84026-.42562 1.8488-.34215 2.6084.21485l6.02148 4.41504zm-14.5215 11.51562c0 .2761.22386.5.5.5h1.5v-6.1221l-2-1.37887zm15-5.6221v6.1221h1.5c.0119 0 .029-.0005.0527-.0029.2511-.0255.4473-.2396.4473-.4971v-7.00097zm-6.5.3819-5-3.66702v2.47952l5 3.6679 5-3.6679v-2.47952zm-6.9082-5.06546c-.30452-.2233-.70862-.25676-1.04395-.08691-.29381.14895-.49284.43204-.53808.75293l-.00977.13964v.67774l2 1.37793v-2.5625zm14.8603-.08691c-.3353-.16985-.7394-.13639-1.0439.08691l-.4082.29883v2.5625l2-1.37793v-.67774c-.0001-.37693-.212-.72232-.5479-.89257z" fill="#00a008" fill-rule="evenodd"/></svg>