<svg fill="none" height="16" viewBox="0 0 16 16" width="16" xmlns="http://www.w3.org/2000/svg"><path d="m1.67397 11c1.12346 2.3649 3.53397 4 6.32636 4 2.79237 0 5.20287-1.6351 6.32637-4z" fill="#d7280f"/><path d="m1.67363 5h12.65277c.4319.90926.6736 1.9264.6736 3s-.2417 2.0907-.6736 3h-12.65277c-.43194-.9093-.67363-1.9264-.67363-3s.24169-2.09074.67363-3z" fill="#0043db"/><path d="m1.67397 5h12.65273c-1.1235-2.36495-3.534-4-6.32637-4-2.79239 0-5.2029 1.63505-6.32636 4z" fill="#fff"/><path d="m1.67363 5c-.43194.90926-.67363 1.9264-.67363 3 0 3.866 3.13401 7 7 7 3.866 0 7-3.134 7-7 0-1.0736-.2417-2.09074-.6736-3h-1.1291c.5105.88252.8027 1.90714.8027 3 0 3.3137-2.6863 6-6 6-3.31371 0-6-2.6863-6-6 0-1.09286.29218-2.11748.80269-3z" fill="#1d1f26" fill-opacity=".2"/><path d="m13.1975 5c-1.0374-1.7934-2.9765-3-5.1973-3-2.22085 0-4.15988 1.2066-5.19731 3h-1.12906c1.12346-2.36495 3.53397-4 6.32637-4s5.2029 1.63505 6.3264 4z" fill="#063cb7" fill-opacity=".4"/></svg>