<svg fill="none" height="20" viewBox="0 0 20 20" width="20" xmlns="http://www.w3.org/2000/svg"><path d="m18.4875 13c-1.2355 3.4956-4.5692 6-8.4879 6-3.91866 0-7.25237-2.5044-8.48788-6z" fill="#d7280f"/><path d="m1.51212 7h16.97578c.3316.93834.5121 1.94809.5121 3 0 1.0519-.1805 2.0617-.5121 3h-16.97578c-.33166-.9383-.51212-1.9481-.51212-3 0-1.05191.18046-2.06166.51212-3z" fill="#0043db"/><path d="m1.51172 7c1.23551-3.49558 4.56923-6 8.48788-6 3.9187 0 7.2524 2.50442 8.4879 6z" fill="#fff"/><path d="m1.51212 7c-.33166.93834-.51212 1.94809-.51212 3 0 4.9706 4.02944 9 9 9 4.9706 0 9-4.0294 9-9 0-1.05191-.1805-2.06166-.5121-3h-1.0694c.375.92643.5815 1.9391.5815 3 0 4.4183-3.5817 8-8 8-4.41828 0-8-3.5817-8-8 0-1.0609.20651-2.07357.58152-3z" fill="#1d1f26" fill-opacity=".2"/><path d="m17.4181 7c-1.1868-2.93183-4.0611-5-7.4185-5-3.35738 0-6.23171 2.06817-7.41848 5h-1.0694c1.23551-3.49558 4.56923-6 8.48788-6 3.9187 0 7.2524 2.50442 8.4879 6z" fill="#063cb7" fill-opacity=".4"/></svg>