<svg fill="none" height="24" viewBox="0 0 24 24" width="24" xmlns="http://www.w3.org/2000/svg"><path d="m2.83203 16c1.54311 3.5318 5.06727 6 9.16787 6 4.1007 0 7.6248-2.4682 9.168-6z" fill="#d7280f"/><path d="m2.83209 8h18.33581c.5352 1.22493.8321 2.5778.8321 4s-.2969 2.7751-.8321 4h-18.33581c-.53519-1.2249-.83209-2.5778-.83209-4s.2969-2.77507.83209-4z" fill="#0043db"/><path d="m2.83203 8h18.33587c-1.5432-3.53181-5.0673-6-9.168-6-4.10059 0-7.62476 2.46819-9.16787 6z" fill="#fff"/><path d="m20.0645 8c-1.4727-2.96344-4.5308-5-8.0645-5-3.53372 0-6.59177 2.03656-8.06448 5h-1.10343c1.54312-3.53181 5.06728-6 9.16791-6 4.1006 0 7.6248 2.46819 9.1679 6z" fill="#063cb7" fill-opacity=".4"/><path d="m2.83209 8c-.5352 1.22492-.83209 2.5778-.83209 4 0 5.5228 4.47715 10 10 10 5.5228 0 10-4.4772 10-10 0-1.4222-.2969-2.77508-.8321-4h-1.1034c.5988 1.20496.9355 2.5632.9355 4 0 4.9706-4.0294 9-9 9-4.97056 0-9-4.0294-9-9 0-1.4368.33671-2.79504.93552-4z" fill="#1d1f26" fill-opacity=".2"/></svg>