<svg fill="none" height="16" viewBox="0 0 16 16" width="16" xmlns="http://www.w3.org/2000/svg"><g fill="#00a008"><path d="m1 4.75c0-2.07107 1.67893-3.75 3.75-3.75h3.5c.41421 0 .75.33579.75.75s-.33579.75-.75.75h-3.5c-1.24264 0-2.25 1.00736-2.25 2.25v6.5c0 1.2426 1.00736 2.25 2.25 2.25h6.5c1.2426 0 2.25-1.0074 2.25-2.25v-3.5c0-.41421.3358-.75.75-.75s.75.33579.75.75v3.5c0 2.0711-1.6789 3.75-3.75 3.75h-6.5c-2.07107 0-3.75-1.6789-3.75-3.75z"/><path d="m14.251 1h-2.501c-.4142 0-.75.33579-.75.75s.3358.75.75.75h.6768l-.9875.94075c-.2923.29275-.2922.76704.0004 1.0596.2928.29284.7677.29268 1.0603-.00035l1.002-.95527v.70657c0 .41366.3353.749.749.749s.749-.33534.749-.749v-2.5013c0-.41421-.3353-.75-.749-.75z"/><path d="m5.5 6.66671v-1.66671l1.5.00016 1 2.08323 1-2.08323 1.4997.00014.0003 1.66657.5.00029v.83307l-.5-.0003v.83351l.5.00029v.83321h-.5v1.83306l-1.49974-.0001-.00026-3.4999-.5 1.5h-1.11402l-.38598-1.5v3.4999l-1.5-.0002v-1.83336l-.5.0006v-.83321l.5-.0006v-.8335l-.5.0006v-.83307z"/></g></svg>