<svg fill="none" height="20" viewBox="0 0 20 20" width="20" xmlns="http://www.w3.org/2000/svg"><g fill="#00a008"><path d="m11.25 1.5c.4142 0 .75.33579.75.75s-.3358.75-.75.75h-5.25c-1.65685 0-3 1.34315-3 3v8c0 1.6569 1.34315 3 3 3h8c1.6569 0 3-1.3431 3-3v-5.25c0-.41421.3358-.75.75-.75s.75.33579.75.75v5.25c0 2.4853-2.0147 4.5-4.5 4.5h-8c-2.48528 0-4.5-2.0147-4.5-4.5v-8c0-2.48528 2.01472-4.5 4.5-4.5z"/><path d="m17.4782 3.55078v.69922c0 .41421.3358.75.75.75s.75-.33579.75-.75v-2.45c0-.44183-.3581-.8-.8-.8h-2.45c-.4142 0-.75.33579-.75.75s.3358.75.75.75h.6758l-1.904 1.9375c-.2934.2934-.2934.7691 0 1.0625s.7691.2934 1.0625 0z"/><path d="m7 7v1.99982l-1 .00053v.99965l1-.00053v1.00013l-1 .0006v.9998l1-.0005v1l1.5.0005v-3.5l.75714 1.5h1.48536l.7575-1.5v3.5007l1.5-.0007v-1h1v-.9998h-1v-1.0002h1v-.99965h-1l-.0004-1.99982h-1.4l-1.5996 2.49947-1.6-2.49947z"/></g></svg>