<svg fill="none" height="24" viewBox="0 0 24 24" width="24" xmlns="http://www.w3.org/2000/svg"><g fill="#00a008"><path d="m13.25 2c.4142 0 .75.33579.75.75s-.3358.75-.75.75h-6c-2.07107 0-3.75 1.67893-3.75 3.75v9.5c0 2.0711 1.67893 3.75 3.75 3.75h9.5c2.0711 0 3.75-1.6789 3.75-3.75v-6c0-.4142.3358-.75.75-.75s.75.3358.75.75v6c0 2.8995-2.3505 5.25-5.25 5.25h-9.5c-2.8995 0-5.25-2.3505-5.25-5.25v-9.5c0-2.8995 2.35051-5.25 5.25-5.25z"/><path d="m17.4994 2.75c0 .41421.3358.75.75.75h1.1754l-1.9341 1.93564c-.2926.29281-.2925.76732.0002 1.06001.2928.29285.7677.29276 1.0604-.00021l1.95-1.95149v1.20668c0 .41386.3355.74937.7493.74937.4139 0 .7494-.33551.7494-.74937v-3.00063c0-.41421-.3355-.75-.7494-.75h-3.0012c-.4142 0-.75.33579-.75.75z"/><path d="m8.50044 10-.00044-2h1.5l2.0002 4.3327 1.9998-4.3327h1.5l.0004 2h1.5v1h-1.5l-.0004 2h1.5l.0004 1h-1.5v2h-1.5v-4.5l-1.0718 2.5h-1.8567l-1.0719-2.5.0004 4.5h-1.49996v-2h-1.5l-.00044-1h1.5l.00044-2h-1.5v-1z"/></g></svg>