<svg fill="none" height="16" viewBox="0 0 16 16" width="16" xmlns="http://www.w3.org/2000/svg"><path d="m2.86648 2.28712c.86-.63155 1.93269-.91791 2.99317-.73046 1.07127.18957 2.06477.85011 2.77636 1.98535.08645.13795.12076.29329.11133.44433.00156.08304-.00743.16774-.03515.25098l-.79493 2.38281 1.41797.70899c.32264.16142.48477.53004.38574.87695l-1 3.50003c-.11382.3981-.52859.6283-.92675.5146-.3982-.1138-.62843-.5285-.51465-.9267l.82812-2.90238-1.44238-.72071c-.33383-.16691-.49498-.55412-.37695-.9082l.89453-2.68652c-.47575-.63321-1.04103-.94585-1.58399-1.042-.62423-.11042-1.28619.05253-1.84375.46192-1.07889.79241-1.8432 2.60782-.65625 5.13281.46166.98192 1.33735 1.99628 2.34864 2.89648.86547.7704 1.79098 1.422 2.55273 1.8652.76175-.4432 1.6873-1.0949 2.55273-1.8652 1.0112-.9001 1.887-1.91459 2.3486-2.89648.8088-1.72048.7038-3.11011.2393-4.05176-.4724-.95729-1.3364-1.51038-2.1934-1.57129-.4131-.02926-.7245-.38858-.6953-.80175.0296-.41284.3879-.72346.8008-.69434 1.4252.10105 2.741 1.00174 3.4326 2.40332.6994 1.41736.7431 3.29206-.2265 5.35449-.5846 1.24331-1.627 2.41661-2.708 3.37891-1.0882.9686-2.27086 1.7724-3.19829 2.2656-.2201.1171-.48496.117-.70508 0-.92731-.4931-2.10915-1.2972-3.19726-2.2656-1.08119-.9624-2.12437-2.1355-2.70899-3.37891-1.436163-3.05473-.63135-5.69019 1.125-6.98047z" fill="#00a008"/></svg>