<svg fill="none" height="20" viewBox="0 0 20 20" width="20" xmlns="http://www.w3.org/2000/svg"><path d="m12.8945 2.04718c1.9038-.26992 3.8424.62793 4.9414 2.29492 1.1175 1.69531 1.324 4.10075-.0225 6.7871-.7345 1.4652-2.0484 2.8783-3.4209 4.0479-1.3804 1.1762-2.8817 2.1575-4.0576 2.7441-.2107.105-.45922.1051-.66992 0-1.17596-.5866-2.67722-1.5678-4.05762-2.7441-1.37253-1.1696-2.68641-2.5827-3.4209-4.0479-1.822895-3.63689-.77866-6.73526 1.38574-8.22655 2.12981-1.46715 5.23654-1.25393 7.0508 1.46094.0716.10731.1079.22663.1191.34668.0016.01334.003.02657.0039.04004.0009.02225.0011.04423 0 .0664-.0015.07016-.0088.14173-.0312.21192l-1.27541 3.99316 2.29781.7666c.199.06635.3614.21301.4473.40431.0858.1912.0873.4099.0049.6025l-1.5 3.501c-.1634.3802-.6049.5566-.98536.3936-.38036-.1633-.55641-.6049-.39356-.9854l1.17872-2.751-2.22657-.7422c-.38913-.1298-.60206-.54856-.47754-.93941l1.38867-4.35351c-1.32064-1.69238-3.32585-1.76207-4.75097-.78028-1.46473 1.00938-2.4294 3.25602-.89453 6.3184.60481 1.2065 1.74605 2.4664 3.05175 3.5791 1.16448.9923 2.4131 1.8254 3.41993 2.3672 1.00676-.5418 2.25546-1.375 3.41996-2.3672 1.3056-1.1127 2.4469-2.3726 3.0517-3.5791 1.1477-2.28983.8872-4.11355.1123-5.2891-.7936-1.20375-2.1734-1.81968-3.4785-1.63477-.4098.05802-.7892-.22703-.8477-.63671-.0581-.41004.2268-.79038.6368-.84864z" fill="#00a008"/></svg>