<svg fill="none" height="24" viewBox="0 0 24 24" width="24" xmlns="http://www.w3.org/2000/svg"><path d="m14.8336 3.35142c2.1572-.48937 4.4286.43205 5.7432 2.27539 1.3365 1.87452 1.6402 4.61619.0937 7.70899-.8147 1.629-2.2753 3.2059-3.8086 4.5156-1.5411 1.3164-3.2163 2.4144-4.5263 3.0694-.2111.1054-.4599.1055-.6709 0-1.3101-.655-2.98519-1.753-4.52641-3.0694-1.53336-1.3097-2.99392-2.8866-3.8086-4.5156-2.02369-4.04701-.86043-7.47224 1.52149-9.11719 2.34827-1.62131 5.77102-1.38642 7.77242 1.61523.0346.05182.0599.10698.0801.16309.0071.01981.0121.04013.0176.06055.0068.0254.0136.05043.0176.07617.0039.02484.0054.04985.0068.07519.0013.02322.0019.04619.001.06934-.0015.03699-.0046.07406-.0117.11133-.0015.00754-.0033.01496-.0049.02246-.0032.01448-.0057.02949-.0098.04394l-1.3027 4.55859 2.3193.7734c.3846.1282.5979.5395.4815.9278l-1.5 5c-.1192.3965-.538.6219-.9346.5029-.3964-.1192-.6217-.5381-.5029-.9346l1.29-4.3027-2.3086-.7695c-.38066-.1271-.59351-.5321-.48339-.918l1.39939-4.90136c-1.50989-1.9831-3.83166-2.07463-5.47556-.93946-1.6829 1.1624-2.76928 3.7379-1.03223 7.21192.68533 1.3704 1.9751 2.7934 3.44141 4.0459 1.32484 1.1316 2.74658 2.0816 3.88768 2.6924 1.1412-.6108 2.5636-1.5606 3.8887-2.6924 1.4662-1.2525 2.7551-2.6756 3.4404-4.0459 1.3406-2.68092.9899-4.81685.0274-6.16699-.9849-1.38118-2.658-2.03123-4.1905-1.6836-.4036.09135-.8056-.1619-.8974-.56543-.0916-.40376.1618-.80558.5654-.89746z" fill="#00a008"/></svg>