<svg fill="none" height="16" viewBox="0 0 16 16" width="16" xmlns="http://www.w3.org/2000/svg"><path clip-rule="evenodd" d="m7.75 1c-1.51878 0-2.75 1.23122-2.75 2.75v.25h-.25c-1.51878 0-2.75 1.23122-2.75 2.75v5.5c0 1.5188 1.23122 2.75 2.75 2.75h3.5c1.51878 0 2.75-1.2312 2.75-2.75v-.25h.25c1.5188 0 2.75-1.2312 2.75-2.75v-5c0-1.79493-1.4551-3.25-3.25-3.25zm3.25 9.5h.25c.6904 0 1.25-.55964 1.25-1.25v-5c0-.9665-.7835-1.75-1.75-1.75h-3c-.69036 0-1.25.55964-1.25 1.25v.25h2c1.38071 0 2.5 1.11929 2.5 2.5zm-7.5-3.75c0-.69036.55964-1.25 1.25-1.25h3.75c.55228 0 1 .44772 1 1v5.75c0 .6904-.55964 1.25-1.25 1.25h-3.5c-.69036 0-1.25-.5596-1.25-1.25z" fill="#00a008" fill-rule="evenodd"/></svg>