<svg fill="none" height="20" viewBox="0 0 20 20" width="20" xmlns="http://www.w3.org/2000/svg"><path clip-rule="evenodd" d="m11.25 19c1.8363 0 3.3644-1.3199 3.6872-3.0628 1.7429-.3228 3.0628-1.8509 3.0628-3.6872v-7.25c0-2.20914-1.7909-4-4-4h-5.25c-1.83635 0-3.36441 1.31994-3.68718 3.06282-1.74288.32277-3.06282 1.85083-3.06282 3.68718v7.5c0 2.0711 1.67893 3.75 3.75 3.75zm-7.75-11.25c0-1.24264 1.00736-2.25 2.25-2.25h5.75c1.1046 0 2 .89543 2 2v7.75c0 1.2426-1.0074 2.25-2.25 2.25h-5.5c-1.24264 0-2.25-1.0074-2.25-2.25zm8-3.75h-4.87197c.30888-.87389 1.14231-1.5 2.12197-1.5h5.25c1.3807 0 2.5 1.11929 2.5 2.5v7.25c0 .9797-.6261 1.8131-1.5 2.122v-6.872c0-1.933-1.567-3.5-3.5-3.5z" fill="#00a008" fill-rule="evenodd"/></svg>