<svg fill="none" height="24" viewBox="0 0 24 24" width="24" xmlns="http://www.w3.org/2000/svg"><path clip-rule="evenodd" d="m17 2c2.2091 0 4 1.79086 4 4v9.25c0 1.8363-1.3197 3.3646-3.0625 3.6875-.3229 1.7428-1.8512 3.0625-3.6875 3.0625h-7.5c-2.07107 0-3.75-1.6789-3.75-3.75v-9.5c0-1.83626 1.31974-3.36463 3.0625-3.6875.32287-1.74276 1.85124-3.0625 3.6875-3.0625zm-10.25 4.5c-1.24264 0-2.25 1.00736-2.25 2.25v9.5c0 1.2426 1.00736 2.25 2.25 2.25h7.5c1.2426 0 2.25-1.0074 2.25-2.25v-9.75c0-1.10457-.8954-2-2-2zm3-3c-.97966 0-1.81319.62611-2.12207 1.5h6.87207c1.933 0 3.5 1.567 3.5 3.5v8.8721c.8739-.3089 1.5-1.1424 1.5-2.1221v-9.25c0-1.38071-1.1193-2.5-2.5-2.5z" fill="#00a008" fill-rule="evenodd"/></svg>