<svg fill="none" height="20" viewBox="0 0 20 20" width="20" xmlns="http://www.w3.org/2000/svg"><g fill="#00a008"><path d="m9.26065 3.18023c.08053-.43887.31944-1.38601 1.00775-2.108.6884-.72199 1.5914-.9725768 2.0098-1.0570503.5364-.108288 1.0011.3791293.8978.9417273-.0805.438873-.3194 1.386013-1.0078 2.108003-.6883.72199-1.5913.97258-2.0097 1.05705-.5364.10829-1.0011-.37913-.89785-.94173z"/><path clip-rule="evenodd" d="m8.78715 4.72041c-1.15367-.33599-2.05355-.43742-3.28494.01558-1.1372.41834-1.69618 1.01361-2.35807 1.86259-1.10112 1.41236-1.30481 3.08786-1.04014 4.67582.26217 1.573.98727 3.1067 1.81478 4.3621.46398.7038.92415 1.3348 1.54093 1.7614.6477.4481 1.39017.622 2.33317.6003.59505-.0137 1.21794-.2095 1.6883-.3939.46503-.1824.99102-.1824 1.45602 0 .4704.1844 1.0933.3802 1.6883.3939.943.0217 1.6855-.1522 2.3332-.6003.6168-.4266 1.0769-1.0576 1.5409-1.7614.4794-.7273.9204-1.5417 1.2583-2.3987l.2421-.6138-.538-.3504c-.9207-.5996-1.5311-1.6676-1.5311-2.88439 0-.89155.327-1.70125.8633-2.30723l.4745-.53603-.4777-.53283c-.5081-.56666-1.0403-.97012-1.8748-1.27713-1.2314-.453-2.1313-.35157-3.285-.01558-.2154.06275-.4356.15287-.6356.24527-.4984.23023-1.07444.23023-1.5728 0-.20002-.0924-.42018-.18252-.63565-.24527z" fill-rule="evenodd"/></g></svg>