<svg fill="none" height="16" viewBox="0 0 16 16" width="16" xmlns="http://www.w3.org/2000/svg"><g fill="#00a008"><path clip-rule="evenodd" d="m11.333 1c.4142 0 .75.33579.75.75s-.3358.75-.75.75c-.5553.00008-.8303.21498-.9912.43848-.1261.17526-.1968.38457-.2314.56738 1.2314.61044 2.1174 1.82608 2.2539 3.27832l.0673.71582h1.5684c.4142 0 .75.33579.75.75s-.3358.75-.75.75h-1.4902c-.075 1.6371-.8067 3.1895-2.0547 4.2881l-.63772.5615c-1.03876.9143-2.596.9143-3.63476 0l-.6377-.5615c-1.24807-1.0986-1.97974-2.651-2.05469-4.2881h-1.49023c-.41421 0-.75-.33579-.75-.75s.33579-.75.75-.75h1.56836l.06738-.71582c.13647-1.45194 1.02186-2.66775 2.25293-3.27832-.03462-.18277-.10439-.39218-.23047-.56738-.16092-.2235-.43587-.4384-.99121-.43848-.41421 0-.75-.33579-.75-.75s.33579-.75.75-.75c1.04426.00009 1.76998.4518 2.20899 1.06152.2408.3345.38273.70115.46093 1.03809.12011-.01066.24158-.01659.36426-.0166h.59766c.12235.00001.24349.00599.36328.0166.07819-.337.22106-.70352.46191-1.03809.43901-.60972 1.16468-1.06143 2.20898-1.06152zm-6.33202 7.29297c-.13727 1.46109.43357 2.89953 1.53515 3.86913l.6377.5615c.47216.4156 1.18018.4156 1.65234 0l.6377-.5615c1.10163-.9696 1.67243-2.40804 1.53513-3.86913l-.0918-.97168c-.5167.31317-1.23079.60998-2.1572.71777v1.96094c0 .4142-.33579.75-.75.75s-.75-.3358-.75-.75v-1.95996c-.92726-.10785-1.64127-.40621-2.1582-.71973zm2.70019-3.70996c-.91379.00012-1.72488.47667-2.18457 1.2041.08828.07306.19897.15752.33496.24121.43449.26732 1.13341.55463 2.14844.55469 1.01485-.00006 1.71393-.28741 2.1484-.55469.136-.08371.2457-.16909.334-.24219-.4598-.72678-1.27025-1.203-2.18357-1.20312z" fill-rule="evenodd"/><path d="m2.27246 10.8184c.10044-.4018.50741-.6463.90918-.5459s.64621.5074.5459.9091l-.07031.2832c-.10408.4164-.1572.8444-.15723 1.2735v.5947c0 .4142-.33579.75-.75.75s-.75-.3358-.75-.75v-.5947c.00003-.5517.06737-1.1015.20117-1.6367z"/><path d="m12.8184 10.2725c.4017-.1004.8087.1441.9091.5459l.0713.2832c.1338.5352.2012 1.085.2012 1.6367v.5947c0 .4142-.3358.75-.75.75s-.75-.3358-.75-.75v-.5947c0-.4291-.0531-.8571-.1572-1.2735l-.0703-.2832c-.1004-.4017.1441-.8087.5459-.9091z"/><path d="m2.75 3.25c.41421 0 .75.33579.75.75v.52832c.00007.19389.04513.38517.13184.55859l.03906.07813c.18494.37041.03441.82068-.33594 1.00586-.37041.18494-.82068.03441-1.00586-.33594l-.03906-.07715c-.19085-.38171-.28997-.80273-.29004-1.22949v-.52832c0-.41421.33579-.75.75-.75z"/><path d="m13.25 3.25c.4142 0 .75.33579.75.75v.52832c-.0001.42676-.0992.84778-.29 1.22949l-.0391.07715c-.1852.37035-.6355.52088-1.0059.33594-.3703-.18518-.5208-.63545-.3359-1.00586l.0391-.07813c.0867-.17342.1317-.3647.1318-.55859v-.52832c0-.41421.3358-.75.75-.75z"/></g></svg>