<svg fill="none" height="20" viewBox="0 0 20 20" width="20" xmlns="http://www.w3.org/2000/svg"><path clip-rule="evenodd" d="m14.167 1.75c.4141.00018.75.33589.75.75s-.3359.74982-.75.75c-.7554 0-1.1556.29833-1.3916.62598-.1435.19945-.2366.42752-.292.6416 1.2152.57837 2.1597 1.64177 2.5752 2.95312.2407-.11721.4151-.20493.5508-.29101.1786-.11342.2295-.1826.2578-.23633.0381-.0726.0827-.21164.1074-.54102.0248-.32992.0254-.76558.0254-1.40234 0-.41421.3358-.75.75-.75s.75.33579.75.75c0 .61324.0006 1.11541-.0293 1.51465-.03.39963-.0948.78197-.2754 1.12597-.1904.36261-.4682.60589-.7812.80469-.2935.18635-.6708.36495-1.0918.56543-.0019.00088-.004.00109-.0059.00196l.0801.85546c.0041.04393.0064.08795.0097.13184h2.0938c.4142 0 .75.3358.75.75s-.3358.75-.75.75h-2.1309c-.0437.3431-.1147.6804-.205 1.0117.3002.1671.5898.3257.8183.4658.322.1976.6361.4256.8887.7471.5175.659.6289 1.5257.6289 2.7754 0 .4142-.3358.75-.75.75s-.75-.3358-.75-.75c0-1.2501-.1389-1.6336-.3086-1.8496-.0911-.1158-.2305-.2319-.4941-.3936-.1727-.1059-.3548-.2063-.5782-.33-.5076.9969-1.2398 1.8833-2.165 2.5752l-.5078.3798c-1.1539.8625-2.73874.8625-3.89259 0l-.50781-.3798c-.92532-.692-1.65839-1.5781-2.16602-2.5752-.22306.1235-.40465.2242-.57715.33-.26359.1617-.40307.2778-.49414.3936-.16971.216-.30859.5995-.30859 1.8496 0 .4142-.33579.75-.75.75s-.75-.3358-.75-.75c0-1.2497.11135-2.1164.62891-2.7754.25264-.3215.56665-.5495.88867-.7471.22829-.14.51739-.2989.81738-.4658-.09032-.3312-.16036-.6687-.2041-1.0117h-2.13086c-.41421 0-.75-.3358-.75-.75s.33579-.75.75-.75h2.09375c.00334-.04389.00564-.08791.00977-.13184l.0791-.85546-.00489-.00196c-.42101-.20048-.79829-.37908-1.09179-.56543-.31303-.1988-.59081-.44208-.78125-.80469-.1806-.344-.24541-.72634-.27539-1.12597-.02995-.39924-.0293-.90141-.0293-1.51465 0-.41421.33579-.75.75-.75s.75.33579.75.75c0 .63676.00065 1.07242.02539 1.40234.02471.32938.06931.46842.10742.54102.02826.05373.07918.12291.25781.23633.1355.08599.30951.17398.54981.29101.41537-1.31119 1.36032-2.37462 2.57519-2.95312-.05541-.21401-.14753-.44223-.29101-.6416-.23597-.32765-.63616-.62598-1.3916-.62598-.41407-.00018-.75-.33589-.75-.75s.33593-.74982.75-.75c1.24418 0 2.09432.53529 2.6084 1.24902.25164.3495.41398.72946.51269 1.08887.22024-.03022.44483-.0459.67285-.0459h.74605c.2277 0 .452.01576.6719.0459.0987-.35949.262-.73929.5137-1.08887.5141-.71373 1.3642-1.24902 2.6084-1.24902zm-.5967 7.22168c-.6568.40418-1.5891.79309-2.8203.90918v2.62014l-.0039.0761c-.0386.3781-.3579.6739-.7461.6739-.38822 0-.70755-.2958-.74609-.6739l-.00391-.0761v-2.62014c-1.23108-.11614-2.1635-.50499-2.82031-.90918-.07862-.04839-.15214-.09837-.22266-.14648l-.11035 1.1836c-.19264 2.0524.6967 4.0576 2.34766 5.292l.50781.3799c.62124.4642 1.47445.4642 2.09575 0l.5078-.3799c1.6509-1.2344 2.5403-3.2396 2.3476-5.292l-.1113-1.1836c-.0703.04791-.1434.09829-.2217.14648zm-3.94335-3.42969c-1.26664 0-2.38086.69356-2.9707 1.73438.12953.1175.31444.2671.55957.41797.56989.3507 1.47725.72259 2.78418.72265 1.3066-.00006 2.2133-.37204 2.7832-.72265.2449-.15072.4299-.30058.5596-.41797-.5899-1.04059-1.7033-1.73438-2.9698-1.73438z" fill="#00a008" fill-rule="evenodd"/></svg>