<svg fill="none" height="24" viewBox="0 0 24 24" width="24" xmlns="http://www.w3.org/2000/svg"><path clip-rule="evenodd" d="m17 2.25c.4142 0 .75.33579.75.75s-.3358.75-.75.75c-.9556 0-1.4801.3816-1.791.81348-.2122.29465-.3394.63484-.4043.9414 1.4671.66017 2.6127 1.91919 3.1152 3.48145.2007-.09458.3626-.17658.4981-.25684.2524-.14957.3445-.25364.3974-.34765.0615-.10951.1194-.29442.1514-.69239.0321-.40033.0332-.92714.0332-1.68945 0-.41421.3358-.75.75-.75s.75.33579.75.75c0 .73741.001 1.33594-.0371 1.81055-.0383.47625-.1212.91717-.3408 1.30761-.2283.40563-.5583.67704-.9385.90234-.2718.161-.6046.3149-.9834.4854l.1396 1.4941h2.6602c.4142 0 .75.3358.75.75s-.3358.75-.75.75h-2.6436c-.0344.4615-.1062.9171-.2119 1.3633.0071.0044.0146.008.0215.0127.5506.367 1.0077.6712 1.3584.957.3624.2953.6599.6088.8652 1.0195.2023.4047.2847.8423.3233 1.3311.038.4816.0371 1.0787.0371 1.8164 0 .4142-.3358.75-.75.75s-.75-.3358-.75-.75c0-.762-.0009-1.2903-.0332-1.6992-.0317-.4014-.0901-.6206-.1689-.7783-.0759-.1516-.2006-.3072-.4708-.5274-.2262-.1844-.5209-.3856-.9248-.6562-.5588 1.284-1.424 2.4354-2.5507 3.3379l-.7569.6064c-1.3702 1.0974-3.3192 1.0974-4.68943 0l-.75683-.6064c-1.08886-.8722-1.93512-1.976-2.49512-3.208-.30644.2075-.54209.3728-.73047.5263-.27017.2202-.39484.3758-.4707.5274-.07886.1577-.13723.3769-.16895.7783-.03228.4089-.0332.9372-.0332 1.6992 0 .4142-.33579.75-.75.75s-.75-.3358-.75-.75c0-.7377-.00088-1.3348.03711-1.8164.03859-.4888.12102-.9264.32324-1.3311.20539-.4107.50288-.7242.86524-1.0195.30832-.2512.69909-.5163 1.16308-.8262-.12521-.4916-.20694-.9958-.24512-1.5068h-2.64355c-.41421 0-.75-.3358-.75-.75s.33579-.75.75-.75h2.66016l.13867-1.4941c-.37846-.1703-.71086-.3245-.98242-.4854-.38017-.2253-.71017-.49671-.93848-.90234-.21962-.39044-.30252-.83136-.34082-1.30761-.03814-.47461-.03711-1.07314-.03711-1.81055 0-.41421.33579-.75.75-.75s.75.33579.75.75c0 .76231.00106 1.28912.0332 1.68945.03198.39797.08992.58288.15137.69239.05289.09401.14506.19808.39746.34765.13528.08015.29674.16242.49707.25684.50243-1.56211 1.64847-2.82114 3.11524-3.48145-.06491-.30651-.19122-.64681-.40332-.9414-.31096-.43188-.83546-.81348-1.79102-.81348-.41421 0-.75-.33579-.75-.75s.33579-.75.75-.75c1.44438 0 2.41973.61845 3.0088 1.43652.3206.44526.5138.9348.623 1.3877.3003-.04844.6078-.07422.9209-.07422h.8946c.3127 0 .6199.02588.9199.07422.1093-.45296.3034-.94237.624-1.3877.5891-.81807 1.5644-1.43652 3.0088-1.43652zm-.3262 8.0674c-.1399.104-.2941.2144-.4677.3213-.7941.4886-1.9354.9609-3.4561 1.081v3.2803c0 .4142-.3358.75-.75.75s-.75-.3358-.75-.75v-3.2803c-1.52075-.1201-2.66198-.5924-3.45605-1.081-.17391-.1071-.32869-.2172-.46875-.3213-.0012.0117-.00281.0234-.00391.0351l-.1709 1.8164c-.22825 2.4297.78093 4.8114 2.68555 6.337l.75786.6064c.822.6584 1.9904.6584 2.8124 0l.7579-.6064c1.9046-1.5256 2.9138-3.9073 2.6855-6.337l-.1709-1.8164c-.0011-.0117-.0037-.0234-.0049-.0351zm-5.1211-3.8174c-1.61724 0-3.03855.90759-3.75582 2.25977.00391.00379.00768.00784.01171.01171.16188.1554.41736.37132.77246.58985.70538.43399 1.82045.88867 3.41895.88867s2.7136-.45468 3.4189-.88867c.3551-.21853.6106-.43445.7725-.58985.0039-.0037.007-.00808.0107-.01171-.7173-1.35196-2.1377-2.25977-3.7548-2.25977z" fill="#00a008" fill-rule="evenodd"/></svg>