<svg fill="none" height="16" viewBox="0 0 16 16" width="16" xmlns="http://www.w3.org/2000/svg"><path clip-rule="evenodd" d="m6.75 1.5c-.9665 0-1.75.7835-1.75 1.75v1.76772c-.08165-.01168-.16512-.01772-.25-.01772h-2c-.9665 0-1.75.7835-1.75 1.75v6c0 .9665.7835 1.75 1.75 1.75h10.5c.9665 0 1.75-.7835 1.75-1.75v-4c0-.9665-.7835-1.75-1.75-1.75h-2c-.0849 0-.1683.00604-.25.01772v-3.76772c0-.9665-.7835-1.75-1.75-1.75zm4.25 7.25v4.25h2.25c.1381 0 .25-.1119.25-.25v-4c0-.13807-.1119-.25-.25-.25h-2c-.1381 0-.25.11193-.25.25zm-1.5-5.5c0-.13807-.11193-.25-.25-.25h-2.5c-.13807 0-.25.11193-.25.25v9.75h3zm-4.5 9.75v-6.25c0-.13807-.11193-.25-.25-.25h-2c-.13807 0-.25.11193-.25.25v6c0 .1381.11193.25.25.25z" fill="#00a008" fill-rule="evenodd"/></svg>