<svg fill="none" height="20" viewBox="0 0 20 20" width="20" xmlns="http://www.w3.org/2000/svg"><path clip-rule="evenodd" d="m6.5 4c0-1.10457.89543-2 2-2h3c1.1046 0 2 .89543 2 2v5.06301c.1598-.04113.3274-.06301.5-.06301h2c1.1046 0 2 .89543 2 2v5c0 1.1046-.8954 2-2 2h-12c-1.10457 0-2-.8954-2-2v-8c0-1.10457.89543-2 2-2h2c.17265 0 .34019.02188.5.06301zm1.5 12.5h4v-12.5c0-.27614-.2239-.5-.5-.5h-3c-.27614 0-.5.22386-.5.5zm5.5 0h2.5c.2761 0 .5-.2239.5-.5v-5c0-.2761-.2239-.5-.5-.5h-2c-.2761 0-.5.2239-.5.5zm-7 0v-8.5c0-.27614-.22386-.5-.5-.5h-2c-.27614 0-.5.22386-.5.5v8c0 .2761.22386.5.5.5z" fill="#00a008" fill-rule="evenodd"/></svg>