<svg fill="none" height="24" viewBox="0 0 24 24" width="24" xmlns="http://www.w3.org/2000/svg"><path clip-rule="evenodd" d="m8.5 5.25c0-1.24264 1.00736-2.25 2.25-2.25h2.5c1.2426 0 2.25 1.00736 2.25 2.25v5.878c.2346-.0829.487-.128.75-.128h2.5c1.2426 0 2.25 1.0074 2.25 2.25v5.5c0 1.2426-1.0074 2.25-2.25 2.25h-13.5c-1.24264 0-2.25-1.0074-2.25-2.25v-8.5c0-1.24264 1.00736-2.25 2.25-2.25h2.5c.26298 0 .51542.04512.75.12803zm5.5 14.25v-14.25c0-.41421-.3358-.75-.75-.75h-2.5c-.4142 0-.75.33579-.75.75v14.25zm1.5 0h3.25c.4142 0 .75-.3358.75-.75v-5.5c0-.4142-.3358-.75-.75-.75h-2.5c-.4142 0-.75.3358-.75.75zm-7-9.25v9.25h-3.25c-.41421 0-.75-.3358-.75-.75v-8.5c0-.41421.33579-.75.75-.75h2.5c.41421 0 .75.33579.75.75z" fill="#00a008" fill-rule="evenodd"/></svg>