<svg fill="none" height="16" viewBox="0 0 16 16" width="16" xmlns="http://www.w3.org/2000/svg"><path clip-rule="evenodd" d="m11.0288 1.08266c.3105-.102633.6462-.109949.9629-.02051.2611.07381.463.21598.624.35156.1551.13063.3273.3038.5108.48731l.7217.72265c.3012.30499.5386.57121.7529 1.00586.0976.19811.1786.47117.2334.69532.0548.22422.1094.50459.1142.72558.0051.23608-.0022.42575-.0302.60449-.0284.18005-.0748.32473-.1114.44043-.5833 1.84708-1.976 3.55318-3.5673 5.14455-1.59137 1.5913-3.29754 2.983-5.14457 3.5664-.11567.0365-.25945.0839-.43945.1123-.17885.0281-.3683.0344-.6045.0293-.22098-.0048-.5012-.0585-.72558-.1133-.2243-.0548-.49798-.1357-.69629-.2334-.43472-.2143-.70085-.4516-1.00586-.7529l-.72266-.7217c-.18354-.1835-.35665-.3556-.4873-.5107-.13561-.1611-.27774-.3629-.35156-.6241-.102189-.3618-.077681-.7481.07031-1.0937l.09082-.1758c.09941-.1629.22242-.2919.33887-.3984.14962-.137.34402-.2851.5498-.44339l1.69141-1.30176c.2389-.18377.52362-.41895.86523-.51465.20308-.05684.41471-.07374.62305-.05078l.20703.03614.12598.0371c.29061.10149.54205.29385.75683.44727l.92481.66113c.29823-.30195.61046-.61925.94043-.94922.32969-.32968.64655-.64152.94824-.93945l-.66113-.9248c-.17514-.24519-.40082-.53819-.48438-.88282-.06606-.27311-.06109-.55948.01465-.83007.09574-.3415.33092-.62639.51465-.86524l1.30176-1.6914c.15821-.20572.30641-.40023.44331-.54981.1422-.15531.3248-.32275.5743-.42969zm.4942 1.4707c-.0104.00928-.029.02652-.0557.05567-.0816.08919-.1837.2202-.3584.44726l-1.30078 1.69238c-.11908.1548-.185.24008-.22852.30567-.01223.01845-.02.03129-.02441.03906-.0022.01095-.00179.02218 0 .0332.00411.00789.0109.02118.02246.04004.04114.06708.10329.15456.2168.31348l.50095.70117c.3133-.34075.5939-.67284.8321-1.00879.2474-.34885.7309-.43152 1.08-.18457.3492.24747.432.73187.1846 1.08106-.782 1.10326-1.9595 2.18312-3.0498 3.27343-1.08974 1.08978-2.16902 2.26608-3.27149 3.04788-.34913.2474-.83256.1645-1.08007-.1846-.24733-.3491-.16542-.8325.18359-1.0801.33522-.2377.66576-.5185 1.00586-.831l-.7002-.50003c-.15901-.11358-.24637-.17564-.31347-.21679-.01895-.01163-.03213-.01835-.04004-.02247-.0111-.00182-.02217-.00221-.0332 0-.00775.00439-.02045.01207-.03907.02442-.06561.04352-.15071.10932-.30566.22851l-1.69238 1.30076c-.22717.1748-.35805.2768-.44727.3584-.02923.0268-.04636.0453-.05566.0557-.00243.01-.00289.02-.00196.0303.00765.0113.0216.0322.04786.0634.07286.0866.17993.1954.35937.375l.58691.587c.39815.3981.51305.5053.76954.6318.04301.0211.18278.0704.37793.1182.196.0479.34408.0692.3916.0703.19351.0041.2801-.0039.33007-.0118.04871-.0076.08697-.0185.21387-.0585 1.47273-.4652 2.95838-1.6274 4.51567-3.1846 1.5572-1.55724 2.7194-3.04294 3.1845-4.51564.04-.12666.0509-.16526.0586-.21387.0079-.05.0159-.137.0117-.33008-.001-.04778-.0215-.19593-.0693-.3916-.0479-.19578-.0981-.3363-.1191-.37891-.1264-.25616-.234-.37065-.6319-.76855l-.5488-.54883c-.2026-.20256-.3206-.31959-.4131-.39746-.0311-.0262-.0522-.04021-.0635-.04785-.0102-.00093-.0203-.00046-.0302.00195z" fill="#00a008" fill-rule="evenodd"/></svg>