<svg fill="none" height="20" viewBox="0 0 20 20" width="20" xmlns="http://www.w3.org/2000/svg"><path clip-rule="evenodd" d="m13.739 1.64822c.3861-.16541.8185-.19326 1.2227-.0791.2832.08019.5076.23594.6982.39649.185.15584.393.36369.625.5957l.6856.68555c.0223.02229.0438.04474.0654.0664l.1524.15235c.3706.3755.646.68632.8984 1.19824.1112.2258.2078.54896.2754.82519.0675.27645.1303.60862.1357.86036.0062.28916-.0018.51145-.0342.71679-.0325.20642-.0866.37143-.1328.51758-.7125 2.25599-2.4199 4.35843-4.4043 6.34273-1.9842 1.9843-4.08591 3.6918-6.34176 4.4043-.14608.0462-.31132.0993-.51758.1319-.20538.0323-.42852.0413-.71777.0351-.25167-.0054-.58306-.0682-.85938-.1357-.27627-.0675-.59926-.1651-.82519-.2764-.51217-.2525-.8235-.5284-1.19922-.8994l-.9043-.9023c-.2321-.2321-.43986-.44-.5957-.625-.16059-.1907-.31636-.4149-.39649-.6983-.11409-.4042-.08639-.8365.07911-1.2226.11613-.2706.29949-.4733.48339-.6416.17843-.1633.41186-.342.67188-.542l2.11523-1.627c.31373-.2413.63072-.501 1.00684-.6064.30223-.0846.62172-.0905.92676-.0166.37965.0919.70525.3402 1.02734.5703l1.30762.9336c.41444-.4184.84892-.8578 1.30662-1.3154.4576-.4576.8972-.89146 1.3154-1.30571l-1.1064-1.54981c-.1714-.24539-.3284-.50018-.3975-.78516-.0738-.3051-.068-.62445.0166-.92675.1055-.37624.3651-.69301.6065-1.00684l.0146-.01855 1.6123-2.09668c.2001-.26011.3787-.49344.542-.67188.1684-.18394.371-.3673.6416-.4834zm.8145 1.36426c-.0736-.02078-.1523-.01534-.2227.01465-.008.00466-.0456.02942-.1259.11719-.1099.12003-.2439.29322-.46.57422l-1.627 2.11523c-.3203.41643-.3434.46746-.3515.49609-.0155.05522-.0164.1142-.003.16993.0036.01434.0104.03492.0538.10351l.2793.40527.7812 1.09278c.4714-.50105.8924-.98634 1.2412-1.47852.2395-.33792.708-.41726 1.0459-.17773.3375.23962.4171.70717.1778 1.04492-.9635 1.35923-2.4133 2.68868-3.7881 4.06348-1.374 1.374-2.70243 2.823-4.06058 3.7861-.33775.2395-.80622.1598-1.0459-.1777-.23956-.3379-.16015-.8063.17773-1.0459.49142-.3485.97621-.7687 1.47657-1.2393l-1.09375-.7812c-.42732-.3052-.47989-.3259-.50879-.333-.05565-.0135-.11477-.0125-.16992.0029-.02863.0081-.07994.0315-.4961.3516l-2.11523 1.6269c-.28085.2161-.45418.3502-.57422.46-.08661.0793-.11202.1172-.11719.126-.03007.0703-.03535.149-.01465.2226.00384.0091.0244.0502.10059.1406.10482.1244.25933.2789.50976.5293l.45997.461.22558.2256c.49586.4958.66248.655 1.01953.831.07561.0372.27007.1043.51856.1651.24834.0606.45116.0909.53515.0927.24789.0053.3715-.0039.45215-.0166.07919-.0125.14213-.0315.29883-.081 1.89364-.5981 3.78211-2.083 5.73341-4.0342 1.9513-1.9513 3.437-3.8397 4.0351-5.7334.0497-.15709.0676-.22042.0801-.29981.0127-.08064.0229-.20349.0176-.45117-.0018-.08384-.0329-.28732-.0937-.53613-.0608-.24839-.127-.44298-.1641-.51856-.176-.35693-.3362-.52369-.832-1.01953l-.2315-.23144-.4541-.45313c-.2503-.25027-.4049-.40493-.5293-.50976-.0892-.07511-.1307-.09629-.1406-.10059z" fill="#00a008" fill-rule="evenodd"/></svg>