<svg fill="none" height="24" viewBox="0 0 24 24" width="24" xmlns="http://www.w3.org/2000/svg"><path clip-rule="evenodd" d="m16.5204 2.16495c.4302-.1843.911-.21499 1.3614-.08789.3097.08756.5595.25849.7802.44433.215.18104.4576.4244.7364.70313l1.0791 1.0791-.002.00098c.4386.44452.754.80143 1.0449 1.3916.1257.25508.2393.62779.3194.95508.08.32734.152.71083.1582.99511.0073.34122-.0034.59702-.0401.83008-.0369.23411-.0979.42116-.1533.59668-.8394 2.65755-2.8555 5.14555-5.2207 7.51075-2.3653 2.3652-4.8532 4.3824-7.51074 5.2217-.17547.0554-.36265.1154-.59668.1523-.23303.0367-.48892.0474-.83008.0401-.28433-.0062-.6678-.0782-.99512-.1582-.32716-.08-.7-.1928-.95508-.3184-.59032-.291-.94688-.6071-1.3916-1.0459l-.00097.0019-1.13575-1.1357c-.25512-.2552-.47777-.4794-.64648-.6797-.18585-.2207-.35678-.4705-.44434-.7803-.1271-.4504-.09642-.9311.08789-1.3613.12688-.296.3291-.5209.542-.7158.20735-.1898.48039-.3982.79296-.6387l.00684-.0058 2.51758-1.9366c.38473-.2959.73683-.5828 1.15234-.6992.33686-.0943.69223-.1008 1.03223-.0185.41943.1015.78172.376 1.17676.6582l1.66304 1.1875c.5226-.5265 1.0667-1.0833 1.6426-1.6592s1.1335-1.1199 1.6602-1.6426l-1.1875-1.66405c-.2822-.39503-.5567-.75733-.6582-1.17676-.0823-.33999-.0758-.69537.0185-1.03222.1164-.41551.4033-.76762.6992-1.15235l1.9424-2.52441c.2405-.31256.4489-.58562.6387-.79297.1949-.21289.4198-.41512.7158-.54199zm.9541 1.35547c-.12-.03389-.2486-.02562-.3633.02343-.0146.0063-.0696.03311-.2002.17578-.1352.14782-.2985.35742-.5517.68653l-.0049.00781-1.9414 2.52442c-.3761.48891-.4253.57485-.4443.64257-.0252.08983-.0269.18474-.0049.27539.0166.06833.0626.15569.4209.65723l1.0342 1.44824c.616-.64756 1.166-1.27318 1.6162-1.9082.2396-.33759.7071-.41712 1.0449-.17773.3377.23942.4178.70703.1787 1.04492-1.1406 1.60919-2.858 3.18319-4.5068 4.83199-1.6478 1.6479-3.2203 3.3629-4.82816 4.503-.33766.2389-.80535.1595-1.04492-.1778-.23952-.3378-.15991-.8062.17773-1.0459.63398-.4495 1.2589-.9985 1.90528-1.6132l-1.44824-1.0342c-.50157-.3583-.5889-.4043-.65723-.4209-.09066-.022-.18557-.0203-.27539.0049-.06773.019-.15363.0682-.64258.4443l-2.52441 1.9414-.00684.0059-.00098-.001c-.32912.2532-.5387.4165-.68652.5517-.14269.1307-.16948.1856-.17578.2002-.04907.1147-.05733.2433-.02344.3633.00444.0156.02413.0741.14844.2217.12167.1444.29534.3195.56055.585.00161.0015.00327.0032.00488.0048l.86914.8702c.59107.591.80535.7974 1.25586 1.0195.10455.0515.34884.1338.64844.207s.55447.1127.6709.1153c.29973.0064.45611-.0045.56445-.0215.10701-.0169.19181-.0428.37793-.1016 2.29529-.7249 4.57009-2.5193 6.90239-4.8516 2.332-2.332 4.1265-4.6062 4.8515-6.90132.0589-.1864.0837-.2719.1006-.37891.0171-.10833.0289-.26459.0225-.56445-.0025-.11634-.042-.3712-.1153-.6709-.0732-.29954-.1555-.54383-.207-.64844-.2221-.45055-.4293-.66467-1.0205-1.25586l-.8672-.86718c-.0014-.00145-.0025-.00343-.0039-.00489-.2668-.26658-.443-.44045-.5879-.5625-.1475-.12419-.206-.14397-.2217-.14843z" fill="#00a008" fill-rule="evenodd"/></svg>