<svg fill="none" height="16" viewBox="0 0 16 16" width="16" xmlns="http://www.w3.org/2000/svg"><path d="m10.1279 1c-.33099.47447-.54752 1.03454-.60935 1.64062h-6.86914c.02952.63593.13858 1.26019.31934 1.86036.01037-.00043.02078-.00098.03125-.00098h6.83691c.29639.6239.77219 1.14577 1.36039 1.5h-7.59769c.42316.76669.97785 1.46404 1.64941 2.05566l.72364.6377c.35383.31147.55664.76005.55664 1.23144v2.5752c.00004.4745.38484.8593.85937.8594h1.22266c.44492-.0002.81039-.3385.85449-.7715l.00488-.0879v-2.5752c0-.47138.20283-.91998.5566-1.23144l.7237-.6377c.5531-.48729 1.0247-1.04777 1.4111-1.6582.2686.06601.549.10254.8379.10254.3738 0 .7336-.05947 1.0713-.16797-.5356 1.11192-1.2884 2.12082-2.2354 2.95508l-.7246.63769v2.5752c0 1.3806-1.11943 2.4998-2.49997 2.5h-1.22266c-1.38059-.0001-2.49995-1.1194-2.5-2.5v-2.5752l-.72461-.63769c-2.01115-1.77175-3.16393-4.32267-3.16406-7.00293v-.11719c0-.6443.5227-1.16695 1.16699-1.16699z" fill="#00a008"/><path d="m11 3c0-1.10457.8954-2 2-2s2 .89543 2 2-.8954 2-2 2-2-.89543-2-2z" fill="#d900ff"/></svg>