<svg fill="none" height="20" viewBox="0 0 20 20" width="20" xmlns="http://www.w3.org/2000/svg"><path d="m11.9688 2c-.2291.46083-.3815.96619-.4405 1.5h-8.02049c.02694.68321.14347 1.35452.33887 2h7.91112c.1976.55885.5013 1.06725.8887 1.5h-8.17384c.33647.61887.7549 1.19611 1.25097 1.71289l1.80274 1.87691c.26826.2794.41797.6518.41797 1.0391v3.8711c0 .5522.44776.9999 1 1h2.11136c.5523-.0001 1-.448 1-1v-3.8711c0-.3873.1497-.7597.4179-1.0391l1.8028-1.87691.2597-.28418c.0385-.04416.0739-.09082.1114-.13574.4269.13437.8812.20703 1.3525.20703.1277 0 .2539-.00715.3789-.01758-.3021.44832-.6413.87449-1.0205 1.26953l-1.8027 1.87695v3.8711c0 1.3806-1.1194 2.4999-2.5 2.5h-2.11136c-1.38067-.0001-2.5-1.1193-2.5-2.5v-3.8711l-1.80274-1.87695c-1.69508-1.76575-2.64153-4.11872-2.6416-6.5664 0-.65457.53099-1.18549 1.18555-1.18555z" fill="#00a008"/><path d="m13 4c0-1.65685 1.3431-3 3-3s3 1.34315 3 3-1.3431 3-3 3-3-1.34315-3-3z" fill="#d900ff"/></svg>