<svg fill="none" height="24" viewBox="0 0 24 24" width="24" xmlns="http://www.w3.org/2000/svg"><path d="m15.6465 3c-.3874.43275-.6911.94115-.8887 1.5h-10.25292c.01775.85673.15757 1.69947.40918 2.50488.0282-.00321.05688-.00488.08594-.00488h9.6133c.1235.54407.3446 1.0506.6455 1.5h-9.7256c.38031.72561.8607 1.40189 1.4336 2.0068l2.12207 2.2383c.26404.2787.41113.6484.41113 1.0322v4.2227c0 .8284.6716 1.4999 1.5 1.5h2c.7767-.0001 1.4154-.5904 1.4922-1.3467l.0078-.1533v-4.2227c0-.3837.1473-.7526.4111-1.0312l2.1201-2.2383c.1021-.1077.1998-.2189.2959-.331.512.2052 1.0697.3199 1.6543.3222-.264.3624-.5497.7112-.8613 1.0401l-2.1201 2.2382v4.2227c0 1.6568-1.3432 2.9999-3 3h-2c-1.6568-.0001-3-1.3432-3-3v-4.2227l-2.12109-2.2382c-1.84864-1.95156-2.87888-4.53751-2.87891-7.22562 0-.7253.58819-1.31341 1.31348-1.31348z" fill="#00a008"/><path d="m16 6c0-1.65685 1.3431-3 3-3s3 1.34315 3 3-1.3431 3-3 3-3-1.34315-3-3z" fill="#d900ff"/></svg>