<svg fill="none" height="16" viewBox="0 0 16 16" width="16" xmlns="http://www.w3.org/2000/svg"><g fill="#00a008"><path d="m3.04936 3.05418c2.73352-2.733519 7.16664-2.733226 9.90034 0 2.7337 2.73367 2.7337 7.16672 0 9.90042-.4694.4694-.9907.8581-1.5449 1.167-.3617.2014-.8179.0716-1.0195-.2901-.2011-.3616-.0715-.8179.29-1.0195.4342-.242.8426-.5486 1.2129-.919 2.1479-2.14784 2.1479-5.62941 0-7.7773-2.14789-2.14744-5.62958-2.14773-7.77732 0-2.14773 2.14774-2.14744 5.62943 0 7.7773.37025.3703.77904.6771 1.21289.919.36161.2016.49135.6578.29004 1.0195-.20165.3618-.65869.4917-1.02051.2901-.55387-.3088-1.07493-.698-1.54394-1.167-2.733227-2.7337-2.733523-7.1669 0-9.90042z"/><path d="m5.17143 5.13426c1.56203-1.56203 4.09414-1.56189 5.65627 0 1.5621 1.56209 1.5621 4.09415 0 5.65624-.2589.2589-.5455.4757-.85061.6494-.35984.2046-.81754.0794-1.02246-.2803-.20471-.3598-.07937-.8184.28028-1.0234.18962-.1079.36907-.24313.53222-.40624.97627-.97631.97627-2.55884 0-3.53516-.97632-.9761-2.55891-.97624-3.53515 0-.976.97627-.97602 2.55892 0 3.53516.16313.16313.34262.29824.53222.40624.35998.2049.48519.6635.28028 1.0234-.20505.3597-.66265.4851-1.02246.2803-.30508-.1737-.59173-.3905-.85059-.6494-1.56181-1.56202-1.56178-4.09419 0-5.65624z"/><path d="m7.99956 6.99949c.55213 0 .99975.44792.99999 1 0 .55229-.44771 1-.99999 1-.55208-.00024-1-.44786-1-1 .00024-.55193.44806-.99976 1-1z"/></g></svg>