<svg fill="none" height="20" viewBox="0 0 20 20" width="20" xmlns="http://www.w3.org/2000/svg"><g fill="#00a008"><path d="m3.98904 3.99178c3.31945-3.319452 8.70206-3.319432 12.02146 0 3.3195 3.31945 3.3195 8.70202 0 12.02152-.5701.57-1.2023 1.043-1.875 1.4179-.3617.2014-.8188.0716-1.0205-.29-.2016-.3618-.0716-.8188.2901-1.0205.5527-.3081 1.0738-.697 1.5449-1.168 2.7337-2.7337 2.7337-7.16671 0-9.90038-2.7337-2.73364-7.16675-2.73366-9.90041 0-2.73348 2.73368-2.73358 7.16678 0 9.90038.47113.4711.99231.86 1.54492 1.168.36171.2017.49167.6587.29004 1.0205-.2017.3616-.65879.4916-1.02051.29-.67276-.3749-1.305-.8479-1.875-1.4179-3.319362-3.3194-3.31926-8.70206 0-12.02152z"/><path d="m6.11111 6.10896c2.14788-2.14787 5.62949-2.14785 7.77739 0 2.1478 2.14789 2.1478 5.62944 0 7.77734-.306.3059-.6394.5697-.9932.7891-.352.218-.815.1097-1.0332-.2422-.2182-.352-.1096-.8149.2422-1.0332.2565-.1591.4998-.3504.7236-.5742 1.5621-1.5621 1.5621-4.09419 0-5.65629-1.5621-1.56207-4.09415-1.56209-5.65624 0-1.5619 1.5621-1.56201 4.09419 0 5.65629.22388.2238.46703.4151.72363.5742.352.2183.46044.6812.24219 1.0332-.21832.3518-.68124.4604-1.0332.2422-.35386-.2194-.68719-.4831-.99317-.7891-2.14779-2.1478-2.14769-5.62945 0-7.77734z"/><path d="m8.23221 8.22322c.9763-.9763 2.55879-.97628 3.53519 0 .9763.97631.9763 2.55888 0 3.53518-.2929.2927-.7678.2928-1.0606 0-.2927-.2929-.2926-.7677 0-1.0606.3905-.3905.3905-1.02351 0-1.41403-.3905-.3905-1.02353-.39052-1.41405 0-.39033.39053-.39043 1.02363 0 1.41403.29285.2929.29277.7677 0 1.0606-.2929.2927-.76771.2928-1.06054 0-.97622-.9763-.97612-2.55886 0-3.53518z"/></g></svg>