<svg fill="none" height="24" viewBox="0 0 24 24" width="24" xmlns="http://www.w3.org/2000/svg"><g fill="#00a008"><path d="m4.92854 4.92852c3.90517-3.90507 10.23736-3.90497 14.14256 0 3.9052 3.90522 3.9052 10.23738 0 14.14258-.6709.6709-1.4147 1.2269-2.206 1.668-.3619.2016-.8189.0718-1.0205-.2901-.2012-.3617-.0716-.8189.29-1.0205.6714-.3742 1.3041-.8461 1.876-1.4179 3.3193-3.3195 3.3194-8.7021 0-12.02153-3.3195-3.31918-8.70213-3.31929-12.02151 0-3.31938 3.31937-3.31921 8.70203 0 12.02153.5718.5718 1.20391 1.0448 1.875 1.4189.36174.2016.49153.6577.29004 1.0195-.20163.3618-.65775.4916-1.01953.2901-.79129-.4411-1.53535-.9973-2.20606-1.668-3.90499-3.9053-3.90516-10.23742 0-14.14258z"/><path d="m7.40315 7.40313c2.53836-2.53836 6.65495-2.53827 9.19335 0 2.5384 2.53841 2.5384 6.65497 0 9.19337-.4212.4212-.8874.7726-1.3828 1.0547-.36.2048-.8185.0797-1.0234-.2803-.2048-.3599-.0786-.8176.2812-1.0225.3801-.2163.7379-.4878 1.0635-.8134 1.9526-1.9527 1.9526-5.1177 0-7.07035-1.9526-1.95248-5.1177-1.95257-7.07033 0-1.95254 1.95255-1.95247 5.11765 0 7.07035.32557.3255.68345.5971 1.06348.8134.35997.205.48615.6625.28125 1.0225-.20491.36-.66346.4852-1.02344.2803-.49535-.2821-.96163-.6335-1.38281-1.0547-2.53826-2.5384-2.53833-6.655 0-9.19337z"/><path d="m9.87874 9.87872c1.17156-1.17157 3.07066-1.17155 4.24216 0 1.1716 1.17158 1.1716 3.07058 0 4.24218-.1731.1731-.3627.3218-.5644.4443-.354.2149-.8163.102-1.0313-.2519-.2146-.3539-.1017-.8153.252-1.0303.1001-.0608.1954-.1349.2832-.2226.5858-.5858.5858-1.5353 0-2.1211s-1.5353-.5858-2.1211 0c-.5856.5858-.5857 1.5353 0 2.1211.0878.0877.183.1618.2832.2226.3538.215.4666.6763.2519 1.0303-.215.3539-.6772.467-1.0312.2519-.2018-.1225-.3913-.2712-.56446-.4443-1.1715-1.1715-1.17142-3.0706 0-4.24218z"/></g></svg>