<svg fill="none" height="16" viewBox="0 0 16 16" width="16" xmlns="http://www.w3.org/2000/svg"><path clip-rule="evenodd" d="m8.5 15c.27614 0 .5-.2239.5-.5v-5.5h1.0764c.2445 0 .4531-.17671.4932-.4178l.3334-2c.0508-.30477-.1843-.5822-.4932-.5822h-1.4098v-1.03345c0-.80111-.16667-1.46655 1.1667-1.46655h.3333c.2761 0 .5-.22386.5-.5v-1.5c0-.27614-.2234-.5-.4996-.5-.233 0-.5589 0-1.0004 0-2.31128 0-3.5 1.43878-3.5 3.38322v1.61678h-1.5c-.27614 0-.5.22386-.5.5v2c0 .27614.22386.5.5.5h1.5v5.5c0 .2761.22386.5.5.5z" fill="#00a008" fill-rule="evenodd"/></svg>