<svg fill="none" height="20" viewBox="0 0 20 20" width="20" xmlns="http://www.w3.org/2000/svg"><path clip-rule="evenodd" d="m11.3 19c.3866 0 .7-.3134.7-.7v-6.3h.882c.3531 0 .6509-.2629.6946-.6132l.325-2.59995c.0523-.41779-.2735-.78682-.6945-.78683l-1.2071-.00002v-2.5c0-.85833 0-1.5.5-1.5h.8c.3866 0 .7-.3134.7-.7v-1.6c0-.3866-.3132-.7-.6998-.7-.46 0-1.0774 0-1.6334 0-2.1668 0-3.6668 1.41671-3.6668 3.50004v3.5l-1.29999-.00003c-.3866 0-.70001.3134-.70001.7v2.59999c0 .3866.31341.7.70001.7h1.29999v6.3c0 .3866.3134.7.7.7z" fill="#00a008" fill-rule="evenodd"/></svg>