<svg fill="none" height="16" viewBox="0 0 16 16" width="16" xmlns="http://www.w3.org/2000/svg"><path clip-rule="evenodd" d="m8 1c3.866 0 7 3.13401 7 7 0 3.866-3.134 7-7 7-3.86599 0-7-3.134-7-7 0-3.86599 3.13401-7 7-7zm-.75 6.36914c-.44938.02219-.88989.06281-1.31934.12305.10988 1.68293-.32611 3.39341-1.30957 4.84571.74629.5821 1.6459.9753 2.62891 1.1094zm1.5 6.07816c.98275-.1341 1.8818-.5275 2.6279-1.1094-.9832-1.4522-1.42035-3.16292-1.3105-4.84571-.42887-.06009-.8687-.10089-1.3174-.12305zm-4.30566-5.66312c-.68391.17384-1.32874.39695-1.92579.66016.08288 1.03654.45333 1.99136 1.03125 2.78616.63749-1.0539.93548-2.25429.89454-3.44632zm7.11136 0c-.041 1.19178.2563 2.39262.8935 3.44632.5781-.7949.9484-1.74945 1.0313-2.78616-.5968-.26301-1.2412-.48643-1.9248-.66016zm.8935-3.01563c-.2924.48344-.5134.99791-.6631 1.52833.5458.13317 1.0722.29524 1.5762.48242-.1672-.73771-.4823-1.41862-.9131-2.01075zm-8.8994 0c-.43049.59183-.74585 1.27253-.91308 2.00977.5039-.18714 1.03055-.34829 1.57617-.48144-.14974-.53052-.37052-1.04482-.66309-1.52833zm3.7002-2.21679c-.98286.13404-1.88268.52741-2.62891 1.10937.4948.7305.85023 1.52638 1.06836 2.35157.50895-.07251 1.03001-.1207 1.56055-.14454zm1.5 3.3164c.5302.02384 1.05093.07208 1.5596.14454.2181-.82515.5737-1.6211 1.0683-2.35157-.7461-.5817-1.64531-.97537-2.6279-1.10937z" fill="#00a008" fill-rule="evenodd"/></svg>