<svg fill="none" height="20" viewBox="0 0 20 20" width="20" xmlns="http://www.w3.org/2000/svg"><path clip-rule="evenodd" d="m10 1.5c4.6944 0 8.5 3.80558 8.5 8.5 0 4.6944-3.8056 8.5-8.5 8.5-4.69442 0-8.5-3.8056-8.5-8.5 0-4.69442 3.80558-8.5 8.5-8.5zm-.75 7.56641c-.66113.02659-1.3069.08826-1.93359.18164.17466 2.15455-.40098 4.35735-1.73047 6.18455 1.02199.8314 2.28295 1.3792 3.66406 1.5264zm1.5 7.89259c1.3808-.1471 2.6412-.6953 3.6631-1.5264-1.3292-1.827-1.9061-4.0302-1.7315-6.18455-.6261-.09321-1.2711-.15509-1.9316-.18164zm-4.91602-7.42287c-1.01033.24388-1.95534.57227-2.81445.97267.10383 1.4452.64629 2.7681 1.49512 3.8379.97919-1.4416 1.41895-3.1383 1.31933-4.81057zm8.33102 0c-.0996 1.67207.3404 3.36907 1.3194 4.81057.8492-1.0701 1.3914-2.3931 1.4951-3.8389-.8591-.4003-1.8042-.72789-2.8145-.97167zm-9.65035-3.88379c-.72.90719-1.21933 1.99671-1.41797 3.18848.78703-.31947 1.62488-.58528 2.50293-.79102-.21805-.84189-.57954-1.6535-1.08496-2.39746zm10.96975 0c-.5054.74399-.868 1.55554-1.086 2.39746.8785.20572 1.7166.47149 2.5039.79102-.1987-1.19192-.6978-2.28124-1.4179-3.18848zm-6.2344-2.6123c-1.38067.14707-2.64126.69544-3.66309 1.52637.71321.98019 1.20895 2.06891 1.48926 3.20019.70618-.10598 1.43241-.17357 2.17383-.20117zm1.5 4.52539c.7408.02757 1.4663.09536 2.1719.20117.2802-1.13131.7771-2.21997 1.4902-3.20019-1.0217-.83067-2.2817-1.37933-3.6621-1.52637z" fill="#00a008" fill-rule="evenodd"/></svg>