<svg fill="none" height="24" viewBox="0 0 24 24" width="24" xmlns="http://www.w3.org/2000/svg"><path clip-rule="evenodd" d="m12 2c5.5228 0 10 4.47715 10 10 0 5.5228-4.4772 10-10 10-5.52285 0-10-4.4772-10-10 0-5.52285 4.47715-10 10-10zm-.75 8.7637c-.8729.0296-1.72394.1116-2.54688.2392.24307 2.6242-.47829 5.3178-2.1582 7.5147 1.29659 1.0863 2.92169 1.7913 4.70508 1.9472zm1.5 9.7011c1.7829-.1559 3.4067-.8614 4.7031-1.9472-1.6794-2.1967-2.4002-4.8908-2.1572-7.5147-.8227-.1276-1.6733-.2096-2.5459-.2392zm-5.53027-9.1757c-1.33783.3118-2.58107.7509-3.69825 1.292.12466 1.846.83733 3.53 1.95411 4.8662 1.32852-1.8185 1.90863-4.0111 1.74414-6.1582zm9.55957 0c-.1645 2.147.4159 4.3398 1.7441 6.1582 1.1172-1.3365 1.8296-3.0206 1.9541-4.8672-1.117-.5409-2.3605-.9793-3.6982-1.291zm-11.30274-4.73734c-1.01317 1.21181-1.69402 2.70983-1.90527 4.35544 1.0604-.4569 2.20555-.8294 3.41504-1.10447-.27998-1.14994-.78322-2.25651-1.50977-3.25097zm13.04594 0c-.7265.99442-1.2299 2.10111-1.5098 3.25097 1.2095.27507 2.3546.64767 3.415 1.10447-.2113-1.64578-.8919-3.14357-1.9052-4.35544zm-7.2725-3.01758c-1.78321.15592-3.40855.86111-4.70508 1.94727.93713 1.22524 1.57613 2.60412 1.91504 4.04101.90375-.14067 1.83614-.22946 2.79004-.25976zm1.5 5.72852c.9535.03031 1.8856.11917 2.7891.25976.3388-1.43662.9772-2.81593 1.914-4.04101-1.2963-1.08562-2.9204-1.79139-4.7031-1.94727z" fill="#00a008" fill-rule="evenodd"/></svg>