<svg fill="none" height="16" viewBox="0 0 16 16" width="16" xmlns="http://www.w3.org/2000/svg"><path clip-rule="evenodd" d="m8 1c3.8659.00007 6.9999 3.13416 7 7 0 3.866-3.1341 6.9999-7 7-3.86599 0-7-3.134-7-7 .00013-3.86588 3.13409-7 7-7zm0 1.5c-.10352 0-.20649.00314-.30859.00879l.3955.94922c.19925.47822.03162 1.03095-.39941 1.31836l-1.07715.71679-.51758 1.29395c-.12921.32283-.40582.56406-.74316.64844l-1.03418.25781-1.74023 1.21289c.00541.03268.01158.06517.01757.09766l1.41407.2373c.2136.03563.41123.1342.56738.28223l.06445.0664.36524.41016h.46093c.40311 0 .77307.2239.95996.5811l.22168.4238c.03884.0742.06911.1532.08985.2344l.56445 2.2148c.22903.0291.4623.0459.69922.0459 1.90614 0 3.5845-.9704 4.5713-2.4434l-.2959-.3554-1.9082-.2725c-.2899-.0414-.5514-.1978-.72365-.43456l-.35839-.49414h-.80176c-.30924 0-.60401-.13228-.80957-.36328l-.42676-.48047c-.27894-.31382-.35192-.76056-.18652-1.14648l.86914-2.02637.04101-.08594c.10539-.19614.26922-.35575.46973-.45605l1.04492-.52246.91215-1.36915c-.72473-.35163-1.53792-.54978-2.3975-.5498zm-4.83691 8.1201c.55251 1.0179 1.41672 1.842 2.46484 2.3438l-.33301-1.3067-.08203-.1572h-.39648c-.3093 0-.60401-.1322-.80957-.3633l-.39161-.4404zm7.50981-5.27733c-.1045.15645-.2479.28296-.4161.36719l-1.00973.50488-.7041 1.64161.12793.14355h.82617c.30321.00005.59033.12719.79393.34668l.082.09961.3809.52246 1.8916.27051c.2324.03323.4473.14109.6123.30566l.0156.0166c.1464-.49506.2266-1.01901.2266-1.56152-.0001-1.63875-.7174-3.10962-1.8545-4.11719zm-4.48345-2.53711c-1.86654.65047-3.27421 2.27819-3.61133 4.27051l.94239-.65625.08398-.05273c.08552-.04868.17768-.08544.27344-.10938l.90039-.22558.4873-1.21485.07129-.14648c.08258-.14049.19626-.26135.33301-.35254l.89942-.60059z" fill="#00a008" fill-rule="evenodd"/></svg>