<svg fill="none" height="20" viewBox="0 0 20 20" width="20" xmlns="http://www.w3.org/2000/svg"><path clip-rule="evenodd" d="m10 1.5c4.6944 0 8.5 3.80558 8.5 8.5 0 4.6944-3.8056 8.5-8.5 8.5-4.69442 0-8.5-3.8056-8.5-8.5 0-4.69442 3.80558-8.5 8.5-8.5zm0 1.5c-.24769 0-.49235.01299-.7334.03809l.53809 1.87988c.13932.48763-.05283 1.00951-.47461 1.29101l-.8584.57227-1.07324 1.79004c-.1592.26526-.41764.45622-.71778.53125l-1.33203.33203-2.22754 1.85643c.02886.1547.06076.308.09961.459h.77246c.27247.0001.53505.0954.74317.2676l.08594.0791.90722.917h.7793c.28439 0 .55928.1037.77246.292l.60059.5312c.18121.1601.30799.3718.36328.6055l.01953.1015.33496 2.3155c.45251.0919.92076.1406 1.40039.1406 2.5153 0 4.7191-1.3276 5.9531-3.3193l-.4746-.4746-2.4765-.3526c-.3403-.0487-.6421-.2456-.8243-.5371l-.5107-.8164h-1.0908c-.2881-.0001-.5662-.1071-.7803-.2998l-.52051-.4688c-.33128-.2981-.46418-.7589-.3418-1.18745l.71192-2.49024.03906-.11523c.10582-.263.30451-.48038.56053-.6084l1.3613-.68067 1.5713-1.88574c-.9538-.48702-2.0332-.76367-3.1777-.76367zm-6.2002 10.25c.70511 1.3424 1.83295 2.427 3.20704 3.0781l-.21094-1.4492-.41309-.3652h-.79199c-.31162 0-.61093-.1252-.83008-.3467l-.90722-.917zm8.915-6.58691c-.103.12357-.2301.22492-.374.29687l-1.2939.64551-.6143 2.14941.2715.24512h1.1484c.352 0 .6825.1585.9024.4268l.0869.1211.5254.8417 2.4346.3487c.2186.0312.4235.1234.5908.2656l.0693.0645.1699.1699c.2372-.703.3682-1.4553.3682-2.2383 0-2.17944-.9959-4.12634-2.5576-5.41016zm-4.91792-3.3086c-2.61004.86483-4.53769 3.22364-4.77149 6.06348l1.4209-1.18359c.13484-.11237.2936-.19274.46387-.23536l1.27343-.31836 1.042-1.73632.07226-.10645c.07809-.10251.17259-.19181.28027-.26367l.7168-.47852z" fill="#00a008" fill-rule="evenodd"/></svg>