<svg fill="none" height="24" viewBox="0 0 24 24" width="24" xmlns="http://www.w3.org/2000/svg"><path clip-rule="evenodd" d="m12 2c5.5228 0 10 4.47715 10 10 0 5.5228-4.4772 10-10 10-5.52285 0-10-4.4772-10-10 0-5.52285 4.47715-10 10-10zm0 1.5c-.3586 0-.7117.02428-1.0586.06738l.6797 2.37598c.1491.52252-.0567 1.08134-.5088 1.38281l-1.0566.7041-1.3057 2.17773c-.17051.2842-.44707.4899-.76855.5703l-1.63379.4072-2.72168 2.2686c.03175.1841.06988.366.11328.5459h1.05371c.29004 0 .56958.101.79199.2832l.0918.083.63379.6338h.94922c.37951 0 .73838.1725.97558.4688l.78223.9775c.11223.1403.19272.3032.23633.4775l.83889 3.3584c.6133.1407 1.2512.2178 1.9072.2178 3.1011 0 5.8123-1.662 7.2969-4.1426l-.6573-.6572-2.5839-.4307c-.2892-.0482-.5523-.1964-.7432-.4189l-1.1582-1.3506h-1.4141c-.3795 0-.7383-.1725-.9756-.4688l-.6806-.8505c-.2646-.331-.3439-.7738-.21-1.1758l.8487-2.54592c.1048-.31439.3305-.57441.6269-.72265l1.6748-.83789 1.9912-2.39063c-1.196-.64237-2.563-1.00781-4.0156-1.00781zm-7.74609 12c.83612 1.8476 2.31254 3.3423 4.14746 4.2012l-.58985-2.3594-.67187-.8418h-.93262c-.33149 0-.64938-.1318-.88379-.3662l-.63379-.6338zm10.88969-7.60059c-.1104.13243-.2472.24125-.4014.31836l-1.6289.81348-.7725 2.31835.5196.6504h1.4101c.319.0001.6242.122.8545.3379l.0938.0986 1.1728 1.3682 2.5732.4287c.2249.0375.4351.1359.6075.2832l.0713.0664.3398.3399c.3338-.9115.5166-1.8958.5166-2.9229 0-2.70013-1.2606-5.10413-3.2236-6.66113zm-5.67192-4.01757c-3.33746 1.0383-5.79242 4.07859-5.96191 7.71586l1.92187-1.60063.11328-.08398c.11721-.07715.24703-.13373.38379-.16797l1.58789-.39844 1.28223-2.13574.07812-.11524c.08371-.10976.1854-.2053.30078-.28222l.95017-.63477z" fill="#00a008" fill-rule="evenodd"/></svg>