<svg fill="none" height="16" viewBox="0 0 16 16" width="16" xmlns="http://www.w3.org/2000/svg"><g fill="#00a008"><path d="m12.25 14.5c1.5188 0 2.75-1.2312 2.75-2.75v-6c0-1.51878-1.2312-2.75-2.75-2.75h-3.34861c-.31237 0-.60408-.15612-.77735-.41603-.45147-.6772-1.21153-1.08397-2.02543-1.08397h-2.84861c-1.24264 0-2.25 1.00736-2.25 2.25v3.5c0 .41421.33579.75.75.75s.75-.33579.75-.75v-3.5c0-.41421.33579-.75.75-.75h2.84861c.31237 0 .60408.15612.77735.41603.45147.6772 1.21153 1.08397 2.02543 1.08397h3.34861c.6904 0 1.25.55964 1.25 1.25v.25h-7.75c-.41421 0-.75.33579-.75.75s.33579.75.75.75h7.75v4.25c0 .6904-.5596 1.25-1.25 1.25h-3.5c-.41421 0-.75.3358-.75.75s.33578.75.75.75z"/><path d="m1.46967 11.4697c.29289-.2929.76777-.2929 1.06066 0l.21967.2196v-1.9393c0-.41421.33579-.75.75-.75s.75.33579.75.75v1.9393l.21967-.2196c.29289-.2929.76777-.2929 1.06066 0s.29289.7677 0 1.0606l-1.42929 1.4293c-.33194.332-.87013.332-1.20208 0l-1.42929-1.4293c-.29289-.2929-.29289-.7677 0-1.0606z"/></g></svg>