<svg fill="none" height="20" viewBox="0 0 20 20" width="20" xmlns="http://www.w3.org/2000/svg"><g fill="#00a008"><path d="m1.5 5.24324c0-1.51721 1.22994-2.74715 2.74715-2.74715h3.63609c.96842 0 1.85381.54686 2.28736 1.41278.1794.35818.5456.58437.9462.58437h4.1332c1.7949 0 3.25 1.45508 3.25 3.25v6.50556c0 1.795-1.4551 3.25-3.25 3.25h-6.61676c-.41421 0-.75-.3357-.75-.75 0-.4142.33579-.75.75-.75h6.61676c.9665 0 1.75-.7835 1.75-1.75v-4.74996h-10.25c-.41421 0-.75-.33579-.75-.75s.33579-.75.75-.75h10.25v-.2556c0-.9665-.7835-1.75-1.75-1.75h-4.1332c-.9685 0-1.85385-.54685-2.28743-1.41278-.17934-.35817-.54556-.58437-.94613-.58437h-3.63609c-.68878 0-1.24715.55837-1.24715 1.24715v4.00676c0 .41421-.33579.75-.75.75s-.75-.33579-.75-.75z"/><path d="m5.25 14.5393v-2.7893c0-.4142-.33579-.75-.75-.75s-.75.3358-.75.75v2.7893l-.21967-.2197c-.29289-.2928-.76777-.2928-1.06066 0-.29289.2929-.29289.7678 0 1.0607l1.42929 1.4293c.33195.3319.87014.3319 1.20208 0l1.42929-1.4293c.29289-.2929.29289-.7678 0-1.0607-.29289-.2928-.76777-.2928-1.06066 0z"/></g></svg>