<svg fill="none" height="24" viewBox="0 0 24 24" width="24" xmlns="http://www.w3.org/2000/svg"><g fill="#00a008"><path d="m1.5 6.24998c0-1.51931 1.23164-2.75096 2.75095-2.75096h5.63059c.96956 0 1.85586.5479 2.28936 1.4152.1794.35898.5462.58576.9476.58576h5.6315c2.0711 0 3.75 1.67893 3.75 3.75v7.49682c0 2.0711-1.6789 3.75-3.75 3.75h-9c-.41421 0-.75-.3358-.75-.75s.33579-.75.75-.75h9c1.2426 0 2.25-1.0074 2.25-2.25v-5.2469h-13.25c-.41421 0-.75-.3357-.75-.75 0-.4142.33579-.74995.75-.74995h13.25v-.74997c0-1.24264-1.0074-2.25-2.25-2.25h-5.6315c-.9696 0-1.8559-.5479-2.2894-1.4152-.1794-.35898-.5462-.58576-.94756-.58576h-5.63059c-.69088 0-1.25095.56007-1.25095 1.25096v4.99992c0 .4143-.33579.75-.75.75s-.75-.3357-.75-.75z"/><path d="m5.25 17.7197v-3.9697c0-.4142-.33579-.75-.75-.75s-.75.3358-.75.75v3.9697l-.68934-.7197c-.29289-.2929-.76777-.2929-1.06066 0s-.29289.7678 0 1.0607l1.9 1.9292c.33195.332.86806.332 1.2 0l1.96066-1.9292c.29289-.2929.29289-.7678 0-1.0607s-.76777-.2929-1.06066 0z"/></g></svg>