<svg fill="none" height="16" viewBox="0 0 16 16" width="16" xmlns="http://www.w3.org/2000/svg"><g fill="#00a008"><path d="m4.75002 5c.41422 0 .75.33579.75.75v.5c0 .41421-.33578.75-.75.75-.41421 0-.75-.33579-.75-.75v-.5c0-.41421.33579-.75.75-.75z"/><path d="m11.25 5c.4142 0 .75.33579.75.75v.5c0 .41421-.3358.75-.75.75s-.75-.33579-.75-.75v-.5c0-.41421.3358-.75.75-.75z"/><path clip-rule="evenodd" d="m8.20315 1.5h2.29685c1.4 0 2.1.00007 2.6348.27246.4704.23968.8531.62237 1.0928 1.09277.2724.53476.2724 1.23479.2724 2.63477v5c0 1.4 0 2.1-.2724 2.6348l-.0967.1728c-.2402.3914-.5847.7103-.9961.9199l-.209.0899c-.3654.1304-.8215.1681-1.499.1787l-.9268.0039h-4.99998l-.92675-.0039c-.67754-.0106-1.13364-.0483-1.49903-.1787l-.20898-.0899c-.47041-.2396-.85309-.6223-1.09278-1.0927-.20432-.4012-.25579-.8953-.26855-1.708l-.00391-.9268v-5c0-1.22523.00002-1.91437.18262-2.42578l.08984-.20899c.20965-.41145.5285-.7559.91993-.99609l.17285-.09668c.53475-.27239 1.23479-.27246 2.63476-.27246h2.68262c.0021-.00317.00376-.00662.00586-.00977zm-2.70313 1.5c-.7246 0-1.17793.00141-1.51953.0293-.32412.02648-.41388.06953-.43457.08008-.18797.09583-.34068.24855-.43652.43652-.01054.02069-.0536.11045-.08008.43457-.02789.34159-.0293.79492-.0293 1.51953v5c0 .7246.00141 1.1779.0293 1.5195.02648.3241.06954.4139.08008.4346.09584.188.24855.3407.43652.4365.02069.0106.11045.0536.43457.0801.3416.0279.79493.0293 1.51953.0293h3.52246c-.08366-.3433-.15388-.6951-.21386-1.0469-.26533.029-.53502.0469-.8086.0469-1.76559 0-3.38217-.6212-4.55664-1.6484l.98828-1.12894c.8901.77844 2.15133 1.27734 3.56836 1.27734.2081 0 .41259-.0134.61328-.0342-.05108-.53058-.08206-1.03041-.09765-1.4658h-2.01563v-.75c0-1.093.19945-2.43668.49805-3.65527.13469-.54965.29638-1.09504.47656-1.59473zm3.58594 0c-.223.51776-.44534 1.19501-.63086 1.95215-.20968.85578-.36043 1.75559-.42285 2.54785h1.96775v.75c0 .48727.0235 1.14292.086 1.8613.5611-.21963 1.0633-.52214 1.4824-.88864l.9883 1.12894c-.6435.5628-1.4206 1.0015-2.2813 1.2851.0777.4661.175.9285.2969 1.3623.6827-.0001 1.1172-.0013 1.4473-.0283.3241-.0265.4138-.0695.4345-.0801.188-.0958.3407-.2485.4365-.4365.0106-.0207.0536-.1105.0801-.4346.0279-.3416.0293-.7949.0293-1.5195v-5c0-.72461-.0014-1.17794-.0293-1.51953-.0265-.32412-.0695-.41388-.0801-.43457-.0958-.18797-.2485-.34069-.4365-.43652-.0207-.01055-.1104-.0536-.4345-.08008-.3416-.02789-.795-.0293-1.5196-.0293z" fill-rule="evenodd"/></g></svg>