<svg fill="none" height="20" viewBox="0 0 20 20" width="20" xmlns="http://www.w3.org/2000/svg"><g fill="#00a008"><path d="m6.25 6c.41421 0 .75.33579.75.75v1.5c0 .41421-.33579.75-.75.75s-.75-.33579-.75-.75v-1.5c0-.41421.33579-.75.75-.75z"/><path d="m13.75 6c.4142 0 .75.33579.75.75v1.5c0 .41421-.3358.75-.75.75s-.75-.33579-.75-.75v-1.5c0-.41421.3358-.75.75-.75z"/><path clip-rule="evenodd" d="m13.6982 2.00586c1.1376.01789 1.8292.08988 2.3907.37598.6585.33554 1.1937.87078 1.5293 1.52929.3814.74864.3818 1.72856.3818 3.68848v4.80079l-.0059 1.2978c-.0178 1.1376-.0898 1.8292-.3759 2.3907-.3356.6585-.8708 1.1937-1.5293 1.5293-.5615.2861-1.2531.3581-2.3907.3759l-1.2978.0059h-4.80079c-1.83719 0-2.81325-.0003-3.54492-.3145l-.14356-.0673c-.57619-.2936-1.05826-.7399-1.39453-1.2881l-.13476-.2412c-.2861-.5615-.35809-1.2531-.37598-2.3907l-.00586-1.2978v-4.80079c0-1.83719.00027-2.81325.31445-3.54492l.06739-.14356c.29359-.57619.73988-1.05826 1.28808-1.39453l.24121-.13476c.74864-.38146 1.72856-.38184 3.68848-.38184h4.80079zm-6.09859 1.49414c-1.00433 0-1.66752.00147-2.17578.04297-.49087.0401-.70439.10977-.83203.1748-.37626.19174-.68229.49777-.87403.87403-.06503.12764-.1347.34116-.1748.83203-.0415.50826-.04297 1.17145-.04297 2.17578v4.80079c0 1.0043.00147 1.6675.04297 2.1758.0401.4908.10977.7044.1748.832.19174.3763.49777.6823.87403.874.12764.0651.34116.1347.83203.1748.50826.0415 1.17145.043 2.17578.043h3.46189c-.1607-.5749-.2919-1.1744-.3935-1.7764-.2204.0164-.4431.0264-.668.0264-2.1329 0-4.08144-.7506-5.49414-1.9863l.98828-1.1289c1.12832.9868 2.72151 1.6152 4.50586 1.6152.1602 0 .3187-.0076.4756-.0176-.0699-.7901-.0861-1.5519-.0488-2.2324h-2.4268v-.75c0-1.35371.334-2.99601.78223-4.46875.24672-.81062.53843-1.59739.84277-2.28125zm3.68649 0c-.3592.69314-.7449 1.65615-1.0683 2.71875-.33856 1.11236-.58963 2.27566-.67971 3.28125h2.57711l-.123.8564c-.1024.717-.1141 1.6397-.0332 2.628.9822-.273 1.8528-.7426 2.5469-1.3496l.9882 1.1289c-.92.8048-2.0681 1.4007-3.3457 1.7207.1166.6873.2758 1.3727.4776 2.0136.8797-.0004 1.481-.0027 1.9502-.041.4908-.0401.7044-.1097.832-.1748.3763-.1917.6823-.4977.874-.874.0651-.1276.1347-.3412.1748-.832.0415-.5083.043-1.1715.043-2.1758v-4.80079c0-1.00433-.0015-1.66752-.043-2.17578-.0401-.49087-.1097-.70439-.1748-.83203-.1917-.37626-.4977-.68229-.874-.87403-.1276-.06503-.3412-.1347-.832-.1748-.5083-.0415-1.1715-.04297-2.1758-.04297z" fill-rule="evenodd"/></g></svg>