<svg fill="none" height="24" viewBox="0 0 24 24" width="24" xmlns="http://www.w3.org/2000/svg"><g fill="#00a008"><path d="m7.25 7c.41421 0 .75.33579.75.75v1.5c0 .41421-.33579.75-.75.75s-.75-.33579-.75-.75v-1.5c0-.41421.33579-.75.75-.75z"/><path d="m16.75 7c.4142 0 .75.33579.75.75v1.5c0 .41421-.3358.75-.75.75s-.75-.33579-.75-.75v-1.5c0-.41421.3358-.75.75-.75z"/><path clip-rule="evenodd" d="m17.8125 2.50488c.9753.01533 1.5685.07702 2.0498.32227.5642.28757 1.023.74632 1.3106 1.31055.3269.64171.3271 1.48208.3271 3.1621v9.4004l-.0049 1.1123c-.0153.9753-.077 1.5685-.3222 2.0498l-.1153.2061c-.2882.4699-.7014.8527-1.1953 1.1045l-.123.0576c-.46.1976-1.0327.2506-1.9268.2646l-1.1123.0049h-9.4004c-1.68002 0-2.52039-.0002-3.1621-.3271-.49389-.2518-.90713-.6346-1.19532-1.1045l-.11523-.2061c-.24525-.4813-.30694-1.0745-.32227-2.0498l-.00488-1.1123v-9.4004c0-1.57512.00007-2.41185.26953-3.03906l.05762-.12304c.25173-.49389.63451-.90713 1.10449-1.19532l.20606-.11523c.64171-.32697 1.48208-.32715 3.1621-.32715h9.4004zm-10.5127 1.49512c-.86446 0-1.42272.00144-1.84765.03613-.40673.03323-.5585.08917-.63281.12696-.28225.14381-.51244.374-.65625.65625-.03779.07431-.09373.22608-.12696.63281-.03469.42493-.03613.98319-.03613 1.84765v9.4004c0 .8645.00144 1.4227.03613 1.8477.03323.4067.08917.5584.12696.6328.14381.2822.374.5124.65625.6562.07431.0378.22608.0937.63281.127.42493.0347.98319.0361 1.84765.0361h6.6865c-.3038-.8264-.5151-1.6836-.6601-2.5342-.4329.0573-.876.0869-1.3262.0869-2.40703 0-4.60381-.847-6.19434-2.2382l.98829-1.129c1.30614 1.1424 3.14757 1.8672 5.20605 1.8672.3852 0 .763-.0254 1.1309-.0742-.1018-1.0718-.1243-2.0927-.1289-2.9785h-3.002v-.75c0-3.1049.9288-6.2445 1.958-8.25zm6.3789 0c-.9535 1.50918-2.003 4.46322-2.1572 7.5h2.9785v.75c0 1.0074.0021 2.1794.1055 3.3926.9942-.3244 1.8792-.8261 2.6006-1.4571l.9873 1.129c-.947.8282-2.1095 1.4602-3.4024 1.8388.1621.9762.4175 1.9449.8096 2.8467h1.0996c.8645 0 1.4227-.0014 1.8477-.0361.4067-.0333.5584-.0892.6328-.127.2822-.1438.5124-.374.6562-.6562.0378-.0744.0937-.2261.127-.6328.0347-.425.0361-.9832.0361-1.8477v-9.4004c0-.86446-.0014-1.42272-.0361-1.84765-.0333-.40673-.0892-.5585-.127-.63281-.1438-.28225-.374-.51244-.6562-.65625-.0744-.03779-.2261-.09373-.6328-.12696-.425-.03469-.9832-.03613-1.8477-.03613z" fill-rule="evenodd"/></g></svg>