<svg fill="none" height="16" viewBox="0 0 16 16" width="16" xmlns="http://www.w3.org/2000/svg"><g fill="#00a008"><path clip-rule="evenodd" d="m11 8c0 1.65685-1.34315 3-3 3s-3-1.34315-3-3 1.34315-3 3-3 3 1.34315 3 3zm-3 1.5c.82843 0 1.5-.67157 1.5-1.5s-.67157-1.5-1.5-1.5-1.5.67157-1.5 1.5.67157 1.5 1.5 1.5z" fill-rule="evenodd"/><path d="m11.25 5.5c.4142 0 .75-.33579.75-.75s-.3358-.75-.75-.75-.75.33579-.75.75.3358.75.75.75z"/><path clip-rule="evenodd" d="m1.5 5.75c0-2.34721 1.90279-4.25 4.25-4.25h4.5c2.3472 0 4.25 1.90279 4.25 4.25v4.5c0 2.3472-1.9028 4.25-4.25 4.25h-4.5c-2.34721 0-4.25-1.9028-4.25-4.25zm4.25-2.75c-1.51878 0-2.75 1.23122-2.75 2.75v4.5c0 1.5188 1.23122 2.75 2.75 2.75h4.5c1.5188 0 2.75-1.2312 2.75-2.75v-4.5c0-1.51878-1.2312-2.75-2.75-2.75z" fill-rule="evenodd"/></g></svg>