<svg fill="none" height="20" viewBox="0 0 20 20" width="20" xmlns="http://www.w3.org/2000/svg"><g fill="#00a008"><path clip-rule="evenodd" d="m10 13.5c1.933 0 3.5-1.567 3.5-3.5s-1.567-3.5-3.5-3.5-3.5 1.567-3.5 3.5 1.567 3.5 3.5 3.5zm0-1.5c1.1046 0 2-.8954 2-2 0-1.10457-.8954-2-2-2-1.10457 0-2 .89543-2 2 0 1.1046.89543 2 2 2z" fill-rule="evenodd"/><path d="m14 7c.5523 0 1-.44772 1-1s-.4477-1-1-1-1 .44772-1 1 .4477 1 1 1z"/><path clip-rule="evenodd" d="m2 7c0-2.76142 2.23858-5 5-5h6c2.7614 0 5 2.23858 5 5v6c0 2.7614-2.2386 5-5 5h-6c-2.76142 0-5-2.2386-5-5zm5-3.5c-1.933 0-3.5 1.567-3.5 3.5v6c0 1.933 1.567 3.5 3.5 3.5h6c1.933 0 3.5-1.567 3.5-3.5v-6c0-1.933-1.567-3.5-3.5-3.5z" fill-rule="evenodd"/></g></svg>