<svg fill="none" height="24" viewBox="0 0 24 24" width="24" xmlns="http://www.w3.org/2000/svg"><g fill="#00a008"><path clip-rule="evenodd" d="m7.5 12c0-2.48528 2.01472-4.5 4.5-4.5 2.4853 0 4.5 2.01472 4.5 4.5 0 2.4853-2.0147 4.5-4.5 4.5-2.48528 0-4.5-2.0147-4.5-4.5zm4.5-3c-1.6569 0-3 1.3431-3 3s1.3431 3 3 3 3-1.3431 3-3-1.3431-3-3-3z" fill-rule="evenodd"/><path d="m17 8c.5523 0 1-.44772 1-1s-.4477-1-1-1-1 .44772-1 1 .4477 1 1 1z"/><path clip-rule="evenodd" d="m2.5 8.25c0-3.17564 2.57436-5.75 5.75-5.75h7.5c3.1756 0 5.75 2.57436 5.75 5.75v7.5c0 3.1756-2.5744 5.75-5.75 5.75h-7.5c-3.17564 0-5.75-2.5744-5.75-5.75zm5.75-4.25c-2.34721 0-4.25 1.90279-4.25 4.25v7.5c0 2.3472 1.90279 4.25 4.25 4.25h7.5c2.3472 0 4.25-1.9028 4.25-4.25v-7.5c0-2.34721-1.9028-4.25-4.25-4.25z" fill-rule="evenodd"/></g></svg>