<svg fill="none" height="16" viewBox="0 0 16 16" width="16" xmlns="http://www.w3.org/2000/svg"><g fill="#00a008"><path d="m14 3.5c.2929-.29289.7678-.29289 1.0607 0s.2929.76777 0 1.06066l-1.7804 1.71967c-.1406.14065-.3314.21967-.5303.21967s-.3897-.07902-.5303-.21967l-1.7804-1.71967c-.2929-.29289-.2929-.76777 0-1.06066s.7678-.29289 1.0607 0l.5.43934v-3.18934c0-.414213.3358-.75.75-.75s.75.335787.75.75v3.18934z"/><path d="m8.05913 1.06413c.47556-.125153.94087.23355.94087.7253 0 .3407-.22965.6386-.55913.72531l-1.84385.48522h1.65298c.41421 0 .75.33579.75.75s-.33579.75-.75.75h-4.5c-.69036 0-1.25.55964-1.25 1.25v5.50004c0 .6903.55964 1.25 1.25 1.25h8.5c.6904 0 1.25-.5597 1.25-1.25v-2.50004c0-.41421.3358-.75.75-.75s.75.33579.75.75v2.50004c0 1.5187-1.2312 2.75-2.75 2.75h-8.5c-1.51878 0-2.75-1.2313-2.75-2.75v-5.82282c0-1.47638.99513-2.76726 2.4229-3.14299z"/></g></svg>