<svg fill="none" height="20" viewBox="0 0 20 20" width="20" xmlns="http://www.w3.org/2000/svg"><g fill="#00a008"><path d="m14 5.93934-.7197-.71967c-.2929-.29289-.7677-.29289-1.0606 0s-.2929.76777 0 1.06066l2 2c.1406.14065.3314.21967.5303.21967s.3897-.07902.5303-.21967l2-2c.2929-.29289.2929-.76777 0-1.06066s-.7677-.29289-1.0606 0l-.7197.71967v-4.18934c0-.41421-.3358-.75-.75-.75s-.75.33579-.75.75z"/><path d="m8.99961 2.0633c.48811-.17287 1.00039.18916 1.00039.70697 0 .31769-.20015.60091-.49961.70697l-4.29883 1.5225c.01612-.0002.03227-.0003.04844-.0003h3.99973c.41436 0 .75027.33591.75027.75027 0 .41437-.33591.75028-.75027.75028h-3.99973c-1.24264 0-2.25 1.00736-2.25 2.25v5.50001c0 1.2426 1.00736 2.25 2.25 2.25h9.5c1.2426 0 2.25-1.0074 2.25-2.25v-3.5c0-.4142.3358-.75001.75-.75001s.75.33581.75.75001v3.5c0 2.0711-1.6789 3.75-3.75 3.75h-9.5c-2.07107 0-3.75-1.6789-3.75-3.75v-6.52712c0-1.80023 1.13421-3.40516 2.83115-4.00616z"/></g></svg>