<svg fill="none" height="24" viewBox="0 0 24 24" width="24" xmlns="http://www.w3.org/2000/svg"><g fill="#00a008"><path d="m21.2803 6.21967c-.2929-.29289-.7677-.29289-1.0606 0l-.7197.71967v-5.18934c0-.41421-.3358-.75-.75-.75s-.75.33579-.75.75v5.18934l-.7197-.71967c-.2929-.29289-.7677-.29289-1.0606 0s-.2929.76777 0 1.06066l2 2c.1406.14065.3314.21967.5303.21967s.3897-.07902.5303-.21967l2-2c.2929-.29289.2929-.76777 0-1.06066z"/><path d="m13.0162 1.92792c.485-.15914.9838.20218.9838.71262 0 .32412-.2082.61157-.5162.71262l-6.5425 2.14676h6.3087c.4142 0 .75.33579.75.75 0 .41422-.3358.75-.75.75h-7.5c-1.51878 0-2.75 1.23122-2.75 2.75v7.49998c0 1.5188 1.23122 2.75 2.75 2.75h12.5c1.5188 0 2.75-1.2312 2.75-2.75v-4.4999c0-.4142.3358-.75.75-.75s.75.3358.75.75v4.4999c0 2.3472-1.9028 4.25-4.25 4.25h-12.5c-2.34721 0-4.25-1.9028-4.25-4.25v-8.46482c0-1.83668 1.17984-3.46555 2.92498-4.03817z"/></g></svg>