<svg fill="none" height="16" viewBox="0 0 16 16" width="16" xmlns="http://www.w3.org/2000/svg"><g fill="#00a008"><path d="m1 9h6v6h-5.2c-.28003 0-.42004 0-.527-.0545-.09408-.0479-.17057-.1244-.2185-.2185-.0545-.107-.0545-.247-.0545-.527z"/><path d="m15 14.2c0 .28 0 .42-.0545.527-.0479.0941-.1244.1706-.2185.2185-.107.0545-.247.0545-.527.0545h-5.2v-6h6z"/><path d="m7 1v6h-6v-5.2c0-.28003 0-.42004.0545-.527.04793-.09408.12442-.17057.2185-.2185.10696-.0545.24697-.0545.527-.0545z"/><path d="m15 7h-6v-6h5.2c.28 0 .42 0 .527.0545.0941.04793.1706.12442.2185.2185.0545.10696.0545.24697.0545.527z"/></g></svg>