<svg fill="none" height="20" viewBox="0 0 20 20" width="20" xmlns="http://www.w3.org/2000/svg"><g fill="#00a008"><path d="m2 11h7v7h-5.40039c-.55979 0-.83985-.0004-1.05371-.1094-.18797-.0958-.34068-.2485-.43652-.4365-.10897-.2139-.10938-.4939-.10938-1.0537z"/><path d="m18 16.4004c0 .5598-.0004.8398-.1094 1.0537-.0958.188-.2485.3407-.4365.4365-.2139.109-.4939.1094-1.0537.1094h-5.4004v-7h7z"/><path d="m9 2v7h-7v-5.40039c0-.55979.00041-.83985.10938-1.05371.09584-.18797.24855-.34068.43652-.43652.21386-.10897.49392-.10938 1.05371-.10938z"/><path d="m16.4004 2c.5598 0 .8398.00041 1.0537.10938.188.09584.3407.24855.4365.43652.109.21386.1094.49392.1094 1.05371v5.40039h-7v-7z"/></g></svg>