<svg fill="none" height="24" viewBox="0 0 24 24" width="24" xmlns="http://www.w3.org/2000/svg"><g fill="#00a008"><path d="m3 13h8v8h-5.6c-.84008 0-1.26012 0-1.58099-.1635-.28224-.1438-.51171-.3733-.65552-.6555-.16349-.3209-.16349-.7409-.16349-1.581z"/><path d="m21 18.6c0 .8401 0 1.2601-.1635 1.581-.1438.2822-.3733.5117-.6555.6555-.3209.1635-.7409.1635-1.581.1635h-5.6v-8h8z"/><path d="m11 3v8h-8v-5.6c0-.84008 0-1.26012.16349-1.58099.14381-.28224.37328-.51171.65552-.65552.32087-.16349.74091-.16349 1.58099-.16349z"/><path d="m21 11h-8v-8h5.6c.8401 0 1.2601 0 1.581.16349.2822.14381.5117.37328.6555.65552.1635.32087.1635.74091.1635 1.58099z"/></g></svg>