<svg width="16" height="16" viewBox="0 0 16 16" fill="none" xmlns="http://www.w3.org/2000/svg">
<path fill-rule="evenodd" clip-rule="evenodd" d="M10.5654 1.5C12.7382 1.5 14.5 3.26177 14.5 5.43457V10.5654C14.5 12.7382 12.7382 14.5 10.5654 14.5H5.43457C3.26177 14.5 1.5 12.7382 1.5 10.5654V5.43457C1.5 3.26177 3.26177 1.5 5.43457 1.5H10.5654ZM5.35938 5.35938C3.90125 5.35957 2.71888 6.54186 2.71875 8C2.71875 9.45825 3.90117 10.6404 5.35938 10.6406C6.81762 10.6405 8 9.45828 8 8C7.99987 6.54183 6.81753 5.35954 5.35938 5.35938ZM9.92188 5.60547C9.13674 5.60575 8.5 6.69695 8.5 8.04297C8.5 9.38899 9.13674 10.4802 9.92188 10.4805C10.707 10.4802 11.3438 9.38899 11.3438 8.04297C11.3438 6.69694 10.707 5.60574 9.92188 5.60547ZM12.6094 5.76562C12.273 5.76623 12 6.76636 12 8C12 9.23364 12.273 10.2338 12.6094 10.2344C12.9458 10.2338 13.2188 9.23365 13.2188 8C13.2188 6.76635 12.9458 5.76621 12.6094 5.76562Z" fill="#00A008"/>
</svg>
