<svg width="20" height="20" viewBox="0 0 20 20" fill="none" xmlns="http://www.w3.org/2000/svg">
<path fill-rule="evenodd" clip-rule="evenodd" d="M13.1582 2C15.8322 2.00017 17.9998 4.16782 18 6.8418V13.1582C17.9998 15.8322 15.8322 17.9998 13.1582 18H6.8418C4.16782 17.9998 2.00017 15.8322 2 13.1582V6.8418C2.00017 4.16782 4.16782 2.00017 6.8418 2H13.1582ZM6.75 6.75C4.95532 6.7502 3.50013 8.20531 3.5 10C3.5 11.7948 4.95524 13.2498 6.75 13.25C8.54476 13.2498 10 11.7948 10 10C9.99987 8.20531 8.54468 6.7502 6.75 6.75ZM12.5 7.05273C11.5337 7.05307 10.7501 8.3962 10.75 10.0527C10.75 11.7094 11.5337 13.0524 12.5 13.0527C13.4663 13.0524 14.25 11.7094 14.25 10.0527C14.2499 8.3962 13.4663 7.05307 12.5 7.05273ZM15.75 7.25C15.336 7.25073 15 8.48166 15 10C15 11.5183 15.336 12.7493 15.75 12.75C16.164 12.7493 16.5 11.5183 16.5 10C16.5 8.48166 16.164 7.25073 15.75 7.25Z" fill="#00A008"/>
</svg>
