<svg width="24" height="24" viewBox="0 0 24 24" fill="none" xmlns="http://www.w3.org/2000/svg">
<path fill-rule="evenodd" clip-rule="evenodd" d="M15.75 2.5C18.9256 2.5 21.5 5.07436 21.5 8.25V15.75C21.5 18.9256 18.9256 21.5 15.75 21.5H8.25C5.07436 21.5 2.5 18.9256 2.5 15.75V8.25C2.5 5.07436 5.07436 2.5 8.25 2.5H15.75ZM8.5 8C6.29086 8 4.5 9.79086 4.5 12C4.5 14.2091 6.29086 16 8.5 16C10.7091 16 12.5 14.2091 12.5 12C12.5 9.79086 10.7091 8 8.5 8ZM15.1875 8.5C13.9794 8.5 13 10.067 13 12C13 13.933 13.9794 15.5 15.1875 15.5C16.3956 15.5 17.375 13.933 17.375 12C17.375 10.067 16.3956 8.5 15.1875 8.5ZM19 9C18.4477 9 18 10.3431 18 12C18 13.6569 18.4477 15 19 15C19.5523 15 20 13.6569 20 12C20 10.3431 19.5523 9 19 9Z" fill="#00A008"/>
</svg>
