<svg fill="none" height="16" viewBox="0 0 16 16" width="16" xmlns="http://www.w3.org/2000/svg"><g fill="#00a008"><path d="m3 5.25c0-1.24264 1.00736-2.25 2.25-2.25h.5c.41421 0 .75-.33579.75-.75s-.33579-.75-.75-.75h-.5c-2.07107 0-3.75 1.67893-3.75 3.75v5.5c0 2.0711 1.67893 3.75 3.75 3.75h5.5c2.0711 0 3.75-1.6789 3.75-3.75v-1c0-.41421-.3358-.75-.75-.75s-.75.33579-.75.75v1c0 1.2426-1.0074 2.25-2.25 2.25h-5.5c-1.24264 0-2.25-1.0074-2.25-2.25z"/><path d="m9.49988 2.25c0-.41421.33534-.75.74902-.75h3.5021c.4137 0 .749.33579.749.75v3.5c0 .41421-.3353.75-.749.75s-.749-.33579-.749-.75v-1.70527l-3.98033 3.9856c-.2925.29289-.76675.29289-1.05925 0-.29251-.29289-.29251-.76777 0-1.06066l3.96438-3.96967h-1.6779c-.41368 0-.74902-.33579-.74902-.75z"/></g></svg>