<svg fill="none" height="20" viewBox="0 0 20 20" width="20" xmlns="http://www.w3.org/2000/svg"><g fill="#00a008"><path d="m3.5 6.75c0-1.79492 1.45507-3.25 3.25-3.25h.25c.41421 0 .75-.33579.75-.75s-.33579-.75-.75-.75h-.25c-2.62335 0-4.75 2.12665-4.75 4.75v6.5c0 2.6234 2.12665 4.75 4.75 4.75h6.5c2.6234 0 4.75-2.1266 4.75-4.75v-.25c0-.4142-.3358-.75-.75-.75s-.75.3358-.75.75v.25c0 1.7949-1.4551 3.25-3.25 3.25h-6.5c-1.79492 0-3.25-1.4551-3.25-3.25z"/><path d="m11.7492 2c-.4138 0-.7492.33579-.7492.75s.3354.75.7492.75h3.676l-5.96357 5.96967c-.29259.29289-.29259.76773 0 1.06063.2926.2929.76697.2929 1.05957 0l5.9799-5.986v3.7057c0 .41421.3355.75.7493.75s.7492-.33579.7492-.75v-5.5c0-.41421-.3354-.75-.7492-.75z"/></g></svg>