<svg fill="none" height="24" viewBox="0 0 24 24" width="24" xmlns="http://www.w3.org/2000/svg"><g fill="#00a008"><path d="m4 7.25c0-1.79493 1.45507-3.25 3.25-3.25h2c.41421 0 .75-.33579.75-.75s-.33579-.75-.75-.75h-2c-2.62335 0-4.75 2.12665-4.75 4.75v9.5c0 2.6234 2.12665 4.75 4.75 4.75h9.5c2.6234 0 4.75-2.1266 4.75-4.75v-2c0-.4142-.3358-.75-.75-.75s-.75.3358-.75.75v2c0 1.7949-1.4551 3.25-3.25 3.25h-9.5c-1.79493 0-3.25-1.4551-3.25-3.25z"/><path d="m14 3.25c0-.41421.3355-.75.7493-.75h6.002c.4138 0 .7493.33579.7493.75v6c0 .41421-.3355.75-.7493.75-.4139 0-.7494-.33579-.7494-.75v-4.20605l-7.5019 7.50785c-.2927.2929-.7672.2929-1.0598 0-.2927-.2929-.2927-.7678 0-1.0607l7.4852-7.4911h-4.1761c-.4138 0-.7493-.33579-.7493-.75z"/></g></svg>