<svg fill="none" height="16" viewBox="0 0 16 16" width="16" xmlns="http://www.w3.org/2000/svg"><g fill="#00a008"><path d="m1.75 1.5c-.41421 0-.75.33609-.75.75068v.98917c0 .41459.33579.75068.75.75068s.75-.33609.75-.75068v-.2385h3.75v9.99725h-1.5c-.41421 0-.75.3361-.75.7507s.33579.7507.75.7507h4.5c.41421 0 .75-.3361.75-.7507s-.33579-.7507-.75-.7507h-1.5v-9.99725h3.75v.2385c0 .41459.3358.75068.75.75068s.75-.33609.75-.75068v-.98917c0-.41459-.3358-.75068-.75-.75068z"/><path d="m12.75 6.5c-.4142 0-.75.33577-.75.74999v.75001h-.75c-.4142 0-.75.33579-.75.75s.3358.75.75.75h.75v.75c0 .4142.3358.75.75.75s.75-.3358.75-.75v-.75h.75c.4142 0 .75-.33579.75-.75s-.3358-.75-.75-.75h-.75v-.75001c0-.41422-.3358-.74999-.75-.74999z"/></g></svg>