<svg fill="none" height="20" viewBox="0 0 20 20" width="20" xmlns="http://www.w3.org/2000/svg"><g fill="#00a008"><path d="m1.75 2.5c-.41421 0-.75.3351-.75.74847v1.49695c0 .41337.33579.74848.75.74848s.75-.33511.75-.74848v-.74847h4.75v12.00615h-1.5c-.41421 0-.75.3351-.75.7484 0 .4134.33579.7485.75.7485h4.5c.4142 0 .75-.3351.75-.7485 0-.4133-.3358-.7484-.75-.7484h-1.5v-12.00615h4.75v.74847c0 .41337.3358.74848.75.74848s.75-.33511.75-.74848v-1.49695c0-.41337-.3358-.74847-.75-.74847z"/><path d="m15.5 8.75c0-.41421.3358-.75.75-.75s.75.33579.75.75v1.25h1.25c.4142 0 .75.3358.75.75s-.3358.75-.75.75h-1.25v1.25c0 .4142-.3358.75-.75.75s-.75-.3358-.75-.75v-1.25h-1.25c-.4142 0-.75-.3358-.75-.75s.3358-.75.75-.75h1.25z"/></g></svg>