<svg fill="none" height="24" viewBox="0 0 24 24" width="24" xmlns="http://www.w3.org/2000/svg"><g fill="#00a008"><path d="m2.75 3.5c-.41421 0-.75.33579-.75.75v1.5c0 .41421.33579.75.75.75s.75-.33579.75-.75v-.75h5.75v14.0013h-1.5c-.41421 0-.75.3358-.75.75s.33579.75.75.75h4.5c.4142 0 .75-.3358.75-.75s-.3358-.75-.75-.75h-1.5v-14.0013h5.75v.75c0 .41421.3358.75.75.75s.75-.33579.75-.75v-1.5c0-.41421-.3358-.75-.75-.75z"/><path d="m18.2497 9c-.4142 0-.75.33579-.75.75v2.25h-2.2597c-.4142 0-.74.3358-.74.75s.3258.75.74.75h2.2597l.0003 2.25c0 .4142.3358.75.75.75s.75-.3358.75-.75l-.0003-2.25h2.2503c.4142 0 .75-.3358.75-.75s-.3358-.75-.75-.75h-2.2503v-2.25c0-.41421-.3357-.75-.75-.75z"/></g></svg>