<svg fill="none" height="24" viewBox="0 0 24 24" width="24" xmlns="http://www.w3.org/2000/svg"><g fill="#00a008"><path d="m10 2.5h-2.25c-2.89949 0-5.25 2.3505-5.25 5.25v2.25h1.5v-2.25c0-2.07107 1.67893-3.75 3.75-3.75h2.25z"/><path d="m14 4v-1.5h2.25c2.8995 0 5.25 2.35051 5.25 5.25v2.25h-1.5v-2.25c0-2.07107-1.6789-3.75-3.75-3.75z"/><path d="m14 20h2.25c2.0711 0 3.75-1.6789 3.75-3.75v-2.25h1.5v2.25c0 2.8995-2.3505 5.25-5.25 5.25h-2.25z"/><path d="m4 14v2.25c0 2.0711 1.67893 3.75 3.75 3.75h2.25v1.5h-2.25c-2.8995 0-5.25-2.3505-5.25-5.25v-2.25z"/></g></svg>