<svg fill="none" height="16" viewBox="0 0 16 16" width="16" xmlns="http://www.w3.org/2000/svg"><g fill="#00a008"><path d="m8.25 1.5c.41421 0 .75.33579.75.75s-.33579.75-.75.75h-3c-1.24264 0-2.25 1.00736-2.25 2.25v7.75h7.75c1.2426 0 2.25-1.0074 2.25-2.25v-3c0-.41421.3358-.75.75-.75s.75.33579.75.75v3c0 2.0711-1.6789 3.75-3.75 3.75h-8c-.69036 0-1.25-.5596-1.25-1.25v-8c0-2.07107 1.67893-3.75 3.75-3.75z"/><path d="m4.75 7.5c-.41421 0-.75.33579-.75.75s.33579.75.75.75h2.5c.41421 0 .75-.33579.75-.75s-.33579-.75-.75-.75z"/><path d="m4.75 10c-.41421 0-.75.3358-.75.75s.33579.75.75.75h4.5c.41421 0 .75-.3358.75-.75s-.33579-.75-.75-.75z"/></g><circle cx="13" cy="3" fill="#d900ff" r="2"/></svg>