<svg fill="none" height="20" viewBox="0 0 20 20" width="20" xmlns="http://www.w3.org/2000/svg"><circle cx="16" cy="4" fill="#d900ff" r="3"/><g fill="#00a008"><path d="m5 10.25c0-.41421.33579-.75.75-.75h3.5c.41421 0 .75.33579.75.75 0 .4142-.33579.75-.75.75h-3.5c-.41421 0-.75-.3358-.75-.75z"/><path d="m5.75 12.5c-.41421 0-.75.3358-.75.75s.33579.75.75.75h6.5c.4142 0 .75-.3358.75-.75s-.3358-.75-.75-.75z"/><path d="m11.0039 2.75c0-.41421-.3358-.75-.75-.75h-3.5039c-2.62335 0-4.75 2.12665-4.75 4.75v9.5c0 .9665.7835 1.75 1.75 1.75h9.5c2.6234 0 4.75-2.1266 4.75-4.75v-3.49219c0-.41421-.3358-.75-.75-.75s-.75.33579-.75.75v3.49219c0 1.7949-1.4551 3.25-3.25 3.25h-9.5c-.13807 0-.25-.1119-.25-.25v-9.5c0-1.79492 1.45507-3.25 3.25-3.25h3.5039c.4142 0 .75-.33579.75-.75z"/></g></svg>