<svg fill="none" height="24" viewBox="0 0 24 24" width="24" xmlns="http://www.w3.org/2000/svg"><circle cx="20" cy="4" fill="#d900ff" r="3"/><g fill="#00a008"><path d="m14.25 2.5c.4142 0 .75.33579.75.75s-.3358.75-.75.75h-6.5c-2.07107 0-3.75 1.67893-3.75 3.75v12c0 .1381.11193.25.25.25h12c2.0711 0 3.75-1.6789 3.75-3.75v-6.5c0-.41421.3358-.75.75-.75s.75.33579.75.75v6.5c0 2.8995-2.3505 5.25-5.25 5.25h-12c-.9665 0-1.75-.7835-1.75-1.75v-12c0-2.8995 2.35051-5.25 5.25-5.25z"/><path d="m6.75 13c-.41421 0-.75.3358-.75.75s.33579.75.75.75h4.5c.4142 0 .75-.3358.75-.75s-.3358-.75-.75-.75z"/><path d="m6.75 16c-.41421 0-.75.3358-.75.75s.33579.75.75.75h7.5c.4142 0 .75-.3358.75-.75s-.3358-.75-.75-.75z"/></g></svg>