<svg fill="none" height="16" viewBox="0 0 16 16" width="16" xmlns="http://www.w3.org/2000/svg"><g fill="#00a008"><path d="m9.5 8c0 .82843-.67157 1.5-1.5 1.5s-1.5-.67157-1.5-1.5.67157-1.5 1.5-1.5 1.5.67157 1.5 1.5z"/><path clip-rule="evenodd" d="m5.75 1.5c-2.34721 0-4.25 1.90279-4.25 4.25v4.5c0 2.3472 1.90279 4.25 4.25 4.25h4.5c2.3472 0 4.25-1.9028 4.25-4.25v-4.5c0-2.34721-1.9028-4.25-4.25-4.25zm2.25 9.5c1.65685 0 3-1.34315 3-3s-1.34315-3-3-3-3 1.34315-3 3 1.34315 3 3 3zm4-6.25c0 .41421-.3358.75-.75.75s-.75-.33579-.75-.75.3358-.75.75-.75.75.33579.75.75z" fill-rule="evenodd"/></g></svg>