<svg fill="none" height="20" viewBox="0 0 20 20" width="20" xmlns="http://www.w3.org/2000/svg"><g fill="#00a008"><path d="m12 10c0 1.1046-.8954 2-2 2-1.10457 0-2-.8954-2-2 0-1.10457.89543-2 2-2 1.1046 0 2 .89543 2 2z"/><path clip-rule="evenodd" d="m7 2c-2.76142 0-5 2.23858-5 5v6c0 2.7614 2.23858 5 5 5h6c2.7614 0 5-2.2386 5-5v-6c0-2.76142-2.2386-5-5-5zm6.5 8c0 1.933-1.567 3.5-3.5 3.5s-3.5-1.567-3.5-3.5 1.567-3.5 3.5-3.5 3.5 1.567 3.5 3.5zm1.5-4c0 .55228-.4477 1-1 1s-1-.44772-1-1 .4477-1 1-1 1 .44772 1 1z" fill-rule="evenodd"/></g></svg>