<svg fill="none" height="24" viewBox="0 0 24 24" width="24" xmlns="http://www.w3.org/2000/svg"><g fill="#00a008"><path d="m12 9c-1.6569 0-3 1.3431-3 3s1.3431 3 3 3 3-1.3431 3-3-1.3431-3-3-3z"/><path clip-rule="evenodd" d="m8.25 2.5c-3.17564 0-5.75 2.57436-5.75 5.75v7.5c0 3.1756 2.57436 5.75 5.75 5.75h7.5c3.1756 0 5.75-2.5744 5.75-5.75v-7.5c0-3.17564-2.5744-5.75-5.75-5.75zm-.75 9.5c0-2.48528 2.01472-4.5 4.5-4.5 2.4853 0 4.5 2.01472 4.5 4.5 0 2.4853-2.0147 4.5-4.5 4.5-2.48528 0-4.5-2.0147-4.5-4.5zm9.5-4c.5523 0 1-.44772 1-1s-.4477-1-1-1-1 .44772-1 1 .4477 1 1 1z" fill-rule="evenodd"/></g></svg>