<svg fill="none" height="16" viewBox="0 0 16 16" width="16" xmlns="http://www.w3.org/2000/svg"><g fill="#00a008"><path d="m5 5c.29288-.29281.76767-.2928 1.06055 0l1.55175 1.55166c.50025-.1334 1.05579-.00469 1.44825.38769.39225.39225.51977.94719.38672 1.44727l.55273.55283c.2925.2929.2927.76776 0 1.06055-.29278.2928-.76763.2926-1.06055 0l-.55273-.55284c-.50014.13316-1.05496.00559-1.44727-.38671-.39244-.39251-.52119-.94794-.38769-1.44825l-1.55176-1.55165c-.29283-.2929-.29287-.76768 0-1.06055z"/><path clip-rule="evenodd" d="m8 .999899c3.8659 0 6.9999 3.134091 7 7.000001 0 3.866-3.134 7-7 7-3.86599 0-7-3.134-7-7 .0001-3.86591 3.13407-7.000001 7-7.000001zm0 1.500001c-3.0375 0-5.4999 2.46252-5.5 5.5 0 3.0376 2.46243 5.5 5.5 5.5 3.0376 0 5.5-2.4624 5.5-5.5-.0001-3.03748-2.4625-5.5-5.5-5.5z" fill-rule="evenodd"/><path d="m13.1963.389547c.2581-.3236423.7298-.3768935 1.0537-.119141.2709.21585.5329.448897.7832.699219.2437.243675.4706.498535.6816.761715.259.32311.2078.79461-.1152 1.05371-.3232.2591-.7956.20697-1.0547-.11621-.1766-.22026-.3676-.43305-.5722-.63769-.2105-.21048-.4303-.40702-.6573-.58789-.3236-.25807-.3768-.729846-.1191-1.053713z"/></g></svg>