<svg fill="none" height="20" viewBox="0 0 20 20" width="20" xmlns="http://www.w3.org/2000/svg"><g fill="#00a008"><path d="m6 6c.29285-.29267.76769-.29267 1.06055 0l2.55273 2.55229c.50002-.13307 1.05502-.0054 1.44722.38672.3922.3922.5197.94723.3868 1.44729l1.0879 1.0605c.2928.2929.2927.7677 0 1.0606-.2929.2929-.7677.2929-1.0606 0l-1.0879-1.0606c-.50001.1332-1.05494.0064-1.44725-.3857-.39256-.3926-.52128-.9488-.38769-1.44924l-2.55176-2.55131c-.29272-.29291-.29284-.76771 0-1.06055z"/><path clip-rule="evenodd" d="m9.75 1.49956c4.5562 0 8.2498 3.69382 8.25 8.24999 0 4.55635-3.6937 8.25005-8.25 8.25005-4.55635 0-8.25-3.6937-8.25-8.25005.00021-4.55617 3.69378-8.24999 8.25-8.24999zm0 1.5c-3.72779 0-6.74979 3.02225-6.75 6.74999 0 3.72795 3.02208 6.75005 6.75 6.75005 3.7279 0 6.75-3.0221 6.75-6.75005-.0002-3.72774-3.0222-6.74999-6.75-6.74999z" fill-rule="evenodd"/><path d="m15.5361.9185c.2405-.337127.7077-.415142 1.045-.174804.5083.362284.9938.770274 1.4492 1.225584.4553.45532.8642.9409 1.2265 1.44922.2402.33719.1622.80549-.1748 1.0459-.3373.24039-.8064.16153-1.0468-.17578-.3141-.44069-.6694-.86168-1.0655-1.25781-.3963-.39632-.8178-.75217-1.2588-1.06641-.3372-.24042-.4151-.70862-.1748-1.0459z"/></g></svg>