<svg fill="none" height="24" viewBox="0 0 24 24" width="24" xmlns="http://www.w3.org/2000/svg"><g fill="#00a008"><path d="m7 7c.29286-.29271.76769-.29271 1.06055 0l3.15915 3.1589c.7279-.30819 1.601-.16648 2.1944.4268.5933.5933.7349 1.4663.4267 2.1943l1.1592 1.1595c.2928.2928.2928.7676 0 1.0605-.2929.2929-.7677.2929-1.0605 0l-1.1592-1.1595c-.7281.3084-1.6009.1667-2.1944-.4267-.59331-.5935-.73513-1.4664-.4267-2.1944l-3.1592-3.15885c-.29275-.29291-.29285-.7677 0-1.06055z"/><path clip-rule="evenodd" d="m12 1.99972c5.5227 0 9.9998 4.4773 10 9.99998 0 5.5229-4.4772 10-10 10-5.52285 0-10-4.4771-10-10 .00018-5.52268 4.47726-9.99998 10-9.99998zm0 1.5c-4.69431 0-8.49982 3.80573-8.5 8.49998 0 4.6944 3.80558 8.5 8.5 8.5 4.6944 0 8.5-3.8056 8.5-8.5-.0002-4.69425-3.8057-8.49998-8.5-8.49998z" fill-rule="evenodd"/><path d="m18.7656 1.18917c.2405-.336924.7078-.415087 1.0449-.1748.6033.42994 1.1793.91459 1.7198 1.45508.5406.54059 1.026 1.11733 1.456 1.7207.2399.33725.1613.80465-.1758 1.04492-.3373.24027-.8055.16149-1.0459-.17578-.3818-.53577-.8135-1.04788-1.2949-1.5293-.4815-.48146-.9934-.91303-1.5293-1.29492-.3373-.2404-.4152-.70859-.1748-1.0459z"/></g></svg>