<svg fill="none" height="16" viewBox="0 0 16 16" width="16" xmlns="http://www.w3.org/2000/svg"><circle cx="12" cy="3" fill="#d900ff" r="2"/><path clip-rule="evenodd" d="m13.4899 6.25h-1.4899c0 .28731.0369 1.06564.1139 1.37627.0756.30488.195.6483.3724.92854l.0059.00911.8756 1.33963c.0974.15805.0918.29525.0238.42775-.0793.1544-.2734.3445-.6182.4538-3.0615.9705-6.4853.9705-9.54675 0-.34306-.1091-.54515-.2948-.62712-.4451-.06317-.1158-.08227-.2477.03137-.43431l.89769-1.34304.00497-.00784c.18371-.29015.29499-.64153.36189-.94529.06894-.31298.10445-.63904.10445-.9147l-.00011-.8437c.00006-1.82442 1.77626-3.35112 3.9587-3.35112.19369 0 .38472.01222.57203.03575.06922-.5223.25362-1.00825.52683-1.43147-.36275-.06867-.73134-.10428-1.09886-.10428-2.75847 0-5.4587 1.96664-5.4587 4.85121l.00011.84361c-.00001.1594-.02202.37723-.06934.59205-.04817.2187-.11002.37681-.16061.45953l-.89995 1.34642-.00612.0098c-.404312.64716-.406372 1.35948-.08122 1.95568.30726.5633.86686.9585 1.49025 1.1565.75911.2406 1.53828.427 2.32779.5588.34117 1.2819 1.50994 2.2264 2.8993 2.2264 1.38937 0 2.5581-.9445 2.8993-2.2264.7895-.1318 1.5683-.318 2.3274-.5587.6552-.2077 1.206-.6273 1.4993-1.1985.3038-.5918.2988-1.29463-.0908-1.91519l-.0074-.01154-.8764-1.34092c-.0571-.09175-.1266-.26181-.1816-.48343-.0542-.21878-.0798-.42915-.0798-.5705zm-5.4899 7.25c-.45553 0-.86364-.2031-1.13874-.5236.7579.0488 1.51958.0488 2.27749 0-.2751.3205-.68321.5236-1.13875.5236z" fill="#00a008" fill-rule="evenodd"/></svg>