<svg fill="none" height="20" viewBox="0 0 20 20" width="20" xmlns="http://www.w3.org/2000/svg"><circle cx="16" cy="4" fill="#d900ff" r="3"/><path clip-rule="evenodd" d="m16.5596 8.4656h-1.5v.49846c0 .35891.0648.77772.1642 1.16464.0976.3801.2434.7876.4378 1.1131l.9998 1.7663.0046.0077c.3189.533.0683 1.2715-.6853 1.5227-3.8294 1.2737-7.97148 1.2736-11.80087-.0001-.43838-.1462-.70197-.4032-.81548-.651-.10547-.2302-.11734-.5253.08968-.873l.00422-.0071.99935-1.7655c.19394-.3246.33981-.7294.43769-1.1094.09964-.38687.16433-.80568.16433-1.16834v-1.44227l-.00005-.02179.00005-.02179v-.26415c0-2.2093 1.66713-4.06649 3.82742-4.57582.37609-.09037.76872-.13824 1.17256-.13824l.0083.00001.0083-.00001c.5548 0 1.093.09088 1.5979.258.1411-.49254.3641-.9505.6532-1.35823-.7102-.25898-1.4712-.39977-2.2511-.39977-3.42754 0-6.51658 2.68178-6.51658 6.21406v1.75c0 .20401-.03948.49354-.11692.79418-.07823.30366-.18042.56126-.27522.71836l-.00541.0089-1.00138 1.7691c-.43877.7419-.48261 1.5534-.16006 2.2575.31559.6889.94401 1.1957 1.70551 1.4496.90689.3016 1.83001.5372 2.76225.7065.1957.5098.51283.9628.90833 1.3254.67761.6211 1.61476 1.0064 2.62388 1.0064 1.5729 0 2.991-.9365 3.5251-2.3022.989-.1712 1.9683-.4166 2.9293-.7363 1.4936-.4978 2.3926-2.2091 1.5032-3.7075l-1.001-1.7685-.0054-.0089c-.0943-.1563-.1966-.4152-.2751-.72096-.0777-.30263-.1171-1.09061-.1171-1.29004zm-6.559 9.0344c-.60821 0-1.16609-.2255-1.56695-.5735 1.03861.0849 2.08225.0893 3.12145.0133-.396.3414-.9361.5602-1.5545.5602z" fill="#00a008" fill-rule="evenodd"/></svg>