<svg fill="none" height="16" viewBox="0 0 16 16" width="16" xmlns="http://www.w3.org/2000/svg"><path clip-rule="evenodd" d="m10.7998 2c1.1201 0 1.6806-.00021 2.1084.21777.3763.19174.6823.49777.874.87403.218.42782.2178.98829.2178 2.1084v5.5996c0 1.1201.0002 1.6806-.2178 2.1084l-.0771.1377c-.1922.3133-.4677.5686-.7969.7363l-.168.0713c-.3803.1358-.8837.1448-1.7402.1455l-6 .001-.54199-.0029c-.54157-.0085-.90608-.0393-1.19824-.1436l-.16797-.0713c-.32924-.1677-.60473-.423-.79688-.7363l-.07715-.1377c-.21798-.4278-.21777-.9883-.21777-2.1084v-5.5996c0-1.12011-.00021-1.68058.21777-2.1084.19174-.37626.49777-.68229.87403-.87403.32083-.16347.71623-.20462 1.36621-.21484l.74219-.00293zm-5.5996 1.5c-.58464 0-.93318.00138-1.19141.02246-.24074.01967-.26814.04893-.23535.03223-.09408.04793-.17082.12467-.21875.21875.0167-.03279-.01256-.00539-.03223.23535-.02108.25823-.02246.60677-.02246 1.19141v5.5996c0 .5846.00138.9332.02246 1.1914.01967.2408.04893.2682.03223.2354.04793.094.12467.1708.21875.2187-.03279-.0167-.00539.0126.23535.0322.25823.0211.60677.0225 1.19141.0225h5.5996c.5846 0 .9332-.0014 1.1914-.0225.2408-.0196.2682-.0489.2354-.0322.094-.0479.1708-.1247.2187-.2187-.0167.0328.0126.0054.0322-.2354.0211-.2582.0225-.6068.0225-1.1914v-5.5996c0-.58464-.0014-.93318-.0225-1.19141-.0196-.24074-.0489-.26814-.0322-.23535-.0479-.09408-.1247-.17082-.2187-.21875.0328.0167.0054-.01256-.2354-.03223-.2582-.02108-.6068-.02246-1.1914-.02246z" fill="#00a008" fill-rule="evenodd"/></svg>