<svg fill="none" height="20" viewBox="0 0 20 20" width="20" xmlns="http://www.w3.org/2000/svg"><path clip-rule="evenodd" d="m14.3125 2.00488c.9753.01533 1.5685.07702 2.0498.32227.5642.28757 1.023.74632 1.3106 1.31055.3269.64171.3271 1.48208.3271 3.1621v6.4004l-.0049 1.1123c-.0153.9753-.077 1.5685-.3222 2.0498l-.1153.2061c-.2882.4699-.7014.8527-1.1953 1.1045l-.123.0576c-.46.1976-1.0327.2506-1.9268.2646l-.3125.001v.0039h-8v-.0039c-1.16501-.0081-1.8316-.0528-2.3623-.3232-.49389-.2518-.90713-.6346-1.19532-1.1045l-.11523-.2061c-.24525-.4813-.30694-1.0745-.32227-2.0498l-.00488-1.1123v-6.4004c0-1.57512.00007-2.41185.26953-3.03906l.05762-.12304c.25173-.49389.63451-.90713 1.10449-1.19532l.20606-.11523c.64171-.32697 1.48208-.32715 3.1621-.32715h6.4004zm-7.5127 1.49512c-.86446 0-1.42272.00144-1.84765.03613-.40673.03323-.5585.08917-.63281.12696-.28225.14381-.51244.374-.65625.65625-.03779.07431-.09373.22608-.12696.63281-.03469.42493-.03613.98319-.03613 1.84765v6.4004c0 .8645.00144 1.4227.03613 1.8477.03323.4067.08917.5584.12696.6328.14381.2822.374.5124.65625.6562.07431.0378.22608.0937.63281.127.42493.0347.98319.0361 1.84765.0361h6.4004c.8645 0 1.4227-.0014 1.8477-.0361.4067-.0333.5584-.0892.6328-.127.2822-.1438.5124-.374.6562-.6562.0378-.0744.0937-.2261.127-.6328.0347-.425.0361-.9832.0361-1.8477v-6.4004c0-.86446-.0014-1.42272-.0361-1.84765-.0333-.40673-.0892-.5585-.127-.63281-.1438-.28225-.374-.51244-.6562-.65625-.0744-.03779-.2261-.09373-.6328-.12696-.425-.03469-.9832-.03613-1.8477-.03613z" fill="#00a008" fill-rule="evenodd"/></svg>