<svg fill="none" height="24" viewBox="0 0 24 24" width="24" xmlns="http://www.w3.org/2000/svg"><path clip-rule="evenodd" d="m15.5996 2c2.2402 0 3.3612-.00043 4.2168.43555.7525.38347 1.3646.99554 1.7481 1.74804.4359.85565.4355 1.97659.4355 4.2168v7.19921c0 2.2402.0004 3.3612-.4355 4.2168l-.1543.2754c-.3843.6265-.9353 1.1371-1.5938 1.4727l-.1641.0761c-.7815.3358-1.8073.356-3.6523.3574v.002h-8v-.002l-1.08398-.0048c-1.19171-.0188-1.95514-.0891-2.56836-.3526l-.16407-.0761c-.65847-.3356-1.20946-.8462-1.59375-1.4727l-.15429-.2754c-.43598-.8556-.43555-1.9766-.43555-4.2168v-7.19921c0-2.24021-.00043-3.36115.43555-4.2168.38347-.7525.99554-1.36457 1.74804-1.74804.64166-.32694 1.43248-.40827 2.73243-.42871l1.48437-.00684zm-7.19921 1.5c-1.14486 0-1.9141.00146-2.50586.0498-.57376.04691-.84822.13043-1.0293.22266-.4704.23968-.85309.62237-1.09277 1.09277-.09223.18108-.17575.45554-.22266 1.0293-.04834.59176-.0498 1.361-.0498 2.50586v7.19921c0 1.1449.00146 1.9141.0498 2.5059.04691.5737.13043.8482.22266 1.0293.23968.4704.62237.8531 1.09277 1.0927.18108.0923.45554.1758 1.0293.2227.59176.0483 1.361.0498 2.50586.0498h7.19921c1.1449 0 1.9141-.0015 2.5059-.0498.5737-.0469.8482-.1304 1.0293-.2227.4704-.2396.8531-.6223 1.0927-1.0927.0923-.1811.1758-.4556.2227-1.0293.0483-.5918.0498-1.361.0498-2.5059v-7.19921c0-1.14486-.0015-1.9141-.0498-2.50586-.0469-.57376-.1304-.84822-.2227-1.0293-.2396-.4704-.6223-.85309-1.0927-1.09277-.1811-.09223-.4556-.17575-1.0293-.22266-.5918-.04834-1.361-.0498-2.5059-.0498z" fill="#00a008" fill-rule="evenodd"/></svg>