<svg fill="none" height="16" viewBox="0 0 16 16" width="16" xmlns="http://www.w3.org/2000/svg"><path d="m1 5c0-1.65685 1.34315-3 3-3h8c1.6569 0 3 1.34315 3 3v6c0 1.6569-1.3431 3-3 3h-8c-1.65685 0-3-1.3431-3-3z" fill="#fff"/><g fill="#ed4c49"><path d="m1 10v1h14v-1z"/><path d="m15 9v-1h-7v1z"/><path d="m15 7v-1h-7v1z"/><path d="m14.8293 4c.1105.31278.1707.64936.1707 1h-7v-1z"/><path d="m12 2h-4v1h6.2361c-.5493-.61375-1.3476-1-2.2361-1z"/><path d="m14.8293 12h-13.65859c.1317.3726.33493.7115.59318 1h12.47221c.2583-.2885.4615-.6274.5932-1z"/></g><path d="m4 2c-1.65685 0-3 1.34315-3 3v4h7v-7z" fill="#444379"/><path d="m5 5v1h-1v-1z" fill="#a7b6e7"/><path clip-rule="evenodd" d="m5 3h-1v1h-1v-1h-1v1h1v1h-1v1h1v1h-1v1h1v-1h1v1h1v-1h1v1h1v-1h-1v-1h1v-1h-1v-1h1v-1h-1v1h-1zm0 2v-1h-1v1h-1v1h1v1h1v-1h1v-1z" fill="#a7b6e7" fill-rule="evenodd"/><path clip-rule="evenodd" d="m12 3h-8c-1.10457 0-2 .89543-2 2v6c0 1.1046.89543 2 2 2h8c1.1046 0 2-.8954 2-2v-6c0-1.10457-.8954-2-2-2zm-8-1c-1.65685 0-3 1.34315-3 3v6c0 1.6569 1.34315 3 3 3h8c1.6569 0 3-1.3431 3-3v-6c0-1.65685-1.3431-3-3-3z" fill="#a50c0f" fill-opacity=".3" fill-rule="evenodd"/></svg>