<svg fill="none" height="20" viewBox="0 0 20 20" width="20" xmlns="http://www.w3.org/2000/svg"><path d="m1 6c0-1.65685 1.34315-3 3-3h12c1.6569 0 3 1.34315 3 3v8c0 1.6569-1.3431 3-3 3h-12c-1.65685 0-3-1.3431-3-3z" fill="#fff"/><g fill="#ed4c49"><path d="m1 11v1h18v-1z"/><path d="m19 10v-1h-9v1z"/><path d="m19 8v-1h-9v1z"/><path d="m18.8293 5c.1105.31278.1707.64936.1707 1h-9v-1z"/><path d="m16 3h-6v1h8.2361c-.5493-.61375-1.3476-1-2.2361-1z"/><path d="m19 13h-18v1h18z"/><path d="m18.8293 15h-17.65859c.1317.3726.33493.7115.59318 1h16.47221c.2583-.2885.4615-.6274.5932-1z"/></g><path d="m4 3c-1.65685 0-3 1.34315-3 3v4h9v-7z" fill="#444379"/><path d="m8 4h1v1h-1z" fill="#a7b6e7"/><path d="m5 7h-1v-1h1z" fill="#a7b6e7"/><path clip-rule="evenodd" d="m8 6v-1h-1v-1h-1v1h-1v-1h-1v1h-1v-1h-1v1h1v1h-1v1h1v1h-1v1h1v-1h1v1h1v-1h1v1h1v-1h1v1h1v-1h-1v-1h1v-1zm-1 0h1v1h-1zm-1 0h1v-1h-1zm0 1v-1h-1v-1h-1v1h-1v1h1v1h1v-1zm0 0v1h1v-1z" fill="#a7b6e7" fill-rule="evenodd"/><path clip-rule="evenodd" d="m16 4h-12c-1.10457 0-2 .89543-2 2v8c0 1.1046.89543 2 2 2h12c1.1046 0 2-.8954 2-2v-8c0-1.10457-.8954-2-2-2zm-12-1c-1.65685 0-3 1.34315-3 3v8c0 1.6569 1.34315 3 3 3h12c1.6569 0 3-1.3431 3-3v-8c0-1.65685-1.3431-3-3-3z" fill="#a50c0f" fill-opacity=".3" fill-rule="evenodd"/></svg>