<svg fill="none" height="24" viewBox="0 0 24 24" width="24" xmlns="http://www.w3.org/2000/svg"><path d="m2 7c0-1.65685 1.34315-3 3-3h14c1.6569 0 3 1.34315 3 3v10c0 1.6569-1.3431 3-3 3h-14c-1.65685 0-3-1.3431-3-3z" fill="#fff"/><path d="m5 4c-1.65685 0-3 1.34315-3 3v4h9v-7z" fill="#444379"/><g fill="#ed4c49"><path d="m2 12v1h20v-1z"/><path d="m22 11v-1h-11v1z"/><path d="m22 9v-1h-11v1z"/><path d="m21.8293 6c.1105.31278.1707.64936.1707 1h-11v-1z"/><path d="m19 4h-8v1h10.2361c-.5493-.61375-1.3476-1-2.2361-1z"/><path d="m22 14h-20v1h20z"/><path d="m22 16h-20v1h20z"/><path d="m21.8293 18h-19.65859c.1317.3726.33493.7115.59318 1h18.47221c.2583-.2885.4615-.6274.5932-1z"/></g><path clip-rule="evenodd" d="m10 5h-1v1h-1v-1h-1v1h-1v-1h-1v1h-1v-1h-1v1h1v1h-1v1h1v1h-1v1h1v-1h1v1h1v-1h1v1h1v-1h1v1h1v-1h-1v-1h1v-1h-1v-1h1zm-2 2h1v1h-1zm-1 0v-1h1v1zm0 1v1h1v-1zm-1 0v1h-1v-1zm0-1h1v1h-1zm-1 0v-1h1v1zm0 0v1h-1v-1z" fill="#a7b6e7" fill-rule="evenodd"/><path clip-rule="evenodd" d="m19 5h-14c-1.10457 0-2 .89543-2 2v10c0 1.1046.89543 2 2 2h14c1.1046 0 2-.8954 2-2v-10c0-1.10457-.8954-2-2-2zm-14-1c-1.65685 0-3 1.34315-3 3v10c0 1.6569 1.34315 3 3 3h14c1.6569 0 3-1.3431 3-3v-10c0-1.65685-1.3431-3-3-3z" fill="#a50c0f" fill-opacity=".3" fill-rule="evenodd"/></svg>