<svg fill="none" height="16" viewBox="0 0 16 16" width="16" xmlns="http://www.w3.org/2000/svg"><g fill="#00a008"><path clip-rule="evenodd" d="m3.75 1.5c-1.79493 0-3.25 1.45507-3.25 3.25v6.5c0 1.7949 1.45507 3.25 3.25 3.25h3.5c.41421 0 .75-.3358.75-.75s-.33579-.75-.75-.75h-3.5c-.9665 0-1.75-.7835-1.75-1.75v-4.75h12v.75c0 .41421.3358.75.75.75s.75-.33579.75-.75v-2.5c0-1.79493-1.4551-3.25-3.25-3.25zm10.25 3.5h-12v-.25c0-.9665.7835-1.75 1.75-1.75h8.5c.9665 0 1.75.7835 1.75 1.75z" fill-rule="evenodd"/><path d="m13.0304 12-.4999-.4393v2.6893c0 .4142-.3358.75-.75.75-.4143 0-.75-.3358-.75-.75v-2.6893l-.5002.4393c-.2929.2929-.76774.2929-1.06063 0s-.29289-.7678 0-1.0607l1.78043-1.71963c.1407-.14065.3314-.21967.5304-.21967.1989 0 .3896.07902.5303.21967l1.7803 1.71963c.2928.2929.2928.7678 0 1.0607-.2929.2929-.7678.2929-1.0607 0z"/></g></svg>