<svg fill="none" height="20" viewBox="0 0 20 20" width="20" xmlns="http://www.w3.org/2000/svg"><g fill="#00a008"><path clip-rule="evenodd" d="m17.5 7.5v.75c0 .41421.3358.75.75.75s.75-.33579.75-.75v-2.5c0-2.07107-1.6789-3.75-3.75-3.75h-10.5c-2.07107 0-3.75 1.67893-3.75 3.75v8.5c0 2.0711 1.67893 3.75 3.75 3.75l5.5.0039c.4142 0 .75-.3358.75-.75s-.3358-.75-.75-.75l-5.5-.0039c-1.24264 0-2.25-1.0074-2.25-2.25v-6.75zm-2.25-4h-10.5c-1.24264 0-2.25 1.00736-2.25 2.25v.25h15v-.25c0-1.24264-1.0074-2.25-2.25-2.25z" fill-rule="evenodd"/><path d="m15.5001 12.5601.5.4393c.2929.2929.7677.2929 1.0606 0s.2929-.7678 0-1.0607l-1.7802-1.7196c-.1407-.1407-.3315-.2197-.5304-.2197s-.3897.079-.5303.2197l-1.7805 1.7196c-.2929.2929-.2929.7678 0 1.0607s.7678.2929 1.0607 0l.5001-.4393v3.6938c0 .4142.3358.75.75.75s.75-.3358.75-.75z"/></g></svg>