<svg fill="none" height="24" viewBox="0 0 24 24" width="24" xmlns="http://www.w3.org/2000/svg"><g fill="#00a008"><path clip-rule="evenodd" d="m5.75 2.5c-2.34721 0-4.25 1.90279-4.25 4.25v10.5c0 2.3472 1.90279 4.25 4.25 4.25h6.5c.4142 0 .75-.3358.75-.75s-.3358-.75-.75-.75h-6.5c-1.51878 0-2.75-1.2312-2.75-2.75v-8.75h18v1.75c0 .4142.3358.75.75.75s.75-.3358.75-.75v-3.5c0-2.34721-1.9028-4.25-4.25-4.25zm15.25 4.5h-18v-.25c0-1.51878 1.23122-2.75 2.75-2.75h12.5c1.5188 0 2.75 1.23122 2.75 2.75z" fill-rule="evenodd"/><path d="m19.4393 15.5-.909-.9393-.0304 4.6893c0 .4142-.3358.75-.75.75s-.75-.3358-.75-.75l.0304-4.6893-.9697.9393c-.2929.2929-.7678.2929-1.0607 0-.2928-.2929-.2928-.7678 0-1.0607l2.2501-2.2196c.1407-.1407.3314-.2197.5303-.2197s.3897.079.5304.2197l2.1893 2.2196c.2929.2929.2929.7678 0 1.0607s-.7678.2929-1.0607 0z"/></g></svg>