<svg fill="none" height="16" viewBox="0 0 16 16" width="16" xmlns="http://www.w3.org/2000/svg"><path clip-rule="evenodd" d="m6.9898 1.6267c-.04008-.24044-.1945-.44641-.41407-.55227-.21956-.105868-.47688-.098426-.68996.01995l-2.95693 1.64274c-1.1905.66139-1.92884 1.91621-1.92884 3.27809v1.23479c0 .9665.7835 1.75 1.75 1.75h1.25v3.5291c0 .6673.30874 1.4007 1.02316 1.7647.6331.3225 1.662.7062 2.97684.7062s2.3437-.3837 2.9768-.7062c.7145-.364 1.0232-1.0974 1.0232-1.7647v-3.5291h1.25c.9665 0 1.75-.7835 1.75-1.75v-1.23479c0-1.36188-.7383-2.6167-1.9288-3.27809l-2.957-1.64274c-.21305-.118376-.47037-.125818-.68993-.01995-.21957.10586-.37399.31183-.41407.55227l-.0034.02041c-.08202.49216-.50785.85289-1.0068.85289s-.92478-.36073-1.0068-.85289zm5.0102 5.8733h1.25c.1381 0 .25-.11193.25-.25v-1.23479c0-.81713-.443-1.57002-1.1573-1.96685l-2.2086-1.22701c-.44996.71487-1.24502 1.17865-2.1341 1.17865s-1.68414-.46378-2.13409-1.17865l-2.20861 1.22701c-.71429.39683-1.1573 1.14972-1.1573 1.96685v1.23479c0 .13807.11193.25.25.25h1.25v-1.25c0-.41421.33579-.75.75-.75s.75.33579.75.75v6.2791c0 .2439.10642.3784.20405.4281.48067.2449 1.27568.5428 2.29595.5428s1.81528-.2979 2.296-.5428c.0976-.0497.204-.1842.204-.4281v-6.2791c0-.41421.3358-.75.75-.75s.75.33579.75.75z" fill="#00a008" fill-rule="evenodd"/></svg>