<svg fill="none" height="20" viewBox="0 0 20 20" width="20" xmlns="http://www.w3.org/2000/svg"><path clip-rule="evenodd" d="m8.47761 2.5681c-.05518-.2207-.20754-.40443-.41422-.49948-.20667-.09506-.44533-.09118-.6488.01056l-3.78885 1.89443c-1.60923.80461-2.62574 2.44936-2.62574 4.24853v1.02786c0 .9665.7835 1.75 1.75 1.75h2.25v4.2814c0 .8169.39061 1.7341 1.32451 2.1021.7683.3027 1.96929.6092 3.67549.6092s2.9072-.3065 3.6755-.6092c.9339-.368 1.3245-1.2852 1.3245-2.1021v-4.2814h2.25c.9665 0 1.75-.7835 1.75-1.75v-1.02786c0-1.79917-1.0165-3.44392-2.6257-4.24853l-3.7889-1.89443c-.2035-.10174-.4421-.10562-.6488-.01056-.2067.09505-.359.27878-.4142.49948l-.0756.30225c-.1659.6639-.7625 1.12965-1.4468 1.12965-.68434 0-1.28085-.46575-1.44683-1.12965zm6.52239 6.9319h2.25c.1381 0 .25-.11193.25-.25v-1.02786c0-1.23101-.6955-2.35637-1.7966-2.90689l-3.0098-1.50493c-.4912 1.01718-1.529 1.68968-2.6936 1.68968-1.16462 0-2.20244-.6725-2.69358-1.68968l-3.00986 1.50493c-1.10105.55052-1.79656 1.67588-1.79656 2.90689v1.02786c0 .13807.11193.25.25.25h2.25v-1.25c0-.41421.33579-.75.75-.75s.75.33579.75.75v7.0314c0 .3983.1778.629.37443.7065.58927.2322 1.60337.5048 3.12557.5048s2.5363-.2726 3.1256-.5048c.1966-.0775.3744-.3082.3744-.7065v-7.0314c0-.41421.3358-.75.75-.75s.75.33579.75.75z" fill="#00a008" fill-rule="evenodd"/></svg>