<svg fill="none" height="24" viewBox="0 0 24 24" width="24" xmlns="http://www.w3.org/2000/svg"><path clip-rule="evenodd" d="m5.90213 5.26236 2.896-1.448c.51144 1.3091 1.77757 2.18554 3.20187 2.18554s2.6904-.87644 3.2019-2.18554l2.896 1.448c1.7786.88931 2.9021 2.70719 2.9021 4.69575v1.29179c0 .1381-.1119.25-.25.25h-2.75v-2.25c0-.41421-.3358-.75-.75-.75s-.75.33579-.75.75v9.4139c0 .5523-.199.9048-.4769 1.0506-.6633.348-1.9134.7855-4.0231.7855-2.10966 0-3.35984-.4375-4.02312-.7855-.27791-.1458-.47688-.4983-.47688-1.0506v-9.4139c0-.41421-.33579-.75-.75-.75s-.75.33579-.75.75v2.25h-2.75c-.13807 0-.25-.1119-.25-.25v-1.29179c0-1.98856 1.12351-3.80644 2.90213-4.69575zm.09787 7.73754v5.6639c0 .8512.31498 1.8727 1.28003 2.3789.90255.4735 2.39658.9572 4.71997.9572 2.3234 0 3.8174-.4837 4.72-.9572.965-.5062 1.28-1.5277 1.28-2.3789v-5.6639h2.75c.9665 0 1.75-.7835 1.75-1.75v-1.29179c0-2.55672-1.4445-4.89399-3.7313-6.03739l-3.4187-1.70933c-.5546-.27731-1.2252.01245-1.4034.60637l-.0903.30098c-.2459.81977-1.0004 1.38116-1.8563 1.38116s-1.6104-.56139-1.8563-1.38116l-.0903-.30098c-.1782-.59392-.84881-.88368-1.40342-.60637l-3.41867 1.70933c-2.28679 1.1434-3.73131 3.48067-3.73131 6.03739v1.29179c0 .9665.7835 1.75 1.75 1.75z" fill="#00a008" fill-rule="evenodd"/></svg>