<svg fill="none" height="20" viewBox="0 0 20 20" width="20" xmlns="http://www.w3.org/2000/svg"><path clip-rule="evenodd" d="m3 3.24847c0-.41337.33579-.74847.75-.74847h12.5c.4142 0 .75.3351.75.74847v1.49695c0 .41337-.3358.74848-.75.74848s-.75-.33511-.75-.74848v-.74847h-4.75v12.00615h1.5c.4142 0 .75.3351.75.7484 0 .4134-.3358.7485-.75.7485h-4.5c-.41421 0-.75-.3351-.75-.7485 0-.4133.33579-.7484.75-.7484h1.5v-12.00615h-4.75v.74847c0 .41337-.33579.74848-.75.74848s-.75-.33511-.75-.74848z" fill="#00a008" fill-rule="evenodd"/></svg>