<svg fill="none" height="16" viewBox="0 0 16 16" width="16" xmlns="http://www.w3.org/2000/svg"><g fill="#00a008"><path clip-rule="evenodd" d="m6.1921 1.15981c.4811-.481019 1.15128-.553678 1.6748-.299802.5303.257402.89071.845102.75977 1.536132l-.25488 1.33691 1.16406.56446c.65145.31656.86355.98311.75875 1.53613-.0617.32492-.2367.63995-.50875.87012l4.39745 4.83794c.5564.6121.535 1.5536-.0498 2.1386l-.0527.0528c-.5851.5849-1.5275.6072-2.1397.0507l-4.83689-4.39742c-.23026.27205-.54607.44714-.87109.50879-.55302.10463-1.21869-.10826-1.53516-.75977l-.56543-1.16309-1.33691.25391c-.69075.1308-1.27767-.2288-1.53516-.75879-.25396-.52352-.18216-1.19464.29883-1.67578l1.02148-1.02051-.58301-1.19824c-.30914-.6377-.08579-1.28897.29981-1.67481.36172-.36172.95707-.58057 1.55566-.35156l.12012.05176 1.19824.58203zm1.50879 6.13672-.00391.00391-.09765.50879 5.35157 4.86427c.0197.0178.0505.0177.0693-.001l.0528-.0527c.0185-.0189.0187-.0497.0009-.0694l-4.8652-5.35055zm-1.47461-4.0498c-.42909.42893-1.09921.57869-1.6748.2998l-1.17481-.57031.56934 1.1748c.2792.57578.12937 1.2466-.29981 1.67578l-.8789.87891 1.1455-.21777c.61636-.11675 1.25159.17361 1.53614.75976l.52441 1.08106.24902-1.30762c.11456-.60386.59444-1.0845 1.19825-1.19922l1.30761-.24805-1.08105-.52539c-.58577-.28458-.87631-.91904-.75977-1.53515l.21778-1.14551z" fill-rule="evenodd"/><path d="m3.31808 9.89517c.05381-.24151.39832-.2415.45214 0l.25391 1.14553.7666.2197c.22348.0641.22344.3802 0 .4443l-.7666.2188-.25391 1.1465c-.05371.2417-.39843.2417-.45214 0l-.25586-1.1465-.76465-.2188c-.22371-.064-.2237-.3803 0-.4443l.76465-.2197z"/><path d="m.86424 3.573c.029498-.13274.21952-.13274.24902 0l.13965.62891.41992.12012c.12295.03512.12295.20901 0 .24414l-.41992.12011-.13965.62989c-.0295.13274-.219522.13274-.24902 0l-.139649-.62989-.420898-.12011c-.122356-.03543-.122493-.20887 0-.24414l.420898-.12012z"/><path d="m11.2902.16992c.0455-.2050755.3382-.2050755.3838 0l.2158.97168.6494.18555c.1899.05426.1899.32366 0 .37793l-.6494.18554-.2158.97266c-.0458.2047-.3381.20471-.3838 0l-.2168-.97266-.6494-.18554c-.1896-.05447-.1896-.32351 0-.37793l.6494-.18555z"/></g></svg>