<svg fill="none" height="20" viewBox="0 0 20 20" width="20" xmlns="http://www.w3.org/2000/svg"><g fill="#00a008"><path clip-rule="evenodd" d="m7.87315 1.58246c.543-.54289 1.29391-.622582 1.87891-.33886.59184.28728.99374.94147.84664 1.71679l-.33 1.74512c-.006.03181-.0006.05318.0048.06445.0052.0106.0127.01821.0235.02344l1.54.74707c.7263.35249.9656 1.09395.8477 1.7168-.0808.42525-.3325.83603-.7285 1.09765l5.6347 6.19828c.6282.691.6033 1.7534-.0566 2.414l-.0664.0664c-.6606.6603-1.724.6859-2.4151.0576l-6.19723-5.6347c-.26165.3961-.67328.6468-1.09863.7275-.62277.118-1.36328-.1205-1.71582-.8467l-.74805-1.54097c-.00516-.01056-.01214-.01733-.02246-.02246-.01122-.00544-.03328-.01195-.06543-.00586l-1.74512.33109c-.77523.1469-1.42954-.25494-1.71679-.84671-.28379-.58502-.20407-1.33685.33886-1.87989l1.28321-1.2832c.06864-.0689.06067-.1416.0498-.16406l-.74805-1.54004c-.34563-.71229-.09912-1.44276.3379-1.87988.43707-.43708 1.16756-.68444 1.87988-.33887l1.54101.74804c.02279.01081.09449.01949.16309-.04882zm1.71777 7.35352c-.07371.01398-.14031.08157-.15429.15527l-.14063.73829 6.7666 6.15136c.0987.0896.2504.0863.3447-.0078l.0664-.0664c.0938-.0944.0965-.2462.0069-.3447l-6.1504-6.76664zm-.55859-6.35156c-.01912.0031-.05382.01382-.09863.05859l-1.28418 1.2832c-.48462.48432-1.23678.64941-1.87891.33789l-1.54102-.74707c-.02674-.01295-.04549-.01411-.06543-.00976-.02631.0059-.06382.02379-.09863.05859-.03486.03491-.05277.07234-.05859.09863-.00435.01994-.00319.03869.00976.06543l.74707 1.54102c.31153.64215.14645 1.39429-.33789 1.87891l-1.2832 1.2832c-.04477.04482-.05549.08049-.05859.09961-.00361.02319.00083.04605.00976.06445.00835.01717.01717.0248.02149.02735.00193.00101.00723.00382.01465.00488.00771.001.02504.00116.05175-.00391l1.74414-.33105c.6918-.13115 1.40001.19482 1.7168.84766l.74707 1.54006c.00775.0159.01465.0234.01465.0234s.00255.0009.00488.002c.00642.0028.02977.0102.06836.0029.03821-.0073.07426-.0259.10059-.0508.02272-.0215.04399-.0519.05371-.1025l.33105-1.74612c.12891-.67926.66935-1.21882 1.34864-1.34766l1.74507-.33105c.0506-.00968.0811-.03103.1026-.05371.0249-.02632.0444-.06236.0517-.10059.0074-.03856-.001-.06189-.0039-.06836-.001-.00239-.0019-.00488-.0019-.00488s-.0066-.00692-.0225-.01465l-1.541-.74805c-.65264-.31685-.9778-1.02412-.84668-1.71582l.33008-1.74511c.00515-.02726.00495-.04432.00391-.05176-.00105-.00717-.00288-.0117-.00391-.01367-.0023-.00415-.01055-.01384-.02832-.02246-.01841-.00884-.04132-.01246-.06445-.00879z" fill-rule="evenodd"/><path d="m4.28135 12.4873c.06733-.3018.49813-.3018.56543 0l.31738 1.4326.95801.2735c.27958.08.27953.4765 0 .5566l-.95801.2735-.31738 1.4326c-.06714.3021-.49827.3021-.56543 0l-.31933-1.4326-.95703-.2735c-.27912-.0803-.27916-.4764 0-.5566l.95703-.2735z"/><path d="m.834461 4.42621c.03706-.16556.272529-.16557.309569 0l.17481.78711.52636.15039c.15299.0442.15298.26048 0 .30469l-.52636.15039-.17481.78711c-.037.16566-.272552.16565-.309569 0l-.175781-.78711-.525391-.15039c-.1534572-.04401-.1534676-.26069 0-.30469l.525391-.15039z"/><path d="m13.2427.799924c.0569-.256344.4225-.256344.4795 0l.2695 1.214846.8125.23242c.2373.06786.2372.40373 0 .47168l-.8125.23242-.2695 1.21582c-.0572.25582-.4223.25581-.4795 0l-.2705-1.21582-.8125-.23242c-.2367-.06818-.2368-.40359 0-.47168l.8125-.23242z"/></g></svg>