<svg fill="none" height="24" viewBox="0 0 24 24" width="24" xmlns="http://www.w3.org/2000/svg"><g fill="#00a008"><path clip-rule="evenodd" d="m9.55252 2.60402c.60488-.60479 1.43748-.69042 2.08398-.37696.6534.31707 1.0976 1.03786.9346 1.89746l-.3975 2.09376c-.0257.13629.038.23049.1162.26855l1.8487.89648c.8006.3885 1.0666 1.20402.9355 1.89648-.0996.52532-.4335 1.02961-.9609 1.30961l6.8857 7.5752c.6998.7701.6712 1.9544-.0645 2.6904l-.0791.0791c-.7358.7357-1.9193.764-2.6894.0644l-7.5752-6.8867c-.2799.5282-.7848.8622-1.31054.9619-.69248.1312-1.50798-.1349-1.89648-.9355l-.89649-1.8486c-.03807-.0783-.13228-.141-.26855-.1153l-2.09376.3965c-.8596.163-1.58039-.2812-1.89746-.9346-.31345-.6465-.22789-1.4791.37695-2.08395l1.54004-1.53905c.12404-.12426.13088-.27926.08789-.36817l-.89648-1.84863c-.38174-.78669-.11137-1.59567.37695-2.08399.48832-.48829 1.29733-.75868 2.08399-.37695l1.84863.89648c.0889.04296.24296.03608.36719-.08789zm1.92868 8.57328c-.1489.0282-.2764.1547-.3047.3037l-.1845.9687 8.1826 7.4385c.1777.1612.4503.155.6201-.0147l.0781-.0791c.1697-.1697.1779-.4433.0166-.621l-7.4384-8.1817zm-.499-7.60063c-.0912-.04426-.2313-.04895-.3691.08887l-1.53909 1.53906c-.54002.5398-1.3753.72085-2.08399.37696l-1.84863-.89649c-.1052-.05103-.24199-.03826-.36817.08789-.12619.12619-.13892.26296-.08789.36816l.89649 1.84864c.34389.70869.16284 1.54397-.37696 2.08398l-1.53906 1.54006c-.1378.1378-.13312.2769-.08887.3681.0238.0491.05814.0824.09277.1006.02984.0156.08313.033.17481.0156l2.09473-.3974c.76708-.1455 1.54738.2153 1.89648.9346l.89747 1.8486c.03054.0629.0655.0886.09668.1025.03824.0171.09772.0275.17089.0137.14925-.0283.2725-.1352.30469-.3047l.39746-2.0947c.14324-.7544.74369-1.35486 1.49809-1.49806l2.0947-.39746c.1694-.03221.2764-.15546.3047-.30468.0138-.07315.0033-.13267-.0137-.1709-.014-.03117-.0396-.06614-.1025-.09668l-1.8487-.89648c-.7193-.34907-1.08-1.13031-.9345-1.89746l.3974-2.09473c.0172-.09108-.0001-.14391-.0156-.17383-.0182-.0347-.0515-.0699-.1006-.09375z" fill-rule="evenodd"/><path d="m5.17557 16.0904c.08087-.362.59684-.3619.67773 0l.38184 1.7187 1.14844.3292c.33581.0959.33581.571 0 .6669l-1.14844.3282-.38184 1.7197c-.08071.3623-.59704.3623-.67773 0l-.38379-1.7197-1.14747-.3282c-.33556-.096-.33555-.5709 0-.6669l1.14747-.3292z"/><path d="m1.32126 6.19694c.04425-.19911.3288-.19911.37304 0l.20899.94336.63086.18067c.18442.05269.18442.31352 0 .36621l-.63086.18066-.20899.94434c-.04441.19879-.32865.1988-.37304 0l-.20996-.94434-.630863-.18066c-.183848-.05296-.183906-.31333 0-.36621l.630863-.18067z"/><path d="m16.1994 1.48154c.0685-.30743.5077-.30741.5762 0l.3232 1.45801.9746.27929c.285.08141.285.48501 0 .56641l-.9746.27832-.3232 1.45801c-.0684.30761-.5078.30761-.5762 0l-.3242-1.45801-.9746-.27832c-.2845-.08157-.2844-.48479 0-.56641l.9746-.27929z"/></g></svg>