<svg fill="none" height="16" viewBox="0 0 16 16" width="16" xmlns="http://www.w3.org/2000/svg"><path clip-rule="evenodd" d="m11.75 2c.1989 0 .3897.07902.5303.21967l2.5 2.5c.2929.29289.2929.76777 0 1.06066s-.7677.29289-1.0606 0l-1.2197-1.21967v8.68934c0 .4142-.3358.75-.75.75s-.75-.3358-.75-.75v-8.68934l-1.21967 1.21967c-.29289.29289-.76777.29289-1.06066 0s-.29289-.76777 0-1.06066l2.50003-2.5c.1406-.14065.3314-.21967.5303-.21967zm-7.5 0c.41421 0 .75.33579.75.75v8.6893l1.21967-1.2196c.29289-.29292.76777-.29292 1.06066 0 .29289.2929.29289.7677 0 1.0606l-2.5 2.5c-.14065.1407-.33142.2197-.53033.2197s-.38968-.079-.53033-.2197l-2.5-2.5c-.292893-.2929-.292893-.7677 0-1.0606.29289-.29292.76777-.29292 1.06066 0l1.21967 1.2196v-8.6893c0-.41421.33579-.75.75-.75z" fill="#00a008" fill-rule="evenodd"/></svg>