<svg fill="none" height="20" viewBox="0 0 20 20" width="20" xmlns="http://www.w3.org/2000/svg"><g fill="#00a008"><path d="m6.49995 2.75c0-.41421-.33578-.75-.75-.75-.41421 0-.75.33579-.75.75v12.6893l-1.93935-1.9393c-.29289-.2929-.76776-.2929-1.06066 0-.29289.2929-.29289.7678 0 1.0607l3.21968 3.2196c.14066.1407.33142.2197.53033.2197.19892 0 .38968-.079.53033-.2197l3.21966-3.2196c.2929-.2929.2929-.7678 0-1.0607-.29289-.2929-.76776-.2929-1.06066 0l-1.93933 1.9393z"/><path d="m13.5 4.56066v12.68934c0 .4142.3358.75.75.75.4143 0 .75-.3358.75-.75v-12.68934l1.9394 1.93934c.2929.29289.7678.29289 1.0607 0s.2929-.76777 0-1.06066l-3.2197-3.21967c-.1407-.14065-.3314-.21967-.5304-.21967-.1989 0-.3896.07902-.5303.21967l-3.2196 3.21967c-.2929.29289-.2929.76777 0 1.06066s.7677.29289 1.0606 0z"/></g></svg>