<svg fill="none" height="24" viewBox="0 0 24 24" width="24" xmlns="http://www.w3.org/2000/svg"><g fill="#00a008"><path d="m6.00011 21.254c0 .4142.33579.75.75.75s.75-.3358.75-.75v-16.69334l2.43929 2.43934c.2929.2929.7678.2929 1.0607 0 .2929-.29289.2929-.76777 0-1.06066l-3.71966-3.71967c-.14065-.14065-.33142-.21967-.53033-.21967s-.38968.07902-.53033.21967l-3.71978 3.71967c-.29289.2929-.29289.76777 0 1.06066.2929.2929.76777.2929 1.06067.00001l2.43944-2.43935z"/><path d="m17.9696 2.75007c0-.41421-.3358-.75-.75-.75s-.75.33579-.75.75v16.69333l-2.4393-2.4393c-.2929-.2929-.7677-.2929-1.0606 0-.2929.2928-.2929.7677 0 1.0606l3.7196 3.7197c.1406.1406.3314.2197.5303.2197s.3897-.0791.5304-.2197l3.7197-3.7197c.2929-.2929.2929-.7678 0-1.0607-.2929-.2928-.7677-.2928-1.0606 0l-2.4395 2.4394z"/></g></svg>