<svg fill="none" height="16" viewBox="0 0 16 16" width="16" xmlns="http://www.w3.org/2000/svg"><g fill="#00a008"><path d="m6.21973 7.19824c.05524-.15498.22662-.23582.38183-.18066.08109.02896.14527.09182.17676.17187l.25.63477c.0309.07854.09394.14072.17285.1709l.61231.2334c.14976.05733.22428.22537.16699.375-.0301.07851-.09276.14016-.17188.16894l-.60254.21973c-.08154.02967-.14645.09299-.17773.17383l-.24902.64355c-.05928.15317-.23234.22913-.38575.16992-.08121-.03145-.14503-.09661-.17382-.17871l-.21875-.62598c-.03019-.08607-.09842-.15333-.18457-.18359l-.62305-.21875c-.15062-.05296-.22961-.21769-.17676-.36816.02859-.08132.09186-.14599.17285-.17578l.63086-.23243c.08373-.0308.14977-.09672.17969-.18066z"/><path d="m9.55273 4.00586c.0811.01954.14475.0831.16504.16406l.15918.63379c.03938.15714.16075.28127.31735.32227l.6387.16699c.1194.03145.1904.15385.1592.27344-.0212.08036-.0851.14242-.166.16113l-.6162.14258c-.1649.0381-.29373.16707-.33207.33203l-.14551.625c-.02814.1202-.14835.19497-.26855.16699-.08134-.01897-.14538-.08209-.16602-.16309l-.16211-.63574c-.04107-.16116-.16903-.28617-.33105-.32324l-.63086-.14453c-.1204-.02761-.1955-.14804-.16797-.26856.01876-.08131.08136-.14508.16211-.16601l.64355-.16699c.15842-.04116.28102-.16693.31934-.32618l.15137-.62792c.02898-.12042.15017-.195.2705-.16602z"/><path clip-rule="evenodd" d="m11 1c1.6569 0 3 1.34315 3 3v5.58887l-.0049.17871c-.053.88912-.4998 1.71262-1.2236 2.24222l-3.59084 2.6269-.13476.0899c-.64107.3937-1.45073.3937-2.0918 0l-.13476-.0899-3.59082-2.6269c-.72382-.5296-1.1706-1.3531-1.22364-2.24222l-.00488-.17871v-5.58887c0-1.65685 1.34315-3 3-3zm-6 1.5c-.82843 0-1.5.67157-1.5 1.5v5.58887c.00008.47823.22835.92753.61426 1.20993l3.59082 2.627c.17568.1283.41416.1283.58984 0l3.59078-2.627c.3859-.2824.6142-.7317.6143-1.20993v-5.58887c0-.82843-.6716-1.5-1.5-1.5z" fill-rule="evenodd"/></g></svg>