<svg fill="none" height="20" viewBox="0 0 20 20" width="20" xmlns="http://www.w3.org/2000/svg"><g fill="#00a008"><path d="m8.12695 9.76367c.07382-.20636.30101-.31373.50782-.24023.10839.03852.19524.12159.2373.22851l.33301.84765c.0412.1046.12443.1873.22949.2275l.81643.3116c.1996.0763.2998.2996.2236.499-.0401.1047-.124.1872-.2295.2256l-.80467.2929c-.10847.0397-.19466.1239-.23633.2315l-.33203.8584c-.07902.2042-.30917.3064-.51367.2275-.10851-.0418-.193-.1296-.23145-.2392l-.29297-.835c-.04031-.1145-.13043-.2048-.24511-.2451l-.83106-.291c-.20085-.0706-.30686-.2906-.23633-.4912.03813-.1085.12346-.1937.23145-.2334l.84082-.3096c.11165-.0411.19936-.1303.23926-.2422z"/><path d="m12.0703 5.50879c.1081.02611.1927.10988.2197.21777l.212.84571c.0525.20952.215.37404.4238.42871l.8515.22265c.1593.0419.2545.20483.2129.36426-.0281.10747-.1135.19083-.2216.21582l-.8223.18945c-.2197.05081-.3912.22262-.4424.44239l-.1943.833c-.0373.1605-.1971.26087-.3575.22364-.1084-.02525-.1941-.10884-.2216-.2168l-.2159-.84863c-.0547-.21485-.2254-.38121-.4414-.43067l-.8418-.19238c-.1603-.03689-.26009-.19691-.2236-.35742.0248-.10871.108-.19469.2158-.22266l.8584-.22265c.2112-.0549.3747-.22227.4258-.43457l.2022-.83692c.0386-.16057.1999-.25937.3603-.2207z"/><path clip-rule="evenodd" d="m14.5 1.5c1.933 0 3.5 1.567 3.5 3.5v7.6592l-.0068.2148c-.0658 1.0706-.6204 2.0568-1.5108 2.669l-5.0664 3.4834-.1631.1025c-.7744.449-1.73135.449-2.50583 0l-.16309-.1025-5.0664-3.4834c-.89038-.6122-1.44493-1.5984-1.51074-2.669l-.00684-.2148v-7.6592c0-1.933 1.567-3.5 3.5-3.5zm-9 1.5c-1.10457 0-2 .89543-2 2v7.6592c.00009.6585.32456 1.2744.86719 1.6474l5.0664 3.4834c.34126.2347.79161.2346 1.13281 0l5.0664-3.4834c.5426-.373.8671-.9889.8672-1.6474v-7.6592c0-1.10457-.8954-2-2-2z" fill-rule="evenodd"/></g></svg>