<svg fill="none" height="24" viewBox="0 0 24 24" width="24" xmlns="http://www.w3.org/2000/svg"><g fill="#00a008"><path d="m9.0332 10.8301c.09207-.2583.37705-.3927.63575-.3008.13528.0482.24337.1526.29589.2861l.41606 1.0586c.0515.131.1564.2349.288.2852l1.0196.3887c.2499.0954.3748.3754.2793.625-.0502.1306-.1545.2332-.2862.2812l-1.0058.3662c-.1357.0495-.2438.1546-.2959.2891l-.41506 1.0732c-.09875.2552-.386.3826-.6416.2842-.13564-.0523-.24198-.1618-.29004-.2988l-.36523-1.043c-.05034-.1435-.1639-.2563-.30762-.3066l-1.03808-.3643c-.25108-.0883-.38313-.3634-.29493-.6143.04768-.1352.15335-.2423.28809-.2919l1.05273-.3868c.13937-.0513.24896-.162.29883-.3017z"/><path d="m15.0703 6.50879c.1081.02611.1927.10988.2197.21777l.212.84571c.0525.20952.215.37404.4238.42871l.8515.22265c.1593.0419.2545.20483.2129.36426-.0281.10747-.1135.19083-.2216.21582l-.8223.18945c-.2197.05081-.3912.22262-.4424.44239l-.1943.83305c-.0373.1605-.1971.2608-.3575.2236-.1084-.0253-.1941-.1089-.2216-.2168l-.2159-.84864c-.0547-.21485-.2254-.38121-.4414-.43067l-.8418-.19238c-.1603-.03689-.2601-.19691-.2236-.35742.0248-.10871.108-.19469.2158-.22266l.8584-.22265c.2112-.0549.3747-.22227.4258-.43457l.2022-.83692c.0386-.16057.1999-.25937.3603-.2207z"/><path clip-rule="evenodd" d="m17.25 2c2.0711 0 3.75 1.67893 3.75 3.75v9.4697c0 1.2204-.5938 2.3651-1.5918 3.0674l-5.6816 3.9981-.1983.1279c-.9416.5579-2.115.5579-3.0566 0l-.1983-.1279-5.6816-3.9981c-.99805-.7023-1.5918-1.847-1.5918-3.0674v-9.4697c0-2.00622 1.57544-3.64449 3.55664-3.74512l.19336-.00488zm-10.5 1.5c-1.24264 0-2.25 1.00736-2.25 2.25v9.4697c0 .7323.35625 1.4195.95508 1.8408l5.68162 3.9981c.5178.3643 1.2088.3643 1.7266 0l5.6816-3.9981c.5988-.4213.9551-1.1085.9551-1.8408v-9.4697c0-1.24264-1.0074-2.25-2.25-2.25z" fill-rule="evenodd"/></g></svg>