<svg fill="none" height="16" viewBox="0 0 16 16" width="16" xmlns="http://www.w3.org/2000/svg"><g fill="#00a008"><path clip-rule="evenodd" d="m2.00009 4.5c0-1.933 1.567-3.5 3.5-3.5h4.58581c.4641 0 .9092.18437 1.2374.51256l2.1642 2.16422c.3282.32818.5126.7733.5126 1.23743v6.58579c0 1.933-1.567 3.5-3.5 3.5h-2.72755c-.41421 0-.75-.3358-.75-.75s.33579-.75.75-.75h2.72755c1.1046 0 2-.8954 2-2v-4.5h-2.25c-.96651 0-1.75001-.7835-1.75001-1.75v-2.75h-3c-1.10457 0-2 .89543-2 2v1.75c0 .41421-.33578.75-.75.75-.41421 0-.75-.33579-.75-.75zm8.00001-2v2.75c0 .13807.1119.25.25.25h2.25v-.58579c0-.0663-.0263-.12989-.0732-.17677l-2.1642-2.16422c-.0469-.04688-.1105-.07322-.1768-.07322z" fill-rule="evenodd"/><path d="m4.46976 11.4697c-.29289.2929-.29289.7677 0 1.0606s.76777.2929 1.06066 0l1.42929-1.4293c.33195-.3319.33194-.8701 0-1.20204l-1.42929-1.42929c-.29289-.29289-.76777-.29289-1.06066 0s-.29289.76777 0 1.06066l.21967.21967h-1.93934c-.41421 0-.75.3358-.75.75s.33579.75.75.75h1.93934z"/></g></svg>