<svg fill="none" height="24" viewBox="0 0 24 24" width="24" xmlns="http://www.w3.org/2000/svg"><g fill="#00a008"><path clip-rule="evenodd" d="m19.4873 6.67678c.3281.32819.5125.7733.5125 1.23743v9.83579c0 2.3472-1.9028 4.25-4.25 4.25h-4c-.4142 0-.75-.3358-.75-.75s.3358-.75.75-.75h4c1.5188 0 2.75-1.2312 2.75-2.75v-8.25h-2.75c-1.5188 0-2.75-1.23122-2.75-2.75v-3.25h-4.74998c-1.51879 0-2.75 1.23122-2.75 2.75v5c0 .4142-.33579.75-.75.75-.41422 0-.75-.3358-.75-.75v-5c0-2.34721 1.90279-4.25 4.25-4.25h5.83578c.4641 0 .9093.18437 1.2374.51256zm-4.9875.07322v-2.93934l3.9268 3.92678c.0469.04688.0732.11047.0732.17677v.08579h-2.75c-.6903 0-1.25-.55964-1.25-1.25z" fill-rule="evenodd"/><path d="m4.74982 15.7803h3.96967l-.71967-.75c-.2929-.2929-.2929-.7677 0-1.0606.29289-.2929.76776-.2929 1.06066 0l1.92932 1.9606c.3319.332.3319.8681 0 1.2l-1.92932 1.9c-.2929.2929-.76777.2929-1.06066 0-.2929-.2929-.2929-.7677 0-1.0606l.71967-.6894h-3.96967c-.41422 0-.75-.3358-.75-.75s.33578-.75.75-.75z"/></g></svg>