<svg fill="none" height="16" viewBox="0 0 16 16" width="16" xmlns="http://www.w3.org/2000/svg"><g fill="#00a008"><path d="m3.83398 7.92871c.41302.03044.72368.38974.69336.80274-.00701.09512-.01073.19169-.01074.28906 0 .09734.00375.19397.01074.28906.03045.41309-.28026.77323-.69336.80373-.41275.03-.7723-.28055-.80273-.69338-.0097-.13178-.01465-.26523-.01465-.39941.00001-.13419.00494-.26763.01465-.39942.03059-.41267.39007-.72237.80273-.69238z"/><path d="m12.167 7.92871c.413-.03044.7731.27945.8037.69238.0097.1318.0146.26522.0147.39942 0 .13418-.005.26763-.0147.39941-.0305.41308-.3906.72378-.8037.69338-.4128-.0308-.7228-.39086-.6924-.80373.007-.0951.0108-.19173.0108-.28906-.0001-.09738-.0038-.19393-.0108-.28906-.0303-.41279.2797-.77197.6924-.80274z"/><path d="m7.22266 7.90527c.50417-.4304 3.84784-2.22935 4.10844-1.92578.2597.30417-2.04558 3.32022-2.54985 3.75098-.50386.43023-1.26099.37083-1.69141-.13281-.43035-.50401-.37119-1.26203.13282-1.69239z"/><path d="m8.00098 3.99121c.14236.00001.28431.00724.42382.02051.4121.03951.71406.4052.67481.81738-.03934.41224-.40513.71498-.81738.67578-.09234-.00878-.18647-.01366-.28125-.01367-.09474.00002-.18897.0049-.28125.01367-.41216.03903-.77908-.2636-.81836-.67578-.03923-.41219.26365-.77791.67578-.81738.13958-.01329.28139-.02049.42383-.02051z"/><path clip-rule="evenodd" d="m8 1.49902c4.142.00011 7.5 3.35989 7.5 7.50196-.0002 1.40192-.385 2.71452-1.0547 3.83692l-.1074.1523c-.2334.2858-.579.4572-.9502.5l-.1865.0108h-10.40237c-.4399-.0002-.86469-.1775-1.13672-.5108l-.10742-.1523c-.669733-1.1224-1.054511-2.435-1.05469-3.83692 0-4.14207 3.35795-7.50185 7.5-7.50196zm0 1.50098c-3.31336.00011-6 2.68708-6 6.00098.00017 1.09582.2942 2.11862.80469 3.00002h10.39061c.5105-.8815.8045-1.9043.8047-3.00002 0-3.21034-2.5214-5.8324-5.69141-5.99317z" fill-rule="evenodd"/></g></svg>