<svg fill="none" height="20" viewBox="0 0 20 20" width="20" xmlns="http://www.w3.org/2000/svg"><g fill="#00a008"><path d="m3.59277 9.89941c.06983-.40803.45713-.68182.86524-.6123.40831.06967.68295.45692.61328.86519-.04691.2751-.07129.5582-.07129.8477s.02438.5726.07129.8477c.06967.4083-.20497.7955-.61328.8652-.40811.0695-.79541-.2043-.86524-.6123-.0611-.3581-.09277-.7261-.09277-1.1006s.03167-.7425.09277-1.10059z"/><path d="m15.542 9.28711c.4081-.06952.7954.20427.8652.6123.0611.35809.0928.72609.0928 1.10059s-.0317.7425-.0928 1.1006c-.0698.408-.4571.6818-.8652.6123-.4083-.0697-.683-.4569-.6133-.8652.0469-.2751.0713-.5582.0713-.8477s-.0244-.5726-.0713-.8477c-.0697-.40827.205-.79552.6133-.86519z"/><path d="m9.02832 9.88184c.63-.53795 4.81108-2.78747 5.13578-2.40723.324.38082-2.5573 4.15009-3.1875 4.68849-.63.5379-1.57732.4639-2.11527-.166-.53794-.63-.46298-1.5773.16699-2.11526z"/><path d="m10 4.5c.3909 0 .7745.03508 1.1475.10156.4076.07273.6789.46151.6064.86914-.0727.40779-.4623.68011-.8701.60742-.2864-.05102-.5816-.07812-.8838-.07812-.30218 0-.59741.0271-.88379.07812-.40778.07269-.79743-.19963-.87012-.60742-.07249-.40763.19883-.79641.60645-.86914.37297-.06648.75651-.10156 1.14746-.10156z"/><path clip-rule="evenodd" d="m10 2c4.9706 0 9 4.02944 9 9 0 1.9842-.6426 3.818-1.7305 5.3057l-.1357.1621c-.29.302-.6875.4775-1.1084.5215l-.2119.0107h-11.62698c-.49748-.0001-.98208-.1799-1.32031-.5322l-.13574-.1621c-1.0879-1.4877-1.73047-3.3215-1.73047-5.3057 0-4.97056 4.02944-9 9-9zm0 1.5c-4.14214 0-7.5 3.35786-7.5 7.5 0 1.6549.53497 3.1803 1.44141 4.4199.00613.0084.021.0261.05957.044.04147.0192.10531.036.18554.0361h11.62698c.0802-.0001.1441-.0169.1855-.0361.0386-.0179.0535-.0356.0596-.044.9064-1.2396 1.4414-2.765 1.4414-4.4199 0-4.14214-3.3579-7.5-7.5-7.5z" fill-rule="evenodd"/></g></svg>