<svg fill="none" height="24" viewBox="0 0 24 24" width="24" xmlns="http://www.w3.org/2000/svg"><g fill="#00a008"><path d="m4.45898 11.9053c.06973-.4081.45716-.6827.86524-.6133.40825.0697.68284.457.61328.8652-.05772.3383-.08788.6872-.08789 1.043.00002.3556.03023.7039.08789 1.042.06967.4083-.20497.7965-.61328.8662-.40801.0693-.79545-.2053-.86524-.6133-.07185-.4212-.10935-.8543-.10937-1.2949.00001-.4406.03753-.8737.10937-1.2949z"/><path d="m18.6748 11.292c.4082-.0697.7954.2051.8652.6133.0719.4212.1094.8543.1094 1.2949 0 .4407-.0375.8737-.1094 1.2949-.0698.4081-.457.6829-.8652.6133-.4081-.0699-.6829-.458-.6133-.8662.0577-.3382.0879-.6863.0879-1.042 0-.3558-.0302-.7047-.0879-1.043-.0694-.408.2053-.7953.6133-.8652z"/><path d="m11.0283 11.8818c.63-.5379 5.8423-3.87239 6.167-3.49215.3219.38288-3.5885 5.23515-4.2187 5.77345-.63.5379-1.5773.463-2.1153-.167-.5375-.63-.4628-1.5764.167-2.1143z"/><path d="m12 5.5498c.46.00003.9119.04098 1.3506.11915.4075.07286.679.46253.6064.87011-.0728.40763-.4624.67912-.8701.60645-.3521-.06275-.7156-.09568-1.0869-.09571-.3715.00003-.7356.03291-1.0879.09571-.4075.07237-.7973-.19896-.8701-.60645-.07249-.40756.1999-.79729.6074-.87011.4387-.07818.8906-.11912 1.3506-.11915z"/><path clip-rule="evenodd" d="m12 2.99902c5.7989.00011 10.5 4.70303 10.5 10.50198-.0002 2.038-.5824 3.9399-1.5879 5.5498l-.0762.1133c-.401.549-1.0675.8368-1.7558.8369h-14.16018l-.13769-.0039c-.63857-.0358-1.24384-.3207-1.61817-.833l-.07617-.1133c-1.00543-1.6099-1.5877-3.5119-1.58789-5.5498 0-5.79895 4.7011-10.50187 10.5-10.50198zm0 1.50098c-4.97033.0001-9 4.03033-9 9.001.00019 1.7482.49904 3.3757 1.36035 4.7549.06827.1088.24772.2451.55957.2451h14.16018c.3119-.0001.4914-.1363.5595-.2451.8076-1.293 1.2965-2.8043 1.3545-4.4288l.0059-.3261c0-4.9707-4.0297-9.00089-9-9.001z" fill-rule="evenodd"/></g></svg>