<svg fill="none" height="16" viewBox="0 0 16 16" width="16" xmlns="http://www.w3.org/2000/svg"><g clip-rule="evenodd" fill="#00a008" fill-rule="evenodd"><path d="m6.99989 4.2041c.00005-.70636.81153-1.10421 1.37012-.67187l2.25489 1.74511c.4692.36323.4749 1.06967.0117 1.44043l-1.6035 1.28223 1.6035 1.28223c.4632.37076.4575 1.07717-.0117 1.44047l-2.25489 1.7451c-.55861.4324-1.37012.0345-1.37012-.6719v-2.16895l-.78125.62505c-.32344.2587-.79594.2062-1.05469-.1172-.25826-.3234-.20592-.79508.11719-1.05375l1.35059-1.08105-1.35059-1.08105c-.32308-.2587-.3755-.73036-.11719-1.05372.25874-.32341.73125-.37585 1.05469-.11718l.78125.62402zm1.5 6.2666.62012-.48047-.62012-.49707zm0-3.96484.62012-.49707-.62012-.48047z"/><path d="m9.23231.501953c.1356.001675.23968.005025.33594.011719 2.36455.164688 4.30215 1.804258 4.69335 3.971678.0319.17659.0524.38294.0928.79492.0245.24986.0368.3752.0478.5.1302 1.4772.1302 2.96226 0 4.43943l-.0478.5-.0498.4854c-.0141.1251-.0271.2212-.043.3095l-.041.2012c-.4714 2.0671-2.3615 3.611-4.65235 3.7705-.09626.0067-.20034.0101-.33594.0117l-.52636.002h-1.41211c-.22313 0-.3907-.0003-.52637-.002l-.33594-.0117c-2.29078-.1596-4.18097-1.7035-4.65234-3.7705l-.04102-.2012c-.01593-.0883-.02887-.1844-.04297-.3095l-.0498-.4854-.04785-.5c-.11387-1.29244-.12836-2.59086-.04297-3.88474l.04297-.55469.04785-.5c.0202-.20587.03572-.3603.0498-.48535l.04297-.30957c.37898-2.09962 2.209-3.704091 4.47266-3.952147l.2207-.019531c.19261-.013404.41604-.013672.86231-.013672h1.41211zm-1.93847 1.498047c-.47092 0-.63113.00087-.75879.00977-1.75298.12236-3.06477 1.32035-3.32129 2.74218-.01843.10217-.03202.23467-.0752.67481-.02479.25275-.03667.36956-.04687.48535-.12243 1.38959-.12243 2.78619 0 4.17579.0102.1158.02208.2326.04687.4853.04318.4402.05677.5727.0752.6748.25652 1.4219 1.56831 2.6199 3.32129 2.7422.12766.0089.28787.0098.75879.0098h1.41211c.47084 0 .63113-.0009.75879-.0098 1.75306-.1223 3.06476-1.3203 3.32126-2.7422.0185-.1021.032-.2346.0752-.6748.0248-.2527.0367-.3695.0469-.4853.1224-1.38961.1224-2.78619 0-4.17579-.0102-.11579-.0221-.2326-.0469-.48535-.0432-.44018-.0567-.57264-.0752-.67481-.2565-1.42186-1.5682-2.61989-3.32126-2.74218-.12766-.00889-.28795-.00977-.75879-.00977z"/></g></svg>