<svg fill="none" height="20" viewBox="0 0 20 20" width="20" xmlns="http://www.w3.org/2000/svg"><g clip-rule="evenodd" fill="#00a008" fill-rule="evenodd"><path d="m9.04195 5.25977c.00028-.73343.84808-1.14073 1.42085-.68262l2.7178 2.17383c.4806.38449.48 1.11619-.0019 1.49902l-2.2041 1.75 2.2041 1.75c.4819.3828.4825 1.1145.0019 1.499l-2.7178 2.1739c-.57279.4581-1.42061.0508-1.42085-.6827v-3.206l-1.3252 1.0527c-.32422.2575-.79604.2039-1.05371-.1201-.25743-.3242-.20385-.7961.12012-1.0537l1.77832-1.4131-1.77832-1.41308c-.32394-.25768-.37758-.7295-.12012-1.05372.25766-.32396.72949-.37755 1.05371-.12011l1.3252 1.05176zm1.50005 8.17873 1.1708-.9365-1.1708-.9307zm0-5.01076 1.1708-.93067-1.1708-.93652z"/><path d="m10.8144 1c.515 0 .7729-.000447.9951.01563 2.7286.19763 4.9648 2.16645 5.416 4.76757.0368.21181.0599.45909.1065.95313.0283.30004.043.45072.0557.60059.1501 1.77242.1501 3.55378 0 5.32618l-.0557.6006-.0567.583c-.0162.1497-.0314.2643-.0498.3701l-.0478.2422c-.5439 2.4805-2.7249 4.3339-5.3682 4.5254l-.3877.0136-.6074.002h-1.6289l-.60742-.002-.38769-.0136c-2.7285-.1977-4.96478-2.1665-5.41602-4.7676-.01833-.1058-.03358-.2204-.0498-.3701l-.05664-.583c-.0283-.3001-.04297-.4507-.05567-.6006-.13137-1.5509-.14735-3.10857-.04883-4.66115l.04883-.66503.05567-.60059c.02333-.24733.04037-.43286.05664-.58301l.0498-.37012c.43712-2.51973 2.54908-4.44547 5.16113-4.74316l.25489-.02441c.11111-.00804.23116-.01167.38769-.01368l.60742-.00195zm-1.6289 1.5c-.54029 0-.73203.00054-.88671.01172-2.07697.15047-3.71831 1.63947-4.0459 3.52734-.02432.14019-.04257.31699-.0918.83887-.0285.30219-.04177.44401-.05371.58496-.14303 1.68837-.14303 3.38581 0 5.07421.01194.141.02521.2828.05371.585.04923.5219.06748.6986.0918.8388.32759 1.8879 1.96894 3.3769 4.0459 3.5274.15467.0112.34642.0117.88671.0117h1.6289c.5403 0 .7321-.0005.8867-.0117 2.077-.1505 3.7183-1.6395 4.0459-3.5274.0243-.1402.0426-.3169.0918-.8388.0285-.3022.0418-.444.0537-.585.1431-1.6884.1431-3.38584 0-5.07421-.0119-.14094-.0252-.28277-.0537-.58496-.0492-.52189-.0675-.69867-.0918-.83887-.3276-1.88789-1.9689-3.3769-4.0459-3.52734-.1546-.01118-.3464-.01172-.8867-.01172z"/></g></svg>