<svg fill="none" height="24" viewBox="0 0 24 24" width="24" xmlns="http://www.w3.org/2000/svg"><g clip-rule="evenodd" fill="#00a008" fill-rule="evenodd"><path d="m10.9994 6.3125c0-.75445.8727-1.17393 1.4619-.70312l3.2696 2.61523c.4913.39323.5016 1.13725.0214 1.54395l-2.6377 2.23144 2.6377 2.2314c.4802.4067.4699 1.1508-.0214 1.544l-3.2696 2.6152c-.5892.4707-1.4618.0513-1.4619-.7031v-3.8984l-1.51561 1.2832c-.31617.2671-.78918.2281-1.05664-.0879-.26719-.3161-.2278-.7891.08789-1.0567l2.27736-1.9277-2.27736-1.9277c-.31573-.26756-.35503-.7406-.08789-1.05667.26748-.31603.74047-.35514 1.05664-.0879l1.51561 1.28227zm1.5 10.127 1.8194-1.4561-1.8194-1.54zm0-5.8838 1.8194-1.54007-1.8194-1.45606z"/><path d="m12.9232 2c.5835 0 .8761-.00028 1.128.01758 3.0921.21975 5.6263 2.40685 6.1377 5.29687.0416.23544.0682.51024.1211 1.05957.032.33336.0481.50048.0625.667.1701 1.96938.1701 3.94858 0 5.91798-.0144.1665-.0305.3336-.0625.667l-.0645.6474c-.0184.1669-.0358.2944-.0566.4121-.5114 2.8901-3.0456 5.0772-6.1377 5.2969l-.4395.0156c-.1773.0023-.3969.002-.6885.002h-1.8457l-.6884-.002-.43949-.0156c-2.99551-.2127-5.46729-2.2716-6.08398-5.0273l-.05371-.2696c-.02083-.1177-.03822-.2452-.05665-.4121l-.06445-.6474-.0625-.667c-.14891-1.7235-.16738-3.4544-.05566-5.1797l.05566-.73828.0625-.667c.02642-.27462.04604-.48068.06445-.64746l.05665-.41211c.49543-2.79968 2.88831-4.93974 5.84863-5.2705l.28906-.02637c.12589-.00892.26219-.0134.43949-.01563l.6884-.00195zm-1.8457 1.5c-.6086 0-.8368.00051-1.0224.01367-2.46077.17488-4.38419 1.90139-4.76662 4.06153-.02874.16238-.04897.3652-.10449.94238-.03234.33608-.04791.49474-.06153.65234-.16276 1.88358-.16276 3.77658 0 5.66018.01362.1576.02919.3162.06153.6523.05553.5772.07575.78.10449.9424.38243 2.1601 2.30585 3.8867 4.76662 4.0615.1856.0132.4138.0137 1.0224.0137h1.8457c.6088 0 .8368-.0005 1.0225-.0137 2.4606-.175 4.3842-1.9014 4.7666-4.0615.0287-.1624.049-.3653.1045-.9424.0323-.3361.0479-.4947.0615-.6523.1628-1.8836.1628-3.7766 0-5.66018-.0136-.1576-.0292-.31626-.0615-.65234-.0555-.57713-.0758-.78001-.1045-.94238-.3824-2.16006-2.306-3.8865-4.7666-4.06153-.1857-.01318-.4137-.01367-1.0225-.01367z"/></g></svg>