<svg fill="none" height="16" viewBox="0 0 16 16" width="16" xmlns="http://www.w3.org/2000/svg"><g fill="#00a008"><path d="m8.00904 6.00012c-.00301.00003-.00602.00004-.00904.00004s-.00603-.00001-.00904-.00004h-.49096c-.27614 0-.5-.22386-.5-.5v-1c0-.27614.22386-.5.5-.5h1c.27614 0 .5.22386.5.5v1c0 .27614-.22386.5-.5.5z"/><path clip-rule="evenodd" d="m2 8.08175c-.59124-.28086-1-.88349-1-1.58159v-1.29717c0-.73795.46291-1.3966 1.15724-1.64655l5.25-1.89c.38314-.13793.80238-.13793 1.18552 0l5.25004 1.89c.6943.24995 1.1572.9086 1.1572 1.64655v1.29717c0 .6981-.4088 1.30073-1 1.58159v3.08685c.5912.2808 1 .8835 1 1.5816v1.3c0 .5246-.4253.95-.95.95h-12.1c-.52467 0-.95-.4254-.95-.95v-1.3c0-.6981.40876-1.3008 1-1.5816zm5.91532-5.00398c.05473-.01971.11463-.01971.16936 0l5.25002 1.89c.0992.0357.1653.1298.1653.23522v1.29717c0 .13791-.1122.24974-.25.25h-10.50049c-.13785-.00026-.24951-.11209-.24951-.25v-1.29717c0-.10542.06613-.19952.16532-.23522zm-4.41532 5.17239v2.75004h1.5v-2.75004zm3 0v2.75004h3v-2.75004zm4.5 0v2.75004h1.5v-2.75004zm-8.5 4.50004c0-.1381.11193-.25.25-.25h10.5c.1381 0 .25.1119.25.25v.75h-11z" fill-rule="evenodd"/></g></svg>