<svg fill="none" height="20" viewBox="0 0 20 20" width="20" xmlns="http://www.w3.org/2000/svg"><g fill="#00a008"><path d="m9.5 5.00008c-.27614 0-.5.22385-.5.5v1c0 .27614.22386.5.5.5h1c.2761 0 .5-.22386.5-.5v-1c0-.27615-.2239-.5-.5-.5z"/><path clip-rule="evenodd" d="m9.37268 1.90123c.40975-.11896.84492-.11896 1.25462 0l6.25 1.81452c.9614.2791 1.6227 1.15974 1.6227 2.16078v1.37354c0 .97967-.6261 1.8131-1.5 2.12198v5.00695c.603.4036 1 1.091 1 1.8711v1c0 .6903-.5596 1.25-1.25 1.25h-13.5c-.69036 0-1.25-.5597-1.25-1.25v-1c0-.7801.39701-1.4675 1-1.8711v-5.00695c-.87389-.30888-1.5-1.14231-1.5-2.12198v-1.37354c0-1.00103.66134-1.88168 1.62268-2.16078zm.83642 1.44052c-.1366-.03965-.28162-.03965-.41821 0l-6.25 1.81452c-.32044.09303-.54089.38658-.54089.72026v1.37354c0 .41422.33579.75.75.75h12.5c.4142 0 .75-.33578.75-.75v-1.37354c0-.33368-.2204-.62723-.5409-.72026zm3.2909 6.15832h2v4.50003h-2zm-5.5 0h4v4.50003h-4zm-3.5 0h2v4.50003h-2zm-.25 6.00003c-.41421 0-.75.3358-.75.75v.75h13v-.75c0-.4142-.3358-.75-.75-.75z" fill-rule="evenodd"/></g></svg>