<svg fill="none" height="24" viewBox="0 0 24 24" width="24" xmlns="http://www.w3.org/2000/svg"><g fill="#00a008"><path d="m11.5 5.99998c-.2761 0-.5.22386-.5.5v1c0 .27614.2239.5.5.5h1c.2761 0 .5-.22386.5-.5v-1c0-.27614-.2239-.5-.5-.5z"/><path clip-rule="evenodd" d="m11.1519 2.23667c.5514-.17885 1.1453-.17884 1.6968.00001l7.5955 2.46348c.9276.30086 1.5558 1.16504 1.5558 2.14024v1.90958c0 1.15814-.875 2.11192-2 2.23622v5.6418c.8739.3089 1.5 1.1423 1.5 2.122v1.5c0 .6903-.5596 1.25-1.25 1.25h-16.5c-.69036 0-1.25-.5597-1.25-1.25v-1.5c0-.9797.62611-1.8131 1.5-2.122v-5.6418c-1.12499-.1243-2-1.07808-2-2.23622v-1.90956c0-.97521.62824-1.8394 1.55588-2.14025zm1.234 1.42684c-.2507-.08129-.5206-.0813-.7713 0l-7.59597 2.46349c-.30922.10029-.51863.38835-.51863.71342v1.90956c0 .41422.33579.75.75.75h15.5c.4142 0 .75-.33578.75-.75v-1.90958c0-.32506-.2094-.61312-.5186-.71341zm3.6141 7.33649h2.5v5.5h-2.5zm-6.5 0h5v5.5h-5zm-4 0h2.5v5.5h-2.5zm13.7512 7h-14.50241c-.41366.0006-.74879.3362-.74879.75v1.25h16v-1.25c0-.4138-.3351-.7494-.7488-.75z" fill-rule="evenodd"/></g></svg>