<svg fill="none" height="16" viewBox="0 0 16 16" width="16" xmlns="http://www.w3.org/2000/svg"><path clip-rule="evenodd" d="m10.4779 2.00258c1.4592.03547 2.7756.34867 3.6172.66211.2292.08539.4022.2779.4638.51465.0615.23674.0034.48861-.1552.67481-1.2418 1.45694-1.6917 2.53936-1.9961 3.47851-.3002.92638-.5096 1.95684-1.2569 2.99614-1.1055 1.5371-3.21781 2.3366-5.35933 1.499-.28375.9256-.374 1.7573-.37403 2.3388 0 .3935-.30484.72-.69726.7481-.39245.0278-.7401-.2522-.7959-.6416-.1287-.9007-.96643-2.2455-2.38379-3.3477-.32699-.2542-.38609-.7257-.13183-1.0527.25425-.32634.72497-.38555 1.05175-.13183.71396.55513 1.34155 1.19833 1.83496 1.86723.05419-.192.11579-.3875.18457-.586-.83324-.7945-1.35759-2.01902-1.39453-3.28416-.04906-1.68562.75232-3.48864 2.80176-4.67579 1.47353-.85344 3.13201-1.095 4.59083-1.05957zm-.0361 1.5c-1.28395-.03118-2.64321.18588-3.80278.85743-1.57112.91008-2.08773 2.19699-2.05468 3.33398.02035.69795.24468 1.32732.56543 1.80371.656-1.21206 1.63767-2.43078 3.08691-3.44531.33931-.23725.80746-.15466 1.04492.18457.23713.33919.15435.80642-.18457 1.04394-1.32183.92529-2.18853 2.05075-2.74609 3.1533 1.48518.5735 2.86803.0114 3.58203-.98142.56903-.79138.68983-1.47831 1.04783-2.58301.2867-.88438.6928-1.88236 1.5762-3.09668-.6085-.14091-1.3377-.25158-2.1152-.27051z" fill="#00a008" fill-rule="evenodd"/></svg>