<svg fill="none" height="20" viewBox="0 0 20 20" width="20" xmlns="http://www.w3.org/2000/svg"><path clip-rule="evenodd" d="m13.0507 2.5036c1.802.04377 3.4273.43048 4.461.81543.2292.08538.4022.27798.4638.51465.0616.23679.0034.48857-.1552.67481-1.571 1.84316-2.1446 3.21903-2.5313 4.41211-.3825 1.1802-.6331 2.4253-1.5449 3.6934-1.3495 1.8762-3.94448 2.8469-6.57228 1.7705-.44988 1.3154-.58887 2.5111-.58887 3.3242-.00025.3918-.3017.7181-.69238.748-.39064.0299-.73894-.2467-.79883-.6338-.19339-1.257-.57101-2.1233-1.05371-2.7597-.4833-.6371-1.10842-1.0932-1.87305-1.4756-.3703-.1852-.52076-.6355-.33594-1.0059.18516-.3703.63548-.5207 1.00586-.3359.90177.4509 1.73604 1.037 2.39844 1.9101.10736.1416.20636.2918.30273.4463.09019-.3235.19774-.656.32227-.9941-1.09846-.9441-1.80803-2.5023-1.85547-4.12891-.05926-2.03838.90627-4.2275 3.4082-5.67676 1.80262-1.04404 3.83803-1.34256 5.63963-1.29883zm-.0361 1.5c-1.6267-.0395-3.36289.23453-4.85157 1.09668-2.02353 1.17214-2.70432 2.84524-2.66114 4.33496.03158 1.08286.44019 2.05166 1.00489 2.70606.80751-1.5511 2.04024-3.12243 3.89652-4.42188.3393-.23753.8073-.15476 1.0449.18457.2368.3392.1543.80655-.1846 1.04395-1.69844 1.18896-2.80526 2.63746-3.51366 4.05376 1.96699.7992 3.82266.0624 4.77636-1.2637.7336-1.0203.8956-1.92169 1.3359-3.28029.3708-1.14396.9035-2.4412 2.1114-4.04395-.8242-.21068-1.8532-.38328-2.959-.41016z" fill="#00a008" fill-rule="evenodd"/></svg>