<svg fill="none" height="24" viewBox="0 0 24 24" width="24" xmlns="http://www.w3.org/2000/svg"><path clip-rule="evenodd" d="m15.7071 3.00487c2.1451.0521 4.079.51321 5.3047.96972.2292.08542.4022.27696.4638.51368.0615.23683.0035.48856-.1553.6748-1.9003 2.22956-2.5974 3.89862-3.0664 5.34573-.4647 1.4341-.7555 2.8936-1.832 4.3906-1.6042 2.2307-4.715 3.3724-7.85155 2.0127-.63105 1.7147-.82029 3.2878-.82031 4.3379 0 .3919-.30172.7179-.69239.748-.39081.0299-.73912-.2464-.79882-.6338-.23511-1.528-.69651-2.5923-1.29395-3.3798-.59786-.788-1.36861-1.3479-2.2998-1.8135-.37032-.1852-.52088-.6355-.33594-1.0059.18522-.3702.63552-.5208 1.00586-.3359 1.06848.5342 2.04818 1.2248 2.82519 2.249.1941.2559.37332.5298.53711.8233.14401-.5664.33113-1.1585.56641-1.7647-1.3294-1.0927-2.20347-2.9555-2.26074-4.915-.06974-2.39142 1.06086-4.96719 4.01562-6.67875 2.13171-1.23466 4.54401-1.59012 6.68851-1.53808zm-.0362 1.5c-1.9698-.04784-4.0834.28288-5.90133 1.33593-2.47633 1.43452-3.32132 3.4942-3.26758 5.3369.04176 1.43.61812 2.7088 1.40723 3.5205.95883-1.8618 2.43218-3.7522 4.66108-5.31247.3393-.23724.8065-.15457 1.044.18457.2373.33928.1546.8064-.1846 1.0439-2.0616 1.4433-3.4051 3.2017-4.26462 4.9209 2.47342 1.0722 4.83432.1636 6.03902-1.5117.8983-1.2491 1.1005-2.365 1.6231-3.9775.4543-1.40177 1.1119-2.99653 2.6465-4.98732-1.0336-.28145-2.3648-.51878-3.8028-.55371z" fill="#00a008" fill-rule="evenodd"/></svg>