<svg fill="none" height="16" viewBox="0 0 16 16" width="16" xmlns="http://www.w3.org/2000/svg"><rect fill="#fff" height="14" rx="7" width="14" x="1" y="1"/><circle cx="8" cy="8" fill="#f8b500" r="2"/><path d="m1.67395 11c1.12346 2.3649 3.53397 4 6.32637 4 2.79238 0 5.20288-1.6351 6.32638-4z" fill="#72abe1"/><path d="m1.67395 5h12.65275c-1.1235-2.36495-3.534-4-6.32638-4-2.7924 0-5.20291 1.63505-6.32637 4z" fill="#72abe1"/><path clip-rule="evenodd" d="m8 14c3.3137 0 6-2.6863 6-6 0-3.31371-2.6863-6-6-6-3.31371 0-6 2.68629-6 6 0 3.3137 2.68629 6 6 6zm0 1c3.866 0 7-3.134 7-7 0-3.86599-3.134-7-7-7-3.86599 0-7 3.13401-7 7 0 3.866 3.13401 7 7 7z" fill="#1d1f26" fill-opacity=".2" fill-rule="evenodd"/></svg>