<svg fill="none" height="20" viewBox="0 0 20 20" width="20" xmlns="http://www.w3.org/2000/svg"><rect fill="#fff" height="18" rx="9" width="18" x="1" y="1"/><path d="m18.4875 13c-1.2355 3.4956-4.5692 6-8.4879 6-3.91866 0-7.25237-2.5044-8.48788-6z" fill="#72abe1"/><path d="m1.51172 7c1.23551-3.49558 4.56923-6 8.48788-6 3.9187 0 7.2524 2.50442 8.4879 6z" fill="#72abe1"/><path clip-rule="evenodd" d="m10 18c4.4183 0 8-3.5817 8-8 0-4.41828-3.5817-8-8-8-4.41828 0-8 3.58172-8 8 0 4.4183 3.58172 8 8 8zm0 1c4.9706 0 9-4.0294 9-9 0-4.97056-4.0294-9-9-9-4.97056 0-9 4.02944-9 9 0 4.9706 4.02944 9 9 9z" fill="#1d1f26" fill-opacity=".2" fill-rule="evenodd"/><circle cx="10" cy="10" fill="#f8b500" r="2"/></svg>