<svg fill="none" height="16" viewBox="0 0 16 16" width="16" xmlns="http://www.w3.org/2000/svg"><path clip-rule="evenodd" d="m6.04988 2.00684c.27701.03361.52925.1829.69336.41308l2.26075 3.17188 2.69631-3.23242c.19-.2277.472-.35938.7685-.35938h.9971l.0752.01074c.1619.04976.2355.25707.1172.39942l-3.73049 4.47558 4.50879 6.32426c.2358.3309-.0009.7899-.4072.79h-3.959c-.28277-.0001-.55018-.1199-.73829-.3262l-.07519-.0937-2.2627-3.1739-2.69433 3.2344-.0752.0801c-.15882.1527-.36401.2492-.58301.2734l-.11035.0059h-.99707c-.21196 0-.32807-.2473-.19238-.4102l3.72949-4.4775-4.50781-6.32226c-.22112-.31032-.0271-.73358.333-.78516l.07422-.00488h3.95899z" fill="#00a008" fill-rule="evenodd"/></svg>