<svg fill="none" height="20" viewBox="0 0 20 20" width="20" xmlns="http://www.w3.org/2000/svg"><path clip-rule="evenodd" d="m7.66123 2c.34834.00001.67186.18129.85351.47852l2.90526 4.7539 4.2813-4.89062c.1898-.21698.4646-.34178.7529-.3418h.9951c.2146.00019.3288.25345.1875.41504l-5.3945 6.16308 5.2929 8.66118c.2036.3331-.0363.7607-.4267.7607h-4.7695l-.1299-.0088c-.2552-.0333-.4881-.1637-.6494-.3642l-.0743-.1055-2.90718-4.7569-4.2793 4.8936c-.16618.1899-.39717.3092-.64551.3359l-.10742.0059h-.99512l-.07519-.0107c-.16409-.0505-.23609-.2628-.11231-.4043l5.39258-6.1651-5.29101-8.65916c-.19091-.3124.00804-.70776.35547-.75586l.07128-.00488z" fill="#00a008" fill-rule="evenodd"/></svg>