<svg fill="none" height="24" viewBox="0 0 24 24" width="24" xmlns="http://www.w3.org/2000/svg"><path clip-rule="evenodd" d="m9.56839 3.00879c.29761.03878.56471.20978.72361.46973l3.2266 5.28027 4.1816-5.37305c.1895-.24331.4807-.38574.7891-.38574h1c.2076.00037.3245.23924.1973.40332l-5.2872 6.79588 6.1358 10.0401c.2035.3331-.0364.7606-.4268.7607h-5.5478c-.3048-.0001-.5901-.1392-.7783-.373l-.0743-.1055-3.2285-5.2822-4.17966 5.375-.0752.0859c-.16011.1632-.37151.2667-.59863.293l-.11523.0068h-1l-.07324-.0107c-.15977-.0482-.23543-.249-.12403-.3926l5.28613-6.7979-6.13476-10.03806c-.1909-.3124.00804-.70776.35547-.75586l.07129-.00488h5.54785z" fill="#00a008" fill-rule="evenodd"/></svg>