<svg fill="none" height="16" viewBox="0 0 16 16" width="16" xmlns="http://www.w3.org/2000/svg"><path clip-rule="evenodd" d="m3.75 1.5c-1.51878 0-2.75 1.23122-2.75 2.75v5.5c0 1.5188 1.23122 2.75 2.75 2.75h3.25v1h-1c-.41421 0-.75.3358-.75.75s.33579.75.75.75h4c.4142 0 .75-.3358.75-.75s-.3358-.75-.75-.75h-1v-1h3.25c1.5188 0 2.75-1.2312 2.75-2.75v-5.5c0-1.51878-1.2312-2.75-2.75-2.75zm8.5 9.5c.6047 0 1.1092-.4294 1.225-1h-10.95c.11582.5706.62026 1 1.225 1zm-9.75-6.75c0-.69036.55964-1.25 1.25-1.25h8.5c.6904 0 1.25.55964 1.25 1.25v4.25h-11z" fill="#00a008" fill-rule="evenodd"/></svg>