<svg fill="none" height="20" viewBox="0 0 20 20" width="20" xmlns="http://www.w3.org/2000/svg"><path clip-rule="evenodd" d="m5 2c-1.933 0-3.5 1.567-3.5 3.5v7c0 1.933 1.567 3.5 3.5 3.5h4v1.5h-2c-.41421 0-.75.3358-.75.75s.33579.75.75.75h6c.4142 0 .75-.3358.75-.75s-.3358-.75-.75-.75h-2v-1.5h4c1.933 0 3.5-1.567 3.5-3.5v-7c0-1.933-1.567-3.5-3.5-3.5zm-2 3.5c0-1.10457.89543-2 2-2h10c1.1046 0 2 .89543 2 2v5.5h-14zm0 7c0 1.1046.89543 2 2 2h10c1.1046 0 2-.8954 2-2z" fill="#00a008" fill-rule="evenodd"/></svg>