<svg fill="none" height="24" viewBox="0 0 24 24" width="24" xmlns="http://www.w3.org/2000/svg"><path clip-rule="evenodd" d="m1.5 6.25c0-2.07107 1.67893-3.75 3.75-3.75h13.5c2.0711 0 3.75 1.67893 3.75 3.75v9.5c0 2.0711-1.6789 3.75-3.75 3.75h-3.75v1.5h1c.4142 0 .75.3358.75.75s-.3358.75-.75.75h-8c-.41421 0-.75-.3358-.75-.75s.33579-.75.75-.75h1v-1.5h-3.75c-2.07107 0-3.75-1.6789-3.75-3.75zm12 14.75v-1.5h-3v1.5zm-8.25-17c-1.24264 0-2.25 1.00736-2.25 2.25v7.75h18v-7.75c0-1.24264-1.0074-2.25-2.25-2.25zm-2.25 11.75v-.25h18v.25c0 1.2426-1.0074 2.25-2.25 2.25h-13.5c-1.24264 0-2.25-1.0074-2.25-2.25z" fill="#00a008" fill-rule="evenodd"/></svg>