<svg fill="none" height="16" viewBox="0 0 16 16" width="16" xmlns="http://www.w3.org/2000/svg"><g fill="#00a008"><path d="m4 2.5c0 .82843-.67157 1.5-1.5 1.5s-1.5-.67157-1.5-1.5.67157-1.5 1.5-1.5 1.5.67157 1.5 1.5z"/><path d="m15.0002 14v-4.85297c0-2.69418-1.4555-4.06593-3.3969-4.06593-1.5665 0-2.15301.85084-2.54459 1.44808v-1.52941l-3.05883.00023c.00012 1 .00012 9 .00012 9l3.05883-.0002-.00012-4.72247c0-.26215.01915-.52365.09716-.71134.21323-.52372.89233-1.06594 1.70743-1.06594 1.0681 0 1.1368.80483 1.1368 1.98353l.0001 4.51642z"/><path d="m4 5h-3v9h3z"/></g></svg>