<svg fill="none" height="20" viewBox="0 0 20 20" width="20" xmlns="http://www.w3.org/2000/svg"><g fill="#00a008"><path d="m3.77778 4.52942c.98184 0 1.77778-.79009 1.77778-1.76471s-.79594-1.76471-1.77778-1.76471-1.77778.79009-1.77778 1.76471.79594 1.76471 1.77778 1.76471z"/><path d="m5.55556 16v-10.58796l-3.55556.00001v10.58795z"/><path d="m18.1131 15.9997.0002-5.8029c0-3.10873-1.6919-4.69151-3.9486-4.69151-1.8208 0-2.7074.98206-3.1625 1.67119v-1.76471l-3.55559.00027v10.58796l3.55559-.0003v-5.6523c0-.3025.0222-.6042.1129-.82076.2479-.60429.8836-1.22966 1.831-1.22966 1.2415 0 1.6116.92832 1.6116 2.28832v5.4147z"/></g></svg>