<svg fill="none" height="24" viewBox="0 0 24 24" width="24" xmlns="http://www.w3.org/2000/svg"><g fill="#00a008"><path d="m5 5c1.10457 0 2-.89543 2-2s-.89543-2-2-2-2 .89543-2 2 .89543 2 2 2z"/><path d="m7 18v-11.99969h-4v11.99969z"/><path d="m20.9998 17.9997.0002-6.5767c0-3.52319-1.9033-5.31701-4.4421-5.31701-2.0484 0-3.0458 1.11301-3.5579 1.89401v-2l-4 .00031v11.99969l4-.0003v-6.406c0-.3428.025-.6848.1271-.9302.2788-.68485.994-1.3936 2.0599-1.3936 1.3966 0 1.813 1.0521 1.813 2.5935v6.1366z"/></g></svg>