<svg fill="none" height="16" viewBox="0 0 16 16" width="16" xmlns="http://www.w3.org/2000/svg"><path d="m5.43301 1.50098c.55602.00015 1.08348.23123 1.45899.63183l.15137.18164.99902 1.35645v-.48926c.00009-.91451.73871-1.68164 1.68066-1.68164h3.49705c.9419.00006 1.6796.76716 1.6797 1.68164v1.12305c0 .62355-.3462 1.19686-.8994 1.4873v7.02641c-.0001.9145-.7387 1.6816-1.6807 1.6816h-.0019l-1.7549-.0029c-.63414-.0013-1.23031-.3039-1.60645-.8145l-.99902-1.3564v.4922c-.0001.9145-.73872 1.6816-1.68067 1.6816h-3.49707c-.94179-.0002-1.67959-.7672-1.67968-1.6816v-1.1231c.00001-.6241.34639-1.199.90039-1.4892v-4.41313c-.55377-.29027-.90038-.86434-.90039-1.48828v-1.12305c.00009-.91441.73788-1.68147 1.67968-1.68164zm4.29004 1.49902c-.09935 0-.18057.08131-.18066.18164v1.12988c0 .0711.04149.1364.10547.16602l.56154.25976c.0639.02965.1045.09402.1045.16504v3.83399c0 .175-.2207.24957-.32425.10937l-4.15429-5.6416c-.09422-.12782-.24355-.20308-.40235-.20312l-2.65332-.00098c-.09921.00017-.17959.08141-.17968.18164v1.12305c.00001.07473.04539.14161.11425.16894l.67188.2666c.06862.02734.11408.09445.11426.16895v6.18162c-.00018.0745-.04564.1416-.11426.169l-.67188.2666c-.06886.0273-.11424.0942-.11425.1689v1.1231c.00009.1002.08047.1814.17968.1816h3.49707c.09936 0 .18057-.0813.18067-.1816v-1.1299c0-.0711-.04149-.1364-.10547-.166l-.56152-.2598c-.06379-.0297-.10448-.0941-.1045-.165v-3.835c.0004-.17466.22078-.24847.32422-.1084l4.15434 5.6387c.094.1276.2428.2037.4013.2041l1.7539.0029c.0994 0 .1806-.0813.1807-.1816v-7.90922c.0002-.07457.0455-.14167.1143-.16895l.6709-.2666c.0688-.02733.1142-.0942.1142-.16894v-1.12305c-.0001-.10029-.0804-.18158-.1797-.18164z" fill="#00a008"/></svg>