<svg fill="none" height="20" viewBox="0 0 20 20" width="20" xmlns="http://www.w3.org/2000/svg"><path d="m16.2832 2.5c.9578 0 1.7166.7789 1.7168 1.71777v1.34766c0 .69908-.425 1.33392-1.083 1.5957v8.62107c-.0002.9388-.7591 1.7177-1.7168 1.7178h-.0029l-2.1631-.0039c-.6332-.0011-1.2282-.3023-1.6045-.8115l-1.79689-2.4307c.0057.0568.00977.1141.00977.1719v1.3564c-.00022.9389-.75902 1.7178-1.7168 1.7178h-4.20898c-.95778 0-1.71658-.7789-1.7168-1.7178v-1.3476c0-.6992.42478-1.335 1.08301-1.5967v-5.67677c-.65804-.26178-1.08301-.89662-1.08301-1.5957v-1.34766c.00022-.93887.75901-1.71777 1.7168-1.71777l3.24609.00098c.55483.00025 1.08073.23067 1.45606.62988l.15136.18164 1.79589 2.43066c-.0055-.05581-.0088-.11217-.0088-.16894v-1.35645c.0002-.93887.759-1.71777 1.7168-1.71777zm-4.209 1.5c-.1195 0-.2166.09746-.2168.21777v1.35645c0 .08525.0491.16266.126.19824l.6758.3125c.077.03556.1269.11295.1269.19824v4.6006c0 .2099-.2659.2989-.3906.1308l-5.03124-6.8105c-.09424-.12757-.24374-.20308-.40235-.20312l-3.24511-.00098c-.11953 0-.21658.09746-.2168.21777v1.34766c0 .08971.05478.17032.1377.20312l.80859.32032c.08265.03292.13672.11359.13672.20312v7.41601c0 .0895-.05407.1702-.13672.2031l-.80859.3203c-.08292.0328-.1377.1135-.1377.2032v1.3476c.00022.1203.09727.2178.2168.2178h4.20898c.11953 0 .21658-.0975.2168-.2178v-1.3564c0-.0853-.04906-.1627-.12598-.1983l-.67578-.3125c-.07699-.0355-.12695-.1129-.12695-.1982v-4.60059c0-.20998.26599-.29905.39062-.13086l5.03121 6.80765c.0941.1273.2431.2028.4014.2031l2.1631.0039c.1194-.0001.2166-.0975.2168-.2178v-9.49021c0-.08953.0541-.1702.1367-.20312l.8086-.32032c.0829-.0328.1377-.11341.1377-.20312v-1.34766c-.0002-.12031-.0973-.21777-.2168-.21777z" fill="#00a008"/></svg>