<svg fill="none" height="24" viewBox="0 0 24 24" width="24" xmlns="http://www.w3.org/2000/svg"><path d="m19.25 3.5c.9919 0 1.75.81147 1.75 1.75488v1.57129c0 .70523-.4246 1.35911-1.1016 1.62988l-.1484.0586v10.23045c0 .9434-.7581 1.7549-1.75 1.7549h-.0029l-2.5332-.0049c-.6367-.0013-1.2346-.3054-1.6104-.8193l-3.5674-4.8819v.75l.0596.0284c.627.2926 1.0116.9198 1.0117 1.5908v1.582c0 .9433-.7583 1.7547-1.74998 1.7549h-4.85742c-.99185 0-1.75-.8115-1.75-1.7549v-1.5713c0-.7052.42464-1.3591 1.10156-1.6299l.14844-.0595v-6.96975l-.14844-.0586c-.67693-.27077-1.10156-.92464-1.10156-1.62988v-1.57129c0-.94341.75814-1.75488 1.75-1.75488l3.78223.00098c.63814.00017 1.23779.30504 1.61427.82031l3.5674 4.88281v-.74902l-.0596-.02735c-.627-.2926-1.0116-.91984-1.0117-1.59082v-1.58203c0-.94332.7582-1.75473 1.75-1.75488zm-4.8574 1.5c-.138.00015-.25.1144-.25.25488v1.58203c.0001.09943.0577.19002.1465.23145l.7793.36328c.0887.04143.1454.13202.1455.23145v5.36811c0 .2451-.3065.3488-.4502.1524l-5.82815-7.97755c-.09405-.12872-.24392-.20492-.40332-.20507l-3.78223-.00098c-.13807 0-.25.1143-.25.25488v1.57129c0 .10454.06271.19896.1582.23731l.9336.37304c.09549.03835.1582.13276.1582.23731v8.65237c0 .1045-.06271.1989-.1582.2373l-.9336.373c-.09549.0384-.1582.1328-.1582.2373v1.5713c0 .1406.11193.2549.25.2549h4.85742c.13795-.0002.25-.1144.25-.2549v-1.582c-.0001-.0994-.0577-.19-.14648-.2315l-.7793-.3632c-.08879-.0415-.14541-.1321-.14551-.2315v-5.3681c0-.2451.30648-.349.4502-.1524l5.82817 7.9736c.0939.1285.2431.2048.4023.2051l2.5332.0049c.1381 0 .25-.1143.25-.2549v-11.07127c0-.10455.0627-.19896.1582-.23731l.9336-.37304c.0955-.03835.1582-.13277.1582-.23731v-1.57129c0-.14058-.1119-.25488-.25-.25488z" fill="#00a008"/></svg>