<svg fill="none" height="16" viewBox="0 0 16 16" width="16" xmlns="http://www.w3.org/2000/svg"><circle cx="8" cy="8" fill="#fff" r="7"/><path d="m4.39281 14h7.21519c.4691-.2827.9024-.6188 1.2914-1h-9.79798c.38898.3812.82226.7173 1.29139 1z" fill="#ed4c49"/><path d="m2.25509 12h11.49061c.22-.3154.4146-.6497.5811-1h-12.65277c.16643.3503.36109.6846.58106 1z" fill="#ed4c49"/><path d="m1.29028 10h13.42022c.0965-.32412.1701-.65807.219-1h-13.85821c.04891.34193.12253.67588.21899 1z" fill="#ed4c49"/><path d="m11.608 2c-1.0536-.63482-2.28793-1-3.6076-1v1z" fill="#ed4c49"/><path d="m12.8994 3h-4.899v1h5.7453c-.2507-.35941-.5342-.6942-.8463-1z" fill="#ed4c49"/><path d="m14.3268 5h-6.3264v1h6.7101c-.1027-.34525-.2314-.67933-.3837-1z" fill="#ed4c49"/><path d="m14.9295 7h-6.9291v1h7c0-.33952-.0242-.6734-.0709-1z" fill="#ed4c49"/><path d="m1 8h7v-7c-3.86599 0-7 3.13401-7 7z" fill="#444379"/><g fill="#a7b6e7"><path d="m5.00016 1.67355c.32067-.15233.65475-.281 1-.38376v.71013h-1z"/><path d="m4.39257 1.99992h.60759v1h-1v-.74531c.12776-.08912.25863-.17408.39241-.25469z"/><path d="m3.10118 2.99992h.89898v1h-1v-.89899c.03333-.03401.067-.06768.10102-.10101z"/><path d="m2.25485 3.99992h.74531v1h-1v-.60759c.08061-.13379.16558-.26466.25469-.39241z"/><path d="m1.67379 4.99992h.32637v1h-.71012c.10275-.34525.23142-.67934.38375-1z"/><path d="m3.00016 5.99992v-1h1v1z"/><path d="m5.00016 5.99992h-1v1h1z"/><path clip-rule="evenodd" d="m5.00016 4.99992v1h1v1h1v-1h-1v-1h1v-1h-1v-1h1v-1h-1v1h-1v1h-1v1zm0 0v-1h1v1z" fill-rule="evenodd"/><path d="m3.00016 5.99992h-1v1h1z"/></g><path clip-rule="evenodd" d="m8 14c3.3137 0 6-2.6863 6-6 0-3.31371-2.6863-6-6-6-3.31371 0-6 2.68629-6 6 0 3.3137 2.68629 6 6 6zm0 1c3.866 0 7-3.134 7-7 0-3.86599-3.134-7-7-7-3.86599 0-7 3.13401-7 7 0 3.866 3.13401 7 7 7z" fill="#a50c0f" fill-opacity=".3" fill-rule="evenodd"/></svg>