<svg fill="none" height="20" viewBox="0 0 20 20" width="20" xmlns="http://www.w3.org/2000/svg"><circle cx="10" cy="10" fill="#fff" r="9"/><g fill="#ed4c49"><path d="m5.87256 18h8.25444c.5448-.2817 1.0572-.6174 1.5301-1h-11.31468c.47286.3826.98527.7183 1.53014 1z"/><path d="m3.29144 16h13.41666c.2812-.3142.5407-.6484.7761-1h-14.96889c.23537.3516.49487.6858.77613 1z"/><path d="m1.93528 14h16.12892c.1605-.3228.3021-.6566.4234-1h-16.97572c.12136.3434.26297.6772.4234 1z"/><path d="m1.22278 12h17.55392c.0742-.3269.1306-.6606.1681-1h-17.89011c.03751.3394.0939.6731.16809 1z"/><path d="m14.127 2c-1.2363-.63907-2.6396-1-4.12724-1v1z"/><path d="m15.6571 3h-5.65734v1h6.70834c-.3229-.36072-.6744-.69525-1.051-1z"/><path d="m17.4842 5h-7.48444v1h8.06444c-.1722-.3466-.3661-.68053-.58-1z"/><path d="m18.4876 7h-8.48784v1h8.77694c-.0774-.3411-.1741-.67484-.2891-1z"/><path d="m18.9448 9h-8.94504v1h9.00004c0-.33801-.0187-.67167-.055-1z"/></g><path d="m1 10h9v-9c-4.97056 0-9 4.02944-9 9z" fill="#444379"/><path d="m6.99964 1.51225c.32516-.11493.6589-.21171 1-.28911v.77699h-1z" fill="#a7b6e7"/><path d="m4.99964 6.00013v1h-1v-1z" fill="#a7b6e7"/><path d="m5.99964 6.00013v1h1v-1z" fill="#a7b6e7"/><path d="m5.99964 5.00013h1v-1h-1z" fill="#a7b6e7"/><path d="m5.99964 5.00013v1h-1v-1z" fill="#a7b6e7"/><path clip-rule="evenodd" d="m1.51176 7.00013c-.11493.32516-.2117.6589-.2891 1h.77698v1h1v-1h1v1h1v-1h1v1h1v-1h1v1h1v-1h-1v-1h1v-1h-1v-1h1v-1h-1v-1h1v-1h-1v1h-1v-1h-1v-.06448c-.04259.02116-.08499.04266-.1272.06448h.1272v1h-1v-.48445c-.22659.15167-.44592.31337-.65733.48445h.65733v1h-1v-.70832c-.24898.22284-.48548.45934-.70832.70832h.70832v1h-1v-.65734c-.17108.21142-.33277.43074-.48445.65734h.48445v1h-1v-.1272c-.02182.0422-.04331.0846-.06448.1272h.06448v1zm1.48788 0v1h-1v-1zm1 0v1h1v-1h1v1h1v-1h1v-1h-1v-1h1v-1h-1v-1h-1v1h-1v1h-1v1h-1v1z" fill="#a7b6e7" fill-rule="evenodd"/><path clip-rule="evenodd" d="m10 18c4.4183 0 8-3.5817 8-8 0-4.41828-3.5817-8-8-8-4.41828 0-8 3.58172-8 8 0 4.4183 3.58172 8 8 8zm0 1c4.9706 0 9-4.0294 9-9 0-4.97056-4.0294-9-9-9-4.97056 0-9 4.02944-9 9 0 4.9706 4.02944 9 9 9z" fill="#a50c0f" fill-opacity=".3" fill-rule="evenodd"/></svg>