<svg fill="none" height="24" viewBox="0 0 24 24" width="24" xmlns="http://www.w3.org/2000/svg"><circle cx="12" cy="12" fill="#fff" r="10"/><g fill="#ed4c49"><path d="m7.63587 21h8.72823c.5791-.2813 1.1269-.6168 1.6369-1h-12.00198c.50999.3832 1.05781.7187 1.63685 1z"/><path d="m4.85857 19h14.28283c.3077-.3139.5949-.6479.8593-1h-16.00143c.26446.3521.55161.6861.8593 1z"/><path d="m3.33782 17h17.32438c.1865-.3224.3555-.6562.5057-1h-18.33581c.15023.3438.31924.6776.50573 1z"/><path d="m2.4578 15h19.0844c.1025-.3264.1888-.6601.2578-1h-19.59996c.06899.3399.15523.6736.25776 1z"/><path d="m2.04938 13h19.90122c.0327-.3289.0494-.6625.0494-1h-20c0 .3375.01672.6711.04938 1z"/><path d="m16.3641 3c-1.3187-.64066-2.7995-1-4.3641-1v1z"/><path d="m18.001 4h-6.001v1h7.1414c-.354-.36118-.7353-.69562-1.1404-1z"/><path d="m20.0007 6h-8.0007v1h8.6622c-.2008-.34706-.4218-.68093-.6615-1z"/><path d="m21.1679 8h-9.1679v1h9.5422c-.1073-.3416-.2324-.67529-.3743-1z"/><path d="m21.8 10h-9.8v1h9.9506c-.0336-.3386-.0841-.6722-.1506-1z"/></g><path d="m2.0498 11h9.9506v-9c-5.18532 0-9.44887 3.94668-9.9506 9z" fill="#444379"/><path clip-rule="evenodd" d="m6 6.99992v1h1v-1h1v1h1v-1h-1v-1.00001h1v-1h-1v1h-1v-1h-1v1h-1v1.00001zm0 0v-1.00001h1v1.00001z" fill="#a7b6e7" fill-rule="evenodd"/><path clip-rule="evenodd" d="m2.20004 9.99992h.79996v-1h1v1h1v-1h1v1h1v-1h1v1h1v-1h1v1h1v-1h-1v-1h1v-1h-1v-1.00001h1v-1h-1v-1h1v-1h-1v-.79996c-.33991.069-.67356.15524-1 .25777v.54219h-1v-.16791c-.12268.0536-.24407.10959-.36413.16791h.36413v1h-1v-.66217c-.34706.20076-.68093.42178-1 .66144l-.00098.00073c-.35172.26426-.68545.55117-.99902.85857v.14143h-.14143c-.3074.31358-.59431.64731-.85857.99903l-.00073.00097c-.23967.31907-.46069.65295-.66145 1.00001h.66218v1h-1v1h-.5422c-.10253.32643-.18877.66008-.25776 1zm2.79996-2v1h-1v-1zm0-1v1h1v1h1v-1h1v1h1v-1h1v-1h-1v-1.00001h1v-1h-1v-1h1v-1h-1v1h-1v1h-1v-1l-1-.00073v1.00073h-1v1l-1-.00097v1.00098z" fill="#a7b6e7" fill-rule="evenodd"/><path clip-rule="evenodd" d="m12 21c4.9706 0 9-4.0294 9-9 0-4.97056-4.0294-9-9-9-4.97056 0-9 4.02944-9 9 0 4.9706 4.02944 9 9 9zm0 1c5.5228 0 10-4.4772 10-10 0-5.52285-4.4772-10-10-10-5.52285 0-10 4.47715-10 10 0 5.5228 4.47715 10 10 10z" fill="#a50c0f" fill-opacity=".3" fill-rule="evenodd"/></svg>