<svg fill="none" height="16" viewBox="0 0 16 16" width="16" xmlns="http://www.w3.org/2000/svg"><g fill="#00a008"><path d="m6.25 5c.41421 0 .75.33579.75.75s-.33579.75-.75.75-.75-.33579-.75-.75.33579-.75.75-.75z"/><path d="m9.75 5c.4142 0 .75.33579.75.75s-.3358.75-.75.75c-.41421 0-.75-.33579-.75-.75s.33579-.75.75-.75z"/><path clip-rule="evenodd" d="m8 1c2.7614 0 5 2.23858 5 5v3.25098c.0005.41376.3361.75002.75.75002s.7495-.33626.75-.75002v-.58399c0-.41421.3358-.75.75-.75s.75.33579.75.75v.58399c-.0005 1.24222-1.0077 2.25002-2.25 2.25002s-2.2495-1.0078-2.25-2.25002v-.25098h-.7363c.0558 1.3811.2883 2.2605.622 2.793.3367.5366.8196.791 1.6143.791.4142 0 .75.3358.75.75-.0003.414-.3359.75-.75.75-1.2048 0-2.2225-.4372-2.8857-1.4951-.5391-.8603-.79698-2.0626-.85258-3.5889h-.51172v5.667c-.00026.414-.33595.75-.75.75s-.74974-.336-.75-.75v-5.667h-.51172c-.0556 1.5263-.31348 2.7286-.85254 3.5889-.66329 1.0579-1.68099 1.4951-2.88574 1.4951-.41405 0-.74974-.336-.75-.75 0-.4142.33579-.75.75-.75.79475 0 1.27756-.2544 1.61426-.791.33375-.5325.56624-1.4119.62207-2.793h-.73633v.25098c-.00053 1.24222-1.00768 2.25002-2.25 2.25002s-2.24947239-1.0078-2.25-2.25002v-.58399c0-.41421.335786-.75.75-.75.41421 0 .75.33579.75.75v.58399c.00053.41376.33611.75002.75.75002s.74947-.33626.75-.75002v-3.25098c0-2.76142 2.23858-5 5-5zm0 1.5c-1.933 0-3.5 1.567-3.5 3.5v1.5h7v-1.5c0-1.933-1.567-3.5-3.5-3.5z" fill-rule="evenodd"/></g></svg>