<svg fill="none" height="20" viewBox="0 0 20 20" width="20" xmlns="http://www.w3.org/2000/svg"><g fill="#00a008"><path d="m8 6c.55228 0 1 .44772 1 1s-.44772 1-1 1-1-.44772-1-1 .44772-1 1-1z"/><path d="m12 6c.5523 0 1 .44772 1 1s-.4477 1-1 1-1-.44772-1-1 .4477-1 1-1z"/><path clip-rule="evenodd" d="m10 1.5c2.7614 0 5 2.23858 5 5v5c.0001.5522.4478 1 1 1s.9999-.4478 1-1v-.667c.0001-.4141.3359-.75.75-.75s.7499.3359.75.75v.667c-.0001 1.3806-1.1194 2.5-2.5 2.5s-2.4999-1.1194-2.5-2.5v-.5h-.6582c.0501 1.9185.3503 3.1546.8164 3.9082.4636.7493 1.1344 1.0917 2.1748 1.0918.4141 0 .7499.3359.75.75-.0001.4141-.3359.75-.75.75-1.459-.0001-2.6639-.5319-3.4502-1.8027-.6753-1.0917-.9926-2.6566-1.042-4.6973h-.5908v7.334c-.0003.4139-.336.75-.75.75-.41402 0-.74969-.3361-.75-.75v-7.334h-.59082c-.04938 2.0407-.36673 3.6056-1.04199 4.6973-.78628 1.2708-1.99122 1.8026-3.4502 1.8027-.41413 0-.74987-.3359-.75-.75.00013-.4141.33587-.75.75-.75 1.04044-.0001 1.71119-.3425 2.17481-1.0918.46614-.7536.76633-1.9897.8164-3.9082h-.6582v.5c-.00013 1.3806-1.11937 2.5-2.5 2.5s-2.49987-1.1194-2.5-2.5v-.667c.00013-.4141.33587-.75.75-.75s.74987.3359.75.75v.667c.00013.5522.4478 1 1 1s.99987-.4478 1-1v-5c0-2.76142 2.23858-5 5-5zm0 1.5c-1.933 0-3.5 1.567-3.5 3.5v3h7v-3c0-1.933-1.567-3.5-3.5-3.5z" fill-rule="evenodd"/></g></svg>