<svg fill="none" height="24" viewBox="0 0 24 24" width="24" xmlns="http://www.w3.org/2000/svg"><g fill="#00a008"><path d="m10 8c.5523 0 1 .44772 1 1s-.4477 1-1 1c-.55228 0-1-.44772-1-1s.44772-1 1-1z"/><path d="m14 8c.5523 0 1 .44772 1 1s-.4477 1-1 1-1-.44772-1-1 .4477-1 1-1z"/><path clip-rule="evenodd" d="m12 2c3.3137 0 6 2.68629 6 6v6c0 .6904.5596 1.25 1.25 1.25s1.25-.5596 1.25-1.25v-1c0-.4142.3358-.75.75-.75s.75.3358.75.75v1c0 1.5188-1.2312 2.75-2.75 2.75s-2.75-1.2312-2.75-2.75v-1h-1.2441c.0573 2.3988.5284 4.0172 1.1855 5.0283.678 1.0431 1.5695 1.4717 2.5586 1.4717.4142 0 .75.3358.75.75s-.3358.75-.75.75c-1.5108 0-2.8694-.6966-3.8164-2.1533-.8678-1.335-1.3705-3.2733-1.4277-5.8467h-1.0059v9c0 .4142-.3358.75-.75.75s-.75-.3358-.75-.75v-9h-1.0059c-.0572 2.5734-.55993 4.5117-1.42769 5.8467-.94699 1.4567-2.30565 2.1533-3.81641 2.1533-.41421 0-.75-.3358-.75-.75s.33579-.75.75-.75c.98914 0 1.88058-.4286 2.55859-1.4717.65714-1.0111 1.12825-2.6295 1.18555-5.0283h-1.24414v1c0 1.5188-1.23122 2.75-2.75 2.75s-2.75-1.2312-2.75-2.75v-1c0-.4142.33579-.75.75-.75s.75.3358.75.75v1c0 .6904.55964 1.25 1.25 1.25s1.25-.5596 1.25-1.25v-6c0-3.31371 2.68629-6 6-6zm0 1.5c-2.48528 0-4.5 2.01472-4.5 4.5v3.5h9v-3.5c0-2.48528-2.0147-4.5-4.5-4.5z" fill-rule="evenodd"/></g></svg>