<svg fill="none" height="16" viewBox="0 0 16 16" width="16" xmlns="http://www.w3.org/2000/svg"><path d="m13.6565 2.34337c-.3124-.31241-.8189-.31241-1.1313 0l-4.5255 4.52545-4.52562-4.52562c-.31242-.31242-.81895-.31242-1.13137 0s-.31242.81895 0 1.13137l4.52562 4.52562-4.52551 4.52551c-.31242.3124-.31242.819 0 1.1314s.81895.3124 1.13137 0l4.52551-4.52553 4.5253 4.52533c.3125.3124.819.3124 1.1314 0s.3124-.8189 0-1.1314l-4.52532-4.52531 4.52542-4.52544c.3124-.31242.3124-.81896 0-1.13138z" fill="#00a008"/></svg>