<svg fill="none" height="20" viewBox="0 0 20 20" width="20" xmlns="http://www.w3.org/2000/svg"><path d="m3.43353 15.4343c-.31242.3124-.31242.8189 0 1.1313.31242.3125.81895.3125 1.13137 0l5.43432-5.4343 5.43428 5.4343c.3125.3125.819.3125 1.1314 0 .3124-.3124.3124-.8189 0-1.1313l-5.4343-5.43435 5.4343-5.43431c.3124-.31242.3124-.81895 0-1.13137s-.8189-.31242-1.1314 0l-5.43428 5.43431-5.43432-5.43431c-.31242-.31242-.81895-.31242-1.13137 0s-.31242.81895 0 1.13137l5.43432 5.43431z" fill="#00a008"/></svg>