<svg fill="none" height="16" viewBox="0 0 16 16" width="16" xmlns="http://www.w3.org/2000/svg"><g fill="#00a008"><path d="m5.75 6c-.41421 0-.75.33579-.75.75v1.5c0 .41421.33579.75.75.75s.75-.33579.75-.75v-1.5c0-.41421-.33579-.75-.75-.75z"/><path d="m9.5 6.75c0-.41421.33579-.75.75-.75.4142 0 .75.33579.75.75v1.5c0 .41421-.3358.75-.75.75-.41421 0-.75-.33579-.75-.75z"/><path clip-rule="evenodd" d="m5.25 1.5c-2.03184 0-3.68626 1.61593-3.7482 3.63274-.29989.17265-.5018.49638-.5018.86726v3c0 .37014.2011.69331.5.86622v.88378c0 2.0711 1.67893 3.75 3.75 3.75h5.5c2.0711 0 3.75-1.6789 3.75-3.75v-.88378c.2989-.17291.5-.49608.5-.86622v-3c0-.37088-.2019-.69461-.5018-.86725-.0619-2.01682-1.7164-3.63275-3.7482-3.63275zm-2.25 3.75c0-1.24264 1.00736-2.25 2.25-2.25h5.5c1.2426 0 2.25 1.00736 2.25 2.25v5.5c0 .9797-.6261 1.8131-1.5 2.122v-.372c0-1.1046-.8954-2-2-2h-3c-1.10457 0-2 .8954-2 2v.372c-.87389-.3089-1.5-1.1423-1.5-2.122zm3 7.75h4v-.5c0-.2761-.22386-.5-.5-.5h-3c-.27614 0-.5.2239-.5.5z" fill-rule="evenodd"/></g></svg>