<svg fill="none" height="20" viewBox="0 0 20 20" width="20" xmlns="http://www.w3.org/2000/svg"><g fill="#00a008"><path d="m7.25 7c-.41421 0-.75.33579-.75.75v2.5c0 .4142.33579.75.75.75s.75-.3358.75-.75v-2.5c0-.41421-.33579-.75-.75-.75z"/><path d="m12 7.75c0-.41421.3358-.75.75-.75s.75.33579.75.75v2.5c0 .4142-.3358.75-.75.75s-.75-.3358-.75-.75z"/><path clip-rule="evenodd" d="m7 2.5c-2.48528 0-4.5 2.01472-4.5 4.5-.55228 0-1 .44772-1 1v3c0 .5523.44772 1 1 1v1c0 2.4853 2.01472 4.5 4.5 4.5h6c2.4853 0 4.5-2.0147 4.5-4.5v-1c.5523 0 1-.4477 1-1v-3c0-.55228-.4477-1-1-1 0-2.48528-2.0147-4.5-4.5-4.5zm-3 4.5c0-1.65685 1.34315-3 3-3h6c1.6569 0 3 1.34315 3 3v6c0 1.3062-.8348 2.4175-2 2.8293v-.3293c0-1.1046-.8954-2-2-2h-4c-1.10457 0-2 .8954-2 2v.3293c-1.16519-.4118-2-1.5231-2-2.8293zm3.5 9h5v-.5c0-.2761-.2239-.5-.5-.5h-4c-.27614 0-.5.2239-.5.5z" fill-rule="evenodd"/></g></svg>