<svg fill="none" height="24" viewBox="0 0 24 24" width="24" xmlns="http://www.w3.org/2000/svg"><g fill="#00a008"><path d="m8.75 9c-.41421 0-.75.33579-.75.75v2.5c0 .4142.33579.75.75.75s.75-.3358.75-.75v-2.5c0-.41421-.33579-.75-.75-.75z"/><path d="m14.5 9.75c0-.41421.3358-.75.75-.75s.75.33579.75.75v2.5c0 .4142-.3358.75-.75.75s-.75-.3358-.75-.75z"/><path clip-rule="evenodd" d="m8.25 2.5c-2.89949 0-5.25 2.3505-5.25 5.25v1.25c-.55228 0-1 .44772-1 1v3c0 .5523.44772 1 1 1v2.25c0 2.8995 2.3505 5.25 5.25 5.25h7.5c2.8995 0 5.25-2.3505 5.25-5.25v-2.25c.5523 0 1-.4477 1-1v-3c0-.55228-.4477-1-1-1v-1.25c0-2.89949-2.3505-5.25-5.25-5.25zm-3.75 5.25c0-2.07107 1.67893-3.75 3.75-3.75h7.5c2.0711 0 3.75 1.67893 3.75 3.75v8.5c0 1.6328-1.0435 3.0218-2.5 3.5366v-.7866c0-1.1046-.8954-2-2-2h-6c-1.10457 0-2 .8954-2 2v.7866c-1.45649-.5148-2.5-1.9038-2.5-3.5366zm4 12.25h7v-1c0-.2761-.2239-.5-.5-.5h-6c-.27614 0-.5.2239-.5.5z" fill-rule="evenodd"/></g></svg>