<svg fill="none" height="16" viewBox="0 0 16 16" width="16" xmlns="http://www.w3.org/2000/svg"><g fill="#00a008"><path d="m7.25 11c-.41421 0-.75.3358-.75.75s.33579.75.75.75h1.5c.41421 0 .75-.3358.75-.75s-.33579-.75-.75-.75z"/><path clip-rule="evenodd" d="m3 3.75c0-1.51878 1.23122-2.75 2.75-2.75h4.5c1.5188 0 2.75 1.23122 2.75 2.75v8.5c0 1.5188-1.2312 2.75-2.75 2.75h-4.5c-1.51878 0-2.75-1.2312-2.75-2.75zm2.75-1.25c-.69036 0-1.25.55964-1.25 1.25v8.5c0 .6904.55964 1.25 1.25 1.25h4.5c.6904 0 1.25-.5596 1.25-1.25v-8.5c0-.69036-.5596-1.25-1.25-1.25h-.25c0 .55228-.44772 1-1 1h-2c-.55228 0-1-.44772-1-1z" fill-rule="evenodd"/></g></svg>