<svg fill="none" height="20" viewBox="0 0 20 20" width="20" xmlns="http://www.w3.org/2000/svg"><g fill="#00a008"><path d="m9.25 13.5c-.41421 0-.75.3358-.75.75s.33579.75.75.75h1.5c.4142 0 .75-.3358.75-.75s-.3358-.75-.75-.75z"/><path clip-rule="evenodd" d="m4 5.25c0-2.07107 1.67893-3.75 3.75-3.75h4.5c2.0711 0 3.75 1.67893 3.75 3.75v9.5c0 2.0711-1.6789 3.75-3.75 3.75h-4.5c-2.07107 0-3.75-1.6789-3.75-3.75zm1.5 0c0-1.21491.9629-2.20492 2.16717-2.2485l.10491.31473c.13611.40834.51825.68377.94868.68377h2.55844c.4305 0 .8126-.27543.9487-.68377l.1049-.31473c1.2043.04358 2.1672 1.03359 2.1672 2.2485v9.5c0 1.2426-1.0074 2.25-2.25 2.25h-4.5c-1.24264 0-2.25-1.0074-2.25-2.25z" fill-rule="evenodd"/></g></svg>