<svg fill="none" height="24" viewBox="0 0 24 24" width="24" xmlns="http://www.w3.org/2000/svg"><g fill="#00a008"><path d="m10 17.75c0-.4142.3358-.75.75-.75h2.5c.4142 0 .75.3358.75.75s-.3358.75-.75.75h-2.5c-.4142 0-.75-.3358-.75-.75z"/><path clip-rule="evenodd" d="m5 6.25c0-2.34721 1.90279-4.25 4.25-4.25h5.5c2.3472 0 4.25 1.90279 4.25 4.25v11.5c0 2.3472-1.9028 4.25-4.25 4.25h-5.5c-2.34721 0-4.25-1.9028-4.25-4.25zm4.12569-2.74724c-1.46109.065-2.62569 1.27012-2.62569 2.74724v11.5c0 1.5188 1.23122 2.75 2.75 2.75h5.5c1.5188 0 2.75-1.2312 2.75-2.75v-11.5c0-1.47712-1.1646-2.68224-2.6257-2.74724l-.1849.73978c-.1113.44516-.5113.75746-.9702.75746h-3.4384c-.45889 0-.85887-.3123-.97017-.75746z" fill-rule="evenodd"/></g></svg>