<svg fill="none" height="16" viewBox="0 0 16 16" width="16" xmlns="http://www.w3.org/2000/svg"><g clip-rule="evenodd" fill="#00a008" fill-rule="evenodd"><path d="m1 5.75c0-2.07107 1.67893-3.75 3.75-3.75h6.5c1.8194 0 3.3362 1.48864 3.6779 3.25452.0787.40667-.2637.74548-.6779.74548s-.7463-.33835-.8199-.74597c-.0222-.12293-.0495-.2346-.0815-.31713l-3.5529 1.93795c-1.11929.61052-2.4721.61052-3.5914 0l-3.55289-1.93795c-.09778.25219-.15141.52638-.15141.8131v4.5c0 1.2426 1.00736 2.25 2.25 2.25h1.5c.41421 0 .75.3358.75.75s-.33579.75-.75.75h-1.5c-2.07107 0-3.75-1.6789-3.75-3.75zm3.75-2.25c-.39443 0-.76515.10149-1.08748.27978l3.26006 1.77822c.67158.36632 1.48326.36632 2.15484 0l3.26008-1.77822c-.3223-.17829-.6931-.27978-1.0875-.27978z"/><path d="m11.6338 14.3353c.3533-.0875.676-.2698.9334-.5271l2.6372-2.6372c.5467-.5468.5467-1.43319 0-1.97993l-.8485-.84852c-.5468-.54674-1.4332-.54674-1.9799 0l-2.63722 2.63715c-.25737.2574-.43963.5801-.52713.9335l-.31894 1.2878c-.21723.877.5762 1.6705 1.45329 1.4532zm1.7321-4.86138-.5698.56988.7071.7071.5698-.5699zm-2.5665 2.56648.9383-.9383.7071.7071-.9383.9383c-.0643.0644-.145.1099-.2333.1318l-.8049.1993.1994-.8048c.0218-.0884.0674-.1691.1317-.2334z"/></g></svg>