<svg fill="none" height="20" viewBox="0 0 20 20" width="20" xmlns="http://www.w3.org/2000/svg"><g clip-rule="evenodd" fill="#00a008" fill-rule="evenodd"><path d="m5.75 3c-2.34721 0-4.25 1.90279-4.25 4.25v5.5c0 2.3472 1.90279 4.25 4.25 4.25h2.5c.41421 0 .75-.3358.75-.75s-.33579-.75-.75-.75h-2.5c-1.51878 0-2.75-1.2312-2.75-2.75v-5.5c0-.43923.10297-.8544.28609-1.2227l4.85339 2.77336c1.15287.65878 2.56812.65878 3.72102 0l4.8534-2.77336c.1831.3683.2861.78347.2861 1.2227 0 .41421.3358.75.75.75s.75-.33579.75-.75c0-2.34721-1.9028-4.25-4.25-4.25zm-1.42143 1.89537c.4148-.25094.90125-.39537 1.42143-.39537h8.5c.5202 0 1.0066.14443 1.4214.39537l-4.5551 2.60292c-.6917.39527-1.54089.39527-2.23261 0z"/><path d="m13.9351 17.9052c.466-.0424.9023-.2468 1.2332-.5776l3.5892-3.5892c.6639-.6639.6639-1.7403 0-2.4042l-1.1314-1.1313c-.6639-.66392-1.7403-.66392-2.4042 0l-3.5892 3.5892c-.3308.3308-.5352.7672-.5775 1.2331l-.1251 1.3754c-.0848.9329.6968 1.7144 1.6297 1.6296zm2.3475-6.6417-.9794.9794 1.4142 1.4142.9794-.9794c.0781-.0781.0781-.2047 0-.2828l-1.1313-1.1314c-.0782-.0781-.2048-.0781-.2829 0zm-3.5892 3.5892 1.5492-1.5491 1.4142 1.4142-1.5492 1.5492c-.0827.0827-.1918.1338-.3083.1443l-1.3753.1251.125-1.3754c.0106-.1165.0617-.2256.1444-.3083z"/></g></svg>