<svg fill="none" height="24" viewBox="0 0 24 24" width="24" xmlns="http://www.w3.org/2000/svg"><g clip-rule="evenodd" fill="#00a008" fill-rule="evenodd"><path d="m6.5 3.5c-2.76142 0-5 2.23858-5 5v7c0 2.7614 2.23858 5 5 5h4.75c.4142 0 .75-.3358.75-.75s-.3358-.75-.75-.75h-4.75c-1.933 0-3.5-1.567-3.5-3.5v-7c0-.52276.11461-1.01875.32006-1.46422l6.85874 3.81042c1.1326.6292 2.5098.6292 3.6424 0l6.8587-3.81042c.2055.44547.3201.94146.3201 1.46422v.75c0 .41421.3358.75.75.75s.75-.33579.75-.75v-.75c0-2.76142-2.2386-5-5-5zm-2.26253 2.32952c.61012-.51743 1.39988-.82952 2.26253-.82952h11c.8626 0 1.6524.31209 2.2625.82952l-6.6698 3.70546c-.6796.37753-1.5058.37753-2.1854 0z"/><path d="m17.4288 21.0152c.3846-.0422.7433-.2143 1.0169-.4878l4.3629-4.363c.703-.703.703-1.8427 0-2.5456l-1.3438-1.3438c-.7029-.7029-1.8426-.7029-2.5455 0l-4.363 4.363c-.2736.2736-.4457.6323-.4878 1.0169l-.1828 1.668c-.1184 1.0808.7942 1.9935 1.8751 1.8751zm.6454-5.7738-2.4572 2.4572c-.0322.0322-.0525.0744-.0574.1197l-.1828 1.668c-.014.1271.0934.2345.2206.2206l1.668-.1828c.0452-.005.0874-.0252.1196-.0574l2.4572-2.4572zm1.0607-1.0606 1.768 1.768.8451-.8451c.1171-.1171.1171-.3071 0-.4242l-1.3438-1.3438c-.1172-.1172-.3071-.1172-.4243 0z"/></g></svg>