<svg fill="none" height="16" viewBox="0 0 16 16" width="16" xmlns="http://www.w3.org/2000/svg"><g fill="#00a008"><path clip-rule="evenodd" d="m5.6748 1.40857c-.2071-.35872-.66579-.481623-1.02451-.27452-.35872.20711-.48163.6658-.27452 1.02452l.52827.91499c-1.15971.91567-1.90404 2.33414-1.90404 3.92646v4.02588c0 1.2042.86039 2.2076 2 2.4287v.7954c0 .4142.33579.75.75.75s.75-.3358.75-.75v-.75h3v.75c0 .4142.33579.75.75.75.4142 0 .75-.3358.75-.75v-.7954c1.1396-.2211 2-1.2245 2-2.4287v-4.02588c0-1.59232-.7443-3.01079-1.904-3.92646l.5282-.91499c.2071-.35872.0842-.81741-.2745-1.02452-.3587-.207103-.8174-.0842-1.0245.27452l-.53256.92241c-.55648-.21379-1.16088-.33096-1.79264-.33096s-1.23616.11717-1.79264.33096zm4.8511 10.59143c.538 0 .9741-.4361.9741-.9741v-2.52588h-7v2.52588c0 .538.43614.9741.97414.9741zm-6.0259-4.99998c0-1.933 1.567-3.5 3.5-3.5s3.5 1.567 3.5 3.5z" fill-rule="evenodd"/><path d="m1 7.75002c0-.41421.33579-.75.75-.75s.75.33579.75.75v2.49998c0 .4142-.33579.75-.75.75s-.75-.3358-.75-.75z"/><path d="m14.25 7.00002c-.4142 0-.75.33579-.75.75v2.49998c0 .4142.3358.75.75.75s.75-.3358.75-.75v-2.49998c0-.41421-.3358-.75-.75-.75z"/></g></svg>