<svg fill="none" height="20" viewBox="0 0 20 20" width="20" xmlns="http://www.w3.org/2000/svg"><g fill="#00a008"><path clip-rule="evenodd" d="m6.6748 1.40857c-.2071-.35872-.66579-.481623-1.02451-.27452-.35872.20711-.48163.6658-.27452 1.02452l.54404.94232c-1.18086 1.09575-1.91981 2.66114-1.91981 4.39913v5.54998c0 1.7529 1.30724 3.2004 3 3.4209v1.7791c0 .4142.33579.75.75.75s.75-.3358.75-.75v-1.75h3v1.75c0 .4142.3358.75.75.75s.75-.3358.75-.75v-1.7791c1.6928-.2205 3-1.668 3-3.4209v-5.54998c0-1.73799-.739-3.30338-1.9198-4.39913l.544-.94232c.2071-.35872.0842-.81741-.2745-1.02452-.3587-.207103-.8174-.0842-1.0245.27452l-.4696.81328c-.8491-.46038-1.8218-.72183-2.8556-.72183-1.03379 0-2.00651.26145-2.85565.72183zm5.8752 13.59143c1.077 0 1.95-.873 1.95-1.95v-4.54998h-9v4.54998c0 1.077.87304 1.95 1.95 1.95zm-7.02254-7.99998c.24873-2.24997 2.15626-4 4.47254-4 2.3163 0 4.2238 1.75003 4.4725 4z" fill-rule="evenodd"/><path d="m1.5 7.75002c0-.41421.33579-.75.75-.75s.75.33579.75.75v3.49998c0 .4142-.33579.75-.75.75s-.75-.3358-.75-.75z"/><path d="m17.75 7.00002c-.4142 0-.75.33579-.75.75v3.49998c0 .4142.3358.75.75.75s.75-.3358.75-.75v-3.49998c0-.41421-.3358-.75-.75-.75z"/></g></svg>