<svg fill="none" height="24" viewBox="0 0 24 24" width="24" xmlns="http://www.w3.org/2000/svg"><g fill="#00a008"><path clip-rule="evenodd" d="m15.3252 1.40857c.2071-.35872.6658-.481623 1.0245-.27452.3587.20711.4816.6658.2745 1.02452l-.8385 1.45243c1.9337 1.24566 3.2143 3.41779 3.2143 5.88902v6.24998c0 1.8142-1.2883 3.3276-3 3.675v1.825c0 .4142-.3358.75-.75.75s-.75-.3358-.75-.75v-1.75h-5v1.75c0 .4142-.33579.75-.75.75s-.75-.3358-.75-.75v-1.825c-1.71168-.3474-3-1.8608-3-3.675v-6.24998c0-2.47092 1.28025-4.64283 3.21361-5.88856l-.83882-1.45289c-.20711-.35872-.0842-.81741.27452-1.02452.35872-.207103.81741-.0842 1.02452.27452l.8831 1.52959c.76057-.2833 1.58377-.43814 2.44307-.43814.859 0 1.6819.15473 2.4423.43784zm2.1748 14.34143c0 1.2427-1.0074 2.25-2.25 2.25h-6.5c-1.24264 0-2.25-1.0073-2.25-2.25v-5.25h11zm-.0224-6.74998c-.2526-2.80325-2.6086-5-5.4776-5-2.86902 0-5.22496 2.19675-5.47758 5z" fill-rule="evenodd"/><path d="m3.25 9.00002c-.41421 0-.75.33579-.75.75v4.49998c0 .4142.33579.75.75.75s.75-.3358.75-.75v-4.49998c0-.41421-.33579-.75-.75-.75z"/><path d="m20 9.75002c0-.41421.3358-.75.75-.75s.75.33579.75.75v4.49998c0 .4142-.3358.75-.75.75s-.75-.3358-.75-.75z"/></g></svg>