<svg fill="none" height="16" viewBox="0 0 16 16" width="16" xmlns="http://www.w3.org/2000/svg"><g fill="#00a008"><path d="m7.25 1.5c.41421 0 .75.33579.75.75s-.33579.75-.75.75h-2c-1.24264 0-2.25 1.00736-2.25 2.25v5.5c0 1.2426 1.00736 2.25 2.25 2.25h5.5c1.2426 0 2.25-1.0074 2.25-2.25v-2c0-.41421.3358-.75.75-.75s.75.33579.75.75v2c0 2.0711-1.6789 3.75-3.75 3.75h-5.5c-2.07107 0-3.75-1.6789-3.75-3.75v-5.5c0-2.07107 1.67893-3.75 3.75-3.75z"/><path clip-rule="evenodd" d="m8 3.75c.41421 0 .75.33579.75.75h.44141c.99879.00012 1.80849.80979 1.80859 1.80859v.29102c0 .41421-.3358.75-.75.75-.41421 0-.75-.33579-.75-.75v-.29102c-.00012-.17037-.13822-.30847-.30859-.30859h-.44141v1.41895l.89355.23144c.79845.2063 1.35645.92629 1.35645 1.75098v.29004c-.0001.99879-.8098 1.80849-1.80859 1.80859h-.44141c0 .4142-.33579.75-.75.75s-.75-.3358-.75-.75h-.44141c-.9988-.0001-1.80847-.8098-1.80859-1.80859v-.0918c.00021-.41403.33592-.75.75-.75s.74979.33597.75.75v.0918c.00012.17037.13822.30847.30859.30859h.44141v-1.41992l-.89355-.23047c-.79849-.20631-1.35645-.92627-1.35645-1.75098v-.29004c.00012-.9988.80979-1.80847 1.80859-1.80859h.44141c0-.41421.33579-.75.75-.75zm.75 6.25h.44141c.17037-.00012.30847-.13822.30859-.30859v-.29004c-.00003-.14073-.09522-.26356-.23145-.29883l-.51855-.13477zm-1.94141-4c-.17037.00012-.30847.13822-.30859.30859v.29004c0 .14074.09522.26354.23145.29883l.51855.13379v-1.03125z" fill-rule="evenodd"/><path d="m12.7803 1c.4142 0 .75.33579.75.75v1.18945c.2929-.29288.7676-.29287 1.0605 0 .2929.2929.2929.76766 0 1.06055l-1.2803 1.28027c-.1406.14064-.3313.21973-.5302.21973-.1989-.00001-.3897-.07909-.5303-.21973l-1.2803-1.21972c-.2928-.2929-.2929-.76767 0-1.06055.2929-.29285.7677-.29285 1.0606 0v-1.25c0-.4142.3358-.74997.75-.75z"/></g></svg>