<svg fill="none" height="20" viewBox="0 0 20 20" width="20" xmlns="http://www.w3.org/2000/svg"><g fill="#00a008"><path d="m10.25 2c.4142 0 .75.33579.75.75s-.3358.75-.75.75h-3.75c-1.65685 0-3 1.34315-3 3v7c0 1.6569 1.34315 3 3 3h7c1.6569 0 3-1.3431 3-3v-3.75c0-.41421.3358-.75.75-.75s.75.33579.75.75v3.75c0 2.4853-2.0147 4.5-4.5 4.5h-7c-2.48528 0-4.5-2.0147-4.5-4.5v-7c0-2.48528 2.01472-4.5 4.5-4.5z"/><path clip-rule="evenodd" d="m10 4.5c.4142 0 .75.33579.75.75v.25h.5c1.2426 0 2.25 1.00736 2.25 2.25v.25c0 .41421-.3358.75-.75.75s-.75-.33579-.75-.75v-.25c0-.41421-.3358-.75-.75-.75h-.5v2.44141l1.1455.34375c.9522.28524 1.6045 1.16134 1.6045 2.15524v.3096c0 1.2426-1.0074 2.25-2.25 2.25h-.5v.25c0 .4142-.3358.75-.75.75-.41421 0-.75-.3358-.75-.75v-.25h-.5c-1.24264 0-2.25-1.0074-2.25-2.25v-.4854c0-.4142.33579-.75.75-.75s.75.3358.75.75v.4854c0 .4142.33579.75.75.75h.5v-2.4424l-1.14551-.3428c-.95216-.28517-1.60449-1.16126-1.60449-2.15523v-.30957c0-1.24264 1.00736-2.25 2.25-2.25h.5v-.25c0-.41421.33579-.75.75-.75zm.75 8.5h.5c.4142 0 .75-.3358.75-.75v-.3096c0-.3313-.2177-.6237-.5352-.7187l-.7148-.2149zm-2-6c-.41421 0-.75.33579-.75.75v.30957c0 .33134.21774.6237.53516.71875l.71484.21387v-1.99219z" fill-rule="evenodd"/><path d="m15.7803 1c.4142 0 .75.33579.75.75v2.18945l.5-.43945c.2928-.29286.7676-.29281 1.0605 0 .2929.29289.2929.76765 0 1.06055l-1.7803 1.71972c-.1406.14064-.3313.21973-.5302.21973-.1989-.00002-.3897-.07909-.5303-.21973l-1.7803-1.71972c-.2928-.2929-.2929-.76767 0-1.06055.2929-.29285.7677-.29285 1.0606 0l.5.43945v-2.18945c0-.41419.3358-.74997.75-.75z"/></g></svg>