<svg fill="none" height="24" viewBox="0 0 24 24" width="24" xmlns="http://www.w3.org/2000/svg"><g fill="#00a008"><path d="m12.25 2.5c.4142 0 .75.33579.75.75s-.3358.75-.75.75h-4.5c-2.07107 0-3.75 1.67893-3.75 3.75v8.5c0 2.0711 1.67893 3.75 3.75 3.75h8.5c2.0711 0 3.75-1.6789 3.75-3.75v-4.5c0-.4142.3358-.75.75-.75s.75.3358.75.75v4.5c0 2.8995-2.3505 5.25-5.25 5.25h-8.5c-2.89949 0-5.25-2.3505-5.25-5.25v-8.5c0-2.89949 2.35051-5.25 5.25-5.25z"/><path clip-rule="evenodd" d="m12 6c.4142 0 .75.33579.75.75v.25h.5c1.2426 0 2.25 1.00736 2.25 2.25v.9873c0 .4142-.3358.75-.75.75s-.75-.3358-.75-.75v-.9873c0-.41421-.3358-.75-.75-.75h-.5v2.9746l1.2686.4619c.8891.3234 1.4814 1.1681 1.4814 2.1143v.6992c0 1.2426-1.0074 2.25-2.25 2.25h-.5v.25c0 .4142-.3358.75-.75.75s-.75-.3358-.75-.75v-.25h-.5c-1.24264 0-2.25-1.0074-2.25-2.25v-1.002c0-.4142.33579-.75.75-.75s.75.3358.75.75v1.002c0 .4142.3358.75.75.75h.5v-2.9756l-1.26855-.4609c-.88918-.3234-1.48145-1.1681-1.48145-2.11428v-.69922c0-1.24264 1.00736-2.25 2.25-2.25h.5v-.25c0-.41421.3358-.75.75-.75zm.75 9.5h.5c.4142 0 .75-.3358.75-.75v-.6992c0-.3154-.1977-.5973-.4941-.7051l-.7559-.2754zm-2-7c-.4142 0-.75.33579-.75.75v.69922c0 .31538.1977.59728.4941.70508l.7559.2744v-2.4287z" fill-rule="evenodd"/><path d="m18.7803 2c.4142 0 .75.33579.75.75v3.18945l.5-.43945c.2928-.29286.7676-.29281 1.0605 0 .2929.29289.2929.76765 0 1.06055l-1.7803 1.71972c-.1406.14064-.3313.21973-.5302.21973-.1989-.00002-.3897-.07909-.5303-.21973l-1.7803-1.71972c-.2928-.2929-.2929-.76767 0-1.06055.2929-.29285.7677-.29285 1.0606 0l.5.43945v-3.18945c0-.41419.3358-.74997.75-.75z"/></g></svg>