<svg fill="none" height="16" viewBox="0 0 16 16" width="16" xmlns="http://www.w3.org/2000/svg"><g fill="#00a008"><path d="m4.75 3c-.41421 0-.75.33579-.75.75s.33579.75.75.75h6.5c.4142 0 .75-.33579.75-.75s-.3358-.75-.75-.75z"/><path d="m4.75 9c-.41421 0-.75.33579-.75.75 0 .4142.33579.75.75.75h6.5c.4142 0 .75-.3358.75-.75 0-.41421-.3358-.75-.75-.75z"/><path d="m2 6.75c0-.41421.33579-.75.75-.75h10.5c.4142 0 .75.33579.75.75s-.3358.75-.75.75h-10.5c-.41421 0-.75-.33579-.75-.75z"/><path d="m2.75 12c-.41421 0-.75.3358-.75.75s.33579.75.75.75h10.5c.4142 0 .75-.3358.75-.75s-.3358-.75-.75-.75z"/></g></svg>