<svg fill="none" height="24" viewBox="0 0 24 24" width="24" xmlns="http://www.w3.org/2000/svg"><g fill="#00a008"><path d="m6.75 4c-.41421 0-.75.33579-.75.75s.33579.75.75.75h10.5c.4142 0 .75-.33579.75-.75s-.3358-.75-.75-.75z"/><path d="m6.75 14c-.41421 0-.75.3358-.75.75s.33579.75.75.75h10.5c.4142 0 .75-.3358.75-.75s-.3358-.75-.75-.75z"/><path d="m3 9.75c0-.41421.33579-.75.75-.75h16.5c.4142 0 .75.33579.75.75 0 .4142-.3358.75-.75.75h-16.5c-.41421 0-.75-.3358-.75-.75z"/><path d="m3.75 19c-.41421 0-.75.3358-.75.75s.33579.75.75.75h16.5c.4142 0 .75-.3358.75-.75s-.3358-.75-.75-.75z"/></g></svg>