<svg fill="none" height="16" viewBox="0 0 16 16" width="16" xmlns="http://www.w3.org/2000/svg"><g clip-rule="evenodd" fill="#00a008" fill-rule="evenodd"><path d="m9.5 5.50005c0 .55229.44771 1 1 1h3.8467c.6086 0 1.0807-.54289.8975-1.12327-.693-2.1949-2.426-3.92795-4.6209-4.620978-.5804-.183252-1.1233.288848-1.1233.897468zm1.5-2.97648c1.0666.53848 1.938 1.40984 2.4764 2.47648h-2.4764z"/><path d="m8 2.00005c0-.55228-.45028-1.007498-.99703-.92953-3.39374.48395-6.00297 3.40203-6.00297 6.92953 0 3.86595 3.13401 7.00005 7 7.00005 3.5275 0 6.4456-2.6093 6.9295-6.00301.078-.54676-.3772-.99704-.9295-.99704h-5.8c-.11046 0-.2-.08954-.2-.2zm-5.5 6c0-2.51694 1.69184-4.64086 4-5.29334v5.09334c0 .93889.76112 1.7 1.7 1.7h5.0933c-.6524 2.30815-2.7764 4.00005-5.2933 4.00005-3.03757 0-5.5-2.4625-5.5-5.50005z"/></g></svg>