<svg fill="none" height="20" viewBox="0 0 20 20" width="20" xmlns="http://www.w3.org/2000/svg"><g clip-rule="evenodd" fill="#00a008" fill-rule="evenodd"><path d="m18.3178 8.00004c.5984 0 1.0674-.52473.9196-1.10463-.765-3.00341-3.1294-5.36781-6.1328-6.132863-.5799-.147715-1.1046.321253-1.1046.919673v5.31782c0 .55228.4477 1 1 1zm-4.8178-1.5v-4.04084c1.8543.70935 3.3315 2.18651 4.0408 4.04084z"/><path d="m10.5 2.01481c0-.28086-.2191-.51474-.5-.51474-4.69442 0-8.5 3.80558-8.5 8.50003 0 4.6944 3.80558 8.5 8.5 8.5 4.6944 0 8.5-3.8056 8.5-8.5 0-.28089-.2339-.50003-.5147-.50003h-7.2853c-.1105 0-.2-.08954-.2-.2zm-7.5 7.98529c0-3.5265 2.60771-6.44391 6-6.92914v6.22911c0 .93893.76112 1.70003 1.7 1.70003h6.2291c-.4852 3.3923-3.4026 6-6.9291 6-3.86599 0-7-3.134-7-7z"/></g></svg>