<svg fill="none" height="24" viewBox="0 0 24 24" width="24" xmlns="http://www.w3.org/2000/svg"><g clip-rule="evenodd" fill="#00a008" fill-rule="evenodd"><path d="m10.5 3.63164c-3.97862.7076-7 4.18642-7 8.36836 0 4.6944 3.80558 8.5 8.5 8.5 4.1819 0 7.6607-3.0214 8.3683-7h-8.1683c-.9389 0-1.7-.7612-1.7-1.7zm10.0019 9.86846s.0005.0001 0 0zm-9.9967-11.38917c.8193-.12279 1.4948.56061 1.4948 1.38903v8.30004c0 .1104.0895.2.2.2h8.3c.8284 0 1.5118.6755 1.389 1.4947-.7215 4.8139-4.8742 8.5053-9.889 8.5053-5.52285 0-10-4.4772-10-10 0-5.01489 3.69141-9.16756 8.5052-9.88907z"/><path d="m20.6266 9.00057c-.8242-2.68282-2.9438-4.80251-5.6266-5.62676v5.62676zm-5.6266 1.50003c-.8284 0-1.5-.6716-1.5-1.50003v-5.79427c0-.88702.7715-1.58943 1.6275-1.35693 3.4109.92645 6.0972 3.61283 7.0236 7.02376.2325.85601-.4699 1.62747-1.3569 1.62747z"/></g></svg>