<svg fill="none" height="24" viewBox="0 0 24 24" width="24" xmlns="http://www.w3.org/2000/svg"><g fill="#00a008"><path d="m4.25095 3.49902c-1.51931 0-2.75095 1.23165-2.75095 2.75096v4.99992c0 .4143.33579.75.75.75s.75-.3357.75-.75v-4.99992c0-.69089.56007-1.25096 1.25095-1.25096h5.63059c.40136 0 .76816.22678.94756.58576.4335.8673 1.3198 1.4152 2.2894 1.4152h5.6315c1.2426 0 2.25 1.00736 2.25 2.25v.74997h-13.25c-.41421 0-.75.33575-.75.74995 0 .4143.33579.75.75.75h13.25v5.2469c0 1.2426-1.0074 2.25-2.25 2.25h-9c-.41421 0-.75.3358-.75.75s.33579.75.75.75h9c2.0711 0 3.75-1.6789 3.75-3.75v-7.49682c0-2.07107-1.6789-3.75-3.75-3.75h-5.6315c-.4014 0-.7682-.22678-.9476-.58576-.4335-.8673-1.3198-1.4152-2.28936-1.4152z"/><path d="m3.74974 13.7499c0-.4142.33579-.75.75-.75.41422 0 .75.3358.75.75v2h2.00026c.41421 0 .75.3358.75.75 0 .4143-.33579.75-.75.75h-2.00026l.00026 2c0 .4143-.33579.75-.75.75s-.75-.3357-.75-.75l-.00026-2h-1.99974c-.41421 0-.75-.3357-.75-.75 0-.4142.33579-.75.75-.75h1.99974z"/></g></svg>