<svg fill="none" height="16" viewBox="0 0 16 16" width="16" xmlns="http://www.w3.org/2000/svg" xmlns:xlink="http://www.w3.org/1999/xlink"><clipPath id="a"><path d="m0 0h16v16h-16z"/></clipPath><g clip-path="url(#a)"><path clip-rule="evenodd" d="m4 3.25c0-1.51878 1.23122-2.75 2.75-2.75h2.5c1.5188 0 2.75 1.23122 2.75 2.75v.25h3c.4142 0 .75.33579.75.75s-.3358.75-.75.75h-1v6.75c0 2.0711-1.6789 3.75-3.75 3.75h-4.5c-2.07107 0-3.75-1.6789-3.75-3.75v-6.75h-1c-.414214 0-.75-.33579-.75-.75s.335786-.75.75-.75h3zm6.5 0v.25h-5v-.25c0-.69036.55964-1.25 1.25-1.25h2.5c.69036 0 1.25.55964 1.25 1.25zm-4.25 3.75c.41421 0 .75.33579.75.75v3.5c0 .4142-.33579.75-.75.75s-.75-.3358-.75-.75v-3.5c0-.41421.33579-.75.75-.75zm4.25.75c0-.41421-.3358-.75-.75-.75-.41421 0-.75.33579-.75.75v3.5c0 .4142.33579.75.75.75.4142 0 .75-.3358.75-.75z" fill="#00a008" fill-rule="evenodd"/></g></svg>