<svg fill="none" height="20" viewBox="0 0 20 20" width="20" xmlns="http://www.w3.org/2000/svg"><path clip-rule="evenodd" d="m5 3.75c0-1.51878 1.23122-2.75 2.75-2.75h4.5c1.5188 0 2.75 1.23122 2.75 2.75v.25h3c.4142 0 .75.33579.75.75s-.3358.75-.75.75h-1v9.25c0 2.3472-1.9028 4.25-4.25 4.25h-5.5c-2.34721 0-4.25-1.9028-4.25-4.25v-9.25h-1c-.41421 0-.75-.33579-.75-.75s.33579-.75.75-.75h3zm8.5 0v.25h-7v-.25c0-.69036.55964-1.25 1.25-1.25h4.5c.6904 0 1.25.55964 1.25 1.25zm-5 5c0-.41421-.33579-.75-.75-.75s-.75.33579-.75.75v5.5c0 .4142.33579.75.75.75s.75-.3358.75-.75zm3.75-.75c.4142 0 .75.33579.75.75v5.5c0 .4142-.3358.75-.75.75s-.75-.3358-.75-.75v-5.5c0-.41421.3358-.75.75-.75z" fill="#00a008" fill-rule="evenodd"/></svg>