<svg fill="none" height="24" viewBox="0 0 24 24" width="24" xmlns="http://www.w3.org/2000/svg"><path clip-rule="evenodd" d="m6 4.25c0-1.51878 1.23122-2.75 2.75-2.75h6.5c1.5188 0 2.75 1.23122 2.75 2.75v.75h4.25c.4142 0 .75.33579.75.75s-.3358.75-.75.75h-2.25v10.75c0 2.6234-2.1266 4.75-4.75 4.75h-6.5c-2.62335 0-4.75-2.1266-4.75-4.75v-10.75h-2.25c-.41421 0-.75-.33579-.75-.75s.33579-.75.75-.75h4.25zm10.5 0v.75h-9v-.75c0-.69036.55964-1.25 1.25-1.25h6.5c.6904 0 1.25.55964 1.25 1.25zm-7.75 4.75c.41421 0 .75.33579.75.75v6.5c0 .4142-.33579.75-.75.75s-.75-.3358-.75-.75v-6.5c0-.41421.33579-.75.75-.75zm7.25.75c0-.41421-.3358-.75-.75-.75s-.75.33579-.75.75v6.5c0 .4142.3358.75.75.75s.75-.3358.75-.75zm-4-.75c.4142 0 .75.33579.75.75v6.5c0 .4142-.3358.75-.75.75s-.75-.3358-.75-.75v-6.5c0-.41421.3358-.75.75-.75z" fill="#00a008" fill-rule="evenodd"/></svg>