<svg fill="none" height="16" viewBox="0 0 16 16" width="16" xmlns="http://www.w3.org/2000/svg"><g fill="#00a008"><path d="m8.5 10c.41421 0 .75.3358.75.75s-.33579.75-.75.75h-1c-.41421 0-.75-.3358-.75-.75s.33579-.75.75-.75z"/><path d="m9.5 6.35449c.31066 0 .5625.25184.5625.5625-.0003 1.13886-.92358 2.0625-2.0625 2.0625s-2.06224-.92364-2.0625-2.0625c0-.31066.25184-.5625.5625-.5625s.5625.25184.5625.5625c.00026.51754.4199.9375.9375.9375s.93724-.41996.9375-.9375c0-.31066.25184-.5625.5625-.5625z"/><path clip-rule="evenodd" d="m8 .499023c3.3136.000174 6 2.688347 6 6.001957-.0004 2.22008-1.2073 4.15692-3 5.19432v.8047c-.0003 1.6565-1.34346 2.9998-3 3-1.65654-.0002-2.99974-1.3435-3-3v-.8047c-1.79242-1.0375-2.99965-2.97443-3-5.19432 0-3.31361 2.68644-6.001783 6-6.001957zm0 1.500977c-2.48492.00017-4.5 2.01559-4.5 4.50098.00035 1.66176.90193 3.11556 2.25098 3.89652.46303.2682.74902.7627.74902 1.2978v.8047c.00026.8279.67168 1.4998 1.5 1.5.82812-.0002 1.49974-.6719 1.5-1.5v-.8047c0-.5353.28565-1.0297.749-1.2978 1.265-.73209 2.1361-2.05575 2.2403-3.58793l.0107-.30859c0-2.4855-2.0152-4.50081-4.5-4.50098z" fill-rule="evenodd"/></g></svg>