<svg fill="none" height="20" viewBox="0 0 20 20" width="20" xmlns="http://www.w3.org/2000/svg"><g fill="#00a008"><path d="m10.834 13.417c.4139.0003.75.336.75.75-.0001.4139-.3362.7496-.75.75h-1.66701c-.41413 0-.74987-.3359-.75-.75 0-.4142.33579-.75.75-.75z"/><path d="m12.5 7.58301c.4141 0 .7499.3359.75.75 0 1.5367-1.0668 2.82339-2.5 3.16209v1.0049c-.0002.4141-.3359.75-.75.75s-.74982-.3359-.75-.75v-1.0049c-1.43322-.3387-2.5-1.62539-2.5-3.16209.00013-.4141.33587-.75.75-.75s.74987.3359.75.75c0 .9665.7835 1.74999 1.75 1.74999s1.75-.78349 1.75-1.74999c.0001-.4141.3359-.75.75-.75z"/><path clip-rule="evenodd" d="m10 1.66699c3.6817.00018 6.666 2.9852 6.666 6.66699-.0002 2.46682-1.3412 4.61872-3.333 5.77152v.8945c-.0001 1.8407-1.4923 3.3338-3.333 3.334-1.84072-.0002-3.33385-1.4933-3.33398-3.334v-.8945c-1.9916-1.1529-3.33281-3.3048-3.33301-5.77152 0-3.68179 2.98524-6.66681 6.66699-6.66699zm0 1.5c-2.85332.00018-5.16699 2.31363-5.16699 5.16699.0002 1.90862 1.03581 3.57732 2.58398 4.47362.4633.2682.74903.7626.74903 1.2979v.8945c.00013 1.0123.82169 1.8338 1.83398 1.834 1.0119-.0002 1.8329-.8213 1.833-1.834v-.8945c0-.5352.2859-1.0297.749-1.2979 1.4517-.8402 2.4528-2.3596 2.5723-4.11912l.0117-.3545c0-2.76445-2.1707-5.02172-4.9004-5.16015z" fill-rule="evenodd"/></g></svg>