<svg fill="none" height="24" viewBox="0 0 24 24" width="24" xmlns="http://www.w3.org/2000/svg"><g fill="#00a008"><path d="m13 16.25c.4142 0 .75.3358.75.75s-.3358.75-.75.75h-2c-.4142 0-.75-.3358-.75-.75s.3358-.75.75-.75z"/><path d="m15 9.25c.4142 0 .75.33579.75.75 0 1.8142-1.2883 3.3273-3 3.6748v1.3252c0 .4142-.3358.75-.75.75s-.75-.3358-.75-.75v-1.3252c-1.71166-.3475-3-1.8606-3-3.6748 0-.41421.33579-.75.75-.75s.75.33579.75.75c0 1.2426 1.0074 2.25 2.25 2.25s2.25-1.0074 2.25-2.25c0-.41421.3358-.75.75-.75z"/><path clip-rule="evenodd" d="m12 2c4.4183 0 8 3.58172 8 8 0 2.9606-1.6095 5.5433-4 6.9268v1.0732c0 2.2091-1.7909 4-4 4-2.20914 0-4-1.7909-4-4v-1.0732c-2.39049-1.3835-4-3.9662-4-6.9268 0-4.41828 3.58172-8 8-8zm0 1.5c-3.58985 0-6.5 2.91015-6.5 6.5 0 2.4026 1.30401 4.5021 3.25098 5.6289.46335.2682.74902.7625.74902 1.2979v1.0732c0 1.3807 1.1193 2.5 2.5 2.5s2.5-1.1193 2.5-2.5v-1.0732c0-.5354.2857-1.0297.749-1.2979 1.947-1.1268 3.251-3.2263 3.251-5.6289 0-3.58985-2.9101-6.5-6.5-6.5z" fill-rule="evenodd"/></g></svg>