<svg fill="none" height="16" viewBox="0 0 16 16" width="16" xmlns="http://www.w3.org/2000/svg"><path clip-rule="evenodd" d="m2 3.75c0-1.51878 1.23122-2.75 2.75-2.75h6.5c1.5188 0 2.75 1.23122 2.75 2.75v10.5c0 .2929-.1705.559-.4366.6814s-.5791.0787-.8015-.112l-1.2619-1.0816-1.2619 1.0816c-.28087.2408-.69533.2408-.97619 0l-1.26191-1.0816-1.26191 1.0816c-.28086.2408-.69532.2408-.97618 0l-1.26191-1.0816-1.26191 1.0816c-.22238.1907-.53538.2344-.80148.112s-.43661-.3885-.43661-.6814zm2.75-1.25c-.69036 0-1.25.55964-1.25 1.25v8.8693l.51191-.4387c.28086-.2408.69532-.2408.97618 0l1.26191 1.0816 1.26191-1.0816c.28086-.2408.69532-.2408.97618 0l1.26191 1.0816 1.2619-1.0816c.2809-.2408.6953-.2408.9762 0l.5119.4387v-8.8693c0-.69036-.5596-1.25-1.25-1.25zm.5 3.25c0-.41421.33579-.75.75-.75h4c.4142 0 .75.33579.75.75s-.3358.75-.75.75h-4c-.41421 0-.75-.33579-.75-.75zm.75 2.25c-.41421 0-.75.33579-.75.75s.33579.75.75.75h2c.41421 0 .75-.33579.75-.75s-.33579-.75-.75-.75z" fill="#00a008" fill-rule="evenodd"/></svg>