<svg fill="none" height="20" viewBox="0 0 20 20" width="20" xmlns="http://www.w3.org/2000/svg"><path clip-rule="evenodd" d="m3 5.25c0-1.79492 1.45507-3.25 3.25-3.25h7.5c1.7949 0 3.25 1.45507 3.25 3.25v12.5c0 .2953-.1733.5632-.4428.6842-.2694.121-.5847.0726-.8055-.1236l-1.7214-1.5302-1.5 1.4999c-.2929.2929-.7677.2929-1.0606 0l-1.4697-1.4696-1.46967 1.4696c-.29289.2929-.76777.2929-1.06066 0l-1.49995-1.4999-1.72145 1.5302c-.22074.1962-.53609.2446-.80551.1236-.26943-.121-.44276-.3889-.44276-.6842zm3.25-1.75c-.9665 0-1.75.7835-1.75 1.75v10.8299l1.00173-.8905c.2968-.2638.7478-.2505 1.0286.0303l1.46967 1.4696 1.46967-1.4696c.29289-.2929.76773-.2929 1.06063 0l1.4697 1.4696 1.4697-1.4696c.2808-.2808.7318-.2941 1.0286-.0303l1.0017.8905v-10.8299c0-.9665-.7835-1.75-1.75-1.75zm0 3.25c0-.41421.33579-.75.75-.75h6c.4142 0 .75.33579.75.75s-.3358.75-.75.75h-6c-.41421 0-.75-.33579-.75-.75zm.75 3.25c-.41421 0-.75.3358-.75.75s.33579.75.75.75h4c.4142 0 .75-.3358.75-.75s-.3358-.75-.75-.75z" fill="#00a008" fill-rule="evenodd"/></svg>