<svg fill="none" height="24" viewBox="0 0 24 24" width="24" xmlns="http://www.w3.org/2000/svg"><path clip-rule="evenodd" d="m7.25 2c-2.07107 0-3.75 1.67893-3.75 3.75v16c0 .2821.15829.5403.40967.6683.25137.128.55332.1042.78146-.0617l2.2872-1.6635 2.05315 1.6426c.27391.2191.66313.2191.93704 0l2.03148-1.6252 2.0315 1.6252c.2739.2191.6631.2191.937 0l2.0532-1.6426 2.2872 1.6635c.2281.1659.5301.1897.7814.0617.2514-.128.4097-.3862.4097-.6683v-16c0-2.07107-1.6789-3.75-3.75-3.75zm-2.25 3.75c0-1.24264 1.00736-2.25 2.25-2.25h9.5c1.2426 0 2.25 1.00736 2.25 2.25v14.5272l-1.5589-1.1338c-.2733-.1987-.6457-.1902-.9096.0209l-2.0315 1.6252-2.0315-1.6252c-.2739-.2191-.6631-.2191-.937 0l-2.0315 1.6252-2.03148-1.6252c-.26388-.2111-.63635-.2196-.90965-.0209l-1.55887 1.1338zm3 .25c-.41421 0-.75.33579-.75.75s.33579.75.75.75h8c.4142 0 .75-.33579.75-.75s-.3358-.75-.75-.75zm0 4c-.41421 0-.75.3358-.75.75s.33579.75.75.75h8c.4142 0 .75-.3358.75-.75s-.3358-.75-.75-.75zm-.75 4.75c0-.4142.33579-.75.75-.75h5c.4142 0 .75.3358.75.75s-.3358.75-.75.75h-5c-.41421 0-.75-.3358-.75-.75z" fill="#00a008" fill-rule="evenodd"/></svg>