<svg fill="none" height="16" viewBox="0 0 16 16" width="16" xmlns="http://www.w3.org/2000/svg"><g fill="#00a008"><path clip-rule="evenodd" d="m8 7.5c1.65685 0 3-1.34315 3-3s-1.34315-3-3-3-3 1.34315-3 3 1.34315 3 3 3zm0-1.5c.82843 0 1.5-.67157 1.5-1.5s-.67157-1.5-1.5-1.5-1.5.67157-1.5 1.5.67157 1.5 1.5 1.5z" fill-rule="evenodd"/><path d="m8.85117 15.4583c.52366-.0517.67747-.7294.37474-1.1598-.1499-.2131-.40049-.341-.66025-.3206-.18378.0145-.37253.0221-.56566.0221-1.27757 0-2.3638-.3325-3.08377-.7906-.73777-.4695-.91623-.9336-.91623-1.2094s.17846-.7399.91623-1.2094c.71997-.4581 1.8062-.7906 3.08377-.7906.19313 0 .38188.0076.56566.0221.25976.0204.51035-.10745.66025-.32059.30273-.43042.14892-1.10808-.37474-1.15985-.27741-.02743-.56168-.04166-.85117-.04166-3.03757 0-5.5 1.567-5.5 3.5s2.46243 3.5 5.5 3.5c.28949 0 .57376-.0142.85117-.0417z"/><path d="m11.8939 9c.4142 0 .75.33579.75.75v1.25h1.25c.4142 0 .75.3358.75.75s-.3358.75-.75.75h-1.25v1.25c0 .4142-.3358.75-.75.75s-.75-.3358-.75-.75v-1.25h-1.25163c-.41422 0-.74969-.3358-.74969-.75s.33547-.75.74969-.75h1.25163v-1.25c0-.41421.3358-.75.75-.75z"/></g></svg>