<svg fill="none" height="20" viewBox="0 0 20 20" width="20" xmlns="http://www.w3.org/2000/svg"><g fill="#00a008"><path clip-rule="evenodd" d="m9.99985 9.5c2.20915 0 3.99995-1.79086 3.99995-4s-1.7908-4-3.99995-4c-2.20914 0-4 1.79086-4 4s1.79086 4 4 4zm0-1.5c1.38075 0 2.49995-1.11929 2.49995-2.5s-1.1192-2.5-2.49995-2.5c-1.38071 0-2.5 1.11929-2.5 2.5s1.11929 2.5 2.5 2.5z" fill-rule="evenodd"/><path d="m12.4938 18.2735c.5018-.0943.6449-.7383.3473-1.153-.1631-.2274-.4409-.3536-.7162-.3043-.6557.1175-1.37.1838-2.12505.1838-1.8747 0-3.49753-.4085-4.59742-.9951-1.16435-.621-1.40258-1.224-1.40258-1.5049s.23823-.8839 1.40258-1.5049c1.09989-.5866 2.72272-.9951 4.59742-.9951.75505 0 1.46935.0663 2.12495.1838.2754.0493.5532-.0769.7163-.3043.2976-.4147.1545-1.0587-.3473-1.153-.7802-.1467-1.6196-.2265-2.49395-.2265-4.14214 0-7.5 1.7909-7.5 4s3.35786 4 7.5 4c.87435 0 1.71375-.0798 2.49395-.2265z"/><path d="m15.8214 11.5c.4143 0 .75.3358.75.75v1.25h1.25c.4143 0 .75.3358.75.75s-.3357.75-.75.75h-1.25v1.25c0 .4142-.3357.75-.75.75-.4142 0-.75-.3358-.75-.75v-1.25h-1.2516c-.4142 0-.7496-.3358-.7496-.75s.3354-.75.7496-.75h1.2516v-1.25c0-.4142.3358-.75.75-.75z"/></g></svg>