<svg fill="none" height="24" viewBox="0 0 24 24" width="24" xmlns="http://www.w3.org/2000/svg"><g fill="#00a008"><path clip-rule="evenodd" d="m12 11.5c2.4853 0 4.5-2.01472 4.5-4.5s-2.0147-4.5-4.5-4.5c-2.48528 0-4.5 2.01472-4.5 4.5s2.01472 4.5 4.5 4.5zm0-1.5c1.6569 0 3-1.34315 3-3s-1.3431-3-3-3-3 1.34315-3 3 1.3431 3 3 3z" fill-rule="evenodd"/><path d="m14.9541 22.1898c.5158-.1125.6427-.7793.3062-1.186-.1743-.2107-.4503-.3159-.718-.2599-.7819.1637-1.6373.2561-2.5423.2561-2.12724 0-3.97993-.5103-5.24988-1.2574-1.30462-.7674-1.75012-1.6106-1.75012-2.2426s.4455-1.4752 1.75012-2.2426c1.26995-.7471 3.12264-1.2574 5.24988-1.2574.905 0 1.7604.0924 2.5423.2561.2677.056.5437-.0492.718-.2599.3365-.4067.2096-1.0735-.3062-1.186-.9201-.2006-1.9153-.3102-2.9541-.3102-4.69442 0-8.5 2.2386-8.5 5s3.80558 5 8.5 5c1.0388 0 2.034-.1096 2.9541-.3102z"/><path d="m18.25 14c.4142 0 .75.3358.75.75v1.75h1.75c.4142 0 .75.3358.75.75s-.3358.75-.75.75h-1.75v1.75c0 .4142-.3358.75-.75.75s-.75-.3358-.75-.75v-1.75h-1.75c-.4142 0-.75-.3358-.75-.75s.3358-.75.75-.75h1.75v-1.75c0-.4142.3358-.75.75-.75z"/></g></svg>