<svg fill="none" height="16" viewBox="0 0 16 16" width="16" xmlns="http://www.w3.org/2000/svg"><g fill="#00a008"><path clip-rule="evenodd" d="m11 4.5c0 1.65685-1.34315 3-3 3s-3-1.34315-3-3 1.34315-3 3-3 3 1.34315 3 3zm-1.5 0c0 .82843-.67157 1.5-1.5 1.5s-1.5-.67157-1.5-1.5.67157-1.5 1.5-1.5 1.5.67157 1.5 1.5z" fill-rule="evenodd"/><path d="m9.22591 14.2985c.30273.4304.14892 1.1081-.37474 1.1598-.27741.0275-.56168.0417-.85117.0417-3.03757 0-5.5-1.567-5.5-3.5s2.46243-3.5 5.5-3.5c.28949 0 .57376.01423.85117.04166.52366.05177.67747.72943.37474 1.15985-.1499.21314-.40049.34099-.66025.32059-.18378-.0145-.37253-.0221-.56566-.0221-1.27757 0-2.3638.3325-3.08377.7906-.73777.4695-.91623.9336-.91623 1.2094s.17846.7399.91623 1.2094c.71997.4581 1.8062.7906 3.08377.7906.19313 0 .38188-.0076.56566-.0221.25976-.0204.51035.1075.66025.3206z"/><path d="m11.2376 12.9697c-.2929.2929-.2929.7677 0 1.0606s.7678.2929 1.0606 0l1.4293-1.4293c.332-.3319.332-.8701 0-1.202l-1.4293-1.42933c-.2928-.29289-.7677-.29289-1.0606 0-.2929.29293-.2929.76773 0 1.06063l.2197.2197h-1.97976c-.41421 0-.75.3358-.75.75s.33579.75.75.75h1.97976z"/></g></svg>