<svg fill="none" height="20" viewBox="0 0 20 20" width="20" xmlns="http://www.w3.org/2000/svg"><g fill="#00a008"><path clip-rule="evenodd" d="m14 5.5c0 2.20914-1.7909 4-4 4-2.20914 0-4-1.79086-4-4s1.79086-4 4-4c2.2091 0 4 1.79086 4 4zm-1.5 0c0 1.38071-1.1193 2.5-2.5 2.5-1.38071 0-2.5-1.11929-2.5-2.5s1.11929-2.5 2.5-2.5c1.3807 0 2.5 1.11929 2.5 2.5z" fill-rule="evenodd"/><path d="m12.8413 17.1205c.2976.4147.1544 1.0587-.3473 1.153-.7803.1467-1.6197.2265-2.494.2265-4.14214 0-7.5-1.7909-7.5-4s3.35786-4 7.5-4c.8743 0 1.7137.0798 2.494.2265.5017.0943.6449.7383.3473 1.153-.1631.2274-.4409.3536-.7163.3043-.6557-.1175-1.3699-.1838-2.125-.1838-1.8747 0-3.49752.4085-4.59742.9951-1.16435.621-1.40258 1.224-1.40258 1.5049s.23823.8839 1.40258 1.5049c1.0999.5866 2.72272.9951 4.59742.9951.7551 0 1.4693-.0663 2.125-.1838.2754-.0493.5532.0769.7163.3043z"/><path d="m15.5393 13.75h-2.7893c-.4142 0-.75.3358-.75.75s.3358.75.75.75h2.7893l-.2197.2197c-.2928.2929-.2928.7677 0 1.0606.2929.2929.7678.2929 1.0607 0l1.4293-1.4293c.3319-.3319.3319-.8701 0-1.202l-1.4293-1.4293c-.2929-.2929-.7678-.2929-1.0607 0-.2928.2929-.2928.7677 0 1.0606z"/></g></svg>