<svg fill="none" height="24" viewBox="0 0 24 24" width="24" xmlns="http://www.w3.org/2000/svg"><g fill="#00a008"><path clip-rule="evenodd" d="m16.5 7c0 2.48528-2.0147 4.5-4.5 4.5-2.48525 0-4.49997-2.01472-4.49997-4.5s2.01472-4.5 4.49997-4.5c2.4853 0 4.5 2.01472 4.5 4.5zm-1.5 0c0 1.65685-1.3431 3-3 3-1.6568 0-2.99997-1.34315-2.99997-3s1.34317-3 2.99997-3c1.6569 0 3 1.34315 3 3z" fill-rule="evenodd"/><path d="m15.2604 21.0038c.3364.4067.2095 1.0735-.3062 1.186-.9202.2006-1.9154.3102-2.9542.3102-4.69439 0-8.49997-2.2386-8.49997-5s3.80558-5 8.49997-5c1.0388 0 2.034.1096 2.9542.3102.5157.1125.6426.7793.3061 1.186-.1743.2107-.4503.3159-.718.2599-.7819-.1637-1.6372-.2561-2.5423-.2561-2.1272 0-3.9799.5103-5.24985 1.2574-1.30462.7674-1.75012 1.6106-1.75012 2.2426s.4455 1.4752 1.75012 2.2426c1.26995.7471 3.12265 1.2574 5.24985 1.2574.9051 0 1.7604-.0924 2.5423-.2561.2677-.056.5437.0492.7181.2599z"/><path d="m14.75 16.7803h3.9697l-.7197-.75c-.2929-.2929-.2929-.7677 0-1.0606s.7678-.2929 1.0607 0l1.9293 1.9606c.3319.332.3319.8681 0 1.2l-1.9293 1.9c-.2929.2929-.7678.2929-1.0607 0s-.2929-.7677 0-1.0606l.7197-.6894h-3.9697c-.4142 0-.75-.3358-.75-.75s.3358-.75.75-.75z"/></g></svg>