<svg fill="none" height="16" viewBox="0 0 16 16" width="16" xmlns="http://www.w3.org/2000/svg"><path clip-rule="evenodd" d="m15 8c0 3.866-3.134 7-7 7-3.86599 0-7-3.134-7-7 0-3.86599 3.13401-7 7-7 3.866 0 7 3.13401 7 7zm-7.55066-5.21815c.23272-.22372.41762-.28185.55066-.28185s.31794.05813.55066.28185c.23644.22728.48357.59209.7074 1.10079.40095.91125.67985 2.17679.73279 3.61736h-3.9817c.05294-1.44057.33184-2.70611.73279-3.61736.22383-.5087.47096-.87351.7074-1.10079zm-2.94109 4.71815c.05334-1.61187.36318-3.0907.86072-4.22147.02144-.04873.04332-.09703.06565-.14484-1.6059.84833-2.74116 2.4683-2.9122 4.36631zm-1.91756 1.5h1.94256c.09505 1.4167.3901 2.7087.83572 3.7215.02144.0487.04332.097.06565.1448-1.46292-.7728-2.53528-2.1859-2.84393-3.8663zm3.44629 0h3.92604c-.0923 1.2329-.3511 2.3131-.70496 3.1174-.22383.5087-.47096.8735-.7074 1.1008-.23272.2237-.41762.2818-.55066.2818s-.31794-.0581-.55066-.2818c-.23644-.2273-.48357-.5921-.7074-1.1008-.35386-.8043-.61266-1.8845-.70496-3.1174zm5.42982 0c-.0951 1.4167-.3901 2.7087-.8358 3.7215-.0214.0487-.0433.097-.0656.1448 1.4629-.7728 2.5353-2.1859 2.8439-3.8663zm2.0108-1.5c-.1711-1.89801-1.3063-3.51798-2.9122-4.36631.0223.04781.0442.09611.0656.14484.4976 1.13077.8074 2.6096.8608 4.22147z" fill="#00a008" fill-rule="evenodd"/></svg>