<svg fill="none" height="20" viewBox="0 0 20 20" width="20" xmlns="http://www.w3.org/2000/svg"><path clip-rule="evenodd" d="m18.5 10c0 4.6944-3.8056 8.5-8.5 8.5-4.69442 0-8.5-3.8056-8.5-8.5 0-4.69442 3.80558-8.5 8.5-8.5 4.6944 0 8.5 3.80558 8.5 8.5zm-9.23245-6.61291c.29627-.29882.54322-.38709.73245-.38709.1892 0 .4362.08827.7324.38709.2991.30159.6029.77619.8741 1.42288.4969 1.18512.8348 2.82944.8866 4.69003h-4.98617c.05175-1.86059.38963-3.50491.88662-4.69003.27119-.64669.57498-1.12129.874-1.42288zm-3.26115 6.11291c.05189-2.02092.41675-3.87011 1.00386-5.27012.10396-.24791.21648-.48555.33766-.71002-2.4045.9851-4.13904 3.26958-4.33034 5.98014zm-2.93551 1.5h2.95487c.09469 1.8251.44617 3.4864.9845 4.7701.10396.2479.21648.4856.33766.71-2.25513-.9239-3.92095-2.9907-4.27703-5.4801zm4.45705 0h4.94416c-.0933 1.6547-.4137 3.1122-.8656 4.19-.2712.6467-.575 1.1213-.8741 1.4229-.2962.2988-.5432.3871-.7324.3871-.18923 0-.43618-.0883-.73245-.3871-.29902-.3016-.60281-.7762-.874-1.4229-.45198-1.0778-.77236-2.5353-.86561-4.19zm6.44626 0c-.0947 1.8251-.4461 3.4864-.9845 4.7701-.1039.2479-.2164.4856-.3376.71 2.2551-.9239 3.9209-2.9907 4.277-5.4801zm3.0082-1.5c-.1913-2.71056-1.9258-4.99504-4.3303-5.98014.1212.22447.2337.46211.3376.71002.5871 1.40001.952 3.2492 1.0039 5.27012z" fill="#00a008" fill-rule="evenodd"/></svg>