<svg fill="none" height="24" viewBox="0 0 24 24" width="24" xmlns="http://www.w3.org/2000/svg"><path clip-rule="evenodd" d="m12 22c5.5228 0 10-4.4772 10-10 0-5.52285-4.4772-10-10-10-5.52285 0-10 4.47715-10 10 0 5.5228 4.47715 10 10 10zm-3.11405-17.91147c-3.00668 1.18441-5.17553 4.03326-5.37149 7.41147h3.49143c.05768-2.44265.53604-4.67503 1.3074-6.35386.17018-.37041.36126-.72658.57266-1.05761zm3.11405-.58853c-.7029 0-1.5794.65241-2.3237 2.27239-.66595 1.44941-1.11237 3.45997-1.16997 5.72761h6.98737c-.0576-2.26764-.5041-4.2782-1.17-5.72761-.7443-1.61998-1.6208-2.27239-2.3237-2.27239zm4.9941 8c-.0577-2.44265-.536-4.67503-1.3074-6.35386-.1702-.3704-.3613-.72658-.5726-1.05761 3.0066 1.18441 5.1755 4.03326 5.3714 7.41147zm-1.5196 1.5h-6.94901c.10584 2.0627.53424 3.8857 1.15081 5.2276.7443 1.62 1.6208 2.2724 2.3237 2.2724s1.5794-.6524 2.3237-2.2724c.6166-1.3419 1.045-3.1649 1.1508-5.2276zm-.3604 6.9115c.2113-.3311.4024-.6872.5726-1.0576.7184-1.5636 1.1827-3.6073 1.2896-5.8539h3.4655c-.37 3.1575-2.4706 5.786-5.3277 6.9115zm-6.22815 0c-.21139-.3311-.40248-.6872-.57266-1.0576-.7184-1.5636-1.18266-3.6073-1.28961-5.8539h-3.46548c.37004 3.1575 2.47062 5.786 5.32775 6.9115z" fill="#00a008" fill-rule="evenodd"/></svg>