<svg fill="none" height="16" viewBox="0 0 16 16" width="16" xmlns="http://www.w3.org/2000/svg"><path clip-rule="evenodd" d="m12.9805 1.01172c1.1343.11542 2.0195 1.07345 2.0195 2.23828v6.5c0 1.1648-.8852 2.1229-2.0195 2.2383l-.2305.0117h-4.75v.75l-.01172.2305c-.11542 1.1343-1.07345 2.0195-2.23828 2.0195h-2.5c-1.24264 0-2.25-1.0074-2.25-2.25v-5.5c0-.77972.39751-1.46545 1-1.86914v-2.13086c0-1.24264 1.00736-2.25 2.25-2.25h8.5zm-9.7305 5.48828c-.38817 0-.70747.29488-.74609.67285l-.00391.07715v5.5c0 .4142.33579.75.75.75h2.5c.41421 0 .75-.3358.75-.75v-5.5c0-.41421-.33579-.75-.75-.75zm1-4c-.41421 0-.75.33579-.75.75v1.75h2.25l.23047.01172c1.13437.11542 2.01953 1.07345 2.01953 2.23828v3.25h4.75c.4142 0 .75-.3358.75-.75v-6.5c0-.41421-.3358-.75-.75-.75z" fill="#00a008" fill-rule="evenodd"/></svg>