<svg fill="none" height="20" viewBox="0 0 20 20" width="20" xmlns="http://www.w3.org/2000/svg"><path clip-rule="evenodd" d="m16.5 2c1.3807 0 2.5 1.11929 2.5 2.5v8l-.0127.2559c-.1196 1.1764-1.055 2.1118-2.2314 2.2314l-.2559.0127h-7.5v.5c0 1.3807-1.11929 2.5-2.5 2.5h-3c-1.38071 0-2.5-1.1193-2.5-2.5v-7c0-1.20949.85886-2.21858 2-2.4502v-1.5498c0-1.38071 1.11929-2.5 2.5-2.5zm-13 5.5c-.55228 0-1 .44772-1 1v7c0 .5523.44772 1 1 1h3c.55228 0 1-.4477 1-1v-7c0-.55228-.44772-1-1-1zm2-4c-.55228 0-1 .44772-1 1v1.5h2c1.38071 0 2.5 1.11929 2.5 2.5v5h7.5c.5523 0 1-.4477 1-1v-8c0-.55228-.4477-1-1-1z" fill="#00a008" fill-rule="evenodd"/></svg>