<svg fill="none" height="24" viewBox="0 0 24 24" width="24" xmlns="http://www.w3.org/2000/svg"><path clip-rule="evenodd" d="m20 3c1.6569 0 3 1.34315 3 3v9c0 1.6051-1.2606 2.9158-2.8457 2.9961l-.1543.0039h-10c0 1.6569-1.34315 3-3 3h-3l-.1543-.0039c-1.58515-.0803-2.8457-1.391-2.8457-2.9961v-8c0-1.65685 1.34315-3 3-3v-1c0-1.65685 1.34315-3 3-3zm-16 5.5c-.82843 0-1.5.67157-1.5 1.5v8c0 .8284.67157 1.5 1.5 1.5h3c.82843 0 1.5-.6716 1.5-1.5v-8c0-.82843-.67157-1.5-1.5-1.5zm3-4c-.82843 0-1.5.67157-1.5 1.5v1h1.5c1.65685 0 3 1.34315 3 3v6.5h10c.8284 0 1.5-.6716 1.5-1.5v-9c0-.82843-.6716-1.5-1.5-1.5z" fill="#00a008" fill-rule="evenodd"/></svg>