<svg fill="none" height="16" viewBox="0 0 16 16" width="16" xmlns="http://www.w3.org/2000/svg"><path clip-rule="evenodd" d="m1.5 4.75c0-1.79493 1.45507-3.25 3.25-3.25h6.5c1.7949 0 3.25 1.45507 3.25 3.25v6.5c0 1.7949-1.4551 3.25-3.25 3.25h-6.5c-1.79493 0-3.25-1.4551-3.25-3.25zm3.25-1.75c-.9665 0-1.75.7835-1.75 1.75v6.5c0 .8816.65193 1.611 1.5 1.7323v-1.4823c0-1.1046.89543-2 2-2h3c1.1046 0 2 .8954 2 2v1.4823c.8481-.1213 1.5-.8507 1.5-1.7323v-6.5c0-.9665-.7835-1.75-1.75-1.75h-.75v.8c0 .93888-.76112 1.7-1.7 1.7h-1.6c-.93888 0-1.7-.76112-1.7-1.7v-.8zm5.25 10v-1.5c0-.2761-.22386-.5-.5-.5h-3c-.27614 0-.5.2239-.5.5v1.5zm-3-10h2v.8c0 .11046-.08954.2-.2.2h-1.6c-.11046 0-.2-.08954-.2-.2z" fill="#00a008" fill-rule="evenodd"/></svg>