<svg fill="none" height="20" viewBox="0 0 20 20" width="20" xmlns="http://www.w3.org/2000/svg"><path clip-rule="evenodd" d="m2 6c0-2.20914 1.79086-4 4-4h8c2.2091 0 4 1.79086 4 4v8c0 2.2091-1.7909 4-4 4h-8c-2.20914 0-4-1.7909-4-4zm10-2.5h-4v1c0 .27614.22386.5.5.5h3c.2761 0 .5-.22386.5-.5zm-5.5 0v1c0 1.10457.89543 2 2 2h3c1.1046 0 2-.89543 2-2v-1h.5c1.3807 0 2.5 1.11929 2.5 2.5v8c0 1.2095-.8589 2.2184-2 2.45v-2.25c0-1.215-.985-2.2-2.2-2.2h-4.6c-1.21503 0-2.2.985-2.2 2.2v2.25c-1.14112-.2316-2-1.2405-2-2.45v-8c0-1.38071 1.11929-2.5 2.5-2.5zm6.5 13h-6v-2.3c0-.3866.3134-.7.7-.7h4.6c.3866 0 .7.3134.7.7z" fill="#00a008" fill-rule="evenodd"/></svg>