<svg fill="none" height="24" viewBox="0 0 24 24" width="24" xmlns="http://www.w3.org/2000/svg"><path clip-rule="evenodd" d="m2.5 7.25c0-2.62335 2.12665-4.75 4.75-4.75h9.5c2.6234 0 4.75 2.12665 4.75 4.75v9.5c0 2.6234-2.1266 4.75-4.75 4.75h-9.5c-2.62335 0-4.75-2.1266-4.75-4.75zm4.75-3.25c-1.79493 0-3.25 1.45507-3.25 3.25v9.5c0 1.5368 1.06665 2.8245 2.5 3.163v-2.2125c0-1.215.98498-2.2 2.2-2.2h6.6c1.215 0 2.2.985 2.2 2.2v2.2125c1.4334-.3385 2.5-1.6262 2.5-3.163v-9.5c0-1.79493-1.4551-3.25-3.25-3.25h-.25v1.5c0 1.10457-.8954 2-2 2h-5c-1.10457 0-2-.89543-2-2v-1.5zm8.75 16v-2.2995c0-.3866-.3134-.7-.7-.7h-6.6c-.3866 0-.7.3134-.7.7v2.2995zm-7-16h6v1.5c0 .27614-.2239.5-.5.5h-5c-.27614 0-.5-.22386-.5-.5z" fill="#00a008" fill-rule="evenodd"/></svg>