<svg fill="none" height="16" viewBox="0 0 16 16" width="16" xmlns="http://www.w3.org/2000/svg"><path d="m9.96714 3.09671c-.32958-.29427-.3582-.79999-.06394-1.12956.2943-.32958.8-.35821 1.1296-.06394l2.7164 2.42541c.4008.35783.4008.98484 0 1.34268l-2.7164 2.42541c-.3296.29426-.8353.26564-1.1296-.06394-.29426-.32957-.26564-.8353.06394-1.12956l1.23566-1.1033h-5.45265c-1.76731 0-3.2 1.43269-3.2 3.2 0 1.76729 1.43269 3.19999 3.2 3.19999h5.24995v1.6h-5.24995c-2.65097 0-4.800003-2.149-4.800003-4.79999 0-2.65097 2.149033-4.8 4.800003-4.8h5.45255z" fill="#00a008"/></svg>