<svg fill="none" height="20" viewBox="0 0 20 20" width="20" xmlns="http://www.w3.org/2000/svg"><path d="m12.4545 3.58783c-.3247-.29966-.345-.80579-.0453-1.13046.2996-.32468.8058-.34495 1.1304-.04529l3.1708 2.92652c.3861.35637.3861.96634 0 1.32271l-3.1708 2.92652c-.3246.29966-.8308.27939-1.1304-.04529-.2997-.32467-.2794-.8308.0453-1.13046l1.7467-1.61217h-6.45376c-2.31959 0-4.2 1.8804-4.2 4.19999 0 2.3196 1.88041 4.2 4.2 4.2h5.44996c.4419 0 .8.3582.8.8s-.3581.8-.8.8h-5.44996c-3.20325 0-5.8-2.5967-5.8-5.8 0-3.20325 2.59675-5.79999 5.8-5.79999h6.45366z" fill="#00a008"/></svg>