<svg fill="none" height="24" viewBox="0 0 24 24" width="24" xmlns="http://www.w3.org/2000/svg"><path d="m17.0394 2.91152c-.325-.29933-.8311-.27853-1.1304.04645-.2994.32499-.2786.83109.0464 1.13042l2.2925 2.11152h-9.50049c-3.75553 0-6.8 3.04446-6.8 6.79999 0 3.7555 3.04446 6.8 6.8 6.8h9.24999v-1.6h-9.24999c-2.87188 0-5.2-2.3281-5.2-5.2s2.32812-5.19999 5.2-5.19999h9.50059l-2.2926 2.11161c-.325.29928-.3458.80548-.0464 1.13038.2993.325.8054.3458 1.1304.0465l3.7201-3.42645c.3871-.35648.3871-.96751 0-1.32399z" fill="#00a008"/></svg>