<svg fill="none" height="16" viewBox="0 0 16 16" width="16" xmlns="http://www.w3.org/2000/svg"><path clip-rule="evenodd" d="m1 5c0-1.65685 1.34315-3 3-3h8c1.6569 0 3 1.34315 3 3v6c0 1.6569-1.3431 3-3 3h-8c-1.65685 0-3-1.3431-3-3z" fill="#86daf1" fill-rule="evenodd"/><g fill="#03aa6f"><path d="m4 2c-1.65685 0-3 1.34315-3 3v4h1.00002l1-1 .00006-2h3l.99994-1v-1c.03035-.02838 1.00006-1 1.00006-1v-1z"/><path d="m11.0049 2 .0047.96263.9905 1.03737h2.8292c-.4118-1.16519-1.5231-2-2.8293-2z"/><path d="m15 6.11573c-.3846-.06268-.7103-.12355-.7518-.14756-.0376-.02172-.2134-.24807-.3908-.50299l-.3225-.46357-2.5347-.00161-1 1v2c.0329.02801 1.0095 1 1.0095 1h1.9905l1 1v1l.8713.8713c.0836-.2757.1285-.5683.1285-.8713z"/><path d="m10.0001 14v-2l-1.00002-1h-1v-1h-5l-1 1s-.00877.9991 0 1l1 1h2v1z"/></g><path clip-rule="evenodd" d="m1 5c0-1.65685 1.34315-3 3-3h8c1.6569 0 3 1.34315 3 3v6c0 1.6569-1.3431 3-3 3h-8c-1.65685 0-3-1.3431-3-3zm11-2h-8c-1.10457 0-2 .89543-2 2v6c0 1.1046.89543 2 2 2h8c1.1046 0 2-.8954 2-2v-6c0-1.10457-.8954-2-2-2z" fill="#1d1f26" fill-opacity=".2" fill-rule="evenodd"/></svg>