<svg fill="none" height="20" viewBox="0 0 20 20" width="20" xmlns="http://www.w3.org/2000/svg"><path d="m1 6c0-1.65685 1.34315-3 3-3h12c1.6569 0 3 1.34315 3 3v8c0 1.6569-1.3431 3-3 3h-12c-1.65685 0-3-1.3431-3-3z" fill="#86daf1"/><g fill="#03aa6f"><path d="m8.00008 3h-4.00008c-1.65685 0-3 1.34315-3 3v4h1.00002l1-1 .00006-2h3l.99994-1v-1c.03035-.02838 1.00006-1 1.00006-1z"/><path d="m9.00008 17h-4v-3h-2l-1-1c-.00877-.0009 0-1 0-1l1-1h5v1h1l1.00002 1v2l-1.00002 1z"/><path d="m16.2701 16.988-.2699.012v-3l-2-2v-1l-1-1h-1.9905s-.9766-.97199-1.0095-1v-2l1-1 2.5347.00161.3225.46357c.1774.25492.3532.48127.3908.50299.0992.05732 1.8184.32482 2.0905.32525.1837.00031 1.7346-.44235 2.2557-.64378.016-.0062.0316-.00819.0476-.00468.1275.20885.247.42256.358.64077v6.71427c0 1.5658-1.1996 2.8515-2.7299 2.988z"/><path d="m11.0049 3h4.9951c.3507 0 .6873.06016 1.0001.17074v.82926l-1 1h-4l-.9905-1.03737z"/></g><path clip-rule="evenodd" d="m16 4h-12c-1.10457 0-2 .89543-2 2v8c0 1.1046.89543 2 2 2h12c1.1046 0 2-.8954 2-2v-8c0-1.10457-.8954-2-2-2zm-12-1c-1.65685 0-3 1.34315-3 3v8c0 1.6569 1.34315 3 3 3h12c1.6569 0 3-1.3431 3-3v-8c0-1.65685-1.3431-3-3-3z" fill="#1d1f26" fill-opacity=".2" fill-rule="evenodd"/></svg>