<svg fill="none" height="24" viewBox="0 0 24 24" width="24" xmlns="http://www.w3.org/2000/svg"><path d="m2 7c0-1.65685 1.34315-3 3-3h14c1.6569 0 3 1.34315 3 3v10c0 1.6569-1.3431 3-3 3h-14c-1.65685 0-3-1.3431-3-3z" fill="#86daf1"/><g fill="#03aa6f"><path d="m10.0001 4h-5.0001c-1.65685 0-3 1.34315-3 3v5h2.00002l1-1 .00006-2h3l.99994-1v-1c.03035-.02838 1.00008-1 1.00008-1z"/><path d="m11 20h-3.99998l.00006-4h-2l-1-1c-.00877-.0009 0-1 0-1l1-1h5.00002v1h1l1 1v2l-1 1z"/><path d="m22 9v8c0 1.6569-1.3431 3-3 3h-1l.0002-4-2-2v-1l-1-1h-1.9905s-.9766-.972-1.0095-1v-2l1-1 2.5347.00161.3225.46357c.1774.25492.3532.48128.3908.50299.0992.05732 1.7518.03183 1.7518.03183z"/><path d="m13.0032 4h5.9968c1.3062 0 2.4175.83481 2.8293 2h-2.8292l-1 1h-4l-.9905-1.03737z"/></g><path clip-rule="evenodd" d="m19 5h-14c-1.10457 0-2 .89543-2 2v10c0 1.1046.89543 2 2 2h14c1.1046 0 2-.8954 2-2v-10c0-1.10457-.8954-2-2-2zm-14-1c-1.65685 0-3 1.34315-3 3v10c0 1.6569 1.34315 3 3 3h14c1.6569 0 3-1.3431 3-3v-10c0-1.65685-1.3431-3-3-3z" fill="#1d1f26" fill-opacity=".2" fill-rule="evenodd"/></svg>