<svg fill="none" height="16" viewBox="0 0 16 16" width="16" xmlns="http://www.w3.org/2000/svg"><path clip-rule="evenodd" d="m10.4213 12.5612-1.97784 1.7953c-.42075.3819-.96863.5935-1.53686.5935-1.45856 0-2.54431-1.3472-2.23446-2.7725l.1473-.6775h-.89649c-1.83593 0-3.156295-1.76464-2.63826-3.52596l1.21797-4.14108c.4068-1.38314 1.67621-2.33296 3.11793-2.33296h1.93695c.58904 0 1.16701.16009 1.67211.46315l1.07955.64775c.391-.66474 1.1138-1.1109 1.9408-1.1109h.5c1.2426 0 2.25 1.00736 2.25 2.25v7.5c0 1.2426-1.0074 2.25-2.25 2.25h-.5c-.7534 0-1.4203-.3703-1.8287-.9388zm-2.98599.6846c-.14475.1314-.33323.2042-.52871.2042-.50177 0-.87529-.4635-.76869-.9538l.29225-1.3444c.12873-.5921-.32234-1.1518-.92831-1.1518h-1.5789c-.83451 0-1.43468-.80211-1.19921-1.60271l1.21796-4.14108c.21905-.74477.90258-1.25621 1.67889-1.25621h1.93695c.31718 0 .62839.0862.90037.24939l1.54209.92525v6.74326zm4.06469-1.9958c0 .4142.3358.75.75.75h.5c.4142 0 .75-.3358.75-.75v-7.5c0-.41421-.3358-.75-.75-.75h-.5c-.4142 0-.75.33579-.75.75z" fill="#00a008" fill-rule="evenodd"/></svg>