<svg fill="none" height="20" viewBox="0 0 20 20" width="20" xmlns="http://www.w3.org/2000/svg"><path clip-rule="evenodd" d="m12.8543 15.4624-1.9777 2.166c-.507.5553-1.22413.8716-1.97598.8716-1.71178 0-2.98333-1.5851-2.61199-3.2561l.27641-1.2439h-1.44004c-2.0827 0-3.62791-1.9315-3.17073-3.9634l1.0372-4.60977c.385-1.71113 1.90463-2.92683 3.65853-2.92683h2.87445c.79255 0 1.56465.25109 2.20565.71724l.9366.68119c.3358-.82043 1.142-1.39843 2.0833-1.39843h.5c1.2426 0 2.25 1.00736 2.25 2.25v9.5c0 1.2426-1.0074 2.25-2.25 2.25h-.5c-.7962 0-1.4958-.4136-1.8957-1.0376zm-3.08544 1.1546c-.22276.244-.53788.383-.86824.383-.75216 0-1.31088-.6965-1.14771-1.4307l.42515-1.9132c.13184-.5933-.31962-1.1561-.92738-1.1561h-2.12568c-1.12145 0-1.95349-1.04-1.70731-2.1341l1.03719-4.6098c.231-1.02668 1.14278-1.7561 2.19512-1.7561h2.87445c.47552 0 .93885.15066 1.32335.43034l1.6522 1.20158v7.99388zm4.23114-2.367c0 .4142.3358.75.75.75h.5c.4142 0 .75-.3358.75-.75v-9.5c0-.41421-.3358-.75-.75-.75h-.5c-.4142 0-.75.33579-.75.75z" fill="#00a008" fill-rule="evenodd"/></svg>