<svg fill="none" height="24" viewBox="0 0 24 24" width="24" xmlns="http://www.w3.org/2000/svg"><path clip-rule="evenodd" d="m15.8811 18.1476-2.5738 3.1795c-.6006.7419-1.5041 1.1729-2.4586 1.1729-1.95466 0-3.44152-1.7552-3.12017-3.6833l.38613-2.3167h-2.27233c-2.43964 0-4.22973-2.2927-3.63803-4.6595l1.5-6.00001c.41734-1.66938 1.91728-2.84049 3.63803-2.84049h4.72057c.7627 0 1.5074.2326 2.1345.66678l1.6921 1.17147c.4805-.80167 1.3579-1.33825 2.3605-1.33825h.5c1.5188 0 2.75 1.23122 2.75 2.75v10.5c0 1.5188-1.2312 2.75-2.75 2.75h-.5c-1.0085 0-1.8902-.5429-2.3689-1.3524zm-3.7396 2.2357c-.3158.3901-.7909.6167-1.2928.6167-1.02775 0-1.80954-.9229-1.64058-1.9367l.49286-2.9571c.09651-.5791-.35003-1.1062-.93707-1.1062h-2.92158c-1.46378 0-2.53784-1.3756-2.18282-2.7957l1.5-6.00001c.25041-1.00162 1.15037-1.70429 2.18282-1.70429h4.72057c.4576 0 .9044.13956 1.2807.40007l2.1564 1.49289v9.84154zm4.8585-3.6333c0 .6904.5596 1.25 1.25 1.25h.5c.6904 0 1.25-.5596 1.25-1.25v-10.5c0-.69036-.5596-1.25-1.25-1.25h-.5c-.6904 0-1.25.55964-1.25 1.25z" fill="#00a008" fill-rule="evenodd"/></svg>