<svg fill="none" height="16" viewBox="0 0 16 16" width="16" xmlns="http://www.w3.org/2000/svg"><path d="m11 8.84082-3 2.10058-3-2.10058v-4.88281l3 2.10058 3-2.10058z" fill="#ea4335"/><path d="m2.07617 3.22552c.66126-.34423 1.45947-.29157 2.07031.13574l.85352.59668v9.04196h-3c-.55224 0-.99993-.4477-1-1v-6.99997l.00488-.13867c.04797-.69089.45116-1.31284 1.07129-1.63574z" fill="#c5221f"/><path d="m13.9238 3.22552c-.6612-.34423-1.4594-.29157-2.0703.13574l-.8535.59668v9.04196h3c.5522 0 .9999-.4477 1-1v-6.99997l-.0049-.13867c-.0479-.69089-.4511-1.31284-1.0713-1.63574z" fill="#fb9404"/><path d="m15 12c-.0001.5522-.4478 1-1 1h-3v-4.15918l3.1328-2.19238.8672-.59668z" fill="#34a853"/><path d="m1.86719 6.64844 3.13281 2.19238v4.15918h-3c-.55222 0-.99989-.4478-1-1v-5.94824z" fill="#4285f4"/></svg>