<svg fill="none" height="20" viewBox="0 0 20 20" width="20" xmlns="http://www.w3.org/2000/svg"><path d="m3.10547 4.21093c.67757-.33878 1.48869-.26507 2.09473.18945l.7998.59961v11.00001h-3c-.55228 0-.99999-.4477-1-1v-9.00001c0-.75754.42791-1.45027 1.10547-1.78906z" fill="#c5221f"/><path d="m16.8945 4.21093c-.6775-.33878-1.4887-.26507-2.0947.18945l-.7998.59961v11.00001h3c.5523 0 1-.4477 1-1v-9.00001c0-.75754-.4279-1.45027-1.1055-1.78906z" fill="#fb9404"/><path d="m14 9.99902-4 3.00098-4-3.00098v-4.99902l4 3 4-3z" fill="#ea4335"/><path d="m6 9.99902v6.00098h-3c-.55228 0-.99999-.4477-1-1v-8.00098z" fill="#4285f4"/><path d="m18 15c0 .5523-.4477 1-1 1h-3v-6.00098l4-3z" fill="#34a853"/></svg>