<svg fill="none" height="24" viewBox="0 0 24 24" width="24" xmlns="http://www.w3.org/2000/svg"><path d="m17 12.4326-5 3.668-5-3.668v-6.20018l5 3.66699 5-3.66699z" fill="#ea4335"/><path d="m3.37012 5.26954c.84026-.42563 1.8488-.34216 2.6084.21485l1.02148.74804v12.76757h-3c-1.10457 0-2-.8954-2-2v-9.49999c.00004-.94205.52979-1.80464 1.37012-2.23047z" fill="#c5221f"/><path d="m20.6299 5.26954c-.8403-.42563-1.8488-.34216-2.6084.21485l-1.0215.74804v12.76757h3c1.1046 0 2-.8954 2-2v-9.49999c0-.94205-.5298-1.80464-1.3701-2.23047z" fill="#fb9404"/><path d="m22 17c0 1.1046-.8954 2-2 2h-3v-6.5869l5-3.69533z" fill="#34a853"/><path d="m7 12.4131v6.5869h-3c-1.10457 0-2-.8954-2-2v-8.28223z" fill="#4285f4"/></svg>