<svg fill="none" height="16" viewBox="0 0 16 16" width="16" xmlns="http://www.w3.org/2000/svg"><g fill="#00a008"><path clip-rule="evenodd" d="m1.62994 1.63617c-.29289.2929-.29289.76777 0 1.06066l11.66726 11.66727c.2929.2929.7678.2929 1.0607 0s.2929-.7678 0-1.0607l-1.3742-1.3742c.9399-.9092 1.5858-1.94479 1.9877-2.72445.3923-.76094.3923-1.64831 0-2.40926-.9029-1.75172-3.0379-4.79537-6.9714-4.79537-1.53368 0-2.79393.4627-3.81435 1.13111l-1.49505-1.49506c-.29289-.29289-.76777-.29289-1.06066 0zm3.64757 2.58692 1.19467 1.19467c.44749-.26532.96987-.41764 1.52782-.41764 1.65685 0 3 1.34315 3 3 0 .55795-.1523 1.08033-.4176 1.52782l1.341 1.34106c.7767-.7431 1.3369-1.61849 1.7147-2.35153.17-.32972.17-.70498 0-1.0347-.8436-1.6366-2.5958-3.98265-5.6381-3.98265-1.05824 0-1.96038.28385-2.72249.72297zm4.17038 4.17038c.03398-.12536.05211-.25724.05211-.39335 0-.82843-.67158-1.5-1.5-1.5-.13611 0-.26799.01813-.39335.05211z" fill-rule="evenodd"/><path d="m8.84181 12.4378c.27737-.0419.56386.0348.76221.2331.41368.4136.25844 1.1101-.31704 1.215-.40576.0739-.83447.1142-1.28698.1142-3.93355 0-6.06846-3.0436-6.97144-4.79535-.392247-.76094-.392248-1.64831 0-2.40926.14806-.28721.32923-.60916.54602-.94673.24798-.38614.78566-.42163 1.11015-.09713.26356.26356.29372.67814.09608.99415-.159.25422-.29828.50287-.41896.73699-.16997.32972-.16997.70498 0 1.0347.84363 1.63663 2.59583 3.98263 5.63815 3.98263.29241 0 .5729-.0217.84181-.0623z"/><path d="m7.58011 10.647c.1275.1275.03431.334-.14285.3004-1.20559-.2288-2.15578-1.17895-2.38457-2.38454-.03362-.17716.17292-.27035.30042-.14285z"/></g></svg>