<svg fill="none" height="20" viewBox="0 0 20 20" width="20" xmlns="http://www.w3.org/2000/svg"><g fill="#00a008"><path clip-rule="evenodd" d="m3.03228 2.03022c-.29289-.2929-.76776-.2929-1.06066 0-.29289.29289-.29289.76776 0 1.06066l14.49568 14.49572c.2929.2929.7678.2929 1.0607 0s.2929-.7678 0-1.0607l-1.5693-1.5692c1.9428-1.5147 3.0413-3.5517 3.0413-4.95681 0-2.5-3.4772-7-9-7-1.82654 0-3.42932.4922-4.75657 1.24147zm3.31998 3.31998 1.7248 1.72479c.55185-.36354 1.21269-.5751 1.92294-.5751 1.933 0 3.5 1.567 3.5 3.5 0 .71021-.2116 1.37111-.5751 1.92291l1.9637 1.9637c.2359-.1756.458-.3605.6659-.5521 1.3852-1.2768 1.9455-2.6562 1.9455-3.33451 0-.67835-.5603-2.05776-1.9455-3.33453-1.3211-1.21762-3.219-2.16547-5.5545-2.16547-1.37774 0-2.60317.32983-3.64774.85031zm5.47164 5.4716c.1131-.2507.1761-.529.1761-.82191 0-1.10457-.8954-2-2-2-.29294 0-.57118.06298-.8219.17614z" fill-rule="evenodd"/><path d="m2.42699 6.64113c.26331-.33318.75553-.33935 1.05582-.03907.28585.28586.29048.74423.04513 1.06552-.72107.94424-1.02794 1.83027-1.02794 2.33231 0 .67831.56026 2.05771 1.94552 3.33451 1.32108 1.2176 3.21893 2.1655 5.55448 2.1655.5844 0 1.1414-.0594 1.6689-.1674.2747-.0563.563.0186.7613.217.4079.4079.2505 1.0966-.3128 1.2212-.6663.1475-1.3733.2292-2.1174.2292-5.52285 0-9-4.5-9-7.00001 0-.94974.50182-2.18812 1.42699-3.35876z"/><path d="m6.5 9.99989c0-.14532.17226-.20838.27501-.10562l3.33059 3.33063c.1028.1027.0397.275-.1056.275-1.933 0-3.5-1.567-3.5-3.50001z"/></g></svg>