<svg fill="none" height="24" viewBox="0 0 24 24" width="24" xmlns="http://www.w3.org/2000/svg"><g fill="#00a008"><path clip-rule="evenodd" d="m2.78033 2.80951c-.29289.2929-.29289.76777 0 1.06066l17.32407 17.32413c.2929.2929.7678.2929 1.0607 0s.2929-.7678 0-1.0607l-2.5884-2.5883c2.098-1.689 3.4233-3.9132 3.4233-5.5454 0-3.00002-4.4772-8.00002-10-8.00002-1.976 0-3.81806.64002-5.36915 1.59949l-2.78986-2.78986c-.29289-.29289-.76777-.29289-1.06066 0zm4.94454 3.88388 2.00952 2.00952c.64411-.44344 1.42451-.70303 2.26561-.70303 2.2091 0 4 1.79086 4 4.00002 0 .8411-.2596 1.6215-.703 2.2656l2.2121 2.2121c.1932-.1507.38-.3073.5598-.4688.7964-.7151 1.4223-1.4973 1.8411-2.2343.4289-.755.59-1.3716.59-1.7746 0-.4031-.1611-1.0196-.59-1.7746-.4188-.73705-1.0447-1.5192-1.8411-2.23435-1.6033-1.43973-3.7607-2.49107-6.0689-2.49107-1.5306 0-2.99478.46227-4.27513 1.19351zm6.48203 6.48201c.1871-.3504.2931-.7506.2931-1.1755 0-1.3807-1.1193-2.50002-2.5-2.50002-.425 0-.8252.10603-1.1756.29308z" fill-rule="evenodd"/><path d="m3.85303 7.97647c.2714-.31814.75403-.31948 1.04973-.02378.29025.29024.29079.75781.02766 1.07285-.33526.40141-.61724.80698-.84038 1.19976-.42899.755-.59004 1.3715-.59004 1.7746 0 .403.16105 1.0196.59004 1.7746.41874.737 1.04467 1.5192 1.84108 2.2343 1.60333 1.4397 3.76069 2.4911 6.06888 2.4911.8366 0 1.6534-.1381 2.4311-.3828.2905-.0914.611-.025.8264.1903.3836.3836.2632 1.0315-.2522 1.201-.9486.3117-1.9582.4915-3.0053.4915-5.52285 0-10-5-10-8 0-1.1746.68633-2.65579 1.85303-4.02343z"/><path d="m8 11.9999c0-.3736.43922-.5108.70339-.2466l.53556.5356c.22336.2233.36996.5088.5069.7934.2459.5112.66055.9258 1.17165 1.1717.2847.137.5701.2836.7935.5069l.5356.5356c.2641.2642.127.7034-.2466.7034-2.20914 0-4-1.7909-4-4z"/></g></svg>