<svg fill="none" height="24" viewBox="0 0 24 24" width="24" xmlns="http://www.w3.org/2000/svg"><g fill="#00a008"><path d="m10.2197 7.46973c.2929-.2929.7677-.2929 1.0606 0l4 3.99997c.2929.2929.2929.7677 0 1.0606l-4 4c-.2929.2929-.7677.2929-1.0606 0-.29287-.2929-.29287-.7677 0-1.0606l3.4698-3.4697-3.4698-3.46973c-.29287-.29289-.29287-.76765 0-1.06054z"/><path clip-rule="evenodd" d="m12 2c5.5228 0 10 4.47715 10 10 0 5.5228-4.4772 10-10 10-5.52285 0-10-4.4772-10-10 0-5.52285 4.47715-10 10-10zm0 1.5c-4.69442 0-8.5 3.80558-8.5 8.5 0 4.6944 3.80558 8.5 8.5 8.5 4.6944 0 8.5-3.8056 8.5-8.5 0-4.69442-3.8056-8.5-8.5-8.5z" fill-rule="evenodd"/></g></svg>