<svg fill="none" height="16" viewBox="0 0 16 16" width="16" xmlns="http://www.w3.org/2000/svg"><path d="m1 10h14v1c0 1.6569-1.3431 3-3 3h-8c-1.65685 0-3-1.3431-3-3z" fill="#fff"/><path d="m1 6h14v4h-14z" fill="#0a4981"/><path d="m3 6h-2v-1c0-1.65685 1.34315-3 3-3h8c1.6569 0 3 1.34315 3 3v1h-6v3c0 1.6569-1.34315 3-3 3s-3-1.3431-3-3z" fill="#cd3e44"/><path clip-rule="evenodd" d="m5.00003 6-1 1 2 2-1.00003 1 1 1 1-1-.99997-1 2-2-1-1-1.00051 1.00004z" fill="#fff" fill-rule="evenodd"/><path d="m4 5 1 1h-1v1l1-1h2l1 1v-1h-1l1-1s-1-1-2-1-2 1-2 1z" fill="#ecbe34"/><path d="m4 3h8c1.1046 0 2 .89543 2 2v5h1v-5c0-1.65685-1.3431-3-3-3h-8c-1.65685 0-3 1.34315-3 3v5h1v-5c0-1.10457.89543-2 2-2z" fill="#1d1f26" fill-opacity=".2"/><path d="m1 10v1c0 1.6569 1.34315 3 3 3h8c1.6569 0 3-1.3431 3-3v-1h-1v1c0 1.1046-.8954 2-2 2h-8c-1.10457 0-2-.8954-2-2v-1z" fill="#0e416f" fill-opacity=".4"/></svg>