<svg fill="none" height="20" viewBox="0 0 20 20" width="20" xmlns="http://www.w3.org/2000/svg"><path d="m1 13h18v1c0 1.6569-1.3431 3-3 3h-12c-1.65685 0-3-1.3431-3-3z" fill="#fff"/><path d="m1 7h18v6h-18z" fill="#0a4981"/><path d="m10 7h9v-1c0-1.65685-1.3431-3-3-3h-12c-1.65685 0-3 1.34314-3 3v1h3v4c0 1.6569 1.34315 3 3 3s3-1.3431 3-3z" fill="#cd3e44"/><path clip-rule="evenodd" d="m6.00003 8-1 1 2 2-1.00003 1 1 1 1-1-.99997-1 2-2-1-1-1.00051 1.00004z" fill="#fff" fill-rule="evenodd"/><g fill="#ecbe34"><path d="m5 6 1 1h2l1-1s-1-1-2-1-2 1-2 1z"/><path d="m5 8h1l-1 1z"/><path d="m9 8h-1l1 1z"/></g><path d="m4 4h12c1.1046 0 2 .89543 2 2v7h1v-7c0-1.65685-1.3431-3-3-3h-12c-1.65685 0-3 1.34315-3 3v7h1v-7c0-1.10457.89543-2 2-2z" fill="#1d1f26" fill-opacity=".2"/><path d="m1 13v1c0 1.6569 1.34315 3 3 3h12c1.6569 0 3-1.3431 3-3v-1h-1v1c0 1.1046-.8954 2-2 2h-12c-1.10457 0-2-.8954-2-2v-1z" fill="#0e416f" fill-opacity=".4"/></svg>