<svg fill="none" height="24" viewBox="0 0 24 24" width="24" xmlns="http://www.w3.org/2000/svg"><path d="m2 15h20v2c0 1.6569-1.3431 3-3 3h-14c-1.65685 0-3-1.3431-3-3z" fill="#fff"/><path d="m2 9h20v6h-20z" fill="#0a4981"/><path d="m11 9h11v-2c0-1.65685-1.3431-3-3-3h-14c-1.65685 0-3 1.34314-3 3v2h3v5c0 1.6569 1.34315 3 3 3s3-1.3431 3-3z" fill="#cd3e44"/><path clip-rule="evenodd" d="m7.00047 9-1.00047 1 2 2-1 2 1.00047 2 .99953-2-1-2 2.0005-2-1.00003-1-1 1.1667z" fill="#fff" fill-rule="evenodd"/><g fill="#ecbe34"><path d="m6 7 1 1h2l1-1s-1-1-2-1-2 1-2 1z"/><path d="m6 9h1l-1 1z"/><path d="m10 9h-1l1 1z"/></g><path d="m5 5h14c1.1046 0 2 .89543 2 2v8h1v-8c0-1.65685-1.3431-3-3-3h-14c-1.65685 0-3 1.34315-3 3v8h1v-8c0-1.10457.89543-2 2-2z" fill="#1d1f26" fill-opacity=".2"/><path d="m2 15v2c0 1.6569 1.34315 3 3 3h14c1.6569 0 3-1.3431 3-3v-2h-1v2c0 1.1046-.8954 2-2 2h-14c-1.10457 0-2-.8954-2-2v-2z" fill="#0e416f" fill-opacity=".4"/></svg>