<svg fill="none" height="16" viewBox="0 0 16 16" width="16" xmlns="http://www.w3.org/2000/svg"><path d="m7.50514 2.62793c.00083.01431.00195.02863.00195.04297v1.25586c.00011.00741.00094.01468.00098.02148.00013.0245-.0006.0452-.00098.06153v3.52441c-.00014.41399-.33602.74982-.75.75-.41413 0-.74986-.3359-.75-.75v-3.60352c-.00055-.01874-.00171-.04249-.0039-.06933-.00706-.08612-.02318-.1857-.05371-.27344-.03132-.08976-.0644-.12882-.07911-.1416-.00193-.00215-.02378-.02539-.11718-.02539-.05864.00004-.09026.00896-.10352.01367-.01214.00435-.01865.00859-.02344.0127-.01276.01103-.04377.04699-.07324.13378-.02904.08562-.04411.18406-.0498.26954-.00267.04015-.00315.07255-.00293.09277.00011.00996.00086.01693.00097.01953l.00098.04688v5.36523l.27246.3252c.2661.3174.22452.7905-.09277 1.0566-.31741.2662-.79051.2247-1.05664-.0927l-.46387-.5528-.54395-.54978c-.00626-.00632-.01251-.01298-.01855-.01953-.07596-.08236-.14644-.09877-.18945-.09765-.0438.00119-.11784.0224-.19434.11328-.07937.09432-.1415.24463-.14551.42383-.00393.17805.05138.33395.12891.43745l1.94531 2.3204c.41173.4877.68609.7776 1.00098.9668.28923.1736.67073.2939 1.33789.2939h1.22949c.91497 0 1.82593-.4324 2.52053-1.2607.6315-.7532.7734-1.8274.7734-3.20903v-4.10937l-.001-.01563c-.001-.01773-.0029-.04749-.0078-.08398-.0103-.0767-.0298-.16566-.0615-.24414-.0322-.07977-.0639-.11533-.0791-.12793-.0022-.00179-.0196-.02244-.1006-.02246-.0812 0-.1008.02063-.1055.02441-.0173.01423-.0505.05124-.0839.13184-.033.0795-.0533.17008-.0645.24707-.0053.03626-.0076.0653-.0088.08301-.0006.00876-.001.0166-.001.0166v2.10351c0 .41422-.3357.75-.75.75-.4142 0-.74996-.33578-.74996-.75v-3.42285c0-.15979-.00715-.27273-.02441-.35742-.008-.03916-.01692-.06412-.02344-.0791-.0052-.01193-.00976-.01856-.00976-.01856-.05836-.0696-.09246-.08948-.10059-.09375-.0037-.00192-.00596-.00321-.00879-.0039-.00337-.0008-.01342-.00292-.03222-.00293-.04436 0-.12033.02021-.19922.11426-.03806.04538-.09375.16383-.09375.4414v2.60938c0 .41421-.33579.75-.75.75-.414-.00026-.75-.33595-.75-.75v-4.17676c-.00153-.0096-.00348-.02284-.00684-.03809-.01087-.04923-.02827-.10542-.05371-.15332-.02485-.0468-.04755-.06728-.06055-.07617-.00632-.00434-.03677-.02539-.12597-.02539-.0642.00004-.10227.00863-.1211.01465-.01787.00573-.0259.01107-.02929.01367-.00701.00536-.02797.02529-.05079.08301-.0234.05927-.03706.13059-.04296.19531-.00273.02996-.00287.05366-.00293.06738v.00586zm6.00096 6.90234c0 1.38703-.114 2.96833-1.124 4.17283-.9471 1.1296-2.2633 1.7969-3.66993 1.7969h-1.22949c-.86436 0-1.53083-.1607-2.11035-.5088-.5539-.3328-.9706-.8063-1.37403-1.2842l-.00195-.0019-1.96973-2.3496c-.00773-.0093-.01517-.0187-.02246-.0284-.29812-.3937-.44444-.8883-.43359-1.37886.0109-.49041.17858-.97794.49707-1.35644.32141-.38186.78306-.63239 1.30078-.64649.22186-.00604.43513.03317.63379.10742v-4.04296c-.00047-.01397-.00077-.03032-.00098-.04883-.00059-.05292.00022-.12512.00586-.20996.01103-.16546.0406-.40244.125-.65137.084-.24766.23519-.54719.5127-.78711.2912-.25173.66847-.39151 1.1084-.3916.12299 0 .24115.01255.35351.03418.01469-.04749.0314-.09648.05078-.14551.09294-.23499.2543-.50853.53418-.72266.2884-.220553.64891-.336825 1.06153-.33691.80811 0 1.28123.46628 1.51074.89844.08591.16179.13544.31936.16894.44629.11643-.02564.23693-.04004.36036-.04004.56087.00003.97807.26349 1.29097.63672.1993.23774.3013.50915.3536.76269.1015-.01797.2079-.02734.3183-.02734.4188.00002.7766.1349 1.0557.36523.2661.21967.422.49423.5146.72363.0932.23072.1364.45127.1573.60645.0106.07921.0166.14644.0195.19629.0014.02502.0015.04631.0019.0625.0003.00792.0009.01488.001.02051v.01269z" fill="#00a008"/></svg>