<svg fill="none" height="20" viewBox="0 0 20 20" width="20" xmlns="http://www.w3.org/2000/svg"><path d="m6.49906 4.8252c.0011.01658.00195.03317.00195.0498v6.7471l.38379.456c.26645.3168.22569.7899-.09082 1.0567-.3169.2667-.79088.226-1.05762-.0909l-.58203-.6914-.68848-.6923c-.00628-.0064-.0125-.013-.01855-.0196-.12769-.1379-.2666-.1847-.38086-.1816-.11491.0032-.25522.0584-.38086.207-.12872.1524-.2198.381-.22559.6416-.00562.2577.07367.4912.19629.6553l2.44043 2.8994c.51356.606.87339.9897 1.29688 1.2432.39807.2382.91125.3935 1.77051.3935h1.5371c1.2062 0 2.3956-.5684 3.2949-1.6367.8359-.993 1.0098-2.3924 1.0098-4.1133v-5.12107c-.0001-.00408-.0012-.01274-.002-.02539-.0015-.02597-.0039-.06752-.0107-.11816-.0142-.10516-.0417-.23224-.0889-.34864-.0477-.11768-.1023-.19127-.1523-.23242-.0373-.03062-.102-.07024-.2461-.07031-.1443 0-.2119.03965-.252.07226-.0526.04289-.1088.11875-.1582.23731-.0487.1171-.0773.24442-.0927.34961-.0075.05073-.0109.09216-.0127.11816-.0009.01245-.0018.02111-.002.02539v2.62696c0 .41421-.3358.75-.75.75-.4141-.0001-.75-.33587-.75-.75v-4.2627c0-.44308-.0531-.60973-.1152-.68359-.1483-.17622-.2281-.19141-.3213-.19141-.118.00003-.2638.0548-.3936.20898-.0885.10534-.1591.30428-.1591.66602v3.25c0 .41417-.3359.74993-.75.75-.4143 0-.75004-.33579-.75004-.75v-5.01172c-.00027-.00258-.00063-.00567-.00098-.00879-.00272-.02406-.0077-.06218-.0166-.10937-.01863-.09862-.05109-.21917-.10156-.33008-.09786-.21498-.19945-.28992-.37696-.29004-.18838 0-.26927.04799-.30371.07422-.04273.03256-.08603.08835-.12305.18164-.03765.09491-.05703.20151-.06542.29297-.004.04359-.00577.07906-.00586.10058-.00004.01014.00089.01684.00097.01954l-.00097-.00196.00195.04102v1.57031c.00009.00709.00094.01392.00098.02051.00016.03088-.0005.05686-.00098.07617v4.38867c-.00019.41392-.33609.74973-.75.75003-.4141 0-.74981-.33598-.75-.75003v-4.47851c-.00059-.02829-.0013-.06575-.00488-.10938-.00961-.11693-.03208-.258-.07715-.38672-.04551-.12985-.10101-.20909-.15137-.25293-.03633-.03146-.10559-.07805-.27051-.07812-.17586 0-.24796.04879-.2832.0791-.04878.04201-.10207.11862-.14551.24609-.04303.12641-.06352.26577-.07129.38184-.00371.05562-.00423.10081-.0039.12988.00016.01426.00076.02428.00097.0293zm10.00684 6.9238c0 1.7267-.1462 3.6344-1.3623 5.0791-1.1527 1.3694-2.7468 2.1709-4.4424 2.1709h-1.5371c-1.05543 0-1.85309-.1947-2.54102-.6064-.66257-.3966-1.16546-.9641-1.6709-1.5606l-.00098-.0019-2.46289-2.9248c-.00792-.0094-.01501-.0195-.02246-.0293-.34563-.4548-.51761-1.0292-.50488-1.6026.01282-.5731.20957-1.1388.57813-1.5752.37155-.4398.90033-.72329 1.4873-.73922.34827-.00941.68002.07772.97461.23732v-5.3213c-.00063-.01741-.00168-.0389-.00195-.06348-.00069-.06198.00012-.14678.00683-.24707.01315-.19642.04962-.4744.14844-.76465.09841-.28894.27206-.62904.58594-.89941.32766-.28219.75493-.44238 1.26269-.44238.2059.00003.3977.029.5752.08008.02501-.10623.05765-.22034.10351-.33594.10764-.27116.29261-.57956.6084-.82031.32439-.24722.73391-.38184 1.21289-.38184.98674.00018 1.50814.65409 1.74214 1.16797.0926.20323.1493.40122.1856.56152.1966-.06735.4051-.10448.6211-.10449.6323 0 1.104.29231 1.4687.72559.2746.32617.3867.71157.4336 1.05761.1704-.04805.3547-.07519.5518-.07519.4804.00008.884.15381 1.1982.41211.3015.24783.4814.55953.5899.82715.1089.26877.1607.52708.1855.71093.0127.09389.0191.17408.0225.23242.0017.02918.0024.05386.0029.07227.0003.00883-.0001.01635 0 .02246.0001.00315.001.00642.001.00879v.00488z" fill="#00a008"/></svg>