<svg fill="none" height="24" viewBox="0 0 24 24" width="24" xmlns="http://www.w3.org/2000/svg"><path d="m12.4932 9.25v-5.20801c-.0006-.00395-.0013-.00885-.002-.01367-.0045-.03228-.0121-.08232-.0254-.14355-.0273-.12636-.0735-.28423-.1455-.4336-.1424-.29526-.3196-.4511-.6201-.45117-.4505 0-.6528.21198-.7842.46777-.0727.14159-.1165.29192-.1416.41211-.0122.05838-.0188.10592-.0224.13574-.001.00786-.0015.01443-.002.01954v6.21484c0 .4142-.3358.75-.75.75-.41422 0-.75-.3358-.75-.75v-4.24707c-.00015-.00483-.00102-.01511-.00195-.0293-.00195-.02942-.0059-.07565-.01465-.13281-.01824-.11892-.05359-.26517-.11621-.40137-.06202-.13482-.14059-.23823-.23633-.30761-.08786-.06358-.23232-.13082-.48926-.13086-.26866 0-.42184.06893-.51465.13476-.09988.07094-.1805.17509-.24316.3086-.06348.13528-.09874.28047-.11719.39843-.00888.05681-.01269.10274-.01465.13184-.00097.01442-.00181.02479-.00195.0293v7.67289l.64453.7656c.26651.3169.226.79-.09082 1.0566s-.78989.2259-1.05664-.0908l-.7041-.8359-.8291-.835c-.00617-.0062-.01261-.0121-.01856-.0185-.17967-.1942-.38678-.2717-.57129-.2667-.18516.0051-.39285.0941-.56836.3018-.17846.2113-.29802.5192-.30566.8633-.00748.3398.09631.6532.26465.8789l2.93457 3.4873c.56641.6684 1.144 1.1632 1.81543 1.4951.66871.3306 1.47475.5215 2.52835.5215h1.6416c1.4964 0 2.9638-.7054 4.0683-2.0176 1.0411-1.2368 1.2471-2.9665 1.2471-5.0322v-5.85059c-.0002-.00638-.001-.01905-.002-.03613-.002-.03441-.0058-.08751-.0146-.15235-.0181-.134-.0535-.29925-.1162-.4541-.0634-.15629-.1414-.2688-.2266-.33887-.0724-.05948-.1839-.11816-.3906-.11816s-.3182.05868-.3906.11816c-.0852.07007-.1632.18258-.2266.33887-.0627.15485-.0981.3201-.1162.4541-.0088.06484-.0126.11794-.0146.15235-.001.01708-.0018.02975-.002.03613v3.15039c0 .4142-.3358.75-.75.75s-.75-.3358-.75-.75v-5.09961c0-.52907-.0605-.78215-.1738-.91699-.1996-.23708-.3344-.28317-.5-.2832-.1906 0-.4059.08865-.5869.30371-.1501.17825-.2461.47299-.2461.89648v3.09961c0 .41421-.3358.75-.75.75-.4142-.00005-.75-.33582-.75-.75zm7.5068 4.7002c0 2.0715-.1783 4.3094-1.5996 5.998-1.3579 1.6133-3.2299 2.5518-5.2158 2.5518h-1.6416c-1.2439 0-2.28456-.2284-3.19339-.6777-.90612-.4481-1.63766-1.0947-2.29395-1.8692l-.00195-.0019-2.9541-3.5098c-.00802-.0095-.01591-.0194-.02344-.0293-.3926-.5166-.5897-1.1715-.5752-1.8281.01459-.6567.24074-1.3025.65918-1.7979.42129-.4985 1.0168-.8161 1.67383-.834.41812-.0112.81678.101 1.16602.3067v-6.2588-.0166c.00011-.00715.00065-.01597.00097-.02637.00066-.02104.00169-.04877.00391-.08203.00445-.06643.01265-.15711.0293-.26367.03283-.20987.10053-.50286.24219-.80469.14249-.30348.36997-.63676.73144-.89355.36885-.26197.83208-.41211 1.38379-.41211.33309.00003.63315.05741.89941.16113.00504-.02795.00919-.05798.01563-.08887.04338-.20785.12346-.49528.27539-.79101.31811-.61921.96667-1.28223 2.11817-1.28223 1.0973.00009 1.692.7192 1.9717 1.29883.1389.288.2162.56785.2597.76953.0055.02526.0082.05001.0127.07324.2737-.12227.5711-.1914.8819-.1914.7046.00005 1.2315.3224 1.6474.8164.3511.41708.4661.92512.5049 1.36524.2314-.08523.489-.13184.7715-.13184.5431 0 .9943.17264 1.3437.45996.3366.27678.54.62747.6641.93359.1246.30739.1832.60468.2119.81739.0146.10816.0225.19991.0264.2666.0019.03311.0024.06046.0029.08105.0003.01038.0009.0195.001.02637z" fill="#00a008"/></svg>