<svg fill="none" height="16" viewBox="0 0 16 16" width="16" xmlns="http://www.w3.org/2000/svg"><path d="m3.76367 2.21436c.16505.00002.50077.01302.85352.18847.24827.12354.43192.29011.56738.46192.30234-.37236.76245-.65039 1.39258-.65039h2.26953c.21002 0 .50896.03046.82227.18066.30483.14617.54095.36718.70705.62207.0691-.09082.1489-.18266.2431-.26953.3836-.35334.875-.53317 1.3975-.5332h1.3135c.4732.00006 1.2314.15658 1.6689.89941.3244.55084.2658 1.11225.2002 1.42969l.0029.00097c-.0754.43766-.2804.93455-.4531 1.31836-.1915.42575-.4239.88348-.6416 1.29395-.2134.40247-.4216.77401-.5771 1.04883.1521.17908.3599.42476.54.67773l.419.58691c.1328.19269.2574.38143.3691.56349.1842.3003.3804.6559.5059 1.0264l.0488.1591.0078.0293c.1096.4285.1699 1.1197-.2754 1.7422-.4653.6501-1.1682.7949-1.6279.7949h-1.3135c-.4025 0-.7851-.1077-1.1289-.3261-.2989-.19-.5125-.4294-.6484-.5938-.0186-.0224-.0367-.0464-.0557-.0703-.1768.2676-.40632.4727-.65528.6201-.53107.3143-1.14612.3701-1.63867.3701-2.11738-.0002-4.06044-1.4977-5.30176-3.6337v-.001c-.86513-1.4553-1.42404-2.7475-1.76953-3.75197-.324756-.94424-.505849-1.76376-.50586-2.2334 0-.22165.023256-.75768.407227-1.24414.442513-.56038 1.069703-.70703 1.542973-.70703zm-1.31347 1.5c-.37516 0-.4502.21433-.4502.45117.00003.41739.44038 2.49289 2.07227 5.2334 1.08784 1.87197 2.61692 2.88647 4.00488 2.88667.83437 0 1.1228-.2252 1.12305-.6084v-1.4218c0-.45089.02016-.58499.18261-.58499.16265.00028.50563.15741 1.28319 1.05859.8909 1.0713 1.0412 1.5565 1.5381 1.5566h1.3135c.3749 0 .5626-.2254.4502-.665-.1219-.4398-.5439-1.0829-1.1065-1.8496-.3095-.43985-.7691-.90281-.9004-1.13965-.1969-.30451-.1406-.43982 0-.69922.0171-.03992 1.6041-2.72272 1.7627-3.64258.0844-.33826.0001-.57508-.3935-.57519h-1.3135c-.3375.00005-.4879.21436-.5723.45117-.0061.01806-.6704 1.96828-1.61325 3.22558-.30914.37177-.36661.47546-.53515.47559-.08438 0-.0957-.10339-.0957-.44141v-3.13574c0-.406-.07218-.57518-.35352-.57519h-2.26953c-.20634 0-.33789.19215-.33789.36132.00037.38308.5013.47366.55762 1.53321v2.32324c0 .5073-.05108.69906-.21973.69922-.44081 0-1.79738-2.08609-2.41602-4.3418-.13125-.41712-.0603-.57506-.39746-.57519z" fill="#00a008"/></svg>