<svg fill="none" height="20" viewBox="0 0 20 20" width="20" xmlns="http://www.w3.org/2000/svg"><path d="m4.35059 3.5c.17922 0 .50587.01232.84765.16113.4257.18543.69873.49977.85742.81153.08919.17524.14253.35992.167.45117.21736-.77927.93024-1.42381 1.87988-1.42383h3.02636c.4489.00001 1.1724.13432 1.6318.83789.2054.31454.2855.65276.3174.92285.0364-.08487.0655-.15253.085-.20019.0115-.02826.0202-.0495.0254-.0625.0026-.0065.0049-.01128.0058-.01367v-.00098l.0049-.01074.0049-.01172c.1089-.26735.3108-.65317.7021-.96875.4184-.33726.9242-.49215 1.4493-.49219h1.7509l.1875.00684c.4682.03278 1.1282.20353 1.5586.84277.4396.65301.3241 1.34741.2305 1.69434-.1101.47911-.3583 1.01077-.5742 1.43066-.2531.49207-.5606 1.02209-.8496 1.49902-.2909.47999-.5738.92321-.7822 1.24517-.0077.0117-.0161.0227-.0235.0341.0048.0049.0098.0097.0147.0147.2083.2147.5071.5207.7617.834.3844.4583.7461.9086 1.0381 1.3252.2404.343.4933.7453.6552 1.164l.0635.1797.0049.0156.0049.0166c.1475.5045.2093 1.2858-.335 1.9512-.5155.6301-1.2473.7461-1.7051.7461h-1.7509c-.4053 0-.7957-.0931-1.1621-.2969-.33-.1835-.5782-.4242-.7559-.6123-.1735-.1836-.3687-.4159-.543-.6191-.0373-.0436-.0764-.0879-.1162-.1338-.0465.1758-.1176.3556-.2246.5312-.2225.3653-.5326.6138-.8447.7754-.5652.2927-1.2393.3555-1.8555.3555-2.48284 0-4.94155-1.5563-6.58983-4.0381v-.001c-1.14557-1.6857-1.88562-3.18407-2.34375-4.34957-.229425-.58368-.390207-1.09052-.496092-1.50098-.071601-.27758-.133791-.56877-.160156-.83203l-.013672-.25195.013672-.25879c.032909-.30511.14186-.73146.485351-1.11231.482627-.53501 1.126247-.65527 1.601567-.65527zm-1.75 1.5c-.50022 0-.60059.25005-.60059.52637.00004.48696.58783 2.90821 2.76367 6.10543 1.45061 2.1841 3.48911 3.3682 5.33983 3.3682 1.1129 0 1.4961-.2636 1.4961-.7109v-1.6573c0-.526.0269-.6824.2432-.6826.2166 0 .6739.1827 1.7119 1.2354 1.1877 1.2497 1.3882 1.8152 2.0508 1.8154h1.7509c.5002 0 .7507-.2632.6006-.7764-.1625-.5131-.7252-1.2634-1.4756-2.1582-.4125-.513-1.0259-1.0517-1.2011-1.3281-.2626-.3552-.1876-.5138 0-.8164.0053-.02101 2.1392-3.17241 2.3515-4.25.1125-.39462-.0003-.67088-.5254-.6709h-1.7509c-.4501.00007-.6502.25009-.7627.52637-.0054.01379-.8914 2.29345-2.1504 3.76269-.4126.43415-.4898.55563-.7149.55567-.1125 0-.1279-.12101-.1279-.51563v-3.6582c0-.47356-.0956-.67088-.4707-.6709h-3.02636c-.27502.00002-.45011.22358-.4502.4209 0 .44737.66911.5532.74414 1.79004v2.70996c0 .5921-.06885.8164-.29394.8164-.58779-.0001-2.39686-2.43478-3.22168-5.0664-.17495-.48665-.08016-.6709-.53027-.6709z" fill="#00a008"/></svg>