<svg fill="none" height="24" viewBox="0 0 24 24" width="24" xmlns="http://www.w3.org/2000/svg"><path d="m5.64453 4.5c.19959 0 .5497.01574.91113.18359.44283.20566.70898.54334.85743.8545.10932.22929.16436.47551.17871.5332l.07129.25488.01757.05664c.0954.29622.19663.51623.17872.12207l.00781-.1748c.08554-.8828.80823-1.82999 1.99804-1.83008h3.40427c.5106 0 1.2519.1691 1.7032.90625.3214.52514.3271 1.11851.3271 1.39941 0 .6768.1435.10117.2988-.28125.0538-.13245.0953-.23759.1221-.30761.0134-.03499.0231-.06154.0293-.07813.003-.00817.0056-.01426.0068-.01758v-.00195l.0049-.01172.0039-.01074c.1091-.28556.3114-.70017.71-1.04297.4322-.37159.9718-.55371 1.5498-.55371h1.9697c.5306.00008 1.3468.15443 1.833.9248.4302.68209.3036 1.40643.2071 1.76758-.1156.51644-.3721 1.10709-.6123 1.60547-.28.58059-.6219 1.20895-.9454 1.77835-.3252.5724-.6414 1.1015-.875 1.4863-.0643.106-.1233.2009-.1738.2832.0573.0643.1214.1374.1963.2197.2375.2611.5666.6208.8447.9864.431.5481.8319 1.0811 1.1533 1.5703.2681.408.5344.8631.7012 1.3222l.0654.1973.004.0146.0048.0157c.1469.5358.2016 1.3253-.3203 2.0058-.5186.6762-1.2831.8222-1.8017.8223h-1.9698c-.444 0-.8646-.1096-1.2529-.3398-.3474-.2062-.6096-.4756-.8017-.6924-.1898-.2141-.4028-.4849-.6026-.7334-.1093-.136-.2276-.2813-.3584-.4375-.0185.3004-.0914.6319-.2754.9541-.2172.3804-.5286.6525-.8623.8369-.6068.3352-1.3444.4121-2.0371.4121-2.76022-.0001-5.47145-1.844-7.28026-4.749-1.2776-2.0049-2.0999-3.7827-2.60645-5.15725-.25362-.68824-.43073-1.28164-.5459-1.75781-.10598-.43826-.18355-.8722-.18359-1.2041 0-.28473.03764-.8844.48145-1.40918.48591-.57443 1.15913-.72257 1.69335-.72266zm-1.96973 1.5c-.56232.00017-.6748.30035-.6748.63184.00019.5848.66182 3.48986 3.10938 7.32616 1.63189 2.6209 3.92482 4.0419 6.00682 4.042 1.252 0 1.6836-.3158 1.6836-.8525v-1.9893c0-.6313.03-.8192.2734-.8193.2438 0 .7581.2192 1.9258 1.4824 1.3365 1.5 1.562 2.1787 2.3076 2.1787h1.9698c.5625-.0001.8436-.316.6748-.9316-.183-.6158-.8161-1.5163-1.6602-2.5899-.4642-.6157-1.1537-1.2632-1.3506-1.5947-.295-.426-.2109-.6156 0-.9785 0-.0158 2.406-3.80459 2.6455-5.09964.1266-.47357-.0003-.8055-.5908-.80566h-1.9697c-.5065 0-.7318.30026-.8584.63184-.01.02733-1.0061 2.75607-2.4199 4.51566-.4642.5209-.5505.666-.8037.666-.1266 0-.1436-.1455-.1436-.6192v-4.38864c0-.56842-.1082-.80566-.5303-.80566h-3.40427c-.30924.0001-.50564.26818-.50585.50488 0 .53681.75242.66351.83692 2.14746v3.25296c0 .7105-.0778.9785-.33107.9785-.66137-.0005-2.69611-2.92051-3.62402-6.07814-.19696-.58421-.09021-.80566-.59668-.80566z" fill="#00a008"/></svg>