<svg fill="none" height="16" viewBox="0 0 16 16" width="16" xmlns="http://www.w3.org/2000/svg"><g clip-rule="evenodd" fill="#00a008" fill-rule="evenodd"><path d="m8.00003 5c1.65676.00002 2.99987 1.34327 2.99997 3 0 1.65684-1.34313 3-2.99997 3-1.65685 0-3-1.34315-3-3 .00013-1.65674 1.34323-3 3-3zm0 1.5c-.82834 0-1.49987.67169-1.5 1.5 0 .82843.67157 1.5 1.5 1.5.82841-.00002 1.5-.67158 1.5-1.5-.00013-.8283-.67167-1.49998-1.5-1.5z"/><path d="m8.58109 1c.76873.00016 1.42791.55027 1.56541 1.30664l.0752.41602c.2173.09182.433.19638.6426.31738.1044.06031.2059.12417.3047.19043l.289.20703.3995-.14355c.7237-.25892 1.5295.03659 1.914.70214l.5811 1.00782c.3841.66576.2375 1.5115-.3487 2.00879l-.3222.27343c.0596.47169.062.95256.0019 1.43067l.3203.2705c.5861.49719.7335 1.3431.3496 2.0088l-.582 1.0078-.0771.1201c-.4079.5799-1.1585.8246-1.8369.5821l-.3956-.1416c-.384.291-.8019.5297-1.2402.7138l-.0752.4151c-.1375.7563-.79667 1.3065-1.56541 1.3066h-1.16211l-.14356-.0068c-.70622-.0634-1.29294-.5908-1.42187-1.2998l-.07617-.4161c-.10835-.0458-.21652-.0948-.32325-.1474l-.31738-.1699c-.20953-.121-.40855-.2543-.59668-.3965l-.39746.1426-.13672.0419c-.6405.1667-1.31943-.0827-1.70019-.624l-.07715-.1201-.58106-1.0078c-.38426-.6658-.2385-1.51147.34766-2.0088l.32129-.27246c-.05965-.47162-.06097-.95261-.00098-1.43066l-.32031-.27246c-.58578-.49727-.73255-1.34222-.34863-2.00781l.58203-1.00782c.38443-.66536 1.18951-.96083 1.91308-.70214l.39551.1416c.38391-.29097.80111-.52968 1.23926-.71387l.07617-.41504c.12893-.70903.7166-1.23649 1.42285-1.2998l.14356-.00684zm-1.19434 1.50586c-.02962.01089-.05169.03681-.05762.06836l-.00097.00293-.07618.41601c-.09144.49733-.4275.91518-.89355 1.11133-.32592.137-.63407.31345-.91504.52637-.40418.30638-.93674.38823-1.41406.2168l-.39258-.14258c-.03066-.01082-.0647-.00339-.08887.0166l-.02051.02441-.58105 1.00684c-.01652.02863-.01633.06348-.00098.09082l.02051.02441.00098.00098.31933.27148c.38546.32768.58055.82811.51758 1.33008-.04397.35033-.04335.70519.00098 1.05567.06351.5024-.13078 1.00305-.5166 1.33105l-.32129.27348-.00098.0009c-.03254.0278-.04172.0756-.01953.1143l.58105 1.0078c.02191.0376.06757.054.1084.04l.39746-.1425c.47661-.171 1.00823-.0896 1.41211.2158.14389.1088.29104.2071.44141.2939.07468.0431.15159.0842.23047.1231l.24414.1113.16797.084c.37722.2186.64414.5933.72363 1.0283l.07617.416v.002c.00805.0428.04595.0742.08985.0742h1.16211c.04469-.0001.08199-.0323.08984-.0742l.0752-.4141.04492-.1836c.13137-.4175.44032-.7606.84961-.9326.32541-.1367.63344-.313.91504-.5264.4033-.3054.9337-.3868 1.4102-.2168l.3955.1407.0009.0009c.0419.0149.0887-.0027.1104-.04l.581-1.0078c.0214-.0375.0133-.0856-.0205-.1143l-.3183-.27047c-.3872-.32763-.5828-.82877-.5196-1.33203.044-.35016.0424-.70502-.0019-1.05567-.0635-.50304.1318-1.00417.5185-1.33203l.3223-.27344.0195-.02343c.0155-.02706.0167-.06165 0-.09082l-.0009-.00098-.5811-1.00684c-.0165-.02811-.0461-.04446-.0771-.04492l-.0313.00488-.3984.14258c-.4765.17084-1.0074.09032-1.4112-.21484-.1475-.11156-.2929-.21029-.4394-.29492-.1474-.0851-.30645-.1625-.47657-.23438-.46705-.19739-.80292-.61715-.89258-1.11621l-.07422-.41406c-.006-.03208-.02905-.05751-.05859-.06836l-.03125-.00586h-1.16211z"/></g></svg>