<svg fill="none" height="20" viewBox="0 0 20 20" width="20" xmlns="http://www.w3.org/2000/svg"><g clip-rule="evenodd" fill="#00a008" fill-rule="evenodd"><path d="m10.0002 6.5c1.9329.00011 3.5 1.56707 3.5 3.5 0 1.9329-1.5671 3.4999-3.5 3.5-1.93299 0-3.49999-1.567-3.49999-3.5s1.567-3.5 3.49999-3.5zm0 1.5c-1.10456 0-1.99999.89543-1.99999 2 0 1.1046.89543 2 1.99999 2 1.1045-.0001 2-.8955 2-2s-.8955-1.99989-2-2z"/><path d="m10.7483 1c.9881.00041 1.8349.70738 2.0117 1.67969l.0967.53515c.2793.11802.5558.25269.8251.40821.1344.07759.2655.15896.3926.24414l.3721.26562.5127-.18359c.9306-.33309 1.9666.04738 2.4609.90332l.7471 1.29492c.4942.85597.3063 1.94255-.4473 2.58203l-.415.35156c.0767.60671.0782 1.22485.001 1.83985l.414.3496c.7533.6393.9418 1.7253.4483 2.5811l-.7481 1.2959-.0986.1543c-.4895.6964-1.3628 1.0171-2.1865.8027l-.1748-.0537-.5108-.1826c-.4937.374-1.0293.6813-1.5927.9179l-.0967.5342-.041.1797c-.2426.8787-1.0451 1.5-1.9717 1.5h-1.49514c-.98825-.0002-1.83575-.7074-2.01269-1.6797l-.09766-.5351c-.20904-.0884-.41623-.1861-.62012-.295l-.20312-.1132c-.26966-.1557-.52548-.3277-.76758-.5108l-.51074.1836c-.87226.3122-1.83675-.0017-2.36133-.7471l-.09863-.1552-.74805-1.295c-.49399-.8559-.3063-1.9436.44727-2.583l.41406-.3515c-.07661-.6061-.079-1.22361-.00195-1.83792l-.41114-.34961c-.70669-.59942-.91682-1.59274-.5332-2.41992l.08496-.16309.74707-1.29492c.49435-.85583 1.53036-1.23544 2.46094-.90234l.50683.18164c.49392-.37446 1.03096-.68101 1.59473-.91797l.09766-.53516c.16599-.91137.92119-1.58955 1.8291-1.6709l.18359-.00781zm-1.49614 1.5c-.26365.00018-.48885.18869-.53613.44727l-.00098.00293-.09863.53418c-.09146.49762-.42712.91625-.89355 1.1123-.4505.18936-.87783.4335-1.26954.73047-.40414.30638-.93576.38817-1.41308.2168l-.50586-.18262c-.24849-.08865-.52477.01314-.65625.24023l.00098.00098-.74805 1.29492c-.13173.22837-.08076.51906.12012.68945l.41113.34961c.38592.32766.5806.82777.51758 1.33008-.06128.48849-.06015.9806.00097 1.4639.06345.5022-.12997 1.003-.51562 1.331l-.41309.3506-.07031.0703c-.14228.1726-.16625.4201-.05078.6201l.74805 1.295.05566.0791c.14437.1707.38238.2387.59961.1611l.51074-.1826.18067-.0528c.42637-.0948.87709.0004 1.23046.2676.19713.1491.40097.2862.61231.4082.21021.1214.42959.229.65723.3252.46557.1968.80072.6151.8916 1.1123l.09765.5352.00098.001c.04732.2595.27326.448.53613.4482h1.49514c.2636 0 .4887-.1887.5361-.4473l.0977-.5341.0449-.1836c.1315-.4172.4406-.7598.8496-.9317.4489-.1886.8758-.4329 1.2686-.7304l.1562-.1045c.3787-.2184.8375-.2618 1.2549-.1123l.5098.1826c.2471.0884.5238-.0123.6562-.2412l.7471-1.2959c.1309-.2274.0819-.515-.1172-.6856l-.4131-.3496c-.3876-.3275-.5836-.8286-.5205-1.332.0615-.4895.0601-.98177-.001-1.46487-.0635-.50278.1312-1.00408.5176-1.33203l.415-.35156.0684-.06934c.1423-.17267.1662-.41924.0508-.61914l-.7471-1.29492c-.1316-.22777-.4077-.32917-.6562-.24024h-.002l-.5127.1836c-.4759.1698-1.006.08789-1.4092-.2168-.2-.15115-.4021-.28758-.6094-.40722-.2082-.12021-.4283-.22768-.6591-.3252-.4661-.19708-.8013-.61636-.8916-1.11426l-.0977-.53418-.0254-.09375c-.0784-.21006-.2803-.35443-.5107-.35449z"/></g></svg>