<svg fill="none" height="24" viewBox="0 0 24 24" width="24" xmlns="http://www.w3.org/2000/svg"><g clip-rule="evenodd" fill="#00a008" fill-rule="evenodd"><path d="m12 8c2.2091 0 4 1.79086 4 4 0 2.2091-1.7909 4-4 4-2.20915 0-4.00001-1.7909-4.00001-4 0-2.20914 1.79086-3.99999 4.00001-4zm0 1.5c-1.3807.00001-2.50001 1.1193-2.50001 2.5s1.11931 2.5 2.50001 2.5 2.5-1.1193 2.5-2.5-1.1193-2.5-2.5-2.5z"/><path d="m12.8301 2c1.098.00005 2.0395.78604 2.2363 1.86621l.1084.5957c.31.13105.617.2805.916.45313.1494.08627.2951.17686.4365.27148l.4131.29493.5703-.20411c1.0338-.36974 2.1852.05227 2.7344 1.00293l.8301 1.43946c.5489.95112.3384 2.15875-.499 2.86917l-.46.3906c.0853.674.0878 1.3607.002 2.0439l.4589.3877c.8375.7105 1.0471 1.919.4981 2.8701l-.8311 1.4385-.1093.1719c-.5439.7732-1.5138 1.1286-2.4288.8906l-.1953-.0595-.5654-.2032c-.5489.416-1.145.7574-1.7715 1.0205l-.1074.5928-.0459.1992c-.2693.9768-1.1607 1.667-2.1904 1.667l-1.6612.001-.2031-.0088c-1.00905-.0902-1.84781-.8445-2.03222-1.8574l-.10937-.5947c-.23234-.0983-.46286-.2072-.68946-.3282l-.22558-.1259c-.29894-.1727-.58214-.3625-.85059-.5655l-.57031.2032c-.9692.3464-2.04146-.0026-2.62402-.8311l-.10938-.1719-.83008-1.4394c-.5145-.8917-.36242-2.009.34864-2.7305l.14941-.1387.45898-.3906c-.08519-.6738-.08673-1.3609-.00097-2.0439l-.45801-.3877c-.78481-.66592-1.01858-1.76876-.59277-2.68753l.09472-.18164.83008-1.43848c.54916-.951 1.70041-1.37387 2.73438-1.00391l.56445.20313c.54875-.41594 1.14515-.7573 1.77148-1.02051l.1084-.59277c.18429-1.01305 1.0231-1.76723 2.03222-1.85742l.2041-.00879zm-1.6602 1.50098c-.3728.00007-.6936.26645-.7607.63379v.00293l-.1094.59277c-.0913.49777-.42709.91612-.89356 1.1123-.51272.21547-.9995.49437-1.44629.83301-.4043.30646-.93665.3884-1.41406.2168l-.5625-.20313c-.35118-.12537-.74297.01852-.92969.3418l-.83008 1.43848c-.18637.3231-.11471.733.16992.97461l.45703.38867c.38616.32759.58158.82859.51856 1.33109-.06985.5564-.06877 1.1175.00098 1.6689.06345.5024-.13077 1.0031-.51661 1.3311l-.45898.3896-.00098.001c-.28485.2416-.35604.6526-.16992.9756l.00098.0009.82812 1.4376c.18648.3229.57892.4674.93067.3417l.00097-.0009.56934-.2032c.47598-.1699 1.00599-.0879 1.40918.2168.22361.1691.45555.3239.69629.4629.12022.0694.24328.1346.36816.1963l.38086.1748.16797.084c.37677.2183.64374.5921.72364 1.0264l.1094.5957v.0019c.0669.3675.387.6345.7597.6348l1.6612-.001c.3729 0 .6927-.2664.7597-.6338l.1084-.5927.045-.1836c.1315-.4171.4405-.7598.8496-.9317.5124-.2152.999-.494 1.4463-.833l.1572-.1045c.3784-.2179.8368-.2614 1.2539-.1123l.5654.2022c.3517.1258.7431-.0177.9297-.3408l.8301-1.4376c.1867-.3234.1155-.7341-.169-.9755l-.457-.3868c-.3871-.3275-.5826-.8288-.5195-1.332.0699-.5564.0678-1.1173-.002-1.6689-.0635-.5027.1314-1.0041.5176-1.33206l.4609-.39063c.285-.24176.3555-.6525.169-.97558l-.8301-1.43946c-.1866-.32221-.5772-.46629-.9287-.34082l-.002.00098-.5703.20312c-.4758.16975-1.0051.08877-1.4082-.21582-.2259-.17078-.4571-.32631-.6953-.46386-.2388-.13784-.4891-.26086-.75-.3711-.466-.197-.8021-.61551-.8926-1.11328l-.1074-.59472-.0371-.13282c-.1113-.29727-.3973-.50194-.7236-.50195z"/></g></svg>