<svg fill="none" height="16" viewBox="0 0 16 16" width="16" xmlns="http://www.w3.org/2000/svg"><g clip-rule="evenodd" fill="#00a008" fill-rule="evenodd"><path d="m2 4.5c0-1.933 1.567-3.5 3.5-3.5h4.5858c.4641 0 .9092.18437 1.2374.51256l2.1642 2.16422c.3282.32818.5126.7733.5126 1.23743v6.58579c0 1.933-1.567 3.5-3.5 3.5h-2.75c-.41421 0-.75-.3358-.75-.75s.33579-.75.75-.75h2.75c1.1046 0 2-.8954 2-2v-4.5h-2.25c-.9665 0-1.75-.7835-1.75-1.75v-2.75h-3c-1.10457 0-2 .89543-2 2v.75c0 .41421-.33579.75-.75.75s-.75-.33579-.75-.75zm8-2v2.75c0 .13807.1119.25.25.25h2.25v-.58579c0-.0663-.0263-.12989-.0732-.17677l-2.1642-2.16422c-.0469-.04688-.1105-.07322-.1768-.07322z"/><path d="m5.75 10.8546c.73296-.2967 1.25-1.01526 1.25-1.8546 0-1.10457-.89543-2-2-2s-2 .89543-2 2c0 .83934.51704 1.5579 1.25 1.8546v2.3954c0 .4142.33579.75.75.75s.75-.3358.75-.75zm-.75-1.3546c.27614 0 .5-.22386.5-.5s-.22386-.5-.5-.5-.5.22386-.5.5.22386.5.5.5z"/></g></svg>