<svg fill="none" height="20" viewBox="0 0 20 20" width="20" xmlns="http://www.w3.org/2000/svg"><g clip-rule="evenodd" fill="#00a008" fill-rule="evenodd"><path d="m16.9998 6.91421v7.58579c0 1.933-1.567 3.5-3.5 3.5h-3.74995c-.41422 0-.75-.3358-.75-.75s.33578-.75.75-.75h3.74995c1.1046 0 2-.8954 2-2v-6h-2.25c-1.2426 0-2.25-1.00736-2.25-2.25v-2.75h-4.49995c-1.10457 0-2 .89543-2 2v1.75c0 .41421-.33579.75-.75.75-.41422 0-.75-.33579-.75-.75v-1.75c0-1.933 1.567-3.5 3.5-3.5h5.58575c.4642 0 .9093.18437 1.2375.51256l3.1642 3.16422c.3282.32818.5125.7733.5125 1.23743zm-1.5.08579h-2.25c-.4142 0-.75-.33579-.75-.75v-2.43934l2.9268 2.92678c.0469.04688.0732.11047.0732.17677z"/><path d="m7.24985 13.8855c1.01427-.3185 1.75-1.2661 1.75-2.3855 0-1.3807-1.11929-2.5-2.5-2.5s-2.5 1.1193-2.5 2.5c0 1.1194.73572 2.067 1.75 2.3855v2.3645c0 .4142.33578.75.75.75.41421 0 .75-.3358.75-.75zm-.75-1.3855c.55228 0 1-.4477 1-1s-.44772-1-1-1c-.55229 0-1 .4477-1 1s.44771 1 1 1z"/></g></svg>