<svg fill="none" height="24" viewBox="0 0 24 24" width="24" xmlns="http://www.w3.org/2000/svg"><g clip-rule="evenodd" fill="#00a008" fill-rule="evenodd"><path d="m19.4874 6.67678c.3282.32819.5126.7733.5126 1.23743v9.83579c0 2.3472-1.9028 4.25-4.25 4.25h-4c-.4142 0-.75-.3358-.75-.75s.3358-.75.75-.75h4c1.5188 0 2.75-1.2312 2.75-2.75v-8.25h-2.75c-1.5188 0-2.75-1.23122-2.75-2.75v-3.25h-4.75c-1.51878 0-2.75 1.23122-2.75 2.75v5c0 .4142-.33579.75-.75.75s-.75-.3358-.75-.75v-5c0-2.34721 1.90279-4.25 4.25-4.25h5.8358c.4641 0 .9092.18437 1.2374.51256zm-4.9874.07322v-2.93934l3.9268 3.92678c.0469.04688.0732.11047.0732.17677v.08579h-2.75c-.6904 0-1.25-.55964-1.25-1.25z"/><path d="m8.10742 17.8855c1.01428-.3185 1.75-1.2661 1.75-2.3855 0-1.3807-1.11929-2.5-2.5-2.5s-2.5 1.1193-2.5 2.5c0 1.1194.73573 2.067 1.75 2.3855v2.3645c0 .4142.33579.75.75.75.41422 0 .75-.3358.75-.75zm-.75-1.3855c.55229 0 1-.4477 1-1s-.44771-1-1-1c-.55228 0-1 .4477-1 1s.44772 1 1 1z"/></g></svg>