<svg fill="none" height="16" viewBox="0 0 16 16" width="16" xmlns="http://www.w3.org/2000/svg"><g fill="#00a008"><path d="m5.46966 6.76118c.29289-.2929.76777-.2929 1.06066-.00001l.71968.71966v-5.68933c0-.41421.33579-.75.75-.75s.75.33579.75.75v5.68933l.71968-.71966c.29289-.29289.76772-.29289 1.06062.00001s.2929.76777 0 1.06066l-1.92927 1.92925c-.33194.33191-.87012.33191-1.20206 0l-1.92929-1.92925c-.2929-.29289-.29291-.76776-.00002-1.06066z"/><path d="m3.5 6.50127c0-.71196-.75536-1.13044-1.19622-.57139-.50339.63832-.80378 1.44419-.80378 2.32022v2.5c0 2.0711 1.67893 3.75 3.75 3.75h5.5c2.0711 0 3.75-1.6789 3.75-3.75v-2.5c0-.87603-.3004-1.6819-.8038-2.32022-.4408-.55905-1.1962-.14057-1.1962.57139 0 .21642.0806.42263.1904.60914.1968.33424.3096.72379.3096 1.13969v2.5c0 1.2426-1.0074 2.25-2.25 2.25h-5.5c-1.24264 0-2.25-1.0074-2.25-2.25v-2.5c0-.4159.11284-.80545.30958-1.13969.10979-.18651.19042-.39272.19042-.60914z"/></g></svg>