<svg fill="none" height="20" viewBox="0 0 20 20" width="20" xmlns="http://www.w3.org/2000/svg"><g fill="#00a008"><path d="m13.5303 8.76118c.2929.29289.2929.76777 0 1.06066l-2.9293 2.92926c-.3319.3319-.87009.3319-1.20204 0l-2.92929-2.92926c-.29289-.29289-.29289-.76777 0-1.06066.29289-.2929.76776-.2929 1.06066-.00001l1.71967 1.71963v-8.6893c0-.41421.33579-.75.75-.75.4142 0 .75.33579.75.75v8.6893l1.7197-1.71963c.2929-.29289.7677-.29289 1.0606.00001z"/><path d="m5 7.42474c0-.57035-.56827-.96275-1.03891-.64057-1.18412.81063-1.96109 2.17252-1.96109 3.71593v3c0 2.4853 2.01472 4.5 4.5 4.5h7c2.4853 0 4.5-2.0147 4.5-4.5v-3c0-1.54341-.777-2.9053-1.9611-3.71593-.4706-.32218-1.0389.07022-1.0389.64057 0 .295.1632.56086.392.74704.6761.55007 1.108 1.38874 1.108 2.32832v3c0 1.6569-1.3431 3-3 3h-7c-1.65685 0-3-1.3431-3-3v-3c0-.93958.43191-1.77825 1.108-2.32832.22883-.18618.392-.45204.392-.74704z"/></g></svg>