<svg fill="none" height="24" viewBox="0 0 24 24" width="24" xmlns="http://www.w3.org/2000/svg"><g fill="#00a008"><path d="m16.0303 10.2612c.2929.2929.2929.7677 0 1.0606l-3.4293 3.4293c-.3319.3319-.8701.3319-1.202 0l-3.42933-3.4293c-.29289-.2929-.29289-.7677 0-1.0606.29289-.29292.76776-.29292 1.06066 0l2.21967 2.2196v-9.6893c0-.41421.3358-.75.75-.75s.75.33579.75.75v9.6893l2.2197-2.2196c.2929-.29292.7677-.29292 1.0606 0z"/><path d="m6 8.42461c0-.57035-.56827-.96274-1.03891-.64056-1.18412.81062-1.96109 2.17252-1.96109 3.71585v5c0 2.4853 2.01472 4.5 4.5 4.5h9c2.4853 0 4.5-2.0147 4.5-4.5v-5c0-1.54333-.777-2.90523-1.9611-3.71585-.4706-.32218-1.0389.07021-1.0389.64056 0 .29501.1632.56086.392.74704.6761.55008 1.108 1.38875 1.108 2.32825v5c0 1.6569-1.3431 3-3 3h-9c-1.65685 0-3-1.3431-3-3v-5c0-.9395.43191-1.77817 1.108-2.32825.22883-.18618.392-.45203.392-.74704z"/></g></svg>