<svg fill="none" height="16" viewBox="0 0 16 16" width="16" xmlns="http://www.w3.org/2000/svg"><g fill="#00a008"><path d="m2.25 7c-.41421 0-.75-.33579-.75-.75s.33579-.75.75-.75h2.5c.41421 0 .75-.33579.75-.75v-2.5c0-.41421.33579-.75.75-.75s.75.33579.75.75v2.5c0 1.24264-1.00736 2.25-2.25 2.25z"/><path d="m9 2.25c0-.41421.33579-.75.75-.75.4142 0 .75.33579.75.75v2.5c0 .41421.3358.75.75.75h2.5c.4142 0 .75.33579.75.75s-.3358.75-.75.75h-2.5c-1.2426 0-2.25-1.00736-2.25-2.25z"/><path d="m14.5 9.75c0-.41421-.3358-.75-.75-.75h-2.5c-1.2426 0-2.25 1.0074-2.25 2.25v2.5c0 .4142.33579.75.75.75.4142 0 .75-.3358.75-.75v-2.5c0-.4142.3358-.75.75-.75h2.5c.4142 0 .75-.3358.75-.75z"/><path d="m7 13.75c0 .4142-.33579.75-.75.75s-.75-.3358-.75-.75v-2.5c0-.4142-.33579-.75-.75-.75h-2.5c-.41421 0-.75-.3358-.75-.75 0-.41421.33579-.75.75-.75h2.5c1.24264 0 2.25 1.0074 2.25 2.25z"/></g></svg>