<svg fill="none" height="20" viewBox="0 0 20 20" width="20" xmlns="http://www.w3.org/2000/svg"><g fill="#00a008"><path d="m2.75 8c-.41421 0-.75-.33579-.75-.75s.33579-.75.75-.75h2.5c.69036 0 1.25-.55964 1.25-1.25v-2.5c0-.41421.33579-.75.75-.75s.75.33579.75.75v2.5c0 1.51878-1.23122 2.75-2.75 2.75z"/><path d="m12 2.75c0-.41421.3358-.75.75-.75s.75.33579.75.75v2.5c0 .69036.5596 1.25 1.25 1.25h2.5c.4142 0 .75.33579.75.75s-.3358.75-.75.75h-2.5c-1.5188 0-2.75-1.23122-2.75-2.75z"/><path d="m18 12.75c0-.4142-.3358-.75-.75-.75h-2.5c-1.5188 0-2.75 1.2312-2.75 2.75v2.5c0 .4142.3358.75.75.75s.75-.3358.75-.75v-2.5c0-.6904.5596-1.25 1.25-1.25h2.5c.4142 0 .75-.3358.75-.75z"/><path d="m8 17.25c0 .4142-.33579.75-.75.75s-.75-.3358-.75-.75v-2.5c0-.6904-.55964-1.25-1.25-1.25h-2.5c-.41421 0-.75-.3358-.75-.75s.33579-.75.75-.75h2.5c1.51878 0 2.75 1.2312 2.75 2.75z"/></g></svg>