<svg fill="none" height="24" viewBox="0 0 24 24" width="24" xmlns="http://www.w3.org/2000/svg"><g fill="#00a008"><path d="m3.25 10c-.41421 0-.75-.33579-.75-.75s.33579-.75.75-.75h3.5c.9665 0 1.75-.7835 1.75-1.75v-3.5c0-.41421.33579-.75.75-.75s.75.33579.75.75v3.5c0 1.79493-1.45507 3.25-3.25 3.25z"/><path d="m14 3.25c0-.41421.3358-.75.75-.75s.75.33579.75.75v3.5c0 .9665.7835 1.75 1.75 1.75h3.5c.4142 0 .75.33579.75.75s-.3358.75-.75.75h-3.5c-1.7949 0-3.25-1.45507-3.25-3.25z"/><path d="m21.5 14.75c0-.4142-.3358-.75-.75-.75h-3.5c-1.7949 0-3.25 1.4551-3.25 3.25v3.5c0 .4142.3358.75.75.75s.75-.3358.75-.75v-3.5c0-.9665.7835-1.75 1.75-1.75h3.5c.4142 0 .75-.3358.75-.75z"/><path d="m10 20.75c0 .4142-.33579.75-.75.75s-.75-.3358-.75-.75v-3.5c0-.9665-.7835-1.75-1.75-1.75h-3.5c-.41421 0-.75-.3358-.75-.75s.33579-.75.75-.75h3.5c1.79493 0 3.25 1.4551 3.25 3.25z"/></g></svg>