<svg fill="none" height="16" viewBox="0 0 16 16" width="16" xmlns="http://www.w3.org/2000/svg"><g fill="#00a008"><path d="m8 8c-.41421 0-.75.33579-.75.75v1.5c0 .4142.33579.75.75.75s.75-.3358.75-.75v-1.5c0-.41421-.33579-.75-.75-.75z"/><path clip-rule="evenodd" d="m3.5 4.58697c-1.43335.33858-2.5 1.62624-2.5 3.16303v3.5c0 1.7949 1.45507 3.25 3.25 3.25h7.5c1.7949 0 3.25-1.4551 3.25-3.25v-3.5c0-1.53679-1.0666-2.82445-2.5-3.16303v-.58697c0-1.38071-1.1193-2.5-2.5-2.5h-4c-1.38071 0-2.5 1.11929-2.5 2.5zm6.5-1.58697h-4c-.55228 0-1 .44772-1 1v.5h6v-.5c0-.55228-.4477-1-1-1zm-7.5 4.75c0-.9665.7835-1.75 1.75-1.75h7.5c.9665 0 1.75.7835 1.75 1.75v3.5c0 .9665-.7835 1.75-1.75 1.75h-7.5c-.9665 0-1.75-.7835-1.75-1.75z" fill-rule="evenodd"/></g></svg>