<svg fill="none" height="20" viewBox="0 0 20 20" width="20" xmlns="http://www.w3.org/2000/svg"><g fill="#00a008"><path d="m10 10c-.41421 0-.75.3358-.75.75v2.5c0 .4142.33579.75.75.75.4142 0 .75-.3358.75-.75v-2.5c0-.4142-.3358-.75-.75-.75z"/><path clip-rule="evenodd" d="m5.5 6.0082c-1.95451.12865-3.5 1.75474-3.5 3.7418v4.5c0 2.0711 1.67893 3.75 3.75 3.75h8.5c2.0711 0 3.75-1.6789 3.75-3.75v-4.5c0-1.98706-1.5455-3.61315-3.5-3.7418v-1.0082c0-1.65685-1.3431-3-3-3h-3c-1.65685 0-3 1.34315-3 3zm6-2.5082h-3c-.82843 0-1.5.67157-1.5 1.5v1h6v-1c0-.82843-.6716-1.5-1.5-1.5zm-8 6.25c0-1.24264 1.00736-2.25 2.25-2.25h8.5c1.2426 0 2.25 1.00736 2.25 2.25v4.5c0 1.2426-1.0074 2.25-2.25 2.25h-8.5c-1.24264 0-2.25-1.0074-2.25-2.25z" fill-rule="evenodd"/></g></svg>