<svg fill="none" height="24" viewBox="0 0 24 24" width="24" xmlns="http://www.w3.org/2000/svg"><g fill="#00a008"><path d="m12 12c-.4142 0-.75.3358-.75.75v3.5c0 .4142.3358.75.75.75s.75-.3358.75-.75v-3.5c0-.4142-.3358-.75-.75-.75z"/><path clip-rule="evenodd" d="m6.5 7.50723c-2.23084.12941-4 1.97948-4 4.24277v5.5c0 2.3472 1.90279 4.25 4.25 4.25h10.5c2.3472 0 4.25-1.9028 4.25-4.25v-5.5c0-2.26329-1.7692-4.11336-4-4.24277v-2.00723c0-1.65685-1.3431-3-3-3h-5c-1.65685 0-3 1.34315-3 3zm8-3.50723h-5c-.82843 0-1.5.67157-1.5 1.5v2h8v-2c0-.82843-.6716-1.5-1.5-1.5zm-10.5 7.75c0-1.5188 1.23122-2.75 2.75-2.75h10.5c1.5188 0 2.75 1.2312 2.75 2.75v5.5c0 1.5188-1.2312 2.75-2.75 2.75h-10.5c-1.51878 0-2.75-1.2312-2.75-2.75z" fill-rule="evenodd"/></g></svg>