<svg fill="none" height="16" viewBox="0 0 16 16" width="16" xmlns="http://www.w3.org/2000/svg"><rect fill="#e70b17" height="14" rx="7" width="14" x="1" y="1"/><path clip-rule="evenodd" d="m2 8c0 3.3137 2.68629 6 6 6 3.3137 0 6-2.6863 6-6 0-3.31371-2.6863-6-6-6-3.31371 0-6 2.68629-6 6zm6-7c-3.86599 0-7 3.13401-7 7 0 3.866 3.13401 7 7 7 3.866 0 7-3.134 7-7 0-3.86599-3.134-7-7-7z" fill="#1d1f26" fill-opacity=".2" fill-rule="evenodd"/><g fill="#fff"><path d="m8.75 5.25c.4496 0 .874.10789 1.24872.2992-.63517-.64751-1.52004-1.0492-2.49872-1.0492-1.933 0-3.5 1.567-3.5 3.5s1.567 3.5 3.5 3.5c.97868 0 1.86355-.4017 2.49872-1.0492-.37472.1913-.79912.2992-1.24872.2992-1.51878 0-2.75-1.23122-2.75-2.75s1.23122-2.75 2.75-2.75z"/><path d="m9.26383 10 1.23617-.68233 1.2362.68121-.2362-1.44631 1-1.02349-1.383-.21253-.617-1.31655-.61702 1.31544-1.38298.21252 1 1.02573z"/></g></svg>