<svg fill="none" height="20" viewBox="0 0 20 20" width="20" xmlns="http://www.w3.org/2000/svg"><circle cx="10" cy="10" fill="#e70b17" r="9"/><path d="m11 7c.581 0 1.1234.16514 1.5828.45104-.7337-.88635-1.8423-1.45104-3.0828-1.45104-2.20914 0-4 1.79086-4 4 0 2.2091 1.79086 4 4 4 1.2405 0 2.3491-.5647 3.0828-1.451-.4594.2859-1.0018.451-1.5828.451-1.65685 0-3-1.3431-3-3 0-1.65685 1.34315-3 3-3z" fill="#fff"/><path d="m11.9548 12 1.5452-.7676 1.5452.7663-.2952-1.6271 1.25-1.15138-1.7287-.2391-.7713-1.48112-.7713 1.47987-1.7287.23909 1.25 1.15394z" fill="#fff"/><path clip-rule="evenodd" d="m10 18c4.4183 0 8-3.5817 8-8 0-4.41828-3.5817-8-8-8-4.41828 0-8 3.58172-8 8 0 4.4183 3.58172 8 8 8zm0 1c4.9706 0 9-4.0294 9-9 0-4.97056-4.0294-9-9-9-4.97056 0-9 4.02944-9 9 0 4.9706 4.02944 9 9 9z" fill="#1d1f26" fill-opacity=".2" fill-rule="evenodd"/></svg>