<svg fill="none" height="24" viewBox="0 0 24 24" width="24" xmlns="http://www.w3.org/2000/svg"><circle cx="12" cy="12" fill="#e70b17" r="10"/><path d="m13 9c.581 0 1.1234.16514 1.5828.45104-.7337-.88635-1.8423-1.45104-3.0828-1.45104-2.20914 0-4 1.79086-4 4 0 2.2091 1.79086 4 4 4 1.2405 0 2.3491-.5647 3.0828-1.451-.4594.2859-1.0018.451-1.5828.451-1.6569 0-3-1.3431-3-3s1.3431-3 3-3z" fill="#fff"/><path d="m13.9548 14 1.5452-.7676 1.5452.7663-.2952-1.6271 1.25-1.1514-1.7287-.2391-.7713-1.4811-.7713 1.4799-1.7287.2391 1.25 1.1539z" fill="#fff"/><path clip-rule="evenodd" d="m12 21c4.9706 0 9-4.0294 9-9 0-4.97056-4.0294-9-9-9-4.97056 0-9 4.02944-9 9 0 4.9706 4.02944 9 9 9zm0 1c5.5228 0 10-4.4772 10-10 0-5.52285-4.4772-10-10-10-5.52285 0-10 4.47715-10 10 0 5.5228 4.47715 10 10 10z" fill="#1d1f26" fill-opacity=".2" fill-rule="evenodd"/></svg>