<svg fill="none" height="16" viewBox="0 0 16 16" width="16" xmlns="http://www.w3.org/2000/svg"><g fill="#00a008"><path clip-rule="evenodd" d="m7.37402 9.4209c.35082-.3294.90108-.3293 1.25196 0l.07226.07519 2.97266 3.49321c.5063.5951.0831 1.5104-.6982 1.5107h-5.94536c-.78131-.0003-1.20442-.9156-.69824-1.5107l2.97266-3.49321zm-1.08496 3.5791h3.42188l-1.71094-2.0107z" fill-rule="evenodd"/><path d="m11.5 1.5c1.8868.00018 3.416 1.53013 3.416 3.41699v3.33301c0 1.17492-.5938 2.2105-1.4941 2.8242-.3423.2331-.8088.145-1.042-.1972-.2329-.3422-.1447-.8088.1972-1.04204.508-.34624.8389-.92694.8389-1.58496v-3.33301c0-1.05843-.8576-1.91681-1.916-1.91699h-7c-1.0584.00017-1.91699.85855-1.91699 1.91699v3.33301c.00006.65783.33111 1.23869.83887 1.58496.34223.23324.43044.69974.19726 1.04204-.23331.3421-.69976.4305-1.04199.1972-.90013-.6137-1.49408-1.64948-1.49414-2.8242v-3.33301c0-1.88686 1.53016-3.41682 3.41699-3.41699z"/></g></svg>