<svg fill="none" height="20" viewBox="0 0 20 20" width="20" xmlns="http://www.w3.org/2000/svg"><g fill="#00a008"><path clip-rule="evenodd" d="m9.3252 11.6543c.3716-.3699.978-.3699 1.3496 0l.0752.085 3.7354 4.707c.4983.628.0516 1.5534-.75 1.5537h-7.47075c-.80153-.0002-1.24906-.9257-.75098-1.5537l3.73535-4.707zm-1.93946 4.8457h5.22756l-2.61428-3.2939z" fill-rule="evenodd"/><path d="m14.25 2c2.3472 0 4.25 1.90279 4.25 4.25v4.5c0 2.0355-1.4302 3.7353-3.3398 4.1523-.4047.0884-.8043-.1685-.8926-.5732-.0882-.4045.1677-.8042.5722-.8926 1.2355-.2697 2.1602-1.3709 2.1602-2.6865v-4.5c0-1.51878-1.2312-2.75-2.75-2.75h-8.5c-1.51878 0-2.75 1.23122-2.75 2.75v4.5c0 1.3156.92474 2.4168 2.16016 2.6865.40452.0884.66045.488.57226.8926-.08835.4047-.4879.6616-.89258.5732-1.90969-.417-3.33984-2.1168-3.33984-4.1523v-4.5c0-2.34721 1.90279-4.25 4.25-4.25z"/></g></svg>