<svg fill="none" height="24" viewBox="0 0 24 24" width="24" xmlns="http://www.w3.org/2000/svg"><g fill="#00a008"><path clip-rule="evenodd" d="m11.2598 14.4492c.3719-.4091.9985-.435 1.4023-.0771l.0781.0771 4.4346 4.8779c.5839.6424.1279 1.6729-.7402 1.6729h-8.86917c-.8681 0-1.32408-1.0305-.74023-1.6729zm-2.56449 5.0508h6.60939l-3.3047-3.6357z" fill-rule="evenodd"/><path d="m17.25 3c2.6234 0 4.75 2.12665 4.75 4.75v5c0 2.3198-1.6623 4.25-3.8604 4.667-.4068.0771-.7997-.1908-.8769-.5977-.077-.4068.1908-.7988.5977-.8759 1.5032-.2852 2.6396-1.6076 2.6396-3.1934v-5c0-1.79493-1.4551-3.25-3.25-3.25h-10.5c-1.79493 0-3.25 1.45507-3.25 3.25v5c0 1.5858 1.13644 2.9082 2.63965 3.1934.40685.0771.67465.4691.59765.8759-.07718.4069-.47006.6748-.87695.5977-2.19806-.417-3.86035-2.3472-3.86035-4.667v-5c0-2.62335 2.12665-4.75 4.75-4.75z"/></g></svg>