<svg fill="none" height="16" viewBox="0 0 16 16" width="16" xmlns="http://www.w3.org/2000/svg"><g fill="#00a008"><path d="m4 5.25c0-.41421.33579-.75.75-.75h5.5c.4142 0 .75.33579.75.75s-.3358.75-.75.75h-5.5c-.41421 0-.75-.33579-.75-.75z"/><path d="m4.75 7.5c-.41421 0-.75.33579-.75.75s.33579.75.75.75h2.5c.41421 0 .75-.33579.75-.75s-.33579-.75-.75-.75z"/><path clip-rule="evenodd" d="m1 4.5c0-1.933 1.567-3.5 3.5-3.5h7c1.933 0 3.5 1.567 3.5 3.5v5c0 1.933-1.567 3.5-3.5 3.5h-3.25l-3.00579 1.8024c-.99999.5714-2.24421-.1507-2.24421-1.3024v-.8368c-1.18247-.5617-2-1.767-2-3.1632zm3.5 7.2151v1.7849l3.35165-2h3.64835c1.1046 0 2-.8954 2-2v-5c0-1.10457-.8954-2-2-2h-7c-1.10457 0-2 .89543-2 2v5c0 .7956.46445 1.4856 1.14364 1.8083z" fill-rule="evenodd"/></g></svg>