<svg fill="none" height="20" viewBox="0 0 20 20" width="20" xmlns="http://www.w3.org/2000/svg"><g fill="#00a008"><path d="m5 6.75c0-.41421.33579-.75.75-.75h6.5c.4142 0 .75.33579.75.75s-.3358.75-.75.75h-6.5c-.41421 0-.75-.33579-.75-.75z"/><path d="m5.75 9c-.41421 0-.75.33579-.75.75 0 .4142.33579.75.75.75h3.5c.41421 0 .75-.3358.75-.75 0-.41421-.33579-.75-.75-.75z"/><path clip-rule="evenodd" d="m2 6c0-2.20914 1.79086-4 4-4h8c2.2091 0 4 1.79086 4 4v6c0 2.2091-1.7909 4-4 4h-3.4l-3.22814 2.7206c-.99281.7091-2.37186-.0005-2.37186-1.2206v-1.626c-1.72523-.4441-3-2.0102-3-3.874zm4.5 8.7112v2.7888l3.6193-3h3.8807c1.3807 0 2.5-1.1193 2.5-2.5v-6c0-1.38071-1.1193-2.5-2.5-2.5h-8c-1.38071 0-2.5 1.11929-2.5 2.5v6c0 1.1628.7953 2.1437 1.87389 2.4213z" fill-rule="evenodd"/></g></svg>