<svg fill="none" height="24" viewBox="0 0 24 24" width="24" xmlns="http://www.w3.org/2000/svg"><g fill="#00a008"><path d="m6 7.75c0-.41421.33579-.75.75-.75h8.5c.4142 0 .75.33579.75.75s-.3358.75-.75.75h-8.5c-.41421 0-.75-.33579-.75-.75z"/><path d="m6.75 10c-.41421 0-.75.3358-.75.75s.33579.75.75.75h3.5c.4142 0 .75-.3358.75-.75s-.3358-.75-.75-.75z"/><path clip-rule="evenodd" d="m7 18.5c-2.48528 0-4.5-2.0147-4.5-4.5v-7c0-2.48528 2.01472-4.5 4.5-4.5h10c2.4853 0 4.5 2.01472 4.5 4.5v7c0 2.4853-2.0147 4.5-4.5 4.5h-3.7l-3.92814 3.2206c-.99281.7091-2.37186-.0005-2.37186-1.2206zm.5-1.5c.55228 0 1 .4477 1 1v2.5l4.0585-3.3137c.1696-.1212.3728-.1863.5813-.1863h3.8602c1.6569 0 3-1.3431 3-3v-7c0-1.65685-1.3431-3-3-3h-10c-1.65685 0-3 1.34315-3 3v7c0 1.6569 1.34315 3 3 3z" fill-rule="evenodd"/></g></svg>