<svg fill="none" height="16" viewBox="0 0 16 16" width="16" xmlns="http://www.w3.org/2000/svg"><g fill="#00a008"><path d="m7.99979 7.00019c.55229 0 1 .44772 1 1-.00005.55224-.44775 1-1 1-.55215-.00011-.99995-.44783-1-1 0-.55222.44781-.99989 1-1z"/><path clip-rule="evenodd" d="m7.99784 2.79999c2.38246-1.42825 4.67546-1.75123 5.81346-.61328l.1416.15723c.9654 1.1831.6093 3.37802-.7558 5.65527 1.428 2.38219 1.752 4.67459.6142 5.81249-1.138 1.138-3.431.8142-5.81346-.6142-2.38196 1.4277-4.67366 1.7519-5.81152.6142-1.13787-1.1378-.81464-3.4304.61328-5.81249-1.36502-2.27718-1.72031-4.47222-.75489-5.65527l.14161-.15723c1.13784-1.13758 3.42963-.81431 5.81152.61328zm-4.25195 6.58008c-.20436.39831-.36774.78383-.48926 1.14843-.46955 1.4087-.19413 2.0383-.00977 2.2227.18451.1843.81427.4597 2.22266-.0098.36444-.1215.74929-.286 1.14746-.4902-.41261-.3197-.82166-.6706-1.22168-1.0508l-.30273-.2949c-.49556-.4956-.94579-1.00785-1.34668-1.52543zm8.50491 0c-.4009.51748-.8503 1.02993-1.3457 1.52543l-.3028.2949c-.4.3803-.80998.7301-1.22263 1.0498.39851.2045.78373.3696 1.14843.4912 1.4085.4694 2.0383.1941 2.2227.0098.1843-.1845.4596-.8143-.0098-2.2227-.1215-.3646-.2858-.75003-.4902-1.14843zm-4.25296-4.79004c-.61579.43579-1.23941.95817-1.84473 1.56348-.60553.60552-1.12759 1.22971-1.56347 1.8457.43585.61592.95801 1.24026 1.56347 1.84571.60503.60498 1.22923 1.12588 1.84473 1.56148.6159-.4358 1.24124-.9561 1.84668-1.56148.60538-.60542 1.12568-1.2308 1.56148-1.84668-.4356-.61548-.9565-1.23972-1.56148-1.84473-.60567-.60566-1.23055-1.12754-1.84668-1.56348zm-2.52832-1.333c-1.4083-.46943-2.03811-.19413-2.22266-.00977-.18436.18436-.45979.814.00977 2.22266.12146.36434.28507.74941.48926 1.14746.40082-.51745.85125-1.029 1.34668-1.52442.49523-.49522 1.00618-.94598 1.52343-1.34668-.39774-.20399-.78239-.36787-1.14648-.48925zm7.28128-.00977c-.1844-.18436-.814-.45979-2.2227.00977-.3646.12152-.75011.2849-1.14843.48925.5176.4009 1.02983.85114 1.52543 1.34668.4952.49527.9449 1.00713 1.3457 1.52442.2042-.39817.3687-.78302.4902-1.14746.4695-1.40856.1941-2.03825.0098-2.22266z" fill-rule="evenodd"/></g></svg>