<svg fill="none" height="20" viewBox="0 0 20 20" width="20" xmlns="http://www.w3.org/2000/svg"><g fill="#00a008"><path d="m9.99993 8.49986c.82837 0 1.49987.67164 1.49997 1.5 0 .82844-.6715 1.50004-1.49997 1.50004-.82839-.0001-1.5-.6716-1.5-1.50004.00008-.82833.67166-1.49996 1.5-1.5z"/><path clip-rule="evenodd" d="m9.99798 3.59849c2.93192-1.75743 5.75382-2.15509 7.15432-.75488 1.4005 1.40048 1.0018 4.22211-.7559 7.15429 1.7577 2.9322 2.1564 5.7538.7559 7.1543l-.1934.1738c-1.456 1.1884-4.1581.7514-6.96092-.9287-2.80278 1.6799-5.50507 2.1172-6.96094.9287l-.19336-.1738c-1.40023-1.4005-1.00165-4.2223.75586-7.1543-1.75748-2.93199-2.15616-5.75382-.75586-7.15429 1.40036-1.40036 4.22239-1.0024 7.1543.75488zm-5.46485 7.79301c-.29538.5575-.52967 1.0987-.70019 1.6103-.59066 1.7722-.29718 2.7192.07226 3.0889.36952.3695 1.3165.6629 3.08887.0722.5113-.1704 1.05212-.405 1.60938-.7002-.6112-.4535-1.21873-.9627-1.80958-1.5244l-.37304-.3632c-.70724-.7073-1.33807-1.4428-1.8877-2.1836zm10.92967 0c-.5496.7408-1.1805 1.4763-1.8877 2.1836l-.373.3632c-.591.5617-1.1983 1.0709-1.8096 1.5244.5573.2953 1.098.5298 1.6094.7002 1.7723.5907 2.7192.2973 3.0888-.0722.3696-.3696.6631-1.3164.0723-3.0889-.1705-.5116-.4048-1.0527-.7002-1.6103zm-5.46482-6.01176c-.84087.57597-1.69379 1.27875-2.51661 2.10156-.82285.82287-1.52558 1.67569-2.10156 2.5166.57598.8409 1.27871 1.6937 2.10156 2.5166.82265.8226 1.67592 1.5247 2.51661 2.1006.84082-.5759 1.69382-1.2779 2.51662-2.1006.8227-.8227 1.5246-1.6759 2.1006-2.5166-.576-.8407-1.278-1.69394-2.1006-2.5166-.8229-.82287-1.6757-1.52558-2.51662-2.10156zm-3.00391-1.54688c-1.77234-.59063-2.71935-.29724-3.08887.07227-.36946.36961-.6629 1.31662-.07226 3.08887.17043.5113.40502 1.05211.70019 1.60937.54953-.74063 1.18066-1.47557 1.8877-2.18262.70715-.70714 1.44187-1.33908 2.18262-1.88867-.5571-.29504-1.09822-.52883-1.60938-.69922zm9.09663.07227c-.3696-.36945-1.3166-.66293-3.0888-.07227-.5116.17055-1.0528.40479-1.6104.7002.7409.54964 1.4764 1.18045 2.1836 1.88769.707.70699 1.3382 1.44205 1.8877 2.18262.2952-.55734.5298-1.098.7002-1.60937.5908-1.77254.2973-2.71934-.0723-3.08887z" fill-rule="evenodd"/></g></svg>