<svg fill="none" height="24" viewBox="0 0 24 24" width="24" xmlns="http://www.w3.org/2000/svg"><g fill="#00a008"><path d="m12.0001 10c1.1045.0001 2 .8955 2 2s-.8955 1.9999-2 2c-1.1045 0-1.9999-.8955-2-2 0-1.1046.8955-2 2-2z"/><path clip-rule="evenodd" d="m11.9972 4.39843c3.4817-2.08686 6.833-2.55938 8.4961-.89648l.1074.1123c1.5343 1.69845 1.0359 4.97793-1.0049 8.38285 2.087 3.4816 2.5602 6.8319.8975 8.4951-1.6632 1.6632-5.0141 1.19-8.4961-.8975-3.48162 2.087-6.83112 2.5605-8.49414.8975-1.66285-1.6631-1.1912-5.0136.89551-8.4951-2.04047-3.40469-2.53715-6.68451-1.00293-8.38285l.10742-.1123c1.66299-1.66245 5.013-1.18973 8.49414.89648zm-6.67187 9.00387c-.38773.7167-.69329 1.414-.91309 2.0733-.71211 2.1364-.40161 3.401.15234 3.9551.55403.554 1.8185.8645 3.95508.1523.65919-.2198 1.35571-.5264 2.07224-.9141-.80999-.5831-1.6164-1.2488-2.39841-1.9921l-.44336-.4317c-.9194-.9194-1.73066-1.8784-2.4248-2.8428zm13.34377.001c-.6939.9639-1.504 1.9229-2.4229 2.8418l-.4433.4317c-.7824.7436-1.5901 1.4088-2.4004 1.9921.7171.388 1.4145.6942 2.0742.9141 2.1365.7121 3.4011.4017 3.9551-.1523.5538-.5543.8643-1.819.1523-3.9551-.2198-.6593-.5273-1.3556-.915-2.0723zm-6.6719-7.22557c-1.0648.7141-2.14582 1.59509-3.18457 2.63379-1.03896 1.03896-1.92054 2.12048-2.63476 3.18558.71427 1.0652 1.59564 2.1464 2.63476 3.1855 1.03872 1.0387 2.11977 1.9197 3.18457 2.6338 1.0651-.7143 2.1475-1.5947 3.1865-2.6338 1.0388-1.0388 1.9187-2.1206 2.6328-3.1855-.7141-1.0649-1.594-2.14684-2.6328-3.18558-1.0391-1.03914-2.1213-1.91951-3.1865-2.63379zm-3.47754-1.7666c-2.13612-.71201-3.40086-.40146-3.95508.15234-.55399.554-.86435 1.81871-.15234 3.95508.21974.65921.52545 1.35666.91309 2.07325.69405-.96421 1.50553-1.92351 2.4248-2.84278.91921-.91917 1.87766-1.73081 2.84177-2.42481-.71635-.38749-1.41321-.6934-2.07224-.91308zm10.91214.15234c-.5541-.55392-1.8189-.8643-3.9551-.15234-.6593.21976-1.3566.52635-2.0732.91406.9641.69403 1.9235 1.5046 2.8427 2.42383.9189.91884 1.729 1.87804 2.4229 2.84178.3876-.71652.6953-1.41309.915-2.07225.712-2.13628.4017-3.4011-.1523-3.95508z" fill-rule="evenodd"/></g></svg>