<svg fill="none" height="16" viewBox="0 0 16 16" width="16" xmlns="http://www.w3.org/2000/svg"><g fill="#00a008"><path d="m10.0291 10.82c.1686-.4266.7727-.4266.9414 0l.4023 1.0215c.0514.13.1552.2327.2852.2841l1.0215.4034c.4269.1685.4268.7728 0 .9414l-1.0215.4023c-.1301.0514-.2337.1551-.2852.2852l-.4023 1.0215c-.1579.4004-.6994.4255-.9053.0751l-.0361-.0751-.40334-1.0215c-.04506-.1137-.12983-.2078-.2373-.2637l-.04687-.0215-1.02149-.4023c-.42679-.1686-.4269-.7729 0-.9414l1.02149-.4034c.11349-.045.2068-.129.26269-.2363l.02148-.0478z"/><g clip-rule="evenodd" fill-rule="evenodd"><path d="m3.98026 4.35318c.18609-.4708.85293-.47077 1.03906 0l.79492 2.0166c.05666.14353.17103.25759.31445.31446l2.01758.7959c.4712.18594.4711.85301 0 1.03906l-2.01758.79492c-.14342.05672-.25764.17107-.31445.31445l-.79492 2.01763c-.1743.4419-.77184.4696-.99902.083l-.04004-.083-.7959-2.01763c-.04975-.12537-.14315-.2284-.26172-.29004l-.05273-.02441-2.016606-.79492c-.471007-.18609-.471137-.85311 0-1.03906l2.016606-.7959c.12575-.04972.22928-.14284.29101-.26172l.02344-.05274zm.51172 2.76074c-.19956.38421-.51438.69149-.89454.88477l.01661.00879c.3815.19827.69035.51163.88476.89355.19757-.38836.51382-.70477.90235-.90234-.38703-.197-.70329-.51196-.90137-.90137z"/><path d="m11.4353 1.38443c.2024-.511946.9266-.5119 1.1289 0l.4834 1.22461c.0617.15625.1857.28099.3418.34278l.6973.27441.5283.20898c.5124.20218.5123.92662 0 1.12891l-.5283.20801-.6973.27539c-.1561.0617-.28.18667-.3418.34277l-.4834 1.22461c-.1895.48051-.8389.51121-1.0859.09082l-.043-.09082-.4843-1.22461c-.054-.13651-.1552-.24928-.2842-.3164l-.0576-.02637-1.22562-.4834c-.51169-.20247-.51181-.92656 0-1.12891l1.22562-.48339c.1367-.05403.2492-.15595.3164-.28516l.0254-.05762zm.5635 2.35547c-.0789.094-.1658.18092-.2598.25977.0943.07918.1812.16591.2598.25976.0787-.09384.1648-.18174.2588-.26074-.0937-.07882-.1803-.16515-.2588-.25879z"/></g></g></svg>