<svg fill="none" height="20" viewBox="0 0 20 20" width="20" xmlns="http://www.w3.org/2000/svg"><path d="m12.4355 12.8843c.2024-.5119.9265-.5118 1.1289 0l.4834 1.2256c.0617.1561.1858.28.3418.3418l1.2256.4834.0899.0439c.4205.247.3907.8964-.0899 1.086l-1.2256.4834c-.1561.0617-.2801.1856-.3418.3418l-.4834 1.2256c-.1776.4504-.7595.5053-1.0351.164l-.0508-.0732-.043-.0908-.4843-1.2256c-.0541-.1365-.1552-.2494-.2842-.3164l-.0576-.0254-1.2256-.4834c-.51192-.2025-.51215-.9277 0-1.1299l1.2256-.4834c.1367-.054.2492-.155.3164-.2842l.0254-.0576zm.5635 2.3555c-.0792.0942-.1658.181-.2598.2597.0944.0793.1812.166.2598.2598.0789-.094.1658-.1809.2598-.2598-.094-.0788-.1808-.1656-.2598-.2597zm-8.08301-9.34189c.20928-.52987.95863-.52982 1.16797 0l.89551 2.26955c.06386.16143.19207.28966.35351.35351l2.26954.89552c.52968.20938.52988.95871 0 1.16801l-2.26954.8955c-.16161.0638-.28966.1919-.35351.3535l-.89551 2.2695-.04199.0879c-.22064.3836-.7623.4105-1.02833.0811l-.05273-.0762-.04492-.0928-.89551-2.2695c-.05594-.1414-.16124-.2577-.29493-.3272l-.05859-.0263-2.26953-.8955c-.52986-.2094-.529951-.95877 0-1.16801l2.26953-.89552c.14141-.05589.25671-.16127.32617-.29492l.02735-.05859zm.4834 2.86232-.01954.04102-.04101.08789-.01465.02832c-.23353.44939-.62312.80726-1.10547.99805l-.00098.00098-.21289.08401.24512.0967.03223.0146.09765.0439.03711.0196c.3978.2066.71932.5334.91993.9316l.07812.1748.00098.001.08398.2119.08399-.2119c.21636-.5473.65083-.9819 1.19824-1.1982l.21192-.084-.21192-.08401-.00098-.00098c-.54671-.21627-.9799-.64937-1.19629-1.19629l-.00097-.00098-.08399-.21289zm8.44141-6.81156c.2359-.59766 1.0813-.59749 1.3174 0l.5644 1.4297c.072.18222.2173.32641.3995.39844l1.4297.56445c.5974.23602.5974 1.08136 0 1.31739l-1.4297.56446c-.1823.07196-.3274.21626-.3995.39844l-.5644 1.4297c-.2073.52543-.8855.58936-1.207.1914l-.0596-.08594-.0508-.10546-.5644-1.4297c-.0631-.15921-.1815-.28992-.3321-.36817l-.0664-.03027-1.4297-.56446c-.5975-.23606-.5976-1.08149 0-1.31739l1.4297-.56445c.1596-.06301.2908-.18127.3692-.33204l.0293-.0664zm.6592 2.3213c-.1832.29912-.4331.5491-.7295.73048.298.18263.5477.43246.7295.72949.183-.29867.4332-.54867.7305-.73047-.2968-.18154-.5474-.43061-.7305-.7295z" fill="#00a008"/></svg>