<svg fill="none" height="24" viewBox="0 0 24 24" width="24" xmlns="http://www.w3.org/2000/svg"><path d="m14.8408 14.9483c.2359-.5976 1.0813-.5974 1.3174 0l.5645 1.4296c.0719.1824.2171.3274.3994.3995l1.4297.5634c.5977.2359.5976 1.0814 0 1.3174l-1.4297.5645c-.1824.072-.3274.2171-.3994.3994l-.5645 1.4297c-.2213.5602-.9785.5949-1.2666.1045l-.0508-.1045-.5635-1.4297c-.063-.1594-.1823-.2908-.333-.3692l-.0664-.0302-1.4297-.5645c-.5974-.2361-.5976-1.0815 0-1.3174l1.4297-.5634c.1597-.063.2908-.1822.3692-.333l.0302-.0665zm.6602 2.3212c-.1819.2973-.4316.5478-.7295.7305.2968.1821.5464.4317.7285.7285.1822-.2971.4323-.5464.7295-.7285-.2973-.1822-.5461-.4326-.7285-.7305zm-9.21487-10.76363c.25593-.64714 1.1717-.64703 1.42774 0l1.09375 2.77441c.07799.19739.23528.35354.43261.43164l2.77347 1.09478c.6481.2556.6481 1.172 0 1.4277l-2.77347 1.0937c-.19753.0781-.35456.2351-.43261.4327l-1.09375 2.7734c-.23967.6077-1.0607.646-1.37305.1143l-.05469-.1143-1.09473-2.7734c-.06838-.1728-.19696-.3146-.36035-.3995l-.07129-.0332-2.77441-1.0937c-.64709-.256-.64718-1.1718 0-1.4277l2.77441-1.09478c.17283-.06835.31357-.19697.39844-.36035l.0332-.07129zm.30078 3.32519-.0166.042-.01953.04101-.04688.10063-.01464.0283c-.24902.4794-.66407.8603-1.17774 1.0635l-.00098.0009-1.04687.4121 1.08789.4297.11328.0528.02832.0136.0293.0147c.42294.2196.76533.5674.97949.9922l.08399.1865.00097.001.41211 1.0459.41309-1.045c.23051-.5834.69389-1.0478 1.27734-1.2783l1.04492-.4131-1.04492-.4121-.00097-.0009c-.57863-.2291-1.04436-.6883-1.27637-1.27544l-.41309-1.04687zm9.56539-7.25489c.3033-.76836 1.3908-.76809 1.6944 0l.7256 1.8379c.0925.23442.2783.42101.5127.51367l1.8388.72461c.7685.30332.7684 1.39091 0 1.69434l-1.8388.72558c-.2343.0926-.4202.27838-.5127.5127l-.7256 1.83793c-.2843.7208-1.2584.7664-1.6289.1357l-.0655-.1357-.7246-1.83793c-.081-.20499-.2339-.37392-.4277-.47461l-.0859-.03809-1.8379-.72558c-.7682-.30355-.7684-1.39106 0-1.69434l1.8379-.72461c.2052-.08099.3738-.2338.4746-.42774l.039-.08593zm.6709 2.3877-.0136.03614-.0166.03515-.0391.08594-.0156.03516-.0186.03515c-.267.51378-.712.91762-1.2549 1.13184l-.4492.17578.4492.17773.0284.01172.0283.0127.0859.03808.043.01856.041.02148c.5142.26721.9169.71289 1.1309 1.25391l.0009.00195.1758.44727.1778-.44824.1035-.22657c.2666-.5129.7106-.91542 1.2529-1.12988l.001-.00098.4482-.17773-.4472-.17578-.002-.00098c-.5442-.21525-.9871-.61973-1.2529-1.13184l-.1035-.22558-.1778-.44922z" fill="#00a008"/></svg>