<svg fill="none" height="16" viewBox="0 0 16 16" width="16" xmlns="http://www.w3.org/2000/svg"><g clip-rule="evenodd" fill="#00a008" fill-rule="evenodd"><path d="m5 1h-2c-1.10457 0-2 .89543-2 2v2c0 1.10457.89543 2 2 2h2c1.10457 0 2-.89543 2-2v-2c0-1.10457-.89543-2-2-2zm-2.5 2c0-.27614.22386-.5.5-.5h2c.27614 0 .5.22386.5.5v2c0 .27614-.22386.5-.5.5h-2c-.27614 0-.5-.22386-.5-.5z"/><path d="m5 9h-2c-1.10457 0-2 .89543-2 2v2c0 1.1046.89543 2 2 2h2c1.10457 0 2-.8954 2-2v-2c0-1.10457-.89543-2-2-2zm-2.5 2c0-.2761.22386-.5.5-.5h2c.27614 0 .5.2239.5.5v2c0 .2761-.22386.5-.5.5h-2c-.27614 0-.5-.2239-.5-.5z"/><path d="m11 9h2c1.1046 0 2 .89543 2 2v2c0 1.1046-.8954 2-2 2h-2c-1.10457 0-2-.8954-2-2v-2c0-1.10457.89543-2 2-2zm0 1.5c-.2761 0-.5.2239-.5.5v2c0 .2761.2239.5.5.5h2c.2761 0 .5-.2239.5-.5v-2c0-.2761-.2239-.5-.5-.5z"/><path d="m13 1h-2c-1.10457 0-2 .89543-2 2v2c0 1.10457.89543 2 2 2h2c1.1046 0 2-.89543 2-2v-2c0-1.10457-.8954-2-2-2zm-2.5 2c0-.27614.2239-.5.5-.5h2c.2761 0 .5.22386.5.5v2c0 .27614-.2239.5-.5.5h-2c-.2761 0-.5-.22386-.5-.5z"/></g></svg>