<svg fill="none" height="20" viewBox="0 0 20 20" width="20" xmlns="http://www.w3.org/2000/svg"><g clip-rule="evenodd" fill="#00a008" fill-rule="evenodd"><path d="m2 4.25c0-1.24264 1.00736-2.25 2.25-2.25h2.5c1.24264 0 2.25 1.00736 2.25 2.25v2.5c0 1.24264-1.00736 2.25-2.25 2.25h-2.5c-1.24264 0-2.25-1.00736-2.25-2.25zm2.25-.75h2.5c.41421 0 .75.33579.75.75v2.5c0 .41421-.33579.75-.75.75h-2.5c-.41421 0-.75-.33579-.75-.75v-2.5c0-.41421.33579-.75.75-.75z"/><path d="m2 13.25c0-1.2426 1.00736-2.25 2.25-2.25h2.5c1.24264 0 2.25 1.0074 2.25 2.25v2.5c0 1.2426-1.00736 2.25-2.25 2.25h-2.5c-1.24264 0-2.25-1.0074-2.25-2.25zm2.25-.75h2.5c.41421 0 .75.3358.75.75v2.5c0 .4142-.33579.75-.75.75h-2.5c-.41421 0-.75-.3358-.75-.75v-2.5c0-.4142.33579-.75.75-.75z"/><path d="m13.25 2c-1.2426 0-2.25 1.00736-2.25 2.25v2.5c0 1.24264 1.0074 2.25 2.25 2.25h2.5c1.2426 0 2.25-1.00736 2.25-2.25v-2.5c0-1.24264-1.0074-2.25-2.25-2.25zm2.5 1.5h-2.5c-.4142 0-.75.33579-.75.75v2.5c0 .41421.3358.75.75.75h2.5c.4142 0 .75-.33579.75-.75v-2.5c0-.41421-.3358-.75-.75-.75z"/><path d="m11 13.25c0-1.2426 1.0074-2.25 2.25-2.25h2.5c1.2426 0 2.25 1.0074 2.25 2.25v2.5c0 1.2426-1.0074 2.25-2.25 2.25h-2.5c-1.2426 0-2.25-1.0074-2.25-2.25zm2.25-.75h2.5c.4142 0 .75.3358.75.75v2.5c0 .4142-.3358.75-.75.75h-2.5c-.4142 0-.75-.3358-.75-.75v-2.5c0-.4142.3358-.75.75-.75z"/></g></svg>