<svg fill="none" height="24" viewBox="0 0 24 24" width="24" xmlns="http://www.w3.org/2000/svg"><g clip-rule="evenodd" fill="#00a008" fill-rule="evenodd"><path d="m8.5 3h-3c-1.38071 0-2.5 1.11929-2.5 2.5v3c0 1.38071 1.11929 2.5 2.5 2.5h3c1.38071 0 2.5-1.11929 2.5-2.5v-3c0-1.38071-1.11929-2.5-2.5-2.5zm-4 2.5c0-.55228.44772-1 1-1h3c.55228 0 1 .44772 1 1v3c0 .55228-.44772 1-1 1h-3c-.55228 0-1-.44772-1-1z"/><path d="m8.5 13h-3c-1.38071 0-2.5 1.1193-2.5 2.5v3c0 1.3807 1.11929 2.5 2.5 2.5h3c1.38071 0 2.5-1.1193 2.5-2.5v-3c0-1.3807-1.11929-2.5-2.5-2.5zm-4 2.5c0-.5523.44772-1 1-1h3c.55228 0 1 .4477 1 1v3c0 .5523-.44772 1-1 1h-3c-.55228 0-1-.4477-1-1z"/><path d="m15.5 13h3c1.3807 0 2.5 1.1193 2.5 2.5v3c0 1.3807-1.1193 2.5-2.5 2.5h-3c-1.3807 0-2.5-1.1193-2.5-2.5v-3c0-1.3807 1.1193-2.5 2.5-2.5zm0 1.5c-.5523 0-1 .4477-1 1v3c0 .5523.4477 1 1 1h3c.5523 0 1-.4477 1-1v-3c0-.5523-.4477-1-1-1z"/><path d="m18.5 3h-3c-1.3807 0-2.5 1.11929-2.5 2.5v3c0 1.38071 1.1193 2.5 2.5 2.5h3c1.3807 0 2.5-1.11929 2.5-2.5v-3c0-1.38071-1.1193-2.5-2.5-2.5zm-4 2.5c0-.55228.4477-1 1-1h3c.5523 0 1 .44772 1 1v3c0 .55228-.4477 1-1 1h-3c-.5523 0-1-.44772-1-1z"/></g></svg>