<svg fill="none" height="16" viewBox="0 0 16 16" width="16" xmlns="http://www.w3.org/2000/svg"><g fill="#00a008"><path d="m7.71973 4.19824c.05524-.15499.22661-.23582.38183-.18066.08108.02897.14625.09182.17774.17187l.24902.63477c.03088.07849.09401.1407.17285.1709l.61231.2334c.14976.05733.22428.22537.16699.375-.0301.07838-.0929.14014-.17188.16894l-.60351.21973c-.08119.02974-.14553.09328-.17676.17383l-.24902.64355c-.05926.15312-.23239.22996-.38575.1709-.08127-.03144-.14502-.09754-.17382-.17969l-.21875-.62598c-.03019-.08602-.09847-.15332-.18457-.18359l-.62305-.21875c-.15065-.05297-.22968-.21863-.17676-.36914.02868-.08095.09216-.14506.17285-.1748l.63184-.23243c.08338-.03088.14883-.097.17871-.18066z"/><path clip-rule="evenodd" d="m11.75 1c.4142 0 .75.33579.75.75v.83398h1.7461c.414.00024.75.33594.75.75 0 .98485-.0112 2.38846-.5615 3.63575-.572 1.29577-1.6921 2.35298-3.6963 2.74609l-.2637 1.04398c.901.4281 1.5254 1.3435 1.5254 2.4072v.833c0 .5523-.4477 1-1 1h-6c-.51768 0-.94379-.3933-.99512-.8975l-.00488-.1025v-.833c0-1.0633.62314-1.9799 1.52344-2.4082l-.2627-1.04298c-2.00359-.39326-3.12347-1.45052-3.69531-2.74609-.55035-1.24729-.56152-2.6509-.56152-3.63575 0-.41406.33599-.74976.75-.75h1.74609v-.83398c0-.41421.33579-.75.75-.75zm-5.08301 11c-.64433 0-1.16699.5227-1.16699 1.167v.333h5v-.333c0-.6443-.52266-1.167-1.16699-1.167zm-1.66699-8.55273c0 1.441.3697 2.85819 1.07422 4.11523.22948.40947.40469.84761.51953 1.30273l.41211 1.63477h1.98828l.41211-1.63477c.11484-.45512.29005-.89326.51953-1.30273.70452-1.25704 1.07422-2.67423 1.07422-4.11523v-.94727h-6zm-2.48535.63671c.02603.7867.1159 1.5846.42285 2.28028.28017.63472.75734 1.21972 1.64844 1.5957-.61644-1.20641-.97863-2.52574-1.06543-3.87598zm9.96485 0c-.0868 1.35039-.4499 2.66946-1.0664 3.87598.8916-.37597 1.3691-.96078 1.6494-1.5957.3069-.69568.3968-1.49358.4229-2.28028z" fill-rule="evenodd"/></g></svg>