<svg fill="none" height="20" viewBox="0 0 20 20" width="20" xmlns="http://www.w3.org/2000/svg"><g fill="#00a008"><path d="m9.62633 4.76367c.07365-.20664.30183-.31376.50877-.24023.1082.03858.1953.12169.2373.22851l.3321.84668c.0411.10469.1252.18827.2304.22852l.8164.31055c.1997.07638.2989.30051.2227.5-.0401.10453-.1232.18718-.2285.22558l-.8047.29297c-.1085.03958-.1946.12386-.2363.23145l-.3321.85839c-.079.20411-.3092.30619-.51365.22754-.10852-.04187-.19398-.12962-.23242-.23925l-.292-.83497c-.04035-.11462-.13127-.20486-.24609-.24511l-.83008-.29102c-.20075-.07059-.30663-.29062-.23633-.49121.03814-.10823.12268-.19464.23047-.23437l.84278-.3086c.11135-.04113.19842-.1305.23828-.24219z"/><path clip-rule="evenodd" d="m14.7503 1.54199c.4141.00018.75.3359.75.75v1.125h1.7481c.4141.00013.75.33587.75.75 0 1.17403.0965 2.85379-.4541 4.30762-.2858.75441-.7476 1.46711-1.4815 2.04689-.6649.5253-1.5222.9137-2.6054 1.1494-.0087.0319-.0183.0636-.0264.0957l-.499 1.9854c1.2127.4986 2.0682 1.6886 2.0683 3.081v.417l-.0068.1279c-.0598.5881-.5272 1.0553-1.1152 1.1153l-.128.0068h-7.49995l-.12793-.0068c-.58816-.0598-1.05541-.5271-1.11524-1.1153l-.00683-.1279v-.417c.00013-1.3924.8537-2.5854 2.06641-3.084l-.49708-1.9824c-.00807-.0322-.01962-.0637-.02832-.0957-1.08246-.2357-1.93886-.6245-2.60351-1.1494-.73384-.57973-1.1956-1.29255-1.48145-2.04689-.55065-1.45383-.45411-3.13359-.4541-4.30762 0-.41421.33579-.75.75-.75h1.74805v-1.125c0-.41421.33579-.75.75-.75zm-6.41694 13.45801c-1.01227.0002-1.83284.8207-1.83301 1.833v.167h6.99995v-.167c-.0001-1.0121-.8208-1.8327-1.833-1.833zm-2.33301-10.54297c.00004 1.86764.47719 3.70473 1.38672 5.33594.28192.50563.49673 1.04683.63769 1.60843l.52735 2.0986h2.89649l.5273-2.0986c.141-.5617.3557-1.1027.6377-1.60843.9096-1.63121 1.3867-3.4683 1.3867-5.33594v-1.41504h-7.99995zm-2.50195.45996c-.00522 1.06826.01347 2.11053.36035 3.02637.20335.5366.51701 1.01178 1.00879 1.40039.23362.1845.5169.3546.86035.50488-.74034-1.54172-1.15548-3.22042-1.21875-4.93164zm11.9922 0c-.0633 1.7114-.4793 3.38978-1.2197 4.93164.3441-.15048.6283-.32007.8623-.50488.4918-.38865.8054-.86371 1.0088-1.40039.3468-.91584.3655-1.95812.3603-3.02637z" fill-rule="evenodd"/></g></svg>