<svg fill="none" height="24" viewBox="0 0 24 24" width="24" xmlns="http://www.w3.org/2000/svg"><g fill="#00a008"><path d="m11.5328 6.33008c.0921-.25822.3772-.39254.6358-.30078.1353.04822.2434.15261.2959.28613l.416 1.05859c.0515.13082.1566.2349.2881.28516l1.0195.38867c.2499.0954.3749.37549.2793.625-.0502.13044-.1546.23331-.2861.28125l-1.0059.36621c-.1354.04954-.2438.15475-.2959.28907l-.415 1.07322c-.0989.2549-.3862.3826-.6416.2842-.1355-.0523-.242-.162-.2901-.2988l-.3652-1.043c-.0503-.14354-.1639-.25626-.3076-.30664l-1.03809-.36426c-.25077-.08832-.38277-.36362-.29492-.61426.04762-.13511.15357-.24225.28808-.29199l1.05273-.38672c.1392-.05129.2489-.16225.2988-.30175z"/><path clip-rule="evenodd" d="m18.2496 2c.4143 0 .75.33579.75.75v1.5h2.25c.4143 0 .75.33579.75.75 0 1.4457.0741 3.48493-.6123 5.2695-.3517.9144-.907 1.7797-1.7744 2.4844-.797.6475-1.8265 1.1298-3.1357 1.4121l-.584 2.3086c1.2545.6751 2.1064 2.001 2.1064 3.5254v.5c0 .8284-.6715 1.5-1.5 1.5h-8.99995c-.82826-.0002-1.5-.6717-1.5-1.5v-.5c0-1.5237.85195-2.849 2.10546-3.5244l-.58398-2.3106c-1.30792-.2824-2.33737-.764-3.13379-1.4111-.86704-.7046-1.4218-1.5702-1.77344-2.4844-.68633-1.78454-.6123-3.82384-.6123-5.2695 0-.41409.33596-.74979.75-.75h2.24805v-1.5c0-.41409.33596-.74979.75-.75zm-8.24995 15.5c-1.38054.0002-2.5 1.1194-2.5 2.5v.5h8.99995v-.5c0-1.3807-1.1192-2.5-2.5-2.5zm-3.5-12.16016c.00005 2.27074.58507 4.50327 1.69824 6.48246.33471.595.58922 1.2327.75683 1.8945l.58496 2.3096c.15094-.0173.3044-.0264.45997-.0264h3.99995c.1551 0 .3085.0092.459.0264l.586-2.3096c.1676-.6618.4221-1.2995.7568-1.8945 1.1132-1.97923 1.6982-4.21166 1.6982-6.48246v-1.83984h-10.99995zm12.49415.41016c-.065 2.32967-.6837 4.6108-1.8037 6.6572.6072-.2236 1.0906-.503 1.4775-.8174.6325-.5139 1.0461-1.1489 1.3193-1.85933.4742-1.23287.5113-2.6395.5118-3.98047zm-15.49122 0c.00045 1.34095.03761 2.74762.51171 3.98047.27326.71043.68692 1.34543 1.31934 1.85933.38599.3137.86848.5921 1.47363.8155-1.11907-2.0458-1.73585-4.32664-1.80078-6.6553z" fill-rule="evenodd"/></g></svg>