<svg fill="none" height="16" viewBox="0 0 16 16" width="16" xmlns="http://www.w3.org/2000/svg"><path d="m10.5996 12c0-1.1046.8954-2 2-2s2 .8954 2 2-.8954 2-2 2-2-.8954-2-2z" fill="#d900ff"/><g fill="#00a008"><path clip-rule="evenodd" d="m8 7.5c1.65685 0 3-1.34315 3-3s-1.34315-3-3-3-3 1.34315-3 3 1.34315 3 3 3zm0-1.5c.82843 0 1.5-.67157 1.5-1.5s-.67157-1.5-1.5-1.5-1.5.67157-1.5 1.5.67157 1.5 1.5 1.5z" fill-rule="evenodd"/><path d="m11.4008 9.2491c-.9359-.46917-2.11696-.7491-3.4008-.7491-3.03757 0-5.5 1.567-5.5 3.5s2.46243 3.5 5.5 3.5c1.28384 0 2.4649-.2799 3.4008-.7491-.5282-.2305-.9771-.6087-1.2947-1.0823-.60171.2047-1.31745.3314-2.1061.3314-1.27757 0-2.3638-.3325-3.08377-.7906-.73777-.4695-.91623-.9336-.91623-1.2094s.17846-.7399.91623-1.2094c.71997-.4581 1.8062-.7906 3.08377-.7906.78865 0 1.50439.1267 2.1061.3314.3176-.47364.7665-.8518 1.2947-1.0823z"/></g></svg>