<svg fill="none" height="20" viewBox="0 0 20 20" width="20" xmlns="http://www.w3.org/2000/svg"><path d="m13 14c0-1.6569 1.3431-3 3-3s3 1.3431 3 3-1.3431 3-3 3-3-1.3431-3-3z" fill="#d900ff"/><g fill="#00a008"><path clip-rule="evenodd" d="m10 9.5c2.2091 0 4-1.79086 4-4s-1.7909-4-4-4c-2.20914 0-4 1.79086-4 4s1.79086 4 4 4zm0-1.5c1.3807 0 2.5-1.11929 2.5-2.5s-1.1193-2.5-2.5-2.5c-1.38071 0-2.5 1.11929-2.5 2.5s1.11929 2.5 2.5 2.5z" fill-rule="evenodd"/><path d="m14.0412 17.8702c-.5806-.2642-1.0913-.6553-1.4967-1.1378-.7663.1694-1.6251.2676-2.5445.2676-1.8747 0-3.49752-.4085-4.59742-.9951-1.16435-.621-1.40258-1.224-1.40258-1.5049s.23823-.8839 1.40258-1.5049c1.0999-.5866 2.72272-.9951 4.59742-.9951.6957 0 1.3567.0563 1.9691.157.2448-.5078.5875-.9595 1.0037-1.3305-.9115-.2101-1.9167-.3265-2.9728-.3265-4.14214 0-7.5 1.7909-7.5 4s3.35786 4 7.5 4c1.4881 0 2.8749-.2311 4.0412-.6298z"/></g></svg>