<svg fill="none" height="24" viewBox="0 0 24 24" width="24" xmlns="http://www.w3.org/2000/svg"><path d="m16 17c0-1.6569 1.3431-3 3-3s3 1.3431 3 3-1.3431 3-3 3-3-1.3431-3-3z" fill="#d900ff"/><g fill="#00a008"><path clip-rule="evenodd" d="m12 11.5c2.4853 0 4.5-2.01472 4.5-4.5s-2.0147-4.5-4.5-4.5c-2.48528 0-4.5 2.01472-4.5 4.5s2.01472 4.5 4.5 4.5zm0-1.5c1.6569 0 3-1.34315 3-3s-1.3431-3-3-3-3 1.34315-3 3 1.3431 3 3 3z" fill-rule="evenodd"/><path d="m16.5004 13.2575c-1.3051-.48-2.8477-.7575-4.5004-.7575-4.69442 0-8.5 2.2386-8.5 5s3.80558 5 8.5 5c2.1357 0 4.0875-.4633 5.5806-1.2284-.5996-.1992-1.1432-.5211-1.601-.9359-1.1184.411-2.4809.6643-3.9796.6643-2.12724 0-3.97993-.5103-5.24988-1.2574-1.30462-.7674-1.75012-1.6106-1.75012-2.2426s.4455-1.4752 1.75012-2.2426c1.26995-.7471 3.12264-1.2574 5.24988-1.2574 1.206 0 2.3238.164 3.2971.4422.3228-.4665.7315-.869 1.2033-1.1847z"/></g></svg>