<svg fill="none" height="16" viewBox="0 0 16 16" width="16" xmlns="http://www.w3.org/2000/svg"><g clip-rule="evenodd" fill="#00a008" fill-rule="evenodd"><path d="m5 2c0 1.10457-.89543 2-2 2s-2-.89543-2-2c0-1.104569.89543-2 2-2s2 .895431 2 2zm-1.5 0c0 .27614-.22386.5-.5.5s-.5-.22386-.5-.5.22386-.5.5-.5.5.22386.5.5z"/><path d="m1.76 5c-.41975 0-.76.34028-.76.76v7.48c0 .4197.34027.76.76.76h2.48c.41975 0 .76-.3403.76-.76v-7.48c0-.41974-.34027-.76-.76-.76zm.74 7.5v-6h1v6z"/><path d="m6.76 5c-.08226 0-.25467.01315-.42884.1316-.21625.14707-.33116.38624-.33116.62608v7.48732c0 .0977.01952.2642.13387.4296.11984.1733.28049.2546.39335.2902.09868.0311.18068.034.20256.0347.0182.0007.05349.0005.03022.0005h2.48c.41973 0 .76-.3403.76-.76v-3.37079c0-.11431.0152-.18132.0312-.2235.0342-.09005.1721-.24952.5188-.24952.1592 0 .2419.03572.2838.06157.0434.02671.0844.06848.1212.13914-.0003-.00071.0141.02885.0266.10953.012.07802.0184.1787.0184.30467v3.2289c0 .4197.3403.76.76.76h2.48c.4197 0 .76-.3403.76-.76v-4.01984c0-2.11665-1.3011-3.97016-3.38-3.97016-.6823 0-1.2121.15848-1.63407.36371-.06819-.34974-.37624-.61371-.74593-.61371zm.74 1.5h1v.4812c0 .6045.67812.9748 1.18737.62841.13557-.09222.25598-.1807.36863-.26349.4743-.34854.8112-.59612 1.564-.59612.9764 0 1.88.87838 1.88 2.47016v3.27984h-1v-2.4889c0-.3099-.0241-.74198-.215-1.108-.3044-.58346-.8881-1.00691-1.735-1.00691-.81388 0-1.61539.41139-1.92122 1.21738-.09603.2531-.12878.50911-.12878.75564v2.63079h-1z"/></g></svg>