<svg fill="none" height="20" viewBox="0 0 20 20" width="20" xmlns="http://www.w3.org/2000/svg"><g clip-rule="evenodd" fill="#00a008" fill-rule="evenodd"><path d="m6.5 2.75c0 1.24264-1.00736 2.25-2.25 2.25s-2.25-1.00736-2.25-2.25 1.00736-2.25 2.25-2.25 2.25 1.00736 2.25 2.25zm-1.5 0c0 .41421-.33579.75-.75.75s-.75-.33579-.75-.75.33579-.75.75-.75.75.33579.75.75z"/><path d="m2.76 6c-.41978 0-.76.34031-.76.76v9.48c0 .4197.34026.76.76.76h2.98c.41978 0 .76-.3403.76-.76v-9.48c0-.41974-.34026-.76-.76-.76zm.74 9.5v-8h1.5v8z"/><path d="m8.26 6c-.08766 0-.26089.01523-.43426.13537-.21232.14713-.32572.38395-.32574.62234-.00007.77763-.00975 9.27509-.00999 9.48739-.00011.0905.01634.285.16349.4703.15551.1958.35562.2551.46011.2734.05162.0091.09372.0108.11736.0113.01173.0002.02224.0001.0306-.0001h2.97793c.4198 0 .76-.3403.76-.76v-4.3717c0-.2208.0187-.3515.0501-.4439.0822-.2418.3949-.5178.8099-.5178.3156 0 .5106.156.59.3893.0477.14.05.3053.05.771v4.1731c0 .4197.3403.76.76.76h2.98c.4198 0 .76-.3403.76-.76v-5.2801c0-1.40502-.3301-2.6244-1.0037-3.51162-.6903-.90929-1.6981-1.40828-2.8845-1.40828-.8219 0-1.4674.19734-1.9727.47786-.1011-.30101-.3856-.51786-.7206-.51786zm.73945 1.5h1.67855v.65716c0 .69653.9375 1.0884 1.3877.42863.3067-.44946.8563-1.04579 2.0456-1.04579.7285 0 1.2898.28843 1.6898.81532.4168.54897.6984 1.41453.6984 2.60458v4.5401h-1.5v-3.4331l.0003-.1c.0014-.3443.0031-.7627-.1303-1.1544-.3005-.88278-1.0974-1.40589-2.01-1.40589-1.0396 0-1.9355.66829-2.2301 1.53519-.109.3209-.1299.6423-.1299.9265v3.6317h-1.50865c.002-1.7687.00695-6.18418.0086-8z"/></g></svg>