<svg fill="none" height="24" viewBox="0 0 24 24" width="24" xmlns="http://www.w3.org/2000/svg"><g clip-rule="evenodd" fill="#00a008" fill-rule="evenodd"><path d="m8 2.5c0 1.38071-1.11929 2.5-2.5 2.5s-2.5-1.11929-2.5-2.5 1.11929-2.5 2.5-2.5 2.5 1.11929 2.5 2.5zm-1.5 0c0 .55228-.44772 1-1 1s-1-.44772-1-1 .44772-1 1-1 1 .44772 1 1z"/><path d="m3.76 6c-.41974 0-.76.34027-.76.76v11.48c0 .4197.34027.76.76.76h3.48c.41974 0 .76-.3403.76-.76v-11.48c0-.41974-.34027-.76-.76-.76zm.74 11.5v-10h2v10z"/><path d="m9.76 6c-.09063 0-.26432.0164-.43722.13745-.2102.14717-.32278.38274-.32278.62038v11.48887c0 .0831.01368.3014.18892.4996.18458.2088.41353.2444.50393.2517.03556.0028.06573.0027.08633.002h3.46082c.4197 0 .76-.3403.76-.76v-5.2694c0-.2854.0249-.4893.0757-.6512.136-.4339.5534-.7859 1.0443-.7859.3907 0 .6978.216.8251.6216.065.2068.0648.4355.0643.9273l-.0001 5.1576c0 .4197.3402.76.76.76h3.4707c.4198 0 .76-.3403.76-.76v-6.4301c0-1.7529-.3793-3.18832-1.1582-4.20246-.7999-1.04146-1.9555-1.55179-3.2904-1.55179-1.0285 0-1.8144.28562-2.413.67654-.0147-.40685-.3491-.73219-.7595-.73219zm.06629 12.997c-.00165.0001-.00367.0003-.00604.0005l.00951-.0009c.00275-.0002.00121 0-.00347.0004zm.67371-11.497h2.1389v1.05311c0 .69664.9629 1.10608 1.4035.40451.3877-.6173 1.0719-1.40197 2.509-1.40197.9219 0 1.6156.33383 2.1008.9655.5062.65899.8478 1.72575.8478 3.28875v5.6901h-1.9907v-4.2756c0-.0549.0003-.111.0007-.168.0026-.4262.0056-.907-.1338-1.3507-.3204-1.0205-1.1994-1.6722-2.2562-1.6722-1.2235 0-2.1676.8545-2.4757 1.8373-.1147.3662-.1443.7399-.1443 1.0998v4.5294h-2z"/></g></svg>