<svg fill="none" height="16" viewBox="0 0 16 16" width="16" xmlns="http://www.w3.org/2000/svg"><g fill="#00a008"><path clip-rule="evenodd" d="m14 3.75c0-1.51878-1.2312-2.75-2.75-2.75h-4.5c-1.51878 0-2.75 1.23122-2.75 2.75 0 .41421.33579.75.75.75s.75-.33579.75-.75c0-.69036.55964-1.25 1.25-1.25h4.5c.1236 0 .243.01793.3557.05134l-1.5298 1.06026c-.67386.46705-1.0759 1.23484-1.0759 2.05475v6.83365h-2.25c-.52341 0-.97343-.3219-1.15942-.7814-.15542-.384-.59266-.5692-.97661-.4138s-.56921.5927-.41379.9766c.40739 1.0064 1.39454 1.7186 2.54982 1.7186h2.25c.00628 0 .01255-.0001.01879-.0002.15186.8774 1.19251 1.3424 1.95771.7958l1.4531-1.0379c.9855-.704 1.5704-1.8405 1.5704-3.0515zm-1.5.00659-1.5696 1.08786c-.2696.18682-.4304.49394-.4304.8219v7.62625l1.0578-.7555c.5913-.4224.9422-1.1043.9422-1.8309z" fill-rule="evenodd"/><path d="m8 7.75004c0-.19891-.07902-.38968-.21967-.53033l-1.71968-1.71971c-.29289-.29289-.76776-.29289-1.06066 0-.29289.2929-.29289.76777 0 1.06066l.43935.43938h-2.68934c-.41421 0-.75.33578-.75.75 0 .41421.33579.75.75.75h2.68934l-.43934.43932c-.29289.29289-.29289.76776 0 1.06064.29289.2929.76777.2929 1.06066 0l1.71967-1.71963.01118-.01142c.12914-.13473.20849-.31755.20849-.51891z"/></g></svg>