<svg fill="none" height="20" viewBox="0 0 20 20" width="20" xmlns="http://www.w3.org/2000/svg"><g fill="#00a008"><path clip-rule="evenodd" d="m17 4.25c0-1.79493-1.4551-3.25-3.25-3.25h-6.5c-1.79493 0-3.25 1.45507-3.25 3.25v.25c0 .41421.33579.75.75.75s.75-.33579.75-.75v-.25c0-.9665.7835-1.75 1.75-1.75h6.0365l-2.2623.9213c-1.22394.49844-2.0242 1.68841-2.0242 3.00997v10.06873h-1.75c-.9665 0-1.75-.7835-1.75-1.75v-.25c0-.4142-.33579-.75-.75-.75s-.75.3358-.75.75v.25c0 1.7949 1.45507 3.25 3.25 3.25h1.75v.0778c0 1.0947 1.1347 1.8207 2.1286 1.362l3.6929-1.7044c1.328-.613 2.1785-1.9422 2.1785-3.4049zm-1.5 0c0-.33935-.0966-.65615-.2638-.92438l-3.6462 1.4849c-.6591.26839-1.09.90914-1.09 1.62075v11.64653l3.6929-1.7044c.7968-.3677 1.3071-1.1653 1.3071-2.0429z" fill-rule="evenodd"/><path d="m8 9.75002c0-.19891-.07902-.38967-.21967-.53032l-2.21967-2.2197c-.2929-.29289-.76777-.29289-1.06066 0-.2929.2929-.2929.76777 0 1.06066l.93934.93936h-2.68934c-.41421 0-.75.33579-.75.75 0 .41418.33579.74998.75.74998h2.68934l-.93934.9393c-.29289.2929-.29289.7678 0 1.0607s.76777.2929 1.06066 0l2.21967-2.2196.01118-.0115c.12914-.1347.20849-.31752.20849-.51888z"/></g></svg>