<svg fill="none" height="24" viewBox="0 0 24 24" width="24" xmlns="http://www.w3.org/2000/svg"><g fill="#00a008"><path clip-rule="evenodd" d="m18.5894 2.81901c-.6413-.51256-1.4546-.81901-2.3394-.81901h-7.5c-2.07107 0-3.75 1.67893-3.75 3.75v.5c0 .41421.33579.75.75.75s.75-.33579.75-.75v-.5c0-1.24264 1.00736-2.25 2.25-2.25h7.5c.1592 0 .3144.01652.4643.04795l-2.8656 1.68563c-1.1454.67376-1.8487 1.90339-1.8487 3.23226v11.03416h-3.25c-1.24264 0-2.25-1.0074-2.25-2.25v-.5c0-.4142-.33579-.75-.75-.75s-.75.3358-.75.75v.5c0 2.0711 1.67893 3.75 3.75 3.75h3.25v.4604c0 1.3691 1.5012 2.208 2.6672 1.4904l3.5482-2.1835c1.109-.6825 1.7846-1.8915 1.7846-3.1937v-11.8236c0-1.02651-.4125-1.95669-1.0807-2.63386-.0805-.13516-.1969-.23588-.3299-.29713zm-.4874 1.65289-3.4928 2.05458c-.6872.40426-1.1092 1.14204-1.1092 1.93936v12.99456c0 .1956.2145.3155.381.2129l3.5482-2.1835c.6655-.4095 1.0708-1.1349 1.0708-1.9162v-11.8236c0-.47472-.147-.9151-.398-1.2781z" fill-rule="evenodd"/><path d="m10 11.75c0-.1989-.07902-.3897-.21967-.5303l-2.46967-2.4697c-.29289-.29289-.76777-.29289-1.06066 0-.29289.2929-.29289.76777 0 1.06066l1.18934 1.18934h-3.68934c-.41421 0-.75.3358-.75.75s.33579.75.75.75h3.68934l-1.18934 1.1893c-.29289.2929-.29289.7678 0 1.0607s.76777.2929 1.06066 0l2.46967-2.4697.01118-.0114c.12914-.1347.20849-.3175.20849-.5189z"/></g></svg>