<svg fill="none" height="16" viewBox="0 0 16 16" width="16" xmlns="http://www.w3.org/2000/svg"><path d="m15 8c0 3.866-3.134 7-7 7-3.86599 0-7-3.134-7-7 0-3.86599 3.13401-7 7-7 3.866 0 7 3.13401 7 7z" fill="#a5aebd"/><path d="m8.78571 7.21429-1.78571-.71429 1.78571-.71429.71429-1.78571.7143 1.78571 1.7857.71429-1.7857.71429-.7143 1.78571z" fill="#fff"/><path clip-rule="evenodd" d="m8 14c3.3137 0 6-2.6863 6-6 0-3.31371-2.6863-6-6-6-3.31371 0-6 2.68629-6 6 0 3.3137 2.68629 6 6 6zm0 1c3.866 0 7-3.134 7-7 0-3.86599-3.134-7-7-7-3.86599 0-7 3.13401-7 7 0 3.866 3.13401 7 7 7z" fill="#1d1f26" fill-opacity=".2" fill-rule="evenodd"/></svg>