<svg fill="none" height="16" viewBox="0 0 16 16" width="16" xmlns="http://www.w3.org/2000/svg"><path d="m7 2.58781c.00037-1.06619 1.21955-1.672969 2.07031-1.03027l3.28909 2.48633c.7173.54223.6751 1.63325-.0821 2.11816l-2.87203 1.83789 2.87203 1.83789c.7572.48489.7994 1.57589.0821 2.11819l-3.28909 2.4863c-.85076.6427-2.06994.0359-2.07031-1.0303v-3.87301l-3.0957 1.98141c-.34888.2233-.81285.1214-1.03614-.2275-.2231-.3489-.12127-.8129.22754-1.0361l3.52637-2.25688-3.52637-2.25683c-.34881-.22324-.45064-.68728-.22754-1.03614.22329-.34888.68726-.45082 1.03614-.22754l3.0957 1.98047zm1.5 10.40429 2.7158-2.0527-2.7158-1.73831zm0-6.19433 2.7158-1.73828-2.7158-2.05273z" fill="#00a008"/></svg>