<svg fill="none" height="20" viewBox="0 0 20 20" width="20" xmlns="http://www.w3.org/2000/svg"><path d="m9.50009 3.36811c0-1.18057 1.35911-1.84322 2.28911-1.11622l3.8623 3.02247c.7688.60157.7136 1.78214-.1084 2.30859l-3.7774 2.41699 3.7774 2.41696c.822.5265.8772 1.7071.1084 2.3086l-3.8623 3.0225c-.93.727-2.28911.0643-2.28911-1.1162v-5.1817l-4.27636 2.7373c-.34887.2232-.81287.1213-1.03614-.2275-.22328-.3489-.12134-.8128.22754-1.0361l4.56836-2.92386-4.56836-2.92383c-.34888-.22328-.45082-.68725-.22754-1.03613.22327-.34883.68727-.45073 1.03614-.22754l4.27636 2.73633zm1.50001 13.09279 3.6348-2.8447-3.6348-2.3262zm0-7.75197 3.6348-2.32618-3.6348-2.84472z" fill="#00a008"/></svg>