<svg fill="none" height="24" viewBox="0 0 24 24" width="24" xmlns="http://www.w3.org/2000/svg"><path d="m11.0004 4.07518c.0001-1.26732 1.4439-1.99327 2.461-1.23731l4.9131 3.6543c.8654.64361.8195 1.95375-.0889 2.53516l-4.6455 2.97267 4.6455 2.9726c.9084.5814.9543 1.8916.0889 2.5352l-4.9131 3.6543c-1.0171.756-2.4609.03-2.461-1.2373v-6.2354l-4.94333 3.1641c-.3488.2232-.81279.1221-1.03613-.2266-.22326-.3488-.12123-.8128.22754-1.0361l5.60942-3.5908-5.60942-3.59084c-.34877-.22332-.4508-.6873-.22754-1.03613.22334-.34868.68733-.44979 1.03613-.22656l4.94333 3.16313zm1.501 15.86622c.0006.002.0029.0049.0029.0049.0024.0036.0081.0103.0186.0156.0104.0052.0191.0061.0234.0059 0 0 .0038-.0003.0059-.001.0019-.0007.007-.0031.0146-.0088l4.9131-3.6533c.0087-.0065.0112-.0115.0127-.0147.0021-.0045.0042-.0118.0039-.0205-.0003-.0085-.0025-.0152-.0049-.0195-.0016-.003-.0052-.0077-.0146-.0137l-4.9766-3.1855v6.874c0 .0095.0004.0147.001.0166zm-.001-8.9932 4.9766-3.18455c.0094-.00603.013-.01066.0146-.01367.0024-.00435.0046-.01104.0049-.01953.0003-.00871-.0018-.01599-.0039-.02051-.0015-.00313-.004-.0082-.0127-.01465l-4.9131-3.65332c-.0076-.00571-.0127-.0081-.0146-.00879-.0021-.00074-.0059-.00097-.0059-.00097-.0043-.00026-.013.00064-.0234.00586-.0105.00528-.0162.01199-.0186.01562 0 0-.0023.00284-.0029.00489-.0006.00191-.001.00709-.001.0166z" fill="#00a008"/></svg>