<svg fill="none" height="20" viewBox="0 0 20 20" width="20" xmlns="http://www.w3.org/2000/svg"><path d="m17.25 15c.4142 0 .75.3358.75.75s-.3358.75-.75.75h-14.5c-.41421 0-.75-.3358-.75-.75s.33579-.75.75-.75zm-6-4c.4142 0 .75.3358.75.75s-.3358.75-.75.75h-8.5c-.41421 0-.75-.3358-.75-.75s.33579-.75.75-.75zm6-4c.4142 0 .75.33579.75.75s-.3358.75-.75.75h-14.5c-.41421 0-.75-.33579-.75-.75s.33579-.75.75-.75zm-6-4c.4142 0 .75.33579.75.75s-.3358.75-.75.75h-8.5c-.41421 0-.75-.33579-.75-.75s.33579-.75.75-.75z" fill="#00a008"/></svg>