<svg fill="none" height="20" viewBox="0 0 20 20" width="20" xmlns="http://www.w3.org/2000/svg"><path clip-rule="evenodd" d="m8.5 1.5c-3.86599 0-7 3.13401-7 7 0 3.866 3.13401 7 7 7 1.6628 0 3.1902-.5798 4.3911-1.5482l4.0482 4.0482c.2929.2929.7678.2929 1.0607 0s.2929-.7678 0-1.0607l-4.0482-4.0482c.9684-1.2009 1.5482-2.7283 1.5482-4.3911 0-3.86599-3.134-7-7-7zm-5.5 7c0-3.03757 2.46243-5.5 5.5-5.5 3.0376 0 5.5 2.46243 5.5 5.5 0 3.0376-2.4624 5.5-5.5 5.5-3.03757 0-5.5-2.4624-5.5-5.5z" fill="#00a008" fill-rule="evenodd"/></svg>