<svg fill="none" height="24" viewBox="0 0 24 24" width="24" xmlns="http://www.w3.org/2000/svg"><path clip-rule="evenodd" d="m10.5 2c-4.69442 0-8.5 3.80558-8.5 8.5 0 4.6944 3.80558 8.5 8.5 8.5 2.0772 0 3.9803-.7451 5.4568-1.9826l4.0129 4.0129c.2929.2929.7677.2929 1.0606 0s.2929-.7677 0-1.0606l-4.0129-4.0129c1.2375-1.4765 1.9826-3.3796 1.9826-5.4568 0-4.69442-3.8056-8.5-8.5-8.5zm-7 8.5c0-3.86599 3.13401-7 7-7 3.866 0 7 3.13401 7 7 0 3.866-3.134 7-7 7-3.86599 0-7-3.134-7-7z" fill="#00a008" fill-rule="evenodd"/></svg>