<svg fill="none" height="20" viewBox="0 0 20 20" width="20" xmlns="http://www.w3.org/2000/svg"><path clip-rule="evenodd" d="m9.58301 2.5c3.11439 0 5.69589 2.27815 6.17089 5.25879 1.9831.66361 3.4131 2.53481 3.4131 4.74121 0 2.7613-2.2387 4.9998-5 5-2.889 0-5.778 0-8.667 0-2.48528 0-4.5-2.0147-4.5-4.5 0-.0431.0027-.0861.00391-.1289-.00274-.026-.0039-.0524-.00391-.0791 0-1.6665.94999-3.11123 2.33789-3.82227-.00272-.07294-.00488-.14617-.00488-.21973 0-3.45167 2.79837-6.24982 6.25-6.25zm0 1.5c-2.54736.00017-4.62687 2.00548-4.74512 4.52344.14921-.0157.30074-.02344.4541-.02344.41407.00018.75.3359.75.75s-.33593.74982-.75.75c-.26287 0-.51665.0385-.75781.1064l-.47266.2598c-.9338.5116-1.56152 1.5005-1.56152 2.6338 0 1.6569 1.34315 3 3 3h8.667c1.933-.0002 3.5-1.5672 3.5-3.5 0-.9208-.3579-1.7583-.9414-2.3838-.0213-.0171-.0428-.0349-.0625-.0547-.9734-.9732-2.3637-1.27823-3.5996-.91111-.3968.11771-.8145-.10819-.9326-.50488-.1178-.39678.1083-.81441.5048-.93262.498-.14795 1.0147-.21654 1.5303-.20996-.5473-2.01815-2.3925-3.50293-4.58299-3.50293z" fill="#00a008" fill-rule="evenodd"/></svg>