<svg fill="none" height="24" viewBox="0 0 24 24" width="24" xmlns="http://www.w3.org/2000/svg"><path clip-rule="evenodd" d="m11.5 3c3.6198 0 6.6404 2.56442 7.3447 5.97559.3196.13578.6248.29859.9131.48535.0052.00334.0105.00641.0156.00976.1102.07183.2173.14785.3223.22657.0052.0039.0104.00779.0156.01171 1.4507 1.09512 2.3887 2.83332 2.3887 4.79102 0 3.3137-2.6863 6-6 6h-10c-2.76142 0-5-2.2386-5-5 0-1.7573.97764-3.4534 2.50781-4.335.00745-.0043.01499-.0084.02246-.0127-.01853-.215-.03027-.4324-.03027-.6523 0-4.14214 3.35786-7.5 7.5-7.5zm0 1.5c-3.31371 0-6 2.68629-6 6 0 .033.00129.0661.00195.0996.32251-.0653.65628-.0996.99805-.0996.41421 0 .75.3358.75.75s-.33579.75-.75.75c-.63933 0-1.23811.1723-1.75391.4717-.95934.5572-1.62528 1.5516-1.73047 2.707-.00365.0402-.00747.0805-.00976.1211l-.00586.2002c0 1.933 1.567 3.5 3.5 3.5h10c2.4853 0 4.5-2.0147 4.5-4.5 0-1.83-1.0936-3.4062-2.668-4.1094-.9843-.43882-2.0936-.50839-3.1181-.2041-.397.118-.8146-.108-.9327-.50486-.1178-.39692.1081-.81454.5049-.93262.7749-.23021 1.5874-.29952 2.3858-.20996-.8125-2.3507-3.0463-4.03906-5.6719-4.03906z" fill="#00a008" fill-rule="evenodd"/></svg>