<svg fill="none" height="16" viewBox="0 0 16 16" width="16" xmlns="http://www.w3.org/2000/svg"><path clip-rule="evenodd" d="m14.2181 3h-1.5319c-.3939 0-.569.25-.6675.52632 0 0-.7769 2.28947-1.882 3.76315-.36111.43421-.42823.55498-.62519.55498-.09848 0-.11151-.12077-.11151-.5155v-3.6579c0-.47368-.08398-.67105-.41225-.67105h-2.64799c-.24073 0-.39392.22368-.39392.42105 0 .44737.58536.55263.65102 1.78948v2.71052c0 .59211-.06014.81579-.2571.81579-.51428 0-2.09693-2.43411-2.81867-5.06579-.15319-.48684-.07005-.67105-.46397-.67105h-1.5319c-.43768 0-.52522.25-.52522.52632 0 .48684.51428 2.90789 2.41821 6.10526 1.26929 2.18422 3.05285 3.36842 4.67229 3.36842.97385 0 1.3095-.2632 1.3095-.7105v-1.6579c0-.5263.0232-.68237.21277-.68237s.58953.18237 1.49773 1.23497c1.0395 1.25 1.2146 1.8158 1.7945 1.8158h1.5319c.4377 0 .6566-.2632.5253-.7763-.1423-.5132-.6347-1.2632-1.2912-2.1579-.3611-.51317-.8973-1.05264-1.0505-1.32896-.2297-.35526-.1641-.51316 0-.81579 0-.01315 1.8711-3.17105 2.0572-4.25.0984-.39473 0-.67105-.4596-.67105z" fill="#00a008" fill-rule="evenodd"/></svg>