<svg fill="none" height="20" viewBox="0 0 20 20" width="20" xmlns="http://www.w3.org/2000/svg"><path clip-rule="evenodd" d="m17.9947 4.375h-1.9696c-.5065 0-.7316.28125-.8582.59211 0 0-.9988 2.57565-2.4197 4.23355-.4643.48849-.5506.62435-.8038.62435-.1266 0-.1434-.13587-.1434-.57994v-4.11514c0-.53289-.108-.75493-.53-.75493h-3.4046c-.3095 0-.50646.25164-.50646.47368 0 .50329.75261.62171.83702 2.01316v3.04934c0 .66612-.07732.91772-.33056.91772-.66121 0-2.69604-2.73832-3.62399-5.69897-.19696-.54769-.09008-.75493-.59654-.75493h-1.96958c-.56274 0-.67529.28125-.67529.59211 0 .54769.66122 3.27138 3.10913 6.86839 1.63194 2.4573 3.9251 3.7895 6.00727 3.7895 1.252 0 1.6836-.2961 1.6836-.7993v-1.8652c0-.5921.0298-.7676.2736-.7676.2437 0 .758.2051 1.9256 1.3893 1.3366 1.4063 1.5616 2.0428 2.3073 2.0428h1.9696c.5627 0 .8441-.2961.6752-.8734-.1828-.5773-.8159-1.421-1.66-2.4276-.4643-.5773-1.1536-1.1842-1.3506-1.4951-.2954-.3996-.211-.5773 0-.91772 0-.0148 2.4057-3.56743 2.6449-4.78125.1266-.44407 0-.75493-.5909-.75493z" fill="#00a008" fill-rule="evenodd"/></svg>