<svg fill="none" height="24" viewBox="0 0 24 24" width="24" xmlns="http://www.w3.org/2000/svg"><path clip-rule="evenodd" d="m20.883 5.33325h-2.1884c-.5628 0-.8129.33334-.9536.70176 0 0-1.1098 3.05263-2.6886 5.01749-.5158.579-.6117.74-.8931.74-.1407 0-.1593-.161-.1593-.6873v-4.87721c0-.63158-.12-.89474-.5889-.89474h-3.78287c-.3439 0-.56274.29825-.56274.56141 0 .59649.83623.73684.93002 2.38596v3.61408c0 .7894-.08591 1.0877-.36728 1.0877-.73469 0-2.99561-3.2455-4.02667-6.75441-.21884-.64912-.10008-.89474-.66282-.89474h-2.18842c-.62527 0-.75032.33334-.75032.70176 0 .64912.73469 3.87719 3.45459 8.14039 1.81326 2.9122 4.36122 4.4912 6.67471 4.4912 1.3912 0 1.8707-.3509 1.8707-.9474v-2.2105c0-.7018.0331-.9098.304-.9098.2708 0 .8422.2431 2.1396 1.6466 1.485 1.6667 1.7351 2.4211 2.5636 2.4211h2.1884c.6253 0 .9379-.3509.7503-1.0351-.2032-.6842-.9066-1.6842-1.8445-2.8772-.5158-.6842-1.2818-1.4035-1.5006-1.7719-.3283-.4737-.2345-.6842 0-1.0877 0-.0176 2.673-4.22812 2.9387-5.66671.1407-.52632 0-.89474-.6565-.89474z" fill="#00a008" fill-rule="evenodd"/></svg>