<svg fill="none" height="16" viewBox="0 0 16 16" width="16" xmlns="http://www.w3.org/2000/svg"><g fill="#00a008"><path d="m7.5552 2.73886c.04531-.39114.20385-1.26033.79108-1.888224.58722-.627889 1.40012-.7974122 1.76592-.84586083.3658-.04844057.6715.27851583.6262.66959283-.0453.391142-.2038 1.260332-.79104 1.888222-.58723.62789-1.40013.79741-1.76593.84586-.36575.04844-.67153-.27852-.62623-.66959z"/><path clip-rule="evenodd" d="m7.06485 3.66853c-.44514-.13646-.87197-.23719-1.31901-.24677-.45711-.0098-.89855.07606-1.38228.26337-.93963.36387-1.40244.88643-1.93195 1.60139-.8993 1.21422-1.06066 2.64792-.8478 3.99233.21091 1.33205.79313 2.62645 1.4548 3.68305.36669.5856.74338 1.1334 1.25685 1.5073.54639.3979 1.17005.548 1.94077.5293.39969-.0097.80295-.121 1.13085-.239.49938-.1798 1.0562-.1798 1.55558 0 .3279.118.73117.2293 1.13084.239.7707.0187 1.3944-.1314 1.9408-.5293.5135-.3739.8901-.9217 1.2568-1.5073.3848-.6144.739-1.3032 1.0102-2.0287l.2387-.6384-.5587-.34053c-.6707-.40879-1.1202-1.17854-1.1202-2.05956 0-.70876.2902-1.34408.753-1.77929l.5413-.50905-.463-.59081c-.463-.5909-.9209-1.01857-1.7262-1.33043-.4837-.18731-.9252-.27317-1.3823-.26337-.447.00958-.87387.11031-1.319.24677-.07528.02308-.14949.04977-.22093.07805-.55336.21909-1.16484.21909-1.7182 0-.07143-.02828-.14564-.05497-.22092-.07805zm-2.19845 1.5012c.33945-.13145.60011-.17469.84985-.16934.25981.00557.54457.06422.94161.18594.03318.01017.07165.02374.11515.04096.88422.35008 1.8595.35008 2.74373 0 .0435-.01722.08196-.03079.11514-.04096.39702-.12172.68182-.18037.94162-.18594.2497-.00535.5104.03789.8498.16934.2699.10451.4684.21921.6483.37225-.4564.65672-.7272 1.47119-.7272 2.35273 0 1.21102.5102 2.29389 1.3114 3.01729-.1858.4083-.4009.8028-.6317 1.1714-.3657.5841-.6068.8957-.861 1.0807-.2212.1611-.515.2694-1.0761.2558-.18641-.0045-.42871-.0616-.69311-.1568-.8051-.2899-1.69294-.2899-2.49804 0-.2644.0952-.5067.1523-.69313.1568-.56106.0136-.85486-.0947-1.07608-.2558-.25415-.185-.49525-.4966-.86099-1.0807-.58619-.9361-1.06019-2.0218-1.22586-3.06811-.16371-1.03397-.022-1.97692.54947-2.74852.45635-.61616.71081-.87773 1.27714-1.09704z" fill-rule="evenodd"/></g></svg>