<svg fill="none" height="20" viewBox="0 0 20 20" width="20" xmlns="http://www.w3.org/2000/svg"><g fill="#00a008"><path d="m9.26065 3.18023c.08053-.43887.31944-1.38601 1.00775-2.108.6884-.72199 1.5914-.9725768 2.0098-1.0570503.5364-.108288 1.0011.3791293.8978.9417273-.0805.438873-.3194 1.386013-1.0078 2.108003-.6883.72199-1.5913.97258-2.0097 1.05705-.5364.10829-1.0011-.37913-.89785-.94173z"/><path clip-rule="evenodd" d="m8.78715 4.72041c-1.15367-.33599-2.05355-.43742-3.28494.01558-1.1372.41834-1.69618 1.01361-2.35807 1.86259-1.10112 1.41236-1.30481 3.08786-1.04014 4.67582.26217 1.573.98727 3.1067 1.81478 4.3621.46398.7038.92415 1.3348 1.54093 1.7614.6477.4481 1.39017.622 2.33317.6003.59505-.0137 1.21794-.2095 1.6883-.3939.46503-.1824.99102-.1824 1.45602 0 .4704.1844 1.0933.3802 1.6883.3939.943.0217 1.6855-.1522 2.3332-.6003.6168-.4266 1.0769-1.0576 1.5409-1.7614.4794-.7273.9204-1.5417 1.2583-2.3987l.2421-.6138-.538-.3504c-.9207-.5996-1.5311-1.6676-1.5311-2.88439 0-.89155.327-1.70125.8633-2.30723l.4745-.53603-.4777-.53283c-.5081-.56666-1.0403-.97012-1.8748-1.27713-1.2314-.453-2.1313-.35157-3.285-.01558-.2154.06275-.4356.15287-.6356.24527-.4984.23023-1.07444.23023-1.5728 0-.20002-.0924-.42018-.18252-.63565-.24527zm-2.79094 1.49295c.84875-.31223 1.41712-.26822 2.3916.01558.12092.03521.26924.09371.43335.16952.88169.40732 1.89434.40732 2.77604 0 .1641-.07581.3125-.13431.4334-.16952.9745-.2838 1.5428-.32781 2.3916-.01558.335.12323.5873.25893.8088.42683-.5005.78667-.7927 1.73258-.7927 2.74902 0 1.53139.6623 2.89999 1.7006 3.80859-.251.5411-.5474 1.0634-.867 1.5483-.4615.7-.7819 1.1006-1.135 1.3449-.3222.2228-.7389.359-1.4786.342-.3431-.0079-.779-.1307-1.1984-.2952-.8021-.3145-1.69931-.3145-2.50142 0-.41939.1645-.85527.2873-1.19841.2952-.7397.017-1.15643-.1192-1.47861-.342-.35309-.2443-.67349-.6449-1.13493-1.3449-.74914-1.1365-1.35858-2.4596-1.5722-3.7413-.21113-1.26678-.03189-2.44395.72529-3.41515.58374-.74874.93102-1.09466 1.69659-1.37629z" fill-rule="evenodd"/></g></svg>