<svg fill="none" height="24" viewBox="0 0 24 24" width="24" xmlns="http://www.w3.org/2000/svg"><g fill="#00a008"><path d="m11.534 3.80151c.0688-.49204.3141-1.70705 1.1844-2.59118.8703-.884129 2.0663-1.1332731 2.5507-1.20316632.4504-.06498958.8309.32158832.7669.77911232-.0688.492044-.314 1.707054-1.1843 2.591184-.8704.88413-2.0664 1.13327-2.5507 1.20317-.4504.06498-.8309-.32159-.767-.77912z"/><path clip-rule="evenodd" d="m10.66 5.50753c-.6345-.19225-1.22467-.3283-1.83556-.34124-.62177-.01316-1.22549.10159-1.8967.35847-1.28365.49128-1.90814 1.18435-2.65619 2.18257-1.22385 1.63315-1.45071 3.56387-1.15533 5.40767.29393 1.8347 1.10976 3.6358 2.04985 5.1195.52952.8357 1.04399 1.5671 1.73062 2.0612.72321.5205 1.56029.728 2.63666.7022.70545-.017 1.44925-.2694 1.99765-.4991.4884-.2046 1.0533-.2046 1.5416 0 .5485.2297 1.2923.4821 1.9977.4991 1.0764.0258 1.9135-.1817 2.6367-.7022.6866-.4941 1.2011-1.2255 1.7306-2.0612.5016-.7917.9647-1.6687 1.3328-2.5892l.2296-.5743-.5049-.348c-1.0014-.6904-1.6567-1.8539-1.6567-3.1727 0-1.1595.5061-2.19807 1.3088-2.90175l.54-.47342-.4352-.57412c-.7164-.94505-1.3412-1.60363-2.5761-2.07625-.6712-.25688-1.2749-.37163-1.8967-.35847-.6109.01294-1.201.14899-1.8355.34124-.2759.08357-.5612.20941-.8157.33596-.5177.25741-1.1346.25741-1.6523 0-.2546-.12655-.5399-.25239-.8157-.33596zm-3.20046 1.45123c.52003-.19902.93233-.2689 1.33346-.2604.41201.00872.85164.10063 1.4359.27764.1634.04952.3652.13524.5836.24386.9361.46544 2.0426.46544 2.9786 0 .2185-.10862.4203-.19434.5837-.24386.5842-.17701 1.0238-.26892 1.4359-.27764.4011-.0085.8134.06138 1.3334.2604.6621.25341 1.0608.55419 1.4954 1.05593-.8146.94344-1.3095 2.18111-1.3095 3.53561 0 1.6168.7047 3.0662 1.8169 4.0487-.2858.6322-.6196 1.2409-.9777 1.8061-.5304.8371-.91 1.3349-1.3342 1.6402-.3876.2789-.8782.441-1.7291.4206-.4222-.0101-.9581-.1743-1.4582-.3838-.8567-.3589-1.835-.3589-2.6918 0-.5.2095-1.03591.3737-1.45816.3838-.85088.0204-1.34148-.1417-1.72911-.4206-.42421-.3053-.80375-.8031-1.33416-1.6402-.8657-1.3663-1.57837-2.9693-1.82939-4.5363-.24957-1.5578-.03783-3.02622.86669-4.23325.67862-.90558 1.09211-1.334 1.98777-1.67679z" fill-rule="evenodd"/></g></svg>