<svg fill="none" height="16" viewBox="0 0 16 16" width="16" xmlns="http://www.w3.org/2000/svg"><g fill="#00a008"><path d="m7.01172 10.7705c.32037.0144.65054.0225.98828.0225.0728 0 .14571-.0001.21777-.001.42642-.0053.78223.3323.78223.7588-.0002.4015-.31725.734-.71875.7402-.09319.0014-.18717.002-.28125.002-.37916 0-.75149-.0099-1.11426-.0274-.28036-.0135-.52554-.1914-.63183-.4511-.2099-.5133.20378-1.069.75781-1.044z"/><path d="m4.18945 10.543c.28015 0 .53257.1694.63867.4287l.00977.0234c.20968.5131-.20879 1.0595-.75293.9541-.0112-.0022-.02303-.0037-.03418-.0058-.32465-.0639-.55078-.3537-.55078-.6846v-.0254c0-.381.3085-.6903.68945-.6904z"/><path d="m7.01172 5.77051c.32037.01444.65054.02245.98828.02246.0728 0 .14571-.00005.21777-.00098.42642-.00527.78223.33229.78223.75879-.0002.40155-.31725.734-.71875.74024-.09319.0014-.18717.00195-.28125.00195-.37916-.00001-.75149-.00987-1.11426-.02735-.28036-.0135-.52554-.19138-.63183-.45117-.2099-.51329.20378-1.06892.75781-1.04394z"/><path d="m4.18945 5.54297c.28015 0 .53257.16945.63867.42871l.00977.02344c.20968.51309-.20879 1.05944-.75293.9541-.0112-.00217-.02303-.00367-.03418-.00586-.32465-.06387-.55078-.35367-.55078-.68457v-.02539c0-.38098.3085-.69029.68945-.69043z"/><path clip-rule="evenodd" d="m8 1c3.866 0 7 .89543 7 2v9.5c0 1.3807-3.134 2.5-7 2.5-3.86599 0-7-1.1193-7-2.5v-9.5c0-1.10457 3.13401-2 7-2zm5.5 7.98438c-1.2818.46469-3.2685.76562-5.5.76562-2.23151 0-4.2182-.30093-5.5-.76562v3.31542l.27344.2002c.18536.1091.44099.2339.78125.3555 1.06614.3807 2.63773.6445 4.44531.6445s3.3792-.2638 4.4453-.6445c.3398-.1214.595-.2466.7803-.3555s.2744-.2002.2744-.2002zm0-4.75c-1.2818.46469-3.2685.76562-5.5.76562-2.23151 0-4.2182-.30093-5.5-.76562v3.26562l1.07031.25s2.65431.5 4.42969.5c1.77489 0 4.4287-.5 4.4287-.5l1.0713-.25zm-5.5-1.73438c-1.77538 0-3.33523.20253-4.42969.5 1.09446.29747 2.65431.5 4.42969.5 1.77489 0 3.3343-.20267 4.4287-.5-1.0944-.29733-2.65381-.5-4.4287-.5z" fill-rule="evenodd"/></g></svg>