<svg fill="none" height="20" viewBox="0 0 20 20" width="20" xmlns="http://www.w3.org/2000/svg"><g fill="#00a008"><path d="m7.8584 14.8486c.67683.0696 1.39458.1084 2.1416.1084.0722 0 .1442-.0002.2158-.0009.4269-.0045.7842.3347.7842.7617-.0002.4006-.3162.7318-.7168.7373-.094.0012-.1886.0019-.2832.0019-.8146 0-1.60409-.0429-2.35449-.122-.37061-.0391-.64551-.3559-.64551-.7286 0-.4557.40507-.8044.8584-.7578z"/><path d="m4.5 15.1396c0-.483.4491-.8335.91699-.7138.32114.0822.58286.3736.58301.7051v.0439c0 .4754-.43454.835-.89551.7188-.02679-.0068-.05348-.0137-.08008-.0206-.313-.0808-.52441-.3681-.52441-.6914z"/><path d="m7.8584 8.84863c.67683.06987 1.39457.10937 2.1416.10938.0722 0 .1442-.00114.2158-.00196.4268-.00486.784.33395.7842.76075 0 .4009-.316.7333-.7168.7393-.094.0013-.1886.0019-.2832.0019-.81461 0-1.60409-.0436-2.35449-.123-.37052-.0393-.64539-.35599-.64551-.72855 0-.45573.40509-.80462.8584-.75782z"/><path d="m4.5 9.13965c0-.48303.44908-.83363.91699-.71387.32121.08228.58299.3735.58301.70508v.04394c-.00003.47538-.43456.835-.89551.71875-.02687-.00677-.0534-.01459-.08008-.02148-.313-.0808-.52441-.36717-.52441-.69043z"/><path clip-rule="evenodd" d="m10 1c4.9706 0 9 1.567 9 3.5v11c0 1.933-4.0294 3.5-9 3.5-4.97056 0-9-1.567-9-3.5v-11c0-1.933 4.02944-3.5 9-3.5zm-7.5 14.5h.00781c.01952.0411.07318.1275.21485.2578.27051.2487.74458.5423 1.45703.8193 1.41537.5505 3.47271.9229 5.82031.9229s4.4049-.3724 5.8203-.9229c.7125-.277 1.1865-.5706 1.457-.8193.1413-.1299.1942-.2165.2139-.2578h.0088v-4.0664c-1.6123.9433-4.369 1.5664-7.5 1.5664-3.13096 0-5.88773-.6231-7.5-1.5664zm0-6h.00781c.01952.04113.07318.12755.21485.25781.27051.24869.74458.54229 1.45703.81929 1.41537.5505 3.47271.9229 5.82031.9229s4.4049-.3724 5.8203-.9229c.7125-.277 1.1865-.5706 1.457-.81929.1413-.12986.1942-.21653.2139-.25781h.0088v-3.06641c-1.6123.94333-4.369 1.56641-7.5 1.56641-3.13096 0-5.88773-.62308-7.5-1.56641zm7.5-7c-2.3476 0-4.40494.37245-5.82031.92285-.71245.27707-1.18652.57062-1.45703.81934-.14167.13026-.19533.21668-.21485.25781.01952.04113.07318.12755.21485.25781.27051.24872.74458.54227 1.45703.81934 1.41537.5504 3.47271.92285 5.82031.92285s4.4049-.37245 5.8203-.92285c.7125-.27707 1.1865-.57062 1.457-.81934.1413-.12986.1942-.21653.2139-.25781-.0197-.04128-.0726-.12795-.2139-.25781-.2705-.24872-.7445-.54227-1.457-.81934-1.4154-.5504-3.4727-.92285-5.8203-.92285z" fill-rule="evenodd"/></g></svg>