<svg fill="none" height="24" viewBox="0 0 24 24" width="24" xmlns="http://www.w3.org/2000/svg"><g fill="#00a008"><path d="m7 17.8535c.00005-.4838.45668-.8384.93164-.7461.726.1411 1.51427.2475 2.34956.3096.4013.0298.7188.3594.7188.7617-.0002.4262-.3551.768-.7803.7373-.93242-.0672-1.82006-.1866-2.64353-.3496-.33842-.0671-.57617-.3679-.57617-.7129z"/><path d="m4.5 17.0371c.00008-.4853.53574-.8013.98633-.6211.3036.1215.51367.4074.51367.7344-.00007.5125-.49519.8815-.97266.6953-.03673-.0143-.07318-.0294-.10937-.0439-.25646-.1032-.41781-.3555-.41797-.6319z"/><path d="m7 11.873c.00023-.4833.45607-.8372.93066-.7451.72625.141 1.51492.2467 2.35054.3086.4013.0297.7188.3594.7188.7617-.0002.4262-.3551.768-.7803.7373-.93251-.0672-1.81999-.1866-2.64353-.3496-.33831-.0669-.57617-.368-.57617-.7129z"/><path d="m4.5 11.0576c0-.4851.53588-.8022.98633-.6221.30376.1216.51366.4082.51367.7354 0 .5126-.49517.8815-.97266.6953-.03672-.0143-.07319-.0294-.10937-.0439-.25659-.1033-.41797-.3563-.41797-.6328z"/><path clip-rule="evenodd" d="m12 2c5.5228 0 10 1.79086 10 4v12c0 2.2091-4.4772 4-10 4-5.52285 0-10-1.7909-10-4v-12c0-2.20914 4.47715-4 10-4zm-8.5 16c0 .0069-.00253.1651.31641.4668.32234.3048.86968.6487 1.66992.9687 1.59214.6369 3.89434 1.0645 6.51367 1.0645 2.6193 0 4.9215-.4276 6.5137-1.0645.8002-.32 1.3476-.6639 1.6699-.9687.3189-.3017.3164-.4599.3164-.4668v-3.8936c-1.7641 1.136-4.9108 1.8936-8.5 1.8936-3.58918 0-6.73594-.7576-8.5-1.8936zm0-6c0 .0069-.00253.1651.31641.4668.32234.3048.86968.6487 1.66992.9687 1.59214.6369 3.89434 1.0645 6.51367 1.0645 2.6193 0 4.9215-.4276 6.5137-1.0645.8002-.32 1.3476-.6639 1.6699-.9687.3189-.3017.3164-.4599.3164-.4668v-3.89355c-1.7641 1.13597-4.9108 1.89355-8.5 1.89355-3.58918 0-6.73594-.75758-8.5-1.89355zm8.5-8.5c-2.61933 0-4.92153.42764-6.51367 1.06445-.80024.3201-1.34758.66391-1.66992.96875-.31894.30171-.31641.45987-.31641.4668s-.00253.16509.31641.4668c.32234.30484.86968.64865 1.66992.96875 1.59214.63681 3.89434 1.06445 6.51367 1.06445 2.6193 0 4.9215-.42764 6.5137-1.06445.8002-.3201 1.3476-.66391 1.6699-.96875.3189-.30171.3164-.45987.3164-.4668s.0025-.16509-.3164-.4668c-.3223-.30484-.8697-.64865-1.6699-.96875-1.5922-.63681-3.8944-1.06445-6.5137-1.06445z" fill-rule="evenodd"/></g></svg>