<svg fill="none" height="16" viewBox="0 0 16 16" width="16" xmlns="http://www.w3.org/2000/svg"><path d="m2.56717 1.09669c.36183.01592.76052.12414 1.17578.2959.83534.34555 1.87736 1.008 3.0791 2.03808.31402.26955.35023.74326.08106 1.05762-.26957.31425-.7432.35047-1.05762.08106-1.13137-.96977-2.03741-1.52694-2.67578-1.79102-.17951-.07425-.32764-.12072-.44531-.14844.09077.19554.24522.45363.47851.77051.60585.82279 1.62397 1.88466 2.95411 3.03125.02641.02277.05302.04494.0791.06738.0423-.04492.08498-.08986.1289-.13379 2.37562-2.37555 6.22778-2.37641 8.60348-.00097.2927.29271.2924.76762 0 1.06054-.2928.29288-.7676.29285-1.0605 0-1.7899-1.78965-4.6926-1.78879-6.48243.00098-.01531.01531-.02988.0314-.04492.04688 1.62829 1.36805 2.50251 2.02148 3.68745 2.95903 1.0744-.77045 2.5775-.67531 3.543.29.2929.2928.2928.7676 0 1.0605-.2929.2929-.7676.2929-1.0605 0-.4881-.4878-1.2795-.4877-1.7676 0-.4882.4882-.4882 1.2804 0 1.7686.2926.2929.2928.7677 0 1.0605s-.7676.2926-1.0606 0c-.81336-.8134-1.0105-2.0096-.5918-3.0088-1.13743-.8995-2.02653-1.5665-3.6103-2.89351-.80259 1.70021-.50042 3.79241.90527 5.19821.29283.2929.29281.7677 0 1.0606-.29288.2929-.76765.2928-1.06055 0-1.96534-1.9656-2.30344-4.9406-1.0166-7.2549-.05594-.04808-.11343-.09597-.1709-.14551-1.37644-1.18651-2.48524-2.33109-3.18261-3.27832-.34429-.46764-.61972-.92909-.76075-1.35156-.12815-.38402-.22637-1.00567.23536-1.46777l.125-.1084c.29993-.22614.66583-.27808.97265-.26465z" fill="#00a008"/></svg>