<svg fill="none" height="20" viewBox="0 0 20 20" width="20" xmlns="http://www.w3.org/2000/svg"><path d="m1.5537 1.55404c.40448-.40452.97983-.39898 1.375-.33887.44452.06767.9571.24712 1.5039.50586 1.10198.52151 2.47972 1.43028 3.97266 2.70996.31402.26964.35048.74329.08105 1.05762-.26951.3142-.74319.35028-1.05761.08105-1.4234-1.22006-2.68926-2.04431-3.6377-2.49316-.43923-.20783-.78365-.31917-1.02637-.36524.0044.01194.00765.02529.0127.03809.13326.33793.41737.8118.86035 1.39551.87746 1.15605 2.27015 2.6015 3.93555 4.03711.07979.06878.15896.13567.23633.20214.09007-.10036.18279-.19939.27929-.29589 2.89645-2.89616 7.59295-2.89534 10.48925.00097.2924.29284.2925.76777 0 1.06055-.2928.29259-.7687.29259-1.0615 0-2.3106-2.31022-6.0567-2.31125-8.3672-.00098-.06777.06777-.13348.13687-.19727.20703 2.18917 1.84491 3.30497 2.67161 4.87797 3.91891 1.2753-1.0012 3.1265-.9145 4.3017.2608.2925.2929.2927.7678 0 1.0605-.2929.2929-.7686.2929-1.0615 0-.6834-.6833-1.7912-.6834-2.4746 0-.6831.6834-.6833 1.7913 0 2.4746.2929.2929.2929.7677 0 1.0606-.2929.2928-.7677.2928-1.0606 0-.9966-.9967-1.2112-2.4801-.6425-3.6856-1.5232-1.2074-2.6586-2.0516-4.80375-3.8554-1.16769 2.2313-.81406 5.0519 1.06055 6.9267.29266.2929.29281.7678 0 1.0606-.29282.2927-.76767.2926-1.06055 0-2.43338-2.4337-2.82198-6.138-1.16601-8.97757-.10713-.09191-.21739-.18495-.32911-.28125-1.71762-1.4806-3.19149-3.00286-4.15136-4.26757-.47531-.62632-.85362-1.2271-1.06055-1.75196-.10296-.26129-.18126-.54824-.18262-.83496-.00134-.29891.08447-.64001.3545-.91015z" fill="#00a008"/></svg>