<svg fill="none" height="24" viewBox="0 0 24 24" width="24" xmlns="http://www.w3.org/2000/svg"><path d="m1.96971 1.96973c.4319-.43176 1.05842-.43485 1.52246-.36425.51345.07816 1.11341.28749 1.7627.59472 1.30705.61851 2.94869 1.70071 4.7334 3.23047.31423.26955.35033.7432.08103 1.05762-.26959.31421-.74321.35054-1.0576.08105-1.71516-1.47014-3.24493-2.46783-4.39843-3.01367-.58046-.27465-1.03304-.41901-1.34668-.46679-.06554-.00998-.11902-.01267-.16114-.01465.01487.06935.04161.16181.08789.27929.16719.4242.51687 1.00512 1.05176 1.70996 1.06117 1.39826 2.74105 3.14063 4.74512 4.86817.13521.11655.26897.22875.39844.33985.13555-.1561.27537-.31054.42383-.45899 3.41711-3.41709 8.95791-3.41708 12.37501 0 .2928.29279.2925.76759 0 1.06059-.2929.2928-.7677.2928-1.0606 0-2.8313-2.83133-7.4226-2.83134-10.2539 0-.1201.1201-.2337.2448-.3437.371 2.7505 2.3224 4.1047 3.318 6.0674 4.877 1.4733-1.2328 3.6703-1.1568 5.0547.2275.2928.2929.2928.7677 0 1.0606-.293.2926-.7678.2928-1.0606 0-.8787-.8787-2.303-.8787-3.1816 0-.8787.8787-.8787 2.3029 0 3.1816.2928.2928.2926.7677 0 1.0606-.2929.2929-.7677.2929-1.0606 0-1.1798-1.1798-1.4096-2.95-.6885-4.3594-1.9116-1.5181-3.2886-2.5343-5.99605-4.8164-1.53648 2.7589-1.13472 6.3076 1.20895 8.6514.2929.2929.2929.7676 0 1.0605-.2929.2925-.7677.2928-1.06051 0-2.90238-2.9024-3.33859-7.3364-1.31055-10.7002-.15908-.1363-.32356-.2754-.49121-.4199-2.05607-1.77237-3.81737-3.58985-4.96094-5.09669-.5673-.74753-1.01104-1.45613-1.25195-2.06738-.11994-.30441-.20751-.62892-.20899-.94727-.00143-.33052.09255-.69792.38086-.98633z" fill="#00a008"/></svg>