<svg fill="none" height="16" viewBox="0 0 16 16" width="16" xmlns="http://www.w3.org/2000/svg"><g fill="#00a008"><path d="m5.5 3c-.27614 0-.5.22386-.5.5v1c0 .27614.22386.5.5.5h1c.27614 0 .5-.22386.5-.5v-1c0-.27614-.22386-.5-.5-.5z"/><path d="m5.5 7c-.27614 0-.5.22386-.5.5v1c0 .27614.22386.5.5.5h1c.27614 0 .5-.22386.5-.5v-1c0-.27614-.22386-.5-.5-.5z"/><path d="m5 11.5c0-.2761.22386-.5.5-.5h1c.27614 0 .5.2239.5.5v1c0 .2761-.22386.5-.5.5h-1c-.27614 0-.5-.2239-.5-.5z"/><path d="m9.5 3c-.27614 0-.5.22386-.5.5v1c0 .27614.22386.5.5.5h1c.2761 0 .5-.22386.5-.5v-1c0-.27614-.2239-.5-.5-.5z"/><path d="m9 7.5c0-.27614.22386-.5.5-.5h1c.2761 0 .5.22386.5.5v1c0 .27614-.2239.5-.5.5h-1c-.27614 0-.5-.22386-.5-.5z"/><path d="m9.5 11c-.27614 0-.5.2239-.5.5v1c0 .2761.22386.5.5.5h1c.2761 0 .5-.2239.5-.5v-1c0-.2761-.2239-.5-.5-.5z"/></g></svg>