<svg fill="none" height="24" viewBox="0 0 24 24" width="24" xmlns="http://www.w3.org/2000/svg"><g fill="#00a008"><path d="m7.5 3c-.27614 0-.5.22386-.5.5v1c0 .27614.22386.5.5.5h1c.27614 0 .5-.22386.5-.5v-1c0-.27614-.22386-.5-.5-.5z"/><path d="m7.5 11c-.27614 0-.5.2239-.5.5v1c0 .2761.22386.5.5.5h1c.27614 0 .5-.2239.5-.5v-1c0-.2761-.22386-.5-.5-.5z"/><path d="m7 19.5c0-.2761.22386-.5.5-.5h1c.27614 0 .5.2239.5.5v1c0 .2761-.22386.5-.5.5h-1c-.27614 0-.5-.2239-.5-.5z"/><path d="m15.5 3c-.2761 0-.5.22386-.5.5v1c0 .27614.2239.5.5.5h1c.2761 0 .5-.22386.5-.5v-1c0-.27614-.2239-.5-.5-.5z"/><path d="m15 11.5c0-.2761.2239-.5.5-.5h1c.2761 0 .5.2239.5.5v1c0 .2761-.2239.5-.5.5h-1c-.2761 0-.5-.2239-.5-.5z"/><path d="m15.5 19c-.2761 0-.5.2239-.5.5v1c0 .2761.2239.5.5.5h1c.2761 0 .5-.2239.5-.5v-1c0-.2761-.2239-.5-.5-.5z"/></g></svg>