<svg fill="none" height="16" viewBox="0 0 16 16" width="16" xmlns="http://www.w3.org/2000/svg"><path clip-rule="evenodd" d="m9.22168 1c.96652 0 1.75102.78541 1.75102 1.75391v.72363h.0273c1.9329 0 3.4999 1.56993 3.5 3.50684v4.00882c-.0002 1.9368-1.5671 3.5068-3.5 3.5068h-6c-1.93287 0-3.49979-1.57-3.5-3.5068v-4.00882c.00009-1.93691 1.56706-3.50684 3.5-3.50684h.02734v-.72363c0-.96837.78368-1.7537 1.75-1.75391zm3.77832 8.88965c-.2344.06576-.4863.10058-.75.10058h-2.40527c-.04973.47877-.4535.85227-.94434.85257h-1.80078c-.49092-.0002-.89459-.3738-.94434-.85257h-2.40527c-.26373 0-.51557-.03482-.75-.10058v1.10355c.00021 1.1066.89556 2.0039 2 2.0039h6c1.1044 0 1.9998-.8973 2-2.0039zm-5.34961-.54981h.69922v-.70214h-.69922zm-2.65039-4.35937c-1.10452 0-1.99991.89713-2 2.00391v.75195l.00391.09082c.0401.44033.37257.66015.74609.66015h2.40039v-.40039c0-.52565.42468-.95199.94922-.95214h1.80078c.52445.00026.94922.42655.94922.95214v.40039h2.40039c.3735 0 .706-.21982.7461-.66015l.0039-.09082v-.75195c-.0001-1.10678-.8955-2.00391-2-2.00391zm1.77734-2.47754c-.13789.0002-.25.11275-.25.25098v.72363h2.94532v-.72363c0-.13836-.11291-.25098-.25098-.25098z" fill="#00a008" fill-rule="evenodd"/></svg>