<svg fill="none" height="20" viewBox="0 0 20 20" width="20" xmlns="http://www.w3.org/2000/svg"><path d="m14.5 4.11h-.65c-.08-1.45-1.27-2.61-2.74-2.61h-2.22c-1.47 0-2.66 1.16-2.74 2.61h-.65c-2.21 0-4 1.79-4 4v5.89c0 2.21 1.79 4 4 4h9c2.21 0 4-1.79 4-4v-5.89c0-2.21-1.79-4-4-4zm-5.61-1.11h2.22c.64 0 1.15.49 1.22 1.11h-4.66c.07-.62.58-1.11 1.22-1.11zm5.61 13.5h-9c-1.38 0-2.5-1.12-2.5-2.5v-1.81c.38.19.8.31 1.25.31h3.69c.32.59.94 1 1.66 1h.8c.72 0 1.34-.41 1.66-1h3.69c.45 0 .87-.12 1.25-.31v1.81c0 1.38-1.12 2.5-2.5 2.5zm-5.3-4.9v-.7c0-.22.18-.4.4-.4h.8c.22 0 .4.18.4.4v.7c0 .22-.18.4-.4.4h-.8c-.22 0-.4-.18-.4-.4zm6.55-.6h-3.45v-.1c0-1.05-.85-1.9-1.9-1.9h-.8c-1.05 0-1.9.85-1.9 1.9v.1h-3.45c-.69 0-1.25-.56-1.25-1.25v-1.64c0-1.38 1.12-2.5 2.5-2.5h9c1.38 0 2.5 1.12 2.5 2.5v1.64c0 .69-.56 1.25-1.25 1.25z" fill="#00a008"/></svg>