<svg fill="none" height="24" viewBox="0 0 24 24" width="24" xmlns="http://www.w3.org/2000/svg"><path clip-rule="evenodd" d="m14 1.5c1.5188.00003 2.75 1.23123 2.75 2.75v.5h1.25c2.4853.00003 4.5 2.01473 4.5 4.5v8.25c0 2.4853-2.0147 4.5-4.5 4.5h-12c-2.48528 0-4.5-2.0147-4.5-4.5v-8.25c0-2.48528 2.01472-4.5 4.5-4.5h1.25v-.5c0-1.51878 1.23122-2.75 2.75-2.75zm7 12.6963c-.3754.1922-.7993.3037-1.25.3037h-5.293c-.1837.8572-.9453 1.5-1.8574 1.5h-1.2002c-.912-.0002-1.67374-.6428-1.85741-1.5h-5.29199c-.4505 0-.87473-.1107-1.25-.3027v3.3027c0 1.6569 1.34315 3 3 3h12c1.6568 0 3-1.3432 3-3zm-9.6006-1.6963c-.2207.0002-.3994.1796-.3994.4004v1.1992c0 .2208.1787.4002.3994.4004h1.2002c.2209 0 .4004-.1795.4004-.4004v-1.1992c0-.2209-.1795-.4004-.4004-.4004zm-5.3994-6.25c-1.65685 0-3 1.34315-3 3v2.5l.00586.1279c.06405.6303.59696 1.1221 1.24414 1.1221h5.25v-.0996c0-1.0492.8502-1.9002 1.8994-1.9004h1.2002c1.0494 0 1.9004.851 1.9004 1.9004v.0996h5.25c.6471-.0001 1.1791-.4919 1.2432-1.1221l.0068-.1279v-2.5c0-1.65684-1.3432-2.99997-3-3zm4-3.25c-.69036 0-1.25.55964-1.25 1.25v.5h6.5v-.5c0-.69034-.5597-1.24997-1.25-1.25z" fill="#00a008" fill-rule="evenodd"/></svg>