<svg fill="none" height="16" viewBox="0 0 16 16" width="16" xmlns="http://www.w3.org/2000/svg"><path clip-rule="evenodd" d="m11.4395.988666c1.3077-.307693 2.5605.684884 2.5605 2.028324v7.98341c-.0002 1.1044-.8956 2-2 2s-1.9998-.8956-2-2c0-1.10459.8954-2.00002 2-2.00002.1728 0 .3401.02325.5.06446v-3.54688l-7 1.67969v5.80275l-.01074.2041c-.10244 1.0085-.95374 1.7959-1.98926 1.7959-1.10444 0-1.99979-.8956-2-2 0-1.1046.89543-2 2-2 .17281 0 .34006.0232.5.0644v-6.14742c.00002-1.27611.87794-2.38446 2.12012-2.67676zm1.0605 2.028324c0-.37609-.3507-.65435-.7168-.56836l-5.31933 1.25195c-.56463.13285-.96385.63675-.96387 1.2168v.7373l7-1.68066z" fill="#00a008" fill-rule="evenodd"/></svg>