<svg fill="none" height="20" viewBox="0 0 20 20" width="20" xmlns="http://www.w3.org/2000/svg"><path clip-rule="evenodd" d="m13.9688 1.49138c1.532-.40287 3.0309.75275 3.0312 2.33692v10.1719c-.0001 1.6567-1.3432 3-3 3s-2.9999-1.3433-3-3c0-1.6569 1.3431-3 3-3 .5468 0 1.0585.1477 1.5.4033v-4.64552l-8 2.18164v7.06058c-.00014 1.6567-1.34324 3-3 3s-2.99986-1.3433-3-3c0-1.6569 1.34315-3 3-3 .54683 0 1.05852.1477 1.5.4033v-7.31056c.00041-1.47599.99539-2.76691 2.42285-3.14257zm-9.4688 13.00882c-.82843 0-1.5.6715-1.5 1.5.00014.8283.67166 1.5 1.5 1.5s1.49986-.6717 1.5-1.5c0-.8285-.67157-1.5-1.5-1.5zm9.5-2c-.8284 0-1.5.6715-1.5 1.5.0001.8283.6717 1.5 1.5 1.5s1.4999-.6717 1.5-1.5c0-.8285-.6716-1.5-1.5-1.5zm1.5-8.6719c-.0003-.60078-.5693-1.03956-1.1504-.88672l-5.54491 1.45898c-.76851.20224-1.30428.89779-1.30469 1.69238v1.292l8-2.18164z" fill="#00a008" fill-rule="evenodd"/></svg>