<svg fill="none" height="24" viewBox="0 0 24 24" width="24" xmlns="http://www.w3.org/2000/svg"><path clip-rule="evenodd" d="m16.5264 1.96591c1.7492-.47708 3.4734.83924 3.4736 2.65234v11.88185l-.0049.1797c-.0936 1.8494-1.6224 3.3203-3.4951 3.3203-1.9329 0-3.4999-1.5671-3.5-3.5 0-1.933 1.567-3.5 3.5-3.5.7438 0 1.433.2323 2 .6279v-5.64647l-9.5 2.59087v8.9277c-.00009 1.9329-1.56706 3.5-3.5 3.5s-3.49991-1.5671-3.5-3.5c0-1.933 1.567-3.5 3.5-3.5.74378 0 1.43302.2323 2 .6279v-9.33689c.00017-1.69091 1.13232-3.17227 2.7637-3.61719zm-11.0264 15.53419c-1.10457 0-2 .8954-2 2 .00009 1.1045.89549 2 2 2s1.99991-.8955 2-2c0-1.1046-.89543-2-2-2zm11-3c-1.1046 0-2 .8954-2 2 .0001 1.1045.8955 2 2 2s1.9999-.8955 2-2c0-1.1046-.8954-2-2-2zm2-9.88185c-.0002-.82404-.784-1.42289-1.5791-1.20605l-6.2627 1.70898c-.97875.26695-1.65803 1.15545-1.6582 2.16993v1.72656l9.5-2.59082z" fill="#00a008" fill-rule="evenodd"/></svg>