<svg fill="none" height="16" viewBox="0 0 16 16" width="16" xmlns="http://www.w3.org/2000/svg"><g fill="#00a008"><path d="m6.5 6.57422c.00008-.63356.66689-1.02969 1.2002-.71289l2.3994 1.42578c.5333.31681.5333 1.10897 0 1.42578l-2.3994 1.42581c-.53331.3168-1.20012-.0794-1.2002-.71292z"/><path clip-rule="evenodd" d="m8.36035 1.00879c3.69855.18754 6.63965 3.24609 6.63965 6.99121l-.0088.36035c-.1875 3.69855-3.2461 6.63965-6.9912 6.63965l-.36035-.0088c-3.57917-.1815-6.44936-3.0517-6.63086-6.63085l-.00879-.36035c0-3.86597 3.13403-6.99999 7-7zm-.36035 1.49121c-3.03755.00001-5.5 2.46245-5.5 5.5.00001 3.0375 2.46246 5.5 5.5 5.5 3.0375 0 5.5-2.4625 5.5-5.5 0-3.03755-2.4625-5.49999-5.5-5.5z" fill-rule="evenodd"/></g></svg>