<svg fill="none" height="20" viewBox="0 0 20 20" width="20" xmlns="http://www.w3.org/2000/svg"><g fill="#00a008"><path d="m8.04883 8.09863c.00031-.84455.83346-1.37253 1.5-.95019l2.99997 1.90136c.6663.42249.6663 1.4779 0 1.9004l-2.99997 1.9014c-.66654.4223-1.49969-.1057-1.5-.9502z"/><path clip-rule="evenodd" d="m10.4375 1.51074c4.4911.2277 8.0625 3.94157 8.0625 8.48926l-.0107.4375c-.2277 4.4911-3.9416 8.0625-8.4893 8.0625l-.4375-.0107c-4.34621-.2204-7.83141-3.7056-8.05176-8.0518l-.01074-.4375c0-4.69442 3.80558-8.5 8.5-8.5zm-.4375 1.48926c-3.86599 0-7 3.13401-7 7 0 3.866 3.13401 7 7 7 3.866 0 7-3.134 7-7 0-3.86599-3.134-7-7-7z" fill-rule="evenodd"/></g></svg>