<svg fill="none" height="24" viewBox="0 0 24 24" width="24" xmlns="http://www.w3.org/2000/svg"><g fill="#00a008"><path d="m9 9.46582c0-1.12645 1.2198-1.8308 2.1953-1.26758l4.3897 2.53416c.9755.5632.9755 1.972 0 2.5352l-4.3897 2.5342c-.9755.5632-2.1953-.1412-2.1953-1.2676z"/><path clip-rule="evenodd" d="m12 2c5.5228 0 10 4.47715 10 10 0 5.5228-4.4772 10-10 10-5.52285 0-10-4.4772-10-10 0-5.52285 4.47715-10 10-10zm0 1.5c-4.69442 0-8.5 3.80558-8.5 8.5 0 4.6944 3.80558 8.5 8.5 8.5 4.6944 0 8.5-3.8056 8.5-8.5 0-4.69442-3.8056-8.5-8.5-8.5z" fill-rule="evenodd"/></g></svg>