<svg fill="none" height="16" viewBox="0 0 16 16" width="16" xmlns="http://www.w3.org/2000/svg"><g fill="#00a008"><path d="m9.75 5c-.41421 0-.75.33579-.75.75v3.25h-1.44097c.26649-.29751.25343-.755-.03513-1.03669-.29641-.28934-.77125-.28361-1.06059.01279l-1.22996 1.25999c-.28605.29303-.28417.76133.0042 1.05211l1.22997 1.24c.2917.2941.76657.296 1.06065.0043.28486-.2826.2956-.737.03087-1.0325h2.19096c.4142 0 .75-.3358.75-.75v-4c0-.41421-.3358-.75-.75-.75z"/><path clip-rule="evenodd" d="m7.25 1.5c-1.24264 0-2.25 1.00736-2.25 2.25v1.25h-1.25c-1.24264 0-2.25 1.00736-2.25 2.25v5c0 1.2426 1.00736 2.25 2.25 2.25h8.5c1.2426 0 2.25-1.0074 2.25-2.25v-8.5c0-1.24264-1.0074-2.25-2.25-2.25zm-.75 2.25c0-.41421.33579-.75.75-.75h5c.4142 0 .75.33579.75.75v8.5c0 .4142-.3358.75-.75.75h-8.5c-.41421 0-.75-.3358-.75-.75v-5c0-.41421.33579-.75.75-.75h1.8c.52467 0 .95-.42533.95-.95z" fill-rule="evenodd"/></g></svg>