<svg fill="none" height="20" viewBox="0 0 20 20" width="20" xmlns="http://www.w3.org/2000/svg"><g fill="#00a008"><path d="m12.75 6c-.4142 0-.75.33579-.75.75v4.25h-3.43129l.46616-.4743c.29037-.2954.28628-.77021-.00912-1.06057-.2954-.29037-.77026-.28628-1.06062.00912l-1.72997 1.75995c-.288.293-.28666.7632.00301 1.0546l1.72997 1.74c.29204.2937.76691.2951 1.06065.0031.29374-.2921.29512-.767.00307-1.0607l-.46848-.4712h4.18662c.4142 0 .75-.3358.75-.75v-5c0-.41421-.3358-.75-.75-.75z"/><path clip-rule="evenodd" d="m9.75 2c-1.51878 0-2.75 1.23122-2.75 2.75v1.25h-2.25c-1.51878 0-2.75 1.23122-2.75 2.75v6.5c0 1.5188 1.23122 2.75 2.75 2.75h10.5c1.5188 0 2.75-1.2312 2.75-2.75v-10.5c0-1.51878-1.2312-2.75-2.75-2.75zm-1.25 2.75c0-.69036.55964-1.25 1.25-1.25h5.5c.6904 0 1.25.55964 1.25 1.25v10.5c0 .6904-.5596 1.25-1.25 1.25h-10.5c-.69036 0-1.25-.5596-1.25-1.25v-6.5c0-.69036.55964-1.25 1.25-1.25h2.8c.52467 0 .95-.42533.95-.95z" fill-rule="evenodd"/></g></svg>