<svg fill="none" height="24" viewBox="0 0 24 24" width="24" xmlns="http://www.w3.org/2000/svg"><g fill="#00a008"><path d="m14.75 7c-.4142 0-.75.33579-.75.75v5.75h-3.4313l.4662-.4743c.2903-.2954.2862-.7702-.0092-1.0606-.2954-.2903-.7702-.2862-1.06057.0092l-1.72997 1.7599c-.288.293-.28666.7632.00301 1.0546l1.72997 1.74c.29206.2937.76696.2951 1.06066.0031.2937-.2921.2951-.767.0031-1.0607l-.4685-.4712h4.1866c.4142 0 .75-.3358.75-.75v-6.5c0-.41421-.3358-.75-.75-.75z"/><path clip-rule="evenodd" d="m10.75 2.5c-1.79493 0-3.25 1.45507-3.25 3.25v1.75h-1.75c-1.79493 0-3.25 1.45507-3.25 3.25v7.5c0 1.7949 1.45507 3.25 3.25 3.25h12.5c1.7949 0 3.25-1.4551 3.25-3.25v-12.5c0-1.79493-1.4551-3.25-3.25-3.25zm-1.75 3.25c0-.9665.7835-1.75 1.75-1.75h7.5c.9665 0 1.75.7835 1.75 1.75v12.5c0 .9665-.7835 1.75-1.75 1.75h-12.5c-.9665 0-1.75-.7835-1.75-1.75v-7.5c0-.9665.7835-1.75 1.75-1.75h2.3c.52467 0 .95-.42533.95-.95z" fill-rule="evenodd"/></g></svg>