<svg fill="none" height="16" viewBox="0 0 16 16" width="16" xmlns="http://www.w3.org/2000/svg"><circle cx="8" cy="8" fill="#fff" r="7"/><g fill="#f00"><path d="m14.9291 9c.0467-.3266.0709-.66048.0709-1s-.0242-.6734-.0709-1h-5.9291v-5.92911c-.3266-.04672-.66048-.07089-1-.07089s-.6734.02417-1 .07089v5.92911h-5.92911c-.04672.3266-.07089.66048-.07089 1s.02417.6734.07089 1h5.92911v5.9291c.3266.0467.66048.0709 1 .0709s.6734-.0242 1-.0709v-5.9291z"/><path d="m5 3h-1v.99994h-1v1h1v1.00006h1v-1.00006h1v-1h-1z"/><path d="m5 10h-1v.9999h-1v1h1v1.0001h1v-1.0001h1v-1h-1z"/><path d="m12 3h-1v.99994h-1v1h1v1.00006h1v-1.00006h1v-1h-1z"/><path d="m12 10h-1v.9999h-1v1h1v1.0001h1v-1.0001h1v-1h-1z"/></g><path clip-rule="evenodd" d="m8 14c3.3137 0 6-2.6863 6-6 0-3.31371-2.6863-6-6-6-3.31371 0-6 2.68629-6 6 0 3.3137 2.68629 6 6 6zm0 1c3.866 0 7-3.134 7-7 0-3.86599-3.134-7-7-7-3.86599 0-7 3.13401-7 7 0 3.866 3.13401 7 7 7z" fill="#a50c0f" fill-opacity=".3" fill-rule="evenodd"/></svg>