<svg fill="none" height="20" viewBox="0 0 20 20" width="20" xmlns="http://www.w3.org/2000/svg"><rect fill="#fff" height="18" rx="9" width="18" x="1" y="1"/><g fill="#f00"><path d="m11 18.9451c-.3283.0363-.662.0549-1 .0549-.33801 0-.67167-.0186-1-.0549v-7.9451h-7.94507c-.0363-.3283-.05493-.662-.05493-1 0-.33801.01863-.67167.05493-1h7.94507v-7.94507c.32833-.0363.66199-.05493 1-.05493.338 0 .6717.01863 1 .05493v7.94507h7.9451c.0363.32833.0549.66199.0549 1 0 .338-.0186.6717-.0549 1h-7.9451z"/><path d="m11 18.9451c-.3283.0363-.662.0549-1 .0549-.33801 0-.67167-.0186-1-.0549v-7.9451h-7.94507c-.0363-.3283-.05493-.662-.05493-1 0-.33801.01863-.67167.05493-1h7.94507v-7.94507c.32833-.0363.66199-.05493 1-.05493.338 0 .6717.01863 1 .05493v7.94507h7.9451c.0363.32833.0549.66199.0549 1 0 .338-.0186.6717-.0549 1h-7.9451z"/><path d="m7 5h-1v1h-1v1h1v1h1v-1h1v-1h-1z"/><path d="m7 5h-1v1h-1v1h1v1h1v-1h1v-1h-1z"/><path d="m7 12h-1v1h-1v1h1v1h1v-1h1v-1h-1z"/><path d="m7 12h-1v1h-1v1h1v1h1v-1h1v-1h-1z"/><path d="m14 5h-1v1h-1v1h1v1h1v-1h1v-1h-1z"/><path d="m14 5h-1v1h-1v1h1v1h1v-1h1v-1h-1z"/><path d="m14 12h-1v1h-1v1h1v1h1v-1h1v-1h-1z"/><path d="m14 12h-1v1h-1v1h1v1h1v-1h1v-1h-1z"/></g><path clip-rule="evenodd" d="m10 18c4.4183 0 8-3.5817 8-8 0-4.41828-3.5817-8-8-8-4.41828 0-8 3.58172-8 8 0 4.4183 3.58172 8 8 8zm0 1c4.9706 0 9-4.0294 9-9 0-4.97056-4.0294-9-9-9-4.97056 0-9 4.02944-9 9 0 4.9706 4.02944 9 9 9z" fill="#a50c0f" fill-opacity=".3" fill-rule="evenodd"/></svg>