<svg fill="none" height="24" viewBox="0 0 24 24" width="24" xmlns="http://www.w3.org/2000/svg"><rect fill="#fff" height="20" rx="10" width="20" x="2" y="2"/><g fill="#f00"><path d="m14 21.8c-.6462.1311-1.3151.2-2 .2s-1.3538-.0689-2-.2v-7.8h-7.79996c-.13118-.6462-.20004-1.3151-.20004-2s.06886-1.3538.20004-2h7.79996v-7.79996c.6462-.13118 1.3151-.20004 2-.20004s1.3538.06886 2 .20004v7.79996h7.8c.1311.6462.2 1.3151.2 2s-.0689 1.3538-.2 2h-7.8z"/><path d="m14 21.8c-.6462.1311-1.3151.2-2 .2s-1.3538-.0689-2-.2v-7.8h-7.79996c-.13118-.6462-.20004-1.3151-.20004-2s.06886-1.3538.20004-2h7.79996v-7.79996c.6462-.13118 1.3151-.20004 2-.20004s1.3538.06886 2 .20004v7.79996h7.8c.1311.6462.2 1.3151.2 2s-.0689 1.3538-.2 2h-7.8z"/><path d="m8 6h-1v1h-1v1h1v1h1v-1h1v-1h-1z"/><path d="m8 6h-1v1h-1v1h1v1h1v-1h1v-1h-1z"/><path d="m8 15h-1v1h-1v1h1v1h1v-1h1v-1h-1z"/><path d="m8 15h-1v1h-1v1h1v1h1v-1h1v-1h-1z"/><path d="m17 6h-1v1h-1v1h1v1h1v-1h1v-1h-1z"/><path d="m17 6h-1v1h-1v1h1v1h1v-1h1v-1h-1z"/><path d="m17 15h-1v1h-1v1h1v1h1v-1h1v-1h-1z"/><path d="m17 15h-1v1h-1v1h1v1h1v-1h1v-1h-1z"/></g><path clip-rule="evenodd" d="m12 21c4.9706 0 9-4.0294 9-9 0-4.97056-4.0294-9-9-9-4.97056 0-9 4.02944-9 9 0 4.9706 4.02944 9 9 9zm0 1c5.5228 0 10-4.4772 10-10 0-5.52285-4.4772-10-10-10-5.52285 0-10 4.47715-10 10 0 5.5228 4.47715 10 10 10z" fill="#a50c0f" fill-opacity=".3" fill-rule="evenodd"/></svg>