<svg fill="none" height="16" viewBox="0 0 16 16" width="16" xmlns="http://www.w3.org/2000/svg"><g fill="#00a008"><path d="m8.75001 5.75c0-.41421-.33579-.75-.75-.75-.41422 0-.75001.33579-.75001.75l.00008 1.50839-1.50008-.00477c-.41421 0-.75.33578-.75.75 0 .41421.33579.75.75.75l1.50008.00477-.00008 1.49161c0 .4142.33579.75.75001.75.41421 0 .75-.3358.75-.75l.00007-1.49161 1.49992-.00839c.4142 0 .75-.33579.75-.75s-.3358-.75-.75-.75l-1.49991.00839z"/><path clip-rule="evenodd" d="m5.25 1.5c-2.07107 0-3.75 1.67893-3.75 3.75v8c0 .6904.55964 1.25 1.25 1.25h8c2.0711 0 3.75-1.6789 3.75-3.75v-5.5c0-2.07107-1.6789-3.75-3.75-3.75zm-2.25 3.75c0-1.24264 1.00736-2.25 2.25-2.25h5.5c1.2426 0 2.25 1.00736 2.25 2.25v5.5c0 1.2426-1.0074 2.25-2.25 2.25h-7.75z" fill-rule="evenodd"/></g></svg>