<svg fill="none" height="20" viewBox="0 0 20 20" width="20" xmlns="http://www.w3.org/2000/svg"><g fill="#00a008"><path d="m9.25 6.75c0-.41421.33579-.75.75-.75.4142 0 .75.33579.75.75v2.5h2.5c.4142 0 .75.33579.75.75 0 .4142-.3358.75-.75.75h-2.5v2.5c0 .4142-.3358.75-.75.75-.41421 0-.75-.3358-.75-.75v-2.5h-2.5c-.41421 0-.75-.3358-.75-.75 0-.41421.33579-.75.75-.75h2.5z"/><path clip-rule="evenodd" d="m6.5 2c-2.48528 0-4.5 2.01472-4.5 4.5v9.75c0 .9665.7835 1.75 1.75 1.75h9.75c2.4853 0 4.5-2.0147 4.5-4.5v-7c0-2.48528-2.0147-4.5-4.5-4.5zm-3 4.5c0-1.65685 1.34315-3 3-3h7c1.6569 0 3 1.34315 3 3v7c0 1.6569-1.3431 3-3 3h-9.75c-.13807 0-.25-.1119-.25-.25z" fill-rule="evenodd"/></g></svg>