<svg fill="none" height="24" viewBox="0 0 24 24" width="24" xmlns="http://www.w3.org/2000/svg"><g fill="#00a008"><path d="m12.7501 7.75c0-.41421-.3358-.75-.75-.75s-.75.33579-.75.75l.0002 3.5014-3.5003-.0048c-.41421 0-.75.3358-.75.75s.33579.75.75.75l3.5003.0048-.0002 3.4986c0 .4142.3358.75.75.75s.75-.3358.75-.75l.0002-3.4986 3.4997-.0048c.4142 0 .75-.3358.75-.75s-.3358-.75-.75-.75l-3.4997.0048z"/><path clip-rule="evenodd" d="m7.75 2.5c-2.89949 0-5.25 2.3505-5.25 5.25v12c0 .9665.7835 1.75 1.75 1.75h12c2.8995 0 5.25-2.3505 5.25-5.25v-8.5c0-2.89949-2.3505-5.25-5.25-5.25zm-3.75 5.25c0-2.07107 1.67893-3.75 3.75-3.75h8.5c2.0711 0 3.75 1.67893 3.75 3.75v8.5c0 2.0711-1.6789 3.75-3.75 3.75h-12c-.13807 0-.25-.1119-.25-.25z" fill-rule="evenodd"/></g></svg>