<svg fill="none" height="20" viewBox="0 0 20 20" width="20" xmlns="http://www.w3.org/2000/svg"><g fill="#00a008"><path d="m4.24715 2.49609c-1.51721 0-2.74715 1.22994-2.74715 2.74715v4.00676c0 .41421.33579.75.75.75s.75-.33579.75-.75v-4.00676c0-.68878.55837-1.24715 1.24715-1.24715h3.63609c.40057 0 .76679.2262.94613.58437.43358.86593 1.31893 1.41278 2.28743 1.41278h4.1332c.9665 0 1.75.7835 1.75 1.75v.2556h-10.25c-.41421 0-.75.33579-.75.75s.33579.75.75.75h10.25v4.74996c0 .9665-.7835 1.75-1.75 1.75h-4.6168c-.4142 0-.74996.3358-.74996.75 0 .4143.33576.75.74996.75h4.6168c1.7949 0 3.25-1.455 3.25-3.25v-6.50556c0-1.79492-1.4551-3.25-3.25-3.25h-4.1332c-.4006 0-.7668-.22619-.9462-.58437-.43355-.86592-1.31894-1.41278-2.28736-1.41278z"/><path d="m7.53033 13.8803c.29289-.2929.29289-.7678 0-1.0607-.29289-.2928-.76777-.2928-1.06066 0l-1.46967 1.4697-1.46967-1.4697c-.29289-.2928-.76777-.2928-1.06066 0-.29289.2929-.29289.7678 0 1.0607l1.85858 1.8586c.371.371.9725.371 1.3435 0z"/></g></svg>