<svg fill="none" height="16" viewBox="0 0 16 16" width="16" xmlns="http://www.w3.org/2000/svg"><g fill="#00a008"><path d="m7.75 7.25c.41421 0 .75.33579.75.75v4.1895l1.21973-1.2198c.29287-.2929.76767-.2929 1.06057 0s.2929.7677 0 1.0606l-2.50003 2.5c-.29289.2929-.76765.2929-1.06054 0l-2.5-2.5c-.2929-.2929-.2929-.7677 0-1.0606.29289-.2929.76765-.2929 1.06054 0l1.21973 1.2198v-4.1895c0-.41421.33579-.75.75-.75z"/><path d="m7.66699 2c2.11901.00013 3.92741 1.31948 4.65531 3.18066.6486.19441 1.2607.54563 1.7744 1.05664.8636.81993 1.4033 1.97781 1.4033 3.2627 0 2.0181-1.3286 3.7245-3.1588 4.2949-.4383.1367-.8412-.2256-.8412-.6848 0-.3764.2775-.6878.6263-.8292 1.0987-.4453 1.8737-1.5224 1.8737-2.7809 0-1.34563-.8873-2.48842-2.1123-2.86719l-.2588-.08008c-.4352-.08495-.8874-.0656-1.3154.06153-.39699.11777-.8147-.1089-.93264-.50586-.1175-.39673.10829-.81454.50488-.93262.22116-.06571.44736-.11073.67476-.13965-.58172-.85633-1.53013-1.44048-2.61812-1.52539l-.27539-.01074c-1.73797 0-3.18096 1.26781-3.45312 2.92871.3518.06193.61914.36873.61914.73828 0 .41422-.33579.75-.75.75-.55081.00009-1.05037.2153-1.42285.56446-.4096.42755-.66016 1.00688-.66016 1.64355 0 .952.56052 1.7708 1.36936 2.1487.34528.1612.63064.4736.63064.8547 0 .4573-.3989.8213-.83346.6788-1.54833-.5076-2.66654-1.9641-2.66654-3.6822 0-.0241.001513-.0482.001953-.0723-.00121-.0174-.001953-.035-.001953-.0527.000094-1.05794.458318-2.00916 1.1875-2.66504.29129-.28072.62546-.51725.99316-.69629.1852-2.59272 2.34644-4.63867 4.98633-4.63867z"/></g></svg>