<svg fill="none" height="20" viewBox="0 0 20 20" width="20" xmlns="http://www.w3.org/2000/svg"><g fill="#00a008"><path d="m9.75 10.25c.4142 0 .75.3358.75.75v5.1895l1.7197-1.7198c.2929-.2929.7677-.2929 1.0606 0s.2929.7677 0 1.0606l-3 3c-.29292.2929-.76768.2929-1.06057 0l-3-3c-.29289-.2929-.29289-.7677 0-1.0606s.76765-.2929 1.06054 0l1.71973 1.7198v-5.1895c0-.4142.33579-.75.75-.75z"/><path d="m9.58301 2.5c3.11439 0 5.69589 2.27815 6.17089 5.25879 1.9831.66361 3.4131 2.53481 3.4131 4.74121 0 2.3704-1.6499 4.3542-3.8638 4.8685-.4284.0996-.8032-.2539-.8032-.6938 0-.3924.3027-.7118.6784-.825 1.4398-.4337 2.4886-1.7686 2.4886-3.3497 0-.9208-.3579-1.7583-.9414-2.3838-.0213-.0171-.0428-.0349-.0625-.0547-.9734-.9732-2.3637-1.27823-3.5996-.91111-.3968.11771-.8145-.10819-.9326-.50488-.1178-.39678.1083-.81441.5048-.93262.498-.14795 1.0147-.21654 1.5303-.20996-.5473-2.01815-2.3925-3.50293-4.58299-3.50293-2.54736.00017-4.62687 2.00548-4.74512 4.52344.14921-.0157.30074-.02344.4541-.02344.41407.00018.75.3359.75.75s-.33593.74982-.75.75c-.26287 0-.51665.0385-.75781.1064l-.47266.2598c-.9338.5116-1.56152 1.5005-1.56152 2.6338 0 1.2585.77496 2.3356 1.87367 2.7809.34885.1414.62633.4528.62633.8292 0 .4592-.40286.8215-.84123.6848-1.83016-.5704-3.15877-2.2768-3.15877-4.2949 0-.0431.0027-.0861.00391-.1289-.00274-.026-.0039-.0524-.00391-.0791 0-1.6665.94999-3.11123 2.33789-3.82227-.00272-.07294-.00488-.14617-.00488-.21973 0-3.45167 2.79837-6.24982 6.25-6.25z"/></g></svg>