<svg fill="none" height="16" viewBox="0 0 16 16" width="16" xmlns="http://www.w3.org/2000/svg"><path clip-rule="evenodd" d="m7.5.5c1.38071 0 2.5 1.11929 2.5 2.5h2.3184l.2226.01172c1.1002.11163 1.9589 1.04026 1.959 2.16992v2.01836c0 .16569-.1343.3-.3.3h-1.2c-.5523 0-1 .44772-1 1s.4477 1 1 1h1.2c.1657 0 .3.13431.3.3v3.0184l-.0117.2226c-.1042 1.027-.9203 1.8431-1.9473 1.9473l-.2226.0117h-3.5184c-.16569 0-.3-.1343-.3-.3v-1.2c0-.5523-.44772-1-1-1s-1 .4477-1 1v1.2c0 .1657-.13431.3-.3.3h-2.51836c-1.12966-.0001-2.05829-.8588-2.16992-1.959l-.01172-.2226v-7.63676c.0001-1.20484.9768-2.18154 2.18164-2.18164h1.31836c0-1.38071 1.11929-2.5 2.5-2.5zm0 1.5c-.55228 0-1 .44772-1 1v1.2c0 .16569-.13431.3-.3.3h-2.51836c-.37642.0001-.68154.30522-.68164.68164v7.63676c.0001.3764.30522.6815.68164.6816h1.31836c0-1.3807 1.11929-2.5 2.5-2.5s2.5 1.1193 2.5 2.5h2.3184c.3764-.0001.6815-.3052.6816-.6816v-1.8184l-.2559-.0127c-1.2605-.1281-2.2441-1.19296-2.2441-2.4873s.9836-2.35918 2.2441-2.4873l.2559-.0127v-.81836c-.0001-.37642-.3052-.68154-.6816-.68164h-3.5184c-.16569 0-.3-.13431-.3-.3v-1.2c0-.55228-.44772-1-1-1z" fill="#00a008" fill-rule="evenodd"/></svg>