<svg fill="none" height="20" viewBox="0 0 20 20" width="20" xmlns="http://www.w3.org/2000/svg"><path clip-rule="evenodd" d="m10 1c1.6569 0 3 1.34315 3 3l2.2725.00098c1.5061.00009 2.7275 1.22136 2.7275 2.72754v2.37148c0 .22091-.1791.4-.4.4h-1.1c-.8284 0-1.5.6716-1.5 1.5s.6716 1.5 1.5 1.5h1.1c.2209 0 .4.1791.4.4v3.3734c-.0004 1.5059-1.2216 2.7275-2.7275 2.7276h-3.0909l-.2822-.0004c-.2207-.0003-.3994-.1793-.3994-.4v-1.1006c0-.8284-.6716-1.5-1.5-1.5-.82843 0-1.5.6716-1.5 1.5v1.1001c0 .2209-.17902.3999-.3999.4l-3.37256.0009-.2793-.0137c-1.37486-.1398-2.44786-1.3022-2.44824-2.7139v-9.54488c0-1.41198 1.07316-2.57405 2.44824-2.71387l.2793-.01367h2.27246c0-1.65686 1.34315-3.00098 3-3.00098zm0 1.5c-.82843 0-1.5.67157-1.5 1.5v1.1001c0 .22088-.17902.39995-.3999.4l-3.37256.00088c-.67772.00009-1.22754.54979-1.22754 1.22754v9.54488c.00041.6774.55007 1.2275 1.22754 1.2276h2.27246c0-1.6569 1.34315-3.001 3-3.001 1.6569 0 3 1.3431 3 3l2.2725.001c.6774-.0001 1.2271-.5502 1.2275-1.2276v-2.2734l-.1543-.0039c-1.5851-.0803-2.8457-1.391-2.8457-2.9961 0-1.60511 1.2606-2.91579 2.8457-2.99609l.1543-.00391v-1.27148c0-.67775-.5498-1.22745-1.2275-1.22754h-3.3725c-.2209 0-.4-.17909-.4-.4v-1.10098c0-.82843-.6716-1.5-1.5-1.5z" fill="#00a008" fill-rule="evenodd"/></svg>