<svg fill="none" height="24" viewBox="0 0 24 24" width="24" xmlns="http://www.w3.org/2000/svg"><path clip-rule="evenodd" d="m11.5 1c1.7632 0 3.2212 1.3039 3.4639 3h3.0361l.1543.00391c1.5851.0803 2.8457 1.39098 2.8457 2.99609v2.9c0 .3314-.2686.6-.6.6h-.4c-1.1046 0-2 .8954-2 2s.8954 2 2 2h.4c.3314 0 .6.2686.6.6v3.9l-.0039.1543c-.0777 1.534-1.3078 2.7641-2.8418 2.8418l-.1543.0039h-3.9c-.3314 0-.6-.2686-.6-.6v-.9c0-1.1046-.8954-2-2-2s-2 .8954-2 2v.9c0 .3314-.26863.6-.6.6h-2.9c-1.60511 0-2.91579-1.2606-2.99609-2.8457l-.00391-.1543v-12c0-1.65685 1.34315-3 3-3h2.03613c.24266-1.6961 1.70067-3 3.46387-3zm0 1.5c-1.1046 0-2 .89543-2 2v.4c0 .33137-.26863.6-.6.6h-2.9c-.82843 0-1.5.67157-1.5 1.5v12c0 .8284.67157 1.5 1.5 1.5h2c0-1.933 1.567-3.5 3.5-3.5s3.5 1.567 3.5 3.5h3c.8284 0 1.5-.6716 1.5-1.5v-3.0361c-1.6961-.2427-3-1.7007-3-3.4639 0-1.7633 1.3038-3.22225 3-3.46484v-2.03516c0-.82843-.6716-1.5-1.5-1.5h-3.9c-.3314 0-.6-.26863-.6-.6v-.4c0-1.10457-.8954-2-2-2z" fill="#00a008" fill-rule="evenodd"/></svg>