<svg fill="none" height="16" viewBox="0 0 16 16" width="16" xmlns="http://www.w3.org/2000/svg"><g clip-rule="evenodd" fill="#00a008" fill-rule="evenodd"><path d="m8.16604 1.5c-1.20098 2.38099-1.66602 5.09303-1.66602 6.75v.75h2.01856c.0169.40981.04743.91353.09766 1.4658-.20162.021-.40711.0342-.61622.0342-1.41703 0-2.67826-.4989-3.56835-1.27734l-.98829 1.12894c1.17447 1.0272 2.79106 1.6484 4.55664 1.6484.2682 0 .53269-.017.79297-.0449.00948.064.01826.1282.02832.1924.12465.7946.29862 1.6167.53907 2.3525h-3.86036c-1.39997 0-2.1-.0001-2.63476-.2725-.47041-.2396-.85309-.6223-1.09277-1.0927-.2724-.5348-.27247-1.2348-.27247-2.6348v-5c0-1.39998.00007-2.10001.27247-2.63477.23968-.4704.62236-.85309 1.09277-1.09277.53476-.27239 1.23479-.27246 2.63476-.27246zm-3.41602 3.5c-.41421 0-.75.33579-.75.75v.5c0 .41421.33579.75.75.75.41422 0 .75-.33579.75-.75v-.5c0-.41421-.33578-.75-.75-.75z"/><path d="m10.5 1.5c1.4 0 2.1.00007 2.6348.27246.4704.23968.8531.62237 1.0928 1.09277.2724.53476.2724 1.23479.2724 2.63477v5c0 1.4 0 2.1-.2724 2.6348-.2397.4704-.6224.8531-1.0928 1.0927-.4735.2412-1.0767.2674-2.1807.2705-.0509-.1252-.101-.2599-.1494-.4042-.2162-.645-.3796-1.405-.501-2.1788-.0143-.0915-.0269-.1832-.04-.2744.8654-.2834 1.6465-.7236 2.293-1.289l-.9883-1.12894c-.4179.36543-.9184.6672-1.4776.88674-.0687-.82202-.0908-1.50543-.0908-1.8594v-.75h-1.96775c.13239-1.68146.69326-4.06479 1.84668-6zm.75 3.5c-.4142 0-.75.33579-.75.75v.5c0 .41421.3358.75.75.75s.75-.33579.75-.75v-.5c0-.41421-.3358-.75-.75-.75z"/></g></svg>