<svg fill="none" height="20" viewBox="0 0 20 20" width="20" xmlns="http://www.w3.org/2000/svg"><g clip-rule="evenodd" fill="#00a008" fill-rule="evenodd"><path d="m10.4189 2c-.61228 1.05256-1.11922 2.22792-1.50581 3.3877-.57934 1.73802-.91309 3.50825-.91309 4.8623v.75h2.4326c-.0291.6377-.0136 1.407.0576 2.2314-.1617.0106-.325.0186-.4902.0186-1.78435 0-3.37754-.6284-4.50586-1.6152l-.98828 1.1289c1.4127 1.2357 3.36124 1.9863 5.49414 1.9863.2285 0 .4548-.0104.6787-.0273.181 1.0912.4727 2.2411.9219 3.2773h-4.00099c-1.95992 0-2.93984-.0004-3.68848-.3818-.65851-.3356-1.19375-.8708-1.52929-1.5293-.38146-.7487-.38184-1.7286-.38184-3.6885v-4.80079c0-1.95992.00038-2.93984.38184-3.68848.33554-.65851.87078-1.19375 1.52929-1.52929.74864-.38146 1.72856-.38184 3.68848-.38184zm-4.1689 4c-.41421 0-.75.33579-.75.75v1.5c0 .41421.33579.75.75.75s.75-.33579.75-.75v-1.5c0-.41421-.33579-.75-.75-.75z"/><path d="m12.4004 2c1.9599 0 2.9398.00038 3.6885.38184.6585.33554 1.1937.87078 1.5293 1.52929.3814.74864.3818 1.72856.3818 3.68848v4.80079c0 1.9599-.0004 2.9398-.3818 3.6885-.3356.6585-.8708 1.1937-1.5293 1.5293-.63.3209-1.4236.3698-2.8272.3779-.5367-.9923-.8929-2.2469-1.1035-3.5137 1.2737-.3205 2.4182-.916 3.3359-1.7187l-.9882-1.1289c-.6907.604-1.556 1.0721-2.5323 1.3457-.0874-1.0975-.0636-2.0487.0186-2.6241l.123-.8564h-2.57711c.09286-1.04796.36382-2.33268.79881-3.6377.4661-1.39826 1.1018-2.76973 1.8555-3.8623zm1.3496 4c-.4142 0-.75.33579-.75.75v1.5c0 .41421.3358.75.75.75s.75-.33579.75-.75v-1.5c0-.41421-.3358-.75-.75-.75z"/></g></svg>