<svg fill="none" height="24" viewBox="0 0 24 24" width="24" xmlns="http://www.w3.org/2000/svg"><g clip-rule="evenodd" fill="#00a008" fill-rule="evenodd"><path d="m12.8418 2.5c-1.9024 2.96527-2.8418 6.62357-2.8418 9.75v.75h3.0039c.0073.8083.0388 1.8369.166 2.9727-.3802.0521-.771.08-1.1699.08-2.05848 0-3.89991-.7248-5.20605-1.8672l-.98829 1.129c1.59053 1.3912 3.78731 2.2382 6.19434 2.2382.4723 0 .9366-.0337 1.3896-.0966.2442 1.3265.6403 2.7251 1.292 4.0439h-7.3818c-1.68002 0-2.52039-.0002-3.1621-.3271-.56423-.2876-1.02298-.7464-1.31055-1.3106-.32697-.6417-.32715-1.4821-.32715-3.1621v-9.4004c0-1.68002.00018-2.52039.32715-3.1621.28757-.56423.74632-1.02298 1.31055-1.31055.64171-.32697 1.48208-.32715 3.1621-.32715zm-5.5918 4.5c-.41421 0-.75.33579-.75.75v1.5c0 .41421.33579.75.75.75s.75-.33579.75-.75v-1.5c0-.41421-.33579-.75-.75-.75z"/><path d="m16.7002 2.5c1.68 0 2.5204.00018 3.1621.32715.5642.28757 1.023.74632 1.3106 1.31055.3269.64171.3271 1.48208.3271 3.1621v9.4004c0 1.68-.0002 2.5204-.3271 3.1621-.2876.5642-.7464 1.023-1.3106 1.3106-.6417.3269-1.4821.3271-3.1621.3271h-.3154c-.807-1.3699-1.2676-2.901-1.5313-4.3643 1.268-.3806 2.4081-1.0063 3.3399-1.8212l-.9873-1.129c-.7129.6235-1.5856 1.1206-2.5655 1.4454-.1375-1.3317-.1406-2.5263-.1406-3.3809v-.75h-2.9795c.1526-3.00498 1.209-6.41331 3.1455-9zm.0498 4.5c-.4142 0-.75.33579-.75.75v1.5c0 .41421.3358.75.75.75s.75-.33579.75-.75v-1.5c0-.41421-.3358-.75-.75-.75z"/></g></svg>