<svg fill="none" height="20" viewBox="0 0 20 20" width="20" xmlns="http://www.w3.org/2000/svg"><path clip-rule="evenodd" d="m10 1.5c4.6944 0 8.5 3.80558 8.5 8.5 0 4.6944-3.8056 8.5-8.5 8.5-4.69442 0-8.5-3.8056-8.5-8.5 0-4.69442 3.80558-8.5 8.5-8.5zm-.07715 7.50391c-.35261.03603-.63291.31633-.66894.66894-.0026.02536-.00391.0511-.00391.07715v3.5c0 .026.00131.0518.00391.0771.03862.378.35792.6729.74609.6729.4142 0 .75-.3358.75-.75v-3.5c0-.02605-.0013-.05179-.0039-.07715-.036-.35261-.3163-.63291-.669-.66894-.0253-.0026-.0511-.00391-.0771-.00391-.02605 0-.05179.00131-.07715.00391zm-.02539-2.99903c-.47043.0479-.84468.42215-.89258.89258-.00343.0337-.00488.06793-.00488.10254s.00145.06884.00488.10254c.0479.47043.42215.84468.89258.89258.0337.00343.06793.00488.10254.00488.0346 0 .0688-.00145.1025-.00488.4705-.0479.8447-.42215.8926-.89258.0034-.0337.0049-.06793.0049-.10254s-.0015-.06884-.0049-.10254c-.0479-.47043-.4221-.84468-.8926-.89258-.0337-.00343-.0679-.00488-.1025-.00488-.03461 0-.06884.00145-.10254.00488z" fill="#00a008" fill-rule="evenodd"/></svg>