<svg fill="none" height="24" viewBox="0 0 24 24" width="24" xmlns="http://www.w3.org/2000/svg"><path clip-rule="evenodd" d="m12 2c5.5228 0 10 4.47715 10 10 0 5.5228-4.4772 10-10 10-5.52285 0-10-4.4772-10-10 0-5.52285 4.47715-10 10-10zm-.0771 8.0039c-.3527.036-.633.3163-.669.669-.0026.0253-.0039.0511-.0039.0771v5.5c0 .026.0013.0518.0039.0771.036.3527.3163.633.669.669.0253.0026.0511.0039.0771.0039s.0518-.0013.0771-.0039c.3527-.036.633-.3163.669-.669.0026-.0253.0039-.0511.0039-.0771v-5.5c0-.026-.0013-.0518-.0039-.0771-.036-.3527-.3163-.633-.669-.669-.0253-.0026-.0511-.0039-.0771-.0039s-.0518.0013-.0771.0039zm-.0254-2.99902c-.5042.05133-.8975.47744-.8975.99512s.3933.94379.8975.99512c.0337.00343.0679.00488.1025.00488s.0688-.00145.1025-.00488c.4705-.0479.8447-.42215.8926-.89258.0034-.0337.0049-.06793.0049-.10254s-.0015-.06884-.0049-.10254c-.0479-.47043-.4221-.84468-.8926-.89258-.0337-.00343-.0679-.00488-.1025-.00488s-.0688.00145-.1025.00488z" fill="#00a008" fill-rule="evenodd"/></svg>