<svg fill="none" height="16" viewBox="0 0 16 16" width="16" xmlns="http://www.w3.org/2000/svg"><g fill="#00a008"><path d="m7.75 4.5c-.41421 0-.75.3359-.75.75011v.75001l-.75-.00001c-.41421 0-.75.33579-.75.75 0 .41422.33579.75.75.75l.75.00001v.74988c0 .41421.33579.75.75.75s.75-.33579.75-.75v-.74988h.74989c.41421 0 .75011-.33579.75011-.75 0-.41422-.3359-.75-.75011-.75h-.74989v-.75001c0-.41421-.33579-.75011-.75-.75011z"/><path clip-rule="evenodd" d="m4.5 1c-1.933 0-3.5 1.567-3.5 3.5v5c0 1.3962.81753 2.6015 2 3.1632v.8368c0 1.1517 1.24422 1.8738 2.24421 1.3024l3.00579-1.8024h3.25c1.933 0 3.5-1.567 3.5-3.5v-5c0-1.933-1.567-3.5-3.5-3.5zm0 11.0311c0-.193-.1111-.3688-.28545-.4516l-.57091-.2712c-.67919-.3227-1.14364-1.0127-1.14364-1.8083v-5c0-1.10457.89543-2 2-2h7c1.1046 0 2 .89543 2 2v5c0 1.1046-.8954 2-2 2h-3.5105c-.09022 0-.17875.0244-.25622.0706l-3.23328 1.9294z" fill-rule="evenodd"/></g></svg>