<svg fill="none" height="20" viewBox="0 0 20 20" width="20" xmlns="http://www.w3.org/2000/svg"><g fill="#00a008"><path d="m9.25035 6.75c0-.41421.33578-.75.74995-.75.4143 0 .75.33579.75.75v1.50015l1.4996-.00015c.4142 0 .7501.33579.7501.75s-.3359.75-.7501.75l-1.4996.00015v1.49985c0 .4142-.3357.75-.75.75-.41417 0-.74996-.3358-.74996-.75l.00001-1.49985-1.50035-.00015c-.41421 0-.75-.33579-.75-.75s.33579-.75.75-.75l1.50034.00015z"/><path clip-rule="evenodd" d="m2 6c0-2.20914 1.79086-4 4-4h8c2.2091 0 4 1.79086 4 4v6c0 2.2091-1.7909 4-4 4h-3.4l-3.22814 2.7206c-.99281.7091-2.37186-.0005-2.37186-1.2206v-1.626c-1.72523-.4441-3-2.0102-3-3.874zm4.12463 8.6146c.22094.0568.37537.256.37537.4842v2.4012l3.3417-2.7699c.1794-.1487.4051-.2301.6382-.2301h3.5201c1.3807 0 2.5-1.1193 2.5-2.5v-6c0-1.38071-1.1193-2.5-2.5-2.5h-8c-1.38071 0-2.5 1.11929-2.5 2.5v6c0 1.1628.7953 2.1437 1.87389 2.4213z" fill-rule="evenodd"/></g></svg>