<svg fill="none" height="24" viewBox="0 0 24 24" width="24" xmlns="http://www.w3.org/2000/svg"><g fill="#00a008"><path d="m11.75 7c.4142 0 .75.33579.75.75v1.75h1.75c.4142 0 .75.33579.75.75 0 .4142-.3358.75-.75.75h-1.75v1.75c0 .4142-.3358.75-.75.75s-.75-.3358-.75-.75v-1.75h-1.75c-.41421 0-.75-.3358-.75-.75 0-.41421.33579-.75.75-.75h1.75v-1.75c0-.41421.3358-.75.75-.75z"/><path clip-rule="evenodd" d="m2.5 14c0 2.4853 2.01472 4.5 4.5 4.5v2c0 1.2201 1.37905 1.9297 2.37186 1.2206l3.92814-3.2206h3.7c2.4853 0 4.5-2.0147 4.5-4.5v-7c0-2.48528-2.0147-4.5-4.5-4.5h-10c-2.48528 0-4.5 2.01472-4.5 4.5zm6 4c0-.5523-.44772-1-1-1h-.5c-1.65685 0-3-1.3431-3-3v-7c0-1.65685 1.34315-3 3-3h10c1.6569 0 3 1.34315 3 3v7c0 1.6569-1.3431 3-3 3h-3.8602c-.2085 0-.4117.0651-.5813.1863l-4.0585 3.3137z" fill-rule="evenodd"/></g></svg>