<svg fill="none" height="16" viewBox="0 0 16 16" width="16" xmlns="http://www.w3.org/2000/svg"><g fill="#00a008"><path d="m5.96973 7.96973c.29289-.2929.76765-.2929 1.06054 0 .2929.29289.2929.76765 0 1.06054l-.46972.46973.46972.46973c.2929.29287.2929.76767 0 1.06057-.29289.2929-.76765.2929-1.06054 0l-.8584-.8584c-.371-.37102-.371-.97278 0-1.34378z"/><path d="m8.96973 7.96973c.29289-.2929.76765-.2929 1.06057 0l.8584.85839c.371.371.371.97276 0 1.34378l-.8584.8584c-.29292.2929-.76768.2929-1.06057 0-.2929-.2929-.2929-.7677 0-1.06057l.46972-.46973-.46972-.46973c-.2929-.29289-.2929-.76765 0-1.06054z"/><path clip-rule="evenodd" d="m10.75 1.5c2.0711 0 3.75 1.67893 3.75 3.75v5.5c0 2.0711-1.6789 3.75-3.75 3.75h-5.5c-2.07107 0-3.75-1.6789-3.75-3.75v-5.5c0-2.07107 1.67893-3.75 3.75-3.75zm-7.75 9.25c0 1.2426 1.00736 2.25 2.25 2.25h5.5c1.2426 0 2.25-1.0074 2.25-2.25v-4.25h-10zm2.25-7.75c-1.1581 0-2.11094.87506-2.23535 2h9.97075c-.1245-1.12494-1.0773-2-2.2354-2z" fill-rule="evenodd"/></g></svg>