<svg fill="none" height="20" viewBox="0 0 20 20" width="20" xmlns="http://www.w3.org/2000/svg"><g fill="#00a008"><path d="m7.46973 9.46973c.29289-.2929.76765-.2929 1.06054 0 .2929.29289.2929.76767 0 1.06057l-.96972.9697.96972.9697c.2929.2929.2929.7677 0 1.0606-.29289.2929-.76765.2929-1.06054 0l-1.3584-1.3584c-.371-.371-.371-.9728 0-1.3438z"/><path d="m11.4697 9.46973c.2929-.2929.7677-.2929 1.0606 0l1.3584 1.35837c.371.371.371.9728 0 1.3438l-1.3584 1.3584c-.2929.2929-.7677.2929-1.0606 0s-.2929-.7677 0-1.0606l.9698-.9697-.9698-.9697c-.2929-.2929-.2929-.76768 0-1.06057z"/><path clip-rule="evenodd" d="m13.5 2c2.3162 0 4.2229 1.75007 4.4717 4h.0283v7.5c0 2.4853-2.0147 4.5-4.5 4.5h-7c-2.48528 0-4.5-2.0147-4.5-4.5v-7.5h.02832c.24876-2.24993 2.15544-4 4.47168-4zm-10 11.5c0 1.6569 1.34315 3 3 3h7c1.6569 0 3-1.3431 3-3v-6h-13zm3-10c-1.48647 0-2.71993 1.08118-2.95801 2.5h12.91601c-.2381-1.41882-1.4715-2.5-2.958-2.5z" fill-rule="evenodd"/></g></svg>