<svg fill="none" height="24" viewBox="0 0 24 24" width="24" xmlns="http://www.w3.org/2000/svg"><g fill="#00a008"><path d="m8.96973 10.9697c.29289-.2929.76765-.2929 1.06057 0 .2929.2929.2929.7677 0 1.0606l-1.46975 1.4697 1.46975 1.4697c.2929.2929.2929.7677 0 1.0606-.29292.2929-.76768.2929-1.06057 0l-1.8584-1.8584c-.371-.371-.371-.9728 0-1.3438z"/><path d="m13.9697 10.9697c.2929-.2929.7677-.2929 1.0606 0l1.8584 1.8584c.371.371.371.9728 0 1.3438l-1.8584 1.8584c-.2929.2929-.7677.2929-1.0606 0s-.2929-.7677 0-1.0606l1.4698-1.4697-1.4698-1.4697c-.2929-.2929-.2929-.7677 0-1.0606z"/><path clip-rule="evenodd" d="m16.25 2.5c2.8995 0 5.25 2.35051 5.25 5.25v8.5c0 2.8995-2.3505 5.25-5.25 5.25h-8.5c-2.89949 0-5.25-2.3505-5.25-5.25v-8.5c0-2.89949 2.35051-5.25 5.25-5.25zm-12.25 6v7.75c0 2.0711 1.67893 3.75 3.75 3.75h8.5c2.0711 0 3.75-1.6789 3.75-3.75v-7.75zm3.75-4.5c-1.81421 0-3.32734 1.28834-3.6748 3h15.8496c-.3475-1.71166-1.8606-3-3.6748-3z" fill-rule="evenodd"/></g></svg>