<svg fill="none" height="16" viewBox="0 0 16 16" width="16" xmlns="http://www.w3.org/2000/svg"><g fill="#00a008"><g opacity=".4"><path d="m13 7.25v1.5h-10v-1.5z"/><path d="m4.63086 10.6113c.33247-.3879.81823-.6113 1.3291-.6113h4.08004c.5109 0 .9967.2234 1.3291.6113l1.2002 1.4004-1.1386.9766-1.2012-1.4014c-.0475-.0551-.1167-.0869-.1895-.0869h-4.08004c-.0728 0-.14197.0318-.18945.0869l-1.20117 1.4014-1.13868-.9766z"/><path d="m4.56934 3.01172 1.20117 1.40137c.04748.05515.11665.08691.18945.08691h4.08004c.0728 0 .142-.03176.1895-.08691l1.2012-1.40137 1.1386.97656-1.2002 1.40039c-.3324.38788-.8182.61133-1.3291.61133h-4.08004c-.51087 0-.99663-.22345-1.3291-.61133l-1.2002-1.40039z"/></g><path clip-rule="evenodd" d="m1.00195 9.79395c.00013-.69851.2796-1.33032.73145-1.79395-.39584-.40576-.6591-.94218-.71875-1.53809l-.0127-.25976v-.29688c.00027-1.42107 1.15214-2.57312 2.57325-2.57324l.03808.00293c.12006-1.30984 1.22134-2.335936 2.5625-2.335936.71279.00019 1.35734.290296 1.82324.758786.4661-.46911 1.11262-.758728 1.82618-.758787 1.3407.000249 2.4421 1.025657 2.5625 2.334957.0124-.00021.0256-.00195.0381-.00195 1.4209.00038 2.573 1.15231 2.5732 2.57324v.29785c-.0001.69851-.2796 1.3313-.7314 1.79493.4522.46377.7314 1.09796.7314 1.79687v.29688c-.0002 1.4211-1.1531 2.5741-2.5742 2.5742-.0125-.0001-.0256-.0027-.0381-.0029-.1203 1.3096-1.2215 2.3359-2.56248 2.3359-.71403-.0002-1.36008-.2918-1.82617-.7617-.46586.4688-1.1091.7615-1.82227.7617l-.24805-.0117c-1.22628-.1173-2.20131-1.0957-2.31445-2.3232-.01245.0001-.02559.0019-.03808.0019l-.2627-.0137c-1.21112-.1229-2.17363-1.0858-2.29687-2.2968l-.01368-.2637zm11.56735 1.37985h.0039s-.0038-.0005-.0078-.0009c-.0042-.0005-.0113-.0013-.0195-.002zm-9.13375-6.3486c.00413.00036.01089.0003.01855.00097-.00557-.00055-.01101-.00063-.01465-.00097-.00294-.00032-.00781-.00098-.00781-.00098h-.00391s.0045.00063.00782.00098zm6.38867 8.6738c.55798 0 1.01808-.4278 1.06838-.9726l.0853-.9225c.0241-.2598.244-.4575.5049-.4538l.9264.013c.014.0002.0278.0005.04.001.5441-.0121.9893-.4284 1.044-.962l.0058-.1103v-.29688c0-.2914-.1147-.55387-.3047-.74902l-.6811-.69802c-.1893-.19409-.1895-.50377-.0003-.69804l.6805-.69867c.1915-.19657.3055-.45854.3056-.74805v-.29785c-.0002-.5858-.4699-1.06095-1.0527-1.07226-.0109.00039-.0237.00078-.0371.00097l-.9254.01303c-.261.00367-.4809-.19398-.5049-.45386l-.0853-.92147c-.0501-.54468-.5103-.97241-1.0684-.97266-.55568.00011-1.01243.42247-1.06739.96387l-.00586.10938-.00097 8.85253c.00026.5931.48136 1.0738 1.07324 1.0742zm-3.64844 0c.59221-.0004 1.07278-.4808 1.07324-1.0732v-8.85256c0-.55626-.42315-1.01315-.96386-1.06836l-.10938-.00586c-.55819 0-1.01828.42757-1.06836.97266l-.08465.92207c-.02387.26003-.24383.45791-.50494.45424l-.92603-.01303c-.01436-.00021-.0285-.00143-.04102-.00195-.581.01311-1.04883.48798-1.04883 1.07324v.29688c.00013.29145.11457.55392.30469.74902l.68109.69802c.18938.19409.18953.50376.00033.69803l-.68044.69868c-.19168.19667-.30567.45834-.30567.74804v.29788c.0005.5854.46933 1.0597 1.05176 1.0713.0111-.0004.02433.0002.03809 0l.92541-.0131c.26095-.0036.48084.194.5049.4539l.08531.9215c.05036.5446.51018.9726 1.06836.9726z" fill-rule="evenodd"/></g></svg>