<svg fill="none" height="20" viewBox="0 0 20 20" width="20" xmlns="http://www.w3.org/2000/svg"><g fill="#00a008"><g opacity=".4"><path d="m12.9766 12.5c.9945 0 1.949.3954 2.6523 1.0986l1.3711 1.3711-1.0605 1.0606-1.3711-1.3711c-.422-.422-.9951-.6592-1.5918-.6592h-2.5069v-1.5z"/><path d="m18 9.28027v1.50003h-16v-1.50003z"/><path d="m12.9766 6c.5967 0 1.1698-.23722 1.5918-.65918l1.3711-1.37109 1.0605 1.06054-1.3711 1.3711c-.7033.70326-1.6578 1.09863-2.6523 1.09863h-2.5069v-1.5z"/><path d="m4.56055 13.5986c.70326-.7032 1.65778-1.0986 2.65234-1.0986h2.50684v1.5h-2.50684c-.59674 0-1.16984.2372-1.5918.6592l-1.37109 1.3711-1.06055-1.0606z"/><path d="m4.25 3.96973 1.37109 1.37109c.42196.42196.99506.65918 1.5918.65918h2.50684v1.5h-2.50684c-.99456 0-1.94908-.39537-2.65234-1.09863l-1.3711-1.3711z"/></g><path clip-rule="evenodd" d="m12.5498 1.00195c1.7228.00013 3.138 1.3194 3.2891 3.00293 1.759.07304 3.163 1.52188 3.1631 3.29883v.39551c0 .8952-.3572 1.70697-.9356 2.30178.5788.5948.9355 1.4072.9356 2.3027v.3955c0 1.777-1.4041 3.2248-3.1631 3.2979-.1505 1.6842-1.5658 3.0047-3.2891 3.0049l-.1699-.004c-.9581-.0485-1.807-.5071-2.3789-1.2021-.6055.7362-1.52309 1.206-2.5508 1.2061-1.72293 0-3.13795-1.3194-3.28907-3.003-1.75913-.0729-3.162984-1.5218-3.163083-3.2988v-.3955c0-.8953.357053-1.707.935543-2.3018-.57889-.5948-.935502-1.40712-.935543-2.3027v-.39551c0-1.7771 1.403923-3.22491 3.163083-3.29785.15044-1.6843 1.56564-3.00489 3.28907-3.00489l.16992.00391c.95767.04863 1.80507.50762 2.37695 1.20215.60553-.73669 1.52463-1.20606 2.55273-1.20606zm-5.0996 1.5c-.93965 0-1.71295.72096-1.79493 1.63867l-.07813.87375c-.02235.24994-.2265.4446-.47722.45503l-.87629.03646c-.95987.0398-1.72558.83025-1.72558 1.79883v.39551c.00004.48924.19334.9307.51074 1.25683l.67835.69723c.18884.19409.18884.50324 0 .69734l-.67835.6972c-.31789.3269-.51074.7679-.51074 1.2559v.3955c.00009.9087.67336 1.661 1.54785 1.7842l.17773.0156.87565.0365c.25058.0104.45466.2048.47718.4546l.07881.8741c.08246.9168.85528 1.6368 1.79493 1.6368.93268-.0002 1.69949-.7088 1.79199-1.6172l.00683-.1348c-.00025-.0169-.00097-.0338-.00097-.0508v-.3955c0-.0314.00119-.0626.00195-.0937l-.00195-.0371v-10.34087l.00195-.03808v-.00586l-.00195-.08887v-.39551c0-.02088.00059-.04171.00097-.0625-.03345-.96635-.82546-1.73912-1.79882-1.73926zm5.0996 0c-.9328.00001-1.6995.70866-1.792 1.61719l-.0078.13379c.0003.01723.002.03447.002.05176v.39551l-.003.08789.001.00488.002.03808v10.34085l-.002.0293c.0009.0344.002.0689.002.1035v.3955c0 .0166-.0018.0332-.002.0498.0269.9724.8221 1.752 1.7998 1.752.9395-.0002 1.713-.7211 1.7949-1.6387l.0782-.8738c.0223-.2499.2265-.4446.4772-.455l.8763-.0365c.8996-.0374 1.629-.7342 1.7168-1.6191l.0088-.1797v-.3955c-.0001-.4892-.1935-.9307-.5108-1.2568l-.6783-.6973c-.1889-.194-.1889-.5032 0-.69729l.6783-.69723c.3178-.32688.5108-.7679.5108-1.25586v-.39551c-.0001-.96913-.7666-1.75993-1.7256-1.7998l-.8757-.03646c-.2506-.01043-.4546-.20489-.4772-.45467l-.0788-.87411c-.0824-.91673-.8554-1.63659-1.7949-1.63672z" fill-rule="evenodd"/></g></svg>