<svg fill="none" height="24" viewBox="0 0 24 24" width="24" xmlns="http://www.w3.org/2000/svg"><g fill="#00a008"><g opacity=".4"><path d="m14.9766 14.5c.9945 0 1.949.3954 2.6523 1.0986l1.3711 1.3711-1.0605 1.0606-1.3711-1.3711c-.422-.422-.9951-.6592-1.5918-.6592h-2.5069v-1.5z"/><path d="m20 11.25v1.5h-16v-1.5z"/><path d="m14.9766 8c.5967 0 1.1698-.23722 1.5918-.65918l1.3711-1.37109 1.0605 1.06054-1.3711 1.3711c-.7033.70326-1.6578 1.09863-2.6523 1.09863h-2.5069v-1.5z"/><path d="m6.56055 15.5986c.70326-.7032 1.65778-1.0986 2.65234-1.0986h2.50681v1.5h-2.50681c-.59674 0-1.16984.2372-1.5918.6592l-1.37109 1.3711-1.06055-1.0606z"/><path d="m6.25 5.96973 1.37109 1.37109c.42196.42196.99506.65918 1.5918.65918h2.50681v1.5h-2.50681c-.99456 0-1.94908-.39537-2.65234-1.09863l-1.3711-1.3711z"/></g><path clip-rule="evenodd" d="m2 9.22222c0-1.97111 1.42699-3.5985 3.27703-3.85308.24718-1.90202 1.83175-3.36914 3.75-3.36914 1.20657 0 2.28017.58141 2.97297 1.48546.6928-.90405 1.7664-1.48546 2.973-1.48546 1.9179 0 3.5023 1.46656 3.75 3.36805 1.8501.25452 3.277 1.88301 3.277 3.85417l-.0053.20291c-.0504 1.00747-.4743 1.91307-1.1317 2.57487.7012.7059 1.137 1.6893 1.137 2.7778l-.0042.1834c-.0853 1.8879-1.4805 3.423-3.2728 3.6697-.2395 1.8427-1.7343 3.2771-3.5716 3.3648l-.1784.0043c-1.2063 0-2.2801-.5807-2.973-1.4844-.6929.9037-1.7667 1.4844-2.97297 1.4844-1.91789 0-3.50236-1.4666-3.75-3.3681-1.85011-.2545-3.27703-1.883-3.27703-3.8541 0-1.0885.43579-2.0719 1.13703-2.7778-.70124-.7059-1.13703-1.6893-1.13703-2.77778zm10.8108 8.88888c0 1.2273.968 2.2222 2.1622 2.2222 1.0263 0 1.8875-.7365 2.1072-1.7231l.0359-.1996.1047-.808c.0348-.2686.2453-.4805.5136-.5173l.7732-.1059c1.0563-.1454 1.8708-1.0774 1.8708-2.2016 0-.6213-.247-1.1814-.6504-1.5875l-.7623-.7675c-.2325-.2339-.2325-.6117 0-.8457l.7623-.7674c.4034-.4061.6504-.96616.6504-1.58748 0-1.12494-.8151-2.05746-1.8708-2.20269l-.7732-.10592c-.2684-.03675-.4788-.24871-.5136-.51729l-.1047-.80691c-.1413-1.08502-1.0486-1.92274-2.1431-1.92274-1.1942 0-2.1622.99492-2.1622 2.22222zm-9.18918-8.88888c0 .62132.24695 1.18138.65034 1.58748l.76238.7674c.23244.234.23244.6118 0 .8458l-.76238.7674c-.40339.4061-.65034.9662-.65034 1.5875 0 1.1249.81509 2.0574 1.87078 2.2027l.77324.1059c.26833.0367.47876.2487.51359.5173l.10464.8069c.1413 1.085 1.04862 1.9227 2.14316 1.9227 1.19417 0 2.16217-.9949 2.16217-2.2222v-12.22221c0-1.2273-.968-2.22222-2.16217-2.22222-1.09456 0-2.00197.83749-2.14316 1.92274l-.10468.80794c-.0348.26861-.24525.4806-.5136.51736l-.77319.10591c-1.05629.14535-1.87078 1.07734-1.87078 2.2016z" fill-rule="evenodd"/></g></svg>