<svg fill="none" height="16" viewBox="0 0 16 16" width="16" xmlns="http://www.w3.org/2000/svg"><path clip-rule="evenodd" d="m15 11.75c0 1.5188-1.2312 2.75-2.75 2.75h-8.5c-1.51878 0-2.75-1.2312-2.75-2.75v-8c0-1.24264 1.00736-2.25 2.25-2.25h2.84861c.8139 0 1.57396.40677 2.02543 1.08397.17327.25991.46498.41603.77735.41603h3.34861c1.5188 0 2.75 1.23122 2.75 2.75zm-12.5-8c0-.41421.33579-.75.75-.75h2.84861c.31237 0 .60408.15612.77735.41603.45147.6772 1.21153 1.08397 2.02543 1.08397h3.34861c.6904 0 1.25.55964 1.25 1.25v.25h-7.75c-.41421 0-.75.33579-.75.75s.33579.75.75.75h7.75v4.25c0 .6904-.5596 1.25-1.25 1.25h-8.5c-.69036 0-1.25-.5596-1.25-1.25z" fill="#00a008" fill-rule="evenodd"/></svg>