<svg fill="none" height="20" viewBox="0 0 20 20" width="20" xmlns="http://www.w3.org/2000/svg"><path clip-rule="evenodd" d="m4.24715 2.49731c-1.51721 0-2.74715 1.22994-2.74715 2.74715v9.00564c0 1.7949 1.45508 3.25 3.25 3.25h10.5c1.7949 0 3.25-1.4551 3.25-3.25v-6.50564c0-1.79492-1.4551-3.25-3.25-3.25h-4.1332c-.4006 0-.7668-.22619-.9462-.58437-.43355-.86592-1.31894-1.41278-2.28736-1.41278zm-1.24715 2.74715c0-.68878.55837-1.24715 1.24715-1.24715h3.63609c.40057 0 .76679.2262.94613.58437.43358.86593 1.31893 1.41278 2.28743 1.41278h4.1332c.9665 0 1.75.7835 1.75 1.75v.2556h-10.25c-.41421 0-.75.33579-.75.75s.33579.75.75.75h10.25v4.75004c0 .9665-.7835 1.75-1.75 1.75h-10.5c-.9665 0-1.75-.7835-1.75-1.75z" fill="#00a008" fill-rule="evenodd"/></svg>