<svg fill="none" height="24" viewBox="0 0 24 24" width="24" xmlns="http://www.w3.org/2000/svg"><path clip-rule="evenodd" d="m4.25095 3.49902c-1.51931 0-2.75095 1.23165-2.75095 2.75096v10.49682c0 2.0711 1.67893 3.75 3.75 3.75h13.5c2.0711 0 3.75-1.6789 3.75-3.75v-7.49682c0-2.07107-1.6789-3.75-3.75-3.75h-5.6315c-.4014 0-.7682-.22678-.9476-.58576-.4335-.8673-1.3198-1.4152-2.28936-1.4152zm-1.25095 2.75096c0-.69089.56007-1.25096 1.25095-1.25096h5.63059c.40136 0 .76816.22678.94756.58576.4335.8673 1.3198 1.4152 2.2894 1.4152h5.6315c1.2426 0 2.25 1.00736 2.25 2.25v.74997h-13.25c-.41421 0-.75.33575-.75.74995 0 .4143.33579.75.75.75h13.25v5.2469c0 1.2426-1.0074 2.25-2.25 2.25h-13.5c-1.24264 0-2.25-1.0074-2.25-2.25z" fill="#00a008" fill-rule="evenodd"/></svg>