<svg fill="none" height="16" viewBox="0 0 16 16" width="16" xmlns="http://www.w3.org/2000/svg"><path d="m5.5 5c.82843 0 1.5.67157 1.5 1.5s-.67157 1.5-1.5 1.5h-3c-.82843 0-1.5-.67157-1.5-1.5s.67157-1.5 1.5-1.5z" fill="#36c5f0"/><path d="m5.5 1c.82843 0 1.5.67157 1.5 1.5v1.5h-1.5c-.82843 0-1.5-.67157-1.5-1.5s.67157-1.5 1.5-1.5z" fill="#36c5f0"/><path d="m9.5 1c.8284 0 1.5.67157 1.5 1.5v3c0 .82843-.6716 1.5-1.5 1.5-.82843 0-1.5-.67157-1.5-1.5v-3c0-.82843.67157-1.5 1.5-1.5z" fill="#2eb67d"/><path d="m13.5 4c.8284 0 1.5.67157 1.5 1.5s-.6716 1.5-1.5 1.5h-1.5v-1.5c0-.82843.6716-1.5 1.5-1.5z" fill="#2eb67d"/><path d="m10.5 12c.8284 0 1.5.6716 1.5 1.5s-.6716 1.5-1.5 1.5c-.82843 0-1.5-.6716-1.5-1.5v-1.5z" fill="#ecb22e"/><path d="m13.5 8c.8284 0 1.5.67157 1.5 1.5 0 .8284-.6716 1.5-1.5 1.5h-3c-.82843 0-1.5-.6716-1.5-1.5 0-.82843.67157-1.5 1.5-1.5z" fill="#ecb22e"/><g fill="#e01e5a"><path d="m6.5 9c.82843 0 1.5.67157 1.5 1.5v3c0 .8284-.67157 1.5-1.5 1.5s-1.5-.6716-1.5-1.5v-3c0-.82843.67157-1.5 1.5-1.5z"/><path d="m4 10.5c0 .8284-.67157 1.5-1.5 1.5s-1.5-.6716-1.5-1.5c0-.82843.67157-1.5 1.5-1.5h1.5z"/></g></svg>