<svg fill="none" height="20" viewBox="0 0 20 20" width="20" xmlns="http://www.w3.org/2000/svg"><path d="m7 6c1.10457 0 2 .89543 2 2s-.89543 2-2 2h-3c-1.10457 0-2-.89543-2-2s.89543-2 2-2z" fill="#36c5f0"/><path d="m7.5 2c.82843 0 1.5.67157 1.5 1.5v1.5h-1.5c-.82843 0-1.5-.67157-1.5-1.5s.67157-1.5 1.5-1.5z" fill="#36c5f0"/><path d="m12 2c1.1046 0 2 .89543 2 2v3c0 1.10457-.8954 2-2 2s-2-.89543-2-2v-3c0-1.10457.8954-2 2-2z" fill="#2eb67d"/><path d="m16.5 6c.8284 0 1.5.67157 1.5 1.5s-.6716 1.5-1.5 1.5h-1.5v-1.5c0-.82843.6716-1.5 1.5-1.5z" fill="#2eb67d"/><path d="m12.5 15c.8284 0 1.5.6716 1.5 1.5s-.6716 1.5-1.5 1.5-1.5-.6716-1.5-1.5v-1.5z" fill="#ecb22e"/><path d="m16 10c1.1046 0 2 .8954 2 2s-.8954 2-2 2h-3c-1.1046 0-2-.8954-2-2s.8954-2 2-2z" fill="#ecb22e"/><g fill="#e01e5a"><path d="m8 11c1.10457 0 2 .8954 2 2v3c0 1.1046-.89543 2-2 2s-2-.8954-2-2v-3c0-1.1046.89543-2 2-2z"/><path d="m5 12.5c0 .8284-.67157 1.5-1.5 1.5s-1.5-.6716-1.5-1.5.67157-1.5 1.5-1.5h1.5z"/></g></svg>