<svg fill="none" height="24" viewBox="0 0 24 24" width="24" xmlns="http://www.w3.org/2000/svg"><path d="m9 8c1.1046 0 2 .89543 2 2 0 1.1046-.8954 2-2 2h-5c-1.10457 0-2-.8954-2-2 0-1.10457.89543-2 2-2z" fill="#36c5f0"/><path d="m9 3c1.1046 0 2 .89543 2 2v2h-2c-1.10457 0-2-.89543-2-2s.89543-2 2-2z" fill="#36c5f0"/><path d="m14 2c1.1046 0 2 .89543 2 2v5c0 1.1046-.8954 2-2 2s-2-.8954-2-2v-5c0-1.10457.8954-2 2-2z" fill="#2eb67d"/><path d="m19 7c1.1046 0 2 .89543 2 2 0 1.1046-.8954 2-2 2h-2v-2c0-1.10457.8954-2 2-2z" fill="#2eb67d"/><path d="m15 17c1.1046 0 2 .8954 2 2s-.8954 2-2 2-2-.8954-2-2v-2z" fill="#ecb22e"/><path d="m20 12c1.1046 0 2 .8954 2 2s-.8954 2-2 2h-5c-1.1046 0-2-.8954-2-2s.8954-2 2-2z" fill="#ecb22e"/><g fill="#e01e5a"><path d="m10 13c1.1046 0 2 .8954 2 2v5c0 1.1046-.8954 2-2 2-1.10457 0-2-.8954-2-2v-5c0-1.1046.89543-2 2-2z"/><path d="m7 15c0 1.1046-.89543 2-2 2s-2-.8954-2-2 .89543-2 2-2h2z"/></g></svg>