<svg fill="none" height="16" viewBox="0 0 16 16" width="16" xmlns="http://www.w3.org/2000/svg"><path d="m7.89063 2.04105c1.3975-1.397505 3.66407-1.397505 5.06157 0 1.3975 1.3975 1.3975 3.66402 0 5.06152l-4.42876 4.42873c-.84505.8449-2.21534.8447-3.06055 0-.84519-.8452-.84519-2.21635 0-3.06154l4-4c.29292-.29262.76771-.29281 1.06051 0 .2928.2928.2927.76763 0 1.06054l-3.99996 4c-.2594.2594-.25938.68 0 .9395.25941.2594.68004.2594.93945 0l4.42871-4.42875c.8113-.81175.8116-2.12788 0-2.93946s-2.1277-.81131-2.93945 0l-4.42871 4.42871c-1.36402 1.36402-1.36402 3.5764 0 4.9404 1.36403 1.3636 3.57558 1.3638 4.93945 0l2.28511-2.2861c.2929-.29285.7677-.29276 1.0606 0 .2929.2929.2929.7677 0 1.0605l-2.2852 2.2862c-1.94977 1.9497-5.1117 1.9498-7.06148 0-1.94975-1.9498-1.94972-5.11174 0-7.06154z" fill="#00a008"/></svg>