<svg fill="none" height="20" viewBox="0 0 20 20" width="20" xmlns="http://www.w3.org/2000/svg"><path d="m10.2412 2.74712c1.6606-1.66282 4.3532-1.66284 6.0137 0 1.66 1.66251 1.66 4.35801 0 6.02051l-5.4834 5.49117c-.97679.9782-2.56036.9782-3.53712 0-.97616-.9776-.97616-2.5623 0-3.54l4.95212-4.95996c.2926-.29303.7674-.2934 1.0606-.00097.293.29262.2935.76742.001 1.06054l-4.9522 4.96099c-.39139.392-.39143 1.0278 0 1.4199.39075.3911 1.0233.391 1.41407 0l5.48343-5.49221c1.0751-1.07688 1.0751-2.82255 0-3.89942-1.0747-1.07627-2.816-1.07627-3.8907 0l-5.48336 5.49121c-1.75899 1.76172-1.75886 4.61812 0 6.37992 1.75843 1.7611 4.60876 1.7611 6.36716 0l2.8301-2.834c.2926-.2931.7674-.2935 1.0606-.001.293.2926.2934.7674.0009 1.0606l-2.83 2.8349c-2.3444 2.3478-6.14593 2.3478-8.49028 0-2.34371-2.3473-2.3436-6.1526 0-8.49999z" fill="#00a008"/></svg>