<svg fill="none" height="24" viewBox="0 0 24 24" width="24" xmlns="http://www.w3.org/2000/svg"><path d="m12.0928 3.44818c1.9227-1.92765 5.0411-1.92765 6.9638 0 1.9214 1.92648 1.9213 5.04903 0 6.97562l-6.538 6.5546c-1.1074 1.1103-2.9034 1.1103-4.01079 0-1.10633-1.1091-1.10633-2.9064 0-4.0156l5.90529-5.9199c.2915-.29221.7643-.29335 1.0566-.00195.2923.29156.2926.76531.001 1.05762l-5.9043 5.91993c-.52428.5256-.52428 1.3787 0 1.9043.5232.5244 1.3704.5244 1.8936 0l6.538-6.5547c1.3394-1.34303 1.3395-3.5213 0-4.86426-1.3385-1.34195-3.5081-1.34191-4.8466 0l-6.53812 6.55466c-2.15454 2.1604-2.15454 5.6639 0 7.8242 2.15383 2.1594 5.64602 2.1594 7.79982 0l3.374-3.3828c.2916-.2922.7644-.2925 1.0566-.0009.2922.2914.2933.7643.002 1.0566l-3.375 3.3828c-2.738 2.745-7.17804 2.745-9.91602 0-2.73644-2.7439-2.73644-7.1916 0-9.9355z" fill="#00a008"/></svg>