<svg fill="none" height="16" viewBox="0 0 16 16" width="16" xmlns="http://www.w3.org/2000/svg" xmlns:xlink="http://www.w3.org/1999/xlink"><clipPath id="a"><path d="m0 0h16v16h-16z"/></clipPath><g clip-path="url(#a)" fill="#00a008"><path d="m8.61621 11c.29383 0 .47841.3096.33301.5586l-.61719 1.0527c-.14699.251-.51707.251-.66406 0l-.61719-1.0527c-.1454-.249.03918-.5586.33301-.5586z"/><path d="m4.44141 7.05078c.249-.1454.55859.03918.55859.33301v1.23242c0 .29383-.30959.47841-.55859.33301l-1.05274-.61719c-.251-.14699-.251-.51707 0-.66406z"/><path d="m11 7.38379c0-.29383.3096-.47841.5586-.33301l1.0527.61719c.251.14699.251.51707 0 .66406l-1.0527.61719c-.249.1454-.5586-.03918-.5586-.33301z"/><path d="m7.66797 3.38867c.14699-.251.51707-.251.66406 0l.61719 1.05274c.1454.249-.03918.55859-.33301.55859h-1.23242c-.29383 0-.47841-.30959-.33301-.55859z"/><path clip-rule="evenodd" d="m8 .499023c1.02423 0 1.53665.001522 1.94531.155274.64669.243466 1.15789.753743 1.40139 1.400393.1536.40856.1533.92155.1533 1.94531v.5h.5c1.0242 0 1.5367.00055 1.9453.1543.6466.24346 1.1579.75375 1.4014 1.40039.1536.40856.1533.92156.1533 1.94531 0 1.02414.0005 1.53765-.1533 1.94629-.2436.64651-.7548 1.15701-1.4014 1.40041-.4086.1537-.9211.1533-1.9453.1533h-.5v.5c0 1.0241.0005 1.5376-.1533 1.9463-.2436.6465-.7548 1.157-1.40139 1.4004-.40865.1537-.92114.1533-1.94531.1533-1.02416 0-1.53667.0004-1.94531-.1533-.64651-.2434-1.1568-.754-1.40039-1.4004-.1538-.4087-.1543-.9222-.1543-1.9463v-.5h-.5c-1.02416 0-1.53667.0004-1.94531-.1533-.64652-.2434-1.156805-.754-1.400393-1.40041-.153777-.40858-.154297-.9215-.154297-1.94531 0-1.02414.000617-1.53765.154297-1.94629.243512-.64659.753743-1.15699 1.400393-1.40039.40869-.15382.92093-.1543 1.94531-.1543h.5v-.5c0-1.02383.00064-1.53673.1543-1.94531.24351-.6466.75374-1.156985 1.40039-1.400393.40869-.15382.92093-.155274 1.94531-.155274zm0 1.500977c-.53054 0-.86015.00091-1.10938.0166-.23719.01495-.30087.03946-.30761.04199-.24194.09115-.43296.28197-.52442.52442-.00319.00849-.02729.07438-.04199.30761-.01567.24922-.0166.57926-.0166 1.10938v2h-2c-.53054 0-.86015.00091-1.10938.0166-.23719.01495-.30087.03946-.30761.04199-.24192.09114-.43295.28196-.52442.52442-.00316.00844-.02728.07491-.04199.30859-.01564.2494-.0166.57942-.0166 1.10938 0 .53016.00091.86017.0166 1.10937.01496.23684.03948.30095.04199.30762.09155.24225.28263.43334.52442.52441.00732.00278.07214.02741.30664.042.24969.01551.57919.01562 1.11035.01562h2v2c0 .53.00093.86.0166 1.1094.01496.2373.03952.302.04199.3086.09156.2422.28265.4333.52442.5244.00732.0028.07214.0274.30664.042.24969.0155.57919.0156 1.11035.0156.53114 0 .86065-.0001 1.11035-.0156.23697-.0148.30037-.0397.30664-.042l.08887-.0381c.20077-.1013.35683-.2752.43652-.4863l.0166-.0664c.00814-.0462.01801-.1217.0254-.2403.01552-.2499.01562-.5802.01562-1.1113v-2h2c.5311 0 .8606-.00009 1.1104-.01562.2369-.01475.3003-.03963.3066-.042l.0889-.03808c.2007-.10128.3568-.27522.4365-.48633l.0166-.06641c.0081-.04615.018-.1217.0254-.24023.0155-.24993.0156-.58024.0156-1.11133 0-.53082-.0001-.86065-.0156-1.11035-.0145-.23258-.0389-.29846-.042-.30664-.0796-.21119-.2358-.38497-.4365-.48633l-.0889-.03809c-.0068-.00256-.0706-.02703-.3076-.04199-.1246-.00785-.2695-.01248-.4492-.01465l-.6602-.00195h-2v-2c0-.53083-.00013-.86065-.01562-1.11035-.01447-.23258-.0389-.29845-.042-.30664-.07959-.21118-.23575-.38497-.43652-.48633l-.08887-.03809c-.00682-.00256-.07055-.02703-.30761-.04199-.24922-.0157-.57894-.0166-1.10938-.0166z" fill-rule="evenodd"/></g></svg>