<svg fill="none" height="20" viewBox="0 0 20 20" width="20" xmlns="http://www.w3.org/2000/svg"><g fill="#00a008"><path d="m10.7705 13c.3673 0 .5978.387.416.6982l-.7705 1.3164c-.1837.3138-.64827.3138-.83202 0l-.7705-1.3164c-.18181-.3112.0487-.6982.41601-.6982z"/><path d="m6.30176 8.81348c.31126-.18181.69824.0487.69824.41601v1.54101c0 .3673-.38698.5978-.69824.416l-1.31641-.7705c-.31375-.1837-.31375-.64827 0-.83202z"/><path d="m13 9.22949c0-.36731.387-.59782.6982-.41601l1.3164.7705c.3138.18375.3138.64832 0 .83202l-1.3164.7705c-.3112.1818-.6982-.0487-.6982-.416z"/><path d="m9.58398 4.98535c.18375-.31375.64832-.31375.83202 0l.7705 1.31641c.1818.31126-.0487.69824-.416.69824h-1.54101c-.36731 0-.59782-.38698-.41601-.69824z"/><path clip-rule="evenodd" d="m10 1c.9294 0 1.395-.000547 1.7764.10156 1.0351.27741 1.8436 1.08699 2.1211 2.12207.1021.38141.1025.84682.1025 1.77637v1.16699h1c.9294 0 1.395-.00054 1.7764.10156 1.0349.27739 1.8435 1.08621 2.1211 2.1211.1022.3814.1025.84688.1025 1.77635 0 .9299-.0004 1.3959-.1025 1.7774-.2775 1.035-1.0861 1.8436-2.1211 2.1211-.3814.1021-.8469.1015-1.7764.1015h-1v.834c0 .9297-.0004 1.3949-.1025 1.7764-.2775 1.0351-1.086 1.8436-2.1211 2.1211-.3814.1021-.8469.1025-1.7764.1025-.92944 0-1.39498-.0004-1.77637-.1025-1.03507-.2775-1.84468-1.086-2.12207-2.1211-.10213-.3814-.10156-.8468-.10156-1.7764v-.834h-1c-.92939 0-1.395.0005-1.77637-.1015-1.035-.2775-1.84463-1.0861-2.12207-2.1211-.102118-.3814-.10156-.847-.10156-1.7764 0-.92982-.000651-1.39589.10156-1.77735.27749-1.03499 1.08706-1.84367 2.12207-2.1211.38137-.10209.84698-.10156 1.77637-.10156h1v-1.16699c0-.92949-.00055-1.39497.10156-1.77637.27742-1.03512 1.08697-1.84462 2.12207-2.12207.38136-.102073.84703-.10156 1.77637-.10156zm0 1.5c-1.02725 0-1.24621.01169-1.38867.0498-.51731.13884-.92186.54513-1.06055 1.0625-.03799.14244-.05078.3616-.05078 1.3877v2.66699h-2.5c-1.02746 0-1.24624.01168-1.38867.04981-.51784.13898-.92198.5448-1.06055 1.06152-.03804.14224-.05078.36107-.05078 1.38868 0 1.0266.01281 1.2455.05078 1.3877.13855.5168.54353.9216 1.06152 1.0605.14245.038.36184.0508 1.3877.0508h2.5v2.334c0 1.0268.0128 1.2454.05078 1.3877.13849.5168.54337.9216 1.06152 1.0605.14302.0382.3645.0518 1.3877.0518 1.024 0 1.2449-.0136 1.3877-.0518.5176-.1387.9219-.543 1.0605-1.0605.0287-.1071.0434-.2578.0489-.7578l.0029-.6299v-2.334h2.5c1.0269 0 1.2455-.0128 1.3877-.0508.5174-.1386.9218-.5429 1.0605-1.0605.0382-.1429.0518-.3641.0518-1.3887 0-1.02425-.0136-1.24489-.0518-1.38768-.1388-.51747-.5432-.92189-1.0605-1.06055-.1066-.02845-.2564-.0426-.7568-.04785l-.6309-.00293h-2.5v-2.66699c0-1.02349-.0136-1.2447-.0518-1.3877l-.0634-.18945c-.1777-.42635-.5449-.75089-.9971-.87207-.1066-.02845-.2564-.0426-.7568-.04785z" fill-rule="evenodd"/></g></svg>