<svg fill="none" height="24" viewBox="0 0 24 24" width="24" xmlns="http://www.w3.org/2000/svg"><g fill="#00a008"><path d="m12.9248 16c.441 0 .7178.4653.499.8389l-.9248 1.5791c-.2205.3763-.7775.3763-.998 0l-.9248-1.5791c-.2188-.3736.058-.8389.499-.8389z"/><path d="m7.16113 10.5762c.37361-.2188.83887.058.83887.499v1.8496c-.00001.441-.46526.7178-.83887.499l-1.5791-.9248c-.37631-.2205-.37631-.7775 0-.998z"/><path d="m16 11.0752c0-.441.4653-.7178.8389-.499l1.5791.9248c.3763.2205.3763.7775 0 .998l-1.5791.9248c-.3736.2188-.8389-.058-.8389-.499z"/><path d="m11.501 5.58203c.2205-.37631.7775-.37631.998 0l.9248 1.5791c.2188.37361-.058.83887-.499.83887h-1.8496c-.441-.00001-.7178-.46526-.499-.83887z"/><path clip-rule="evenodd" d="m12.2002 1.5c1.68 0 2.5204.00018 3.1621.32715.5642.28757 1.023.74632 1.3106 1.31055.3269.64171.3271 1.48208.3271 3.1621v.7002h.7002c1.68 0 2.5204.00018 3.1621.32715.5642.28757 1.023.74632 1.3106 1.31055.3269.64171.3271 1.4821.3271 3.1621v.4004c0 1.68-.0002 2.5204-.3271 3.1621-.2876.5642-.7464 1.023-1.3106 1.3106-.6417.3269-1.4821.3271-3.1621.3271h-.7002v.7002c0 1.68-.0002 2.5204-.3271 3.1621-.2876.5642-.7464 1.023-1.3106 1.3106-.6417.3269-1.4821.3271-3.1621.3271h-.4004c-1.68 0-2.52039-.0002-3.1621-.3271-.56423-.2876-1.02298-.7464-1.31055-1.3106-.32697-.6417-.32715-1.4821-.32715-3.1621v-.7002h-.7002c-1.68002 0-2.52039-.0002-3.1621-.3271-.56423-.2876-1.02298-.7464-1.31055-1.3106-.32697-.6417-.32715-1.4821-.32715-3.1621v-.4004c0-1.68.00018-2.52039.32715-3.1621.28757-.56423.74632-1.02298 1.31055-1.31055.64171-.32697 1.48208-.32715 3.1621-.32715h.7002v-.7002c0-1.68002.00018-2.52039.32715-3.1621.28757-.56423.74632-1.02298 1.31055-1.31055.64171-.32697 1.4821-.32715 3.1621-.32715zm-.4004 1.5c-.8647 0-1.4236.00137-1.84863.03613-.4072.03334-.55864.09014-.63281.12793-.28165.14371-.51059.37265-.6543.6543-.03779.07417-.09459.22561-.12793.63281-.03476.42502-.03613.98396-.03613 1.84863v2.2002h-2.2002c-.86467 0-1.42361.00137-1.84863.03613-.4072.03334-.55864.09014-.63281.12793-.28165.14371-.51059.37265-.6543.6543-.03779.07417-.09459.22561-.12793.63281-.01738.21253-.0266.45893-.03125.75973l-.00488 1.0889v.4004c0 .8647.00137 1.4236.03613 1.8486.03334.4072.09014.5587.12793.6328.14358.2814.37203.5106.65332.6543.07418.0378.22659.0946.63379.128.42502.0347.98396.0361 1.84863.0361h2.2002v2.2002c0 .8647.00137 1.4236.03613 1.8486.03334.4072.09014.5587.12793.6328.14358.2814.37203.5106.65332.6543.07418.0378.22659.0946.63379.128.42503.0347.98393.0361 1.84863.0361h.4004c.8647 0 1.4236-.0014 1.8486-.0361.3055-.025.4667-.0633.5596-.0967l.0732-.0313c.2817-.1437.5106-.3726.6543-.6543l.0313-.0732c.0334-.0929.0717-.2541.0967-.5596.0173-.2125.0266-.4589.0312-.7597l.0049-1.0889v-2.2002h2.2002c.8647 0 1.4236-.0014 1.8486-.0361.3055-.025.4667-.0633.5596-.0967l.0732-.0313c.2817-.1437.5106-.3726.6543-.6543l.0313-.0732c.0334-.0929.0717-.2541.0967-.5596.0347-.425.0361-.9839.0361-1.8486v-.4004c0-.8647-.0014-1.4236-.0361-1.84863-.0334-.4072-.0902-.55864-.128-.63281-.1437-.28178-.3724-.51158-.6543-.65527-.0741-.0378-.2256-.09362-.6328-.12696-.2125-.01738-.4589-.0266-.7597-.03125l-1.0889-.00488h-2.2002v-2.2002c0-.86467-.0014-1.42361-.0361-1.84863-.0334-.4072-.0902-.55864-.128-.63281-.1437-.28178-.3724-.51158-.6543-.65527-.0741-.0378-.2256-.09362-.6328-.12696-.2125-.01738-.4589-.0266-.7597-.03125l-1.0889-.00488z" fill-rule="evenodd"/></g></svg>