<svg fill="none" height="16" viewBox="0 0 16 16" width="16" xmlns="http://www.w3.org/2000/svg"><g fill="#00a008"><path d="m4 9.5c0-.27614.22386-.5.5-.5h1c.27614 0 .5.22386.5.5v1c0 .2761-.22386.5-.5.5h-1c-.27614 0-.5-.2239-.5-.5z"/><path d="m7.5 9c-.27614 0-.5.22386-.5.5v1c0 .2761.22386.5.5.5h1c.27614 0 .5-.2239.5-.5v-1c0-.27614-.22386-.5-.5-.5z"/><path d="m10 9.5c0-.27614.2239-.5.5-.5h1c.2761 0 .5.22386.5.5v1c0 .2761-.2239.5-.5.5h-1c-.2761 0-.5-.2239-.5-.5z"/><path clip-rule="evenodd" d="m4 1.75c0-.41421.33579-.75.75-.75s.75.33579.75.75v.75h5v-.75c0-.41421.3358-.75.75-.75s.75.33579.75.75v.96338c1.4565.5148 2.5 1.90385 2.5 3.53662v4.5c0 2.0711-1.6789 3.75-3.75 3.75h-5.5c-2.07107 0-3.75-1.6789-3.75-3.75v-4.5c0-1.63277 1.04351-3.02182 2.5-3.53662zm6.5 2.25v.25c0 .41421.3358.75.75.75.3726 0 .6817-.27167.7401-.62772.543.35933.921.94788.9962 1.62772h-9.97257c.07515-.67984.4532-1.26839.99619-1.62771.05839.35604.36751.62771.74008.62771.41421 0 .75-.33579.75-.75v-.25zm-7.5 3.5v3.25c0 1.2426 1.00736 2.25 2.25 2.25h5.5c1.2426 0 2.25-1.0074 2.25-2.25v-3.25z" fill-rule="evenodd"/></g></svg>