<svg fill="none" height="20" viewBox="0 0 20 20" width="20" xmlns="http://www.w3.org/2000/svg"><g fill="#00a008"><path d="m6.50046 10c-.27614 0-.5.2239-.5.5v1c0 .2761.22386.5.5.5h1c.27615 0 .5-.2239.5-.5v-1c0-.2761-.22385-.5-.5-.5z"/><path d="m6.00046 13.5c0-.2761.22386-.5.5-.5h1c.27615 0 .5.2239.5.5v1c0 .2761-.22385.5-.5.5h-1c-.27614 0-.5-.2239-.5-.5z"/><path d="m9.50046 10c-.27614 0-.5.2239-.5.5v1c0 .2761.22386.5.5.5h1.00004c.2761 0 .5-.2239.5-.5v-1c0-.2761-.2239-.5-.5-.5z"/><path d="m9.00046 13.5c0-.2761.22386-.5.5-.5h1.00004c.2761 0 .5.2239.5.5v1c0 .2761-.2239.5-.5.5h-1.00004c-.27614 0-.5-.2239-.5-.5z"/><path d="m12.5005 10c-.2762 0-.5.2239-.5.5v1c0 .2761.2238.5.5.5h1c.2761 0 .5-.2239.5-.5v-1c0-.2761-.2239-.5-.5-.5z"/><path d="m12.0005 13.5c0-.2761.2238-.5.5-.5h1c.2761 0 .5.2239.5.5v1c0 .2761-.2239.5-.5.5h-1c-.2762 0-.5-.2239-.5-.5z"/><path clip-rule="evenodd" d="m6.75046 1c-.41421 0-.75.33579-.75.75v.27746c-2.24997.24873-4 2.15626-4 4.47254l-.00046 8c0 2.4853 2.01472 4.5 4.5 4.5h7c2.4853 0 4.5-2.0147 4.5-4.5l.0005-8c0-2.31628-1.7501-4.22381-4-4.47254v-.27746c0-.41421-.3358-.75-.75-.75s-.75.33579-.75.75v.25h-5.00004v-.25c0-.41421-.33578-.75-.75-.75zm5.75004 3.25v-.75h-5.00004v.75c0 .41421-.33578.75-.75.75-.41421 0-.75-.33579-.75-.75v-.70852c-1.25625.21076-2.50046.95852-2.50046 2.95852h12.917c0-2-1.1603-2.74776-2.4165-2.95852v.70852c0 .41421-.3358.75-.75.75s-.75-.33579-.75-.75zm3.958 3.75h-12.99998l.04148 6.5c0 1.6569 1.34315 3 3 3h7c1.6569 0 3-1.3431 3-3z" fill-rule="evenodd"/></g></svg>