<svg fill="none" height="24" viewBox="0 0 24 24" width="24" xmlns="http://www.w3.org/2000/svg"><g fill="#00a008"><path d="m7.5 12c-.27614 0-.5.2239-.5.5v1c0 .2761.22386.5.5.5h1c.27614 0 .5-.2239.5-.5v-1c0-.2761-.22386-.5-.5-.5z"/><path d="m7 16.5c0-.2761.22386-.5.5-.5h1c.27614 0 .5.2239.5.5v1c0 .2761-.22386.5-.5.5h-1c-.27614 0-.5-.2239-.5-.5z"/><path d="m11.5 12c-.2761 0-.5.2239-.5.5v1c0 .2761.2239.5.5.5h1c.2761 0 .5-.2239.5-.5v-1c0-.2761-.2239-.5-.5-.5z"/><path d="m11 16.5c0-.2761.2239-.5.5-.5h1c.2761 0 .5.2239.5.5v1c0 .2761-.2239.5-.5.5h-1c-.2761 0-.5-.2239-.5-.5z"/><path d="m15.5 12c-.2761 0-.5.2239-.5.5v1c0 .2761.2239.5.5.5h1c.2761 0 .5-.2239.5-.5v-1c0-.2761-.2239-.5-.5-.5z"/><path d="m15 16.5c0-.2761.2239-.5.5-.5h1c.2761 0 .5.2239.5.5v1c0 .2761-.2239.5-.5.5h-1c-.2761 0-.5-.2239-.5-.5z"/><path clip-rule="evenodd" d="m7.75 2c-.41421 0-.75.33579-.75.75v.80317c-2.54422.36392-4.5 2.55198-4.5 5.19683v7.5c0 2.8995 2.3505 5.25 5.25 5.25h8.5c2.8995 0 5.25-2.3505 5.25-5.25v-7.5c0-2.64485-1.9558-4.83291-4.5-5.19683v-.80317c0-.41421-.3358-.75-.75-.75s-.75.33579-.75.75v.75h-7v-.75c0-.41421-.33579-.75-.75-.75zm7.75 4.25v-1.25h-7v1.25c0 .41421-.33579.75-.75.75s-.75-.33579-.75-.75v-1.17499c-1.63242.33137-2.87978 1.72312-2.9918 3.42499h15.9836c-.112-1.70187-1.3594-3.09362-2.9918-3.42499v1.17499c0 .41421-.3358.75-.75.75s-.75-.33579-.75-.75zm4.5 3.75h-16v6.25c0 2.0711 1.67893 3.75 3.75 3.75h8.5c2.0711 0 3.75-1.6789 3.75-3.75z" fill-rule="evenodd"/></g></svg>