<svg fill="none" height="16" viewBox="0 0 16 16" width="16" xmlns="http://www.w3.org/2000/svg"><g fill="#00a008"><path d="m7.75 7.5c.19891 0 .38962.07908.53027.21973l2.25003 2.25c.2929.29287.2929.76767 0 1.06057s-.76768.2929-1.06057 0l-.96973-.9698v4.1895c0 .4142-.33579.75-.75.75s-.75-.3358-.75-.75v-4.1895l-.96973.9698c-.29289.2929-.76765.2929-1.06054 0s-.29289-.7677 0-1.06057l2.25-2.25c.14065-.14065.33136-.21973.53027-.21973z"/><path d="m7.66699 2c2.11901.00013 3.92741 1.31948 4.65531 3.18066.6486.19441 1.2607.54563 1.7744 1.05664.8636.81993 1.4033 1.97781 1.4033 3.2627 0 2.4853-2.0147 4.5-4.5 4.5-.2761 0-.5-.2239-.5-.5v-.5c0-.2761.2239-.5.5-.5 1.6569 0 3-1.3431 3-3 0-1.34563-.8873-2.48842-2.1123-2.86719l-.2588-.08008c-.4352-.08495-.8874-.0656-1.3154.06153-.39699.11777-.8147-.1089-.93264-.50586-.1175-.39673.10829-.81454.50488-.93262.22116-.06571.44736-.11073.67476-.13965-.58172-.85633-1.53013-1.44048-2.61812-1.52539l-.27539-.01074c-1.73797 0-3.18096 1.26781-3.45312 2.92871.3518.06193.61914.36873.61914.73828 0 .41422-.33579.75-.75.75-.55081.00009-1.05037.2153-1.42285.56446-.4096.42755-.66016 1.00688-.66016 1.64355 0 1.3117 1.06332 2.375 2.375 2.375.34518 0 .625.2798.625.625v.25c0 .3452-.27982.625-.625.625-2.1401 0-3.875-1.7349-3.875-3.875 0-.0241.001513-.0482.001953-.0723-.00121-.0174-.001953-.035-.001953-.0527.000094-1.05794.458318-2.00916 1.1875-2.66504.29129-.28072.62546-.51725.99316-.69629.1852-2.59272 2.34644-4.63867 4.98633-4.63867z"/></g></svg>