<svg fill="none" height="24" viewBox="0 0 24 24" width="24" xmlns="http://www.w3.org/2000/svg"><g fill="#00a008"><path d="m11.2197 11.7197c.2929-.2929.7677-.2929 1.0606 0l3.5 3.5c.2929.2929.2929.7677 0 1.0606s-.7677.2929-1.0606 0l-2.2197-2.2198v6.1895c0 .4142-.3358.75-.75.75s-.75-.3358-.75-.75v-6.1895l-2.21973 2.2198c-.29289.2929-.76765.2929-1.06054 0-.2929-.2929-.2929-.7677 0-1.0606z"/><path d="m11.5 3c3.6198 0 6.6404 2.56442 7.3447 5.97559.3196.13578.6248.29859.9131.48535.0052.00334.0105.00641.0156.00976.1102.07183.2173.14785.3223.22657.0052.0039.0104.00779.0156.01171 1.4507 1.09512 2.3887 2.83332 2.3887 4.79102 0 3.3137-2.6863 6-6 6h-1.25c-.4142 0-.75-.3358-.75-.75s.3358-.75.75-.75h1.25c2.4853 0 4.5-2.0147 4.5-4.5 0-1.83-1.0936-3.4062-2.668-4.1094-.9843-.43882-2.0936-.50839-3.1181-.2041-.397.118-.8146-.108-.9327-.50486-.1178-.39692.1081-.81454.5049-.93262.7749-.23021 1.5874-.29952 2.3858-.20996-.8125-2.3507-3.0463-4.03906-5.6719-4.03906-3.31371 0-6 2.68629-6 6 0 .033.00129.0661.00195.0996.32251-.0653.65628-.0996.99805-.0996.41421 0 .75.3358.75.75s-.33579.75-.75.75c-.63933 0-1.23811.1723-1.75391.4717-.95934.5572-1.62528 1.5516-1.73047 2.707-.00365.0402-.00747.0805-.00976.1211l-.00586.2002c0 1.933 1.567 3.5 3.5 3.5h1.75c.41421 0 .75.3358.75.75s-.33579.75-.75.75h-1.75c-2.76142 0-5-2.2386-5-5 0-.1056.00429-.2104.01074-.3145.00183-.0293.00353-.0586.00586-.0878.00645-.081.01513-.1614.02539-.2413.00289-.0225.0056-.0449.00879-.0673.02906-.2041.07012-.4043.12305-.5996.00753-.0278.01544-.0555.02344-.0831.01961-.0677.0411-.1346.06347-.2011.01154-.0343.0229-.0686.03516-.1026.06552-.1815.14131-.3581.22656-.5293.01456-.0292.02981-.058.04492-.0869.03496-.0668.07055-.1332.1084-.1982.00984-.0169.01927-.034.0293-.0508.10378-.1736.2184-.3399.3418-.499.01193-.0154.02402-.0307.03613-.0459.11905-.1499.24666-.2926.38183-.4278l.03223-.0322c.01084-.0106.02226-.0207.0332-.0312.06203-.0599.12538-.1183.19043-.1748.01271-.0111.02527-.0223.03809-.0332.23231-.198.48292-.375.74902-.5284.00745-.0043.01499-.0084.02246-.0127-.01853-.215-.03027-.4324-.03027-.6523 0-4.14214 3.35786-7.5 7.5-7.5z"/></g></svg>