<svg fill="none" height="16" viewBox="0 0 16 16" width="16" xmlns="http://www.w3.org/2000/svg"><g fill="#00a008"><path d="m8.49995 1.01245c1.30736 0 2.57225.47846 3.51365 1.34668.516.47585.8811 1.13776 1.1172 1.78613.2381.65411.3692 1.36095.3692 1.97754-.0001 1.0539-.2905 1.87811-.7413 2.54785-.439.6521-1.0113 1.12765-1.5136 1.51365-.537.4127-.9444.6922-1.25589 1.0274-.27704.298-.41211.5764-.41211.9404 0 .3844-.0824.7638-.24023 1.1152-.15775.3511-.38728.6663-.67188.9287-.2845.2624-.61937.4674-.9834.6065-.364.139-.75266.21-1.14355.21-.39069-.0001-.77874-.0711-1.14258-.21-.36397-.139-.69892-.3442-.9834-.6065-.28457-.2624-.51413-.5776-.67187-.9287-.15783-.3514-.24023-.7308-.24024-1.1152 0-.4142.33579-.75.75-.75.41422 0 .75.3358.75.75.00001.1697.0363.3394.1084.5.07223.1608.1801.3111.32032.4404.14045.1296.31077.2356.50195.3086.19104.073.39756.1113.60742.1114.21006 0 .41719-.0383.6084-.1114.19118-.073.3615-.179.50195-.3086.14016-.1293.24811-.2797.32031-.4404.07208-.1606.1084-.3303.1084-.5 0-.8419.35495-1.4686.81348-1.9619.42388-.45599.99695-.85453 1.44042-1.19533.4783-.36759.8871-.72154 1.1836-1.16211.2847-.42296.4853-.95539.4854-1.70996 0-.42284-.0934-.95567-.2784-1.46386-.187-.51373-.4437-.93822-.7246-1.19727-.6526-.60181-1.55006-.94922-2.49705-.94922-.94698 0-1.84448.34741-2.49707.94922-.65036.59981-1.0028 1.39988-1.00293 2.21973 0 .41421-.33578.75-.75.75-.41421 0-.75-.33579-.75-.75.00013-1.25872.54294-2.45227 1.48633-3.32227.94148-.86822 2.20632-1.34668 3.51367-1.34668z"/><path d="m8.47847 3.77222c.5957.00004 1.16437.24113 1.58103.66601.3762.38355.6905.94665.6905 1.5918-.0003.41403-.336.75-.75005.75-.41408 0-.74979-.33597-.75-.75 0-.1544-.08343-.35919-.26171-.54102-.13774-.14043-.32141-.21675-.50977-.21679-.18838 0-.372.07636-.50977.21679-.13825.14098-.21875.33548-.21875.54102v.04687c.06298.02488.1285.05304.19336.08497.09097.04478.20725.10985.31934.20019l.10937.09863.08008.08985c.17543.21155.26276.43714.30664.59668.02608.09479.03989.17821.04785.24023.00399.03108.00622.05779.00782.0791.00079.01066.00154.02034.00195.02832.0002.00385.00085.00754.00098.01075v.05761c-.00019.00787-.00053.01854-.00098.03125-.00091.02552-.00224.06052-.00488.10254-.00527.08355-.0152.2008-.03418.3291-.01854.12525-.04837.27979-.09863.43262-.04541.13805-.13203.35316-.30665.53125-.47065.47991-1.09674.46191-1.37207.46191-.41421 0-.75-.33578-.75-.75.00004-.41418.33581-.75.75-.75.07615 0 .13472-.00078.18653-.0039.03299-.00199.0583-.00681.07812-.00977.009-.03662.02074-.08059.02832-.13183.01113-.07524.01801-.14811.02149-.20313.0009-.01427.00046-.02727.00097-.03808-.0011-.00568-.0009-.01316-.00293-.02051-.00279-.01012-.00642-.01764-.00878-.02344-.00604-.00331-.01317-.00811-.02247-.0127-.04751-.02339-.11068-.04876-.18164-.07226-.06897-.02283-.13488-.04041-.18359-.05274-.02399-.00606-.04365-.01094-.05566-.01367-.00559-.00126-.00951-.00245-.01172-.00293-.34832-.07201-.59864-.37869-.59864-.73437v-.60254c0-.59405.23123-1.16738.64747-1.5918.41671-.42482.98536-.66601 1.58105-.66601z"/></g></svg>