<svg fill="none" height="20" viewBox="0 0 20 20" width="20" xmlns="http://www.w3.org/2000/svg"><g fill="#00a008"><path d="m10.5 1.51562c1.5734.00001 3.0928.57813 4.2217 1.62305.6096.56435 1.0483 1.35679 1.334 2.14453.2877.79339.4443 1.64774.4443 2.38868 0 1.27052-.3478 2.25671-.8848 3.05762-.5252.7834-1.2122 1.3584-1.83 1.835-.6525.5033-1.1761.8648-1.5743 1.2949-.3634.3926-.5565.7796-.5566 1.289 0 .4505-.0967.8951-.2813 1.3077-.1845.4124-.4535.784-.788 1.0937-.3343.3093-.72793.5521-1.15727.7168-.42954.1647-.88862.249-1.35058.249-.46204 0-.92097-.0843-1.35059-.249-.42961-.1647-.82377-.4072-1.1582-.7168-.33457-.3097-.60352-.6813-.78809-1.0937-.1845-.4126-.28027-.8573-.28027-1.3077.00016-.414.33589-.75.75-.75s.74984.336.75.75c0 .2367.04999.4731.14941.6954.09957.2225.24805.4291.43848.6054.19047.1762.41969.3188.67578.417.25633.0983.53306.1494.81348.1494.28036 0 .5572-.0511.81347-.1494.25608-.0982.48535-.2407.67579-.417.19043-.1763.33793-.3829.43749-.6054.0995-.2224.1504-.4586.1504-.6954.0001-.9855.4112-1.7201.9561-2.3086.5104-.5512 1.1997-1.0316 1.7587-1.4628.5936-.4579 1.1178-.9109 1.501-1.48247.3716-.55425.6299-1.2502.6299-2.22265 0-.5479-.1196-1.22918-.3545-1.87696-.237-.65353-.5675-1.20859-.9424-1.55566-.8402-.77783-1.9917-1.22364-3.2031-1.22364-1.21136 0-2.36286.44581-3.20312 1.22364-.83831.77602-1.29688 1.8162-1.29688 2.88672-.00017.41407-.33589.75-.75.75s-.74983-.33593-.75-.75c0-1.50735.6475-2.94051 1.77832-3.98731 1.12886-1.04492 2.64832-1.62304 4.22168-1.62305z"/><path d="m10.5195 4.9375c.7163.00007 1.4137.26324 1.9366.74707.4786.44306.8914 1.10449.8916 1.87207 0 .41419-.3359.74996-.75.75-.4143 0-.75-.33579-.75-.75-.0002-.22374-.1317-.51364-.4102-.77148-.2343-.21676-.5637-.34759-.918-.34766-.3544 0-.68455.13076-.91891.34766-.23229.21506-.3505.49428-.35059.77148v.16797c.12315.03919.25936.0874.3916.14648.1505.06726.34599.16972.5098.32129.2791.25835.4145.5618.4804.7793.0337.111.0522.2093.0625.28223.0052.03649.0087.06804.0108.09277.001.01221.0014.02318.0019.03223.0003.00449.0008.00902.001.01269v.06348c-.0002.00937-.0004.02269-.001.03808-.0012.03088-.0032.07372-.0068.125-.0071.10158-.0206.24327-.0459.39844-.0248.152-.0646.3364-.1299.5166-.0608.1679-.1697.4055-.373.5938-.54919.508-1.26713.4931-1.6514.4931-.41421 0-.75-.3358-.75-.75.00028-.414.33596-.75.75-.75.21807 0 .35971-.0049.47266-.0273.06827-.0136.10627-.0327.13183-.0489.00251-.006.00671-.013.00977-.0214.02224-.06156.04325-.14702.05957-.24711.01579-.09698.02442-.19061.02929-.26074.00163-.02353.00216-.04444.00293-.06055-.00203-.01171-.00419-.0284-.00976-.04687-.01637-.05392-.03984-.09231-.06348-.11426.01201.0111-.01103-.01182-.10254-.05274-.082-.03664-.18338-.07175-.28906-.10351-.10371-.03116-.20145-.05574-.27344-.07227-.03553-.00815-.06432-.0147-.083-.01855-.00889-.00183-.01553-.00312-.01954-.00391l-.0039-.00097c-.35443-.06666-.61119-.37569-.61133-.73633v-.74805c.00009-.71404.30717-1.38621.83203-1.87207.52297-.48402 1.22103-.74707 1.93747-.74707z"/></g></svg>