<svg fill="none" height="24" viewBox="0 0 24 24" width="24" xmlns="http://www.w3.org/2000/svg"><g fill="#00a008"><path d="m13 2.01855c1.8391 0 3.6134.67783 4.9297 1.89942.703.65252 1.2145 1.57515 1.5498 2.50195.3374.93267.5205 1.93638.5205 2.80176-.0001 1.48682-.4052 2.63552-1.0283 3.56742-.6116.9145-1.4143 1.5891-2.1475 2.1562-.7677.5938-1.4058 1.0367-1.8906 1.5615-.4503.4876-.7031.9838-.7031 1.6387-.0001.5166-.1099 1.0272-.3213 1.501-.2115.4736-.52.9001-.9043 1.2568-.3842.3566-.8372.6368-1.332.8272-.4951.1903-1.0247.2881-1.5577.2881-.53289-.0001-1.06158-.0978-1.55661-.2881-.4951-.1904-.94864-.4705-1.333-.8272-.38435-.3567-.69287-.7832-.9043-1.2568-.21143-.4738-.32124-.9844-.32129-1.501.00013-.4141.33587-.75.75-.75s.74987.3359.75.75c.00005.3034.0648.6059.19141.8897.12676.2838.31438.5455.55468.7685.2406.2233.52915.4038.85059.5274.32144.1235.66775.1874 1.01852.1875.3508 0 .6972-.064 1.0186-.1875.3214-.1236.611-.3041.8516-.5274.2401-.223.4279-.4847.5546-.7685.1266-.2838.1904-.5863.1905-.8897 0-1.1295.4693-1.9727 1.1006-2.6562.5969-.6463 1.4007-1.2089 2.0751-1.7305.709-.5483 1.3494-1.101 1.8194-1.8037.4581-.6853.7743-1.5441.7744-2.73342 0-.67288-.1459-1.50369-.4307-2.29102-.2869-.79306-.6913-1.47796-1.1601-1.91308-1.0279-.95391-2.4333-1.49903-3.9092-1.49903s-2.8813.54512-3.90918 1.49903c-1.02589.95216-1.59075 2.23121-1.59082 3.55176-.00004.41417-.33581.75-.75.75s-.74996-.33583-.75-.75c.00007-1.75603.75222-3.42803 2.07031-4.65137 1.3163-1.22159 3.09059-1.89942 4.92969-1.89942z"/><path d="m13.1543 6c.8302.00012 1.63.32157 2.2227.89941.5505.53686 1.0008 1.31545 1.0009 2.19434 0 .41421-.3358.75-.75.75-.4141-.00007-.75-.33583-.75-.75-.0001-.36423-.197-.77798-.5478-1.12012-.3087-.30103-.7313-.47351-1.1758-.47363-.4446 0-.868.1725-1.1768.47363-.3079.30039-.4774.70369-.4775 1.12012v.35937c.007.00219.0145.00461.0215.00684.1661.05262.3585.1212.543.20801.1753.08254.3922.20327.5693.37593.3039.2964.4494.6435.5205.8907.0364.1264.0564.2372.0674.3193.0055.0413.0086.0764.0107.1035.0011.0136.0015.0256.002.0352.0002.0047.0008.009.001.0127v.0097l.0009.0342v.0069c0 .0034-.0008.0082-.0009.0136-.0003.0109-.0003.0257-.001.044-.0014.0368-.0038.0885-.0078.1504-.0081.1226-.0231.2927-.0518.4785-.0283.1828-.0727.3995-.1445.6084-.0671.1951-.1832.4589-.3965.667-.6086.5935-1.415.582-1.8838.582-.4142 0-.75-.3358-.75-.75s.3358-.75.75-.75c.259 0 .4371-.0066.583-.0371.119-.0249.1871-.0619.2393-.1084.0062-.0116.0212-.0391.039-.0908.0325-.0945.0604-.2168.0811-.3506.0202-.1305.031-.2549.0371-.3477l.0059-.1074-.001-.0039c-.0032-.0236-.0089-.0618-.0215-.1055-.0269-.0934-.0703-.1752-.127-.2304-.0024-.0021-.0142-.0117-.039-.0274-.0299-.0188-.0699-.0413-.1211-.0654-.104-.049-.2289-.0951-.3574-.1358-.1267-.0401-.2456-.0716-.333-.0927-.043-.0104-.0777-.0175-.1006-.0225-.0115-.0025-.0203-.0048-.0254-.0058-.0023-.0005-.0049-.001-.0049-.001l-.127-.0371c-.2836-.1105-.4774-.3851-.4775-.6983v-.93845c.0001-.82663.3373-1.6157.9307-2.19434.5928-.57797 1.3932-.89941 2.2236-.89941z"/></g></svg>