<svg fill="none" height="16" viewBox="0 0 16 16" width="16" xmlns="http://www.w3.org/2000/svg"><path d="m8 13c1.63582 0 3.0882-.7856 4.0004-2h1.7674c-1.084 2.0799-3.2601 3.5-5.7678 3.5-3.58985 0-6.5-2.9101-6.5-6.5 0-.64621.0943-1.27039.26989-1.85954.00126-.00451.00256-.00904.00392-.01356.80418-2.67675 3.28738-4.6269 6.22606-4.6269 2.01043 0 3.80783.91273 5.00013 2.34643v-1.59643c0-.41421.3358-.75.75-.75s.75.33579.75.75v3.3c0 .52467-.4253.95-.95.95h-3.3c-.41421 0-.75-.33579-.75-.75s.33579-.75.75-.75h1.7502c-.9121-1.21441-2.36443-1.99996-4.0002-2-2.76142 0-5 2.23858-5 5 0 2.7614 2.23858 5 5 5z" fill="#00a008"/></svg>