<svg fill="none" height="20" viewBox="0 0 20 20" width="20" xmlns="http://www.w3.org/2000/svg"><path d="m10 17c2.7924 0 5.2029-1.6351 6.3264-4h1.629c-1.2126 3.214-4.317 5.5-7.9554 5.5-4.69442 0-8.5-3.8056-8.5-8.5 0-.6275.068-1.23912.19702-1.82789.00094-.00468.00192-.00936.00296-.01405.84149-3.80887 4.23796-6.65806 8.29989-6.65806 2.60753 0 4.94093 1.17411 6.50013 3.02248v-1.77248c0-.41421.3358-.75.75-.75s.75.33579.75.75v3.3c0 .52467-.4253.95-.95.95h-3.3c-.4142 0-.75-.33579-.75-.75s.3358-.75.75-.75h1.612c-1.2841-1.52844-3.2096-2.49996-5.362-2.5-3.86599 0-7 3.13401-7 7 0 3.866 3.13401 7 7 7z" fill="#00a008"/></svg>