<svg fill="none" height="24" viewBox="0 0 24 24" width="24" xmlns="http://www.w3.org/2000/svg"><path d="m12 20.5c3.2483 0 6.0711-1.8221 7.5019-4.5h1.666c-1.5431 3.5318-5.0673 6-9.1679 6-5.52285 0-10-4.4772-10-10 0-5.52285 4.47715-10 10-10 2.7255 0 5.1962 1.09032 7 2.85857v-2.10857c0-.41421.3358-.75.75-.75s.75.33579.75.75v4c0 .41421-.3358.75-.75.75h-4c-.4142 0-.75-.33579-.75-.75s.3358-.75.75-.75h2.2708c-1.539-1.54431-3.6683-2.5-6.0208-2.5-4.69442 0-8.5 3.80558-8.5 8.5 0 4.6944 3.80558 8.5 8.5 8.5z" fill="#00a008"/></svg>