<svg fill="none" height="16" viewBox="0 0 16 16" width="16" xmlns="http://www.w3.org/2000/svg"><path d="m14.3266 11c-1.1235 2.3649-3.534 4-6.3264 4s-5.20291-1.6351-6.32637-4z" fill="#fff"/><path d="m1.67363 5h12.65277c.4319.90926.6736 1.9264.6736 3s-.2417 2.0907-.6736 3h-12.65277c-.43194-.9093-.67363-1.9264-.67363-3s.24169-2.09074.67363-3z" fill="#0a4981"/><path d="m11 5h3.3266c-1.1235-2.36495-3.534-4-6.3264-4s-5.20291 1.63505-6.32637 4h3.32617v4c0 1.6569 1.34315 3 3 3s3-1.3431 3-3z" fill="#cd3e44"/><path clip-rule="evenodd" d="m7.00003 6-1 1 2 2-1.00003 1 1 1 1-1-.99997-1 1.99997-2-.99997-1-1.00051 1.00004z" fill="#fff" fill-rule="evenodd"/><path d="m6 5 1 1h-1v1l1-1h2l1 1v-1h-1l1-1s-1-1-2-1-2 1-2 1z" fill="#ecbe34"/><path d="m13.1973 11c.5105-.8825.8027-1.90714.8027-3 0-3.31371-2.6863-6-6-6-3.31371 0-6 2.68629-6 6 0 1.09286.29218 2.1175.80269 3h-1.12906c-.43194-.9093-.67363-1.9264-.67363-3 0-3.86599 3.13401-7 7-7 3.866 0 7 3.13401 7 7 0 1.0736-.2417 2.0907-.6736 3z" fill="#1d1f26" fill-opacity=".2"/><path d="m1.67363 11c1.12347 2.3649 3.53397 4 6.32637 4s5.2029-1.6351 6.3264-4h-1.1291c-1.0374 1.7934-2.9765 3-5.1973 3-2.22085 0-4.15988-1.2066-5.19731-3z" fill="#0e416f" fill-opacity=".4"/></svg>