<svg fill="none" height="24" viewBox="0 0 24 24" width="24" xmlns="http://www.w3.org/2000/svg"><path d="m21.1679 16c-1.5432 3.5318-5.0673 6-9.168 6-4.10059 0-7.62476-2.4682-9.16787-6z" fill="#fff"/><path d="m21.165 8c.5355 1.2252.835 2.5774.835 4s-.2995 2.7748-.835 4h-18.33004c-.53548-1.2252-.83496-2.5774-.83496-4s.29948-2.7748.83496-4z" fill="#0a4981"/><path d="m2.83203 8c1.54311-3.53181 5.06728-6 9.16787-6 4.1007 0 7.6248 2.46819 9.168 6h-6.168v7c0 1.6569-1.3431 3-3 3-1.6568 0-2.99996-1.3431-2.99996-3v-7z" fill="#cd3e44"/><path clip-rule="evenodd" d="m11.0005 10-1.0005 1 2 2-1 2 1.0005 2 .9995-2-1-2 2.0005-2-1-1-1 1.1667z" fill="#fff" fill-rule="evenodd"/><g fill="#ecbe34"><path d="m10 8 1 1h2l1-1s-1-1-2-1-2 1-2 1z"/><path d="m10 10h1l-1 1z"/><path d="m14 10h-1l1 1z"/></g><path d="m20.0645 16c.5988-1.205.9355-2.5632.9355-4 0-4.97056-4.0294-9-9-9-4.97056 0-9 4.02944-9 9 0 1.4368.33671 2.795.93552 4h-1.10343c-.53519-1.2249-.83209-2.5778-.83209-4 0-5.52285 4.47715-10 10-10 5.5228 0 10 4.47715 10 10 0 1.4222-.2969 2.7751-.8321 4z" fill="#1d1f26" fill-opacity=".2"/><path d="m2.83208 16c1.54312 3.5318 5.06728 6 9.16792 6 4.1006 0 7.6248-2.4682 9.1679-6h-1.1034c-1.4727 2.9634-4.5308 5-8.0645 5-3.53372 0-6.59178-2.0366-8.06448-5z" fill="#0e416f" fill-opacity=".4"/></svg>