<svg fill="none" height="16" viewBox="0 0 16 16" width="16" xmlns="http://www.w3.org/2000/svg"><g fill="#00a008"><path d="m4.25 5.5c0 .69036.55964 1.25 1.25 1.25s1.25-.55964 1.25-1.25-.55964-1.25-1.25-1.25-1.25.55964-1.25 1.25z"/><path clip-rule="evenodd" d="m5.25 1.5c-2.07107 0-3.75 1.67893-3.75 3.75v5.5c0 2.0711 1.67893 3.75 3.75 3.75h5.5c2.0711 0 3.75-1.6789 3.75-3.75v-5.5c0-2.07107-1.6789-3.75-3.75-3.75zm-2.25 3.75c0-1.24264 1.00736-2.25 2.25-2.25h5.5c1.2426 0 2.25 1.00736 2.25 2.25v2.65525l-.8292-1.07861c-.8458-1.10016-2.51447-1.06913-3.31877.0617l-1.54939 2.17842-.26001-.33228c-.77128-.98565-2.26827-.96931-3.01786.03293l-1.02477 1.37019zm7.9816 2.49087 2.0184 2.62543v.3837c0 1.2426-1.0074 2.25-2.25 2.25h-5.5c-.74945 0-1.41332-.3664-1.82223-.9299l1.79821-2.4043c.1578-.211.47296-.21444.63533-.00693l.53443.68293-.64846.9118c-.24008.3375-.16106.8058.17648 1.0458.33754.2401.8058.1611 1.04588-.1764l3.10476-4.36526c.2198-.30912.676-.3176.9072-.01687z" fill-rule="evenodd"/></g></svg>