<svg fill="none" height="16" viewBox="0 0 16 16" width="16" xmlns="http://www.w3.org/2000/svg"><path d="m8.00122 2c3.93338 0 6.06858 3.04315 6.97168 4.79492.3922.76095.3922 1.64921 0 2.41016-.9031 1.75172-3.0383 4.79492-6.97168 4.79492-3.93336 0-6.06863-3.0432-6.97168-4.79492-.392251-.76095-.392251-1.64921 0-2.41016.90305-1.75177 3.03832-4.79492 6.97168-4.79492zm0 1.5c-3.04208 0-4.79399 2.34583-5.6377 3.98242-.16996.32972-.16996.70544 0 1.03516.84371 1.63662 2.59562 3.98242 5.6377 3.98242s4.79398-2.3458 5.63768-3.98242c.17-.32972.17-.70544 0-1.03516-.8437-1.63659-2.5956-3.98242-5.63768-3.98242zm0 1.5c1.65685 0 2.99998 1.34315 2.99998 3s-1.34313 3-2.99998 3c-1.65686 0-3-1.34315-3-3s1.34314-3 3-3zm0 1.5c-.82843 0-1.5.67157-1.5 1.5s.67157 1.5 1.5 1.5c.82842 0 1.5-.67157 1.5-1.5s-.67158-1.5-1.5-1.5z" fill="#00a008"/></svg>