<svg fill="none" height="20" viewBox="0 0 20 20" width="20" xmlns="http://www.w3.org/2000/svg"><g clip-rule="evenodd" fill="#00a008" fill-rule="evenodd"><path d="m13.5 10c0 1.933-1.567 3.5-3.5 3.5s-3.5-1.567-3.5-3.5 1.567-3.5 3.5-3.5 3.5 1.567 3.5 3.5zm-1.5 0c0 1.1046-.8954 2-2 2-1.10457 0-2-.8954-2-2 0-1.10457.89543-2 2-2 1.1046 0 2 .89543 2 2z"/><path d="m19 10c0 2.5-3.4772 7-9 7-5.52285 0-9-4.5-9-7s3.47715-7 9-7c5.5228 0 9 4.5 9 7zm-1.5 0c0 .6783-.5603 2.0578-1.9455 3.3345-1.3211 1.2176-3.219 2.1655-5.5545 2.1655-2.33555 0-4.2334-.9479-5.55448-2.1655-1.38526-1.2767-1.94552-2.6562-1.94552-3.3345 0-.67834.56026-2.05775 1.94552-3.33453 1.32108-1.21761 3.21893-2.16547 5.55448-2.16547 2.3355 0 4.2334.94786 5.5545 2.16547 1.3852 1.27678 1.9455 2.65619 1.9455 3.33453z"/></g></svg>