<svg fill="none" height="24" viewBox="0 0 24 24" width="24" xmlns="http://www.w3.org/2000/svg"><g clip-rule="evenodd" fill="#00a008" fill-rule="evenodd"><path d="m16 12c0 2.2091-1.7909 4-4 4-2.20914 0-4-1.7909-4-4 0-2.20914 1.79086-4 4-4 2.2091 0 4 1.79086 4 4zm-1.5 0c0 1.3807-1.1193 2.5-2.5 2.5s-2.5-1.1193-2.5-2.5 1.1193-2.5 2.5-2.5 2.5 1.1193 2.5 2.5z"/><path d="m22 12c0 3-4.4772 8-10 8-5.52285 0-10-5-10-8s4.47715-8 10-8c5.5228 0 10 5 10 8zm-1.5 0c0 .4031-.1611 1.0196-.59 1.7746-.4188.737-1.0447 1.5192-1.8411 2.2343-1.6033 1.4398-3.7607 2.4911-6.0689 2.4911-2.30819 0-4.46555-1.0513-6.06888-2.4911-.79641-.7151-1.42234-1.4973-1.84108-2.2343-.42899-.755-.59004-1.3715-.59004-1.7746s.16105-1.0196.59004-1.7746c.41874-.73703 1.04467-1.51918 1.84108-2.23433 1.60333-1.43973 3.76069-2.49107 6.06888-2.49107 2.3082 0 4.4656 1.05134 6.0689 2.49107.7964.71515 1.4223 1.4973 1.8411 2.23433.4289.755.59 1.3715.59 1.7746z"/></g></svg>