<svg fill="none" height="16" viewBox="0 0 16 16" width="16" xmlns="http://www.w3.org/2000/svg"><g fill="#00a008"><path clip-rule="evenodd" d="m8 7.5c1.65685 0 3-1.34315 3-3s-1.34315-3-3-3-3 1.34315-3 3 1.34315 3 3 3zm0-1.5c.82843 0 1.5-.67157 1.5-1.5s-.67157-1.5-1.5-1.5-1.5.67157-1.5 1.5.67157 1.5 1.5 1.5z" fill-rule="evenodd"/><path d="m11 9.52506c0-.27789-.1664-.53141-.4297-.62015-.76711-.25851-1.64184-.40491-2.5703-.40491-3.03757 0-5.5 1.567-5.5 3.5s2.46243 3.5 5.5 3.5c.92846 0 1.80319-.1464 2.5703-.4049.2633-.0888.4297-.3423.4297-.6202 0-.5342-.6003-.8882-1.11269-.7369-.55367.1636-1.19217.262-1.88731.262-1.27757 0-2.3638-.3325-3.08377-.7906-.73777-.4695-.91623-.9336-.91623-1.2094s.17846-.7399.91623-1.2094c.71997-.4581 1.8062-.7906 3.08377-.7906.69514 0 1.33364.0984 1.88731.262.51239.1513 1.11269-.2027 1.11269-.73694z"/><path d="m12.5 8.75c0-.41421.3358-.75.75-.75s.75.33579.75.75v2.5c0 .4142-.3358.75-.75.75s-.75-.3358-.75-.75z"/><path d="m13.25 13c-.4142 0-.75.3358-.75.75s.3358.75.75.75.75-.3358.75-.75-.3358-.75-.75-.75z"/></g></svg>