<svg fill="none" height="20" viewBox="0 0 20 20" width="20" xmlns="http://www.w3.org/2000/svg"><g fill="#00a008"><path clip-rule="evenodd" d="m10 9.5c2.2091 0 4-1.79086 4-4s-1.7909-4-4-4c-2.20914 0-4 1.79086-4 4s1.79086 4 4 4zm0-1.5c1.3807 0 2.5-1.11929 2.5-2.5s-1.1193-2.5-2.5-2.5c-1.38071 0-2.5 1.11929-2.5 2.5s1.11929 2.5 2.5 2.5z" fill-rule="evenodd"/><path d="m13.5032 18.0377c.2991-.0844.4968-.3628.4968-.6736 0-.515-.5257-.8707-1.0231-.7373-.8699.2334-1.8803.3732-2.9769.3732-1.8747 0-3.49752-.4085-4.59742-.9951-1.16435-.621-1.40258-1.224-1.40258-1.5049s.23823-.8839 1.40258-1.5049c1.0999-.5866 2.72272-.9951 4.59742-.9951 1.0966 0 2.107.1398 2.9769.3732.4974.1334 1.0231-.2223 1.0231-.7373 0-.3108-.1977-.5892-.4968-.6736-1.0456-.2952-2.2378-.4623-3.5032-.4623-4.14214 0-7.5 1.7909-7.5 4s3.35786 4 7.5 4c1.2654 0 2.4576-.1671 3.5032-.4623z"/><path d="m16 10.75c0-.4142.3358-.75.75-.75s.75.3358.75.75v3.5c0 .4142-.3358.75-.75.75s-.75-.3358-.75-.75z"/><path d="m16.75 16c-.4142 0-.75.3358-.75.75s.3358.75.75.75.75-.3358.75-.75-.3358-.75-.75-.75z"/></g></svg>