<svg fill="none" height="24" viewBox="0 0 24 24" width="24" xmlns="http://www.w3.org/2000/svg"><g fill="#00a008"><path clip-rule="evenodd" d="m12 11.5c2.4853 0 4.5-2.01472 4.5-4.5s-2.0147-4.5-4.5-4.5c-2.48528 0-4.5 2.01472-4.5 4.5s2.01472 4.5 4.5 4.5zm0-1.5c1.6569 0 3-1.34315 3-3s-1.3431-3-3-3-3 1.34315-3 3 1.3431 3 3 3z" fill-rule="evenodd"/><path d="m17 13.9272c0-.2858-.1695-.5461-.4371-.6464-1.3182-.4944-2.8837-.7808-4.5629-.7808-4.69442 0-8.5 2.2386-8.5 5s3.80558 5 8.5 5c1.6792 0 3.2447-.2864 4.5629-.7808.2676-.1003.4371-.3606.4371-.6464 0-.5392-.5811-.8943-1.0887-.7123-1.1054.3963-2.4429.6395-3.9113.6395-2.12724 0-3.97993-.5103-5.24988-1.2574-1.30462-.7674-1.75012-1.6106-1.75012-2.2426s.4455-1.4752 1.75012-2.2426c1.26995-.7471 3.12264-1.2574 5.24988-1.2574 1.4684 0 2.8059.2432 3.9113.6395.5076.182 1.0887-.1731 1.0887-.7123z"/><path d="m19 12.75c0-.4142.3358-.75.75-.75s.75.3358.75.75v4.5c0 .4142-.3358.75-.75.75s-.75-.3358-.75-.75z"/><path d="m19.75 19c-.4142 0-.75.3358-.75.75s.3358.75.75.75.75-.3358.75-.75-.3358-.75-.75-.75z"/></g></svg>