<svg fill="none" height="20" viewBox="0 0 20 20" width="20" xmlns="http://www.w3.org/2000/svg"><g fill="#00a008"><path d="m14.0303 11.7803c.2929-.2929.2929-.7677 0-1.0606l-3.5-3.49997c-.2929-.2929-.76767-.2929-1.06056 0l-3.5 3.49997c-.29289.2929-.29289.7677 0 1.0606s.76766.2929 1.06055 0l2.96971-2.96975 2.9697 2.96975c.2929.2929.7677.2929 1.0606 0z"/><path clip-rule="evenodd" d="m18.5 10c0-4.69442-3.8056-8.5-8.5-8.5-4.69441 0-8.49998 3.80558-8.49998 8.5 0 4.6944 3.80558 8.5 8.49998 8.5s8.5-3.8056 8.5-8.5zm-1.5 0c0 3.866-3.134 7-7 7-3.86598 0-6.99998-3.134-6.99998-7 0-3.86599 3.134-7 6.99998-7 3.866 0 7 3.13401 7 7z" fill-rule="evenodd"/></g></svg>