<svg fill="none" height="24" viewBox="0 0 24 24" width="24" xmlns="http://www.w3.org/2000/svg"><g fill="#00a008"><path d="m16.5303 13.7803c.2929-.2929.2929-.7677 0-1.0606l-4-3.99997c-.2929-.2929-.7677-.2929-1.0606 0l-3.99996 3.99997c-.29289.2929-.29289.7677 0 1.0606s.76766.2929 1.06055 0l3.46971-3.4698 3.4697 3.4698c.2929.2929.7677.2929 1.0606 0z"/><path clip-rule="evenodd" d="m22 12c0-5.52285-4.4771-10-10-10-5.52283 0-9.99998 4.47715-9.99998 10 0 5.5228 4.47715 10 9.99998 10 5.5229 0 10-4.4772 10-10zm-1.5 0c0 4.6944-3.8056 8.5-8.5 8.5s-8.49998-3.8056-8.49998-8.5c0-4.69442 3.80557-8.5 8.49998-8.5 4.6944 0 8.5 3.80558 8.5 8.5z" fill-rule="evenodd"/></g></svg>