<svg fill="none" height="16" viewBox="0 0 16 16" width="16" xmlns="http://www.w3.org/2000/svg"><path clip-rule="evenodd" d="m8.36035 1.00879c3.69855.18754 6.63965 3.24609 6.63965 6.99121l-.0088.36035c-.1875 3.69855-3.2461 6.63965-6.9912 6.63965l-.36035-.0088c-3.57917-.1815-6.44936-3.0517-6.63086-6.63085l-.00879-.36035c0-3.86597 3.13403-6.99999 7-7zm-.76172 4.80176c-.20522-.08613-.42195-.07628-.6084.00488-.06188.02694-.12022.06183-.17382.10352-.10767.0837-.19545.19512-.25098.32714-.04161.09896-.06541.20935-.06543.32813v2.85156c.00001.03972.00276.07848.00781.11621.00502.03749.01188.07408.02149.10938.01925.07071.04767.13672.083.19726.12397.21247.33747.35657.57325.39257.06736.0103.1366.0122.20605.0039.06934-.0083.13874-.027.20703-.0556.03419-.0144.06823-.031.10157-.0508l2.3994-1.42581c.0333-.01976.0646-.04123.0938-.06445.1167-.09314.1999-.21247.25-.34278.05-.1302.0664-.27153.0498-.40918-.0042-.03448-.0102-.06875-.0186-.10253-.0167-.0676-.0418-.13332-.0752-.19532-.05-.09273-.1186-.17729-.206-.24707-.0292-.02324-.0605-.04468-.0938-.06445l-2.3994-1.42578c-.03334-.0198-.06739-.03644-.10157-.05078z" fill="#00a008" fill-rule="evenodd"/></svg>