<svg fill="none" height="20" viewBox="0 0 20 20" width="20" xmlns="http://www.w3.org/2000/svg"><path clip-rule="evenodd" d="m10.4375 1.51074c4.4911.2277 8.0625 3.94157 8.0625 8.48926l-.0107.4375c-.2277 4.4911-3.9416 8.0625-8.4893 8.0625l-.4375-.0107c-4.34621-.2204-7.83141-3.7056-8.05176-8.0518l-.01074-.4375c0-4.69442 3.80558-8.5 8.5-8.5zm-1.01562 5.56934c-.25622-.11462-.52697-.10108-.75977.00683-.07765.036-.15152.08189-.21875.1377-.03361.02789-.06543.05844-.0957.09082-.12105.12947-.2135.29362-.26172.48242-.01209.04731-.02106.09623-.02735.14649-.00626.05009-.00974.10158-.00976.15429v3.80277c.00002.0527.00349.1042.00976.1543.06275.5015.42613.8638.84668.9326.0843.0138.1709.0159.25782.0049.08658-.0111.17349-.0351.25879-.0733.04281-.0191.0852-.0419.12695-.0683l2.99997-1.9014c.0416-.0264.0808-.055.1172-.0859.5103-.4346.5103-1.29398 0-1.72856-.0364-.03099-.0756-.05956-.1172-.08594l-2.99997-1.90136c-.04175-.02645-.08415-.04921-.12695-.06836z" fill="#00a008" fill-rule="evenodd"/></svg>