<svg fill="none" height="24" viewBox="0 0 24 24" width="24" xmlns="http://www.w3.org/2000/svg"><path clip-rule="evenodd" d="m12 2c5.5228 0 10 4.47715 10 10 0 5.5228-4.4772 10-10 10-5.52285 0-10-4.4772-10-10 0-5.52285 4.47715-10 10-10zm-.9902 6.10742c-.8753-.35702-1.86774.21576-1.99613 1.15235-.00916.06686-.01367.13568-.01367.20605v5.06838c.00001.141.01934.2753.05469.4013.22938.8185 1.14251 1.2885 1.95511.9571.0625-.0255.1245-.0556.1855-.0908l4.3897-2.5342c.061-.0353.1184-.0738.1718-.1153.3199-.2483.5031-.6006.5489-.9677.0152-.1225.0152-.2467 0-.3692-.0458-.3671-.229-.7194-.5489-.9677-.0534-.0415-.1107-.08-.1718-.1153l-4.3897-2.53416c-.061-.03521-.123-.06531-.1855-.09082z" fill="#00a008" fill-rule="evenodd"/></svg>