<svg fill="none" height="16" viewBox="0 0 16 16" width="16" xmlns="http://www.w3.org/2000/svg"><g fill="#00a008"><path d="m5.25 7c.41421 0 .75.33579.75.75s-.33579.75-.75.75h-1.5c-.41421 0-.75-.33579-.75-.75s.33579-.75.75-.75z"/><path clip-rule="evenodd" d="m10.9678 2.00391c.6903.03831 1.3369.36117 1.7822.8955l1.7865 2.14394c.2995.35943.4635.81247.4635 1.28032v5.17633l-.0127.2559c-.1281 1.2605-1.193 2.2441-2.4873 2.2441h-2.0195c-.2658 0-.51887-.1057-.70511-.291l-.07519-.084-1.54395-1.9297c-.08007-.1001-.23243-.1001-.3125 0l-1.54395 1.9297-.07519.084c-.15954.1587-.36821.2586-.5918.2842l-.11328.0068h-2.01953c-1.29434 0-2.35918-.9836-2.4873-2.2441l-.0127-.2559v-5.17633c0-.46785.16402-.92089.46351-1.28032l1.78649-2.14394c.47498-.56997 1.17896-.8994 1.9209-.89941h5.6582zm-7.9678 4.49609c-.27614 0-.5.22386-.5.5v4.5c0 .5523.44772 1 1 1h1.7793l1.39355-1.7422.13379-.1494c.70528-.69779 1.8824-.64777 2.52051.1494l1.39355 1.7422h1.7793c.5523 0 1-.4477 1-1v-4.5c0-.27614-.2239-.5-.5-.5zm2.1709-3c-.29673.00001-.57857.13144-.76856.35938l-.95019 1.14062h9.09575l-.9502-1.14062c-.19-.22794-.4719-.35937-.7686-.35938z" fill-rule="evenodd"/></g></svg>