<svg fill="none" height="20" viewBox="0 0 20 20" width="20" xmlns="http://www.w3.org/2000/svg"><g fill="#00a008"><path d="m7.25 9c.41421 0 .75.33579.75.75 0 .4142-.33579.75-.75.75h-2.5c-.41421 0-.75-.3358-.75-.75 0-.41421.33579-.75.75-.75z"/><path clip-rule="evenodd" d="m14.1299 3.01465c.623.06738 1.2016.36702 1.6172.84473l2.762 3.17579c.3166.36398.4909.83011.4909 1.31249v5.65234c0 1.6051-1.2606 2.9158-2.8457 2.9961l-.1543.0039h-3.4648c-.3344 0-.6466-.1671-.8321-.4453l-1.2871-1.9307c-.1979-.2968-.6341-.2968-.83202 0l-1.2871 1.9307-.0752.0986c-.16168.1874-.38727.3082-.63281.3389l-.12403.0078h-3.46484l-.1543-.0039c-1.53404-.0777-2.76407-1.3078-2.84179-2.8418l-.00391-.1543v-5.65234c0-.48238.17434-.94851.4909-1.31249l2.76203-3.17579c.47471-.54576 1.16242-.85926 1.88574-.85938h7.72263zm-10.1299 4.48535c-.82843 0-1.5.67157-1.5 1.5v5c0 .8284.67157 1.5 1.5 1.5h3.19727l1.13867-1.708.07715-.1074c.79627-1.0439 2.37751-1.0439 3.17381 0l.0772.1074 1.1386 1.708h3.1973c.8284 0 1.5-.6716 1.5-1.5v-5c0-.82843-.6716-1.5-1.5-1.5zm2.13867-3c-.28921.00012-.56407.12555-.7539.34375l-1.00586 1.15625h11.24219l-1.0059-1.15625c-.1898-.2182-.4647-.34363-.7539-.34375z" fill-rule="evenodd"/></g></svg>