<svg fill="none" height="24" viewBox="0 0 24 24" width="24" xmlns="http://www.w3.org/2000/svg"><g fill="#00a008"><path d="m7.25 11c.41421 0 .75.3358.75.75s-.33579.75-.75.75h-2.5c-.41421 0-.75-.3358-.75-.75s.33579-.75.75-.75z"/><path clip-rule="evenodd" d="m16.8164 4.00391c.7957.04234 1.5445.4004 2.0781.99804l3.5973 4.02854c.3273.36653.5082.84072.5082 1.33211v6.6374c0 1.6569-1.3431 3-3 3h-4.5l-.1172-.0068c-.2316-.0273-.4467-.1348-.6074-.3037l-.0752-.0899-1.9004-2.5332c-.4-.533-1.1996-.533-1.5996 0l-1.9004 2.5332c-.18885.2518-.48504.4004-.7998.4004h-4.5c-1.65685 0-3-1.3431-3-3v-6.6374c0-.49139.1809-.96558.50819-1.33211l3.59728-4.02854c.56908-.63734 1.38288-1.00183 2.2373-1.00195h9.31443zm-12.8164 5.49609c-.82843 0-1.5.6716-1.5 1.5v6c0 .8284.67157 1.5 1.5 1.5h4.25l1.75-2.333.0967-.1211c.9943-1.1721 2.8123-1.1721 3.8066 0l.0967.1211 1.75 2.333h4.25c.8284 0 1.5-.6716 1.5-1.5v-6c0-.8284-.6716-1.5-1.5-1.5zm3.34277-4c-.42707.00012-.83368.18244-1.11816.50098l-1.78516 1.99902h15.12105l-1.7851-1.99902c-.2845-.31854-.6911-.50086-1.1182-.50098z" fill-rule="evenodd"/></g></svg>