<svg fill="none" height="16" viewBox="0 0 16 16" width="16" xmlns="http://www.w3.org/2000/svg"><g fill="#00a008"><path d="m7.78022 5.46956c-.29295-.29283-.76783-.29273-1.06066.00022s-.29273.76783.00022 1.06066l1.46934 1.46873-1.46934 1.46873c-.29295.29283-.29305.7677-.00022 1.0607.29283.2929.76771.293 1.06066.0002l2-1.99919c.14072-.14066.21978-.33148.21978-.53044 0-.19897-.07906-.38978-.21978-.53044z"/><path clip-rule="evenodd" d="m5.25 1.5c-2.07107 0-3.75 1.67893-3.75 3.75v5.5c0 2.0711 1.67893 3.75 3.75 3.75h5.5c2.0711 0 3.75-1.6789 3.75-3.75v-5.5c0-2.07107-1.6789-3.75-3.75-3.75zm-2.25 3.75c0-1.24264 1.00736-2.25 2.25-2.25h5.5c1.2426 0 2.25 1.00736 2.25 2.25v5.5c0 1.2426-1.0074 2.25-2.25 2.25h-5.5c-1.24264 0-2.25-1.0074-2.25-2.25z" fill-rule="evenodd"/></g></svg>