<svg fill="none" height="20" viewBox="0 0 20 20" width="20" xmlns="http://www.w3.org/2000/svg"><g fill="#00a008"><path d="m9.53021 6.46955c-.29296-.29283-.76783-.29272-1.06066.00024s-.29272.76783.00024 1.06066l2.46951 2.46845-2.46975 2.4709c-.29283.2929-.29272.7678.00024 1.0606.29296.2929.76783.2928 1.06066-.0002l2.99995-3.0013c.1407-.1407.2196-.3315.2196-.5304 0-.19892-.0791-.38966-.2198-.53029z"/><path clip-rule="evenodd" d="m6.5 2c-2.48528 0-4.5 2.01472-4.5 4.5v7c0 2.4853 2.01472 4.5 4.5 4.5h7c2.4853 0 4.5-2.0147 4.5-4.5v-7c0-2.48528-2.0147-4.5-4.5-4.5zm-3 4.5c0-1.65685 1.34315-3 3-3h7c1.6569 0 3 1.34315 3 3v7c0 1.6569-1.3431 3-3 3h-7c-1.65685 0-3-1.3431-3-3z" fill-rule="evenodd"/></g></svg>