<svg fill="none" height="24" viewBox="0 0 24 24" width="24" xmlns="http://www.w3.org/2000/svg"><g fill="#00a008"><path d="m11.5302 8.46955c-.2929-.29283-.7678-.29272-1.0606.00024-.2929.29296-.2928.76783.0002 1.06066l2.4695 2.46845-2.4697 2.4709c-.2929.2929-.2928.7678.0002 1.0606.2929.2929.7678.2928 1.0606-.0002l3-3.0013c.1407-.1407.2196-.3315.2196-.5304s-.0791-.3897-.2198-.5303z"/><path clip-rule="evenodd" d="m7.75 2.5c-2.89949 0-5.25 2.3505-5.25 5.25v8.5c0 2.8995 2.3505 5.25 5.25 5.25h8.5c2.8995 0 5.25-2.3505 5.25-5.25v-8.5c0-2.89949-2.3505-5.25-5.25-5.25zm-3.75 5.25c0-2.07107 1.67893-3.75 3.75-3.75h8.5c2.0711 0 3.75 1.67893 3.75 3.75v8.5c0 2.0711-1.6789 3.75-3.75 3.75h-8.5c-2.07107 0-3.75-1.6789-3.75-3.75z" fill-rule="evenodd"/></g></svg>