<svg fill="none" height="16" viewBox="0 0 16 16" width="16" xmlns="http://www.w3.org/2000/svg"><path clip-rule="evenodd" d="m1 4.25c0-1.51878 1.23122-2.75 2.75-2.75h8.5c1.5188 0 2.75 1.23122 2.75 2.75v5.5c0 1.5188-1.2312 2.75-2.75 2.75h-3.25v1h1c.4142 0 .75.3358.75.75s-.3358.75-.75.75h-4c-.41421 0-.75-.3358-.75-.75s.33579-.75.75-.75h1v-1h-3.25c-1.51878 0-2.75-1.2312-2.75-2.75zm2.75-1.25c-.69036 0-1.25.55964-1.25 1.25v4.25h11v-4.25c0-.69036-.5596-1.25-1.25-1.25z" fill="#00a008" fill-rule="evenodd"/></svg>