<svg fill="none" height="24" viewBox="0 0 24 24" width="24" xmlns="http://www.w3.org/2000/svg"><path clip-rule="evenodd" d="m5.25 2.5c-2.07107 0-3.75 1.67893-3.75 3.75v9.5c0 2.0711 1.67893 3.75 3.75 3.75h3.75v1.5h-1c-.41421 0-.75.3358-.75.75s.33579.75.75.75h8c.4142 0 .75-.3358.75-.75s-.3358-.75-.75-.75h-1v-1.5h3.75c2.0711 0 3.75-1.6789 3.75-3.75v-9.5c0-2.07107-1.6789-3.75-3.75-3.75zm8.25 17v1.5h-3v-1.5zm-10.5-13.25c0-1.24264 1.00736-2.25 2.25-2.25h13.5c1.2426 0 2.25 1.00736 2.25 2.25v5.75h-18z" fill="#00a008" fill-rule="evenodd"/></svg>