<svg fill="none" height="20" viewBox="0 0 20 20" width="20" xmlns="http://www.w3.org/2000/svg"><g fill="#00a008"><path d="m15.0586 7.21511-.0077.0052-.0007-.01323z"/><path clip-rule="evenodd" d="m3.55864 7.21406c0-3.53228 3.08904-6.21406 6.51656-6.21406 3.4187 0 6.4739 2.70525 6.4834 6.21201v.00205 1.75c0 .19942.0394.48895.1171.79158.0785.30576.1808.56466.2751.72096l.0054.0089 1.001 1.7685c.8894 1.4984-.0096 3.2097-1.5031 3.7075-.9611.3197-1.9403.5651-2.9294.7363-.5341 1.3657-1.9522 2.3022-3.52504 2.3022-1.00916 0-1.9463-.3853-2.62391-1.0064-.3955-.3626-.71264-.8156-.90833-1.3254-.93225-.1693-1.85537-.4049-2.76226-.7065-.76149-.2539-1.38991-.7607-1.7055-1.4496-.32256-.7041-.27871-1.5156.16005-2.2575l1.00139-1.7691.0054-.0089c.09481-.1571.197-.4147.27522-.71836.07744-.30064.11692-.59017.11692-.79418zm4.87403 9.71244c.40087.348.95875.5735 1.56699.5735.61834 0 1.15844-.2188 1.55444-.5602-1.0392.076-2.08281.0716-3.12143-.0133zm1.64253-14.4265-.0083.00001-.0083-.00001c-.40382 0-.79645.04787-1.17253.13824-2.16029.50933-3.82743 2.36652-3.82743 4.57582v.26415l-.00005.02179.00005.02179v1.44227c0 .36266-.06469.78147-.16433 1.16834-.09788.38-.24374.7848-.43769 1.1094l-.99935 1.7655-.00421.0071c-.20703.3477-.19516.6428-.08969.873.11352.2478.37711.5048.81548.651 3.82939 1.2737 7.97145 1.2738 11.80085.0001.7537-.2512 1.0043-.9897.6854-1.5227l-.0047-.0077-.9998-1.7663c-.1944-.3255-.3402-.733-.4378-1.1131-.0993-.38692-.1642-.80573-.1642-1.16464v-1.74895c-.0076-2.59279-2.3024-4.71511-4.9834-4.71511z" fill-rule="evenodd"/></g></svg>