<svg fill="none" height="24" viewBox="0 0 24 24" width="24" xmlns="http://www.w3.org/2000/svg"><path clip-rule="evenodd" d="m12.0188 1.5c-4.03866 0-7.51986 3.00876-7.51986 7.15153v2.09727c0 .2845-.03647.6573-.11287 1.0222-.07775.3712-.18476.6754-.29629.8621l-1.2294 1.9586-.0044.0074c-.48732.8173-.60378 1.711-.28498 2.5106.31599.7926 1.00977 1.3672 1.89273 1.6611 1.18694.3943 2.40124.6938 3.62973.8983.1988.6555.55827 1.2435 1.02601 1.7112.73267.7327 1.76043 1.1997 2.88033 1.1997 1.826 0 3.3816-1.2153 3.898-2.8771 1.2999-.2048 2.5847-.5155 3.8391-.9322 1.7699-.5892 2.6018-2.5118 1.6064-4.173l-.0144-.0241-1.3802-1.9561c-.1149-.1981-.2295-.5079-.3159-.8703-.0879-.3692-.1326-.7343-.1326-.9984v-2.09727-.00205c-.0113-4.11394-3.4548-7.14948-7.4814-7.14948zm2.1347 18.4135c-1.4361.1211-2.8819.1149-4.31695-.0186.0997.1537.21505.2962.34355.4248.4674.4673 1.1196.7603 1.8197.7603.8955 0 1.6904-.4658 2.1537-1.1665zm-8.15456-11.26197c0-3.2075 2.69859-5.65153 6.01986-5.65153 3.2932 0 5.9721 2.45667 5.9814 5.65257v2.09623c0 .4049.0646.8887.1735 1.3459.1075.4514.2722.9366.5032 1.3189l.0138.0228 1.3788 1.9541c.4455.7703.1151 1.65-.806 1.9568-4.6265 1.5369-9.70039 1.5369-14.32689 0-.55675-.1854-.85329-.4947-.97227-.7931-.11566-.2901-.11269-.6923.17594-1.1801l1.22388-1.9496.0066-.0109c.23744-.3929.38931-.8856.48346-1.3352.09614-.4591.14472-.9351.14472-1.3296z" fill="#00a008" fill-rule="evenodd"/></svg>