<svg fill="none" height="16" viewBox="0 0 16 16" width="16" xmlns="http://www.w3.org/2000/svg"><path clip-rule="evenodd" d="m1 5c0-1.65685 1.34315-3 3-3h8c1.6569 0 3 1.34315 3 3v6c0 1.6569-1.3431 3-3 3h-8c-1.65685 0-3-1.3431-3-3z" fill="#a5aebd" fill-rule="evenodd"/><path clip-rule="evenodd" d="m1 5c0-1.65685 1.34315-3 3-3h8c1.6569 0 3 1.34315 3 3v6c0 1.6569-1.3431 3-3 3h-8c-1.65685 0-3-1.3431-3-3zm11-2h-8c-1.10457 0-2 .89543-2 2v6c0 1.1046.89543 2 2 2h8c1.1046 0 2-.8954 2-2v-6c0-1.10457-.8954-2-2-2z" fill="#1d1f26" fill-opacity=".2" fill-rule="evenodd"/><path d="m9.78571 7.21429-1.78571-.71429 1.78571-.71429.71429-1.78571.7143 1.78571 1.7857.71429-1.7857.71429-.7143 1.78571z" fill="#fff"/></svg>