<svg fill="none" height="24" viewBox="0 0 24 24" width="24" xmlns="http://www.w3.org/2000/svg"><path d="m2 7c0-1.65685 1.34315-3 3-3h14c1.6569 0 3 1.34315 3 3v10c0 1.6569-1.3431 3-3 3h-14c-1.65685 0-3-1.3431-3-3z" fill="#a5aebd"/><path d="m14.375 11.625-3.375-1.125 3.375-1.125 1.125-3.375 1.125 3.375 3.375 1.125-3.375 1.125-1.125 3.375z" fill="#fff"/><path clip-rule="evenodd" d="m19 5h-14c-1.10457 0-2 .89543-2 2v10c0 1.1046.89543 2 2 2h14c1.1046 0 2-.8954 2-2v-10c0-1.10457-.8954-2-2-2zm-14-1c-1.65685 0-3 1.34315-3 3v10c0 1.6569 1.34315 3 3 3h14c1.6569 0 3-1.3431 3-3v-10c0-1.65685-1.3431-3-3-3z" fill="#1d1f26" fill-opacity=".2" fill-rule="evenodd"/></svg>