<svg fill="none" height="20" viewBox="0 0 20 20" width="20" xmlns="http://www.w3.org/2000/svg"><path d="m4.29705 9.83908c-1.41874-1.41703-.41515-3.84195 1.59004-3.84195l2.26218-.00001c.0666.00001.13045-.02657.17738-.07382l1.60073-1.61174c.04652-.04684.07262-.11017.07262-.17617v-1.18271c0-1.73726 2.2183-2.60728 3.4467-1.37885l4.9831 4.98312c1.2284 1.22843.3584 3.44305-1.3789 3.44305h-1.1968c-.066 0-.1293.0261-.1762.0726l-1.5976 1.5866c-.0472.047-.0738.1108-.0738.1774v2.2729c0 2.0039-2.4222 3.008-3.84 1.5919l-2.40776-2.4048-4.70706 4.7071c-.29286.2928-.76769.2928-1.06055 0-.29286-.2929-.29286-.7677 0-1.0606l4.70643-4.7064z" fill="#00a008"/></svg>