<svg fill="none" height="24" viewBox="0 0 24 24" width="24" xmlns="http://www.w3.org/2000/svg"><path d="m4.96711 12.2743c-1.57638-1.5745-.46129-4.26883 1.7667-4.26883h2.77393c.07085 0 .13838-.03007.18579-.08273l1.74227-1.93519c.0413-.04591.0642-.10549.0642-.16727v-1.44966c0-1.91482 2.3145-2.87436 3.6694-1.52121l5.9867 5.97948c1.3557 1.35401.3968 3.67111-1.5193 3.67121h-1.4589c-.062 0-.1218.0231-.1677.0646l-1.9203 1.7375c-.0523.0474-.0822.1147-.0822.1853v2.7837c0 2.2265-2.6914 3.3423-4.2667 1.7688l-2.86296-2.8595-4.81544 4.8155c-.29335.2933-.76896.2933-1.06231 0-.29335-.2934-.29335-.769 0-1.0624l4.81479-4.8148z" fill="#00a008"/></svg>