<svg fill="none" height="16" viewBox="0 0 16 16" width="16" xmlns="http://www.w3.org/2000/svg"><g clip-rule="evenodd" fill="#00a008" fill-rule="evenodd"><path d="m11 4.5c0 1.65685-1.34315 3-3 3s-3-1.34315-3-3 1.34315-3 3-3 3 1.34315 3 3zm-1.5 0c0 .82843-.67157 1.5-1.5 1.5s-1.5-.67157-1.5-1.5.67157-1.5 1.5-1.5 1.5.67157 1.5 1.5z"/><path d="m13.5 12c0 1.933-2.4624 3.5-5.5 3.5-3.03757 0-5.5-1.567-5.5-3.5s2.46243-3.5 5.5-3.5c3.0376 0 5.5 1.567 5.5 3.5zm-1.5 0c0 .2758-.1785.7399-.9162 1.2094-.72.4581-1.80623.7906-3.0838.7906s-2.3638-.3325-3.08377-.7906c-.73777-.4695-.91623-.9336-.91623-1.2094s.17846-.7399.91623-1.2094c.71997-.4581 1.8062-.7906 3.08377-.7906s2.3638.3325 3.0838.7906c.7377.4695.9162.9336.9162 1.2094z"/></g></svg>