<svg fill="none" height="20" viewBox="0 0 20 20" width="20" xmlns="http://www.w3.org/2000/svg"><g clip-rule="evenodd" fill="#00a008" fill-rule="evenodd"><path d="m14 5.5c0 2.20914-1.7909 4-4 4-2.20914 0-4-1.79086-4-4s1.79086-4 4-4c2.2091 0 4 1.79086 4 4zm-1.5 0c0 1.38071-1.1193 2.5-2.5 2.5-1.38071 0-2.5-1.11929-2.5-2.5s1.11929-2.5 2.5-2.5c1.3807 0 2.5 1.11929 2.5 2.5z"/><path d="m17.5 14.5c0 2.2091-3.3579 4-7.5 4-4.14214 0-7.5-1.7909-7.5-4s3.35786-4 7.5-4c4.1421 0 7.5 1.7909 7.5 4zm-1.5 0c0 .2809-.2382.8839-1.4026 1.5049-1.0999.5866-2.7227.9951-4.5974.9951s-3.49752-.4085-4.59742-.9951c-1.16435-.621-1.40258-1.224-1.40258-1.5049s.23823-.8839 1.40258-1.5049c1.0999-.5866 2.72272-.9951 4.59742-.9951s3.4975.4085 4.5974.9951c1.1644.621 1.4026 1.224 1.4026 1.5049z"/></g></svg>