<svg fill="none" height="24" viewBox="0 0 24 24" width="24" xmlns="http://www.w3.org/2000/svg"><g clip-rule="evenodd" fill="#00a008" fill-rule="evenodd"><path d="m16.5 7c0 2.48528-2.0147 4.5-4.5 4.5-2.48528 0-4.5-2.01472-4.5-4.5s2.01472-4.5 4.5-4.5c2.4853 0 4.5 2.01472 4.5 4.5zm-1.5 0c0 1.65685-1.3431 3-3 3s-3-1.34315-3-3 1.3431-3 3-3 3 1.34315 3 3z"/><path d="m20.5 17.5c0 2.7614-3.8056 5-8.5 5-4.69442 0-8.5-2.2386-8.5-5s3.80558-5 8.5-5c4.6944 0 8.5 2.2386 8.5 5zm-1.5 0c0 .632-.4455 1.4752-1.7501 2.2426-1.27.7471-3.1227 1.2574-5.2499 1.2574-2.12724 0-3.97993-.5103-5.24988-1.2574-1.30462-.7674-1.75012-1.6106-1.75012-2.2426s.4455-1.4752 1.75012-2.2426c1.26995-.7471 3.12264-1.2574 5.24988-1.2574 2.1272 0 3.9799.5103 5.2499 1.2574 1.3046.7674 1.7501 1.6106 1.7501 2.2426z"/></g></svg>