<svg fill="none" height="16" viewBox="0 0 16 16" width="16" xmlns="http://www.w3.org/2000/svg" xmlns:xlink="http://www.w3.org/1999/xlink"><clipPath id="a"><path d="m0 0h16v16h-16z"/></clipPath><g clip-path="url(#a)" fill="#00a008"><path d="m9.75 7c.4142 0 .75.33579.75.75v3.5c0 .4142-.3358.75-.75.75-.41421 0-.75-.3358-.75-.75v-3.5c0-.41421.33579-.75.75-.75z"/><path d="m7 7.75c0-.41421-.33579-.75-.75-.75s-.75.33579-.75.75v3.5c0 .4142.33579.75.75.75s.75-.3358.75-.75z"/><path clip-rule="evenodd" d="m6.75.5c-1.51878 0-2.75 1.23122-2.75 2.75v.25h-3c-.414214 0-.75.33579-.75.75s.335786.75.75.75h1v6.75c0 2.0711 1.67893 3.75 3.75 3.75h4.5c2.0711 0 3.75-1.6789 3.75-3.75v-6.75h1c.4142 0 .75-.33579.75-.75s-.3358-.75-.75-.75h-3v-.25c0-1.51878-1.2312-2.75-2.75-2.75zm3.75 3v-.25c0-.69036-.55964-1.25-1.25-1.25h-2.5c-.69036 0-1.25.55964-1.25 1.25v.25zm-7 1.5v6.75c0 1.2426 1.00736 2.25 2.25 2.25h4.5c1.2426 0 2.25-1.0074 2.25-2.25v-6.75z" fill-rule="evenodd"/></g></svg>