<svg fill="none" height="20" viewBox="0 0 20 20" width="20" xmlns="http://www.w3.org/2000/svg"><g fill="#00a008"><path d="m7.75 8c.41421 0 .75.33579.75.75v5.5c0 .4142-.33579.75-.75.75s-.75-.3358-.75-.75v-5.5c0-.41421.33579-.75.75-.75z"/><path d="m13 8.75c0-.41421-.3358-.75-.75-.75s-.75.33579-.75.75v5.5c0 .4142.3358.75.75.75s.75-.3358.75-.75z"/><path clip-rule="evenodd" d="m7.75 1c-1.51878 0-2.75 1.23122-2.75 2.75v.25h-3c-.41421 0-.75.33579-.75.75s.33579.75.75.75h1v9.25c0 2.3472 1.90279 4.25 4.25 4.25h5.5c2.3472 0 4.25-1.9028 4.25-4.25v-9.25h1c.4142 0 .75-.33579.75-.75s-.3358-.75-.75-.75h-3v-.25c0-1.51878-1.2312-2.75-2.75-2.75zm5.75 3v-.25c0-.69036-.5596-1.25-1.25-1.25h-4.5c-.69036 0-1.25.55964-1.25 1.25v.25zm-9 1.5v9.25c0 1.5188 1.23122 2.75 2.75 2.75h5.5c1.5188 0 2.75-1.2312 2.75-2.75v-9.25z" fill-rule="evenodd"/></g></svg>