<svg fill="none" height="24" viewBox="0 0 24 24" width="24" xmlns="http://www.w3.org/2000/svg"><g fill="#00a008"><path d="m16 9.75c0-.41421-.3358-.75-.75-.75s-.75.33579-.75.75v6.5c0 .4142.3358.75.75.75s.75-.3358.75-.75z"/><path d="m8.75 9c.41421 0 .75.33579.75.75v6.5c0 .4142-.33579.75-.75.75s-.75-.3358-.75-.75v-6.5c0-.41421.33579-.75.75-.75z"/><path d="m12.75 9.75c0-.41421-.3358-.75-.75-.75s-.75.33579-.75.75v6.5c0 .4142.3358.75.75.75s.75-.3358.75-.75z"/><path clip-rule="evenodd" d="m8.75 1.5c-1.51878 0-2.75 1.23122-2.75 2.75v.75h-4.25c-.41421 0-.75.33579-.75.75s.33579.75.75.75h2.25v10.75c0 2.6234 2.12665 4.75 4.75 4.75h6.5c2.6234 0 4.75-2.1266 4.75-4.75v-10.75h2.25c.4142 0 .75-.33579.75-.75s-.3358-.75-.75-.75h-4.25v-.75c0-1.51878-1.2312-2.75-2.75-2.75zm7.75 3.5v-.75c0-.69036-.5596-1.25-1.25-1.25h-6.5c-.69036 0-1.25.55964-1.25 1.25v.75zm-11 1.5v10.75c0 1.7949 1.45507 3.25 3.25 3.25h6.5c1.7949 0 3.25-1.4551 3.25-3.25v-10.75z" fill-rule="evenodd"/></g></svg>