<svg fill="none" height="16" viewBox="0 0 16 16" width="16" xmlns="http://www.w3.org/2000/svg"><g fill="#00a008"><path d="m4.46975 6.21973c-.2929.29289-.2929.76765 0 1.06054l3 3.00003c.29289.2929.76765.2929 1.06054 0l3.00001-3.00003c.2929-.29289.2929-.76765 0-1.06054-.2929-.2929-.7677-.2929-1.0606 0l-2.46968 2.46972-2.46973-2.46972c-.29289-.2929-.76765-.2929-1.06054 0z"/><path clip-rule="evenodd" d="m1.00002 8c0 3.866 3.13401 7 7 7 3.86598 0 6.99998-3.134 6.99998-7 0-3.86599-3.134-7-6.99998-7-3.86599 0-7 3.13401-7 7zm1.5 0c0-3.03757 2.46243-5.5 5.5-5.5 3.03758 0 5.49998 2.46243 5.49998 5.5 0 3.0376-2.4624 5.5-5.49998 5.5-3.03757 0-5.5-2.4624-5.5-5.5z" fill-rule="evenodd"/></g></svg>