<svg fill="none" height="20" viewBox="0 0 20 20" width="20" xmlns="http://www.w3.org/2000/svg"><g fill="#00a008"><path d="m5.96975 8.21973c-.2929.29289-.2929.76765 0 1.06054l3.5 3.50003c.29289.2929.76765.2929 1.06055 0l3.5-3.50003c.2929-.29289.2929-.76765 0-1.06054-.2929-.2929-.7677-.2929-1.0606 0l-2.9697 2.96977-2.96971-2.96977c-.29289-.2929-.76765-.2929-1.06054 0z"/><path clip-rule="evenodd" d="m1.50002 10c0 4.6944 3.80558 8.5 8.49998 8.5s8.5-3.8056 8.5-8.5c0-4.69442-3.8056-8.5-8.5-8.5s-8.49998 3.80558-8.49998 8.5zm1.5 0c0-3.86599 3.13401-7 6.99998-7 3.866 0 7 3.13401 7 7 0 3.866-3.134 7-7 7-3.86597 0-6.99998-3.134-6.99998-7z" fill-rule="evenodd"/></g></svg>