<svg fill="none" height="24" viewBox="0 0 24 24" width="24" xmlns="http://www.w3.org/2000/svg"><g fill="#00a008"><path d="m7.46974 10.2197c-.29289.2929-.29289.7677 0 1.0606l3.99996 4c.2929.2929.7677.2929 1.0606 0l4-4c.2929-.2929.2929-.7677 0-1.0606-.2929-.29287-.7677-.29287-1.0606 0l-3.4697 3.4698-3.46971-3.4698c-.29289-.29287-.76765-.29287-1.06055 0z"/><path clip-rule="evenodd" d="m2.00002 12c0 5.5228 4.47715 10 9.99998 10 5.5229 0 10-4.4772 10-10 0-5.52285-4.4771-10-10-10-5.52283 0-9.99998 4.47715-9.99998 10zm1.5 0c0-4.69442 3.80558-8.5 8.49998-8.5s8.5 3.80558 8.5 8.5c0 4.6944-3.8056 8.5-8.5 8.5-4.69441 0-8.49998-3.8056-8.49998-8.5z" fill-rule="evenodd"/></g></svg>