<svg fill="none" height="16" viewBox="0 0 16 16" width="16" xmlns="http://www.w3.org/2000/svg"><path clip-rule="evenodd" d="m10.3125 3.00488c.9752.01533 1.5685.07702 2.0498.32227.5642.28757 1.023.74632 1.3106 1.31055.1815.35626.2599.77389.2959 1.3623h.2314c.3865.0001.7002.31365.7002.7002v2.5996c0 .38655-.3137.7001-.7002.7002h-.2295c-.036.5884-.1163 1.006-.2978 1.3623l-.1153.2061c-.2882.4699-.7014.8527-1.1953 1.1045l-.123.0576c-.46.1976-1.0327.2506-1.9268.2646l-1.1123.0049h-3.4004l-1.1123-.0049c-.97525-.0153-1.56848-.077-2.0498-.3222-.49389-.2518-.90713-.6346-1.19532-1.1045l-.11523-.2061c-.24525-.4813-.30694-1.0746-.32227-2.0498l-.00488-1.1123v-.4004c0-1.57512.00007-2.41185.26953-3.03906l.05762-.12304c.25173-.49389.63451-.90713 1.10449-1.19532l.20606-.11523c.64171-.32697 1.48208-.32715 3.1621-.32715h3.4004zm-3.8125 8.49512h2v-7h-2zm-1.5-6.99707c-.4377.00317-.77107.01061-1.04785.0332-.40673.03323-.5585.08917-.63281.12696-.28225.14381-.51244.374-.65625.65625-.03779.07431-.09373.22608-.12696.63281-.03469.42493-.03613.98319-.03613 1.84765v.4004c0 .86446.00144 1.42272.03613 1.8477.03323.4067.08917.5584.12696.6328.14381.2822.374.5124.65625.6562.07431.0378.22608.0937.63281.127.27678.0226.61015.029 1.04785.0322zm5 6.99317c.4377-.0032.7711-.0096 1.0479-.0322.4067-.0333.5584-.0892.6328-.127.2822-.1438.5124-.374.6562-.6562.0378-.0744.0937-.2261.127-.6328.0347-.42498.0361-.98324.0361-1.8477v-.4004c0-.86446-.0014-1.42272-.0361-1.84765-.0333-.40673-.0892-.5585-.127-.63281-.1438-.28225-.374-.51244-.6562-.65625-.0744-.03779-.2261-.09373-.6328-.12696-.2768-.02259-.6102-.03003-1.0479-.0332z" fill="#00a008" fill-rule="evenodd"/></svg>