<svg fill="none" height="24" viewBox="0 0 24 24" width="24" xmlns="http://www.w3.org/2000/svg"><path clip-rule="evenodd" d="m14.5996 5c2.2402 0 3.3612-.00043 4.2168.43555.7525.38347 1.3646.99554 1.7481 1.74804.242.47498.3467 1.03187.3945 1.81641h.041c1.1046 0 2 .89543 2 2v2c0 1.1046-.8954 2-2 2h-.041c-.0478.7845-.1525 1.3414-.3945 1.8164l-.1543.2754c-.3843.6265-.9353 1.1371-1.5938 1.4727l-.1641.0761c-.6132.2635-1.3766.3338-2.5683.3526l-1.4844.0068h-6.19921l-1.48437-.0068c-1.19171-.0188-1.95514-.0891-2.56836-.3526l-.16407-.0761c-.65847-.3356-1.20946-.8462-1.59375-1.4727l-.15429-.2754c-.43598-.8556-.43555-1.9766-.43555-4.2168v-1.1992c0-2.24022-.00043-3.36116.43555-4.21681.38347-.7525.99554-1.36457 1.74804-1.74804.64166-.32694 1.43248-.40827 2.73243-.42871l1.48437-.00684zm-5.0996 12.5h4v-11h-4zm-1.5-10.99902c-.92847.00089-1.58549.00634-2.10547.04882-.57376.04691-.84822.13043-1.0293.22266-.4704.23968-.85309.62237-1.09277 1.09277-.09223.18108-.17575.45554-.22266 1.0293-.04834.59176-.0498 1.36097-.0498 2.50587v1.1992c0 1.1449.00146 1.9141.0498 2.5059.04691.5737.13043.8482.22266 1.0293.23968.4704.62237.8531 1.09277 1.0927.18108.0923.45554.1758 1.0293.2227.51998.0425 1.177.0469 2.10547.0478zm7 10.99702c.9285-.0009 1.5855-.0053 2.1055-.0478.5737-.0469.8482-.1304 1.0293-.2227.4704-.2396.8531-.6223 1.0927-1.0927.0923-.1811.1758-.4556.2227-1.0293.0483-.5918.0498-1.361.0498-2.5059v-1.1992c0-1.1449-.0015-1.91411-.0498-2.50587-.0469-.57376-.1304-.84822-.2227-1.0293-.2396-.4704-.6223-.85309-1.0927-1.09277-.1811-.09223-.4556-.17575-1.0293-.22266-.52-.04248-1.177-.04793-2.1055-.04882z" fill="#00a008" fill-rule="evenodd"/></svg>