<svg fill="none" height="16" viewBox="0 0 16 16" width="16" xmlns="http://www.w3.org/2000/svg"><g fill="#00a008"><path d="m8.29995.75c0-.414214.33579-.75.75-.75.41422 0 .75.335786.75.75v.5c0 .41421-.33578.75-.75.75-.41421 0-.75-.33579-.75-.75z"/><path d="m14.2501 5.28882c.4143 0 .75.33578.75.75 0 .41421-.3357.75-.75.75h-.5c-.4142 0-.75-.33579-.75-.75 0-.41422.3358-.75.75-.75z"/><path d="m13.1212 10.0326c.2929-.2929.2929-.76778 0-1.06067l-.3536-.35356c-.2929-.29289-.7677-.29289-1.0606 0-.2929.2929-.2929.76777 0 1.06067l.3535.35356c.2929.2929.7678.2929 1.0607 0z"/><path d="m6.32675 1.88385c.2929.2929.2929.76777 0 1.06066-.29289.2929-.76776.2929-1.06066 0l-.35355-.35355c-.29289-.29289-.29289-.76777 0-1.06066s.76777-.29289 1.06066 0z"/><path d="m11.7618 2.85688c.2929.29289.7678.29289 1.0607 0l.3535-.35356c.2929-.29289.2929-.76776 0-1.06066-.2929-.29289-.7677-.29289-1.0606 0l-.3536.35356c-.2929.29289-.2929.76776 0 1.06066z"/><g clip-rule="evenodd" fill-rule="evenodd"><path d="m9.00015 9c1.65685 0 2.99995-1.34315 2.99995-3s-1.3431-3-2.99995-3-3 1.34315-3 3 1.34315 3 3 3zm0-1.5c.82843 0 1.49995-.67157 1.49995-1.5s-.67152-1.5-1.49995-1.5-1.5.67157-1.5 1.5.67157 1.5 1.5 1.5z"/><path d="m10.5577 11.9511c.5376-.685-.3189-1.4653-1.18934-1.444-.03928.0009-.07867.0014-.11818.0014-2.62335 0-4.75-2.12665-4.75-4.75 0-.04425.0006-.08835.0018-.1323.02381-.87041-.7539-1.72922-1.44046-1.19367-1.2547.97872-2.06152 2.50484-2.06152 4.21941 0 2.95366 2.39445 5.34816 5.34815 5.34816 1.70885 0 3.23051-.8015 4.20955-2.049zm-7.4949-5.30447c.38906 2.73491 2.54855 4.89967 5.28091 5.29657-.5822.3539-1.26503.5569-1.99556.5569-2.12527 0-3.84815-1.7229-3.84815-3.84816 0-.7346.20524-1.42099.5628-2.00531z"/></g></g></svg>