<svg fill="none" height="20" viewBox="0 0 20 20" width="20" xmlns="http://www.w3.org/2000/svg"><g fill="#00a008"><path d="m10.7502.75c0-.414214.3358-.75.75-.75s.75.335786.75.75v1c0 .41421-.3358.75-.75.75s-.75-.33579-.75-.75z"/><path d="m18.2502 6.79999c.4142 0 .75.33578.75.75 0 .41421-.3358.75-.75.75h-1c-.4142 0-.75-.33579-.75-.75 0-.41422.3358-.75.75-.75z"/><path d="m16.7365 11.687c.2929.2928.2929.7677 0 1.0606s-.7678.2929-1.0607 0l-.7071-.7071c-.2929-.2929-.2929-.7678 0-1.0607.2929-.2928.7678-.2928 1.0607 0z"/><path d="m8.00013 2.95111c.29289.2929.29289.76777 0 1.06067-.29289.29289-.76777.29289-1.06066 0l-.7071-.70711c-.2929-.29289-.2929-.76777 0-1.06066.29289-.2929.76776-.2929 1.06066 0z"/><path d="m16.0491 3.82465c-.2929.29289-.7678.29289-1.0607 0s-.2929-.76777 0-1.06066l.7071-.70711c.2929-.29289.7678-.29289 1.0607 0 .2929.2929.2929.76777 0 1.06066z"/><g clip-rule="evenodd" fill-rule="evenodd"><path d="m11.5007 11c1.933 0 3.5-1.567 3.5-3.5s-1.567-3.5-3.5-3.5c-1.93302 0-3.50002 1.567-3.50002 3.5s1.567 3.5 3.50002 3.5zm0-1.5c1.1045 0 2-.89543 2-2s-.8955-2-2-2c-1.1046 0-2.00002.89543-2.00002 2s.89542 2 2.00002 2z"/><path d="m4.65876 5.26998c.74253-.38202 1.41995.4709 1.30499 1.29798-.03614.26006-.05483.5257-.05483.7957 0 3.16304 2.56419 5.72724 5.72728 5.72724.2701 0 .5359-.0187.796-.0548.8271-.1151 1.6801.5623 1.2981 1.3049-1.1177 2.1728-3.3823 3.6591-5.99399 3.6591-3.72036 0-6.73631-3.016-6.73631-6.7363 0-2.61156 1.4861-4.876 3.65876-5.99382zm6.97744 9.32092c.0485 0 .0969-.0004.1452-.0014-.9616 1.1682-2.41747 1.9106-4.04509 1.9106-2.89193 0-5.23631-2.3444-5.23631-5.2363 0-1.62752.74227-3.0833 1.91035-4.04487-.00095.04814-.00143.09639-.00143.14473 0 3.99154 3.23576 7.22724 7.22728 7.22724z"/></g></g></svg>