<svg fill="none" height="24" viewBox="0 0 24 24" width="24" xmlns="http://www.w3.org/2000/svg"><g fill="#00a008"><path d="m13.3.75c0-.414214.3358-.75.75-.75s.75.335786.75.75v1.5c0 .41421-.3358.75-.75.75s-.75-.33579-.75-.75z"/><path d="m22.2502 8.20001c.4142 0 .75.33579.75.75 0 .41422-.3358.75-.75.75h-1.5c-.4142 0-.75-.33578-.75-.75 0-.41421.3358-.75.75-.75z"/><path d="m20.3508 14.402c.2928.2929.2928.7677 0 1.0606-.2929.2929-.7678.2929-1.0607 0l-1.0607-1.0606c-.2929-.2929-.2929-.7678 0-1.0607s.7678-.2929 1.0607 0z"/><path d="m9.67302 3.7248c.29289.29289.29289.76776 0 1.06066-.29289.29289-.76777.29289-1.06066 0l-1.06066-1.06066c-.29289-.2929-.29289-.76777 0-1.06066.29289-.2929.76777-.2929 1.06066 0z"/><path d="m19.2757 4.79242c-.2929.2929-.7678.2929-1.0607 0-.2929-.29289-.2929-.76776 0-1.06066l1.0607-1.06066c.2929-.29289.7677-.29289 1.0606 0 .2929.2929.2929.76777 0 1.06066z"/><g clip-rule="evenodd" fill-rule="evenodd"><path d="m14.0002 13.5c2.4853 0 4.5-2.0147 4.5-4.5 0-2.48528-2.0147-4.5-4.5-4.5s-4.49997 2.01472-4.49997 4.5c0 2.4853 2.01467 4.5 4.49997 4.5zm0-1.5c1.6569 0 3-1.3431 3-3 0-1.65686-1.3431-3-3-3-1.6568 0-3 1.34314-3 3 0 1.6569 1.3432 3 3 3z"/><path d="m16.7572 17.1151c.3399-.7627-.5155-1.429-1.3332-1.26-.4598.095-.9361.1449-1.424.1449-3.866 0-7-3.134-7-6.99999 0-.48788.04991-.96409.1449-1.42382.16897-.81775-.49732-1.67318-1.26002-1.33324-2.87838 1.28291-4.88488 4.16905-4.88488 7.52385 0 4.5471 3.68616 8.2333 8.23327 8.2333 3.35483 0 6.24103-2.0066 7.52393-4.885zm-7.52393 3.385c2.35473 0 4.42963-1.2089 5.63383-3.0439-.2855.029-.5747.0438-.8671.0438-4.69442 0-8.5-3.8056-8.5-8.49999 0-.2923.01481-.58152.04378-.86691-1.83494 1.20422-3.04378 3.279-3.04378 5.6337 0 3.7187 3.01459 6.7333 6.73327 6.7333z"/></g></g></svg>