<svg fill="none" height="16" viewBox="0 0 16 16" width="16" xmlns="http://www.w3.org/2000/svg"><path clip-rule="evenodd" d="m4.71366 4.49626c-1.73783 0-2.6076 2.10159-1.37803 3.32969l1.9827 1.98031-3.33059 3.33054c-.23787.2379-.23787.6236.00001.8615.23787.2378.62353.2378.8614 0l3.33111-3.3312 1.98537 1.983c1.22877 1.2273 3.32807.357 3.32807-1.3797v-1.94941l1.3342-1.32502h.9366c1.5591 0 2.3399-1.94455 1.2374-3.04699l-3.961-3.960985c-1.1024-1.102438-3.03722-.321648-3.03722 1.237435v.92515l-1.33649 1.34568zm-.31801 2.26839c-.28374-.28341-.08303-.76839.31801-.76839h2.05758c.33301 0 .65225-.13288.88691-.36915l1.48243-1.49263c.23257-.23417.3631-.55082.3631-.88085v-1.0282c0-.22272.31911-.33427.4766-.17677l3.96102 3.96098c.1575.15749.0459.48633-.1768.48633h-1.0397c-.33 0-.6467.13052-.8808.36307l-1.4812 1.47097c-.2363.23466-.36914.55391-.36914.88692v2.05347c0 .4008-.48444.6016-.76801.3184z" fill="#00a008" fill-rule="evenodd"/></svg>