<svg fill="none" height="20" viewBox="0 0 20 20" width="20" xmlns="http://www.w3.org/2000/svg"><path clip-rule="evenodd" d="m5.88713 5.99714c-2.00518 0-3.00877 2.42491-1.59003 3.84194l2.4005 2.39762-4.70642 4.7064c-.29287.2929-.29287.7677 0 1.0606.29286.2928.76768.2928 1.06054 0l4.70707-4.7071 2.40771 2.4048c1.4178 1.4161 3.8401.412 3.8401-1.5919v-2.2729c0-.0666.0265-.1304.0738-.1774l1.5976-1.5866c.0468-.0465.1101-.0726.1761-.0726h1.1969c1.7373 0 2.6073-2.21461 1.3789-3.44305l-4.9832-4.98311c-1.2284-1.228435-3.4467-.35841-3.4467 1.37885v1.1827c0 .06601-.02606.12934-.07257.17617l-1.60073 1.61174c-.04694.04725-.11078.07383-.17738.07383zm-.53001 2.78064c-.47291-.47234-.13839-1.28064.53001-1.28064l2.26219-.00001c.4662 0 .91314-.18603 1.24167-.51681l1.60071-1.61174c.3256-.32784.5083-.77114.5083-1.23319v-1.1827c0-.40091.6026-.60168.8861-.31819l4.9831 4.98311c.2835.28348.0827.88239-.3182.88239h-1.1969c-.462 0-.9053.18272-1.2331.5083l-1.5976 1.5866c-.3308.3285-.5168.7755-.5168 1.2417v2.2729c0 .6679-.8075 1.0027-1.2801.5306z" fill="#00a008" fill-rule="evenodd"/></svg>