<svg fill="none" height="24" viewBox="0 0 24 24" width="24" xmlns="http://www.w3.org/2000/svg"><path clip-rule="evenodd" d="m6.73381 8.00547c-2.22799 0-3.34308 2.69433-1.7667 4.26883l2.84797 2.8445-4.81479 4.8148c-.29335.2934-.29335.769 0 1.0624.29335.2933.76896.2933 1.06231 0l4.81544-4.8155 2.86296 2.8595c1.5753 1.5735 4.2667.4577 4.2667-1.7688v-2.7837c0-.0706.0299-.1379.0822-.1853l1.9203-1.7375c.0459-.0415.1057-.0646.1677-.0646h1.4589c1.9161-.0001 2.875-2.3172 1.5193-3.67121l-5.9867-5.97948c-1.3549-1.35315-3.6694-.39361-3.6694 1.52121v1.44966c0 .06178-.0229.12136-.0642.16727l-1.74227 1.93519c-.04741.05266-.11494.08273-.18579.08273zm-.70668 3.20753c-.63055-.6298-.18452-1.70753.70668-1.70753h2.77393c.49596 0 .96866-.21047 1.30056-.57909l1.7423-1.93519c.2893-.32137.4494-.73848.4494-1.17091v-1.44966c0-.5789.6997-.86899 1.1093-.4599l5.9868 5.97947c.4099.40941.12 1.10991-.4593 1.10991h-1.4589c-.4339 0-.8524.1612-1.1741.4524l-1.9202 1.7374c-.3667.3317-.5759.8032-.5759 1.2976v2.7837c0 .8906-1.0766 1.3369-1.7067.7075z" fill="#00a008" fill-rule="evenodd"/></svg>