<svg fill="none" height="16" viewBox="0 0 16 16" width="16" xmlns="http://www.w3.org/2000/svg"><g clip-rule="evenodd" fill="#00a008" fill-rule="evenodd"><path d="m7.51502 11.4127 3.21508-2.0668c.9797-.62982.9797-2.06195 0-2.69177l-3.21508-2.06683c-1.06482-.68453-2.46522.08001-2.46522 1.34588v4.13362c0 1.2659 1.4004 2.0305 2.46522 1.3459zm-.96522-5.47952c0-.07911.08753-.1269.15408-.08411l3.21507 2.06683c.06124.03936.06124.12887 0 .16823l-3.21507 2.06687c-.06655.0428-.15408-.005-.15408-.0841z"/><path d="m1.5 5.25c0-2.07107 1.67893-3.75 3.75-3.75h5.5c2.0711 0 3.75 1.67893 3.75 3.75v5.5c0 2.0711-1.6789 3.75-3.75 3.75h-5.5c-2.07107 0-3.75-1.6789-3.75-3.75zm3.75-2.25c-1.24264 0-2.25 1.00736-2.25 2.25v5.5c0 1.2426 1.00736 2.25 2.25 2.25h5.5c1.2426 0 2.25-1.0074 2.25-2.25v-5.5c0-1.24264-1.0074-2.25-2.25-2.25z"/></g></svg>