<svg fill="none" height="20" viewBox="0 0 20 20" width="20" xmlns="http://www.w3.org/2000/svg"><g clip-rule="evenodd" fill="#00a008" fill-rule="evenodd"><path d="m9.94788 13.6091 3.03222-2.0846c1.0692-.7351 1.0692-2.31387 0-3.04896l-3.03222-2.08464c-1.22747-.84389-2.89808.03489-2.89808 1.52447v4.16933c0 1.4895 1.6706 2.3683 2.89808 1.5244zm-1.39808-5.69373c0-.28181.31606-.44807.54829-.28841l3.03221 2.08464c.2023.13907.2023.4378 0 .5768l-3.03221 2.0847c-.23223.1596-.54829-.0066-.54829-.2884z"/><path d="m2 6.5c0-2.48528 2.01472-4.5 4.5-4.5h7c2.4853 0 4.5 2.01472 4.5 4.5v7c0 2.4853-2.0147 4.5-4.5 4.5h-7c-2.48528 0-4.5-2.0147-4.5-4.5zm4.5-3c-1.65685 0-3 1.34315-3 3v7c0 1.6569 1.34315 3 3 3h7c1.6569 0 3-1.3431 3-3v-7c0-1.65685-1.3431-3-3-3z"/></g></svg>