<svg fill="none" height="24" viewBox="0 0 24 24" width="24" xmlns="http://www.w3.org/2000/svg"><g clip-rule="evenodd" fill="#00a008" fill-rule="evenodd"><path d="m11.4292 16.5741 4.319-2.6579c1.4277-.8786 1.4277-2.9538 0-3.8324l-4.319-2.65786c-1.49909-.92252-3.4292.15601-3.4292 1.91623v5.31563c0 1.7602 1.93011 2.8388 3.4292 1.9163zm3.5328-5.2128c.4759.2928.4759.9846 0 1.2774l-4.3189 2.6579c-.4997.3075-1.1431-.052-1.1431-.6388v-5.31563c0-.58674.6434-.94625 1.1431-.63874z"/><path d="m2.5 7.75c0-2.8995 2.35051-5.25 5.25-5.25h8.5c2.8995 0 5.25 2.35051 5.25 5.25v8.5c0 2.8995-2.3505 5.25-5.25 5.25h-8.5c-2.8995 0-5.25-2.3505-5.25-5.25zm5.25-3.75c-2.07107 0-3.75 1.67893-3.75 3.75v8.5c0 2.0711 1.67893 3.75 3.75 3.75h8.5c2.0711 0 3.75-1.6789 3.75-3.75v-8.5c0-2.07107-1.6789-3.75-3.75-3.75z"/></g></svg>