<svg fill="none" height="16" viewBox="0 0 16 16" width="16" xmlns="http://www.w3.org/2000/svg"><path clip-rule="evenodd" d="m3.27654 2.2446c3.0963-.99278 6.35098-.99282 9.44726 0 .9656.30974 1.7026 1.26303 1.8984 2.45605l.087.53223c.3877 2.36253.3877 3.17092 0 5.53322l-.087.5332c-.1958 1.193-.9328 2.1463-1.8984 2.456-3.09628.9929-6.35096.9928-9.44726 0-.9657-.3096-1.7026-1.2629-1.89843-2.456l-.08692-.5332c-.387735-2.36237-.387796-3.17063 0-5.53322l.08692-.53223c.19583-1.1931.93275-2.14637 1.89843-2.45605zm4.42383 3.61621c-.53318-.31667-1.19984.07958-1.20019.71289v2.85156c.00008.63354.66689 1.02964 1.20019.71294l2.39943-1.42583c.533-.31693.5332-1.10902 0-1.42578z" fill="#00a008" fill-rule="evenodd"/></svg>