<svg fill="none" height="20" viewBox="0 0 20 20" width="20" xmlns="http://www.w3.org/2000/svg"><path clip-rule="evenodd" d="m3.9268 2.91646c3.98099-1.22195 8.1655-1.22195 12.1465 0 1.2415.38117 2.1886 1.55407 2.4404 3.02246l.1123.65528c.4986 2.90792.4986 3.9028 0 6.8105l-.1123.6563c-.2518 1.4684-1.1989 2.6413-2.4404 3.0225-3.981 1.2219-8.16551 1.2219-12.1465 0-1.2416-.3812-2.18864-1.5541-2.44043-3.0225l-.1123-.6563c-.49857-2.9077-.498622-3.90257 0-6.8105l.1123-.65528c.25179-1.46842 1.19884-2.64132 2.44043-3.02246zm5.62207 4.23145c-.66641-.42211-1.49942.10593-1.5.95019v3.8027c.00032.8446.83346 1.3726 1.5.9502l3.00003-1.9013c.666-.4226.6662-1.47798 0-1.90042z" fill="#00a008" fill-rule="evenodd"/></svg>