<svg fill="none" height="24" viewBox="0 0 24 24" width="24" xmlns="http://www.w3.org/2000/svg"><path clip-rule="evenodd" d="m5.25244 4.03145c4.42318-1.37462 9.07196-1.37461 13.49516 0 1.3794.42872 2.432 1.74756 2.7119 3.39941l.125.73828c.554 3.27146.554 4.39056 0 7.66216l-.125.7373c-.2798 1.652-1.3324 2.9716-2.7119 3.4003-4.4232 1.3746-9.07206 1.3746-13.49516 0-1.37959-.4287-2.43215-1.7483-2.71192-3.4003l-.125-.7373c-.55404-3.2716-.55402-4.3907 0-7.66216l.125-.73828c.27986-1.65185 1.33243-2.97069 2.71192-3.39941zm5.94336 4.16699c-.9755-.56323-2.19532.14112-2.19532 1.26758v5.06838c.00021 1.1263 1.21982 1.8307 2.19532 1.2676l4.3896-2.5342c.9752-.5632.975-1.9718 0-2.5352z" fill="#00a008" fill-rule="evenodd"/></svg>