<svg fill="none" height="16" viewBox="0 0 16 16" width="16" xmlns="http://www.w3.org/2000/svg"><path clip-rule="evenodd" d="m6 6h-3c-.27614 0-.5.22386-.5.5v3c0 .27614.22386.5.5.5h3v3c0 .2761.22386.5.5.5h3c.27614 0 .5-.2239.5-.5v-3h3c.2761 0 .5-.22386.5-.5v-3c0-.27614-.2239-.5-.5-.5h-3v-3c0-.27614-.22386-.5-.5-.5h-3c-.27614 0-.5.22386-.5.5zm-5 3.5c0 1.1046.89543 2 2 2h1.5v1.5c0 1.1046.89543 2 2 2h3c1.1046 0 2-.8954 2-2v-1.5h1.5c1.1046 0 2-.8954 2-2v-3c0-1.10457-.8954-2-2-2h-1.5v-1.5c0-1.10457-.8954-2-2-2h-3c-1.10457 0-2 .89543-2 2v1.5h-1.5c-1.10457 0-2 .89543-2 2z" fill="#00a008" fill-rule="evenodd"/></svg>