<svg fill="none" height="20" viewBox="0 0 20 20" width="20" xmlns="http://www.w3.org/2000/svg"><path clip-rule="evenodd" d="m6 4.25c0-1.24264 1.00736-2.25 2.25-2.25h3.5c1.2426 0 2.25 1.00736 2.25 2.25v1.75h1.7549c1.2426 0 2.25 1.00736 2.25 2.25v3.5c0 1.2426-1.0074 2.25-2.25 2.25h-1.7549v1.75c0 1.2426-1.0074 2.25-2.25 2.25h-3.5c-1.24264 0-2.25-1.0074-2.25-2.25v-1.75h-1.74512c-1.24264 0-2.25-1.0074-2.25-2.25v-3.5c0-1.24264 1.00736-2.25 2.25-2.25h1.74512zm2.25-.75c-.41421 0-.75.33579-.75.75v2.3c0 .52467-.42533.95-.95.95h-2.29512c-.41421 0-.75.33579-.75.75v3.5c0 .4142.33579.75.75.75h2.29512c.52467 0 .95.4253.95.95v2.3c0 .4142.33579.75.75.75h3.5c.4142 0 .75-.3358.75-.75v-2.3c0-.5247.4253-.95.95-.95h2.3049c.4142 0 .75-.3358.75-.75v-3.5c0-.41421-.3358-.75-.75-.75h-2.3049c-.5247 0-.95-.42533-.95-.95v-2.3c0-.41421-.3358-.75-.75-.75z" fill="#00a008" fill-rule="evenodd"/></svg>