<svg fill="none" height="24" viewBox="0 0 24 24" width="24" xmlns="http://www.w3.org/2000/svg"><path clip-rule="evenodd" d="m10.25 4c-.69036 0-1.25.55964-1.25 1.25v2.8c0 .52467-.42533.95-.95.95h-2.8c-.69036 0-1.25.55964-1.25 1.25v3.5c0 .6904.55964 1.25 1.25 1.25h2.8c.52467 0 .95.4253.95.95v2.8c0 .6904.55964 1.25 1.25 1.25h3.5c.6904 0 1.25-.5596 1.25-1.25v-2.8c0-.5247.4253-.95.95-.95h2.8c.6904 0 1.25-.5596 1.25-1.25v-3.5c0-.69036-.5596-1.25-1.25-1.25h-2.8c-.5247 0-.95-.42533-.95-.95v-2.8c0-.69036-.5596-1.25-1.25-1.25zm-2.75 1.25c0-1.51878 1.23122-2.75 2.75-2.75h3.5c1.5188 0 2.75 1.23122 2.75 2.75v2.25h2.25c1.5188 0 2.75 1.23122 2.75 2.75v3.5c0 1.5188-1.2312 2.75-2.75 2.75h-2.25v2.25c0 1.5188-1.2312 2.75-2.75 2.75h-3.5c-1.51878 0-2.75-1.2312-2.75-2.75v-2.25h-2.25c-1.51878 0-2.75-1.2312-2.75-2.75v-3.5c0-1.51878 1.23122-2.75 2.75-2.75h2.25z" fill="#00a008" fill-rule="evenodd"/></svg>