<svg fill="none" height="16" viewBox="0 0 16 16" width="16" xmlns="http://www.w3.org/2000/svg"><g fill="#00a008"><path clip-rule="evenodd" d="m3 3.75c0-1.51878 1.23122-2.75 2.75-2.75h4.5c1.5188 0 2.75 1.23122 2.75 2.75 0 .41421-.3358.75-.75.75s-.75-.33579-.75-.75c0-.69036-.5596-1.25-1.25-1.25h-4.5c-.12358 0-.24298.01793-.35572.05134l1.5298 1.06026c.67388.46705 1.07592 1.23484 1.07592 2.05475v6.83365h2.25c.5234 0 .9734-.3219 1.1594-.7814.1554-.384.5927-.5692.9766-.4138.384.1554.5692.5927.4138.9766-.4074 1.0064-1.3945 1.7186-2.5498 1.7186h-2.25c-.00628 0-.01255-.0001-.01879-.0002-.15186.8774-1.1925 1.3424-1.95776.7958l-1.45309-1.0379c-.98549-.704-1.57036-1.8405-1.57036-3.0515zm1.5 6.9562c0 .7266.35092 1.4085.94221 1.8309l1.05779.7555v-7.62625c0-.32796-.16081-.63508-.43037-.8219l-1.56963-1.08786z" fill-rule="evenodd"/><path d="m15 7.75004c0-.19891-.079-.38968-.2197-.53033l-1.7196-1.71971c-.2929-.29289-.7678-.29289-1.0607 0-.2929.2929-.2929.76777 0 1.06066l.4393.43938h-2.6893c-.41421 0-.75.33578-.75.75 0 .41421.33579.75.75.75h2.6893l-.4393.43932c-.2929.29289-.2929.76776 0 1.06064.2929.2929.7678.2929 1.0607 0l1.7196-1.71963.0112-.01142c.1291-.13473.2085-.31755.2085-.51891z"/></g></svg>