<svg fill="none" height="20" viewBox="0 0 20 20" width="20" xmlns="http://www.w3.org/2000/svg"><g fill="#00a008"><path clip-rule="evenodd" d="m3 4.25c0-1.79493 1.45507-3.25 3.25-3.25h6.5c1.7949 0 3.25 1.45507 3.25 3.25v.25c0 .41421-.3358.75-.75.75s-.75-.33579-.75-.75v-.25c0-.9665-.7835-1.75-1.75-1.75h-6.03651l2.26229.9213c1.22392.49844 2.02422 1.68841 2.02422 3.00997v10.06873h1.75c.9665 0 1.75-.7835 1.75-1.75v-.25c0-.4142.3358-.75.75-.75s.75.3358.75.75v.25c0 1.7949-1.4551 3.25-3.25 3.25h-1.75v.0778c0 1.0947-1.13466 1.8207-2.12859 1.362l-3.69288-1.7044c-1.32806-.613-2.17853-1.9422-2.17853-3.4049zm1.5 10.0805c0 .8776.51028 1.6752 1.30712 2.0429l3.69288 1.7044v-11.64653c0-.71161-.43091-1.35236-1.08996-1.62075l-3.64626-1.4849c-.16719.26823-.26378.58503-.26378.92438z" fill-rule="evenodd"/><path d="m19 9.75002c0-.19891-.079-.38967-.2197-.53032l-2.2196-2.2197c-.2929-.29289-.7678-.29289-1.0607 0-.2929.2929-.2929.76777 0 1.06066l.9393.93936h-2.6893c-.4142 0-.75.33579-.75.75 0 .41418.3358.74998.75.74998h2.6893l-.9393.9393c-.2929.2929-.2929.7678 0 1.0607s.7678.2929 1.0607 0l2.2196-2.2196.0112-.0115c.1291-.1347.2085-.31752.2085-.51888z"/></g></svg>