<svg fill="none" height="24" viewBox="0 0 24 24" width="24" xmlns="http://www.w3.org/2000/svg"><g fill="#00a008"><path clip-rule="evenodd" d="m5.41059 2.81901c.64133-.51256 1.45458-.81901 2.33941-.81901h7.5c2.0711 0 3.75 1.67893 3.75 3.75v.5c0 .41421-.3358.75-.75.75s-.75-.33579-.75-.75v-.5c0-1.24264-1.0074-2.25-2.25-2.25h-7.5c-.15915 0-.31444.01652-.46425.04795l2.86555 1.68563c1.1454.67376 1.8487 1.90339 1.8487 3.23226v11.03416h3.25c1.2426 0 2.25-1.0074 2.25-2.25v-.5c0-.4142.3358-.75.75-.75s.75.3358.75.75v.5c0 2.0711-1.6789 3.75-3.75 3.75h-3.25v.4604c0 1.3691-1.5012 2.208-2.66717 1.4904l-3.5482-2.1835c-1.10905-.6825-1.78463-1.8915-1.78463-3.1937v-11.8236c0-1.02651.41245-1.95669 1.08067-2.63386.0805-.13516.19693-.23588.32992-.29713zm.48741 1.65289c-.25098.363-.398.80338-.398 1.2781v11.8236c0 .7813.40535 1.5067 1.07078 1.9162l3.54822 2.1835c.1665.1026.381-.0173.381-.2129v-12.99456c0-.79732-.422-1.5351-1.1092-1.93936z" fill-rule="evenodd"/><path d="m21 11.75c0-.1989-.079-.3897-.2197-.5303l-2.4696-2.4697c-.2929-.29289-.7678-.29289-1.0607 0-.2929.2929-.2929.76777 0 1.06066l1.1893 1.18934h-3.6893c-.4142 0-.75.3358-.75.75s.3358.75.75.75h3.6893l-1.1893 1.1893c-.2929.2929-.2929.7678 0 1.0607s.7678.2929 1.0607 0l2.4696-2.4697.0112-.0114c.1291-.1347.2085-.3175.2085-.5189z"/></g></svg>