<svg fill="none" height="16" viewBox="0 0 16 16" width="16" xmlns="http://www.w3.org/2000/svg"><path clip-rule="evenodd" d="m13.9073 4.80104c.4911-1.65749-1.0508-3.19947-2.7083-2.70836l-8.9288 2.64556c-1.489995.44148-1.732163 2.44963-.38982 3.23266l3.73365 2.178c.09816.0572.17984.1389.23711.2371l2.17796 3.7336c.78303 1.3424 2.7912 1.1002 3.2327-.3898zm-2.2764-1.25071c.5011-.14847.9672.31771.8188.81881l-2.64559 8.92876c-.06307.2129-.34995.2475-.46181.0557l-2.07085-3.55004 2.11946-2.11946c.29686-.29686.29686-.77816 0-1.07501-.29685-.29686-.77815-.29686-1.07501 0l-2.11946 2.11946-3.55003-2.07085c-.19176-.11186-.15717-.39874.05569-.46181z" fill="#00a008" fill-rule="evenodd"/></svg>