<svg fill="none" height="20" viewBox="0 0 20 20" width="20" xmlns="http://www.w3.org/2000/svg"><path clip-rule="evenodd" d="m18.2284 4.95552c.5969-1.9534-1.2305-3.78072-3.1839-3.18385l-11.93639 3.64724c-1.73512.53018-2.07394 2.83866-.56433 3.84506l4.91538 3.27693 3.27694 4.9154c1.0064 1.5096 3.3149 1.1708 3.8451-.5644zm-2.7455-1.74932c.8043-.24577 1.5567.50666 1.311 1.311l-3.6473 11.9364c-.1603.5246-.8582.627-1.1624.1706l-3.01911-4.5286 3.06521-3.0652c.2929-.2929.2929-.76777 0-1.06066-.2929-.2929-.7677-.2929-1.0606 0l-3.06527 3.06526-4.5286-3.0191c-.45639-.30426-.35396-1.00217.17061-1.16246z" fill="#00a008" fill-rule="evenodd"/></svg>