<svg fill="none" height="24" viewBox="0 0 24 24" width="24" xmlns="http://www.w3.org/2000/svg"><path clip-rule="evenodd" d="m20.9458 6.16715c.4941-1.88658-1.2262-3.60697-3.1128-3.11287l-13.94561 3.65242c-2.17183.56881-2.60183 3.4638-.6891 4.6393l5.56159 3.418c.19387.1192.35698.2823.47613.4762l3.41809 5.5617c1.1755 1.9127 4.0705 1.4827 4.6393-.6891zm-2.7328-1.66181c.7768-.20346 1.4852.50494 1.2818 1.28177l-3.6524 13.94559c-.2343.8943-1.4263 1.0714-1.9103.2838l-3.3832-5.505 3.4814-3.481c.2929-.2929.2929-.7678.0001-1.06068-.2929-.29291-.7678-.29294-1.0607-.00006l-3.48158 3.48114-5.50444-3.3828c-.78759-.48407-.61053-1.67613.28375-1.91034z" fill="#00a008" fill-rule="evenodd"/></svg>