<svg fill="none" height="16" viewBox="0 0 16 16" width="16" xmlns="http://www.w3.org/2000/svg"><g fill="#00a008"><path clip-rule="evenodd" d="m5.8 1.5h-2.6c-.93888 0-1.7.76112-1.7 1.7v2.6c0 .93888.76112 1.7 1.7 1.7h2.6c.93888 0 1.7-.76112 1.7-1.7v-2.6c0-.93888-.76112-1.7-1.7-1.7zm-2.8 1.7c0-.11046.08954-.2.2-.2h2.6c.11046 0 .2.08954.2.2v2.6c0 .11046-.08954.2-.2.2h-2.6c-.11046 0-.2-.08954-.2-.2z" fill-rule="evenodd"/><path clip-rule="evenodd" d="m5.8 8.5h-2.6c-.93888 0-1.7.76112-1.7 1.7v2.6c0 .9389.76112 1.7 1.7 1.7h2.6c.93888 0 1.7-.7611 1.7-1.7v-2.6c0-.93888-.76112-1.7-1.7-1.7zm-2.8 1.7c0-.1105.08954-.2.2-.2h2.6c.11046 0 .2.0895.2.2v2.6c0 .1105-.08954.2-.2.2h-2.6c-.11046 0-.2-.0895-.2-.2z" fill-rule="evenodd"/><path d="m9 2.75c0-.41421.33579-.75.75-.75h4.5c.4142 0 .75.33579.75.75s-.3358.75-.75.75h-4.5c-.41421 0-.75-.33579-.75-.75z"/><path d="m9.75 5c-.41421 0-.75.33579-.75.75s.33579.75.75.75h4.5c.4142 0 .75-.33579.75-.75s-.3358-.75-.75-.75z"/><path d="m9 9.75c0-.41421.33579-.75.75-.75h4.5c.4142 0 .75.33579.75.75 0 .4142-.3358.75-.75.75h-4.5c-.41421 0-.75-.3358-.75-.75z"/><path d="m9.75 12c-.41421 0-.75.3358-.75.75s.33579.75.75.75h4.5c.4142 0 .75-.3358.75-.75s-.3358-.75-.75-.75z"/></g></svg>