<svg fill="none" height="20" viewBox="0 0 20 20" width="20" xmlns="http://www.w3.org/2000/svg"><g fill="#00a008"><path clip-rule="evenodd" d="m6.9 2h-2.8c-1.1598 0-2.1.9402-2.1 2.1v2.8c0 1.1598.9402 2.1 2.1 2.1h2.8c1.1598 0 2.1-.9402 2.1-2.1v-2.8c0-1.1598-.9402-2.1-2.1-2.1zm-3.4 2.1c0-.33137.26863-.6.6-.6h2.8c.33137 0 .6.26863.6.6v2.8c0 .33137-.26863.6-.6.6h-2.8c-.33137 0-.6-.26863-.6-.6z" fill-rule="evenodd"/><path clip-rule="evenodd" d="m6.9 11h-2.8c-1.1598 0-2.1.9402-2.1 2.1v2.8c0 1.1598.9402 2.1 2.1 2.1h2.8c1.1598 0 2.1-.9402 2.1-2.1v-2.8c0-1.1598-.9402-2.1-2.1-2.1zm-3.4 2.1c0-.3314.26863-.6.6-.6h2.8c.33137 0 .6.2686.6.6v2.8c0 .3314-.26863.6-.6.6h-2.8c-.33137 0-.6-.2686-.6-.6z" fill-rule="evenodd"/><path d="m11 3.75c0-.41421.3358-.75.75-.75h5.5c.4142 0 .75.33579.75.75s-.3358.75-.75.75h-5.5c-.4142 0-.75-.33579-.75-.75z"/><path d="m11.75 6.5c-.4142 0-.75.33579-.75.75s.3358.75.75.75h5.5c.4142 0 .75-.33579.75-.75s-.3358-.75-.75-.75z"/><path d="m11 12.75c0-.4142.3358-.75.75-.75h5.5c.4142 0 .75.3358.75.75s-.3358.75-.75.75h-5.5c-.4142 0-.75-.3358-.75-.75z"/><path d="m11.75 15.5c-.4142 0-.75.3358-.75.75s.3358.75.75.75h5.5c.4142 0 .75-.3358.75-.75s-.3358-.75-.75-.75z"/></g></svg>