<svg fill="none" height="24" viewBox="0 0 24 24" width="24" xmlns="http://www.w3.org/2000/svg"><g fill="#00a008"><path clip-rule="evenodd" d="m8.4 2.5h-3.8c-1.1598 0-2.1.9402-2.1 2.1v3.8c0 1.1598.9402 2.1 2.1 2.1h3.8c1.1598 0 2.1-.9402 2.1-2.1v-3.8c0-1.1598-.9402-2.1-2.1-2.1zm-4.4 2.1c0-.33137.26863-.6.6-.6h3.8c.33137 0 .6.26863.6.6v3.8c0 .33137-.26863.6-.6.6h-3.8c-.33137 0-.6-.26863-.6-.6z" fill-rule="evenodd"/><path clip-rule="evenodd" d="m8.4 12.5h-3.8c-1.1598 0-2.1.9402-2.1 2.1v3.8c0 1.1598.9402 2.1 2.1 2.1h3.8c1.1598 0 2.1-.9402 2.1-2.1v-3.8c0-1.1598-.9402-2.1-2.1-2.1zm-4.4 2.1c0-.3314.26863-.6.6-.6h3.8c.33137 0 .6.2686.6.6v3.8c0 .3314-.26863.6-.6.6h-3.8c-.33137 0-.6-.2686-.6-.6z" fill-rule="evenodd"/><path d="m12 4.75c0-.41421.3358-.75.75-.75h7.5c.4142 0 .75.33579.75.75s-.3358.75-.75.75h-7.5c-.4142 0-.75-.33579-.75-.75z"/><path d="m12.75 7.5c-.4142 0-.75.33579-.75.75s.3358.75.75.75h7.5c.4142 0 .75-.33579.75-.75s-.3358-.75-.75-.75z"/><path d="m12 14.75c0-.4142.3358-.75.75-.75h7.5c.4142 0 .75.3358.75.75s-.3358.75-.75.75h-7.5c-.4142 0-.75-.3358-.75-.75z"/><path d="m12.75 17.5c-.4142 0-.75.3358-.75.75s.3358.75.75.75h7.5c.4142 0 .75-.3358.75-.75s-.3358-.75-.75-.75z"/></g></svg>