<svg fill="none" height="16" viewBox="0 0 16 16" width="16" xmlns="http://www.w3.org/2000/svg"><path clip-rule="evenodd" d="m12.9344 10.4332c-.3057.0442-.6178.0669-.9344.0669-3.58985 0-6.5-2.91015-6.5-6.5 0-.31662.02275-.62866.06685-.93437-1.81794.8982-3.06685 2.7719-3.06685 4.93437 0 3.0376 2.46243 5.5 5.5 5.5 2.1625 0 4.0362-1.2489 4.9344-3.0669zm-7.24776-7.99137c.00004-.00001.00024.00066.00049.00202zm7.51746 6.41234c.8003-.19787 1.7455.33073 1.5132 1.12173-.8528 2.9039-3.5374 5.0242-6.7173 5.0242-3.86599 0-7-3.134-7-7 0-3.17986 2.12028-5.8645 5.0242-6.71727.791-.23229 1.3196.71288 1.12174 1.51319-.09535.38566-.14594.78896-.14594 1.20408 0 2.76143 2.23857 5 5 5 .4151 0 .8184-.05059 1.2041-.14593z" fill="#00a008" fill-rule="evenodd"/></svg>