<svg fill="none" height="20" viewBox="0 0 20 20" width="20" xmlns="http://www.w3.org/2000/svg"><path clip-rule="evenodd" d="m16.1047 13.4286c-.3621.047-.7309.0713-1.1047.0713-4.6944 0-8.5-3.80562-8.5-8.50004 0-.37376.02421-.74246.07128-1.10451-2.13309 1.20074-3.57128 3.48616-3.57128 6.10462 0 3.86603 3.13401 7.00003 7 7.00003 2.6185 0 4.904-1.4383 6.1047-3.5714zm.4698-1.6065c.8023-.1844 1.6617.4436 1.3678 1.2126-1.2219 3.1957-4.317 5.4653-7.9423 5.4653-4.69442 0-8.5-3.8056-8.5-8.50003 0-3.62519 2.26944-6.72033 5.46511-7.94219.76893-.294 1.39702.56546 1.21263 1.36777-.1163.50602-.17774 1.03299-.17774 1.57431 0 3.866 3.134 7.00004 7 7.00004.5414 0 1.0684-.0615 1.5745-.1778z" fill="#00a008" fill-rule="evenodd"/></svg>