<svg fill="none" height="24" viewBox="0 0 24 24" width="24" xmlns="http://www.w3.org/2000/svg"><path clip-rule="evenodd" d="m20.2086 15.0364c-.7848.2197-1.6113.337-2.4632.337-5.0362 0-9.11877-4.0826-9.11877-9.11875 0-.85191.11722-1.67841.33699-2.46327-3.20146 1.27144-5.46362 4.39831-5.46362 8.05032 0 4.7819 3.87645 8.6583 8.6583 8.6583 3.652 0 6.7789-2.2622 8.0503-5.4636zm.2043-1.6431c.8056-.3012 1.7783.2683 1.5545 1.0987-1.1657 4.3251-5.1157 7.508-9.8091 7.508-5.61028 0-10.1583-4.548-10.1583-10.1583 0-4.69338 3.18294-8.64336 7.50798-9.80908.83042-.22383 1.39992.74886 1.09872 1.55451-.3104.8302-.4801 1.72904-.4801 2.66752 0 4.20765 3.4111 7.61875 7.6188 7.61875.9384 0 1.8373-.1697 2.6675-.4801z" fill="#00a008" fill-rule="evenodd"/></svg>