<svg fill="none" height="16" viewBox="0 0 16 16" width="16" xmlns="http://www.w3.org/2000/svg" xmlns:xlink="http://www.w3.org/1999/xlink"><clipPath id="a"><path d="m0 0h16v16h-16z"/></clipPath><g clip-path="url(#a)"><path clip-rule="evenodd" d="m2.5032 5.59911c-.00228.04997-.00343.10028-.00343.15092 0 1.79493 1.45508 3.25 3.25 3.25.28016 0 .55099-.03528.80877-.10124.58641-.15008 1.32738-.07313 1.85697.45646l3.66779 3.66775c.2929.2929.7677.2929 1.0606 0s.2929-.7678 0-1.0607l-3.74061-3.74059c-.50776-.50776-.59951-1.2128-.47665-1.78215.04781-.22158.07313-.45217.07313-.68953 0-1.77015-1.41517-3.20976-3.17585-3.24917.00924.02089.02444.04485.0489.0693l1.06404 1.06404c.68342.68342.68342 1.79146 0 2.47488l-.70711.7071c-.68342.68342-1.79145.68342-2.47487 0l-1.15953-1.15953c-.03374-.03373-.06643-.05-.09215-.05754zm-.41077-1.46118c.5399-.13342 1.13803.03251 1.56358.45806l1.15953 1.15953c.09763.09763.25592.09763.35355 0l.70711-.7071c.09763-.09764.09763-.25593 0-.35356l-1.06404-1.06404c-.43503-.43502-.5973-1.04837-.44677-1.59445.16073-.5831.67247-1.03634 1.38438-1.03634 2.62335 0 4.75003 2.12665 4.75003 4.75 0 .34438-.0368.68103-.1069 1.00592-.0456.21107.0143.34833.0711.4051l3.7406 3.74065c.8787.8787.8787 2.3033 0 3.182-.8787.8786-2.3033.8786-3.182 0l-3.66775-3.6678c-.05892-.0589-.20456-.1202-.42443-.0639-.37827.0968-.77402.148-1.18065.148-2.62335 0-4.749999-2.12662-4.75-4.74997 0-.09948.00307-.19835.00913-.2965.04297-.69606.51045-1.17398 1.08353-1.3156z" fill="#00a008" fill-rule="evenodd"/></g></svg>