<svg fill="none" height="20" viewBox="0 0 20 20" width="20" xmlns="http://www.w3.org/2000/svg"><path clip-rule="evenodd" d="m3.54694 6.67155c-.02894.18766-.04401.38032-.04401.57699 0 2.07106 1.67893 3.74996 3.75 3.74996.27377 0 .53987-.0292.79565-.0844.57117-.1233 1.262-.0197 1.75855.4768l4.59017 4.5902c.4881.4881 1.2796.4881 1.7677 0 .4882-.4882.4882-1.2796 0-1.7678l-4.7103-4.71034c-.4672-.46719-.5868-1.10961-.4993-1.65478.0312-.19481.0475-.39506.0475-.59964 0-2.07107-1.6789-3.75-3.74997-3.75-.12546 0-.24927.00613-.37116.01808.00299.02983.01727.07589.06419.12281l1.49419 1.49419c.68342.68342.68342 1.79146 0 2.47488l-.70711.7071c-.68341.68342-1.79145.68342-2.47487 0l-1.57921-1.5792c-.05065-.05065-.10161-.06362-.13202-.06485zm-.33628-1.46519c.53225-.11432 1.11299.0534 1.52896.46938l1.57921 1.5792c.09763.09764.25592.09763.35355 0l.70711-.7071c.09763-.09763.09763-.25592 0-.35356l-1.49419-1.49419c-.42567-.42567-.59048-1.02163-.46157-1.56118.13558-.56745.59637-1.04087 1.28088-1.11203.18045-.01875.36339-.02834.54832-.02834 2.89947 0 5.24997 2.3505 5.24997 5.25 0 .28447-.0227.56418-.0665.83728-.0292.18229.0251.30269.0789.35648l4.7104 4.7104c1.0739 1.0739 1.0739 2.8151 0 3.889-1.0739 1.074-2.8151 1.074-3.8891.0001l-4.59013-4.5902c-.0568-.0568-.18766-.1131-.38143-.0712-.35911.0775-.73129.1181-1.11211.1181-2.8995 0-5.25-2.3505-5.25-5.24996 0-.28072.0221-.5568.06479-.82646.10518-.66443.58541-1.09597 1.14294-1.21572z" fill="#00a008" fill-rule="evenodd"/></svg>