<svg fill="none" height="24" viewBox="0 0 24 24" width="24" xmlns="http://www.w3.org/2000/svg"><path clip-rule="evenodd" d="m3.63521 7.5693c-.0017.00326-.00449.01-.0072.022-.08369.37193-.12801.75945-.12801 1.15821 0 2.89949 2.35051 5.24999 5.25 5.24999.47586 0 .9358-.0631 1.3725-.181.5973-.1613 1.3077-.0505 1.8098.4516l4.9797 4.9797c.6835.6835 1.7915.6835 2.4749 0 .6834-.6834.6834-1.7914 0-2.4748l-5.0601-5.0602c-.4857-.4856-.6056-1.1681-.4676-1.75155.092-.38886.1408-.79511.1408-1.21374 0-2.89949-2.3505-5.25-5.25-5.25-.35465 0-.70035.03506-1.03408.10167-.01123.00224-.01795.00465-.02154.00627-.001.00222-.0024.00599-.00367.0118-.00721.03301-.00161.1029.06488.16939l2.84571 2.84573c.6834.68342.6834 1.79146 0 2.47487l-1.41419 1.41426c-.68342.6834-1.79146.6834-2.47487 0l-2.89361-2.89364c-.06547-.06548-.13511-.07216-.16927-.06508-.0075.00155-.01194.00339-.01415.00452zm.00164-.00255-.00096.00133zm4.05413-3.95737.00138-.00093zm-4.34584 2.48657c.5333-.11046 1.11472.05381 1.53415.47325l2.89361 2.8936c.09763.09763.25592.09763.35355 0l1.41421-1.41422c.09763-.09763.09763-.25592 0-.35355l-2.84573-2.84573c-.42421-.42421-.58695-1.01306-.46969-1.55006.12125-.55527.54402-1.03871 1.19709-1.16905.42987-.0858.87391-.13068 1.32767-.13068 3.7279 0 6.75 3.02208 6.75 6.75 0 .53574-.0626 1.05785-.1811 1.55899-.0391.1652.0102.2874.0685.3456l5.0602 5.0602c1.2692 1.2692 1.2692 3.327 0 4.5962s-3.327 1.2692-4.5962 0l-4.9798-4.9798c-.0601-.0601-.1879-.11-.3581-.0641-.56302.152-1.1544.2329-1.7635.2329-3.72792 0-6.75-3.0221-6.75-6.74999 0-.51029.05676-1.00822.1646-1.4875.14454-.64231.62977-1.05198 1.18054-1.16606z" fill="#00a008" fill-rule="evenodd"/></svg>