<svg fill="none" height="16" viewBox="0 0 16 16" width="16" xmlns="http://www.w3.org/2000/svg"><g fill="#00a008"><path d="m11.0303 7.03033c.2929-.29289.2929-.76777 0-1.06066s-.7677-.29289-1.06063 0l-2.46967 2.46967-.96967-.96967c-.29289-.29289-.76777-.29289-1.06066 0s-.29289.76777 0 1.06066l1.35858 1.35858c.371.37099.9725.37099 1.3435 0z"/><path clip-rule="evenodd" d="m8 1c-3.86599 0-7 3.13401-7 7 0 3.866 3.13401 7 7 7 3.866 0 7-3.134 7-7 0-3.86599-3.134-7-7-7zm-5.5 7c0-3.03757 2.46243-5.5 5.5-5.5 3.0376 0 5.5 2.46243 5.5 5.5 0 3.0376-2.4624 5.5-5.5 5.5-3.03757 0-5.5-2.4624-5.5-5.5z" fill-rule="evenodd"/></g></svg>