<svg fill="none" height="20" viewBox="0 0 20 20" width="20" xmlns="http://www.w3.org/2000/svg"><g fill="#00a008"><path d="m14.5303 8.53033c.2929-.29289.2929-.76777 0-1.06066s-.7677-.29289-1.0606 0l-3.9697 3.96963-1.96967-1.96963c-.29289-.29289-.76777-.29289-1.06066 0s-.29289.76773 0 1.06063l2.35858 2.3586c.371.371.9725.371 1.34355 0z"/><path clip-rule="evenodd" d="m10 1.5c-4.69442 0-8.5 3.80558-8.5 8.5 0 4.6944 3.80558 8.5 8.5 8.5 4.6944 0 8.5-3.8056 8.5-8.5 0-4.69442-3.8056-8.5-8.5-8.5zm-7 8.5c0-3.86599 3.13401-7 7-7 3.866 0 7 3.13401 7 7 0 3.866-3.134 7-7 7-3.86599 0-7-3.134-7-7z" fill-rule="evenodd"/></g></svg>