<svg fill="none" height="24" viewBox="0 0 24 24" width="24" xmlns="http://www.w3.org/2000/svg"><g fill="#00a008"><path d="m17.0303 10.0303c.2929-.29286.2929-.76774 0-1.06063s-.7677-.29289-1.0606 0l-4.9697 4.96963-2.46967-2.4696c-.29289-.2929-.76777-.2929-1.06066 0s-.29289.7677 0 1.0606l2.85853 2.8586c.371.371.9726.371 1.3436 0z"/><path clip-rule="evenodd" d="m12 2c-5.52285 0-10 4.47715-10 10 0 5.5228 4.47715 10 10 10 5.5228 0 10-4.4772 10-10 0-5.52285-4.4772-10-10-10zm-8.5 10c0-4.69442 3.80558-8.5 8.5-8.5 4.6944 0 8.5 3.80558 8.5 8.5 0 4.6944-3.8056 8.5-8.5 8.5-4.69442 0-8.5-3.8056-8.5-8.5z" fill-rule="evenodd"/></g></svg>