<svg fill="none" height="16" viewBox="0 0 16 16" width="16" xmlns="http://www.w3.org/2000/svg" xmlns:xlink="http://www.w3.org/1999/xlink"><clipPath id="a"><path d="m0 0h16v16h-16z"/></clipPath><g clip-path="url(#a)" fill="#00a008"><path d="m7.25 8c.41421 0 .75.33579.75.75s-.33579.75-.75.75h-1.5c-.41421 0-.75-.33579-.75-.75s.33579-.75.75-.75z"/><path d="m10.667 5c.1838.00018.3328.14917.333.33301v1.33398c-.0002.18384-.1492.33283-.333.33301h-1.33399c-.18384-.00018-.33283-.14917-.33301-.33301v-1.33398c.00018-.18384.14917-.33283.33301-.33301z"/><path d="m7.25 5c.41421 0 .75.33579.75.75s-.33579.75-.75.75h-1.5c-.41421 0-.75-.33579-.75-.75s.33579-.75.75-.75z"/><path clip-rule="evenodd" d="m10.75.416016c.4142 0 .75.336763.75.750974v.91016c.3407.04776.6162.1246.8623.25.5642.28757 1.023.74632 1.3106 1.31055.1254.24613.2023.52155.25.8623h.9101c.4142 0 .75.33579.75.75s-.3358.75-.75.75h-.8369c.0017.24369.0039.50918.0039.7998v.4502h.833c.4142 0 .75.33579.75.75s-.3358.75-.75.75h-.833v.4502l-.0039.7998h.8369c.4142 0 .75.3358.75.75s-.3358.75-.75.75h-.9101c-.0478.3407-.1246.6162-.25.8623l-.1153.2061c-.2882.4699-.7014.8527-1.1953 1.1045l-.123.0576c-.2148.0922-.4543.1514-.7393.1914v.9111c0 .4142-.3358.75-.75.75s-.75-.3358-.75-.75v-.8369l-.7998.0039h-.4502v.833c0 .4142-.33579.75-.75.75s-.75-.3358-.75-.75v-.833h-.4502c-.29062 0-.55611-.0022-.7998-.0039v.8369c0 .4142-.33579.75-.75.75s-.75-.3358-.75-.75v-.9111c-.34069-.0477-.6162-.1237-.8623-.249-.49389-.2518-.90713-.6346-1.19532-1.1045l-.11523-.2061c-.1254-.2461-.20224-.5216-.25-.8623h-.91016c-.414211 0-.749998-.3358-.749998-.75s.335787-.75.749998-.75h.83692l-.00391-.7998v-.4502h-.83301c-.414211 0-.749998-.33579-.749998-.75s.335787-.75.749998-.75h.83301v-.4502c0-.29063.00123-.55612.00293-.7998h-.83594c-.414211 0-.749998-.33579-.749998-.75s.335787-.75.749998-.75h.91113c.03991-.28506.09916-.52454.19141-.73926l.05762-.12304c.25173-.49389.63451-.90713 1.10449-1.19532l.20606-.11523c.24613-.12541.52155-.20231.8623-.25v-.91016c0-.414211.33579-.750974.75-.750974s.75.336763.75.750974v.83594c.24369-.0017.50918-.00293.7998-.00293h.4502v-.83301c0-.414211.33579-.750974.75-.750974s.75.336763.75.750974v.83301h.4502l.7998.00293v-.83594c0-.414211.3358-.750974.75-.750974zm-3.9502 3.083984c-.86446 0-1.42272.00144-1.84765.03613-.40673.03323-.5585.08917-.63281.12696-.28225.14381-.51244.374-.65625.65625-.03779.07431-.09373.22608-.12696.63281-.03469.42493-.03613.98319-.03613 1.84765v2.4004c0 .8645.00144 1.4227.03613 1.8477.03323.4067.08917.5584.12696.6328.14381.2822.374.5124.65625.6562.07431.0378.22608.0937.63281.127.42493.0347.98319.0361 1.84765.0361h2.4004c.8645 0 1.4227-.0014 1.8477-.0361.4067-.0333.5584-.0892.6328-.127.2822-.1438.5124-.374.6562-.6562.0378-.0744.0937-.2261.127-.6328.0347-.425.0361-.9832.0361-1.8477v-2.4004c0-.86446-.0014-1.42272-.0361-1.84765-.0333-.40673-.0892-.5585-.127-.63281-.1438-.28225-.374-.51244-.6562-.65625-.0744-.03779-.2261-.09373-.6328-.12696-.425-.03469-.9832-.03613-1.8477-.03613z" fill-rule="evenodd"/></g></svg>