<svg fill="none" height="20" viewBox="0 0 20 20" width="20" xmlns="http://www.w3.org/2000/svg"><g fill="#00a008"><path d="m9.25 9.5c.41421 0 .75.33579.75.75 0 .4142-.33579.75-.75.75h-2.5c-.41421 0-.75-.3358-.75-.75 0-.41421.33579-.75.75-.75z"/><path d="m13.583 6c.2301 0 .417.18687.417.41699v1.16602c0 .23012-.1869.41699-.417.41699h-1.166c-.2301 0-.417-.18687-.417-.41699v-1.16602c0-.23012.1869-.41699.417-.41699z"/><path d="m9.25 6c.41421 0 .75.33579.75.75s-.33579.75-.75.75h-2.5c-.41421 0-.75-.33579-.75-.75s.33579-.75.75-.75z"/><path clip-rule="evenodd" d="m13.542 1c.4141.00018.75.3359.75.75v1.48047c.1884.05443.3612.12192.5244.20508.7525.38347 1.3646.99554 1.7481 1.74804.0831.1632.1506.33599.205.52442h1.4805c.4141 0 .7499.3359.75.75 0 .41421-.3358.75-.75.75h-1.2783c.0256.55637.0272 1.22206.0273 2.04199h1.251c.4142 0 .75.33579.75.75 0 .4142-.3358.75-.75.75h-1.251c-.0001.8199-.0017 1.4856-.0273 2.042h1.2783c.4142 0 .75.3358.75.75-.0001.4141-.3359.75-.75.75h-1.4805c-.0544.1884-.1219.3612-.205.5244l-.1543.2754c-.3843.6265-.9353 1.1371-1.5938 1.4727l-.1641.0761c-.1142.0491-.2339.0904-.3603.127v1.4824c0 .4141-.3359.7498-.75.75-.4142 0-.75-.3358-.75-.75v-1.2793c-.5563.0258-1.222.0282-2.042.0283v1.251c0 .4142-.3358.75-.75.75-.41421 0-.75-.3358-.75-.75v-1.251l-1.33398-.0058c-.25469-.004-.48973-.0124-.70801-.0225v1.2793c0 .4142-.33579.75-.75.75-.41406-.0002-.75-.3359-.75-.75v-1.4844c-.12623-.0365-.2463-.076-.36035-.125l-.16407-.0761c-.65847-.3356-1.20946-.8462-1.59375-1.4727l-.15429-.2754c-.08316-.1632-.15065-.336-.20508-.5244h-1.48047c-.41413 0-.74987-.3359-.75-.75 0-.4142.33579-.75.75-.75h1.27832c-.02565-.5564-.02727-1.2221-.02734-2.042h-1.25098c-.41421 0-.75-.3358-.75-.75 0-.41421.33579-.75.75-.75h1.25098c.00007-.81993.00169-1.48562.02734-2.04199h-1.27832c-.41421 0-.75-.33579-.75-.75.00013-.4141.33587-.75.75-.75h1.48047c.05443-.18843.12192-.36122.20508-.52442.38347-.7525.99554-1.36457 1.74804-1.74804.16321-.08316.33599-.15066.52442-.20508v-1.48047c0-.4141.33594-.74982.75-.75.41421 0 .75.33579.75.75v1.27832c.21828-.01007.45335-.01748.70801-.02148l1.33398-.00684v-1.25c0-.41421.33579-.75.75-.75.4142 0 .75.33579.75.75v1.25c.8199.00008 1.4856.00267 2.042.02832v-1.27832c0-.41421.3358-.75.75-.75zm-4.14161 3.5c-1.14486 0-1.9141.00146-2.50586.0498-.57376.04691-.84822.13043-1.0293.22266-.4704.23968-.85309.62237-1.09277 1.09277-.09223.18108-.17575.45554-.22266 1.0293-.04834.59176-.0498 1.361-.0498 2.50586v1.19921c0 1.1449.00146 1.9141.0498 2.5059.04691.5737.13043.8482.22266 1.0293.23968.4704.62237.8531 1.09277 1.0927.18108.0923.45554.1758 1.0293.2227.59176.0483 1.361.0498 2.50586.0498h1.19921c1.1449 0 1.9141-.0015 2.5059-.0498.5737-.0469.8482-.1304 1.0293-.2227.4704-.2396.8531-.6223 1.0927-1.0927.0923-.1811.1758-.4556.2227-1.0293.0483-.5918.0498-1.361.0498-2.5059v-1.19921c0-1.14486-.0015-1.9141-.0498-2.50586-.0469-.57376-.1304-.84822-.2227-1.0293-.2396-.4704-.6223-.85309-1.0927-1.09277-.1811-.09223-.4556-.17575-1.0293-.22266-.5918-.04834-1.361-.0498-2.5059-.0498z" fill-rule="evenodd"/></g></svg>