<svg fill="none" height="16" viewBox="0 0 16 16" width="16" xmlns="http://www.w3.org/2000/svg"><path clip-rule="evenodd" d="m10.4213 3.4388-1.97784-1.79528c-.42075-.3819-.96863-.59347-1.53686-.59347-1.45856 0-2.54431 1.34714-2.23446 2.77241l.1473.67754h-.89649c-1.83593 0-3.156295 1.76464-2.63826 3.52596l1.21797 4.14104c.4068 1.3832 1.67621 2.333 3.11793 2.333h1.93695c.58904 0 1.16701-.1601 1.67211-.4631l1.07955-.6478c.391.6647 1.1138 1.1109 1.9408 1.1109h.5c1.2426 0 2.25-1.0074 2.25-2.25v-7.5c0-1.24264-1.0074-2.25-2.25-2.25h-.5c-.7534 0-1.4203.37029-1.8287.9388zm-2.98599-.68458c-.14475-.13139-.33323-.20417-.52871-.20417-.50177 0-.87529.46344-.76869.95376l.29225 1.34438c.12873.59214-.32234 1.15181-.92831 1.15181h-1.5789c-.83451 0-1.43468.80211-1.19921 1.60271l1.21796 4.14109c.21905.7448.90258 1.2562 1.67889 1.2562h1.93695c.31718 0 .62839-.0862.90037-.2494l1.54209-.9252v-6.74328zm4.06469 1.99578c0-.41421.3358-.75.75-.75h.5c.4142 0 .75.33579.75.75v7.5c0 .4142-.3358.75-.75.75h-.5c-.4142 0-.75-.3358-.75-.75z" fill="#00a008" fill-rule="evenodd"/></svg>