<svg fill="none" height="20" viewBox="0 0 20 20" width="20" xmlns="http://www.w3.org/2000/svg"><path clip-rule="evenodd" d="m12.8543 4.53759-1.9777-2.16603c-.507-.55524-1.22413-.87156-1.97599-.87156-1.71177 0-2.98332 1.58513-2.61198 3.25614l.27641 1.24386h-1.44004c-2.08271 0-3.62791 1.9315-3.17073 3.96342l1.03719 4.60978c.38501 1.7111 1.90463 2.9268 3.65854 2.9268h2.87445c.79255 0 1.56465-.2511 2.20565-.7172l.9366-.6812c.3357.8204 1.142 1.3984 2.0833 1.3984h.5c1.2426 0 2.25-1.0074 2.25-2.25v-9.5c0-1.24264-1.0074-2.25-2.25-2.25h-.5c-.7962 0-1.4958.41356-1.8957 1.03759zm-3.08545-1.15463c-.22275-.24397-.53787-.38296-.86824-.38296-.75215 0-1.31087.69651-1.1477 1.43075l.42514 1.91317c.13185.59328-.31961 1.15608-.92737 1.15608h-2.12568c-1.12146 0-1.95349 1.04004-1.70732 2.13415l1.0372 4.60975c.231 1.0267 1.14278 1.7561 2.19512 1.7561h2.87445c.47552 0 .93885-.1507 1.32335-.4303l1.6522-1.2016v-7.99388zm4.23115 2.36704c0-.41421.3358-.75.75-.75h.5c.4142 0 .75.33579.75.75v9.5c0 .4142-.3358.75-.75.75h-.5c-.4142 0-.75-.3358-.75-.75z" fill="#00a008" fill-rule="evenodd"/></svg>