<svg fill="none" height="24" viewBox="0 0 24 24" width="24" xmlns="http://www.w3.org/2000/svg"><path clip-rule="evenodd" d="m15.8811 5.85236-2.5738-3.17943c-.6006-.7419-1.5041-1.17293-2.4586-1.17293-1.95466 0-3.44152 1.75517-3.12017 3.68326l.38613 2.31674h-2.27233c-2.43964 0-4.22973 2.29271-3.63803 4.6595l1.5 6c.41734 1.6694 1.91728 2.8405 3.63803 2.8405h4.72057c.7627 0 1.5074-.2326 2.1345-.6668l1.6921-1.1715c.4805.8017 1.3579 1.3383 2.3605 1.3383h.5c1.5188 0 2.75-1.2312 2.75-2.75v-10.5c0-1.51878-1.2312-2.75-2.75-2.75h-.5c-1.0085 0-1.8902.54288-2.3689 1.35236zm-3.7396-2.23563c-.3158-.39009-.7909-.61673-1.2928-.61673-1.02775 0-1.80954.92287-1.64058 1.93666l.49286 2.95716c.09651.57906-.35003 1.10618-.93707 1.10618h-2.92158c-1.46378 0-2.53784 1.3756-2.18282 2.7957l1.5 6c.25041 1.0016 1.15037 1.7043 2.18282 1.7043h4.72057c.4576 0 .9044-.1396 1.2807-.4001l2.1564-1.4929v-9.84148zm4.8585 3.63327c0-.69036.5596-1.25 1.25-1.25h.5c.6904 0 1.25.55964 1.25 1.25v10.5c0 .6904-.5596 1.25-1.25 1.25h-.5c-.6904 0-1.25-.5596-1.25-1.25z" fill="#00a008" fill-rule="evenodd"/></svg>