<svg fill="none" height="16" viewBox="0 0 16 16" width="16" xmlns="http://www.w3.org/2000/svg"><g fill="#00a008"><path d="m6.25 3c.41421 0 .75.33579.75.75s-.33579.75-.75.75h-.25c-1.933 0-3.5 1.567-3.5 3.5s1.567 3.5 3.5 3.5h.25c.41421 0 .75.3358.75.75s-.33579.75-.75.75h-.25c-2.76142 0-5-2.2386-5-5 0-2.76142 2.23858-5 5-5z"/><path d="m9.75 11.5c-.41421 0-.75.3358-.75.75s.33579.75.75.75h.25c2.7614 0 5-2.2386 5-5 0-2.76142-2.2386-5-5-5h-.25c-.41421 0-.75.33579-.75.75s.33579.75.75.75h.25c1.933 0 3.5 1.567 3.5 3.5s-1.567 3.5-3.5 3.5z"/><path d="m5.75 7c-.41421 0-.75.33579-.75.75s.33579.75.75.75h4.5c.4142 0 .75-.33579.75-.75s-.3358-.75-.75-.75z"/></g></svg>