<svg fill="none" height="20" viewBox="0 0 20 20" width="20" xmlns="http://www.w3.org/2000/svg"><g fill="#00a008"><path d="m8.25 3.5c.41421 0 .75.33579.75.75s-.33579.75-.75.75h-.75c-2.76142 0-5 2.23858-5 5 0 2.7614 2.23858 5 5 5h.75c.41421 0 .75.3358.75.75s-.33579.75-.75.75h-.75c-3.58985 0-6.5-2.9101-6.5-6.5 0-3.58985 2.91015-6.5 6.5-6.5z"/><path d="m11.75 15c-.4142 0-.75.3358-.75.75s.3358.75.75.75h.75c3.5899 0 6.5-2.9101 6.5-6.5 0-3.58985-2.9101-6.5-6.5-6.5h-.75c-.4142 0-.75.33579-.75.75s.3358.75.75.75h.75c2.7614 0 5 2.23858 5 5 0 2.7614-2.2386 5-5 5z"/><path d="m6 9.75c0-.41421.33579-.75.75-.75h6.5c.4142 0 .75.33579.75.75 0 .4142-.3358.75-.75.75h-6.5c-.41421 0-.75-.3358-.75-.75z"/></g></svg>