<svg fill="none" height="24" viewBox="0 0 24 24" width="24" xmlns="http://www.w3.org/2000/svg"><g fill="#00a008"><path d="m9.25 4.5c.41421 0 .75.33579.75.75s-.33579.75-.75.75h-.75c-3.31371 0-6 2.68629-6 6 0 3.3137 2.68629 6 6 6h.75c.41421 0 .75.3358.75.75s-.33579.75-.75.75h-.75c-4.14214 0-7.5-3.3579-7.5-7.5 0-4.14214 3.35786-7.5 7.5-7.5z"/><path d="m14.75 18c-.4142 0-.75.3358-.75.75s.3358.75.75.75h.75c4.1421 0 7.5-3.3579 7.5-7.5 0-4.14214-3.3579-7.5-7.5-7.5h-.75c-.4142 0-.75.33579-.75.75s.3358.75.75.75h.75c3.3137 0 6 2.68629 6 6 0 3.3137-2.6863 6-6 6z"/><path d="m7 11.75c0-.4142.33579-.75.75-.75h8.5c.4142 0 .75.3358.75.75s-.3358.75-.75.75h-8.5c-.41421 0-.75-.3358-.75-.75z"/></g></svg>