<svg fill="none" height="16" viewBox="0 0 16 16" width="16" xmlns="http://www.w3.org/2000/svg"><path d="m15 8c0 3.866-3.134 7-7 7-3.86599 0-7-3.134-7-7 0-3.86599 3.13401-7 7-7 3.866 0 7 3.13401 7 7z" fill="#002ea3"/><path d="m1.67397 5h12.65273c-1.1235-2.36495-3.534-4-6.32637-4-2.79239 0-5.2029 1.63505-6.32636 4z" fill="#dc0000"/><path d="m1.67397 11c1.12346 2.3649 3.53397 4 6.32636 4 2.79237 0 5.20287-1.6351 6.32637-4z" fill="#f4a900"/><path clip-rule="evenodd" d="m8 14c3.3137 0 6-2.6863 6-6 0-3.31371-2.6863-6-6-6-3.31371 0-6 2.68629-6 6 0 3.3137 2.68629 6 6 6zm0 1c3.866 0 7-3.134 7-7 0-3.86599-3.134-7-7-7-3.86599 0-7 3.13401-7 7 0 3.866 3.13401 7 7 7z" fill="#1d1f26" fill-opacity=".2" fill-rule="evenodd"/></svg>