<svg fill="none" height="24" viewBox="0 0 24 24" width="24" xmlns="http://www.w3.org/2000/svg"><path d="m22 12c0 5.5228-4.4772 10-10 10-5.52285 0-10-4.4772-10-10 0-5.52285 4.47715-10 10-10 5.5228 0 10 4.47715 10 10z" fill="#002ea3"/><path d="m2.83203 8h18.33587c-1.5432-3.53181-5.0673-6-9.168-6-4.1006 0-7.62476 2.46819-9.16787 6z" fill="#dc0000"/><path d="m2.83203 16c1.54311 3.5318 5.06727 6 9.16787 6 4.1007 0 7.6248-2.4682 9.168-6z" fill="#f4a900"/><path clip-rule="evenodd" d="m12 21c4.9706 0 9-4.0294 9-9 0-4.97056-4.0294-9-9-9-4.97056 0-9 4.02944-9 9 0 4.9706 4.02944 9 9 9zm0 1c5.5228 0 10-4.4772 10-10 0-5.52285-4.4772-10-10-10-5.52285 0-10 4.47715-10 10 0 5.5228 4.47715 10 10 10z" fill="#1d1f26" fill-opacity=".2" fill-rule="evenodd"/></svg>