<svg fill="none" height="16" viewBox="0 0 16 16" width="16" xmlns="http://www.w3.org/2000/svg"><g fill="#00a008"><path d="m7 6.75c0-.41421.33579-.75.75-.75s.75.33579.75.75v1.25h.75c.41421 0 .75.33579.75.75s-.33579.75-.75.75h-1.5c-.41421 0-.75-.33579-.75-.75z"/><path clip-rule="evenodd" d="m12.5 3.40135c.8967.51871 1.5 1.48823 1.5 2.59865v4c0 1.1104-.6033 2.0799-1.5 2.5987v1.1513c0 .9665-.7835 1.75-1.75 1.75h-5.5c-.9665 0-1.75-.7835-1.75-1.75v-1.1513c-.8967-.5188-1.5-1.4883-1.5-2.5987v-4c0-1.11042.6033-2.07994 1.5-2.59865v-1.15135c0-.9665.7835-1.75 1.75-1.75h5.5c.9665 0 1.75.7835 1.75 1.75zm-7.5 9.59865h6v.75c0 .1381-.1119.25-.25.25h-5.5c-.13807 0-.25-.1119-.25-.25zm0-10h6v-.75c0-.13807-.1119-.25-.25-.25h-5.5c-.13807 0-.25.11193-.25.25zm0 1.5h6c.8284 0 1.5.67157 1.5 1.5v4c0 .8284-.6716 1.5-1.5 1.5h-6c-.82843 0-1.5-.6716-1.5-1.5v-4c0-.82843.67157-1.5 1.5-1.5z" fill-rule="evenodd"/></g></svg>