<svg fill="none" height="20" viewBox="0 0 20 20" width="20" xmlns="http://www.w3.org/2000/svg"><g fill="#00a008"><path d="m9 8.75c0-.41421.33579-.75.75-.75.4142 0 .75.33579.75.75v1.25h.75c.4142 0 .75.3358.75.75s-.3358.75-.75.75h-1.5c-.41421 0-.75-.3358-.75-.75z"/><path clip-rule="evenodd" d="m15 4.62734c.9067.63248 1.5 1.68329 1.5 2.87266v5c0 1.1894-.5933 2.2402-1.5 2.8727v1.3773c0 1.2426-1.0074 2.25-2.25 2.25h-5.5c-1.24264 0-2.25-1.0074-2.25-2.25v-1.3773c-.90674-.6325-1.5-1.6833-1.5-2.8727v-5c0-1.18937.59326-2.24018 1.5-2.87266v-1.37734c0-1.24264 1.00736-2.25 2.25-2.25h5.5c1.2426 0 2.25 1.00736 2.25 2.25zm-2 11.37266c.1698 0 .3367-.0121.5-.0354v.7854c0 .4142-.3358.75-.75.75h-5.5c-.41421 0-.75-.3358-.75-.75v-.7854c.1633.0233.33024.0354.5.0354zm-6.5-11.96456v-.78544c0-.41421.33579-.75.75-.75h5.5c.4142 0 .75.33579.75.75v.78544c-.1633-.02335-.3302-.03544-.5-.03544h-6c-.16976 0-.3367.01209-.5.03544zm.5 1.46456h6c1.1046 0 2 .89543 2 2v5c0 1.1046-.8954 2-2 2h-6c-1.10457 0-2-.8954-2-2v-5c0-1.10457.89543-2 2-2z" fill-rule="evenodd"/></g></svg>