<svg fill="none" height="24" viewBox="0 0 24 24" width="24" xmlns="http://www.w3.org/2000/svg"><g fill="#00a008"><path d="m11 9.75c0-.41421.3358-.75.75-.75s.75.33579.75.75v2.25h1.75c.4142 0 .75.3358.75.75s-.3358.75-.75.75h-2.5c-.4142 0-.75-.3358-.75-.75z"/><path clip-rule="evenodd" d="m19.5 9c0-1.56021-.794-2.93496-2-3.74223v-1.00777c0-1.51878-1.2312-2.75-2.75-2.75h-5.5c-1.51878 0-2.75 1.23122-2.75 2.75v1.00777c-1.20599.80727-2 2.18202-2 3.74223v6c0 1.5602.79401 2.935 2 3.7422v1.0078c0 1.5188 1.23122 2.75 2.75 2.75h5.5c1.5188 0 2.75-1.2312 2.75-2.75v-1.0078c1.206-.8072 2-2.182 2-3.7422zm-11.5-4.75v.36151c.32161-.07298.65631-.11151 1-.11151h6c.3437 0 .6784.03853 1 .11151v-.36151c0-.69036-.5596-1.25-1.25-1.25h-5.5c-.69036 0-1.25.55964-1.25 1.25zm1 1.75h6c1.6569 0 3 1.34315 3 3v6c0 1.6569-1.3431 3-3 3h-6c-1.65685 0-3-1.3431-3-3v-6c0-1.65685 1.34315-3 3-3zm-1 13.3885v.3615c0 .6904.55964 1.25 1.25 1.25h5.5c.6904 0 1.25-.5596 1.25-1.25v-.3615c-.3216.073-.6563.1115-1 .1115h-6c-.34369 0-.67839-.0385-1-.1115z" fill-rule="evenodd"/></g></svg>