<svg fill="none" height="16" viewBox="0 0 16 16" width="16" xmlns="http://www.w3.org/2000/svg"><g clip-rule="evenodd" fill="#00a008" fill-rule="evenodd"><path d="m7 13.4004c0 .5598-.00041.8398-.10938 1.0537-.09583.188-.24855.3407-.43652.4365-.16049.0818-.35832.1023-.68359.1074l-.37012.002h-2.80078c-.55979 0-.83985-.0004-1.05371-.1094-.18797-.0958-.34068-.2485-.43652-.4365-.10897-.2139-.10938-.4939-.10938-1.0537v-2.8008l.00195-.3701c.0051-.32528.02565-.52311.10743-.6836l.08203-.13379c.09225-.12688.21343-.23081.35449-.30273.21386-.10897.49392-.10938 1.05371-.10938h4.40039zm-4.5-2.8994v2.999h2.99902c.00003-.0314.00098-.0645.00098-.0996v-2.9004h-2.90039c-.03514 0-.06825.001-.09961.001z"/><path d="m13.4004 9c.5598 0 .8398.00041 1.0537.10938.1411.07192.2622.17585.3545.30273l.082.13379c.0818.16049.1023.35832.1074.6836l.002.3701v2.8008c0 .5598-.0004.8398-.1094 1.0537-.0958.188-.2485.3407-.4365.4365-.2139.109-.4939.1094-1.0537.1094h-2.8008l-.3701-.002c-.32528-.0051-.52311-.0256-.6836-.1074-.18797-.0958-.34068-.2485-.43652-.4365-.10897-.2139-.10938-.4939-.10938-1.0537v-4.4004zm-2.9004 1.5v2.9004c0 .0351.001.0682.001.0996h2.999v-2.999c-.0314 0-.0645-.001-.0996-.001z"/><path d="m5.77051 1.00195c.32527.0051.5231.02565.68359.10743.18797.09584.34069.24855.43652.43652.10897.21386.10938.49392.10938 1.05371v4.40039h-4.40039c-.55979 0-.83985-.00041-1.05371-.10938-.14106-.07192-.26224-.17585-.35449-.30273l-.08203-.13379c-.08178-.16049-.10233-.35832-.10743-.68359l-.00195-.37012v-2.80078c0-.55979.00041-.83985.10938-1.05371.09584-.18797.24855-.34068.43652-.43652.21386-.10897.49392-.10938 1.05371-.10938h2.80078zm-3.27051 4.49707c.03136.00003.06447.00098.09961.00098h2.90039v-2.90039c0-.03514-.00095-.06825-.00098-.09961h-2.99902z"/><path d="m13.4004 1c.5598 0 .8398.00041 1.0537.10938.188.09584.3407.24855.4365.43652.109.21386.1094.49392.1094 1.05371v2.80078l-.002.37012c-.0051.32527-.0256.5231-.1074.68359l-.082.13379c-.0923.12688-.2134.23081-.3545.30273-.2139.10897-.4939.10938-1.0537.10938h-4.4004v-4.40039c0-.55979.00041-.83985.10938-1.05371.09584-.18797.24855-.34068.43652-.43652.16049-.08178.35832-.10233.6836-.10743l.3701-.00195zm-2.9004 1.59961v2.90039h2.9004c.0351 0 .0682-.00095.0996-.00098v-2.99902h-2.999c0 .03136-.001.06447-.001.09961z"/></g></svg>