<svg fill="none" height="20" viewBox="0 0 20 20" width="20" xmlns="http://www.w3.org/2000/svg"><g clip-rule="evenodd" fill="#00a008" fill-rule="evenodd"><path d="m9 16.4004c0 .5598-.00041.8398-.10938 1.0537-.09583.188-.24855.3407-.43652.4365-.16049.0818-.35832.1023-.68359.1074l-.37012.002h-3.80078c-.55979 0-.83985-.0004-1.05371-.1094-.18797-.0958-.34068-.2485-.43652-.4365-.10897-.2139-.10938-.4939-.10938-1.0537v-3.8008l.00195-.3701c.0051-.3253.02565-.5231.10743-.6836l.08203-.1338c.09225-.1269.21343-.2308.35449-.3027.21386-.109.49392-.1094 1.05371-.1094h5.40039zm-5.5-3.8994v3.999h3.99902c.00003-.0314.00098-.0645.00098-.0996v-3.9004h-3.90039c-.03514 0-.06825.001-.09961.001z"/><path d="m16.4004 11c.5598 0 .8398.0004 1.0537.1094.1411.0719.2622.1758.3545.3027l.082.1338c.0818.1605.1023.3583.1074.6836l.002.3701v3.8008c0 .5598-.0004.8398-.1094 1.0537-.0958.188-.2485.3407-.4365.4365-.2139.109-.4939.1094-1.0537.1094h-3.8008l-.3701-.002c-.3253-.0051-.5231-.0256-.6836-.1074-.188-.0958-.3407-.2485-.4365-.4365-.109-.2139-.1094-.4939-.1094-1.0537v-5.4004zm-3.9004 1.5v3.9004c0 .0351.001.0682.001.0996h3.999v-3.999c-.0314 0-.0645-.001-.0996-.001z"/><path d="m7.77051 2.00195c.32527.0051.5231.02565.68359.10743.18797.09584.34069.24855.43652.43652.10897.21386.10938.49392.10938 1.05371v5.40039h-5.40039c-.55979 0-.83985-.00041-1.05371-.10938-.14106-.07192-.26224-.17585-.35449-.30273l-.08203-.13379c-.08178-.16049-.10233-.35832-.10743-.68359l-.00195-.37012v-3.80078c0-.55979.00041-.83985.10938-1.05371.09584-.18797.24855-.34068.43652-.43652.21386-.10897.49392-.10938 1.05371-.10938h3.80078zm-4.27051 5.49707c.03136.00003.06447.00098.09961.00098h3.90039v-3.90039c0-.03514-.00095-.06825-.00098-.09961h-3.99902z"/><path d="m16.4004 2c.5598 0 .8398.00041 1.0537.10938.188.09584.3407.24855.4365.43652.109.21386.1094.49392.1094 1.05371v3.80078l-.002.37012c-.0051.32527-.0256.5231-.1074.68359l-.082.13379c-.0923.12688-.2134.23081-.3545.30273-.2139.10897-.4939.10938-1.0537.10938h-5.4004v-5.40039c0-.55979.0004-.83985.1094-1.05371.0958-.18797.2485-.34068.4365-.43652.1605-.08178.3583-.10233.6836-.10743l.3701-.00195zm-3.9004 1.59961v3.90039h3.9004c.0351 0 .0682-.00095.0996-.00098v-3.99902h-3.999c0 .03136-.001.06447-.001.09961z"/></g></svg>