<svg fill="none" height="24" viewBox="0 0 24 24" width="24" xmlns="http://www.w3.org/2000/svg"><g clip-rule="evenodd" fill="#00a008" fill-rule="evenodd"><path d="m11 18.5996c0 .8397.0002 1.2602-.1631 1.5811l-.0586.1035c-.1441.2349-.3507.4269-.5976.5527l-.125.0537c-.3069.1096-.72086.1094-1.45609.1094h-3.19922l-.55664-.0029c-.40648-.0064-.6802-.0282-.89941-.1065l-.125-.0537c-.28225-.1438-.51244-.374-.65625-.6562-.16328-.3209-.16309-.7414-.16309-1.5811v-3.1992c0-.7352-.00022-1.1492.10938-1.4561l.05371-.125c.12582-.2469.31779-.4535.55273-.5976l.10352-.0586c.24058-.1225.53707-.1525 1.02441-.1602l.55664-.0029h5.59961zm-5.59961-4.0996c-.44467 0-.68841.0013-.86328.0156-.00683.0006-.01341.0014-.01953.002-.00057.0061-.0014.0127-.00196.0195-.01427.1749-.01562.4186-.01562.8633v3.1992c0 .4447.00135.6884.01562.8633.00053.0065.00142.0127.00196.0185.00614.0006.01267.0024.01953.003.17487.0143.41861.0156.86328.0156h3.19922c.44467 0 .68841-.0013.86328-.0156.0065-.0006.0127-.0024.01856-.003.00053-.0058.00239-.012.00293-.0185.01427-.1749.01562-.4186.01562-.8633v-4.0996z"/><path d="m18.5996 13c.8397 0 1.2602-.0002 1.5811.1631.2822.1438.5124.374.6562.6562.1633.3209.1631.7414.1631 1.5811v3.1992c0 .8397.0002 1.2602-.1631 1.5811l-.0586.1035c-.1441.2349-.3507.4269-.5976.5527l-.125.0537c-.3069.1096-.7209.1094-1.4561.1094h-3.1992l-.5566-.0029c-.4065-.0064-.6802-.0282-.8995-.1065l-.125-.0537c-.2822-.1438-.5124-.374-.6562-.6562-.1633-.3209-.1631-.7414-.1631-1.5811v-5.5996zm-4.0996 5.5996c0 .4447.0013.6884.0156.8633.0006.0065.0014.0127.002.0185.0061.0006.0126.0024.0195.003.1749.0143.4186.0156.8633.0156h3.1992c.4447 0 .6884-.0013.8633-.0156.0065-.0006.0127-.0024.0185-.003.0006-.0058.0024-.012.003-.0185.0143-.1749.0156-.4186.0156-.8633v-3.1992c0-.4447-.0013-.6884-.0156-.8633-.0006-.0069-.0024-.0134-.003-.0195-.0058-.0006-.012-.0014-.0185-.002-.1749-.0143-.4186-.0156-.8633-.0156h-4.0996z"/><path d="m8.59961 3c.83971 0 1.26024-.00019 1.58109.16309.2822.14381.5124.374.6562.65625.1633.32081.1631.74134.1631 1.58105v5.59961h-5.59961l-.55664-.0029c-.40648-.0064-.6802-.0282-.89941-.1065l-.125-.0537c-.28225-.1438-.51244-.374-.65625-.6562-.16328-.32085-.16309-.74138-.16309-1.58109v-3.19922c0-.73523-.00022-1.14919.10938-1.45605l.05371-.125c.12582-.24695.31779-.45354.55273-.59766l.10352-.05859c.24058-.12245.53707-.1525 1.02441-.16016l.55664-.00293zm-3.19922 1.5c-.44467 0-.68841.00135-.86328.01562-.00683.00056-.01341.00139-.01953.00196-.00057.00612-.0014.0127-.00196.01953-.01427.17487-.01562.41861-.01562.86328v3.19922c0 .44467.00135.68841.01562.86328.00053.00647.00142.01272.00196.01856.00614.00056.01267.00236.01953.00293.17487.01427.41861.01562.86328.01562h4.09961v-4.09961c0-.44467-.00135-.68841-.01562-.86328-.00057-.00686-.00237-.01339-.00293-.01953-.00584-.00054-.01209-.00143-.01856-.00196-.17487-.01427-.41861-.01562-.86328-.01562z"/><path d="m18.5996 3c.8397 0 1.2602-.00019 1.5811.16309.2822.14381.5124.374.6562.65625.1633.32081.1631.74134.1631 1.58105v3.19922c0 .83971.0002 1.26024-.1631 1.58109l-.0586.1035c-.1441.2349-.3507.4269-.5976.5527l-.125.0537c-.3069.1096-.7209.1094-1.4561.1094h-5.5996v-5.59961c0-.73523-.0002-1.14919.1094-1.45605l.0537-.125c.1258-.24695.3178-.45354.5527-.59766l.1035-.05859c.2406-.12245.5371-.1525 1.0245-.16016l.5566-.00293zm-3.1992 1.5c-.4447 0-.6884.00135-.8633.01562-.0068.00056-.0134.00139-.0195.00196-.0006.00612-.0014.0127-.002.01953-.0143.17487-.0156.41861-.0156.86328v4.09961h4.0996c.4447 0 .6884-.00135.8633-.01562.0065-.00054.0127-.0024.0185-.00293.0006-.00586.0024-.01206.003-.01856.0143-.17487.0156-.41861.0156-.86328v-3.19922c0-.44467-.0013-.68841-.0156-.86328-.0006-.00686-.0024-.01339-.003-.01953-.0058-.00054-.012-.00143-.0185-.00196-.1749-.01427-.4186-.01562-.8633-.01562z"/></g></svg>