<svg fill="none" height="16" viewBox="0 0 16 16" width="16" xmlns="http://www.w3.org/2000/svg"><g fill="#00a008"><path d="m15 11.75c0 1.5188-1.2312 2.75-2.75 2.75h-3.5c-.41422 0-.75-.3358-.75-.75s.33579-.75.75-.75h3.5c.6904 0 1.25-.5596 1.25-1.25v-4.25h-7.75c-.41421 0-.75-.33579-.75-.75s.33579-.75.75-.75h7.75v-.25c0-.69036-.5596-1.25-1.25-1.25h-3.34861c-.8139 0-1.57396-.40677-2.02543-1.08397-.17327-.25991-.46498-.41603-.77735-.41603h-2.84861c-.41421 0-.75.33579-.75.75v3.5c0 .41421-.33579.75-.75.75s-.75-.33579-.75-.75v-3.5c0-1.24264 1.00736-2.25 2.25-2.25h2.84861c.8139 0 1.57396.40677 2.02543 1.08397.17327.25991.46498.41603.77735.41603h3.34861c1.5188 0 2.75 1.23122 2.75 2.75z"/><path d="m2.75 10.5h.75.75 1c.41421 0 .75.3358.75.75s-.33579.75-.75.75h-1-.75-.75-1c-.41421 0-.75-.3358-.75-.75s.33579-.75.75-.75z"/></g></svg>