<svg fill="none" height="16" viewBox="0 0 16 16" width="16" xmlns="http://www.w3.org/2000/svg"><g fill="#00a008"><path d="m4.25 7.5c-.41421 0-.75.33578-.75.74999 0 .4142.33579.74998.75.74998h1c.41421 0 .75-.33578.75-.74998 0-.41421-.33579-.74999-.75-.74999z"/><path d="m10 8.24999c0-.41421.3358-.74999.75-.74999h1c.4142 0 .75.33578.75.74999 0 .4142-.3358.74998-.75.74998h-1c-.4142 0-.75-.33578-.75-.74998z"/><path clip-rule="evenodd" d="m3.58192 2.96032c.52246-.60952 1.28517-.96032 2.08796-.96032h4.66022c.8028 0 1.5655.3508 2.088.96032l2.1769 2.53968h.655c.4142 0 .75.33579.75.75s-.3358.75-.75.75h-.3984l-.6954 3.1296c-.0338.1522-.0869.2959-.1562.4291v1.4413c0 1.1046-.8954 2-2 2s-2-.8954-2-2v-.5h-4v.5c0 1.1046-.89543 2-2 2s-2-.8954-2-2v-1.4413c-.06933-.1332-.12235-.2769-.15616-.4291l-.69547-3.1296h-.39837c-.414214 0-.75-.33579-.75-.75s.335786-.75.75-.75h.65506zm9.10998 6.84391c-.0254.11439-.1269.19577-.2441.19577h-8.89563c-.11717 0-.21863-.08138-.24405-.19577l-.62316-2.80423h10.63004zm-1.1919 2.19577v-.5h1v.5c0 .2761-.2239.5-.5.5s-.5-.2239-.5-.5zm-7-.5h-1v.5c0 .2761.22386.5.5.5s.5-.2239.5-.5zm6.7792-7.56349 1.3401 1.56349h-9.23862l1.34013-1.56349c.23748-.27706.58416-.43651.94907-.43651h4.66022c.3649 0 .7116.15945.9491.43651z" fill-rule="evenodd"/></g></svg>