<svg fill="none" height="20" viewBox="0 0 20 20" width="20" xmlns="http://www.w3.org/2000/svg"><g fill="#00a008"><path d="m4.5 10.25c0-.41422.33579-.75.75-.75h1c.41421 0 .75.33578.75.75 0 .4142-.33579.75-.75.75h-1c-.41421 0-.75-.3358-.75-.75z"/><path d="m13.75 9.5c-.4142 0-.75.33578-.75.75 0 .4142.3358.75.75.75h1c.4142 0 .75-.3358.75-.75 0-.41422-.3358-.75-.75-.75z"/><path clip-rule="evenodd" d="m5.82037 2c-.91947 0-1.77811.45953-2.28814 1.22457l-2.18362 3.27543h-.59861c-.414214 0-.75.33579-.75.75s.335786.75.75.75h.35656l.77171 5.0161c.02297.1493.06439.2918.12173.4252v2.0587c0 1.3807 1.11929 2.5 2.5 2.5s2.5-1.1193 2.5-2.5v-1h6v1c0 1.3807 1.1193 2.5 2.5 2.5s2.5-1.1193 2.5-2.5v-2.0587c.0573-.1334.0988-.2759.1217-.4252l.7717-5.0161h.3566c.4142 0 .75-.33579.75-.75s-.3358-.75-.75-.75h-.5986l-2.1836-3.27543c-.5101-.76504-1.3687-1.22457-2.2882-1.22457zm10.57173 11c.1234 0 .2283-.09.2471-.212l.7366-4.788h-14.75159l.73662 4.788c.01876.122.1237.212.24709.212zm-1.8921 1.5v1c0 .5523.4477 1 1 1s1-.4477 1-1v-1zm-9 0v1c0 .5523-.44772 1-1 1s-1-.4477-1-1v-1zm11.3486-8-1.6289-2.44338c-.2318-.34774-.6221-.55662-1.0401-.55662h-8.35923c-.41794 0-.80823.20888-1.04006.55662l-1.62892 2.44338z" fill-rule="evenodd"/></g></svg>