<svg fill="none" height="24" viewBox="0 0 24 24" width="24" xmlns="http://www.w3.org/2000/svg"><g fill="#00a008"><path d="m6 12.2501c0-.4142.33579-.75.75-.75h1.5c.41421 0 .75.3358.75.75s-.33579.75-.75.75h-1.5c-.41421 0-.75-.3358-.75-.75z"/><path d="m15.75 11.5001c-.4142 0-.75.3358-.75.75s.3358.75.75.75h1.5c.4142 0 .75-.3358.75-.75s-.3358-.75-.75-.75z"/><path clip-rule="evenodd" d="m8.53063 3c-1.37229 0-2.63498.74958-3.2921 1.9543l-1.93402 3.5457h-1.55451c-.41421 0-.75.33579-.75.75s.33579.75.75.75h.35656l.77171 5.0161c.02297.1493.06439.2918.12173.4252v3.0587c0 1.3807 1.11929 2.5 2.5 2.5s2.5-1.1193 2.5-2.5v-2h8v2c0 1.3807 1.1193 2.5 2.5 2.5s2.5-1.1193 2.5-2.5v-3.0587c.0573-.1334.0988-.2759.1217-.4252l.7717-5.0161h.3566c.4142 0 .75-.33579.75-.75s-.3358-.75-.75-.75h-1.555l-1.9341-3.5457c-.6571-1.20472-1.9198-1.9543-3.2921-1.9543zm10.86147 12c.1234 0 .2283-.09.2471-.212l.7366-4.788h-16.75159l.73662 4.788c.01876.122.1237.212.24709.212zm-1.8921 1.5v2c0 .5523.4477 1 1 1s1-.4477 1-1v-2zm-11 0v2c0 .5523-.44772 1-1 1s-1-.4477-1-1v-2zm12.4863-8-1.5422-2.82742c-.3943-.72283-1.1519-1.17258-1.9753-1.17258h-6.93817c-.82337 0-1.58099.44975-1.97526 1.17258l-1.54223 2.82742z" fill-rule="evenodd"/></g></svg>