<svg fill="none" height="16" viewBox="0 0 16 16" width="16" xmlns="http://www.w3.org/2000/svg"><g fill="#00a008"><path d="m11.666 14c.4142 0 .75.3358.75.75s-.3358.75-.75.75h-7.33303c-.41405-.0002-.75-.3359-.75-.75s.33595-.7498.75-.75z"/><path d="m4.99996 8c.55229 0 1 .44772 1 1 0 .55229-.44771 1-1 1-.55227-.00001-1-.44772-1-1s.44773-.99999 1-1z"/><path d="m11 8c.5522 0 1 .44772 1 1 0 .55229-.4478 1-1 1-.5523-.00001-1.00004-.44772-1.00004-1s.44774-.99999 1.00004-1z"/><path clip-rule="evenodd" d="m7.99996 3c1.42335 0 2.28494-.00644 3.00974.19141 1.8494.50485 3.294 1.94947 3.7989 3.79882.1978.72483.1914 1.58641.1914 3.00977v.6953c-.0029.3252-.0201.6244-.1104.8906-.2082.6133-.6904 1.0956-1.3037 1.3037-.2663.0903-.5654.1076-.8906.1104h-9.39065c-.3252-.0028-.62436-.0201-.89062-.1104-.61331-.2081-1.09553-.6904-1.30372-1.3037-.09029-.2662-.10751-.5654-.110347-.8906v-.6953c0-1.42336-.006444-2.28494.191407-3.00977.50485-1.84934 1.94948-3.29397 3.79883-3.79882.72482-.19785 1.58641-.19141 3.00976-.19141zm0 1.5c-1.52137 0-2.13232.00719-2.61425.13867-1.33728.36504-2.38204 1.40979-2.74708 2.74707-.13147.48193-.13867 1.09288-.13867 2.61426v.3613c.00001.5779.01033.6816.03125.7432.05832.1714.19285.3059.36426.3643.06163.0209.16532.0312.74316.0312h8.72267c.5778 0 .6815-.0103.7432-.0312.1714-.0584.3059-.1929.3642-.3643.0209-.0616.0313-.1653.0313-.7432v-.3613c0-1.52139-.0072-2.13232-.1387-2.61426-.365-1.33728-1.4098-2.38203-2.7471-2.74707-.4819-.13147-1.09287-.13867-2.61424-.13867z" fill-rule="evenodd"/><path d="m9.66598.5c.41422 0 .75002.335786.75002.75 0 .41421-.3358.75-.75002.75h-3.33301c-.41405-.00019-.75-.33591-.75-.75 0-.414094.33595-.749806.75-.75z"/></g></svg>