<svg fill="none" height="20" viewBox="0 0 20 20" width="20" xmlns="http://www.w3.org/2000/svg"><g fill="#00a008"><path d="m14.584 17c.4139.0004.75.336.75.75s-.3361.7496-.75.75h-9.16701c-.41421 0-.75-.3358-.75-.75s.33579-.75.75-.75z"/><path d="m7 10c.55229 0 1 .4477 1 1s-.44771 1-1 1c-.55228 0-1-.4477-1-1s.44772-1 1-1z"/><path d="m13 10c.5523 0 1 .4477 1 1s-.4477 1-1 1-1-.4477-1-1 .4477-1 1-1z"/><path clip-rule="evenodd" d="m10.083 4.45801c1.2322 0 2.1972-.00081 2.9736.05566.7836.05702 1.4345.17529 2.0323.44141 1.2979.57791 2.3361 1.61614 2.914 2.91406.2662.59772.3844 1.2487.4414 2.03223.0565.77643.0557 1.74153.0557 2.97363 0 .2994.0003.5642-.0156.7832-.0165.2265-.0533.4626-.1573.6963-.2009.4514-.5622.8126-1.0136 1.0137-.2338.1041-.4697.1407-.6963.1572-.2192.0159-.4844.0156-.7842.0156h-11.66601c-.29976 0-.56495.0003-.78418-.0156-.22661-.0165-.46249-.0531-.69629-.1572-.45141-.2011-.81267-.5623-1.01367-1.0137-.10393-.2337-.14075-.4698-.15722-.6963-.01589-.219-.01563-.4838-.01563-.7832 0-1.2321-.0008-2.1972.05566-2.97363.05703-.78353.17529-1.43451.44141-2.03223.57796-1.29792 1.61612-2.33615 2.91406-2.91406.59776-.26612 1.24864-.38439 2.03223-.44141.77645-.05647 1.74146-.05566 2.97363-.05566zm-.16601 1.5c-1.25402 0-2.15486.00017-2.86426.05176-.70187.05104-1.15829.14943-1.53125.31543-.95938.42714-1.7271 1.19493-2.15429 2.15429-.16601.37293-.26437.82946-.31543 1.53121-.05159.7094-.05176 1.6104-.05176 2.8643 0 .3213.00067.5227.01172.6748.01046.1438.02712.186.03125.1953.05026.1128.14115.2027.25391.2529.00927.0042.05061.0218.19433.0323.15222.011.35403.0107.67578.0107h11.66601c.3218 0 .5236.0003.6758-.0107.1437-.0105.1851-.0281.1943-.0323.1128-.0502.2037-.1401.2539-.2529.0042-.0093.0208-.0515.0313-.1953.011-.1521.0117-.3535.0117-.6748 0-1.2539-.0002-2.1549-.0518-2.8643-.051-.70175-.1494-1.15828-.3154-1.53121-.4272-.95936-1.1949-1.72715-2.1543-2.15429-.3729-.166-.8294-.26439-1.5312-.31543-.7094-.05159-1.6103-.05176-2.8643-.05176z" fill-rule="evenodd"/><path d="m12.084 1.5c.4139.00036.75.33601.75.75s-.3361.74964-.75.75h-4.16701c-.41421 0-.75-.33579-.75-.75s.33579-.75.75-.75z"/></g></svg>