<svg fill="none" height="24" viewBox="0 0 24 24" width="24" xmlns="http://www.w3.org/2000/svg"><g fill="#00a008"><path d="m17.4999 20.5c.4142 0 .75.3358.75.75s-.3358.75-.75.75h-10.99998c-.41419 0-.75-.3358-.75-.75s.33581-.75.75-.75z"/><path d="m8.49992 12c.82843 0 1.5.6716 1.5 1.5s-.67157 1.5-1.5 1.5c-.8284 0-1.5-.6716-1.5-1.5s.6716-1.5 1.5-1.5z"/><path d="m15.4999 12c.8285 0 1.5.6716 1.5 1.5s-.6715 1.5-1.5 1.5c-.8284 0-1.5-.6716-1.5-1.5s.6716-1.5 1.5-1.5z"/><path clip-rule="evenodd" d="m12.3056 5.5c1.7672 0 2.7732-.00458 3.6221.18359 2.9402.65196 5.2367 2.94842 5.8886 5.88871.1882.8488.1836 1.8548.1836 3.622 0 .4762.0042.8363-.0654 1.1504-.2313 1.0434-1.0464 1.8586-2.0898 2.0899-.3142.0695-.6743.0654-1.1504.0654h-13.38871c-.47613 0-.83625.0041-1.15039-.0654-1.04338-.2314-1.85853-1.0465-2.08985-2.0899-.06957-.3141-.06543-.6742-.06543-1.1504 0-1.7672-.00458-2.7732.1836-3.622.65195-2.94028 2.94843-5.23674 5.88867-5.88871.84883-.18818 1.85482-.18359 3.62211-.18359zm-.6113 1.5c-1.84721 0-2.64891.0048-3.29691.14844-2.37135.52573-4.22331 2.37767-4.74903 4.74906-.14363.648-.14844 1.4496-.14844 3.2968 0 .5563.00418.7128.0293.8262.10514.4743.47594.845.9502.9502.11342.0251.26996.0293.82617.0293h13.38871c.5561 0 .7127-.0042.8261-.0293.4743-.1051.8451-.4759.9502-.9502.0252-.1134.0293-.2699.0293-.8262 0-1.8472-.0048-2.6488-.1484-3.2968-.5257-2.3714-2.3777-4.22334-4.749-4.74906-.648-.14363-1.4498-.14844-3.2969-.14844z" fill-rule="evenodd"/><path d="m14.4999 2c.4142 0 .75.33579.75.75s-.3358.75-.75.75h-4.99998c-.41419-.00003-.75-.3358-.75-.75s.33581-.74997.75-.75z"/></g></svg>