<svg fill="none" height="16" viewBox="0 0 16 16" width="16" xmlns="http://www.w3.org/2000/svg"><path clip-rule="evenodd" d="m8 1c3.866 0 7 3.13401 7 7 0 3.866-3.134 7-7 7-3.86599 0-7-3.134-7-7 0-3.86599 3.13401-7 7-7zm-.02344 9.2666c-.23674 0-.43933.0833-.60742.249-.16566.1657-.24748.3647-.24512.5967-.00234.2343.07951.4355.24512.6035.16809.1657.37068.249.60742.249.15152 0 .29111-.0385.41895-.1142.12773-.0781.2305-.1809.30859-.3086.08048-.1302.12262-.2735.125-.4297-.00237-.232-.08931-.431-.25976-.5967-.17043-.1656-.36793-.249-.59278-.249zm.14551-5.7666c-.42847.00001-.82069.0766-1.17578.23047-.3549.15147-.64011.38245-.85547.69238-.21537.30767-.32892.69859-.34082 1.17188h1.44922c.00716-.19393.05407-.35623.1416-.48633.08758-.13251.20063-.23159.33789-.29785.13723-.06856.28275-.10352.43652-.10352.15838.00003.30257.03349.43262.09961.13254.06627.23829.16112.31641.28418.07811.12308.11717.26637.11719.42969 0 .15376-.03399.29354-.10254.41894-.06866.12311-.16134.23609-.27735.33789-.11596.10175-.24782.1993-.39453.29395-.19641.12306-.36427.26066-.50391.41211-.13963.15147-.24594.35057-.31933.59668-.07102.24621-.10799.57691-.11035.99121v.12012h1.3457v-.12012c.00237-.23188.03211-.42737.08887-.58594.05917-.15858.14827-.29823.2666-.41894.12074-.12074.27489-.23737.46191-.34864.22223-.13243.41494-.28022.57808-.44336.1633-.16566.29-.35537.3799-.56836.0923-.21532.1387-.46147.1387-.73828 0-.4143-.1026-.76894-.3086-1.0625-.206-.29351-.49035-.51703-.85253-.67089-.3622-.15623-.77892-.23438-1.25-.23438z" fill="#00a008" fill-rule="evenodd"/></svg>