<svg fill="none" height="20" viewBox="0 0 20 20" width="20" xmlns="http://www.w3.org/2000/svg"><path clip-rule="evenodd" d="m10 1.5c4.6944 0 8.5 3.80558 8.5 8.5 0 4.6944-3.8056 8.5-8.5 8.5-4.69442 0-8.5-3.8056-8.5-8.5 0-4.69442 3.80558-8.5 8.5-8.5zm-.2207 11.4746c-.27917 0-.52003.0988-.72168.2959-.20161.1972-.30264.4347-.30274.7119 0 .2836.10103.5244.30274.7217.20168.1972.44244.2959.72168.2959.18593-.0001.3549-.0446.5068-.1338.1551-.0924.279-.2161.3721-.3701.0962-.1541.1445-.3257.1445-.5137-.0001-.2772-.1019-.5147-.3066-.7119-.2016-.1972-.4408-.2958-.7168-.2959zm.21875-7.6748c-.54306 0-1.04028.09864-1.49024.2959-.44663.19721-.80609.4934-1.0791.8877-.26998.39453-.41319.93096-.42871 1.5166h1.65723c.01551-.28967.08669-.57468.21386-.7627.13034-.1911.29376-.33331.48926-.42578.19845-.09539.4078-.14256.62793-.14257.23892 0 .45502.04882.64742.14746.1953.09858.3501.23743.4649.41601.1148.17878.1728.39029.1728.63379 0 .21568-.044.41128-.1308.58691-.0869.17261-.2064.32991-.3584.47168-.1489.13861-.3177.26673-.5069.38379-.2761.16953-.51068.35614-.70308.55957-.19238.20034-.34177.46514-.44727.79494-.1024.3298-.12385.7741-.12695 1.332v.0049h1.5186v-.0049c.0031-.3267.0427-.6013.1171-.8232.0776-.225.1954-.4205.3536-.5869.1613-.1665.3677-.3274.6191-.4815.2854-.16948.5324-.36241.7402-.57811.2078-.21567.3679-.46201.4795-.73926.1148-.27739.1719-.592.1719-.94336 0-.52079-.1275-.97054-.3818-1.34961-.2514-.3822-.6036-.67727-1.0567-.88378-.4498-.20639-.971-.30953-1.56345-.30958z" fill="#00a008" fill-rule="evenodd"/></svg>