<svg fill="none" height="24" viewBox="0 0 24 24" width="24" xmlns="http://www.w3.org/2000/svg"><path clip-rule="evenodd" d="m12 2c5.5228 0 10 4.47715 10 10 0 5.5228-4.4772 10-10 10-5.52285 0-10-4.4772-10-10 0-5.52285 4.47715-10 10-10zm-.3203 13.5928c-.3195.0001-.5945.1136-.8252.3408s-.3467.5008-.3467.8203c.0001.3266.116.6039.3467.8311.2307.227.5059.3407.8252.3408.2131 0 .407-.0523.581-.1553.1775-.1065.3193-.2483.4258-.4258.11-.1774.165-.3743.1651-.5908 0-.3196-.1172-.593-.3516-.8203-.2308-.2273-.5043-.3408-.8203-.3408zm.251-8.8428c-.6215 0-1.1902.11355-1.7051.34082-.51117.22722-.92293.56813-1.23537 1.02246-.30894.45455-.47247 1.212-.49023 1.88672h1.8965c.0177-.33381.0995-.80194.2451-1.01855.149-.2198.3352-.38279.5586-.48926.2273-.11009.4676-.16504.7197-.16504.2734.00002.5201.05632.7403.16992.2236.1136.4008.27362.5322.47949.1313.2059.1972.44907.1972.72949 0 .24851-.049.47435-.1484.67675-.0993.1987-.2363.3797-.4101.543-.1705.1598-.3645.3074-.5811.4424-.3161.1953-.5845.4101-.8047.6445-.22.2307-.39.5363-.5107.916-.1172.3799-.1781.8915-.1817 1.5342v.1387h1.7744v-.1387c.0036-.3764.0476-.6926.1329-.9483.0887-.2591.2242-.484.4052-.6757.1847-.1918.4204-.3772.708-.5547.3267-.1953.6088-.4175.8467-.666.2378-.2485.421-.5321.5488-.8516.1314-.3196.1973-.6821.1973-1.08691 0-.60014-.1453-1.11888-.4365-1.55567-.2877-.44033-.6915-.77965-1.21-1.01757-.5147-.23773-1.1111-.35642-1.789-.35645z" fill="#00a008" fill-rule="evenodd"/></svg>