<svg fill="none" height="16" viewBox="0 0 16 16" width="16" xmlns="http://www.w3.org/2000/svg"><g fill="#00a008"><path d="m7.25 4.74988c0-.41422.33579-.75.75-.75s.75.33578.75.75v3.5c0 .41421-.33579.75-.75.75s-.75-.33579-.75-.75z"/><path d="m9 10.9999c0 .5523-.44771 1-1 1-.55228 0-1-.4477-1-1s.44772-1.00002 1-1.00002c.55229 0 1 .44772 1 1.00002z"/><path clip-rule="evenodd" d="m13.482 3.13946-3.99997-2.272732c-.91903-.522174-2.04503-.522174-2.96406 0l-4 2.272732c-.93832.53313-1.51797 1.52917-1.51797 2.60836v4.50408c0 1.0792.57965 2.0753 1.51797 2.6084l4 2.2727c.91903.5222 2.04503.5222 2.96406 0l3.99997-2.2727c.9383-.5331 1.518-1.5292 1.518-2.6084v-4.50408c0-1.07919-.5797-2.07523-1.518-2.60836zm-6.22301-.96855c.45951-.26108 1.02251-.26108 1.48202 0l3.99999 2.27273c.4692.26657.759.76459.759 1.30418v4.50408c0 .5396-.2898 1.0377-.759 1.3042l-3.99999 2.2728c-.45951.261-1.02251.261-1.48202 0l-4-2.2728c-.46916-.2665-.75899-.7646-.75899-1.3042v-4.50408c0-.53959.28983-1.03761.75899-1.30418z" fill-rule="evenodd"/></g></svg>