<svg fill="none" height="20" viewBox="0 0 20 20" width="20" xmlns="http://www.w3.org/2000/svg"><g fill="#00a008"><path d="m10 10.9999c.4142 0 .75-.3357.75-.75v-4.49996c0-.41421-.3358-.75-.75-.75-.41421 0-.75.33579-.75.75v4.49996c0 .4143.33579.75.75.75z"/><path d="m10 13.9999c.5523 0 1-.4477 1-1 0-.5522-.4477-1-1-1-.55228 0-1 .4478-1 1 0 .5523.44772 1 1 1z"/><path clip-rule="evenodd" d="m16.7365 4.12176-5-2.85714c-1.076-.61487-2.39697-.614869-3.47299 0l-5 2.85714c-1.09051.62315-1.76351 1.78285-1.76351 3.03885v5.67869c0 1.256.673 2.4157 1.76351 3.0389l5 2.8571c1.07602.6149 2.39699.6149 3.47299 0l5-2.8571c1.0905-.6232 1.7635-1.7829 1.7635-3.0389v-5.67869c0-1.256-.673-2.4157-1.7635-3.03885zm-7.72878-1.55478c.61487-.35135 1.36968-.35135 1.98458 0l5 2.85714c.6231.35609 1.0077 1.01878 1.0077 1.73649v5.67869c0 .7177-.3846 1.3804-1.0077 1.7365l-5 2.8571c-.6149.3514-1.36971.3514-1.98458 0l-5-2.8571c-.62315-.3561-1.00772-1.0188-1.00772-1.7365v-5.67869c0-.71771.38457-1.3804 1.00772-1.73649z" fill-rule="evenodd"/></g></svg>