<svg fill="none" height="24" viewBox="0 0 24 24" width="24" xmlns="http://www.w3.org/2000/svg"><g fill="#00a008"><path d="m12 7.00006c-.4142 0-.75.33579-.75.75v4.50004c0 .4142.3358.75.75.75s.75-.3358.75-.75v-4.50004c0-.41421-.3358-.75-.75-.75z"/><path d="m12 16.0001c.5523 0 1-.4478 1-1 0-.5523-.4477-1-1-1s-1 .4477-1 1c0 .5522.4477 1 1 1z"/><path clip-rule="evenodd" d="m19.9977 5.0791-6-3.45883c-1.2364-.712769-2.759-.71277-3.9954 0l-6.00001 3.45883c-1.2389.71418-2.00229 2.03542-2.00229 3.46542v6.91108c0 1.43.76339 2.7512 2.00229 3.4654l6.00001 3.4588c1.2364.7128 2.759.7128 3.9954 0l6-3.4588c1.2389-.7142 2.0023-2.0354 2.0023-3.4654v-6.91108c0-1.43001-.7634-2.75124-2.0023-3.46542zm-9.2463-2.15929c.7728-.44549 1.7244-.44549 2.4972 0l6 3.45882c.7743.44636 1.2514 1.27213 1.2514 2.16589v6.91108c0 .8937-.4771 1.7195-1.2514 2.1659l-6 3.4588c-.7728.4455-1.7244.4455-2.4972 0l-5.99997-3.4588c-.77431-.4464-1.25143-1.2722-1.25143-2.1659v-6.91108c0-.89375.47712-1.71953 1.25143-2.16589z" fill-rule="evenodd"/></g></svg>