<svg fill="none" height="16" viewBox="0 0 16 16" width="16" xmlns="http://www.w3.org/2000/svg"><path d="m1 5c0-1.65685 1.34315-3 3-3h8c1.6569 0 3 1.34315 3 3v6c0 1.6569-1.3431 3-3 3h-8c-1.65685 0-3-1.3431-3-3z" fill="#fff"/><g fill="#f00"><path d="m9 2h-2v5h-6v2h6v5h2v-5h6v-2h-6z"/><path d="m5 3h-1v.99994h-1v1h1v1.00006h1v-1.00006h1v-1h-1z"/><path d="m4 10h1v.9999h1v1h-1v1.0001h-1v-1.0001h-1v-1h1z"/><path d="m12 3h-1v.99994h-1v1h1v1.00006h1v-1.00006h1v-1h-1z"/><path d="m11 10h1v.9999h1v1h-1v1.0001h-1v-1.0001h-1v-1h1z"/></g><path clip-rule="evenodd" d="m12 3h-8c-1.10457 0-2 .89543-2 2v6c0 1.1046.89543 2 2 2h8c1.1046 0 2-.8954 2-2v-6c0-1.10457-.8954-2-2-2zm-8-1c-1.65685 0-3 1.34315-3 3v6c0 1.6569 1.34315 3 3 3h8c1.6569 0 3-1.3431 3-3v-6c0-1.65685-1.3431-3-3-3z" fill="#a50c0f" fill-opacity=".3" fill-rule="evenodd"/></svg>