<svg fill="none" height="20" viewBox="0 0 20 20" width="20" xmlns="http://www.w3.org/2000/svg"><path d="m1 6c0-1.65685 1.34315-3 3-3h12c1.6569 0 3 1.34315 3 3v8c0 1.6569-1.3431 3-3 3h-12c-1.65685 0-3-1.3431-3-3z" fill="#fff"/><g fill="#f00"><path d="m11 3h-2v6h-8v2h8v6h2v-6h8v-2h-8z"/><path d="m6 5h-1v1h-1v1h1v1h1v-1h1v-1h-1z"/><path d="m6 5h-1v1h-1v1h1v1h1v-1h1v-1h-1z"/><path d="m6 12h-1v1h-1v1h1v1h1v-1h1v-1h-1z"/><path d="m6 12h-1v1h-1v1h1v1h1v-1h1v-1h-1z"/><path d="m15 5h-1v1h-1v1h1v1h1v-1h1v-1h-1z"/><path d="m15 5h-1v1h-1v1h1v1h1v-1h1v-1h-1z"/><path d="m15 12h-1v1h-1v1h1v1h1v-1h1v-1h-1z"/><path d="m15 12h-1v1h-1v1h1v1h1v-1h1v-1h-1z"/></g><path clip-rule="evenodd" d="m16 4h-12c-1.10457 0-2 .89543-2 2v8c0 1.1046.89543 2 2 2h12c1.1046 0 2-.8954 2-2v-8c0-1.10457-.8954-2-2-2zm-12-1c-1.65685 0-3 1.34315-3 3v8c0 1.6569 1.34315 3 3 3h12c1.6569 0 3-1.3431 3-3v-8c0-1.65685-1.3431-3-3-3z" fill="#a50c0f" fill-opacity=".3" fill-rule="evenodd"/></svg>