<svg fill="none" height="24" viewBox="0 0 24 24" width="24" xmlns="http://www.w3.org/2000/svg"><path d="m2 7c0-1.65685 1.34315-3 3-3h14c1.6569 0 3 1.34315 3 3v10c0 1.6569-1.3431 3-3 3h-14c-1.65685 0-3-1.3431-3-3z" fill="#fff"/><g fill="#f00"><path d="m14 4h-4v6h-8v4h8v6h4v-6h8v-4h-8z"/><path d="m14 4h-4v6h-8v4h8v6h4v-6h8v-4h-8z"/><path d="m7 6h-1v1h-1v1h1v1h1v-1h1v-1h-1z"/><path d="m7 6h-1v1h-1v1h1v1h1v-1h1v-1h-1z"/><path d="m6 15h1v1h1v1h-1v1h-1v-1h-1v-1h1z"/><path d="m6 15h1v1h1v1h-1v1h-1v-1h-1v-1h1z"/><path d="m18 6h-1v1h-1v1h1v1h1v-1h1v-1h-1z"/><path d="m18 6h-1v1h-1v1h1v1h1v-1h1v-1h-1z"/><path d="m17 15h1v1h1v1h-1v1h-1v-1h-1v-1h1z"/><path d="m17 15h1v1h1v1h-1v1h-1v-1h-1v-1h1z"/></g><path clip-rule="evenodd" d="m19 5h-14c-1.10457 0-2 .89543-2 2v10c0 1.1046.89543 2 2 2h14c1.1046 0 2-.8954 2-2v-10c0-1.10457-.8954-2-2-2zm-14-1c-1.65685 0-3 1.34315-3 3v10c0 1.6569 1.34315 3 3 3h14c1.6569 0 3-1.3431 3-3v-10c0-1.65685-1.3431-3-3-3z" fill="#a50c0f" fill-opacity=".3" fill-rule="evenodd"/></svg>