<svg fill="none" height="16" viewBox="0 0 16 16" width="16" xmlns="http://www.w3.org/2000/svg"><g fill="#00a008"><path d="m8 9.25004c0-.41421.33579-.75.75-.75h2.5c.4142 0 .75.33579.75.75 0 .41422-.3358.74996-.75.74996h-2.5c-.41421 0-.75-.33574-.75-.74996z"/><path clip-rule="evenodd" d="m7.1.550044c-.24853-.331371-.71863-.398528-1.05-.15s-.39853.718626-.15 1.049996l.4125.55h-2.5625c-1.51878 0-2.75 1.23122-2.75 2.75v4.5c0 1.51876 1.23122 2.74996 2.75 2.74996h1.25v1h-2.25c-.41421 0-.75.3358-.75.75 0 .4143.33579.75.75.75h10.5c.4142 0 .75-.3357.75-.75 0-.4142-.3358-.75-.75-.75h-2.25v-1h1.25c1.5188 0 2.75-1.2312 2.75-2.74996v-4.5c0-1.51878-1.2312-2.75-2.75-2.75h-2.5625l.4125-.55c.2485-.33137.1814-.801468-.15-1.049996-.33137-.248528-.80147-.181371-1.05.15l-.7.933336c-.1.13333-.3.13333-.4 0zm2.4 12.449956v-1h-3v1zm-7-8.24996c0-.69035.55964-1.25 1.25-1.25h8.5c.6904 0 1.25.55965 1.25 1.25v4.5c0 .69036-.5596 1.24996-1.25 1.24996h-8.5c-.69036 0-1.25-.5596-1.25-1.24996z" fill-rule="evenodd"/></g></svg>