<svg fill="none" height="20" viewBox="0 0 20 20" width="20" xmlns="http://www.w3.org/2000/svg"><g fill="#00a008"><path d="m10.75 11c-.4142 0-.75.3358-.75.75s.3358.75.75.75h3.5c.4142 0 .75-.3358.75-.75s-.3358-.75-.75-.75z"/><path clip-rule="evenodd" d="m8.07617.519881c-.26518-.318208-.7381-.361201-1.05631-.096028s-.3612.738097-.09603 1.056307l1.26656 1.51986h-3.44039c-1.79493 0-3.25 1.45507-3.25 3.25v5.49998c0 1.7949 1.45508 3.25 3.25 3.25h1.25v1.5h-1.25c-.41421 0-.75.3358-.75.75s.33579.75.75.75h10.5c.4142 0 .75-.3358.75-.75s-.3358-.75-.75-.75h-1.25v-1.5h1.25c1.7949 0 3.25-1.4551 3.25-3.25v-5.49998c0-1.79493-1.4551-3.25-3.25-3.25h-3.4404l1.2666-1.51986c.2651-.31821.2221-.791134-.0961-1.056307s-.7911-.22218-1.0563.096028l-1.7317 2.078139c-.1.11993-.28421.11993-.38415 0zm4.42383 14.480119h-5v1.5h5zm-9.5-8.74998c0-.9665.7835-1.75 1.75-1.75h10.5c.9665 0 1.75.7835 1.75 1.75v5.49998c0 .9665-.7835 1.75-1.75 1.75h-10.5c-.9665 0-1.75-.7835-1.75-1.75z" fill-rule="evenodd"/></g></svg>