<svg fill="none" height="24" viewBox="0 0 24 24" width="24" xmlns="http://www.w3.org/2000/svg"><g fill="#00a008"><path d="m13.75 14c-.4142 0-.75.3358-.75.75s.3358.75.75.75h4.5c.4142 0 .75-.3358.75-.75s-.3358-.75-.75-.75z"/><path clip-rule="evenodd" d="m10.0762.519881c-.26521-.318208-.73813-.361201-1.05634-.096028s-.3612.738097-.09603 1.056307l1.68327 2.01986h-5.1071c-2.20914 0-4 1.79086-4 4v6.99998c0 2.2092 1.79086 4 4 4h2.5v1.5h-2.25c-.41421 0-.75.3358-.75.75s.33579.75.75.75h12.5c.4142 0 .75-.3358.75-.75s-.3358-.75-.75-.75h-2.25v-1.5h2.5c2.2091 0 4-1.7908 4-4v-6.99998c0-2.20914-1.7909-4-4-4h-5.1071l1.6833-2.01986c.2651-.31821.2221-.791134-.0961-1.056307s-.7911-.22218-1.0563.096028l-1.7317 2.078139c-.1.11993-.2842.11993-.3842 0zm4.4238 19.480119h-5v-1.5h5zm4-3c1.3807 0 2.5-1.1193 2.5-2.5v-6.99998c0-1.38071-1.1193-2.5-2.5-2.5h-13c-1.38071 0-2.5 1.11929-2.5 2.5v6.99998c0 1.3807 1.11929 2.5 2.5 2.5z" fill-rule="evenodd"/></g></svg>