<svg fill="none" height="16" viewBox="0 0 16 16" width="16" xmlns="http://www.w3.org/2000/svg"><g fill="#00a008"><path clip-rule="evenodd" d="m6 2c-1.38071 0-2.5 1.11929-2.5 2.5v.5c0 1.38071 1.11929 2.5 2.5 2.5s2.5-1.11929 2.5-2.5v-.5c0-1.38071-1.11929-2.5-2.5-2.5zm-1 2.5c0-.55228.44772-1 1-1s1 .44772 1 1v.5c0 .55228-.44772 1-1 1s-1-.44772-1-1z" fill-rule="evenodd"/><path clip-rule="evenodd" d="m4.99118 8c-2.20427 0-3.99118 1.78691-3.99118 3.9912 0 .3503.14073.778.53888 1.0423.57257.3801 1.87851.9665 4.46112.9665s3.88855-.5864 4.4611-.9665c.3982-.2643.5389-.692.5389-1.0423 0-2.20429-1.78691-3.9912-3.99118-3.9912zm1.00882 4.5c-2.06645 0-3.09035-.4104-3.49686-.635.06571-1.3172 1.15451-2.365 2.48804-2.365h2.01764c1.33353 0 2.42233 1.0478 2.48804 2.365-.40651.2246-1.43042.635-3.49686.635z" fill-rule="evenodd"/><path d="m9.25 2.75c0-.41421.33579-.75.75-.75 1.3807 0 2.5 1.11929 2.5 2.5v.5c0 1.38071-1.1193 2.5-2.5 2.5-.41421 0-.75-.33579-.75-.75s.33579-.75.75-.75c.5523 0 1-.44772 1-1v-.5c0-.55228-.4477-1-1-1-.41421 0-.75-.33579-.75-.75z"/><path d="m12.8457 8.44692c-.3676-.19083-.8204-.04751-1.0112.32013-.1908.36763-.0475.82036.3201 1.01119.7658.39746 1.2971 1.17866 1.3424 2.08676-.2083.1151-.5766.2779-1.1618.4098-.4041.0912-.6578.4926-.5667.8967.0912.404.4926.6577.8967.5666.9066-.2045 1.4718-.4893 1.7961-.7046.3981-.2643.5389-.692.5389-1.0424 0-1.5432-.8761-2.88057-2.1545-3.54418z"/></g></svg>