<svg fill="none" height="20" viewBox="0 0 20 20" width="20" xmlns="http://www.w3.org/2000/svg"><g fill="#00a008"><path clip-rule="evenodd" d="m5 5.5c0-1.65685 1.34315-3 3-3s3 1.34315 3 3v1.5c0 1.65685-1.34315 3-3 3s-3-1.34315-3-3zm3-1.5c-.82843 0-1.5.67157-1.5 1.5v1.5c0 .82843.67157 1.5 1.5 1.5s1.5-.67157 1.5-1.5v-1.5c0-.82843-.67157-1.5-1.5-1.5z" fill-rule="evenodd"/><path clip-rule="evenodd" d="m2 15.2588c0-2.6282 2.1306-4.7588 4.75883-4.7588h2.48236c2.62821 0 4.75881 2.1306 4.75881 4.7588 0 .4858-.1948 1.119-.8207 1.4328-.734.368-2.2216.8084-5.17932.8084-2.9577 0-4.44534-.4404-5.17935-.8084-.62583-.3138-.82063-.947-.82063-1.4328zm4.75883-3.2588c-1.7998 0-3.25883 1.459-3.25883 3.2588 0 .0518.00828.0854.01437.1025.46442.2268 1.69864.6387 4.48561.6387 2.78692 0 4.02122-.4119 4.48562-.6387.0061-.0171.0144-.0507.0144-.1025 0-1.7998-1.459-3.2588-3.25881-3.2588z" fill-rule="evenodd"/><path d="m12 3.25c0-.41421.3358-.75.75-.75 1.5188 0 2.75 1.23122 2.75 2.75v2c0 1.51878-1.2312 2.75-2.75 2.75-.4142 0-.75-.33579-.75-.75s.3358-.75.75-.75c.6903 0 1.25-.55964 1.25-1.25v-2c0-.69036-.5597-1.25-1.25-1.25-.4142 0-.75-.33579-.75-.75z"/><path d="m15.3296 10.9817c-.3721-.182-.8212-.0278-1.0032.3443-.1819.3721-.0278.8212.3443 1.0032 1.0849.5305 1.8295 1.6438 1.8295 2.9296 0 .0518-.0083.0854-.0144.1025-.1438.0703-.3642.1596-.6864.2491-.3991.1108-.6327.5243-.5219.9234.1109.3991.5243.6327.9234.5219.42-.1167.7385-.2437.9786-.3641.6259-.3137.8207-.947.8207-1.4328 0-1.8803-1.0907-3.5046-2.6706-4.2771z"/></g></svg>