<svg fill="none" height="24" viewBox="0 0 24 24" width="24" xmlns="http://www.w3.org/2000/svg"><g fill="#00a008"><path clip-rule="evenodd" d="m9.5 3c-1.933 0-3.5 1.567-3.5 3.5v1c0 1.933 1.567 3.5 3.5 3.5s3.5-1.567 3.5-3.5v-1c0-1.933-1.567-3.5-3.5-3.5zm-2 3.5c0-1.10457.89543-2 2-2 1.1046 0 2 .89543 2 2v1c0 1.10457-.8954 2-2 2-1.10457 0-2-.89543-2-2z" fill-rule="evenodd"/><path clip-rule="evenodd" d="m8.10388 12c-3.37108 0-6.10388 2.7328-6.10388 6.1039 0 .5793.21826 1.2903.89192 1.6783.91969.5296 2.83781 1.2178 6.60808 1.2178 3.7703 0 5.6884-.6882 6.6081-1.2178.6736-.388.8919-1.099.8919-1.6783 0-3.3711-2.7328-6.1039-6.1039-6.1039zm-4.60388 6.1039c0-2.5427 2.06123-4.6039 4.60388-4.6039h2.79222c2.5427 0 4.6039 2.0612 4.6039 4.6039 0 .2556-.0906.3497-.1405.3784-.6237.3592-2.2599 1.0177-5.8595 1.0177s-5.23584-.6585-5.85947-1.0177c-.0499-.0287-.14053-.1228-.14053-.3784z" fill-rule="evenodd"/><path d="m13.75 3.75c0-.41421.3358-.75.75-.75 1.933 0 3.5 1.567 3.5 3.5v1c0 1.933-1.567 3.5-3.5 3.5-.4142 0-.75-.3358-.75-.75 0-.41421.3358-.75.75-.75 1.1046 0 2-.89543 2-2v-1c0-1.10457-.8954-2-2-2-.4142 0-.75-.33579-.75-.75z"/><path d="m16.8688 12.0772c-.409-.0656-.7937.2128-.8592.6218-.0656.409.2128.7937.6218.8593 2.193.3515 3.8686 2.2536 3.8686 4.5456 0 .2556-.0906.3497-.1405.3784-.3073.177-.8607.427-1.7758.635-.4039.0918-.6569.4937-.5651.8976.0919.4039.4937.6569.8976.5651 1.041-.2366 1.738-.5364 2.1919-.7978.6736-.388.8919-1.099.8919-1.6783 0-3.0404-2.2223-5.5604-5.1312-6.0267z"/></g></svg>