<svg fill="none" height="16" viewBox="0 0 16 16" width="16" xmlns="http://www.w3.org/2000/svg"><g fill="#00a008"><path d="m4.80371 8.54991c.29291-.2927.76772-.29283 1.06055 0 .29236.29287.29255.76779 0 1.06055l-1.39063 1.38964h9.52637c.4141.0002.75.3359.75.75-.0001.414-.336.7498-.75.75h-9.51855l1.38281 1.3828c.29247.2928.29244.7677 0 1.0606-.29279.2928-.76763.2926-1.06055 0l-2.65039-2.6494c-.01664-.0158-.03173-.0327-.04687-.0499-.01351-.0151-.02603-.0309-.03809-.0468-.09375-.1252-.15134-.2789-.15137-.4473 0-.062.00829-.1221.02246-.1797.0313-.1295.09621-.2524.19727-.3535z"/><path d="m10.8027 1.04991c.2929-.292838.7677-.29273 1.0606 0l2.667 2.66699c.1143.11449.182.25696.207.40528.0072.04162.0127.08425.0127.12793 0 .17004-.0599.3244-.1553.45019-.0113.01484-.0225.0298-.0351.04395-.0152.01715-.0302.0341-.0469.0498l-2.6494 2.64942c-.2929.2927-.7677.2927-1.0606 0-.2925-.29288-.2926-.76776 0-1.06055l1.3828-1.38281h-9.51851c-.41417 0-.74992-.33585-.75-.75 0-.41422.33579-.75.75-.75h9.52641l-1.3907-1.38965c-.2926-.29281-.2925-.76769 0-1.06055z"/></g></svg>