<svg fill="none" height="20" viewBox="0 0 20 20" width="20" xmlns="http://www.w3.org/2000/svg"><g fill="#00a008"><path d="m6.13574 10.8898c.29283-.2929.76764-.2928 1.06055 0 .29289.2928.29289.7676 0 1.0605l-2.05078 2.0498h12.35449c.4141.0002.75.3359.75.75-.0001.414-.336.7498-.75.75h-12.36035l2.05664 2.0566c.29289.2929.29289.7677 0 1.0606-.29294.2923-.76786.2927-1.06055 0l-3.33301-3.334c-.098-.0981-.15999-.2176-.19238-.3428-.01603-.061-.02733-.1244-.02734-.1904 0-.1728.05999-.3312.1582-.458.00862-.0111.01802-.0216.02734-.0322.01636-.0189.03265-.0376.05079-.0547z"/><path d="m13.6367 1.37999c.2929-.29273.7677-.29284 1.0606 0l3.333 3.33301c.1169.11696.1845.26322.208.41504.0065.03977.0117.08044.0117.12207 0 .22507-.1018.42407-.2588.56152l-3.2939 3.2959c-.2928.2926-.7677.29238-1.0606 0-.2928-.29285-.2927-.76764 0-1.06055l2.0469-2.04687h-12.35059c-.41402-.00018-.74993-.33596-.75-.75 0-.41411.33593-.74983.75-.75h12.36429l-2.0606-2.05957c-.2928-.29285-.2927-.76765 0-1.06055z"/></g></svg>