<svg fill="none" height="24" viewBox="0 0 24 24" width="24" xmlns="http://www.w3.org/2000/svg"><g fill="#00a008"><path d="m7.46973 12.7197c.29289-.2929.76765-.2929 1.06054 0 .29284.2929.29288.7676 0 1.0605l-2.71972 2.7197h15.18945c.4142 0 .75.3358.75.75s-.3358.75-.75.75h-15.18945l2.71972 2.7198c.29284.2929.29288.7676 0 1.0605-.29288.2928-.76766.2928-1.06054 0l-4-4c-.032-.032-.05996-.0667-.08496-.1025-.03073-.0441-.05734-.0913-.07813-.1416-.02074-.0503-.03558-.1024-.04492-.1553-.00749-.0425-.01172-.0862-.01172-.1309 0-.0453.00402-.0897.01172-.1328.00909-.0508.02334-.1009.04297-.1494l.0039-.0097c.01159-.0274.02737-.0526.042-.0782.03243-.0568.07063-.1116.11914-.1601z"/><path d="m16.4697 2.21967c.2929-.29289.7677-.29289 1.0606 0l4 4c.0484.0484.0857.10347.1181.16016.0156.02715.0319.05386.044.083.0207.05001.0355.1017.0449.1543.0077.04314.0127.08745.0127.13281 0 .04472-.0052.0883-.0127.13086-.0094.05295-.0241.10494-.0449.15528-.0209.05036-.0473.09747-.0781.1416-.025.0357-.0522.07067-.084.10254l-4 3.99998c-.2929.2928-.7677.2928-1.0606 0-.2928-.2929-.2928-.7676 0-1.0605l2.7198-2.71976h-15.1895c-.41419 0-.74997-.33581-.75-.75 0-.41421.33579-.75.75-.75h15.1895l-2.7198-2.71972c-.2928-.29288-.2928-.76765 0-1.06055z"/></g></svg>