<svg fill="none" height="16" viewBox="0 0 16 16" width="16" xmlns="http://www.w3.org/2000/svg" xmlns:xlink="http://www.w3.org/1999/xlink"><radialGradient id="a" cx="0" cy="0" gradientTransform="matrix(0 5.5 -5.5 0 8 8)" gradientUnits="userSpaceOnUse" r="1"><stop offset=".703125" stop-color="#ffa927"/><stop offset="1" stop-color="#ff6b00"/></radialGradient><circle cx="8" cy="8" fill="#ffb422" r="7"/><circle cx="8" cy="8" fill="url(#a)" r="5.5"/><path d="m13.4944 8.25c.0037-.08287.0056-.16622.0056-.25 0-3.03757-2.4624-5.5-5.5-5.5-3.03757 0-5.5 2.46243-5.5 5.5 0 .08378.00187.16713.00558.25.1307-2.92153 2.54064-5.25 5.49442-5.25 2.9538 0 5.3637 2.32847 5.4944 5.25z" fill="#ff640d"/><path d="m13.4944 8c.0037.08287.0056.16622.0056.25 0 3.0376-2.4624 5.5-5.5 5.5-3.03757 0-5.5-2.4624-5.5-5.5 0-.08378.00187-.16713.00558-.25.1307 2.9215 2.54064 5.25 5.49442 5.25 2.9538 0 5.3637-2.3285 5.4944-5.25z" fill="#fff48c"/><path d="m6.2 5.5h-1.2v2h-1v1h1v1h-1v1h1v1h1v-3.85833l1.5 2.85833h1l1.5-2.85833v3.85833h1v-1h1v-1h-1v-1h1v-1h-1v-2h-1.2l-1.8 3.5z" fill="#e35a0d"/><path d="m6.2 5h-1.2v2h-1v1h1v1h-1v1h1v1h1v-3.85833l1.5 2.85833h1l1.5-2.85833v3.85833h1v-1h1v-1h-1v-1h1v-1h-1v-2h-1.2l-1.8 3.5z" fill="#fff"/></svg>