<svg fill="none" height="20" viewBox="0 0 20 20" width="20" xmlns="http://www.w3.org/2000/svg" xmlns:xlink="http://www.w3.org/1999/xlink"><radialGradient id="a" cx="0" cy="0" gradientTransform="matrix(0 7 -7 0 10 10)" gradientUnits="userSpaceOnUse" r="1"><stop offset=".703125" stop-color="#ffa927"/><stop offset="1" stop-color="#ff6b00"/></radialGradient><circle cx="10" cy="10" fill="#ffb422" r="9"/><circle cx="10" cy="10" fill="url(#a)" r="7"/><path d="m16.9956 10.25c.0029-.083.0044-.1663.0044-.25 0-3.86599-3.134-7-7-7-3.86599 0-7 3.13401-7 7 0 .0837.00147.167.00438.25.13164-3.7502 3.21331-6.75 6.99562-6.75 3.7823 0 6.864 2.9998 6.9956 6.75z" fill="#ff640d"/><path d="m16.9956 10c.0029.083.0044.1663.0044.25 0 3.866-3.134 7-7 7-3.86599 0-7-3.134-7-7 0-.0837.00147-.167.00438-.25.13164 3.7502 3.21331 6.75 6.99562 6.75 3.7823 0 6.864-2.9998 6.9956-6.75z" fill="#fff48c"/><path d="m6.5 8v-2.5h1.5l1.99978 5.3327 1.99982-5.3327h1.5l.0004 2.5h1.5v1.5h-1.5v1.5h1.5v1.5h-1.5v2h-1.5v-5.00103l-1.0719 3.00103h-1.85667l-1.07143-3v5h-1.5v-2h-1.5v-1.5h1.5v-1.5h-1.5v-1.5z" fill="#e35a0d"/><path d="m6.5 8v-3h1.5l1.99978 5.3327 1.99982-5.3327h1.5l.0004 3h1.5v1h-1.5v2h1.5v1h-1.5v2h-1.5v-5.00103l-1.0719 3.00103h-1.85667l-1.07143-3v5h-1.5v-2h-1.5v-1h1.5v-2h-1.5v-1z" fill="#fff"/></svg>