<svg fill="none" height="24" viewBox="0 0 24 24" width="24" xmlns="http://www.w3.org/2000/svg" xmlns:xlink="http://www.w3.org/1999/xlink"><radialGradient id="a" cx="0" cy="0" gradientTransform="matrix(0 8 -8 0 12 12)" gradientUnits="userSpaceOnUse" r="1"><stop offset=".703125" stop-color="#ffa927"/><stop offset="1" stop-color="#ff6b00"/></radialGradient><circle cx="12" cy="12" fill="#ffb422" r="10"/><circle cx="12" cy="12" fill="url(#a)" r="8"/><path d="m19.9962 12.25c.0025-.083.0038-.1664.0038-.25 0-4.41828-3.5817-8-8-8-4.41828 0-8 3.58172-8 8 0 .0836.00128.167.00383.25.13208-4.3026 3.66153-7.75 7.99617-7.75 4.3346 0 7.8641 3.4474 7.9962 7.75z" fill="#ff640d"/><path d="m19.9962 12c.0025.083.0038.1664.0038.25 0 4.4183-3.5817 8-8 8-4.41828 0-8-3.5817-8-8 0-.0836.00128-.167.00383-.25.13208 4.3026 3.66153 7.75 7.99617 7.75 4.3346 0 7.8641-3.4474 7.9962-7.75z" fill="#fff48c"/><path d="m8.5 10v-2.5h1.5l1.9998 5.3327 1.9998-5.3327h1.5l.0004 2.5h1.5v1.5h-1.5v1.5h1.5v1.5h-1.5v2h-1.5v-5.001l-1.0719 3.001h-1.8567l-1.0714-3v5h-1.5v-2h-1.5v-1.5h1.5v-1.5h-1.5v-1.5z" fill="#e35a0d"/><path d="m8.50044 10v-3h1.49996l1.9998 5.3327 1.9998-5.3327h1.5l.0004 3h1.5v1h-1.5l-.0004 2h1.5l.0004 1h-1.5v2h-1.5v-5.001l-1.0718 3.001h-1.8567l-1.0715-3v5h-1.49996v-2h-1.5l-.00044-1h1.5l.00044-2h-1.5v-1z" fill="#fff"/></svg>