<svg fill="none" height="16" viewBox="0 0 16 16" width="16" xmlns="http://www.w3.org/2000/svg"><path clip-rule="evenodd" d="m2 2.51752c.0003-1.15647 1.25017-1.879768 2.25-1.30176l9.5 5.49512c1 .57839.9999 2.02505 0 2.60351l-9.5 5.49511-.19043.0928c-.89701.3664-1.91307-.2212-2.04492-1.1826l-.01465-.2119zm1.53027 10.51268c-.00967.0097-.02022.0183-.03027.0274v.4521l5.35254-3.0967-1.35254-1.35251zm-.03027-2.0908 2.93945-2.93946-2.93945-2.93945zm5.06055-2.93946 1.63575 1.63574 2.8027-1.62012.001-.00292-.001-.00293-2.8183-1.63086zm-5.06055-5.05859c.01022.00916.02045.01849.03027.02832l3.96973 3.96972 1.33691-1.33789-5.33691-3.08691z" fill="#00a008" fill-rule="evenodd"/></svg>