<svg fill="none" height="20" viewBox="0 0 20 20" width="20" xmlns="http://www.w3.org/2000/svg"><path clip-rule="evenodd" d="m3 3.34016c.00035-1.40443 1.51828-2.28231 2.73242-1.58008l11.53518 6.67285c1.2142.70236 1.2142 2.45777 0 3.16017l-11.53518 6.6728-.11523.0616c-1.1544.5664-2.52596-.2269-2.61328-1.5118l-.00391-.1298zm1.52441 12.69624c-.00778.0077-.01638.0143-.02441.0215v.628c.00027.254.27142.4027.48145.2812l6.71285-3.8838-2.07907-2.0361zm-.02441-2.0761 4.04297-3.96194-4.04297-3.95898zm6.1865-3.96291 2.3555 2.30661 3.4746-2.0088c.2156-.1247.2157-.43967 0-.56442l-3.4941-2.02148zm-5.70505-6.93848c-.20999-.12141-.48111.02725-.48145.28125v.60156c.00817.00733.01649.01471.02441.02246l5.08985 4.98438 2.06054-2.01856z" fill="#00a008" fill-rule="evenodd"/></svg>