<svg fill="none" height="24" viewBox="0 0 24 24" width="24" xmlns="http://www.w3.org/2000/svg"><path clip-rule="evenodd" d="m4 4.09962c.00046-1.66541 1.80045-2.70666 3.24023-1.87403l13.67967 7.91311c1.44.8329 1.4398 2.915 0 3.748l-13.67967 7.9131-.13574.0723c-1.36909.6725-2.99588-.2681-3.09961-1.792l-.00488-.1543zm1.53223 15.42868c-.0103.0104-.02149.0197-.03223.0293v.3682c.00028.5152.55353.8272.98926.5752l8.15914-4.7207-2.7011-2.7197zm-.03223-2.0976 5.3906-5.4346-5.3906-5.42871zm7.5029-5.4346 2.9873 3.0078 4.1787-2.416c.4411-.2554.4413-.8961 0-1.1514l-4.2001-2.42966zm-6.51364-8.47168c-.43563-.2518-.9888.06022-.98926.5752v.34179c.01089.00977.02178.01976.03223.03028l6.41407 6.45991 2.6787-2.70112z" fill="#00a008" fill-rule="evenodd"/></svg>