<svg fill="none" height="16" viewBox="0 0 16 16" width="16" xmlns="http://www.w3.org/2000/svg"><g fill="#00a008"><path d="m2.25031.75c.41422 0 .75.33579.75.75v1.5991c2.39863-2.452969 6.29822-2.830341 9.14309-.74087 3.1159 2.28852 3.7866 6.66963 1.498 9.78547-2.2885 3.1159-6.66959 3.7866-9.78545 1.4981-1.53991-1.131-2.48301-2.7747-2.7661-4.52182-.06626-.40888.2115-.79405.62038-.86031.40888-.06625.79405.21151.86031.62039.22273 1.37464.96306 2.66384 2.17335 3.55274 2.44818 1.7981 5.89051 1.2712 7.68861-1.177s1.2711-5.8905-1.177-7.68862c-2.17626-1.59837-5.13799-1.35953-7.03214.43282h1.27695c.41422 0 .75.33579.75.75s-.33578.75-.75.75h-3.25c-.41421 0-.75-.33579-.75-.75v-3.25c0-.41421.33579-.75.75-.75z"/><path d="m8.50031 5c0-.41421-.33578-.75-.75-.75-.41421 0-.75.33579-.75.75v3c0 .25076.12533.48494.33398.62404l2.25 1.49996c.34464.2298.81031.1367 1.04001-.20797.2298-.34465.1367-.8103-.208-1.04007l-1.91599-1.27735z"/></g></svg>