<svg fill="none" height="20" viewBox="0 0 20 20" width="20" xmlns="http://www.w3.org/2000/svg"><g fill="#00a008"><path d="m6.00026 5.49996h-1.36354c2.14161-2.55864 5.87438-3.28791 8.86338-1.56218 3.3481 1.93299 4.4952 6.21412 2.5622 9.56222-1.933 3.348-6.2141 4.4951-9.56215 2.5621-1.9622-1.1328-3.16873-3.0715-3.44195-5.1594-.05375-.4107-.43026-.7001-.84098-.6464-.41071.0538-.70009.4303-.64634.841.33117 2.5308 1.79576 4.8877 4.17927 6.2639 4.06549 2.3472 9.26405.9542 11.61125-3.1112 2.3472-4.0655.9542-9.26405-3.1113-11.61126-3.6235-2.092083-8.14724-1.21289-10.74984 1.88162v-1.5204c0-.41421-.33578-.75-.75-.75-.41421 0-.75.33579-.75.75v3.25c0 .41422.33579.75.75.75h3.25c.41422 0 .75-.33578.75-.75 0-.41421-.33578-.75-.75-.75z"/><path d="m10.5003 5.99996c0-.41421-.3358-.75-.75004-.75-.41421 0-.75.33579-.75.75v4c0 .26044.13512.50224.35693.63874l3.25001 2c.3528.2171.8147.1071 1.0318-.2457.2171-.3527.1071-.8147-.2457-1.0318l-2.893-1.78033z"/></g></svg>