<svg fill="none" height="24" viewBox="0 0 24 24" width="24" xmlns="http://www.w3.org/2000/svg"><g fill="#00a008"><path d="m7.49959 7.00007h-2.37524c2.49954-3.44581 7.24055-4.54599 11.04095-2.40902 4.0919 2.30087 5.5438 7.48325 3.2429 11.57515-2.3008 4.0919-7.4832 5.5438-11.57509 3.2429-2.19303-1.2332-3.62755-3.2928-4.13297-5.5714-.0897-.4044-.49023-.6595-.89461-.5698-.40439.0897-.6595.4902-.5698.8946.59386 2.6774 2.28202 5.1032 4.86219 6.5541 4.81398 2.7069 10.91088.9988 13.61778-3.8152s.9988-10.91091-3.8152-13.61783c-4.4266-2.489094-9.93797-1.2451-12.90091 2.71411v-2.49761c0-.41421-.33579-.75-.75-.75s-.75.33579-.75.75v4.25c0 .41422.33579.75.75.75h4.25c.41421 0 .75-.33578.75-.75 0-.41421-.33579-.75-.75-.75z"/><path d="m12.4996 7.00007c0-.41421-.3358-.75-.75-.75s-.75.33579-.75.75v5.00003c0 .2604.1351.5022.3569.6387l3.25 2c.3528.2171.8147.1071 1.0318-.2457.2171-.3527.1071-.8147-.2456-1.0318l-2.8931-1.7803z"/></g></svg>