<svg fill="none" height="16" viewBox="0 0 16 16" width="16" xmlns="http://www.w3.org/2000/svg"><path clip-rule="evenodd" d="m7 .5c-1.38071 0-2.5 1.11929-2.5 2.5v.00759c-1.26093.09353-2.30773 1.04199-2.51025 2.30804l-.86715 5.42107c-.31586 1.9746 1.20948 3.7633 3.2092 3.7633h7.3364c1.9998 0 3.5252-1.7889 3.2092-3.7636l-.0379-.2364h-8.8395c-.41421 0-.75-.3358-.75-.75 0-.41421.33579-.75.75-.75h8.5995l-.5897-3.68458c-.2026-1.26581-1.2491-2.2141-2.5098-2.3078v-.00762c0-1.38071-1.1193-2.5-2.5-2.5zm3 2.5c0-.55228-.44772-1-1-1h-2c-.55228 0-1 .44772-1 1z" fill="#00a008" fill-rule="evenodd"/></svg>