<svg fill="none" height="20" viewBox="0 0 20 20" width="20" xmlns="http://www.w3.org/2000/svg"><path clip-rule="evenodd" d="m9.25 1c-1.79493 0-3.25 1.45507-3.25 3.25v.75494c-1.67053.08902-3.04886 1.37173-3.24173 3.05154l-.75778 6.60002c-.23512 2.0478 1.36619 3.8435 3.42748 3.8435h9.14453c2.0613 0 3.6626-1.7957 3.4275-3.8435l-.018-.1565h-10.982c-.41421 0-.75-.3358-.75-.75s.33579-.75.75-.75h10.8098l-.5676-4.94353c-.1929-1.67996-1.5715-2.96275-3.2422-3.05156v-.75491c0-1.79493-1.4551-3.25-3.25-3.25zm3.25 4v-.75c0-.9665-.7835-1.75-1.75-1.75h-1.5c-.9665 0-1.75.7835-1.75 1.75v.75z" fill="#00a008" fill-rule="evenodd"/></svg>