<svg fill="none" height="24" viewBox="0 0 24 24" width="24" xmlns="http://www.w3.org/2000/svg"><path clip-rule="evenodd" d="m7 4.75c0-2.07107 1.67893-3.75 3.75-3.75h2.5c2.0711 0 3.75 1.67893 3.75 3.75v1.31096c1.5976.29152 2.8595 1.59821 3.0498 3.26334l.6485 5.6757h-12.6983c-.41421 0-.75.3358-.75.75s.33579.75.75.75h12.8697l.0942.8243c.2542 2.2252-1.4861 4.1757-3.7258 4.1757h-10.47494c-2.23974 0-3.98006-1.9505-3.72574-4.1758l.91428-8c.19024-1.66457 1.45144-2.97092 3.0483-3.26297zm8.5 0v1.25h-7v-1.25c0-1.24264 1.00736-2.25 2.25-2.25h2.5c1.2426 0 2.25 1.00736 2.25 2.25z" fill="#00a008" fill-rule="evenodd"/></svg>