<svg fill="none" height="24" viewBox="0 0 24 24" width="24" xmlns="http://www.w3.org/2000/svg"><g fill="#00a008"><path clip-rule="evenodd" d="m10.9453 8.22754c.1705.00018.3224.10831.3779.26953l2.2315 6.47263c.0894.2597-.1042.5303-.3789.5303h-.7959c-.1732-.0001-.3264-.1117-.3799-.2764l-.4492-1.3818h-2.626l-.44921 1.3818c-.0536.1648-.20763.2764-.38086.2764h-.7959c-.27455-.0002-.46736-.2707-.37793-.5303l2.23437-6.47263c.05563-.16113.20751-.26934.37793-.26953zm-.706 1.66211c-.0169.00003-.0319.01039-.0372.02637l-.88667 2.72558h1.84567l-.8847-2.72558c-.0053-.01598-.0203-.02637-.0371-.02637z" fill-rule="evenodd"/><path d="m15.75 8.22754c.2208 0 .4002.17866.4004.39941v6.47265c0 .2209-.1795.4004-.4004.4004h-.7373c-.2209 0-.4004-.1795-.4004-.4004v-6.47265c.0002-.22075.1796-.39941.4004-.39941z"/><path clip-rule="evenodd" d="m16.25 1c.4142 0 .75.33579.75.75v1.40332c.4918.08066.9004.20357 1.2695.3916.9408.47937 1.7062 1.24474 2.1856 2.18555.188.36909.3099.77775.3906 1.26953h1.4043c.4142 0 .75.33579.75.75s-.3358.75-.75.75h-1.2754c.0244.68888.0254 1.5063.0254 2.5v.25h1.25c.4142 0 .75.3358.75.75s-.3358.75-.75.75h-1.25v.25c0 .9937-.001 1.8111-.0254 2.5h1.2754c.4142 0 .75.3358.75.75s-.3358.75-.75.75h-1.4043c-.0807.4918-.2026.9004-.3906 1.2695l-.0928.1748c-.4825.8611-1.2107 1.5613-2.0928 2.0108l-.2041.0957c-.3152.1354-.6625.2279-1.0654.2939v1.4053c0 .4142-.3358.75-.75.75s-.75-.3358-.75-.75v-1.2754c-.2035.0072-.4183.013-.6455.0166l-1.8545.0088h-.25v1.25c0 .4142-.3358.75-.75.75s-.75-.3358-.75-.75v-1.25h-.25l-1.85449-.0088c-.22722-.0036-.44196-.0094-.64551-.0166v1.2754c0 .4142-.33579.75-.75.75s-.75-.3358-.75-.75v-1.4053c-.4029-.066-.75021-.1585-1.06543-.2939l-.2041-.0957c-.94081-.4794-1.70618-1.2448-2.18555-2.1856-.18799-.369-.30904-.7778-.38965-1.2695h-1.40527c-.41421 0-.75-.3358-.75-.75s.33579-.75.75-.75h1.27539c-.00719-.2035-.01303-.4183-.0166-.6455l-.00879-1.8545v-.25h-1.25c-.41421 0-.75-.3358-.75-.75s.33579-.75.75-.75h1.25v-.25c0-.9937.00004-1.81113.02441-2.5h-1.27441c-.41421 0-.75-.33579-.75-.75s.33579-.75.75-.75h1.4043c.06608-.40296.15948-.75017.29492-1.06543l.0957-.2041c.44943-.88206 1.14968-1.61031 2.01074-2.09277l.17481-.09278c.36913-.18803.77768-.31094 1.26953-.3916v-1.40332c0-.41421.33579-.75.75-.75s.75.33579.75.75v1.27441c.68887-.02437 1.5063-.02441 2.5-.02441h.25v-1.25c0-.41421.3358-.75.75-.75s.75.33579.75.75v1.25h.25c.9937 0 1.8111.00004 2.5.02441v-1.27441c0-.41421.3358-.75.75-.75zm-5.25 3.5c-1.42488 0-2.4036.0015-3.16211.06348-.74081.06054-1.13872.17159-1.42676.31836-.65851.33554-1.19375.87078-1.52929 1.52929-.14677.28804-.25782.68595-.31836 1.42676-.06198.75851-.06348 1.73723-.06348 3.16211v2c0 1.4249.0015 2.4036.06348 3.1621.06054.7408.17159 1.1387.31836 1.4268.33554.6585.87078 1.1937 1.52929 1.5293.28804.1467.68595.2578 1.42676.3183.75851.062 1.73723.0635 3.16211.0635h2c1.4249 0 2.4036-.0015 3.1621-.0635.7408-.0605 1.1387-.1716 1.4268-.3183.6585-.3356 1.1937-.8708 1.5293-1.5293.1467-.2881.2578-.686.3183-1.4268.062-.7585.0635-1.7372.0635-3.1621v-2c0-1.42488-.0015-2.4036-.0635-3.16211-.0605-.74081-.1716-1.13872-.3183-1.42676-.3356-.65851-.8708-1.19375-1.5293-1.52929-.2881-.14677-.686-.25782-1.4268-.31836-.7585-.06198-1.7372-.06348-3.1621-.06348z" fill-rule="evenodd"/></g></svg>