<svg fill="none" height="16" viewBox="0 0 16 16" width="16" xmlns="http://www.w3.org/2000/svg"><path clip-rule="evenodd" d="m6.87908 1.57668c.45852-.929065 1.78332-.929058 2.24184 0l1.58128 3.20411 3.536.5138c1.0253.14898 1.4347 1.40895.6928 2.13212l-2.5587 2.49405.604 3.52164c.1752 1.0211-.8966 1.7999-1.8137 1.3177l-3.1626-1.6627-3.16265 1.6627c-.91703.4822-1.98882-.2965-1.81368-1.3177l.60401-3.52164-2.55864-2.49405c-.741891-.72317-.332511-1.98314.69277-2.13212l3.53595-.5138zm1.12092 1.11809-1.47348 2.98559c-.14566.29514-.42722.49971-.75293.54704l-3.29479.47876 2.38413 2.32396c.23569.22973.34323.56073.2876.88513l-.56282 3.28145 2.94695-1.5493c.29132-.1531.63936-.1531.93068 0l2.94696 1.5493-.5628-3.28145c-.0557-.3244.0519-.6554.2876-.88514l2.3841-2.32395-3.2948-.47876c-.3257-.04733-.60726-.2519-.75292-.54704z" fill="#00a008" fill-rule="evenodd"/></svg>