<svg fill="none" height="20" viewBox="0 0 20 20" width="20" xmlns="http://www.w3.org/2000/svg"><path clip-rule="evenodd" d="m8.65675 2.26772c.5516-1.10989 2.13495-1.10989 2.68655.00001l1.9344 3.89231 4.3168.62291c1.2336.17801 1.7246 1.69555.829 2.5624l-3.117 3.01715.7368 4.2657c.2114 1.2239-1.0713 2.1598-2.1723 1.585l-3.871-2.021-3.87096 2.021c-1.10105.5748-2.38371-.3611-2.17232-1.585l.73674-4.2657-3.117-3.01715c-.895529-.86686-.40455-2.3844.82904-2.5624l4.31682-.62291zm1.34325.66758-1.99279 4.00976c-.18275.36772-.53444.62223-.94085.68087l-4.44664.64164 3.21197 3.10913c.29709.2876.43275.7035.36238 1.1109l-.75923 4.3959 3.98666-2.0814c.36246-.1892.7945-.1892 1.157 0l3.9867 2.0814-.7593-4.3959c-.0703-.4074.0653-.8233.3624-1.1109l3.212-3.10913-4.4467-.64164c-.4064-.05864-.7581-.31315-.9408-.68087z" fill="#00a008" fill-rule="evenodd"/></svg>