<svg fill="none" height="24" viewBox="0 0 24 24" width="24" xmlns="http://www.w3.org/2000/svg"><path clip-rule="evenodd" d="m10.4308 3.23503c.642-1.30068 2.4967-1.30068 3.1386 0l2.1616 4.37984 4.8334.70234c1.4354.20857 2.0086 1.97249.9699 2.98499l-3.4975 3.4092.8256 4.8139c.2452 1.4296-1.2553 2.5198-2.5391 1.8448l-4.3232-2.2728-4.32314 2.2728c-1.28385.675-2.78436-.4152-2.53916-1.8448l.82565-4.8139-3.49751-3.4092c-1.03866-1.0125-.46552-2.77642.96987-2.98499l4.83344-.70234zm1.7935.66385c-.0917-.18581-.3567-.18581-.4484 0l-2.21971 4.4977c-.18208.36893-.53404.62464-.94117.6838l-4.96351.72124c-.20505.0298-.28693.28178-.13855.42638l3.59162 3.501c.29461.2872.42905.7009.3595 1.1064l-.84787 4.9435c-.03503.2042.17933.3599.36274.2635l4.43945-2.334c.3642-.1914.7992-.1914 1.1634 0l4.4395 2.334c.1834.0964.3978-.0593.3627-.2635l-.8478-4.9435c-.0696-.4055.0648-.8192.3595-1.1064l3.5916-3.501c.1484-.1446.0665-.39658-.1386-.42638l-4.9635-.72124c-.4071-.05916-.7591-.31487-.9411-.6838z" fill="#00a008" fill-rule="evenodd"/></svg>