<svg fill="none" height="16" viewBox="0 0 16 16" width="16" xmlns="http://www.w3.org/2000/svg"><path clip-rule="evenodd" d="m8 1c3.866 0 7 3.13401 7 7 0 3.866-3.134 7-7 7-3.86599 0-7-3.134-7-7 0-3.86599 3.13401-7 7-7zm3.0303 4.96973c-.2929-.2929-.7677-.2929-1.06057 0l-2.46973 2.46972-.96973-.96972c-.10976-.10976-.245-.17856-.38672-.20606-.09473-.01838-.19237-.01838-.2871 0-.14172.0275-.27696.0963-.38672.20606s-.17856.245-.20606.38672c-.01838.09473-.01838.19237 0 .2871.0275.14172.0963.27696.20606.38672l1.35839 1.3584c.371.37103.97276.37103 1.34376 0l2.85842-2.8584c.1097-.10976.1785-.245.206-.38672.0184-.09473.0184-.19237 0-.2871-.0275-.14172-.0963-.27696-.206-.38672z" fill="#00a008" fill-rule="evenodd"/></svg>