<svg fill="none" height="20" viewBox="0 0 20 20" width="20" xmlns="http://www.w3.org/2000/svg"><path clip-rule="evenodd" d="m10 1.5c4.6944 0 8.5 3.80558 8.5 8.5 0 4.6944-3.8056 8.5-8.5 8.5-4.69442 0-8.5-3.8056-8.5-8.5 0-4.69442 3.80558-8.5 8.5-8.5zm4.5303 5.96973c-.2929-.2929-.7677-.2929-1.0606 0l-3.9697 3.96977-1.96973-1.96977c-.10976-.10976-.245-.17856-.38672-.20606-.09473-.01838-.19237-.01838-.2871 0-.14172.0275-.27696.0963-.38672.20606-.2929.29289-.2929.76767 0 1.06057l2.35839 2.3584c.371.371.97276.371 1.34378 0l4.3584-4.35843c.1097-.10976.1785-.245.206-.38672.0184-.09473.0184-.19237 0-.2871-.0275-.14172-.0963-.27696-.206-.38672z" fill="#00a008" fill-rule="evenodd"/></svg>