<svg fill="none" height="24" viewBox="0 0 24 24" width="24" xmlns="http://www.w3.org/2000/svg"><path clip-rule="evenodd" d="m12 2c5.5228 0 10 4.47715 10 10 0 5.5228-4.4772 10-10 10-5.52285 0-10-4.4772-10-10 0-5.52285 4.47715-10 10-10zm5.0303 6.96973c-.2929-.2929-.7677-.2929-1.0606 0l-4.9697 4.96977-2.46973-2.4698c-.10976-.1097-.245-.1785-.38672-.206-.09473-.0184-.19237-.0184-.2871 0-.14172.0275-.27696.0963-.38672.206-.2929.2929-.2929.7677 0 1.0606l2.85837 2.8584c.371.371.9728.371 1.3438 0l5.3584-5.3584c.2929-.29292.2929-.76768 0-1.06057z" fill="#00a008" fill-rule="evenodd"/></svg>