<svg fill="none" height="16" viewBox="0 0 16 16" width="16" xmlns="http://www.w3.org/2000/svg"><path clip-rule="evenodd" d="m6.51758.867216c.91902-.522173 2.04582-.522174 2.96484 0l3.99998 2.272464c.9381.53318 1.5176 1.52934 1.5176 2.6084v4.50392c0 1.0791-.5794 2.0752-1.5176 2.6084l-3.99998 2.2724c-.91902.5222-2.04582.5222-2.96484 0l-4-2.2724c-.93815-.5332-1.51758-1.5293-1.51758-2.6084v-4.50392c0-1.07906.57948-2.07522 1.51758-2.6084zm1.37988 9.137684c-.03342.0034-.06627.009-.09863.0156-.06527.0134-.12851.0323-.18848.0577-.32884.1391-.56787.4497-.60547.8193-.00343.0337-.00488.0679-.00488.1025s.00145.0689.00488.1026c.02054.2015.10146.3851.22364.5332.04082.0495.08626.0949.13574.1357.14807.1222.33168.2031.5332.2236.0337.0035.06793.0049.10254.0049s.06884-.0014.10254-.0049c.20152-.0205.38513-.1014.5332-.2236.04948-.0408.09492-.0862.13574-.1357.12218-.1481.2031-.3317.22364-.5332.00343-.0337.00488-.068.00488-.1026s-.00145-.0688-.00488-.1025c-.0376-.3696-.27663-.6802-.60547-.8193-.05997-.0254-.12321-.0443-.18848-.0577-.03236-.0066-.06521-.0122-.09863-.0156-.0337-.0034-.06793-.0049-.10254-.0049s-.06884.0015-.10254.0049zm.02539-6.00096c-.22688.02318-.42372.1475-.54492.32714-.05374.07964-.09233.17018-.11231.26758-.00505.02467-.00915.04971-.01171.0752-.00253.02505-.00391.05045-.00391.07617v3.5c0 .02604.00132.05179.00391.07715.01286.12573.05683.24225.12402.34179.05402.08007.12307.1491.20312.20313.07964.05373.17019.09234.26758.1123.04892.01003.09949.01563.15137.01563s.10245-.0056.15137-.01563c.09739-.01996.18794-.05857.26758-.1123.08005-.05403.1491-.12306.20312-.20313.06719-.09954.11116-.21606.12402-.34179.00259-.02536.00391-.05111.00391-.07715v-3.5c0-.02572-.00138-.05112-.00391-.07617-.00256-.02549-.00666-.05053-.01171-.0752-.01998-.0974-.05857-.18794-.11231-.26758-.1212-.17964-.31804-.30396-.54492-.32714-.02536-.0026-.0511-.00391-.07715-.00391s-.05179.00131-.07715.00391z" fill="#00a008" fill-rule="evenodd"/></svg>