<svg fill="none" height="20" viewBox="0 0 20 20" width="20" xmlns="http://www.w3.org/2000/svg"><path clip-rule="evenodd" d="m8.26367 1.26452c1.07593-.614737 2.39673-.614737 3.47263 0l5 2.85742c1.0905.62315 1.7637 1.78306 1.7637 3.03906v5.6787c-.0001 1.2559-.6733 2.415-1.7637 3.0381l-5 2.8574c-1.0759.6148-2.39665.6148-3.47263 0l-5-2.8574c-1.09037-.6231-1.76354-1.7822-1.76367-3.0381v-5.6787c0-1.256.67316-2.41591 1.76367-3.03906zm1.73633 10.73538c-.17261 0-.33486.0441-.47656.1211-.05659.0307-.10986.0667-.15918.1074-.07423.0612-.13938.1329-.19336.2129-.03599.0533-.06746.11-.09278.1699-.05043.1195-.07811.2509-.07812.3887 0 .5523.44772 1 1 1 .5523 0 1-.4477 1-1 0-.1378-.0277-.2692-.0781-.3887-.0253-.0599-.0568-.1166-.0928-.1699-.054-.08-.1191-.1517-.1934-.2129-.0493-.0407-.1025-.0767-.1591-.1074-.1417-.077-.304-.1211-.4766-.1211zm0-7.00003c-.41418 0-.74995.33583-.75.75v4.50003c0 .4142.33579.75.75.75.4142 0 .75-.3358.75-.75v-4.50003c0-.41417-.3358-.75-.75-.75z" fill="#00a008" fill-rule="evenodd"/></svg>