<svg fill="none" height="24" viewBox="0 0 24 24" width="24" xmlns="http://www.w3.org/2000/svg"><path clip-rule="evenodd" d="m10.002 1.62076c1.2364-.712772 2.7596-.712771 3.996 0l6 3.45801c1.2389.71419 2.002 2.03584 2.002 3.46582v6.91111c0 1.4298-.7634 2.7506-2.002 3.4649l-6 3.4589c-1.2364.7128-2.7596.7128-3.996 0l-6.00005-3.4589c-1.23859-.7143-2.00192-2.0351-2.00195-3.4649v-6.91111c0-1.42997.76311-2.75162 2.00195-3.46582zm1.998 12.37894c-.5521 0-.9998.4479-1 1 0 .1035.0157.2039.0449.2978.0196.0628.0453.1229.0762.1797.0924.1699.2324.3101.4023.4023.0565.0307.1164.0558.1787.0752.0942.0294.1941.045.2979.045s.2037-.0156.2979-.045c.0623-.0194.1222-.0445.1787-.0752.1699-.0922.3099-.2324.4023-.4023.0309-.0568.0566-.1169.0762-.1797.0292-.0939.0449-.1943.0449-.2978-.0002-.5521-.4479-1-1-1zm0-7.00003c-.4141 0-.7498.336-.75.75v4.50003c0 .4142.3358.75.75.75s.75-.3358.75-.75v-4.50003c-.0002-.414-.3359-.75-.75-.75z" fill="#00a008" fill-rule="evenodd"/></svg>