<svg fill="none" height="16" viewBox="0 0 16 16" width="16" xmlns="http://www.w3.org/2000/svg"><path clip-rule="evenodd" d="m7.45909 1.85235c.34193-.16413.73989-.16413 1.08182 0l4.24999 2.04c.4334.20802.7091.64616.7091 1.1269v8.23075c0 .1381-.1119.25-.25.25h-1.25v-5.74997c0-.9665-.7835-1.75-1.75-1.75h-4.5c-.9665 0-1.75.7835-1.75 1.75v5.74997h-1.25c-.13807 0-.25-.1119-.25-.25v-8.23075c0-.48074.27569-.91888.70909-1.1269zm-1.95909 11.64765h5v-5.74997c0-.13807-.1119-.25-.25-.25h-4.5c-.13807 0-.25.11193-.25.25zm3.69001-12.999939c-.75225-.361082-1.62777-.361082-2.38002 0l-4.25 2.039999c-.95347.45767-1.55999 1.42157-1.55999 2.47919v8.23075c0 .9665.7835 1.75 1.75 1.75h10.5c.9665 0 1.75-.7835 1.75-1.75v-8.23075c0-1.05762-.6065-2.02152-1.56-2.47919zm-1.69001 10.499939c-.41421 0-.75.3358-.75.75s.33579.75.75.75h1c.41421 0 .75-.3358.75-.75s-.33579-.75-.75-.75zm-.75-1.74997c0-.41421.33579-.75.75-.75h1c.41421 0 .75.33579.75.75s-.33579.74997-.75.74997h-1c-.41421 0-.75-.33576-.75-.74997z" fill="#00a008" fill-rule="evenodd"/></svg>