<svg fill="none" height="20" viewBox="0 0 20 20" width="20" xmlns="http://www.w3.org/2000/svg"><path clip-rule="evenodd" d="m8.91307 2.81343c.67655-.37327 1.49733-.37327 2.17383 0l4.25 2.34482c.7175.39588 1.1631 1.15057 1.1631 1.97005v8.1217c0 .6903-.5596 1.25-1.25 1.25h-.25v-5.75c0-1.51879-1.2312-2.75001-2.75-2.75001h-4.5c-1.51878 0-2.75 1.23122-2.75 2.75001v5.75h-.25c-.69036 0-1.25-.5597-1.25-1.25v-8.12169c0-.81949.44555-1.57418 1.16308-1.97005zm-2.41307 13.68657h7v-5.75c0-.6904-.5596-1.25001-1.25-1.25001h-4.5c-.69036 0-1.25.55961-1.25 1.25001zm5.3115-14.99994c-1.1275-.622111-2.49546-.62211-3.62304 0l-4.25 2.34483c-1.19588.65979-1.93846 1.9176-1.93846 3.28342v8.12169c0 1.5188 1.23122 2.75 2.75 2.75h10.5c1.5188 0 2.75-1.2312 2.75-2.75v-8.1217c0-1.36581-.7426-2.62362-1.9385-3.28341zm-4.3115 10.24994c0-.4142.33579-.75.75-.75h3.5c.4142 0 .75.3358.75.75s-.3358.75-.75.75h-3.5c-.41421 0-.75-.3358-.75-.75zm.75 2.25c-.41421 0-.75.3358-.75.75s.33579.75.75.75h3.5c.4142 0 .75-.3358.75-.75s-.3358-.75-.75-.75z" fill="#00a008" fill-rule="evenodd"/></svg>