<svg fill="none" height="24" viewBox="0 0 24 24" width="24" xmlns="http://www.w3.org/2000/svg"><path clip-rule="evenodd" d="m10.8338 3.7828c.7168-.43441 1.6156-.43441 2.3324 0l5.25 3.18181c.6728.40779 1.0838 1.13742 1.0838 1.9242v9.36109c0 .6903-.5596 1.25-1.25 1.25h-1.25v-6.75c0-1.5188-1.2312-2.75003-2.75-2.75003h-4.5c-1.51878 0-2.75 1.23123-2.75 2.75003v6.75h-1.25c-.69036 0-1.25-.5597-1.25-1.25v-9.36109c0-.78678.41097-1.51641 1.08382-1.92419zm-2.3338 15.7171h7v-6.75c0-.6904-.5596-1.25-1.25-1.25h-4.5c-.69036 0-1.25.5596-1.25 1.25zm5.4436-16.9999c-1.1946-.72401-2.6926-.72401-3.8872 0l-5.25003 3.18182c-1.12142.67965-1.80637 1.89569-1.80637 3.20699v9.36109c0 1.5188 1.23122 2.75 2.75 2.75h12.5c1.5188 0 2.75-1.2312 2.75-2.75v-9.36109c0-1.3113-.685-2.52735-1.8064-3.20699zm-4.4436 14.25c0-.4142.33579-.75.75-.75h3.5c.4142 0 .75.3358.75.75s-.3358.75-.75.75h-3.5c-.41421 0-.75-.3358-.75-.75zm.75-3.75c-.41421 0-.75.3358-.75.75s.33579.75.75.75h3.5c.4142 0 .75-.3358.75-.75s-.3358-.75-.75-.75z" fill="#00a008" fill-rule="evenodd"/></svg>