<svg fill="none" height="16" viewBox="0 0 16 16" width="16" xmlns="http://www.w3.org/2000/svg"><g fill="#00a008"><path d="m9.69701 5.1717c.31239-.31242.81899-.31242 1.13139 0s.3124.81895 0 1.13137l-1.69697 1.69695 1.69707 1.69705c.3124.31243.3124.81893 0 1.13133-.3124.3125-.819.3125-1.1314 0l-1.69704-1.69701-1.69716 1.69721c-.31242.3124-.81895.3124-1.13137 0-.31242-.3125-.31242-.819 0-1.13141l1.69716-1.69717-1.69707-1.69707c-.31242-.31242-.31242-.81895 0-1.13137s.81895-.31242 1.13137 0l1.69707 1.69707z"/><path clip-rule="evenodd" d="m1 8c0-3.86599 3.13401-7 7-7 3.866 0 7 3.13401 7 7 0 3.866-3.134 7-7 7-3.86599 0-7-3.134-7-7zm7-5.5c-3.03757 0-5.5 2.46243-5.5 5.5 0 3.0376 2.46243 5.5 5.5 5.5 3.0376 0 5.5-2.4624 5.5-5.5 0-3.03757-2.4624-5.5-5.5-5.5z" fill-rule="evenodd"/></g></svg>