<svg fill="none" height="20" viewBox="0 0 20 20" width="20" xmlns="http://www.w3.org/2000/svg"><g fill="#00a008"><path d="m12.4392 6.49983c.3124-.31242.8189-.31242 1.1314 0 .3124.31242.3124.81895 0 1.13137l-2.404 2.4039 2.3691 2.3691c.3124.3124.3124.8189 0 1.1314-.3125.3124-.819.3124-1.1314 0l-2.3691-2.3691-2.40433 2.4044c-.31242.3124-.81895.3124-1.13137 0s-.31242-.819 0-1.1314l2.40438-2.4044-2.43929-2.43924c-.31242-.31242-.31242-.81895 0-1.13137s.81895-.31242 1.13137 0l2.43924 2.43929z"/><path clip-rule="evenodd" d="m1.5 10c0-4.69442 3.80558-8.5 8.5-8.5 4.6944 0 8.5 3.80558 8.5 8.5 0 4.6944-3.8056 8.5-8.5 8.5-4.69442 0-8.5-3.8056-8.5-8.5zm8.5-7c-3.86599 0-7 3.13401-7 7 0 3.866 3.13401 7 7 7 3.866 0 7-3.134 7-7 0-3.86599-3.134-7-7-7z" fill-rule="evenodd"/></g></svg>