<svg fill="none" height="24" viewBox="0 0 24 24" width="24" xmlns="http://www.w3.org/2000/svg"><g fill="#00a008"><path d="m15.1111 7.75752c.3124-.31242.8189-.31242 1.1313 0 .3125.31242.3125.81895 0 1.13137l-3.111 3.11101 3.1114 3.1114c.3125.3124.3125.819 0 1.1314-.3124.3124-.8189.3124-1.1313 0l-3.1114-3.1114-3.11157 3.1115c-.31242.3124-.81895.3124-1.13137 0s-.31242-.819 0-1.1314l3.11154-3.1115-3.11114-3.11113c-.31242-.31242-.31242-.81895 0-1.13137s.81895-.31242 1.13137 0l3.11117 3.1111z"/><path clip-rule="evenodd" d="m2 12c0-5.52285 4.47715-10 10-10 5.5228 0 10 4.47715 10 10 0 5.5228-4.4772 10-10 10-5.52285 0-10-4.4772-10-10zm10-8.5c-4.69442 0-8.5 3.80558-8.5 8.5 0 4.6944 3.80558 8.5 8.5 8.5 4.6944 0 8.5-3.8056 8.5-8.5 0-4.69442-3.8056-8.5-8.5-8.5z" fill-rule="evenodd"/></g></svg>