<svg fill="none" height="16" viewBox="0 0 16 16" width="16" xmlns="http://www.w3.org/2000/svg" xmlns:xlink="http://www.w3.org/1999/xlink"><clipPath id="a"><path d="m0 0h16v16h-16z"/></clipPath><g clip-path="url(#a)"><path clip-rule="evenodd" d="m3.7067 14.1553c-1.06082.0745-1.93971-.8044-1.86521-1.8652l.21365-3.04213c.02969-.42278.21144-.8211.51163-1.12129l6.4916-6.4916c1.07803-1.078084 2.82263-1.081438 3.89653-.0075l1.4143 1.41422c1.0739 1.07394 1.0705 2.8185-.0075 3.89658l-6.49163 6.49162c-.30019.3002-.69851.4819-1.12129.5116zm2.94253-1.7129-1.24747.0876-1.93503-1.935.08761-1.24748c.00424-.0604.03021-.1173.07309-.16018l4.53957-4.53957 3.182 3.18198-4.53959 4.53955c-.04288.0429-.09979.0689-.16018.0731zm5.76447-5.6774.8873-.88728c.49-.49004.4916-1.28302.0034-1.77117l-1.4142-1.41422c-.4882-.48815-1.2811-.48663-1.7712.00341l-.88725.88728z" fill="#00a008" fill-rule="evenodd"/></g></svg>