<svg fill="none" height="20" viewBox="0 0 20 20" width="20" xmlns="http://www.w3.org/2000/svg" xmlns:xlink="http://www.w3.org/1999/xlink"><clipPath id="a"><path d="m0 0h20v20h-20z"/></clipPath><g clip-path="url(#a)"><path clip-rule="evenodd" d="m2.42152 15.4512c-.1792 1.4531 1.0563 2.6886 2.50946 2.5094l3.62957-.4476c.49715-.0613.95941-.2869 1.31347-.6409l7.93568-7.93569c1.2679-1.26788 1.2668-3.3246-.0024-4.5938l-1.7678-1.76777c-1.2692-1.2692-3.3259-1.27027-4.5938-.00238l-7.93564 7.93564c-.35406.3541-.57963.8163-.64094 1.3135zm5.64487.612.30915-.0381c.16571-.0205.3198-.0957.43782-.2137l6.34634-6.3463-4.2427-4.24264-6.34628 6.34634c-.11802.118-.19321.2721-.21365.4378l-.03812.3091zm8.15281-7.65765.5298-.5298c.6827-.6827.6821-1.79017-.0013-2.47358l-1.7677-1.76777c-.6835-.68342-1.7909-.68399-2.4736-.00128l-.5298.52978z" fill="#00a008" fill-rule="evenodd"/></g></svg>