<svg fill="none" height="24" viewBox="0 0 24 24" width="24" xmlns="http://www.w3.org/2000/svg"><path clip-rule="evenodd" d="m6.37219 20.9283c-1.86955.3196-3.49318-1.304-3.17359-3.1736l.65611-3.838c.09598-.5615.36389-1.0794.76673-1.4823l9.27666-9.27668c1.4652-1.46512 3.8401-1.46564 5.3045-.00118l1.7678 1.76777c1.4645 1.46447 1.4639 3.83936-.0012 5.30449l-9.2767 9.2767c-.4028.4028-.9207.6707-1.4822.7667zm-1.01721-6.8597 4.70342 4.7033c.2163-.0555.4146-.1682.5734-.3271l6.6239-6.6239-4.9497-4.94972-6.6239 6.62392c-.15887.1589-.27157.3571-.32712.5735zm14.55352-4.90047-1.5916 1.59167-4.9498-4.94975 1.5917-1.59167c.8791-.87907 2.304-.87939 3.1827-.00071l1.7678 1.76777c.8786.87868.8783 2.30362-.0008 3.18269z" fill="#00a008" fill-rule="evenodd"/></svg>