<svg fill="none" height="16" viewBox="0 0 16 16" width="16" xmlns="http://www.w3.org/2000/svg"><path d="m10.1396 1.55673c1.0607-.18761 2.1331.09883 2.9932.73047 1.7566 1.29016 2.5622 3.92551 1.126 6.98047-.5846 1.24343-1.6269 2.41653-2.708 3.37893-1.0883.9687-2.27081 1.7724-3.19828 2.2656-.22016.1171-.48492.1171-.70508 0-.92734-.4932-2.10912-1.2971-3.19726-2.2656-1.0812-.9624-2.12437-2.1355-2.70899-3.37893-1.436163-3.05474-.63135-5.6902 1.125-6.98047.86004-.63167 1.93261-.91793 2.99317-.73047.78144.13823 1.5205.52805 2.13964 1.16894.61923-.64134 1.35895-1.03058 2.1406-1.16894z" fill="#00a008"/></svg>