<svg fill="none" height="16" viewBox="0 0 16 16" width="16" xmlns="http://www.w3.org/2000/svg"><path clip-rule="evenodd" d="m4.84128 1.5c-1.64229.14588-3.06969 1.24564-3.64088 2.81641l-.749267 2.0605c-.322875.88791.197798 1.81959 1.048867 2.06243v2.56066c0 1.933 1.567 3.5 3.5 3.5h6c1.933 0 3.5-1.567 3.5-3.5v-2.56066c.8511-.24284 1.3717-1.17452 1.0489-2.06243l-.7493-2.0605c-.5712-1.57077-1.9986-2.67053-3.6409-2.81641zm1.74317 1.50002c-.12082 0-.22435.08641-.24597.20528l-.42202 2.32111c-.13951.7673.44996 1.47361 1.22984 1.47361h1.70715c.77988 0 1.36935-.70631 1.22985-1.47361l-.42203-2.32111c-.02162-.11887-.12515-.20528-.24597-.20528zm6.33485 5.5h.0807v2.49998c0 1.1046-.8954 2-2 2h-.5v-.5c0-1.3807-1.11929-2.5-2.5-2.5s-2.5 1.1193-2.5 2.5v.5h-.5c-1.10457 0-2-.8954-2-2v-2.49998h.08072c.79717 0 1.52592-.34195 2.03283-.89782.4989.548 1.21867.89782 2.03275.89782h1.70715c.81415 0 1.53395-.34988 2.03285-.89796.5069.55595 1.2357.89796 2.033.89796zm-8.07269-5.47472c-1.01224.13744-1.88049.82465-2.23652 1.80373l-.74927 2.0605c-.01953.0537.02025.11049.0774.11049h1.1425c.6041 0 1.12177-.43203 1.22983-1.02639zm4.15339 9.9747v-.5c0-.5523-.44772-1-1-1s-1 .4477-1 1v.5zm2.1534-9.9747c1.0122.13744 1.8805.82465 2.2365 1.80373l.7493 2.0605c.0195.0537-.0203.11049-.0774.11049h-1.1425c-.6041 0-1.1218-.43203-1.2299-1.02639z" fill="#00a008" fill-rule="evenodd"/></svg>