<svg fill="none" height="20" viewBox="0 0 20 20" width="20" xmlns="http://www.w3.org/2000/svg"><path clip-rule="evenodd" d="m6.36267 2c-2.45665 0-4.56757 1.74366-5.0315 4.1561l-.374201 1.94582c-.154451.80315.319071 1.55892 1.043031 1.81025v3.33783c0 2.6234 2.12665 4.75 4.75 4.75h6.5c2.6234 0 4.75-2.1266 4.75-4.75v-3.33783c.724-.25133 1.1975-1.0071 1.043-1.81025l-.3742-1.94582c-.4639-2.41244-2.5748-4.1561-5.0315-4.1561zm1.49567 1.5c-.12339 0-.22833.09003-.24709.21199l-.51507 3.34794c-.11649.7572.46936 1.44007 1.23547 1.44007h3.33755c.7561 0 1.3367-.66519 1.2397-1.4105l-.5217-3.39056c-.0239-.11528-.1257-.19894-.2447-.19894zm7.85756 6.5h.7841v3.25c0 1.7949-1.4551 3.25-3.25 3.25h-.25v-1.75c0-1.5188-1.2312-2.75-2.75-2.75h-.5c-1.51878 0-2.75 1.2312-2.75 2.75v1.75h-.25c-1.79492 0-3.25-1.4551-3.25-3.25v-3.25h.78409c.79365 0 1.5179-.33858 2.02382-.88799.49915.54285 1.21589.88799 2.02374.88799h3.33755c.8076 0 1.5242-.34494 2.0233-.88754.5059.54914 1.23.88754 2.0234.88754zm-1.2355-2.55993-.0868-.56442c-.002-.01459-.0041-.02919-.0064-.04381l-.5114-3.32406c1.6341.10686 3.007 1.30402 3.32 2.93159l.3742 1.94583c.0115.05955-.0342.1148-.0948.1148h-1.7593c-.617 0-1.1416-.45014-1.2355-1.05993zm-11.67622-1.0007c.31301-1.62769 1.68615-2.82491 3.32035-2.93161l-.60498 3.93231c-.09381.60979-.6185 1.05993-1.23546 1.05993h-1.75928c-.06065 0-.10628-.05525-.09483-.1148zm5.69582 10.06063h3v-1.75c0-.6904-.5596-1.25-1.25-1.25h-.5c-.69036 0-1.25.5596-1.25 1.25z" fill="#00a008" fill-rule="evenodd"/></svg>