<svg fill="none" height="24" viewBox="0 0 24 24" width="24" xmlns="http://www.w3.org/2000/svg"><path clip-rule="evenodd" d="m2.04725 7.21169c.64956-2.76064 3.11297-4.71169 5.949-4.71169h8.00755c2.836 0 5.2994 1.95105 5.9489 4.71169l.7383 3.13751c.2174.9239-.3377 1.8151-1.191 2.0751v3.8257c0 2.8995-2.3505 5.25-5.25 5.25h-8.5c-2.8995 0-5.25-2.3505-5.25-5.25v-3.8257c-.85333-.26-1.40837-1.1512-1.19098-2.0751zm17.95275 5.28831h-1.9714c-.79 0-1.5091-.3349-2.0137-.8771-.4995.5372-1.213.8771-2.0137.8771h-4.00181c-.80087 0-1.51445-.34-2.01396-.8774-.50467.5423-1.22392.8774-2.01403.8774h-1.9714v3.75c0 2.0711 1.67893 3.75 3.75 3.75h1.25v-1.75c0-1.5188 1.2312-2.75 2.75-2.75h.5c1.5188 0 2.75 1.2312 2.75 2.75v1.75h1.25c2.0711 0 3.75-1.6789 3.75-3.75zm-5.392-8.28903.6371 5.41512c.0734.73391-.5031 1.37391-1.2439 1.37391h-4.00181c-.74825 0-1.32887-.6529-1.24144-1.39605l.63331-5.38316c.01481-.1259.12152-.22079.24829-.22079h4.72145c.1235 0 .2279.08999.247.21097zm2.128 5.25056.0512.43452c.074.62955.6075 1.10395 1.2414 1.10395h2.9589c.1612 0 .2803-.1503.2434-.3073l-.7383-3.13745c-.4832-2.05385-2.297-3.51384-4.399-3.55438l.0022.01857c.0011.00867.0022.01737.0033.02609l.6333 5.38316c.0013.01095.0025.0219.0036.03284zm-8.82961-5.46066c-2.10196.04054-3.91575 1.50053-4.39901 3.55438l-.73823 3.13745c-.03693.157.08214.3073.24335.3073h2.9589c.63386 0 1.16737-.4744 1.24144-1.10395zm5.59361 15.99913h-3v-1.75c0-.6904.5596-1.25 1.25-1.25h.5c.6904 0 1.25.5596 1.25 1.25z" fill="#00a008" fill-rule="evenodd"/></svg>