<svg fill="none" height="16" viewBox="0 0 16 16" width="16" xmlns="http://www.w3.org/2000/svg" xmlns:xlink="http://www.w3.org/1999/xlink"><clipPath id="a"><path d="m0 0h16v16h-16z"/></clipPath><g clip-path="url(#a)"><path clip-rule="evenodd" d="m8.50001 1.52784c0-.874656 1.08201-1.28457 1.66159-.629448l5.2776 5.965998c.3286.37153.3161.9334-.0288 1.28993l-5.2776 5.45608c-.59371.6138-1.63279.1935-1.63279-.6605v-1.8827c-1.32187.0514-2.56937.5409-3.66175 1.2283-1.23711.7784-2.23132 1.7839-2.8433 2.5866-.28363.372-.73376.4401-1.070386.3295-.343412-.1129-.681541-.4536-.655319-.9509.348583-6.60996 5.296345-9.31756 8.230755-9.99288zm1.49999 1.45183v1.73601c0 .46717-.3367.86103-.79233.93909-2.20565.37787-6.21028 2.24798-7.22092 6.99223.582-.5648 1.27364-1.131 2.05267-1.6211 1.40934-.8868 3.14856-1.55135 5.06376-1.45375.51344.02617.89682.45265.89682.94585v1.0722l3.9785-4.11305z" fill="#00a008" fill-rule="evenodd"/></g></svg>