<svg fill="none" height="20" viewBox="0 0 20 20" width="20" xmlns="http://www.w3.org/2000/svg"><path clip-rule="evenodd" d="m10.0004 1.97241c0-.83933 1.0088-1.266312 1.6114-.68201l7.7549 7.51995c.3986.38654.3822 1.03107-.0356 1.39685l-7.7549 6.7888c-.6142.5377-1.5758.1015-1.5758-.7148v-3.3828c-1.67812.0483-3.14327.7281-4.38216 1.6566-1.37144 1.0279-2.42885 2.3347-3.13102 3.3298-.52029.7373-1.763429.4068-1.722564-.5818.163627-3.9587 1.721594-6.6213 3.706354-8.34916 1.78889-1.55737 3.88619-2.32396 5.52939-2.64485zm1.5 1.29945v3.49789c0 .46839-.3402.86902-.8069.94064-1.50131.23038-3.54495.90123-5.23758 2.37481-1.35165 1.1767-2.50988 2.8902-2.98063 5.3822.62162-.7144 1.37123-1.459 2.24333-2.1127 1.55384-1.1646 3.53282-2.0661 5.88268-1.9488.5094.0254.8991.4476.8991.9463v2.7165l6.3936-5.59701z" fill="#00a008" fill-rule="evenodd"/></svg>