<svg fill="none" height="24" viewBox="0 0 24 24" width="24" xmlns="http://www.w3.org/2000/svg"><path clip-rule="evenodd" d="m13 2.49317c0-.85321 1.0375-1.27391 1.6317-.66165l7.7626 7.99779c.3739.38519.3545 1.00349-.0427 1.36459l-7.7625 7.0569c-.6103.5548-1.5891.1218-1.5891-.703v-2.8242c-4.52952.004-8.37578 3.1693-10.0323 5.2349-.54197.6758-1.74402.3403-1.7039-.6326.18682-4.5309 2.24904-7.6654 4.76556-9.72389 2.30686-1.88701 4.99084-2.86969 6.97064-3.24138zm1.5 1.35636v2.97481c0 .46561-.3374.87143-.8114.94134-1.7898.26396-4.45968 1.15701-6.70951 2.99732-1.92044 1.571-3.53858 3.8321-4.05592 7.0195 2.23805-2.2045 6.12522-4.7862 10.68013-4.5431.5075.027.8967.4478.8967.9468v2.1183l6.4221-5.8382z" fill="#00a008" fill-rule="evenodd"/></svg>