<svg fill="none" height="16" viewBox="0 0 16 16" width="16" xmlns="http://www.w3.org/2000/svg"><path d="m1 5c0-1.65685 1.34315-3 3-3h8c1.6569 0 3 1.34315 3 3v6c0 1.6569-1.3431 3-3 3h-8c-1.65685 0-3-1.3431-3-3z" fill="#e70b17"/><path d="m8.75 5.25c.4496 0 .874.10789 1.24872.2992-.63517-.64751-1.52004-1.0492-2.49872-1.0492-1.933 0-3.5 1.567-3.5 3.5s1.567 3.5 3.5 3.5c.97868 0 1.86355-.4017 2.49872-1.0492-.37472.1913-.79912.2992-1.24872.2992-1.51878 0-2.75-1.23122-2.75-2.75s1.23122-2.75 2.75-2.75z" fill="#fff"/><path d="m9.26383 10 1.23617-.68233 1.2362.68121-.2362-1.44631 1-1.02349-1.383-.21253-.617-1.31655-.61702 1.31544-1.38298.21252 1 1.02573z" fill="#fff"/><path clip-rule="evenodd" d="m12 3h-8c-1.10457 0-2 .89543-2 2v6c0 1.1046.89543 2 2 2h8c1.1046 0 2-.8954 2-2v-6c0-1.10457-.8954-2-2-2zm-8-1c-1.65685 0-3 1.34315-3 3v6c0 1.6569 1.34315 3 3 3h8c1.6569 0 3-1.3431 3-3v-6c0-1.65685-1.3431-3-3-3z" fill="#1d1f26" fill-opacity=".2" fill-rule="evenodd"/></svg>