<svg fill="none" height="20" viewBox="0 0 20 20" width="20" xmlns="http://www.w3.org/2000/svg"><path d="m1 6c0-1.65685 1.34315-3 3-3h12c1.6569 0 3 1.34315 3 3v8c0 1.6569-1.3431 3-3 3h-12c-1.65685 0-3-1.3431-3-3z" fill="#e70b17"/><path d="m11 7c.581 0 1.1234.16514 1.5828.45104-.7337-.88635-1.8423-1.45104-3.0828-1.45104-2.20914 0-4 1.79086-4 4 0 2.2091 1.79086 4 4 4 1.2405 0 2.3491-.5647 3.0828-1.451-.4594.2859-1.0018.451-1.5828.451-1.65685 0-3-1.3431-3-3 0-1.65685 1.34315-3 3-3z" fill="#fff"/><path d="m11.9548 12 1.5452-.7676 1.5452.7663-.2952-1.6271 1.25-1.15138-1.7287-.2391-.7713-1.48112-.7713 1.47987-1.7287.23909 1.25 1.15394z" fill="#fff"/><path clip-rule="evenodd" d="m16 4h-12c-1.10457 0-2 .89543-2 2v8c0 1.1046.89543 2 2 2h12c1.1046 0 2-.8954 2-2v-8c0-1.10457-.8954-2-2-2zm-12-1c-1.65685 0-3 1.34315-3 3v8c0 1.6569 1.34315 3 3 3h12c1.6569 0 3-1.3431 3-3v-8c0-1.65685-1.3431-3-3-3z" fill="#1d1f26" fill-opacity=".2" fill-rule="evenodd"/></svg>