<svg fill="none" height="24" viewBox="0 0 24 24" width="24" xmlns="http://www.w3.org/2000/svg"><path d="m2 7c0-1.65685 1.34315-3 3-3h14c1.6569 0 3 1.34315 3 3v10c0 1.6569-1.3431 3-3 3h-14c-1.65685 0-3-1.3431-3-3z" fill="#e70b17"/><path clip-rule="evenodd" d="m19 5h-14c-1.10457 0-2 .89543-2 2v10c0 1.1046.89543 2 2 2h14c1.1046 0 2-.8954 2-2v-10c0-1.10457-.8954-2-2-2zm-14-1c-1.65685 0-3 1.34315-3 3v10c0 1.6569 1.34315 3 3 3h14c1.6569 0 3-1.3431 3-3v-10c0-1.65685-1.3431-3-3-3z" fill="#1d1f26" fill-opacity=".2" fill-rule="evenodd"/><g fill="#fff"><path d="m13 9c.581 0 1.1234.16514 1.5828.45104-.7337-.88635-1.8423-1.45104-3.0828-1.45104-2.20914 0-4 1.79086-4 4 0 2.2091 1.79086 4 4 4 1.2405 0 2.3491-.5647 3.0828-1.451-.4594.2859-1.0018.451-1.5828.451-1.6569 0-3-1.3431-3-3s1.3431-3 3-3z"/><path d="m13.9548 14 1.5452-.7676 1.5452.7663-.2952-1.6271 1.25-1.1514-1.7287-.2391-.7713-1.4811-.7713 1.4799-1.7287.2391 1.25 1.1539z"/></g></svg>