<svg fill="none" height="16" viewBox="0 0 16 16" width="16" xmlns="http://www.w3.org/2000/svg"><g fill="#00a008"><path d="m8.57032 8.99121c.20835-.35766.66754-.47948 1.02539-.27148l2.28129 1.32817c.3579.2082.4796.6674.2714 1.0253-.2083.358-.6674.4788-1.0253.2706l-2.28129-1.3272c-.35786-.2083-.47957-.66745-.27149-1.02539z"/><path d="m6.68653 7.91211c.1795-.30925.57703-.41495.8877-.23633.31064.17872.41669.57436.2373.88379-.17936.30917-.57609.41551-.88672.23731-.31076-.17869-.4177-.57529-.23828-.88477z"/><path clip-rule="evenodd" d="m6.50001 1.5c1.49974.00005 2.68171.62433 3.44726 1.62891.72993.95786 1.04173 2.20818.97263 3.48144l2.4551 1.41211c1.5536.89334 2.0862 2.87164 1.1895 4.41894l-.0879.1426c-.9036 1.3905-2.7226 1.8756-4.2032 1.1211l-.1474-.0791-4.50099-2.5879c-1.55378-.8934-2.08648-2.87253-1.18945-4.41994.8971-1.54738 2.88468-2.07796 4.43847-1.18457l.52246.29981c-.07846-.66182-.29955-1.24629-.6416-1.69531-.47262-.62022-1.2078-1.03804-2.25488-1.03809-1.03105.00004-1.79644.26619-2.36035.66602-.56709.40217-.97574.97185-1.23828 1.64648-.53419 1.37311-.42955 3.10646.12109 4.3916.3337.7786 1.02203 1.7077 1.66992 2.4775.31678.3764.61121.7007.82617.9297.10708.1141.19421.2044.25391.2657.02975.0305.05316.054.06836.0693.00755.0076.01302.014.0166.0176.00148.0014.00391.0029.00391.0029l.00097.001.05176.0566c.24113.2938.22483.7285-.04883 1.0039-.29192.2937-.76674.2957-1.06054.0039l-.00098-.001-.00098-.0019-.02734-.0273c-.01794-.0181-.04352-.0447-.07617-.0782-.06568-.0673-.16-.1642-.27442-.2861-.22872-.2437-.54174-.5885-.87988-.9902-.66192-.7866-1.47395-1.8576-1.90039-2.8526-.687815-1.60502-.833459-3.74647-.1416-5.52537.35062-.90123.92454-1.72796 1.76953-2.32715.84825-.60139 1.92569-.94234 3.22754-.94238zm1.62598 5.23438c-.83987-.48291-1.9113-.19404-2.39258.63574-.47908.82637-.19672 1.88629.63965 2.36718l4.50094 2.5879c.84.4829 1.9114.1943 2.3926-.6357.479-.8264.1967-1.88635-.6396-2.36723z" fill-rule="evenodd"/></g></svg>