<svg fill="none" height="20" viewBox="0 0 20 20" width="20" xmlns="http://www.w3.org/2000/svg"><g fill="#00a008"><path d="m9.9912 11.1719c.2061-.3593.6642-.4833 1.0234-.2774l3.5811 2.0528c.3593.206.4834.6651.2773 1.0244-.2061.3587-.6643.483-1.0234.2773l-3.5811-2.0537c-.35903-.206-.48302-.6642-.2773-1.0234z"/><path d="m7.41894 9.69629c.2284-.3927.73442-.52658 1.12988-.29981.39527.22679.53077.72832.30274 1.12112-.22836.3928-.73437.5276-1.12989.3008-.39529-.2269-.53103-.7294-.30273-1.12211z"/><path clip-rule="evenodd" d="m8.20019 2c3.35891.00012 5.48661 3.16998 5.25681 6.38672-.0006.00921-.0029.01824-.0039.02734l2.4785 1.42188c1.9776 1.13396 2.6554 3.64616 1.5137 5.61036l-.1113.1797c-1.1499 1.7653-3.4651 2.3816-5.3496 1.4238l-.1875-.1006-5.72855-3.2851c-1.91594-1.0987-2.61198-3.4906-1.61523-5.42484l.10156-.18555c1.14186-1.96392 3.67095-2.63689 5.64842-1.50293l1.7608 1.00977c-.1403-2.28195-1.7321-4.06043-3.76371-4.06055-1.3211 0-2.32174.34543-3.07031.87695-.75213.53418-1.29316 1.2878-1.64161 2.16895-.70608 1.78571-.58507 4.0171.11817 5.6582.42875 1.0004 1.30354 2.18 2.11523 3.1445.39865.4737.76961.8808 1.04004 1.169.13489.1437.24496.2577.32031.3349.03756.0386.06663.0684.08594.0879l.02735.0274c.29353.2918.29541.7667.0039 1.0605-.29196.2938-.76773.2958-1.06152.0039l-.00098-.001c-.00047-.0004-.00119-.0011-.00195-.0019-.00166-.0017-.00389-.0048-.00684-.0078-.00595-.006-.01457-.0145-.02539-.0254-.02209-.0223-.05406-.055-.09472-.0967-.08133-.0834-.19778-.2041-.33985-.3555-.28418-.3028-.67374-.7304-1.09375-1.2294-.8257-.9812-1.82518-2.3028-2.34668-3.5196-.84496-1.9718-.99904-4.61497-.13476-6.80076.4367-1.10436 1.14201-2.11054 2.16894-2.83984 1.03083-.73195 2.34306-1.1543 3.93848-1.1543zm1.25683 5.85254c-1.26597-.72595-2.8806-.29152-3.60546.95508-.72127 1.24078-.29728 2.83208.96289 3.55468l5.72855 3.2852c1.266.7259 2.8806.2915 3.6054-.9551.7212-1.2408.2973-2.8321-.9629-3.5547z" fill-rule="evenodd"/></g></svg>