<svg fill="none" height="24" viewBox="0 0 24 24" width="24" xmlns="http://www.w3.org/2000/svg"><g fill="#00a008"><path d="m12.4145 13.377c.2064-.359.6654-.4826 1.0244-.2764l4.3476 2.5c.3591.2065.4829.6653.2764 1.0244-.2065.3587-.6645.4825-1.0234.2764l-4.3487-2.5c-.3588-.2066-.4827-.6655-.2763-1.0244z"/><path d="m9.15177 11.501c.27729-.4783.89183-.6424 1.37203-.3662.4802.2761.6445.8879.3672 1.3662-.2772.478-.8909.6419-1.37106.3662-.48023-.2761-.64535-.888-.36817-1.3662z"/><path clip-rule="evenodd" d="m10.0004 2.5c2.153.00011 3.7596.93112 4.7676 2.38574.9208 1.32907 1.3089 3.04455 1.249 4.78809l3.4727 1.99707c2.4009 1.3809 3.2232 4.4388 1.8369 6.8301l-.1348.2197c-1.3963 2.149-4.2079 2.8992-6.4961 1.7334l-.2275-.123-6.95705-4c-2.32616-1.3377-3.17095-4.2497-1.96094-6.60454l.12402-.22558c1.38645-2.39147 4.45707-3.2108 6.85837-1.83008l1.9746 1.13476c-.0747-1.18097-.4049-2.24857-.9716-3.0664-.7243-1.04518-1.8681-1.73915-3.5352-1.73926-3.16823 0-5.00035 1.64345-5.87792 3.7832-.90147 2.19849-.78709 4.9269.06738 6.9209.52375 1.2221 1.58609 2.6515 2.56152 3.8105.48055.5711.92702 1.0619 1.25293 1.4092.16267.1734.29469.3109.38574.4043.04539.0466.08099.0818.1045.1055l.03418.0342c.29373.292.29487.7667.00293 1.0605-.29199.2938-.76676.2959-1.06055.0039l-.00098-.001c-.00056-.0005-.001-.0019-.00195-.0029-.00194-.0019-.00528-.0043-.00879-.0078-.00703-.007-.01725-.0171-.03027-.0303-.02622-.0264-.06387-.0655-.11231-.1152-.09702-.0995-.23637-.2438-.40625-.4248-.33966-.362-.80474-.8733-1.30664-1.4697-.98933-1.1756-2.1764-2.7462-2.79297-4.1846-1.00353-2.3416-1.13918-5.48854-.07617-8.08106 1.08705-2.65108 3.43413-4.71484 7.26562-4.71484zm1.7842 6.4707c-1.6875-.97012-3.843-.39179-4.81349 1.2822-.96831 1.6704-.39566 3.8091 1.28809 4.7774l6.957 4c1.6875.9702 3.843.3918 4.8135-1.2823.9679-1.6702.3955-3.8091-1.2881-4.7773z" fill-rule="evenodd"/></g></svg>